<svg width="529" height="578" viewBox="0 0 529 578" fill="none" xmlns="http://www.w3.org/2000/svg">
<circle cx="264.5" cy="264.5" r="154" fill="#FFF9EF" stroke="#FFF9EF"/>
<circle cx="264.5" cy="264.5" r="264" stroke="#6A0600" stroke-linecap="round" stroke-dasharray="4 6"/>
<path d="M128.351 374.8C128.351 373.136 128.629 371.611 129.183 370.224C129.759 368.816 130.549 367.6 131.551 366.576C132.554 365.552 133.749 364.763 135.135 364.208C136.522 363.653 138.026 363.376 139.647 363.376C142.058 363.376 144.159 363.963 145.951 365.136C147.743 366.309 149.045 367.952 149.855 370.064L145.631 371.12C145.226 370.267 144.714 369.584 144.095 369.072C143.477 368.539 142.794 368.155 142.047 367.92C141.301 367.664 140.511 367.536 139.679 367.536C138.399 367.536 137.279 367.856 136.319 368.496C135.359 369.115 134.613 369.968 134.079 371.056C133.567 372.144 133.311 373.392 133.311 374.8C133.311 376.229 133.567 377.488 134.079 378.576C134.613 379.664 135.359 380.517 136.319 381.136C137.279 381.755 138.399 382.064 139.679 382.064C140.533 382.064 141.343 381.936 142.111 381.68C142.901 381.424 143.615 380.997 144.255 380.4C144.917 379.803 145.471 379.003 145.919 378L150.079 378.96C149.226 381.328 147.893 383.131 146.079 384.368C144.266 385.605 142.122 386.224 139.647 386.224C138.026 386.224 136.522 385.947 135.135 385.392C133.749 384.837 132.554 384.059 131.551 383.056C130.549 382.032 129.759 380.827 129.183 379.44C128.629 378.032 128.351 376.485 128.351 374.8ZM167.647 386H163.391L163.071 384.24C162.538 384.837 161.909 385.317 161.183 385.68C160.479 386.043 159.701 386.224 158.847 386.224C157.653 386.224 156.618 385.957 155.743 385.424C154.869 384.891 154.186 384.112 153.695 383.088C153.205 382.043 152.959 380.795 152.959 379.344V370H157.631V378.768C157.631 379.835 157.845 380.645 158.271 381.2C158.719 381.755 159.391 382.032 160.287 382.032C161.141 382.032 161.802 381.744 162.271 381.168C162.741 380.592 162.975 379.771 162.975 378.704V370H167.647V386ZM174.734 380.752C174.841 381.179 175.011 381.509 175.246 381.744C175.502 381.979 175.801 382.149 176.142 382.256C176.483 382.363 176.835 382.416 177.198 382.416C177.859 382.416 178.371 382.299 178.734 382.064C179.097 381.829 179.278 381.531 179.278 381.168C179.278 380.805 179.139 380.539 178.862 380.368C178.606 380.176 178.265 380.027 177.838 379.92C177.411 379.792 176.963 379.675 176.494 379.568C175.961 379.44 175.363 379.291 174.702 379.12C174.041 378.928 173.411 378.672 172.814 378.352C172.217 378.011 171.726 377.563 171.342 377.008C170.958 376.432 170.766 375.717 170.766 374.864C170.766 373.883 171.033 373.008 171.566 372.24C172.099 371.472 172.857 370.875 173.838 370.448C174.819 370 175.982 369.776 177.326 369.776C178.969 369.776 180.313 370.117 181.358 370.8C182.403 371.483 183.15 372.443 183.598 373.68L179.534 374.704C179.427 374.427 179.267 374.213 179.054 374.064C178.841 373.893 178.574 373.776 178.254 373.712C177.955 373.627 177.657 373.584 177.358 373.584C176.803 373.584 176.366 373.691 176.046 373.904C175.726 374.117 175.566 374.384 175.566 374.704C175.566 374.917 175.63 375.099 175.758 375.248C175.907 375.397 176.099 375.515 176.334 375.6C176.59 375.685 176.878 375.76 177.198 375.824C177.539 375.888 177.902 375.973 178.286 376.08C178.926 376.229 179.577 376.411 180.238 376.624C180.921 376.837 181.55 377.125 182.126 377.488C182.702 377.829 183.171 378.299 183.534 378.896C183.897 379.472 184.089 380.219 184.11 381.136C184.11 382.075 183.843 382.939 183.31 383.728C182.777 384.496 181.998 385.104 180.974 385.552C179.95 386 178.702 386.224 177.23 386.224C175.459 386.224 173.977 385.861 172.782 385.136C171.587 384.411 170.83 383.291 170.51 381.776L174.734 380.752ZM188.181 370V365.52H192.949V370H196.245V374.128H192.949V379.888C192.949 380.613 193.109 381.125 193.429 381.424C193.77 381.723 194.197 381.883 194.709 381.904C195.221 381.904 195.733 381.861 196.245 381.776V385.84C195.157 386.032 194.122 386.085 193.141 386C192.159 385.936 191.295 385.68 190.549 385.232C189.823 384.784 189.247 384.123 188.821 383.248C188.394 382.373 188.181 381.253 188.181 379.888V374.128H185.941V370H188.181ZM206.294 386.224C204.737 386.224 203.339 385.893 202.102 385.232C200.865 384.571 199.894 383.621 199.19 382.384C198.507 381.147 198.166 379.685 198.166 378C198.166 376.315 198.518 374.864 199.222 373.648C199.947 372.411 200.929 371.461 202.166 370.8C203.425 370.117 204.822 369.776 206.358 369.776C207.937 369.776 209.345 370.117 210.582 370.8C211.841 371.461 212.833 372.411 213.558 373.648C214.283 374.864 214.646 376.304 214.646 377.968C214.646 379.675 214.273 381.147 213.526 382.384C212.801 383.621 211.798 384.571 210.518 385.232C209.259 385.893 207.851 386.224 206.294 386.224ZM206.294 382C206.849 382 207.382 381.851 207.894 381.552C208.406 381.253 208.822 380.816 209.142 380.24C209.462 379.643 209.622 378.896 209.622 378C209.622 377.104 209.462 376.368 209.142 375.792C208.822 375.195 208.417 374.747 207.926 374.448C207.435 374.149 206.913 374 206.358 374C205.761 374 205.227 374.149 204.758 374.448C204.289 374.747 203.905 375.195 203.606 375.792C203.329 376.368 203.19 377.104 203.19 378C203.19 378.896 203.329 379.643 203.606 380.24C203.883 380.816 204.257 381.253 204.726 381.552C205.195 381.851 205.718 382 206.294 382ZM217.464 370H221.688L222.008 371.632C222.52 371.077 223.128 370.629 223.832 370.288C224.536 369.947 225.304 369.776 226.136 369.776C227.117 369.776 228.024 369.989 228.856 370.416C229.709 370.843 230.392 371.461 230.904 372.272C231.501 371.525 232.237 370.928 233.112 370.48C234.008 370.011 234.989 369.776 236.056 369.776C237.315 369.776 238.403 370.043 239.32 370.576C240.259 371.109 240.984 371.888 241.496 372.912C242.008 373.936 242.264 375.184 242.264 376.656V386H237.592V377.232C237.592 376.208 237.357 375.429 236.888 374.896C236.419 374.341 235.757 374.064 234.904 374.064C234.008 374.064 233.315 374.341 232.824 374.896C232.333 375.451 232.088 376.261 232.088 377.328V386H227.416V377.232C227.416 376.208 227.203 375.429 226.776 374.896C226.349 374.341 225.699 374.064 224.824 374.064C223.928 374.064 223.256 374.341 222.808 374.896C222.36 375.451 222.136 376.24 222.136 377.264V386H217.464V370ZM253.075 386.224C251.433 386.224 250.003 385.883 248.787 385.2C247.571 384.496 246.622 383.515 245.939 382.256C245.278 380.997 244.947 379.525 244.947 377.84C244.947 376.283 245.278 374.896 245.939 373.68C246.601 372.464 247.529 371.515 248.723 370.832C249.918 370.128 251.273 369.776 252.787 369.776C254.387 369.776 255.774 370.107 256.947 370.768C258.121 371.408 259.038 372.325 259.699 373.52C260.361 374.715 260.691 376.101 260.691 377.68C260.691 377.936 260.681 378.203 260.659 378.48C260.638 378.757 260.606 379.067 260.563 379.408H249.939C250.046 379.984 250.249 380.485 250.547 380.912C250.846 381.317 251.219 381.637 251.667 381.872C252.137 382.085 252.67 382.192 253.267 382.192C253.929 382.192 254.526 382.053 255.059 381.776C255.593 381.499 255.987 381.104 256.243 380.592L260.435 381.744C259.795 383.173 258.835 384.283 257.555 385.072C256.275 385.84 254.782 386.224 253.075 386.224ZM255.603 376.368C255.582 375.835 255.443 375.365 255.187 374.96C254.931 374.555 254.601 374.235 254.195 374C253.79 373.765 253.342 373.659 252.851 373.68C252.361 373.701 251.913 373.829 251.507 374.064C251.123 374.277 250.793 374.587 250.515 374.992C250.238 375.376 250.067 375.835 250.003 376.368H255.603ZM263.526 370H267.782L268.102 372.112C268.508 371.557 268.988 371.099 269.542 370.736C270.118 370.352 270.748 370.096 271.43 369.968C272.134 369.84 272.902 369.851 273.734 370V374.416C273.18 374.224 272.582 374.171 271.942 374.256C271.302 374.32 270.694 374.533 270.118 374.896C269.542 375.237 269.073 375.749 268.71 376.432C268.369 377.115 268.198 377.979 268.198 379.024V386H263.526V370ZM289.026 379.408C289.154 380.027 289.388 380.539 289.73 380.944C290.071 381.349 290.508 381.659 291.042 381.872C291.575 382.064 292.183 382.16 292.866 382.16C293.996 382.16 294.85 381.915 295.426 381.424C296.002 380.933 296.29 380.325 296.29 379.6C296.29 379.003 296.108 378.523 295.746 378.16C295.404 377.776 294.903 377.456 294.242 377.2C293.602 376.944 292.866 376.688 292.034 376.432C291.18 376.197 290.327 375.931 289.474 375.632C288.62 375.312 287.831 374.917 287.106 374.448C286.402 373.979 285.836 373.381 285.41 372.656C284.983 371.909 284.78 370.981 284.802 369.872C284.802 368.485 285.143 367.312 285.826 366.352C286.53 365.371 287.479 364.635 288.674 364.144C289.89 363.632 291.287 363.376 292.866 363.376C294.252 363.376 295.49 363.579 296.578 363.984C297.666 364.368 298.572 364.955 299.298 365.744C300.023 366.512 300.535 367.461 300.834 368.592L296.29 369.584C296.204 369.115 295.991 368.72 295.65 368.4C295.33 368.059 294.935 367.813 294.466 367.664C293.996 367.493 293.516 367.397 293.026 367.376C292.428 367.376 291.884 367.472 291.394 367.664C290.924 367.856 290.54 368.133 290.242 368.496C289.964 368.859 289.826 369.275 289.826 369.744C289.826 370.277 289.986 370.715 290.306 371.056C290.647 371.376 291.106 371.653 291.682 371.888C292.258 372.123 292.887 372.357 293.57 372.592C294.444 372.869 295.33 373.168 296.226 373.488C297.143 373.808 297.986 374.224 298.754 374.736C299.522 375.227 300.14 375.867 300.61 376.656C301.079 377.424 301.314 378.384 301.314 379.536C301.314 380.795 301.015 381.925 300.418 382.928C299.82 383.931 298.914 384.731 297.698 385.328C296.503 385.925 294.988 386.224 293.154 386.224C291.618 386.224 290.242 386 289.026 385.552C287.81 385.104 286.807 384.453 286.018 383.6C285.228 382.747 284.706 381.712 284.45 380.496L289.026 379.408ZM318.772 386H314.516L314.196 384.24C313.663 384.837 313.034 385.317 312.308 385.68C311.604 386.043 310.826 386.224 309.972 386.224C308.778 386.224 307.743 385.957 306.868 385.424C305.994 384.891 305.311 384.112 304.82 383.088C304.33 382.043 304.084 380.795 304.084 379.344V370H308.756V378.768C308.756 379.835 308.97 380.645 309.396 381.2C309.844 381.755 310.516 382.032 311.412 382.032C312.266 382.032 312.927 381.744 313.396 381.168C313.866 380.592 314.1 379.771 314.1 378.704V370H318.772V386ZM326.371 383.536L327.011 383.504V392.4H322.339V370H326.563L326.851 372.016C327.256 371.397 327.875 370.875 328.707 370.448C329.539 370 330.478 369.776 331.523 369.776C332.867 369.776 334.062 370.117 335.107 370.8C336.152 371.461 336.974 372.411 337.571 373.648C338.19 374.864 338.499 376.315 338.499 378C338.499 379.664 338.2 381.115 337.603 382.352C337.006 383.589 336.174 384.549 335.107 385.232C334.062 385.893 332.867 386.224 331.523 386.224C330.286 386.224 329.23 385.957 328.355 385.424C327.502 384.891 326.84 384.261 326.371 383.536ZM333.475 378C333.475 376.827 333.176 375.888 332.579 375.184C331.982 374.459 331.203 374.096 330.243 374.096C329.646 374.096 329.102 374.245 328.611 374.544C328.12 374.843 327.726 375.28 327.427 375.856C327.15 376.432 327.011 377.147 327.011 378C327.011 378.832 327.15 379.547 327.427 380.144C327.726 380.72 328.12 381.168 328.611 381.488C329.102 381.787 329.646 381.936 330.243 381.936C331.203 381.936 331.982 381.573 332.579 380.848C333.176 380.123 333.475 379.173 333.475 378ZM345.371 383.536L346.011 383.504V392.4H341.339V370H345.563L345.851 372.016C346.256 371.397 346.875 370.875 347.707 370.448C348.539 370 349.478 369.776 350.523 369.776C351.867 369.776 353.062 370.117 354.107 370.8C355.152 371.461 355.974 372.411 356.571 373.648C357.19 374.864 357.499 376.315 357.499 378C357.499 379.664 357.2 381.115 356.603 382.352C356.006 383.589 355.174 384.549 354.107 385.232C353.062 385.893 351.867 386.224 350.523 386.224C349.286 386.224 348.23 385.957 347.355 385.424C346.502 384.891 345.84 384.261 345.371 383.536ZM352.475 378C352.475 376.827 352.176 375.888 351.579 375.184C350.982 374.459 350.203 374.096 349.243 374.096C348.646 374.096 348.102 374.245 347.611 374.544C347.12 374.843 346.726 375.28 346.427 375.856C346.15 376.432 346.011 377.147 346.011 378C346.011 378.832 346.15 379.547 346.427 380.144C346.726 380.72 347.12 381.168 347.611 381.488C348.102 381.787 348.646 381.936 349.243 381.936C350.203 381.936 350.982 381.573 351.579 380.848C352.176 380.123 352.475 379.173 352.475 378ZM367.763 386.224C366.206 386.224 364.808 385.893 363.571 385.232C362.334 384.571 361.363 383.621 360.659 382.384C359.976 381.147 359.635 379.685 359.635 378C359.635 376.315 359.987 374.864 360.691 373.648C361.416 372.411 362.398 371.461 363.635 370.8C364.894 370.117 366.291 369.776 367.827 369.776C369.406 369.776 370.814 370.117 372.051 370.8C373.31 371.461 374.302 372.411 375.027 373.648C375.752 374.864 376.115 376.304 376.115 377.968C376.115 379.675 375.742 381.147 374.995 382.384C374.27 383.621 373.267 384.571 371.987 385.232C370.728 385.893 369.32 386.224 367.763 386.224ZM367.763 382C368.318 382 368.851 381.851 369.363 381.552C369.875 381.253 370.291 380.816 370.611 380.24C370.931 379.643 371.091 378.896 371.091 378C371.091 377.104 370.931 376.368 370.611 375.792C370.291 375.195 369.886 374.747 369.395 374.448C368.904 374.149 368.382 374 367.827 374C367.23 374 366.696 374.149 366.227 374.448C365.758 374.747 365.374 375.195 365.075 375.792C364.798 376.368 364.659 377.104 364.659 378C364.659 378.896 364.798 379.643 365.075 380.24C365.352 380.816 365.726 381.253 366.195 381.552C366.664 381.851 367.187 382 367.763 382ZM378.933 370H383.189L383.509 372.112C383.914 371.557 384.394 371.099 384.949 370.736C385.525 370.352 386.154 370.096 386.837 369.968C387.541 369.84 388.309 369.851 389.141 370V374.416C388.586 374.224 387.989 374.171 387.349 374.256C386.709 374.32 386.101 374.533 385.525 374.896C384.949 375.237 384.479 375.749 384.117 376.432C383.775 377.115 383.605 377.979 383.605 379.024V386H378.933V370ZM392.743 370V365.52H397.511V370H400.807V374.128H397.511V379.888C397.511 380.613 397.671 381.125 397.991 381.424C398.332 381.723 398.759 381.883 399.271 381.904C399.783 381.904 400.295 381.861 400.807 381.776V385.84C399.719 386.032 398.684 386.085 397.703 386C396.722 385.936 395.858 385.68 395.111 385.232C394.386 384.784 393.81 384.123 393.383 383.248C392.956 382.373 392.743 381.253 392.743 379.888V374.128H390.503V370H392.743Z" fill="#822F00"/>
<path d="M58.514 296.626L95.936 261.382C102.8 254.914 108.212 249.568 112.172 245.344C116.132 240.988 118.97 237.028 120.686 233.464C122.402 229.768 123.26 225.94 123.26 221.98C123.26 216.832 121.874 212.74 119.102 209.704C116.33 206.668 111.974 205.15 106.034 205.15C102.338 205.15 99.17 206.074 96.53 207.922C93.89 209.638 91.778 212.212 90.194 215.644C88.742 218.944 87.95 223.102 87.818 228.118H58.316C58.58 216.766 60.89 207.526 65.246 200.398C69.734 193.138 75.674 187.792 83.066 184.36C90.458 180.796 98.51 179.014 107.222 179.014C117.914 179.014 126.758 180.862 133.754 184.558C140.75 188.254 145.898 193.27 149.198 199.606C152.63 205.942 154.346 213.004 154.346 220.792C154.346 226.732 153.356 232.276 151.376 237.424C149.528 242.572 146.294 247.984 141.674 253.66C137.054 259.336 130.586 266.002 122.27 273.658L100.688 293.458H157.118V319H58.514V296.626ZM240.256 291.082H172.54V267.52L236.098 180.4H270.946V265.342H287.974V291.082H270.946V319H240.256V291.082ZM242.236 265.342V213.862L205.408 265.342H242.236ZM343.864 160.6H373.762L326.044 338.8H296.146L343.864 160.6ZM475.456 180.4V203.17L424.174 319H392.89L444.37 205.942H379.822V180.4H475.456Z" fill="#FFFFFE"/>
<path d="M58.514 296.626L57.8284 295.898L57.514 296.194V296.626H58.514ZM95.936 261.382L96.6216 262.11L96.6218 262.11L95.936 261.382ZM112.172 245.344L112.902 246.028L112.907 246.022L112.912 246.017L112.172 245.344ZM120.686 233.464L121.587 233.898L121.593 233.885L120.686 233.464ZM96.53 207.922L97.075 208.76L97.0894 208.751L97.1035 208.741L96.53 207.922ZM90.194 215.644L89.286 215.225L89.2823 215.233L89.2787 215.241L90.194 215.644ZM87.818 228.118V229.118H88.792L88.8177 228.144L87.818 228.118ZM58.316 228.118L57.3163 228.095L57.2925 229.118H58.316V228.118ZM65.246 200.398L64.3954 199.872L64.3927 199.877L65.246 200.398ZM83.066 184.36L83.4871 185.267L83.4937 185.264L83.5003 185.261L83.066 184.36ZM149.198 199.606L148.311 200.068L148.315 200.075L148.319 200.082L149.198 199.606ZM151.376 237.424L150.443 237.065L150.439 237.076L150.435 237.086L151.376 237.424ZM122.27 273.658L122.946 274.395L122.947 274.394L122.27 273.658ZM100.688 293.458L100.012 292.721L98.1188 294.458H100.688V293.458ZM157.118 293.458H158.118V292.458H157.118V293.458ZM157.118 319V320H158.118V319H157.118ZM58.514 319H57.514V320H58.514V319ZM59.1996 297.354L96.6216 262.11L95.2504 260.654L57.8284 295.898L59.1996 297.354ZM96.6218 262.11C103.493 255.635 108.921 250.273 112.902 246.028L111.442 244.66C107.503 248.863 102.107 254.193 95.2502 260.654L96.6218 262.11ZM112.912 246.017C116.908 241.62 119.814 237.58 121.587 233.898L119.785 233.03C118.126 236.476 115.356 240.355 111.432 244.671L112.912 246.017ZM121.593 233.885C123.368 230.061 124.26 226.09 124.26 221.98H122.26C122.26 225.79 121.436 229.475 119.779 233.043L121.593 233.885ZM124.26 221.98C124.26 216.648 122.82 212.293 119.84 209.03L118.364 210.378C120.928 213.187 122.26 217.016 122.26 221.98H124.26ZM119.84 209.03C116.808 205.708 112.128 204.15 106.034 204.15V206.15C111.82 206.15 115.852 207.628 118.364 210.378L119.84 209.03ZM106.034 204.15C102.164 204.15 98.7885 205.12 95.9565 207.103L97.1035 208.741C99.5515 207.028 102.512 206.15 106.034 206.15V204.15ZM95.985 207.084C93.1577 208.921 90.9331 211.656 89.286 215.225L91.102 216.063C92.6229 212.768 94.6223 210.355 97.075 208.76L95.985 207.084ZM89.2787 215.241C87.7582 218.697 86.9525 222.993 86.8183 228.092L88.8177 228.144C88.9475 223.211 89.7258 219.191 91.1093 216.047L89.2787 215.241ZM87.818 227.118H58.316V229.118H87.818V227.118ZM59.3157 228.141C59.577 216.905 61.8623 207.853 66.0993 200.919L64.3927 199.877C59.9177 207.199 57.583 216.627 57.3163 228.095L59.3157 228.141ZM66.0966 200.924C70.4869 193.822 76.2811 188.613 83.4871 185.267L82.6449 183.453C75.0669 186.971 68.9811 192.454 64.3954 199.872L66.0966 200.924ZM83.5003 185.261C90.7486 181.766 98.6509 180.014 107.222 180.014V178.014C98.3691 178.014 90.1675 179.826 82.6317 183.459L83.5003 185.261ZM107.222 180.014C117.806 180.014 126.476 181.844 133.287 185.442L134.221 183.674C127.04 179.88 118.022 178.014 107.222 178.014V180.014ZM133.287 185.442C140.123 189.054 145.115 193.931 148.311 200.068L150.085 199.144C146.681 192.609 141.377 187.454 134.221 183.674L133.287 185.442ZM148.319 200.082C151.665 206.26 153.346 213.157 153.346 220.792H155.346C155.346 212.851 153.595 205.624 150.077 199.13L148.319 200.082ZM153.346 220.792C153.346 226.619 152.375 232.04 150.443 237.065L152.309 237.783C154.337 232.512 155.346 226.845 155.346 220.792H153.346ZM150.435 237.086C148.636 242.098 145.47 247.413 140.898 253.029L142.45 254.291C147.118 248.555 150.421 243.046 152.317 237.762L150.435 237.086ZM140.898 253.029C136.32 258.653 129.89 265.283 121.593 272.922L122.947 274.394C131.282 266.721 137.788 260.019 142.45 254.291L140.898 253.029ZM121.594 272.921L100.012 292.721L101.364 294.195L122.946 274.395L121.594 272.921ZM100.688 294.458H157.118V292.458H100.688V294.458ZM156.118 293.458V319H158.118V293.458H156.118ZM157.118 318H58.514V320H157.118V318ZM59.514 319V296.626H57.514V319H59.514ZM240.256 291.082H241.256V290.082H240.256V291.082ZM172.54 291.082H171.54V292.082H172.54V291.082ZM172.54 267.52L171.732 266.931L171.54 267.194V267.52H172.54ZM236.098 180.4V179.4H235.59L235.29 179.811L236.098 180.4ZM270.946 180.4H271.946V179.4H270.946V180.4ZM270.946 265.342H269.946V266.342H270.946V265.342ZM287.974 265.342H288.974V264.342H287.974V265.342ZM287.974 291.082V292.082H288.974V291.082H287.974ZM270.946 291.082V290.082H269.946V291.082H270.946ZM270.946 319V320H271.946V319H270.946ZM240.256 319H239.256V320H240.256V319ZM242.236 265.342V266.342H243.236V265.342H242.236ZM242.236 213.862H243.236V210.745L241.423 213.28L242.236 213.862ZM205.408 265.342L204.595 264.76L203.463 266.342H205.408V265.342ZM240.256 290.082H172.54V292.082H240.256V290.082ZM173.54 291.082V267.52H171.54V291.082H173.54ZM173.348 268.109L236.906 180.989L235.29 179.811L171.732 266.931L173.348 268.109ZM236.098 181.4H270.946V179.4H236.098V181.4ZM269.946 180.4V265.342H271.946V180.4H269.946ZM270.946 266.342H287.974V264.342H270.946V266.342ZM286.974 265.342V291.082H288.974V265.342H286.974ZM287.974 290.082H270.946V292.082H287.974V290.082ZM269.946 291.082V319H271.946V291.082H269.946ZM270.946 318H240.256V320H270.946V318ZM241.256 319V291.082H239.256V319H241.256ZM243.236 265.342V213.862H241.236V265.342H243.236ZM241.423 213.28L204.595 264.76L206.222 265.924L243.05 214.444L241.423 213.28ZM205.408 266.342H242.236V264.342H205.408V266.342ZM343.864 160.6V159.6H343.097L342.899 160.341L343.864 160.6ZM373.762 160.6L374.728 160.859L375.065 159.6H373.762V160.6ZM326.044 338.8V339.8H326.812L327.01 339.059L326.044 338.8ZM296.146 338.8L295.181 338.541L294.843 339.8H296.146V338.8ZM343.864 161.6H373.762V159.6H343.864V161.6ZM372.797 160.341L325.079 338.541L327.01 339.059L374.728 160.859L372.797 160.341ZM326.044 337.8H296.146V339.8H326.044V337.8ZM297.112 339.059L344.83 160.859L342.899 160.341L295.181 338.541L297.112 339.059ZM475.456 180.4H476.456V179.4H475.456V180.4ZM475.456 203.17L476.37 203.575L476.456 203.381V203.17H475.456ZM424.174 319V320H424.824L425.088 319.405L424.174 319ZM392.89 319L391.979 318.586L391.335 320H392.89V319ZM444.37 205.942L445.28 206.356L445.924 204.942H444.37V205.942ZM379.822 205.942H378.822V206.942H379.822V205.942ZM379.822 180.4V179.4H378.822V180.4H379.822ZM474.456 180.4V203.17H476.456V180.4H474.456ZM474.541 202.765L423.259 318.595L425.088 319.405L476.37 203.575L474.541 202.765ZM424.174 318H392.89V320H424.174V318ZM393.8 319.414L445.28 206.356L443.46 205.528L391.979 318.586L393.8 319.414ZM444.37 204.942H379.822V206.942H444.37V204.942ZM380.822 205.942V180.4H378.822V205.942H380.822ZM379.822 181.4H475.456V179.4H379.822V181.4Z" fill="#6A0600"/>
<path d="M54.514 291.626L91.936 256.382C98.8 249.914 104.212 244.568 108.172 240.344C112.132 235.988 114.97 232.028 116.686 228.464C118.402 224.768 119.26 220.94 119.26 216.98C119.26 211.832 117.874 207.74 115.102 204.704C112.33 201.668 107.974 200.15 102.034 200.15C98.338 200.15 95.17 201.074 92.53 202.922C89.89 204.638 87.778 207.212 86.194 210.644C84.742 213.944 83.95 218.102 83.818 223.118H54.316C54.58 211.766 56.89 202.526 61.246 195.398C65.734 188.138 71.674 182.792 79.066 179.36C86.458 175.796 94.51 174.014 103.222 174.014C113.914 174.014 122.758 175.862 129.754 179.558C136.75 183.254 141.898 188.27 145.198 194.606C148.63 200.942 150.346 208.004 150.346 215.792C150.346 221.732 149.356 227.276 147.376 232.424C145.528 237.572 142.294 242.984 137.674 248.66C133.054 254.336 126.586 261.002 118.27 268.658L96.688 288.458H153.118V314H54.514V291.626ZM236.256 286.082H168.54V262.52L232.098 175.4H266.946V260.342H283.974V286.082H266.946V314H236.256V286.082ZM238.236 260.342V208.862L201.408 260.342H238.236ZM339.864 155.6H369.762L322.044 333.8H292.146L339.864 155.6ZM471.456 175.4V198.17L420.174 314H388.89L440.37 200.942H375.822V175.4H471.456Z" fill="url(#paint0_linear_6811_4138)"/>
<rect x="206.415" y="460.415" width="117.169" height="117.169" rx="58.5845" fill="white"/>
<g clip-path="url(#clip0_6811_4138)">
<path d="M247.963 504.044H282.034C283.639 504.044 284.942 505.347 284.942 506.953V530.22C284.942 530.992 284.636 531.732 284.09 532.277C283.545 532.823 282.805 533.129 282.034 533.129H247.963C247.192 533.129 246.452 532.823 245.907 532.277C245.361 531.732 245.055 530.992 245.055 530.22V506.953C245.055 505.347 246.358 504.044 247.963 504.044ZM247.548 511.377V530.22C247.548 530.45 247.734 530.636 247.963 530.636H282.034C282.144 530.636 282.249 530.592 282.327 530.514C282.405 530.436 282.449 530.331 282.449 530.22V511.377L266.627 522.069C265.643 522.733 264.354 522.733 263.37 522.069L247.548 511.377ZM247.548 506.953V508.369L264.766 520.003C264.834 520.049 264.915 520.074 264.998 520.074C265.081 520.074 265.162 520.049 265.231 520.003L282.449 508.369V506.953C282.449 506.843 282.405 506.737 282.327 506.659C282.249 506.581 282.144 506.537 282.034 506.537H247.963C247.853 506.537 247.747 506.581 247.669 506.659C247.591 506.737 247.548 506.843 247.548 506.953Z" fill="url(#paint1_linear_6811_4138)"/>
</g>
<rect x="206.415" y="460.415" width="117.169" height="117.169" rx="58.5845" stroke="#6A0600" stroke-width="0.830986"/>
<rect x="28.3528" y="28.3528" width="89.2944" height="89.2944" rx="44.6472" fill="white"/>
<path fill-rule="evenodd" clip-rule="evenodd" d="M74.8902 81.5099H78.1968C84.7194 81.5099 90.0063 76.2231 90.0063 69.7005C90.0063 63.1779 84.7194 57.891 78.1968 57.891H67.8045C61.2819 57.891 55.995 63.1779 55.995 69.7005C55.995 77.1782 60.9238 81.7499 66.3155 84.5577C68.9939 85.9531 71.6912 86.8535 73.7309 87.4062C74.1485 87.5196 74.5368 87.6178 74.8902 87.7019V81.5099ZM76.7797 90.0128C76.7797 90.0128 76.0654 89.9089 74.8902 89.6424C69.4446 88.4067 54.1055 83.6876 54.1055 69.7005C54.1055 62.1348 60.2388 56.0015 67.8045 56.0015H78.1968C85.7624 56.0015 91.8958 62.1348 91.8958 69.7005C91.8958 77.2661 85.7624 83.3995 78.1968 83.3995H76.7797V90.0128Z" fill="url(#paint2_linear_6811_4138)"/>
<path fill-rule="evenodd" clip-rule="evenodd" d="M73.0017 71.1164C73.2523 71.1164 73.4926 71.0169 73.6698 70.8397C73.8469 70.6625 73.9465 70.4222 73.9465 70.1717C73.9465 69.9211 73.8469 69.6808 73.6698 69.5036C73.4926 69.3265 73.2523 69.2269 73.0017 69.2269C72.7512 69.2269 72.5108 69.3265 72.3337 69.5036C72.1565 69.6808 72.057 69.9211 72.057 70.1717C72.057 70.4222 72.1565 70.6625 72.3337 70.8397C72.5108 71.0169 72.7512 71.1164 73.0017 71.1164ZM73.0017 73.006C73.7534 73.006 74.4743 72.7073 75.0059 72.1758C75.5374 71.6443 75.836 70.9234 75.836 70.1717C75.836 69.42 75.5374 68.6991 75.0059 68.1675C74.4743 67.636 73.7534 67.3374 73.0017 67.3374C72.25 67.3374 71.5291 67.636 70.9976 68.1675C70.4661 68.6991 70.1674 69.42 70.1674 70.1717C70.1674 70.9234 70.4661 71.6443 70.9976 72.1758C71.5291 72.7073 72.25 73.006 73.0017 73.006ZM80.5598 71.1164C80.8104 71.1164 81.0507 71.0169 81.2278 70.8397C81.405 70.6625 81.5045 70.4222 81.5045 70.1717C81.5045 69.9211 81.405 69.6808 81.2278 69.5036C81.0507 69.3265 80.8104 69.2269 80.5598 69.2269C80.3092 69.2269 80.0689 69.3265 79.8917 69.5036C79.7146 69.6808 79.615 69.9211 79.615 70.1717C79.615 70.4222 79.7146 70.6625 79.8917 70.8397C80.0689 71.0169 80.3092 71.1164 80.5598 71.1164ZM80.5598 73.006C81.3115 73.006 82.0324 72.7073 82.5639 72.1758C83.0955 71.6443 83.3941 70.9234 83.3941 70.1717C83.3941 69.42 83.0955 68.6991 82.5639 68.1675C82.0324 67.636 81.3115 67.3374 80.5598 67.3374C79.8081 67.3374 79.0872 67.636 78.5557 68.1675C78.0241 68.6991 77.7255 69.42 77.7255 70.1717C77.7255 70.9234 78.0241 71.6443 78.5557 72.1758C79.0872 72.7073 79.8081 73.006 80.5598 73.006ZM65.4437 71.1164C65.6942 71.1164 65.9345 71.0169 66.1117 70.8397C66.2889 70.6625 66.3884 70.4222 66.3884 70.1717C66.3884 69.9211 66.2889 69.6808 66.1117 69.5036C65.9345 69.3265 65.6942 69.2269 65.4437 69.2269C65.1931 69.2269 64.9528 69.3265 64.7756 69.5036C64.5984 69.6808 64.4989 69.9211 64.4989 70.1717C64.4989 70.4222 64.5984 70.6625 64.7756 70.8397C64.9528 71.0169 65.1931 71.1164 65.4437 71.1164ZM65.4437 73.006C66.1953 73.006 66.9163 72.7073 67.4478 72.1758C67.9793 71.6443 68.2779 70.9234 68.2779 70.1717C68.2779 69.42 67.9793 68.6991 67.4478 68.1675C66.9163 67.636 66.1953 67.3374 65.4437 67.3374C64.692 67.3374 63.971 67.636 63.4395 68.1675C62.908 68.6991 62.6094 69.42 62.6094 70.1717C62.6094 70.9234 62.908 71.6443 63.4395 72.1758C63.971 72.7073 64.692 73.006 65.4437 73.006Z" fill="url(#paint3_linear_6811_4138)"/>
<rect x="28.3528" y="28.3528" width="89.2944" height="89.2944" rx="44.6472" stroke="#6A0600" stroke-width="0.705554"/>
<rect x="375.542" y="0.542254" width="152.915" height="152.915" rx="76.4577" fill="white"/>
<rect width="99.7747" height="99.7747" transform="translate(402.113 27.1128)" fill="white"/>
<path d="M477.965 85.5548L465.418 79.932C464.849 79.6884 464.229 79.5905 463.613 79.6471C462.997 79.7036 462.405 79.913 461.891 80.256C461.839 80.2896 461.789 80.3268 461.742 80.3676L455.184 85.9453C455.116 85.9824 455.041 86.0031 454.963 86.0059C454.886 86.0086 454.809 85.9933 454.738 85.9612C450.523 83.9267 446.156 79.5867 444.114 75.43C444.08 75.3606 444.062 75.2843 444.062 75.2069C444.062 75.1296 444.08 75.0533 444.114 74.9838L449.71 68.3437C449.75 68.2946 449.788 68.2432 449.822 68.1897C450.16 67.6731 450.365 67.0804 450.416 66.465C450.468 65.8497 450.366 65.2311 450.119 64.6651L444.536 52.1393C444.219 51.3999 443.671 50.7832 442.974 50.3819C442.276 49.9806 441.468 49.8162 440.669 49.9135C437.198 50.3698 434.012 52.0743 431.707 54.7085C429.401 57.3426 428.133 60.7262 428.141 64.2269C428.141 85.0236 445.06 101.943 465.856 101.943C469.357 101.949 472.74 100.681 475.374 98.3758C478.008 96.0703 479.713 92.8846 480.17 89.414C480.267 88.6192 480.105 87.8142 479.707 87.1188C479.31 86.4235 478.699 85.875 477.965 85.5548ZM465.856 98.7553C446.818 98.7553 431.328 83.2653 431.328 64.2269C431.319 61.5016 432.303 58.8663 434.095 56.8134C435.887 54.7605 438.366 53.4303 441.068 53.0715H441.129C441.236 53.0735 441.34 53.1078 441.427 53.1699C441.514 53.232 441.58 53.319 441.617 53.4195L447.222 65.9321C447.254 66.0016 447.27 66.0773 447.27 66.1538C447.27 66.2304 447.254 66.306 447.222 66.3756L441.615 73.0316C441.573 73.0791 441.535 73.1298 441.5 73.183C441.15 73.7186 440.943 74.3358 440.901 74.9746C440.858 75.6135 440.982 76.2525 441.259 76.8298C443.615 81.6531 448.475 86.4765 453.352 88.8324C453.932 89.1079 454.574 89.2283 455.215 89.1818C455.856 89.1352 456.474 88.9233 457.009 88.5668C457.059 88.5322 457.11 88.495 457.158 88.4552L463.713 82.8775C463.778 82.8428 463.849 82.8224 463.922 82.8178C463.996 82.8132 464.069 82.8245 464.138 82.851L476.687 88.4738C476.79 88.5175 476.876 88.5922 476.934 88.6876C476.992 88.7829 477.018 88.8939 477.009 89.005C476.652 91.7078 475.323 94.1882 473.271 95.9826C471.218 97.777 468.582 98.7626 465.856 98.7553Z" fill="url(#paint4_linear_6811_4138)"/>
<rect x="375.542" y="0.542254" width="152.915" height="152.915" rx="76.4577" stroke="#6A0600" stroke-width="1.08451"/>
<defs>
<linearGradient id="paint0_linear_6811_4138" x1="478.055" y1="290" x2="442.119" y2="117.486" gradientUnits="userSpaceOnUse">
<stop stop-color="#FF2525"/>
<stop offset="1" stop-color="#FF8743"/>
</linearGradient>
<linearGradient id="paint1_linear_6811_4138" x1="284.947" y1="533.129" x2="257.256" y2="495.148" gradientUnits="userSpaceOnUse">
<stop stop-color="#FF2525"/>
<stop offset="1" stop-color="#FF8743"/>
</linearGradient>
<linearGradient id="paint2_linear_6811_4138" x1="91.9006" y1="90.0128" x2="58.0776" y2="52.427" gradientUnits="userSpaceOnUse">
<stop stop-color="#FF2525"/>
<stop offset="1" stop-color="#FF8743"/>
</linearGradient>
<linearGradient id="paint3_linear_6811_4138" x1="83.3967" y1="73.006" x2="80.5191" y2="62.4535" gradientUnits="userSpaceOnUse">
<stop stop-color="#FF2525"/>
<stop offset="1" stop-color="#FF8743"/>
</linearGradient>
<linearGradient id="paint4_linear_6811_4138" x1="480.204" y1="101.943" x2="428.147" y2="49.8796" gradientUnits="userSpaceOnUse">
<stop stop-color="#FF2525"/>
<stop offset="1" stop-color="#FF8743"/>
</linearGradient>
<clipPath id="clip0_6811_4138">
<rect width="39.8873" height="39.8873" fill="white" transform="translate(245.055 499.056)"/>
</clipPath>
</defs>
</svg>
