<svg width="375" height="326" viewBox="0 0 375 326" fill="none" xmlns="http://www.w3.org/2000/svg">
<g opacity="0.12">
<path d="M-12.199 216.149C-12.0574 214.944 -11.5766 213.812 -10.7566 212.753C-9.93668 211.693 -8.71603 210.886 -7.09468 210.332C-5.54089 209.802 -4.0667 209.701 -2.67212 210.029C-1.25502 210.35 -0.0081616 211.055 1.06846 212.146C2.15991 213.207 3.0056 214.615 3.60552 216.372C4.20545 218.128 4.40194 219.771 4.19499 221.3C3.98804 222.829 3.42214 224.154 2.49729 225.274C1.58727 226.365 0.366616 227.171 -1.16466 227.694C-2.69594 228.217 -4.07977 228.326 -5.31616 228.019C-6.55256 227.712 -7.59124 227.174 -8.4322 226.405L-7.52815 229.604L-9.85884 230.4L-18.1655 206.08L-15.6321 205.214L-11.9172 216.091L-12.199 216.149ZM0.869495 217.306C0.208039 215.369 -0.821644 214.011 -2.21955 213.231C-3.60264 212.421 -5.13863 212.305 -6.82754 212.882C-7.88592 213.243 -8.75452 213.829 -9.43333 214.639C-10.0973 215.419 -10.5042 216.363 -10.6541 217.47C-10.8116 218.555 -10.6635 219.762 -10.2097 221.09C-9.75595 222.419 -9.13109 223.475 -8.33516 224.259C-7.53923 225.044 -6.64006 225.541 -5.63766 225.752C-4.61273 225.955 -3.57108 225.876 -2.5127 225.515C-0.823793 224.938 0.32379 223.917 0.930049 222.453C1.55113 220.958 1.53095 219.243 0.869495 217.306Z" fill="url(#paint0_linear_6278_4439)"/>
<path d="M28.8933 220.601C27.2285 220.546 25.7554 220.092 24.4741 219.24C23.2165 218.389 22.2422 217.25 21.5513 215.822C20.8604 214.395 20.5447 212.777 20.6044 210.97C20.6618 209.234 21.0814 207.7 21.8635 206.369C22.6455 205.037 23.6913 204.012 25.0007 203.294C26.3109 202.551 27.7865 202.207 29.4275 202.261C31.0448 202.315 32.4719 202.719 33.7088 203.474C34.9695 204.23 35.9358 205.25 36.6077 206.534C37.2796 207.818 37.565 209.268 37.464 210.884C37.4554 211.145 37.4345 211.419 37.4013 211.703C37.3681 211.988 37.3341 212.296 37.2993 212.628L23.4932 212.172C23.5039 213.292 23.7448 214.288 24.2159 215.161C24.6871 216.033 25.3188 216.733 26.1109 217.259C26.9276 217.762 27.8592 218.031 28.9056 218.065C30.2851 218.111 31.4591 217.888 32.4277 217.396C33.42 216.905 34.1464 216.179 34.6067 215.218L36.8949 216.222C36.1319 217.697 35.0593 218.816 33.6769 219.58C32.2954 220.32 30.7009 220.66 28.8933 220.601ZM34.5576 210.216C34.6151 209.195 34.419 208.283 33.9693 207.483C33.5433 206.683 32.9216 206.043 32.1041 205.564C31.2866 205.085 30.3309 204.827 29.2369 204.791C28.2855 204.759 27.41 204.957 26.6102 205.383C25.8105 205.809 25.1356 206.417 24.5857 207.209C24.0603 207.977 23.7336 208.859 23.6055 209.855L34.5576 210.216Z" fill="url(#paint1_linear_6278_4439)"/>
<path d="M56.3993 217.206C56.3264 217.931 56.4021 218.576 56.6265 219.143C56.8579 219.687 57.223 220.16 57.7219 220.562C58.2436 220.971 58.8912 221.294 59.6647 221.531C60.8704 221.901 61.8501 221.953 62.604 221.686C63.3875 221.404 63.8875 220.91 64.1039 220.205C64.2854 219.614 64.2386 219.077 63.9635 218.594C63.7112 218.118 63.3129 217.672 62.7685 217.256C62.231 216.818 61.6148 216.392 60.92 215.98C60.3704 215.662 59.7822 215.307 59.1556 214.916C58.536 214.502 57.9714 214.03 57.4618 213.5C56.9523 212.97 56.5879 212.373 56.3687 211.709C56.1495 211.044 56.176 210.268 56.4483 209.381C56.7484 208.403 57.2718 207.63 58.0184 207.062C58.7947 206.479 59.7121 206.126 60.7704 206.003C61.8515 205.886 63.0063 206.017 64.2348 206.393C65.6452 206.826 66.8022 207.517 67.7057 208.467C68.6319 209.423 69.1123 210.616 69.1466 212.045L66.5067 212.131C66.5289 211.491 66.3728 210.945 66.0383 210.494C65.7265 210.05 65.3264 209.69 64.8381 209.416C64.3725 209.149 63.8895 208.938 63.389 208.785C62.3653 208.471 61.4721 208.421 60.7095 208.635C59.9766 208.833 59.488 209.33 59.2437 210.126C59.1111 210.559 59.1018 210.954 59.2158 211.313C59.3367 211.648 59.5513 211.963 59.8595 212.257C60.1676 212.551 60.551 212.842 61.0096 213.132C61.4752 213.4 61.9793 213.704 62.5219 214.045C63.1327 214.406 63.741 214.817 64.3467 215.277C64.9594 215.713 65.5021 216.216 65.975 216.784C66.4547 217.33 66.7859 217.954 66.9684 218.657C67.1806 219.345 67.1541 220.121 66.8889 220.985C66.5817 221.986 66.04 222.778 65.2637 223.361C64.4943 223.922 63.5577 224.257 62.4539 224.366C61.3728 224.482 60.1952 224.345 58.9213 223.954C57.1696 223.417 55.8323 222.583 54.9094 221.454C54.0162 220.308 53.6101 218.914 53.6911 217.271L56.3993 217.206Z" fill="url(#paint2_linear_6278_4439)"/>
<path d="M90.2143 215.559L92.3558 211.044L94.7746 212.191L92.6331 216.706L96.9224 218.74L95.8517 220.998L91.5624 218.964L87.4477 227.639C86.9787 228.628 86.8413 229.445 87.0357 230.09C87.2515 230.746 87.6616 231.269 88.2658 231.661C88.8915 232.064 89.5795 232.39 90.3298 232.64L89.3356 234.737C88.4053 234.532 87.552 234.194 86.7758 233.72C86.0211 233.257 85.413 232.679 84.9515 231.986C84.5218 231.281 84.2867 230.472 84.2465 229.558C84.2277 228.653 84.4885 227.631 85.029 226.492L89.1436 217.816L86.7248 216.669L87.7955 214.412L90.2143 215.559Z" fill="url(#paint3_linear_6278_4439)"/>
<path d="M137.793 239.042C138.469 237.921 139.225 237.085 140.059 236.532C140.893 235.979 141.811 235.769 142.815 235.903C143.851 236.028 145.011 236.548 146.294 237.461L145.058 239.508C143.897 238.669 142.929 238.362 142.153 238.588C141.389 238.794 140.7 239.407 140.085 240.425L138.996 242.228L142.358 244.257L141.066 246.396L137.705 244.367L129.772 257.507L127.48 256.123L135.413 242.984L133.274 241.692L134.565 239.553L136.704 240.845L137.793 239.042Z" fill="url(#paint4_linear_6278_4439)"/>
<path d="M158.1 273.394C156.56 272.759 155.339 271.818 154.438 270.571C153.558 269.334 153.044 267.925 152.897 266.346C152.75 264.767 153.021 263.142 153.71 261.469C154.372 259.863 155.303 258.574 156.502 257.601C157.701 256.628 159.039 256.034 160.517 255.82C162.004 255.584 163.507 255.778 165.025 256.404C166.521 257.02 167.716 257.899 168.61 259.04C169.526 260.189 170.074 261.483 170.254 262.921C170.433 264.359 170.192 265.817 169.532 267.295C169.432 267.537 169.317 267.786 169.186 268.041C169.055 268.296 168.915 268.572 168.766 268.871L155.995 263.608C155.613 264.66 155.489 265.677 155.625 266.66C155.761 267.642 156.107 268.519 156.665 269.289C157.254 270.046 158.032 270.624 159 271.023C160.276 271.549 161.454 271.752 162.533 271.63C163.635 271.518 164.569 271.092 165.337 270.354L167.129 272.096C165.897 273.21 164.501 273.882 162.938 274.114C161.385 274.323 159.772 274.083 158.1 273.394ZM167.043 265.652C167.455 264.715 167.591 263.793 167.45 262.885C167.331 261.987 166.973 261.17 166.375 260.435C165.777 259.699 164.973 259.123 163.961 258.706C163.08 258.343 162.191 258.221 161.293 258.34C160.395 258.459 159.549 258.793 158.757 259.341C157.996 259.877 157.381 260.589 156.912 261.476L167.043 265.652Z" fill="url(#paint5_linear_6278_4439)"/>
<path d="M194.268 285.712C192.627 285.427 191.231 284.774 190.08 283.753C188.952 282.737 188.145 281.473 187.658 279.964C187.171 278.455 187.082 276.809 187.391 275.027C187.688 273.316 188.316 271.855 189.275 270.644C190.233 269.434 191.411 268.564 192.807 268.033C194.207 267.479 195.716 267.342 197.334 267.623C198.928 267.899 200.286 268.497 201.406 269.416C202.55 270.339 203.366 271.483 203.854 272.848C204.342 274.212 204.424 275.688 204.101 277.274C204.056 277.532 203.997 277.799 203.925 278.077C203.853 278.354 203.777 278.655 203.696 278.979L190.086 276.618C189.942 277.728 190.042 278.747 190.388 279.677C190.734 280.606 191.263 281.386 191.975 282.017C192.714 282.628 193.6 283.024 194.631 283.203C195.991 283.438 197.185 283.38 198.212 283.027C199.263 282.678 200.082 282.059 200.671 281.171L202.799 282.482C201.839 283.837 200.622 284.797 199.147 285.363C197.676 285.904 196.05 286.021 194.268 285.712ZM201.314 276.211C201.513 275.207 201.445 274.277 201.11 273.422C200.799 272.571 200.271 271.852 199.528 271.264C198.785 270.676 197.874 270.289 196.795 270.101C195.857 269.939 194.963 270.013 194.112 270.324C193.261 270.636 192.509 271.145 191.854 271.853C191.228 272.541 190.782 273.369 190.518 274.338L201.314 276.211Z" fill="url(#paint6_linear_6278_4439)"/>
<path d="M237.365 274.232L237.085 274.298L235.882 262.867L238.544 262.587L241.234 288.146L238.785 288.403L238.26 285.121C237.82 286.172 237.092 287.098 236.076 287.899C235.083 288.697 233.794 289.18 232.208 289.347C230.575 289.519 229.105 289.303 227.797 288.698C226.51 288.068 225.452 287.103 224.621 285.803C223.814 284.5 223.313 282.925 223.119 281.079C222.925 279.234 223.088 277.601 223.608 276.183C224.15 274.738 224.985 273.573 226.112 272.689C227.263 271.802 228.655 271.273 230.288 271.101C231.968 270.924 233.403 271.144 234.592 271.76C235.782 272.377 236.706 273.201 237.365 274.232ZM225.994 280.777C226.208 282.812 226.9 284.378 228.068 285.476C229.234 286.549 230.716 286.992 232.515 286.802C233.627 286.685 234.593 286.32 235.414 285.707C236.235 285.095 236.842 284.265 237.234 283.219C237.65 282.17 237.785 280.948 237.638 279.551C237.491 278.155 237.106 276.999 236.483 276.084C235.881 275.142 235.115 274.457 234.185 274.029C233.252 273.576 232.23 273.409 231.117 273.526C229.342 273.713 227.986 274.466 227.048 275.785C226.131 277.078 225.78 278.742 225.994 280.777Z" fill="url(#paint7_linear_6278_4439)"/>
<path d="M279.447 260.286L281.459 258.866L283.087 260.863C283.021 259.861 283.203 258.902 283.634 257.986C284.071 257.037 284.796 256.206 285.807 255.493C286.837 254.766 287.949 254.36 289.141 254.275C290.34 254.158 291.515 254.421 292.668 255.064C292.416 253.756 292.575 252.537 293.146 251.406C293.717 250.276 294.556 249.319 295.664 248.537C296.753 247.769 297.887 247.333 299.066 247.229C300.232 247.106 301.384 247.356 302.522 247.979C303.648 248.583 304.711 249.595 305.712 251.015L311.639 259.414L309.452 260.957L303.71 252.82C302.64 251.304 301.5 250.39 300.29 250.079C299.086 249.734 297.881 249.987 296.676 250.838C295.451 251.702 294.781 252.816 294.665 254.179C294.535 255.522 295.054 257.021 296.22 258.673L301.694 266.431L299.506 267.975L293.765 259.838C292.695 258.321 291.574 257.393 290.403 257.055C289.219 256.696 288.024 256.943 286.818 257.793C285.593 258.657 284.933 259.764 284.836 261.114C284.746 262.43 285.283 263.914 286.449 265.567L291.923 273.325L289.736 274.868L279.447 260.286Z" fill="url(#paint8_linear_6278_4439)"/>
<path d="M316.686 231.723L318.49 229.795L331.523 241.988L329.718 243.916L316.686 231.723ZM315.006 228.294C314.632 228.694 314.193 228.902 313.688 228.919C313.184 228.936 312.74 228.765 312.358 228.408C311.958 228.034 311.75 227.595 311.733 227.09C311.716 226.586 311.895 226.134 312.269 225.734C312.61 225.369 313.033 225.178 313.538 225.161C314.058 225.127 314.519 225.297 314.918 225.671C315.301 226.029 315.492 226.468 315.493 226.99C315.509 227.495 315.347 227.93 315.006 228.294Z" fill="url(#paint9_linear_6278_4439)"/>
<path d="M325.745 210.254L327.366 208.123L347.824 223.677L346.204 225.808L325.745 210.254Z" fill="url(#paint10_linear_6278_4439)"/>
<path d="M338.788 192.903L340.23 190.648L361.88 204.495L360.438 206.751L338.788 192.903Z" fill="url(#paint11_linear_6278_4439)"/>
</g>
<defs>
<linearGradient id="paint0_linear_6278_4439" x1="11.271" y1="232.693" x2="-27.4994" y2="227.078" gradientUnits="userSpaceOnUse">
<stop stop-color="#FF2525"/>
<stop offset="1" stop-color="#FF8743"/>
</linearGradient>
<linearGradient id="paint1_linear_6278_4439" x1="39.3571" y1="229.701" x2="6.00792" y2="212.026" gradientUnits="userSpaceOnUse">
<stop stop-color="#FF2525"/>
<stop offset="1" stop-color="#FF8743"/>
</linearGradient>
<linearGradient id="paint2_linear_6278_4439" x1="64.3849" y1="234.783" x2="39.6824" y2="215.041" gradientUnits="userSpaceOnUse">
<stop stop-color="#FF2525"/>
<stop offset="1" stop-color="#FF8743"/>
</linearGradient>
<linearGradient id="paint3_linear_6278_4439" x1="86.9415" y1="243.72" x2="68.502" y2="227.001" gradientUnits="userSpaceOnUse">
<stop stop-color="#FF2525"/>
<stop offset="1" stop-color="#FF8743"/>
</linearGradient>
<linearGradient id="paint4_linear_6278_4439" x1="129.925" y1="268.112" x2="114.074" y2="251.282" gradientUnits="userSpaceOnUse">
<stop stop-color="#FF2525"/>
<stop offset="1" stop-color="#FF8743"/>
</linearGradient>
<linearGradient id="paint5_linear_6278_4439" x1="164.713" y1="285.583" x2="139.669" y2="257.345" gradientUnits="userSpaceOnUse">
<stop stop-color="#FF2525"/>
<stop offset="1" stop-color="#FF8743"/>
</linearGradient>
<linearGradient id="paint6_linear_6278_4439" x1="203.373" y1="296.172" x2="172.789" y2="274.054" gradientUnits="userSpaceOnUse">
<stop stop-color="#FF2525"/>
<stop offset="1" stop-color="#FF8743"/>
</linearGradient>
<linearGradient id="paint7_linear_6278_4439" x1="245.244" y1="296.773" x2="208.693" y2="282.677" gradientUnits="userSpaceOnUse">
<stop stop-color="#FF2525"/>
<stop offset="1" stop-color="#FF8743"/>
</linearGradient>
<linearGradient id="paint8_linear_6278_4439" x1="318.829" y1="265.356" x2="267.498" y2="264.053" gradientUnits="userSpaceOnUse">
<stop stop-color="#FF2525"/>
<stop offset="1" stop-color="#FF8743"/>
</linearGradient>
<linearGradient id="paint9_linear_6278_4439" x1="340.88" y1="245.16" x2="324.692" y2="256.002" gradientUnits="userSpaceOnUse">
<stop stop-color="#FF2525"/>
<stop offset="1" stop-color="#FF8743"/>
</linearGradient>
<linearGradient id="paint10_linear_6278_4439" x1="357.152" y1="226.278" x2="343.84" y2="237.822" gradientUnits="userSpaceOnUse">
<stop stop-color="#FF2525"/>
<stop offset="1" stop-color="#FF8743"/>
</linearGradient>
<linearGradient id="paint11_linear_6278_4439" x1="371.389" y1="206.333" x2="359.054" y2="218.916" gradientUnits="userSpaceOnUse">
<stop stop-color="#FF2525"/>
<stop offset="1" stop-color="#FF8743"/>
</linearGradient>
</defs>
</svg>
