<svg width="760" height="464" viewBox="0 0 760 464" fill="none" xmlns="http://www.w3.org/2000/svg">
<g opacity="0.12">
<path d="M39.114 75.746L38.06 77.2581L59.5491 107.965L56.9619 111.677L33.0638 77.5882L37.6633 70.99L77.8829 81.6638L75.2957 85.3754L39.114 75.746ZM49.3159 97.8362L62.3476 79.1412L65.555 81.377L52.5234 100.072L49.3159 97.8362Z" fill="url(#paint0_linear_6278_4417)"/>
<path d="M88.5048 56.9182C89.3194 57.7145 90.1827 58.2522 91.0948 58.531C91.9858 58.7791 92.9207 58.7943 93.8994 58.5767C94.9089 58.338 95.9363 57.8616 96.9817 57.1474C98.6113 56.0342 99.6311 54.8865 100.041 53.7045C100.461 52.4706 100.345 51.3772 99.6941 50.424C99.148 49.6246 98.4456 49.1575 97.5868 49.0226C96.7588 48.8667 95.8246 48.9186 94.7844 49.1783C93.7232 49.4072 92.6013 49.7453 91.4186 50.1925C90.4931 50.5541 89.4852 50.927 88.3948 51.3112C87.2833 51.6646 86.155 51.8943 85.0098 52.0002C83.8645 52.1062 82.7785 51.9687 81.7517 51.5879C80.7249 51.207 79.8019 50.4171 78.9827 49.2179C78.0795 47.8958 77.6454 46.5013 77.6804 45.0343C77.7252 43.5155 78.1888 42.0488 79.0713 40.6342C79.9846 39.1985 81.2714 37.9136 82.9317 36.7793C84.838 35.477 86.8126 34.7368 88.8556 34.5587C90.9293 34.3597 92.8569 34.9369 94.6384 36.2903L92.1662 39.6027C91.4048 38.9503 90.585 38.6085 89.7067 38.5771C88.8592 38.5247 88.0294 38.6632 87.2172 38.9926C86.4357 39.301 85.7068 39.6862 85.0304 40.1483C83.6468 41.0936 82.7136 42.137 82.2307 43.2785C81.7577 44.3684 81.8887 45.4513 82.6239 46.5275C83.023 47.1117 83.4974 47.5091 84.0472 47.7198C84.576 47.8997 85.1704 47.9446 85.8303 47.8545C86.4903 47.7644 87.2216 47.5805 88.024 47.3029C88.8055 46.9945 89.6694 46.6749 90.6159 46.344C91.6545 45.95 92.7506 45.6071 93.9041 45.3152C95.0365 44.9925 96.181 44.8195 97.3375 44.796C98.473 44.7418 99.5598 44.9464 100.598 45.4098C101.646 45.8213 102.569 46.6113 103.367 47.7797C104.291 49.1325 104.731 50.5683 104.686 52.0871C104.62 53.5751 104.115 55.0474 103.171 56.5041C102.258 57.9397 100.941 59.2457 99.2187 60.422C96.8512 62.0393 94.5264 62.861 92.2441 62.8868C89.9716 62.8609 87.8703 61.9965 85.9403 60.2936L88.5048 56.9182Z" fill="url(#paint1_linear_6278_4417)"/>
<path d="M120.302 14.2463L124.143 12.7189L134.464 38.6693L130.623 40.1968L120.302 14.2463ZM120.21 8.27189C119.415 8.58838 118.654 8.59034 117.928 8.27774C117.203 7.96514 116.689 7.42824 116.386 6.66703C116.07 5.87121 116.068 5.11059 116.38 4.38517C116.693 3.65975 117.247 3.13879 118.043 2.82229C118.77 2.53331 119.496 2.54512 120.221 2.85772C120.981 3.15655 121.519 3.70388 121.836 4.49969C122.139 5.2609 122.116 6.0111 121.769 6.75029C121.457 7.47571 120.937 7.98291 120.21 8.27189Z" fill="url(#paint2_linear_6278_4417)"/>
<path d="M179.282 24.1186L177.98 19.2518C177.544 21.0838 176.672 22.6225 175.362 23.8682C174.044 25.0773 172.235 25.9091 169.933 26.3636C167.961 26.7532 166.219 26.7746 164.708 26.4277C163.197 26.0809 161.946 25.417 160.956 24.436C159.994 23.4114 159.358 22.1136 159.048 20.5428C158.593 18.2413 159.08 16.1904 160.509 14.3901C161.93 12.5532 164.234 11.1493 167.42 10.1784L175.674 7.58022L175.242 5.38836C174.939 3.85406 174.131 2.74211 172.818 2.0525C171.498 1.32636 169.87 1.15449 167.934 1.53689C166.034 1.91206 164.531 2.66429 163.426 3.79355C162.357 4.9156 161.748 6.34547 161.597 8.08316L157.611 7.50397C157.866 4.94864 158.828 2.80395 160.497 1.06991C162.203 -0.671343 164.462 -1.81975 167.275 -2.3753C170.526 -3.01743 173.213 -2.67506 175.334 -1.34817C177.486 -0.0650293 178.843 2.00125 179.405 4.85066L183.063 23.3718L179.282 24.1186ZM176.367 11.0872L168.068 13.751C166.285 14.3309 164.998 15.1165 164.207 16.1078C163.409 17.0625 163.136 18.1792 163.388 19.4578C163.641 20.7364 164.3 21.669 165.364 22.2558C166.466 22.8354 167.893 22.952 169.647 22.6057C171.656 22.2089 173.22 21.4823 174.34 20.4261C175.46 19.3699 176.179 18.1083 176.496 16.6412C176.843 15.1304 176.858 13.5713 176.54 11.9639L176.367 11.0872Z" fill="url(#paint3_linear_6278_4417)"/>
<path d="M249.006 8.7187C249.154 9.84829 249.5 10.8046 250.044 11.5878C250.591 12.3337 251.316 12.9238 252.22 13.3579C253.161 13.7945 254.263 14.0554 255.526 14.1406C257.495 14.2733 259.007 14.002 260.06 13.3265C261.153 12.6165 261.738 11.6856 261.815 10.5338C261.881 9.56788 261.617 8.7664 261.026 8.12939C260.472 7.49488 259.705 6.95806 258.727 6.51892C257.752 6.04262 256.661 5.61455 255.455 5.23469C254.504 4.94666 253.481 4.61647 252.387 4.24412C251.295 3.83462 250.266 3.31742 249.3 2.69252C248.335 2.06762 247.566 1.28805 246.995 0.353824C246.423 -0.580404 246.186 -1.77199 246.284 -3.22093C246.392 -4.81847 246.913 -6.18288 247.848 -7.31416C248.822 -8.48008 250.093 -9.34607 251.662 -9.91213C253.267 -10.4757 255.073 -10.6898 257.079 -10.5546C259.382 -10.3993 261.392 -9.76005 263.108 -8.63673C264.861 -7.5109 266.019 -5.86536 266.582 -3.7001L262.591 -2.62558C262.396 -3.60907 261.963 -4.38467 261.292 -4.95238C260.658 -5.51759 259.92 -5.92188 259.078 -6.16524C258.274 -6.4061 257.462 -6.55407 256.645 -6.60917C254.973 -6.72186 253.595 -6.4789 252.509 -5.88028C251.464 -5.31631 250.897 -4.38416 250.809 -3.08383C250.762 -2.37794 250.889 -1.77223 251.191 -1.26672C251.495 -0.798349 251.934 -0.395522 252.509 -0.0582339C253.083 0.279053 253.772 0.586702 254.574 0.864712C255.379 1.10557 256.255 1.38859 257.204 1.71377C258.264 2.04646 259.337 2.45471 260.424 2.93851C261.514 3.38516 262.52 3.95684 263.443 4.65354C264.369 5.31309 265.097 6.14588 265.626 7.15191C266.195 8.12329 266.432 9.31487 266.337 10.7267C266.227 12.3614 265.685 13.7617 264.71 14.9276C263.738 16.0564 262.431 16.9013 260.789 17.4623C259.183 18.0259 257.34 18.2375 255.26 18.0973C252.399 17.9045 250.064 17.1126 248.254 15.7217C246.484 14.2961 245.367 12.3175 244.903 9.78571L249.006 8.7187Z" fill="url(#paint4_linear_6278_4417)"/>
<path d="M339.913 12.5118C341.487 11.4508 343.322 10.8666 345.415 10.7592C347.509 10.6517 349.711 11.2777 352.022 12.6371C354.237 13.94 355.86 15.5864 356.893 17.5764C357.958 19.5852 358.392 21.7847 358.195 24.1749C358.05 26.5518 357.241 28.992 355.768 31.4954C354.295 33.9987 352.546 35.9073 350.52 37.2212C348.494 38.5351 346.344 39.2147 344.071 39.2599C341.849 39.2918 339.647 38.6658 337.465 37.3819C335.282 36.0979 333.743 34.5657 332.846 32.7853C331.949 31.0049 331.528 29.2236 331.583 27.4413L328.708 31.7769L325.387 29.8226L345.779 -4.83923L349.39 -2.71504L340.27 12.7865L339.913 12.5118ZM351.868 29.2012C353.492 26.4411 354.054 23.8339 353.554 21.3795C353.105 18.9119 351.677 16.97 349.269 15.5539C347.761 14.6664 346.18 14.2331 344.526 14.2537C342.923 14.2612 341.388 14.7406 339.921 15.6921C338.473 16.6114 337.192 18.0179 336.078 19.9115C334.964 21.805 334.347 23.624 334.228 25.3685C334.109 27.113 334.436 28.6876 335.208 30.0923C336.012 31.5158 337.168 32.6714 338.677 33.5588C341.084 34.9749 343.466 35.296 345.822 34.5221C348.229 33.735 350.245 31.9613 351.868 29.2012Z" fill="url(#paint5_linear_6278_4417)"/>
<path d="M376.592 65.8677C374.96 63.8358 373.995 61.6251 373.7 59.2356C373.427 56.8751 373.786 54.5569 374.775 52.281C375.765 50.0051 377.363 47.9808 379.569 46.2083C381.688 44.5057 383.936 43.4396 386.314 43.01C388.691 42.5804 390.974 42.7762 393.162 43.5973C395.38 44.3951 397.293 45.7954 398.902 47.7983C400.488 49.7722 401.464 51.8782 401.829 54.1163C402.218 56.3835 401.993 58.5706 401.154 60.6775C400.315 62.7845 398.886 64.6019 396.865 66.1299C396.546 66.3864 396.201 66.6401 395.829 66.891C395.457 67.1418 395.057 67.416 394.627 67.7135L381.088 50.8632C379.77 52.0174 378.834 53.3191 378.278 54.7684C377.723 56.2176 377.537 57.6805 377.721 59.1573C377.957 60.6397 378.588 62.0195 379.614 63.2967C380.967 64.9803 382.429 66.1461 384 66.794C385.595 67.471 387.197 67.5927 388.807 67.1589L389.949 70.8987C387.421 71.4972 384.999 71.3657 382.682 70.5041C380.395 69.6193 378.365 68.0738 376.592 65.8677ZM394.693 61.9997C395.965 61.0259 396.846 59.8638 397.338 58.5136C397.852 57.1924 397.977 55.8023 397.713 54.3432C397.448 52.8841 396.779 51.4869 395.706 50.1516C394.773 48.9905 393.646 48.1526 392.325 47.6379C391.004 47.1231 389.593 46.9429 388.093 47.0973C386.645 47.2574 385.265 47.7692 383.953 48.6327L394.693 61.9997Z" fill="url(#paint6_linear_6278_4417)"/>
<path d="M408.71 95.0932C407.776 95.7454 407.087 96.4936 406.643 97.3378C406.233 98.1671 406.045 99.0829 406.076 100.085C406.123 101.121 406.4 102.219 406.907 103.379C407.698 105.188 408.635 106.403 409.721 107.026C410.855 107.668 411.951 107.758 413.008 107.295C413.895 106.908 414.485 106.304 414.777 105.486C415.085 104.701 415.207 103.774 415.146 102.703C415.118 101.618 414.995 100.453 414.776 99.2076C414.593 98.231 414.414 97.1713 414.239 96.0284C414.099 94.8706 414.083 93.7192 414.192 92.5743C414.301 91.4293 414.638 90.3879 415.203 89.4499C415.769 88.5118 416.717 87.752 418.047 87.1702C419.514 86.5288 420.965 86.3618 422.4 86.6691C423.884 86.9957 425.239 87.7242 426.465 88.8545C427.705 90.019 428.728 91.5224 429.534 93.3648C430.459 95.4801 430.818 97.558 430.613 99.5984C430.423 101.673 429.497 103.46 427.836 104.958L425.041 101.913C425.824 101.286 426.313 100.544 426.507 99.687C426.716 98.864 426.734 98.0229 426.562 97.1636C426.404 96.3384 426.161 95.5505 425.833 94.7999C425.162 93.2646 424.31 92.1535 423.279 91.4667C422.296 90.7991 421.207 90.7263 420.013 91.2484C419.365 91.5319 418.886 91.9241 418.577 92.425C418.302 92.9111 418.147 93.4868 418.113 94.152C418.078 94.8172 418.123 95.5699 418.246 96.41C418.404 97.2352 418.557 98.1435 418.706 99.135C418.9 100.229 419.033 101.37 419.105 102.557C419.212 103.73 419.169 104.887 418.977 106.027C418.818 107.153 418.415 108.183 417.767 109.116C417.167 110.069 416.22 110.829 414.923 111.396C413.422 112.052 411.929 112.217 410.445 111.891C408.996 111.549 407.643 110.779 406.387 109.581C405.147 108.416 404.109 106.879 403.273 104.968C402.125 102.341 401.75 99.9038 402.149 97.6566C402.598 95.4286 403.838 93.5248 405.87 91.9454L408.71 95.0932Z" fill="url(#paint7_linear_6278_4417)"/>
<path d="M445.161 133.574L452.703 131.511L453.808 135.551L446.266 137.614L448.226 144.78L444.455 145.812L442.495 138.646L428.002 142.61C426.35 143.062 425.24 143.733 424.672 144.621C424.115 145.546 423.911 146.567 424.062 147.684C424.223 148.836 424.538 149.986 425.006 151.132L421.504 152.09C420.797 150.777 420.329 149.419 420.1 148.015C419.88 146.647 419.946 145.335 420.297 144.081C420.695 142.853 421.416 141.748 422.46 140.768C423.514 139.823 424.993 139.09 426.897 138.57L441.389 134.605L440.284 130.565L444.055 129.533L445.161 133.574Z" fill="url(#paint8_linear_6278_4417)"/>
<path d="M465.817 214.01C467.837 213.671 469.6 213.714 471.106 214.14C472.613 214.566 473.799 215.442 474.664 216.77C475.572 218.127 476.138 220.033 476.363 222.488L472.672 223.109C472.485 220.874 471.861 219.412 470.801 218.722C469.778 218.026 468.348 217.832 466.512 218.141L463.262 218.688L464.282 224.747L460.427 225.396L459.407 219.337L435.722 223.323L435.027 219.192L458.712 215.206L458.063 211.351L461.918 210.702L462.567 214.557L465.817 214.01Z" fill="url(#paint9_linear_6278_4417)"/>
<path d="M445.75 273.116C444.933 270.641 444.804 268.233 445.364 265.891C445.936 263.585 447.084 261.539 448.808 259.754C450.532 257.969 452.738 256.633 455.425 255.745C458.006 254.893 460.486 254.682 462.863 255.113C465.241 255.543 467.31 256.526 469.072 258.062C470.87 259.586 472.171 261.568 472.977 264.008C473.771 266.412 473.947 268.726 473.505 270.951C473.075 273.21 472.098 275.18 470.574 276.859C469.05 278.539 467.075 279.741 464.647 280.464C464.258 280.592 463.845 280.709 463.409 280.814C462.974 280.918 462.502 281.035 461.995 281.163L455.217 260.637C453.579 261.257 452.246 262.148 451.218 263.311C450.19 264.474 449.504 265.779 449.158 267.226C448.86 268.697 448.967 270.211 449.481 271.767C450.158 273.817 451.119 275.422 452.364 276.579C453.621 277.772 455.079 278.447 456.739 278.605L456.499 282.508C453.921 282.182 451.698 281.211 449.83 279.592C447.998 277.962 446.638 275.803 445.75 273.116ZM464.059 275.834C465.591 275.368 466.824 274.588 467.757 273.496C468.702 272.439 469.306 271.18 469.57 269.721C469.833 268.261 469.696 266.719 469.159 265.092C468.692 263.678 467.929 262.498 466.872 261.553C465.815 260.608 464.557 259.945 463.098 259.564C461.686 259.207 460.214 259.203 458.682 259.552L464.059 275.834Z" fill="url(#paint10_linear_6278_4417)"/>
<path d="M467.997 328.562C466.661 326.324 466.012 324.001 466.049 321.593C466.106 319.218 466.782 316.972 468.076 314.854C469.371 312.737 471.234 310.954 473.664 309.503C475.998 308.11 478.372 307.365 480.786 307.269C483.2 307.172 485.434 307.682 487.488 308.798C489.574 309.894 491.275 311.546 492.592 313.752C493.889 315.926 494.564 318.147 494.617 320.414C494.688 322.713 494.163 324.848 493.04 326.819C491.918 328.79 490.251 330.392 488.039 331.626C487.687 331.836 487.31 332.039 486.907 332.236C486.504 332.433 486.069 332.649 485.603 332.885L474.524 314.323C473.06 315.284 471.952 316.444 471.202 317.802C470.452 319.161 470.065 320.584 470.043 322.072C470.071 323.573 470.505 325.027 471.345 326.434C472.452 328.288 473.739 329.645 475.205 330.504C476.691 331.395 478.261 331.737 479.916 331.53L480.53 335.392C477.943 335.635 475.562 335.17 473.387 333.996C471.244 332.803 469.447 330.992 467.997 328.562ZM486.459 327.235C487.853 326.446 488.886 325.417 489.56 324.148C490.252 322.911 490.568 321.551 490.508 320.07C490.448 318.588 489.978 317.112 489.101 315.641C488.337 314.362 487.337 313.376 486.1 312.683C484.862 311.991 483.49 311.617 481.983 311.563C480.527 311.521 479.09 311.837 477.67 312.511L486.459 327.235Z" fill="url(#paint11_linear_6278_4417)"/>
<path d="M525.54 367.959L525.177 367.693L537.516 354.608L540.564 357.482L512.973 386.741L510.169 384.096L513.53 380.126C511.834 380.676 509.992 380.756 508.005 380.367C506.045 380.003 504.158 378.965 502.343 377.253C500.473 375.491 499.23 373.525 498.614 371.357C498.049 369.187 498.115 366.946 498.811 364.634C499.535 362.348 500.892 360.148 502.885 358.035C504.878 355.921 506.981 354.45 509.196 353.621C511.463 352.791 513.697 352.594 515.896 353.03C518.122 353.491 520.17 354.603 522.039 356.366C523.963 358.18 525.165 360.107 525.646 362.147C526.128 364.188 526.092 366.125 525.54 367.959ZM506.177 361.138C503.98 363.468 502.826 365.886 502.715 368.392C502.63 370.87 503.616 373.08 505.675 375.022C506.949 376.223 508.367 376.998 509.932 377.347C511.496 377.696 513.099 377.57 514.741 376.969C516.41 376.393 517.998 375.306 519.506 373.707C521.013 372.109 521.992 370.473 522.444 368.801C522.948 367.126 522.979 365.518 522.539 363.977C522.124 362.409 521.28 361.024 520.007 359.824C517.975 357.908 515.698 357.066 513.176 357.298C510.707 357.528 508.374 358.809 506.177 361.138Z" fill="url(#paint12_linear_6278_4417)"/>
<path d="M584.921 403.63L588.659 404.57L587.948 408.538C589.07 407.438 590.394 406.677 591.921 406.255C593.493 405.805 595.218 405.817 597.096 406.289C599.01 406.771 600.625 407.676 601.941 409.006C603.303 410.309 604.19 411.972 604.603 413.995C605.897 412.362 607.506 411.308 609.43 410.832C611.355 410.357 613.346 410.378 615.404 410.895C617.426 411.404 619.1 412.305 620.426 413.599C621.761 414.856 622.639 416.478 623.06 418.466C623.491 420.417 623.375 422.711 622.712 425.347L618.787 440.947L614.725 439.925L618.526 424.813C619.235 421.996 619.157 419.711 618.293 417.958C617.474 416.177 615.945 415.005 613.706 414.442C611.431 413.87 609.425 414.21 607.689 415.463C605.963 416.679 604.713 418.823 603.941 421.892L600.316 436.3L596.254 435.278L600.056 420.166C600.764 417.349 600.722 415.073 599.93 413.338C599.147 411.567 597.636 410.399 595.397 409.836C593.122 409.264 591.135 409.609 589.435 410.871C587.78 412.105 586.567 414.257 585.795 417.327L582.17 431.735L578.108 430.713L584.921 403.63Z" fill="url(#paint13_linear_6278_4417)"/>
<path d="M656.757 418.689L660.886 418.864L659.707 446.766L655.578 446.592L656.757 418.689ZM659.113 413.198C658.258 413.162 657.563 412.853 657.028 412.271C656.494 411.69 656.244 410.99 656.278 410.171C656.315 409.316 656.623 408.621 657.205 408.086C657.787 407.552 658.505 407.303 659.361 407.339C660.142 407.372 660.8 407.679 661.335 408.261C661.906 408.844 662.174 409.563 662.138 410.419C662.103 411.237 661.777 411.913 661.158 412.446C660.576 412.981 659.895 413.231 659.113 413.198Z" fill="url(#paint14_linear_6278_4417)"/>
<path d="M691.456 407.547L695.638 407.297L698.042 447.441L693.86 447.691L691.456 407.547Z" fill="url(#paint15_linear_6278_4417)"/>
<path d="M725.33 405.335L729.478 404.747L735.123 444.565L730.976 445.153L725.33 405.335Z" fill="url(#paint16_linear_6278_4417)"/>
</g>
<defs>
<linearGradient id="paint0_linear_6278_4417" x1="89.8924" y1="88.9173" x2="30.2475" y2="117.44" gradientUnits="userSpaceOnUse">
<stop stop-color="#FF2525"/>
<stop offset="1" stop-color="#FF8743"/>
</linearGradient>
<linearGradient id="paint1_linear_6278_4417" x1="118.078" y1="64.0199" x2="69.1524" y2="74.7662" gradientUnits="userSpaceOnUse">
<stop stop-color="#FF2525"/>
<stop offset="1" stop-color="#FF8743"/>
</linearGradient>
<linearGradient id="paint2_linear_6278_4417" x1="144.962" y1="49.5608" x2="116.049" y2="54.1748" gradientUnits="userSpaceOnUse">
<stop stop-color="#FF2525"/>
<stop offset="1" stop-color="#FF8743"/>
</linearGradient>
<linearGradient id="paint3_linear_6278_4417" x1="190.06" y1="36.2605" x2="136.686" y2="23.9859" gradientUnits="userSpaceOnUse">
<stop stop-color="#FF2525"/>
<stop offset="1" stop-color="#FF8743"/>
</linearGradient>
<linearGradient id="paint4_linear_6278_4417" x1="267.856" y1="32.5863" x2="222.761" y2="10.779" gradientUnits="userSpaceOnUse">
<stop stop-color="#FF2525"/>
<stop offset="1" stop-color="#FF8743"/>
</linearGradient>
<linearGradient id="paint5_linear_6278_4417" x1="343.889" y1="56.9511" x2="311.196" y2="5.87302" gradientUnits="userSpaceOnUse">
<stop stop-color="#FF2525"/>
<stop offset="1" stop-color="#FF8743"/>
</linearGradient>
<linearGradient id="paint6_linear_6278_4417" x1="375.989" y1="86.8439" x2="362.752" y2="30.6241" gradientUnits="userSpaceOnUse">
<stop stop-color="#FF2525"/>
<stop offset="1" stop-color="#FF8743"/>
</linearGradient>
<linearGradient id="paint7_linear_6278_4417" x1="396.229" y1="122.828" x2="394.774" y2="72.7577" gradientUnits="userSpaceOnUse">
<stop stop-color="#FF2525"/>
<stop offset="1" stop-color="#FF8743"/>
</linearGradient>
<linearGradient id="paint8_linear_6278_4417" x1="408.39" y1="158.058" x2="409.276" y2="119.735" gradientUnits="userSpaceOnUse">
<stop stop-color="#FF2525"/>
<stop offset="1" stop-color="#FF8743"/>
</linearGradient>
<linearGradient id="paint9_linear_6278_4417" x1="423.411" y1="234.526" x2="427.411" y2="198.183" gradientUnits="userSpaceOnUse">
<stop stop-color="#FF2525"/>
<stop offset="1" stop-color="#FF8743"/>
</linearGradient>
<linearGradient id="paint10_linear_6278_4417" x1="437.837" y1="292.552" x2="445.133" y2="235.257" gradientUnits="userSpaceOnUse">
<stop stop-color="#FF2525"/>
<stop offset="1" stop-color="#FF8743"/>
</linearGradient>
<linearGradient id="paint11_linear_6278_4417" x1="464.498" y1="349.253" x2="459.164" y2="291.743" gradientUnits="userSpaceOnUse">
<stop stop-color="#FF2525"/>
<stop offset="1" stop-color="#FF8743"/>
</linearGradient>
<linearGradient id="paint12_linear_6278_4417" x1="506.571" y1="399.946" x2="486.056" y2="342.876" gradientUnits="userSpaceOnUse">
<stop stop-color="#FF2525"/>
<stop offset="1" stop-color="#FF8743"/>
</linearGradient>
<linearGradient id="paint13_linear_6278_4417" x1="619.986" y1="455.685" x2="569.35" y2="392.248" gradientUnits="userSpaceOnUse">
<stop stop-color="#FF2525"/>
<stop offset="1" stop-color="#FF8743"/>
</linearGradient>
<linearGradient id="paint14_linear_6278_4417" x1="664.841" y1="460.996" x2="636.565" y2="453.397" gradientUnits="userSpaceOnUse">
<stop stop-color="#FF2525"/>
<stop offset="1" stop-color="#FF8743"/>
</linearGradient>
<linearGradient id="paint15_linear_6278_4417" x1="703.382" y1="461.146" x2="678.077" y2="457.79" gradientUnits="userSpaceOnUse">
<stop stop-color="#FF2525"/>
<stop offset="1" stop-color="#FF8743"/>
</linearGradient>
<linearGradient id="paint16_linear_6278_4417" x1="741.556" y1="457.793" x2="716.062" y2="456.496" gradientUnits="userSpaceOnUse">
<stop stop-color="#FF2525"/>
<stop offset="1" stop-color="#FF8743"/>
</linearGradient>
</defs>
</svg>
