<svg width="110" height="110" viewBox="0 0 110 110" fill="none" xmlns="http://www.w3.org/2000/svg">
<rect width="110" height="110" rx="55" fill="url(#paint0_linear_9132_8774)"/>
<path d="M40.1213 47.3787L39.3787 48.1213C38.8161 48.6839 38.5 49.447 38.5 50.2426V68.4561C38.5 69.425 38.9679 70.3342 39.7563 70.8973L41.2177 71.9412C41.7265 72.3046 42.3361 72.5 42.9614 72.5H67.7574C68.553 72.5 69.3161 72.1839 69.8787 71.6213L70.6213 70.8787C71.1839 70.3161 71.5 69.553 71.5 68.7574V51.3604C71.5 50.7981 71.342 50.2472 71.044 49.7704L69.8813 47.91C69.333 47.0329 68.3716 46.5 67.3373 46.5H42.2426C41.447 46.5 40.6839 46.8161 40.1213 47.3787Z" fill="#FFA979" stroke="#6A0600" stroke-width="2"/>
<path d="M69.2953 46.7H66.2953V40.3C66.2953 34.1 61.1953 29 54.9953 29C48.7953 29 43.6953 34.1 43.6953 40.3V46.7H40.6953V40.3C40.6953 32.4 47.0953 26 54.9953 26C62.8953 26 69.2953 32.4 69.2953 40.3V46.7Z" fill="#6A0600"/>
<path d="M67.7984 73.9016H42.1984C39.5984 73.9016 37.3984 71.7016 37.3984 69.1016V49.9016C37.3984 47.3016 39.5984 45.1016 42.1984 45.1016H67.7984C70.3984 45.1016 72.5984 47.3016 72.5984 49.9016V69.1016C72.5984 71.8016 70.3984 73.9016 67.7984 73.9016ZM42.1984 48.3016C41.2984 48.3016 40.5984 49.0016 40.5984 49.9016V69.1016C40.5984 70.0016 41.2984 70.7016 42.1984 70.7016H67.7984C68.6984 70.7016 69.3984 70.0016 69.3984 69.1016V49.9016C69.3984 49.0016 68.6984 48.3016 67.7984 48.3016H42.1984Z" fill="#6A0600"/>
<path d="M57.447 57.45C57.447 58.8282 56.3751 59.9001 54.9969 59.9001C53.6188 59.9001 52.5469 58.8282 52.5469 57.45C52.5469 56.0719 53.6188 55 54.9969 55C56.3751 55 57.447 56.1485 57.447 57.45Z" fill="white"/>
<path d="M55.6141 57.4492H54.3891L53.1641 64.7994H56.8391L55.6141 57.4492Z" fill="white"/>
<path d="M71 51H75C76.6569 51 78 49.6569 78 48V46" stroke="#6A0600" stroke-width="2"/>
<circle cx="78" cy="44" r="3" fill="#6A0600"/>
<path d="M38 51H35C33.3431 51 32 49.6569 32 48V46" stroke="#6A0600" stroke-width="2"/>
<circle cx="3" cy="3" r="3" transform="matrix(-1 0 0 1 35 41)" fill="#6A0600"/>
<path d="M70 68H74C75.6569 68 77 69.3431 77 71V73" stroke="#6A0600" stroke-width="2"/>
<circle cx="3" cy="3" r="3" transform="matrix(1 0 0 -1 74 78)" fill="#6A0600"/>
<path d="M40 68H35C33.3431 68 32 69.3431 32 71V73" stroke="#6A0600" stroke-width="2"/>
<circle cx="32" cy="75" r="3" transform="rotate(180 32 75)" fill="#6A0600"/>
<path d="M71 60H78" stroke="#6A0600" stroke-width="2"/>
<circle cx="77" cy="60" r="3" fill="#6A0600"/>
<path d="M39 60H30" stroke="#6A0600" stroke-width="2"/>
<circle cx="3" cy="3" r="3" transform="matrix(-1 0 0 1 35 57)" fill="#6A0600"/>
<defs>
<linearGradient id="paint0_linear_9132_8774" x1="55" y1="0" x2="55" y2="110" gradientUnits="userSpaceOnUse">
<stop stop-color="#FFEBE0"/>
<stop offset="1" stop-color="#FFD0B6"/>
</linearGradient>
</defs>
</svg>
