<svg width="26" height="24" viewBox="0 0 26 24" fill="none" xmlns="http://www.w3.org/2000/svg">
<path d="M16.614 0.210695C16.4662 0.0957121 16.2891 0.0245451 16.1028 0.0052969C15.9165 -0.0139513 15.7286 0.0194927 15.5604 0.101821C15.3922 0.18415 15.2505 0.312053 15.1514 0.470969C15.0523 0.629885 14.9999 0.813427 15 1.00069V4.98669C13.8511 5.03484 12.7173 5.26713 11.642 5.67469C9.97477 6.30491 8.52144 7.39681 7.452 8.82269C6.206 10.4747 5.29 12.7667 5.004 15.9107C4.98506 16.1156 5.0298 16.3214 5.1321 16.4999C5.2344 16.6784 5.3893 16.8211 5.57565 16.9083C5.762 16.9956 5.97074 17.0233 6.17339 16.9875C6.37604 16.9518 6.56273 16.8544 6.708 16.7087C9.084 14.3287 11.446 13.1567 13.192 12.5747C13.912 12.3347 14.528 12.1947 15 12.1147V16.0007C14.9999 16.1935 15.0556 16.3821 15.1603 16.544C15.265 16.7059 15.4142 16.834 15.59 16.913C15.7658 16.9921 15.9607 17.0186 16.1513 16.9895C16.3418 16.9603 16.5199 16.8767 16.664 16.7487L25.664 8.74869C25.7739 8.65123 25.861 8.53075 25.9191 8.39581C25.9772 8.26087 26.0048 8.11479 26 7.96796C25.9953 7.82113 25.9582 7.67715 25.8915 7.54627C25.8248 7.41539 25.73 7.30081 25.614 7.21069L16.614 0.210695ZM15.886 6.99469H15.892C16.0315 7.00922 16.1725 6.99437 16.3058 6.95109C16.4392 6.90782 16.5621 6.83708 16.6665 6.74344C16.7708 6.64979 16.8545 6.53532 16.9119 6.40739C16.9693 6.27947 16.9994 6.14093 17 6.00069V3.04469L23.438 8.05269L17 13.7727V11.0007C17 10.7355 16.8946 10.4811 16.7071 10.2936C16.5196 10.1061 16.2652 10.0007 16 10.0007H15.91C15.6048 10.0148 15.3004 10.0435 14.998 10.0867C14.398 10.1747 13.558 10.3427 12.558 10.6767C10.7232 11.2999 9.00253 12.2186 7.464 13.3967C7.852 11.9647 8.416 10.8687 9.05 10.0267C9.89355 8.9005 11.0412 8.03869 12.358 7.54269C13.4059 7.14691 14.5201 6.95612 15.64 6.98069C15.73 6.98269 15.798 6.98669 15.84 6.99069L15.886 6.99469ZM5 2.00069C3.67392 2.00069 2.40215 2.52748 1.46447 3.46516C0.526784 4.40284 0 5.67461 0 7.00069V19.0007C0 20.3268 0.526784 21.5985 1.46447 22.5362C2.40215 23.4739 3.67392 24.0007 5 24.0007H17C18.3261 24.0007 19.5979 23.4739 20.5355 22.5362C21.4732 21.5985 22 20.3268 22 19.0007V17.0007C22 16.7355 21.8946 16.4811 21.7071 16.2936C21.5196 16.1061 21.2652 16.0007 21 16.0007C20.7348 16.0007 20.4804 16.1061 20.2929 16.2936C20.1054 16.4811 20 16.7355 20 17.0007V19.0007C20 19.7963 19.6839 20.5594 19.1213 21.122C18.5587 21.6846 17.7956 22.0007 17 22.0007H5C4.20435 22.0007 3.44129 21.6846 2.87868 21.122C2.31607 20.5594 2 19.7963 2 19.0007V7.00069C2 6.20504 2.31607 5.44198 2.87868 4.87937C3.44129 4.31676 4.20435 4.00069 5 4.00069H9C9.26522 4.00069 9.51957 3.89534 9.70711 3.7078C9.89464 3.52026 10 3.26591 10 3.00069C10 2.73548 9.89464 2.48112 9.70711 2.29359C9.51957 2.10605 9.26522 2.00069 9 2.00069H5Z" fill="#807B78"/>
</svg>
