<svg width="1160" height="600" viewBox="0 0 1160 600" fill="none" xmlns="http://www.w3.org/2000/svg">
<g opacity="0.6" filter="url(#filter0_f_177_174)">
<ellipse cx="882.894" cy="326.826" rx="169.894" ry="154.826" fill="#EC691F"/>
</g>
<g opacity="0.12">
<path d="M882.798 27.6286L886.44 26.4826L893.847 50.0242C894.372 51.6938 894.476 53.2959 894.158 54.8304C893.84 56.3649 893.148 57.717 892.081 58.8866C891.035 60.0163 889.647 60.8533 887.917 61.3977C885.731 62.0853 883.768 62.1024 882.028 61.4489C880.278 60.765 878.84 59.5328 877.713 57.7524L880.496 55.6255C880.957 56.3479 881.485 56.9658 882.08 57.4791C882.706 57.9829 883.41 58.3119 884.192 58.4661C885.005 58.6107 885.913 58.5254 886.914 58.2102C888.098 57.8378 888.968 57.2637 889.525 56.4881C890.082 55.7125 890.398 54.8623 890.474 53.9376C890.571 52.973 890.481 52.0506 890.204 51.1702L882.798 27.6286Z" fill="url(#paint0_linear_177_174)"/>
<path d="M941.87 47.7148L941.238 43.4556C940.69 44.9686 939.799 46.19 938.565 47.1198C937.329 48.0179 935.711 48.5477 933.713 48.7092C932 48.8477 930.519 48.696 929.27 48.2541C928.021 47.8123 927.024 47.1267 926.278 46.1972C925.562 45.2334 925.149 44.0695 925.038 42.7056C924.877 40.7072 925.49 39.0134 926.878 37.6241C928.264 36.2031 930.357 35.2357 933.157 34.7221L940.419 33.321L940.265 31.4178C940.158 30.0856 939.58 29.0627 938.533 28.3492C937.483 27.6039 936.117 27.2992 934.436 27.4351C932.786 27.5684 931.437 28.0606 930.389 28.9116C929.372 29.76 928.715 30.9146 928.418 32.3753L925.09 31.4949C925.555 29.3501 926.581 27.6229 928.167 26.3134C929.785 25.0013 931.816 24.2466 934.258 24.0492C937.081 23.8211 939.329 24.3737 941.001 25.7072C942.702 27.0065 943.653 28.8932 943.853 31.3673L945.153 47.4494L941.87 47.7148ZM940.665 36.3662L933.359 37.8186C931.789 38.1371 930.619 38.6786 929.851 39.4431C929.08 40.1759 928.74 41.0974 928.829 42.2076C928.919 43.3178 929.387 44.1739 930.234 44.776C931.113 45.3754 932.313 45.6136 933.836 45.4906C935.58 45.3496 936.98 44.8853 938.033 44.0978C939.087 43.3102 939.821 42.3091 940.233 41.0944C940.675 39.8455 940.84 38.5231 940.727 37.1275L940.665 36.3662Z" fill="url(#paint1_linear_177_174)"/>
<path d="M980.882 40.7042L981.266 40.7331L978.407 54.8628L974.898 54.1528L981.525 21.4018L984.753 22.055L984.107 26.4536C985.089 25.2887 986.374 24.396 987.96 23.7755C989.547 23.1549 991.401 23.0592 993.522 23.4884C995.549 23.8986 997.273 24.7669 998.693 26.0932C1000.12 27.3883 1001.12 29.0351 1001.69 31.0336C1002.26 33.0008 1002.3 35.2165 1001.8 37.6806C1001.31 40.1136 1000.43 42.1431 999.159 43.7691C997.926 45.3703 996.397 46.5059 994.573 47.1758C992.78 47.8521 990.808 47.9725 988.656 47.537C986.41 47.0826 984.652 46.2236 983.382 44.96C982.111 43.6964 981.278 42.2778 980.882 40.7042ZM998.013 36.9138C998.556 34.2313 998.283 31.9683 997.195 30.1247C996.145 28.2563 994.45 27.0854 992.11 26.612C990.644 26.3154 989.249 26.3903 987.925 26.8366C986.632 27.2893 985.526 28.1044 984.606 29.2819C983.686 30.4594 983.039 31.9683 982.667 33.8086C982.301 35.6177 982.313 37.2436 982.703 38.6862C983.093 40.1287 983.792 41.3255 984.801 42.2764C985.848 43.2024 987.104 43.8138 988.57 44.1104C990.909 44.5838 992.923 44.1795 994.611 42.8976C996.336 41.5909 997.47 39.5963 998.013 36.9138Z" fill="url(#paint2_linear_177_174)"/>
<path d="M1040.87 33.314C1041.72 31.7816 1042.68 30.6246 1043.77 29.8427C1044.85 29.0609 1046.07 28.7331 1047.42 28.8593C1048.81 28.973 1050.39 29.6071 1052.15 30.7615L1050.6 33.5614C1049.01 32.4993 1047.7 32.1396 1046.67 32.4824C1045.66 32.7973 1044.77 33.6512 1044.01 35.0442L1042.64 37.5099L1047.24 40.0476L1045.63 42.9729L1041.03 40.4352L1031.11 58.4049L1027.97 56.6746L1037.9 38.7049L1034.97 37.09L1036.58 34.1646L1039.51 35.7796L1040.87 33.314Z" fill="url(#paint3_linear_177_174)"/>
<path d="M1071.13 85.1799L1074.03 82.0032C1072.51 82.5322 1071 82.6113 1069.5 82.2404C1068.03 81.8475 1066.6 80.9267 1065.21 79.4779C1064.02 78.2362 1063.21 76.9914 1062.76 75.7435C1062.32 74.4957 1062.22 73.2894 1062.47 72.1245C1062.77 70.9607 1063.41 69.9058 1064.4 68.9598C1065.85 67.574 1067.55 66.9815 1069.5 67.1823C1071.48 67.3612 1073.55 68.375 1075.71 70.2237L1081.38 74.9748L1082.76 73.6549C1083.73 72.731 1084.16 71.6376 1084.05 70.3748C1083.96 69.09 1083.34 67.8381 1082.17 66.6194C1081.03 65.4236 1079.8 64.6872 1078.48 64.4103C1077.18 64.1564 1075.86 64.3749 1074.54 65.0659L1073.13 61.9284C1075.09 60.9364 1077.07 60.6429 1079.09 61.0477C1081.13 61.4756 1082.99 62.5748 1084.69 64.3455C1086.65 66.3922 1087.64 68.4849 1087.66 70.6236C1087.72 72.7633 1086.86 74.6911 1085.06 76.407L1073.4 87.56L1071.13 85.1799ZM1079.17 77.0866L1073.44 72.334C1072.2 71.3162 1071.04 70.7503 1069.96 70.6364C1068.91 70.5004 1067.98 70.8174 1067.17 71.5874C1066.37 72.3573 1066 73.2607 1066.07 74.2976C1066.16 75.3574 1066.73 76.4393 1067.79 77.5431C1068.99 78.8079 1070.24 79.6007 1071.51 79.9216C1072.79 80.2425 1074.03 80.18 1075.23 79.734C1076.48 79.289 1077.61 78.5825 1078.62 77.6146L1079.17 77.0866Z" fill="url(#paint4_linear_177_174)"/>
<path d="M1131.65 140.326C1133.27 140.514 1134.78 141.156 1136.2 142.252C1137.62 143.348 1138.7 144.979 1139.44 147.147C1140.15 149.225 1140.29 151.196 1139.85 153.061C1139.42 154.957 1138.48 156.625 1137.02 158.066C1135.6 159.526 1133.72 160.659 1131.37 161.462C1129.02 162.266 1126.83 162.531 1124.78 162.255C1122.74 161.98 1120.96 161.224 1119.46 159.989C1118.01 158.772 1116.93 157.141 1116.22 155.093C1115.52 153.046 1115.38 151.195 1115.79 149.542C1116.2 147.888 1116.92 146.498 1117.94 145.373L1113.67 146.585L1112.6 143.469L1145.12 132.338L1146.28 135.725L1131.73 140.703L1131.65 140.326ZM1130.12 157.804C1132.71 156.918 1134.52 155.54 1135.57 153.669C1136.65 151.819 1136.8 149.765 1136.03 147.507C1135.55 146.092 1134.76 144.93 1133.68 144.023C1132.63 143.136 1131.37 142.593 1129.89 142.393C1128.44 142.184 1126.83 142.383 1125.05 142.991C1123.27 143.599 1121.86 144.436 1120.81 145.501C1119.76 146.566 1119.1 147.769 1118.82 149.11C1118.55 150.481 1118.65 151.874 1119.14 153.289C1119.91 155.547 1121.28 157.081 1123.24 157.89C1125.24 158.719 1127.53 158.691 1130.12 157.804Z" fill="url(#paint5_linear_177_174)"/>
<path d="M1152.68 190.303L1153.3 193.539L1149.91 194.378C1150.87 194.842 1151.73 195.456 1152.5 196.218C1153.26 197.012 1153.86 197.92 1154.28 198.941C1154.73 199.988 1154.97 201.141 1154.98 202.402L1151.47 203.071C1151.47 201.71 1151.24 200.522 1150.79 199.507C1150.34 198.523 1149.7 197.721 1148.87 197.101C1148.04 196.482 1147.06 196.07 1145.92 195.866C1144.81 195.656 1143.57 195.681 1142.19 195.943L1129.9 198.279L1129.23 194.762L1152.68 190.303Z" fill="url(#paint6_linear_177_174)"/>
<path d="M1139.61 257.582L1143.77 256.477C1142.21 256.102 1140.89 255.354 1139.83 254.232C1138.8 253.104 1138.09 251.556 1137.71 249.589C1137.38 247.902 1137.36 246.414 1137.66 245.123C1137.96 243.832 1138.53 242.764 1139.37 241.919C1140.25 241.099 1141.36 240.558 1142.7 240.295C1144.67 239.911 1146.42 240.33 1147.96 241.554C1149.52 242.771 1150.72 244.742 1151.54 247.467L1153.75 254.526L1155.63 254.16C1156.94 253.903 1157.89 253.214 1158.48 252.094C1159.1 250.967 1159.25 249.575 1158.93 247.92C1158.61 246.296 1157.97 245.011 1157.01 244.064C1156.05 243.149 1154.83 242.626 1153.34 242.494L1153.85 239.089C1156.03 239.31 1157.86 240.136 1159.34 241.565C1160.83 243.026 1161.8 244.959 1162.27 247.364C1162.82 250.143 1162.52 252.439 1161.38 254.25C1160.28 256.086 1158.51 257.243 1156.08 257.719L1140.24 260.815L1139.61 257.582ZM1150.75 255.112L1148.49 248.016C1148 246.491 1147.33 245.389 1146.48 244.712C1145.67 244.028 1144.71 243.793 1143.62 244.006C1142.53 244.22 1141.73 244.782 1141.23 245.691C1140.73 246.631 1140.63 247.851 1140.92 249.35C1141.26 251.068 1141.87 252.406 1142.78 253.365C1143.68 254.323 1144.75 254.94 1146.01 255.213C1147.3 255.512 1148.63 255.527 1150 255.259L1150.75 255.112Z" fill="url(#paint7_linear_177_174)"/>
<path d="M1169.77 289.422L1171.25 292.37L1168.3 294.054C1169.69 294.211 1170.95 294.703 1172.08 295.53C1173.23 296.342 1174.17 297.488 1174.91 298.969C1175.72 300.592 1176.08 302.193 1175.98 303.773C1175.9 305.339 1175.34 306.811 1174.29 308.191C1173.26 309.556 1171.71 310.758 1169.63 311.795L1157.33 317.933L1155.73 314.73L1167.65 308.783C1169.87 307.675 1171.31 306.352 1171.96 304.816C1172.66 303.294 1172.56 301.636 1171.67 299.842C1170.74 297.991 1169.41 296.844 1167.66 296.402C1165.92 295.987 1163.86 296.377 1161.46 297.571L1150.02 303.283L1148.42 300.08L1169.77 289.422Z" fill="url(#paint8_linear_177_174)"/>
</g>
<g opacity="0.14">
<path d="M56.6037 726.256C58.9862 667.236 101.545 562.04 252.723 613.417C306.273 631.615 340.767 629.727 387.932 579.612" stroke="black"/>
<path d="M19.501 530.771L21.4169 529.073L32.3895 541.455C33.1677 542.333 33.6694 543.285 33.8946 544.311C34.1199 545.337 34.0661 546.354 33.7332 547.362C33.4022 548.339 32.7817 549.231 31.8716 550.037C30.7221 551.056 29.5254 551.604 28.2816 551.68C27.0236 551.74 25.8062 551.379 24.6292 550.598L25.7511 548.535C26.2308 548.851 26.7229 549.085 27.2276 549.236C27.7483 549.373 28.2691 549.382 28.7902 549.262C29.3272 549.128 29.8591 548.828 30.386 548.361C31.0087 547.809 31.3843 547.22 31.5128 546.593C31.6413 545.966 31.6023 545.359 31.3959 544.772C31.1913 544.155 30.8839 543.616 30.4736 543.153L19.501 530.771Z" fill="url(#paint9_linear_177_174)"/>
<path d="M369.793 581.939C428.722 577.89 537.922 608.758 503.288 764.626C491.02 819.837 496.648 853.921 551.594 895.357" stroke="black"/>
<path d="M61.2398 526.841L59.6882 524.407C59.7665 525.483 59.5553 526.474 59.0545 527.381C58.5435 528.269 57.6986 529.036 56.5197 529.681C55.5093 530.234 54.5614 530.547 53.6762 530.618C52.791 530.689 51.9931 530.542 51.2825 530.177C50.5804 529.784 50.0091 529.184 49.5685 528.38C48.923 527.201 48.8351 525.996 49.3047 524.766C49.7641 523.518 50.7803 522.353 52.3535 521.273L56.4146 518.429L55.7999 517.306C55.3695 516.52 54.7363 516.052 53.9 515.902C53.0536 515.733 52.1345 515.92 51.1428 516.463C50.1698 516.996 49.4787 517.666 49.0697 518.474C48.6794 519.271 48.5932 520.158 48.811 521.133L46.5335 521.504C46.2315 520.065 46.3869 518.727 46.9995 517.492C47.6308 516.246 48.6669 515.229 50.1077 514.44C51.7731 513.528 53.2998 513.251 54.688 513.61C56.0847 513.94 57.1826 514.834 57.9818 516.294L63.1765 525.781L61.2398 526.841ZM57.3982 520.225L53.3244 523.113C52.4502 523.737 51.8826 524.388 51.6215 525.067C51.3502 525.726 51.3938 526.383 51.7524 527.038C52.111 527.693 52.6318 528.089 53.3148 528.225C54.0165 528.352 54.8164 528.169 55.7145 527.678C56.7437 527.114 57.473 526.447 57.9025 525.677C58.332 524.907 58.5069 524.093 58.4272 523.237C58.356 522.352 58.0949 521.498 57.6441 520.674L57.3982 520.225Z" fill="url(#paint10_linear_177_174)"/>
<path d="M83.3319 511.828L83.5746 511.741L85.69 521.17L83.3483 521.696L78.445 499.839L80.5995 499.356L81.407 502.224C81.6896 501.243 82.2316 500.345 83.0329 499.531C83.8342 498.717 84.9426 498.152 86.3581 497.834C87.7111 497.531 89.0036 497.591 90.2354 498.014C91.4626 498.416 92.5239 499.151 93.4192 500.218C94.3099 501.265 94.9396 502.61 95.3086 504.255C95.6728 505.878 95.6885 507.362 95.3557 508.704C95.039 510.022 94.4142 511.135 93.4812 512.044C92.569 512.948 91.3948 513.561 89.9585 513.883C88.4597 514.22 87.1488 514.175 86.0257 513.749C84.9026 513.323 84.0046 512.683 83.3319 511.828ZM92.7794 504.822C92.3778 503.032 91.5919 501.721 90.4217 500.891C89.2676 500.035 87.91 499.782 86.3488 500.132C85.3705 500.351 84.5372 500.779 83.8489 501.414C83.1814 502.045 82.7272 502.847 82.4862 503.819C82.2452 504.791 82.2624 505.891 82.538 507.12C82.8088 508.327 83.2609 509.319 83.8941 510.095C84.5274 510.871 85.2828 511.412 86.1604 511.718C87.0542 511.999 87.9902 512.029 88.9686 511.81C90.5298 511.459 91.6516 510.661 92.334 509.415C93.0325 508.143 93.181 506.612 92.7794 504.822Z" fill="url(#paint11_linear_177_174)"/>
<path d="M118.177 490.884C118.276 489.715 118.551 488.743 119.001 487.967C119.452 487.191 120.107 486.658 120.967 486.366C121.849 486.055 122.988 486.012 124.382 486.237L124.202 488.373C122.935 488.159 122.035 488.298 121.501 488.788C120.969 489.257 120.658 490.023 120.569 491.086L120.41 492.967L123.918 493.263L123.73 495.495L120.222 495.199L119.066 508.911L116.675 508.709L117.831 494.998L115.599 494.809L115.787 492.577L118.019 492.765L118.177 490.884Z" fill="url(#paint12_linear_177_174)"/>
<path d="M151.03 514.386L151.94 511.647C151.155 512.386 150.252 512.848 149.233 513.031C148.222 513.195 147.094 513.023 145.849 512.515C144.783 512.08 143.942 511.541 143.329 510.9C142.715 510.258 142.326 509.546 142.161 508.764C142.023 507.971 142.128 507.15 142.474 506.3C142.982 505.056 143.861 504.228 145.112 503.816C146.37 503.385 147.915 503.439 149.746 503.978L154.514 505.336L154.997 504.15C155.336 503.321 155.3 502.534 154.889 501.79C154.486 501.027 153.761 500.432 152.714 500.005C151.687 499.586 150.731 499.473 149.846 499.665C148.981 499.865 148.239 500.357 147.619 501.141L145.895 499.608C146.821 498.466 147.957 497.743 149.302 497.439C150.667 497.143 152.11 497.305 153.631 497.925C155.389 498.642 156.567 499.653 157.164 500.956C157.789 502.248 157.788 503.664 157.159 505.205L153.075 515.22L151.03 514.386ZM153.741 507.232L148.93 505.892C147.894 505.608 147.031 505.578 146.34 505.803C145.657 506.009 145.175 506.457 144.893 507.149C144.611 507.84 144.632 508.494 144.957 509.11C145.301 509.734 145.948 510.24 146.896 510.626C147.982 511.07 148.96 511.215 149.829 511.062C150.697 510.91 151.439 510.532 152.053 509.93C152.695 509.317 153.193 508.575 153.547 507.706L153.741 507.232Z" fill="url(#paint13_linear_177_174)"/>
<path d="M203.34 531.703C204.378 531.377 205.48 531.356 206.648 531.638C207.815 531.921 208.922 532.624 209.969 533.748C210.973 534.825 211.596 535.994 211.838 537.256C212.095 538.532 211.974 539.811 211.476 541.092C211.009 542.373 210.166 543.581 208.949 544.716C207.731 545.85 206.459 546.613 205.132 547.004C203.805 547.395 202.514 547.417 201.258 547.071C200.032 546.726 198.925 546.023 197.936 544.961C196.947 543.9 196.352 542.807 196.15 541.683C195.948 540.559 196.008 539.512 196.329 538.542L194.042 540.454L192.537 538.839L209.393 523.132L211.029 524.887L203.491 531.912L203.34 531.703ZM207.182 542.82C208.524 541.569 209.258 540.229 209.384 538.799C209.54 537.371 209.072 536.071 207.982 534.901C207.298 534.167 206.5 533.671 205.589 533.412C204.707 533.155 203.786 533.168 202.825 533.451C201.88 533.719 200.947 534.283 200.026 535.141C199.105 535.999 198.47 536.897 198.12 537.836C197.77 538.774 197.692 539.692 197.887 540.59C198.096 541.503 198.542 542.326 199.226 543.06C200.317 544.23 201.572 544.795 202.993 544.755C204.443 544.715 205.839 544.07 207.182 542.82Z" fill="url(#paint14_linear_177_174)"/>
<path d="M229.924 556.593L231.186 558.405L229.342 559.845C230.058 559.866 230.753 560.006 231.427 560.265C232.114 560.541 232.725 560.934 233.262 561.444C233.829 561.959 234.289 562.601 234.642 563.369L232.672 564.74C232.3 563.907 231.837 563.242 231.282 562.744C230.74 562.264 230.13 561.948 229.452 561.796C228.774 561.644 228.059 561.661 227.305 561.848C226.569 562.023 225.815 562.378 225.045 562.915L218.165 567.706L216.793 565.736L229.924 556.593Z" fill="url(#paint15_linear_177_174)"/>
<path d="M240.328 601.343L242.572 599.528C241.512 599.727 240.503 599.628 239.546 599.232C238.606 598.824 237.75 598.07 236.976 596.971C236.313 596.029 235.896 595.123 235.726 594.251C235.556 593.379 235.612 592.57 235.895 591.823C236.208 591.081 236.739 590.446 237.489 589.918C238.588 589.144 239.775 588.922 241.05 589.251C242.343 589.567 243.614 590.446 244.864 591.888L248.145 595.604L249.192 594.868C249.925 594.352 250.319 593.67 250.374 592.822C250.447 591.962 250.158 591.07 249.507 590.145C248.868 589.238 248.125 588.627 247.276 588.311C246.44 588.013 245.55 588.026 244.605 588.352L243.98 586.131C245.377 585.669 246.724 585.673 248.02 586.144C249.329 586.631 250.456 587.547 251.402 588.89C252.495 590.442 252.941 591.928 252.74 593.348C252.569 594.773 251.803 595.964 250.443 596.922L241.599 603.149L240.328 601.343ZM246.471 596.783L243.144 593.059C242.426 592.261 241.715 591.77 241.012 591.586C240.326 591.391 239.678 591.508 239.068 591.938C238.457 592.368 238.122 592.929 238.063 593.623C238.016 594.335 238.287 595.109 238.876 595.947C239.552 596.906 240.296 597.556 241.11 597.896C241.924 598.237 242.751 598.319 243.593 598.144C244.465 597.974 245.285 597.619 246.052 597.078L246.471 596.783Z" fill="url(#paint16_linear_177_174)"/>
</g>
<defs>
<filter id="filter0_f_177_174" x="450.813" y="-90.187" width="864.162" height="834.026" filterUnits="userSpaceOnUse" color-interpolation-filters="sRGB">
<feFlood flood-opacity="0" result="BackgroundImageFix"/>
<feBlend mode="normal" in="SourceGraphic" in2="BackgroundImageFix" result="shape"/>
<feGaussianBlur stdDeviation="131.094" result="effect1_foregroundBlur_177_174"/>
</filter>
<linearGradient id="paint0_linear_177_174" x1="904.777" y1="69.3713" x2="858.805" y2="65.2212" gradientUnits="userSpaceOnUse">
<stop stop-color="#FF2525"/>
<stop offset="1" stop-color="#FF8743"/>
</linearGradient>
<linearGradient id="paint1_linear_177_174" x1="950.279" y1="60.0775" x2="905.11" y2="44.6911" gradientUnits="userSpaceOnUse">
<stop stop-color="#FF2525"/>
<stop offset="1" stop-color="#FF8743"/>
</linearGradient>
<linearGradient id="paint2_linear_177_174" x1="999.038" y1="62.5603" x2="957.46" y2="30.9574" gradientUnits="userSpaceOnUse">
<stop stop-color="#FF2525"/>
<stop offset="1" stop-color="#FF8743"/>
</linearGradient>
<linearGradient id="paint3_linear_177_174" x1="1031.35" y1="73.39" x2="1009.05" y2="51.9734" gradientUnits="userSpaceOnUse">
<stop stop-color="#FF2525"/>
<stop offset="1" stop-color="#FF8743"/>
</linearGradient>
<linearGradient id="paint4_linear_177_174" x1="1066.84" y1="99.5038" x2="1050.29" y2="54.7491" gradientUnits="userSpaceOnUse">
<stop stop-color="#FF2525"/>
<stop offset="1" stop-color="#FF8743"/>
</linearGradient>
<linearGradient id="paint5_linear_177_174" x1="1108.5" y1="171.642" x2="1114.78" y2="119.795" gradientUnits="userSpaceOnUse">
<stop stop-color="#FF2525"/>
<stop offset="1" stop-color="#FF8743"/>
</linearGradient>
<linearGradient id="paint6_linear_177_174" x1="1119.14" y1="211.265" x2="1122.71" y2="176.964" gradientUnits="userSpaceOnUse">
<stop stop-color="#FF2525"/>
<stop offset="1" stop-color="#FF8743"/>
</linearGradient>
<linearGradient id="paint7_linear_177_174" x1="1128.27" y1="267.326" x2="1138.49" y2="220.716" gradientUnits="userSpaceOnUse">
<stop stop-color="#FF2525"/>
<stop offset="1" stop-color="#FF8743"/>
</linearGradient>
<linearGradient id="paint8_linear_177_174" x1="1147.2" y1="326.757" x2="1145.24" y2="277.548" gradientUnits="userSpaceOnUse">
<stop stop-color="#FF2525"/>
<stop offset="1" stop-color="#FF8743"/>
</linearGradient>
<linearGradient id="paint9_linear_177_174" x1="44.7408" y1="550.359" x2="15.0667" y2="560.299" gradientUnits="userSpaceOnUse">
<stop stop-color="#FF2525"/>
<stop offset="1" stop-color="#FF8743"/>
</linearGradient>
<linearGradient id="paint10_linear_177_174" x1="69.5287" y1="532.563" x2="38.3875" y2="535.658" gradientUnits="userSpaceOnUse">
<stop stop-color="#FF2525"/>
<stop offset="1" stop-color="#FF8743"/>
</linearGradient>
<linearGradient id="paint11_linear_177_174" x1="101.031" y1="520.394" x2="66.3012" y2="511.784" gradientUnits="userSpaceOnUse">
<stop stop-color="#FF2525"/>
<stop offset="1" stop-color="#FF8743"/>
</linearGradient>
<linearGradient id="paint12_linear_177_174" x1="123.565" y1="518.322" x2="103.655" y2="510.997" gradientUnits="userSpaceOnUse">
<stop stop-color="#FF2525"/>
<stop offset="1" stop-color="#FF8743"/>
</linearGradient>
<linearGradient id="paint13_linear_177_174" x1="151.819" y1="524.427" x2="129.774" y2="502.216" gradientUnits="userSpaceOnUse">
<stop stop-color="#FF2525"/>
<stop offset="1" stop-color="#FF8743"/>
</linearGradient>
<linearGradient id="paint14_linear_177_174" x1="197.909" y1="557.806" x2="187.8" y2="523.483" gradientUnits="userSpaceOnUse">
<stop stop-color="#FF2525"/>
<stop offset="1" stop-color="#FF8743"/>
</linearGradient>
<linearGradient id="paint15_linear_177_174" x1="214.857" y1="578.706" x2="207.696" y2="556.859" gradientUnits="userSpaceOnUse">
<stop stop-color="#FF2525"/>
<stop offset="1" stop-color="#FF8743"/>
</linearGradient>
<linearGradient id="paint16_linear_177_174" x1="235.572" y1="610.222" x2="229.002" y2="579.624" gradientUnits="userSpaceOnUse">
<stop stop-color="#FF2525"/>
<stop offset="1" stop-color="#FF8743"/>
</linearGradient>
</defs>
</svg>
