<svg width="1392" height="600" viewBox="0 0 1392 600" fill="none" xmlns="http://www.w3.org/2000/svg">
<g opacity="0.12">
<path d="M1085.8 27.6286L1089.44 26.4826L1096.85 50.0242C1097.37 51.6938 1097.48 53.2959 1097.16 54.8304C1096.84 56.3649 1096.15 57.717 1095.08 58.8866C1094.04 60.0163 1092.65 60.8533 1090.92 61.3977C1088.73 62.0853 1086.77 62.1024 1085.03 61.4489C1083.28 60.765 1081.84 59.5328 1080.71 57.7524L1083.5 55.6255C1083.96 56.3479 1084.49 56.9658 1085.08 57.4791C1085.71 57.9829 1086.41 58.3119 1087.19 58.4661C1088.01 58.6107 1088.91 58.5254 1089.91 58.2102C1091.1 57.8378 1091.97 57.2637 1092.53 56.4881C1093.08 55.7125 1093.4 54.8623 1093.47 53.9376C1093.57 52.973 1093.48 52.0506 1093.2 51.1702L1085.8 27.6286Z" fill="url(#paint0_linear_187_175)"/>
<path d="M1144.87 47.7148L1144.24 43.4556C1143.69 44.9686 1142.8 46.19 1141.57 47.1198C1140.33 48.0179 1138.71 48.5477 1136.71 48.7092C1135 48.8477 1133.52 48.696 1132.27 48.2541C1131.02 47.8123 1130.02 47.1267 1129.28 46.1972C1128.56 45.2334 1128.15 44.0695 1128.04 42.7056C1127.88 40.7072 1128.49 39.0134 1129.88 37.6241C1131.26 36.2031 1133.36 35.2357 1136.16 34.7221L1143.42 33.321L1143.27 31.4178C1143.16 30.0856 1142.58 29.0627 1141.53 28.3492C1140.48 27.6039 1139.12 27.2992 1137.44 27.4351C1135.79 27.5684 1134.44 28.0606 1133.39 28.9116C1132.37 29.76 1131.71 30.9146 1131.42 32.3753L1128.09 31.4949C1128.56 29.3501 1129.58 27.6229 1131.17 26.3134C1132.79 25.0013 1134.82 24.2466 1137.26 24.0492C1140.08 23.8211 1142.33 24.3737 1144 25.7072C1145.7 27.0065 1146.65 28.8932 1146.85 31.3673L1148.15 47.4494L1144.87 47.7148ZM1143.67 36.3662L1136.36 37.8186C1134.79 38.1371 1133.62 38.6786 1132.85 39.4431C1132.08 40.1759 1131.74 41.0974 1131.83 42.2076C1131.92 43.3178 1132.39 44.1739 1133.23 44.776C1134.11 45.3754 1135.31 45.6136 1136.84 45.4906C1138.58 45.3496 1139.98 44.8853 1141.03 44.0978C1142.09 43.3102 1142.82 42.3091 1143.23 41.0944C1143.67 39.8455 1143.84 38.5231 1143.73 37.1275L1143.67 36.3662Z" fill="url(#paint1_linear_187_175)"/>
<path d="M1183.88 40.7042L1184.27 40.7331L1181.41 54.8628L1177.9 54.1528L1184.52 21.4018L1187.75 22.055L1187.11 26.4536C1188.09 25.2887 1189.37 24.396 1190.96 23.7755C1192.55 23.1549 1194.4 23.0592 1196.52 23.4884C1198.55 23.8986 1200.27 24.7669 1201.69 26.0932C1203.12 27.3883 1204.12 29.0351 1204.69 31.0336C1205.26 33.0008 1205.3 35.2165 1204.8 37.6806C1204.31 40.1136 1203.43 42.1431 1202.16 43.7691C1200.93 45.3703 1199.4 46.5059 1197.57 47.1758C1195.78 47.8521 1193.81 47.9725 1191.66 47.537C1189.41 47.0826 1187.65 46.2236 1186.38 44.96C1185.11 43.6964 1184.28 42.2778 1183.88 40.7042ZM1201.01 36.9138C1201.56 34.2313 1201.28 31.9683 1200.2 30.1247C1199.14 28.2563 1197.45 27.0854 1195.11 26.612C1193.64 26.3154 1192.25 26.3903 1190.93 26.8366C1189.63 27.2893 1188.53 28.1044 1187.61 29.2819C1186.69 30.4594 1186.04 31.9683 1185.67 33.8086C1185.3 35.6177 1185.31 37.2436 1185.7 38.6862C1186.09 40.1287 1186.79 41.3255 1187.8 42.2764C1188.85 43.2024 1190.1 43.8138 1191.57 44.1104C1193.91 44.5838 1195.92 44.1795 1197.61 42.8976C1199.34 41.5909 1200.47 39.5963 1201.01 36.9138Z" fill="url(#paint2_linear_187_175)"/>
<path d="M1243.87 33.314C1244.72 31.7816 1245.68 30.6246 1246.77 29.8427C1247.85 29.0609 1249.07 28.7331 1250.42 28.8593C1251.81 28.973 1253.39 29.6071 1255.15 30.7615L1253.6 33.5614C1252.01 32.4993 1250.7 32.1396 1249.67 32.4824C1248.66 32.7973 1247.77 33.6512 1247.01 35.0442L1245.64 37.5099L1250.24 40.0476L1248.63 42.9729L1244.03 40.4352L1234.11 58.4049L1230.97 56.6746L1240.9 38.7049L1237.97 37.09L1239.58 34.1646L1242.51 35.7796L1243.87 33.314Z" fill="url(#paint3_linear_187_175)"/>
<path d="M1274.13 85.1799L1277.03 82.0032C1275.51 82.5322 1274 82.6113 1272.5 82.2404C1271.03 81.8475 1269.6 80.9267 1268.21 79.4779C1267.02 78.2362 1266.21 76.9914 1265.76 75.7435C1265.32 74.4957 1265.22 73.2894 1265.47 72.1245C1265.77 70.9607 1266.41 69.9058 1267.4 68.9598C1268.85 67.574 1270.55 66.9815 1272.5 67.1823C1274.48 67.3612 1276.55 68.375 1278.71 70.2237L1284.38 74.9748L1285.76 73.6549C1286.73 72.731 1287.16 71.6376 1287.05 70.3748C1286.96 69.09 1286.34 67.8381 1285.17 66.6194C1284.03 65.4236 1282.8 64.6872 1281.48 64.4103C1280.18 64.1564 1278.86 64.3749 1277.54 65.0659L1276.13 61.9284C1278.09 60.9364 1280.07 60.6429 1282.09 61.0477C1284.13 61.4756 1285.99 62.5748 1287.69 64.3455C1289.65 66.3922 1290.64 68.4849 1290.66 70.6236C1290.72 72.7633 1289.86 74.6911 1288.06 76.407L1276.4 87.56L1274.13 85.1799ZM1282.17 77.0866L1276.44 72.334C1275.2 71.3162 1274.04 70.7503 1272.96 70.6364C1271.91 70.5004 1270.98 70.8174 1270.17 71.5874C1269.37 72.3573 1269 73.2607 1269.07 74.2976C1269.16 75.3574 1269.73 76.4393 1270.79 77.5431C1271.99 78.8079 1273.24 79.6007 1274.51 79.9216C1275.79 80.2425 1277.03 80.18 1278.23 79.734C1279.48 79.289 1280.61 78.5825 1281.62 77.6146L1282.17 77.0866Z" fill="url(#paint4_linear_187_175)"/>
<path d="M1334.65 140.326C1336.27 140.514 1337.78 141.156 1339.2 142.252C1340.62 143.348 1341.7 144.979 1342.44 147.147C1343.15 149.225 1343.29 151.196 1342.85 153.061C1342.42 154.957 1341.48 156.625 1340.02 158.066C1338.6 159.526 1336.72 160.659 1334.37 161.462C1332.02 162.266 1329.83 162.531 1327.78 162.255C1325.74 161.98 1323.96 161.224 1322.46 159.989C1321.01 158.772 1319.93 157.141 1319.22 155.093C1318.52 153.046 1318.38 151.195 1318.79 149.542C1319.2 147.888 1319.92 146.498 1320.94 145.373L1316.67 146.585L1315.6 143.469L1348.12 132.338L1349.28 135.725L1334.73 140.703L1334.65 140.326ZM1333.12 157.804C1335.71 156.918 1337.52 155.54 1338.57 153.669C1339.65 151.819 1339.8 149.765 1339.03 147.507C1338.55 146.092 1337.76 144.93 1336.68 144.023C1335.63 143.136 1334.37 142.593 1332.89 142.393C1331.44 142.184 1329.83 142.383 1328.05 142.991C1326.27 143.599 1324.86 144.436 1323.81 145.501C1322.76 146.566 1322.1 147.769 1321.82 149.11C1321.55 150.481 1321.65 151.874 1322.14 153.289C1322.91 155.547 1324.28 157.081 1326.24 157.89C1328.24 158.719 1330.53 158.691 1333.12 157.804Z" fill="url(#paint5_linear_187_175)"/>
<path d="M1355.68 190.303L1356.3 193.539L1352.91 194.378C1353.87 194.842 1354.73 195.456 1355.5 196.218C1356.26 197.012 1356.86 197.92 1357.28 198.941C1357.73 199.988 1357.97 201.141 1357.98 202.402L1354.47 203.071C1354.47 201.71 1354.24 200.522 1353.79 199.507C1353.34 198.523 1352.7 197.721 1351.87 197.101C1351.04 196.482 1350.06 196.07 1348.92 195.866C1347.81 195.656 1346.57 195.681 1345.19 195.943L1332.9 198.279L1332.23 194.762L1355.68 190.303Z" fill="url(#paint6_linear_187_175)"/>
<path d="M1342.61 257.582L1346.77 256.477C1345.21 256.102 1343.89 255.354 1342.83 254.232C1341.8 253.104 1341.09 251.556 1340.71 249.589C1340.38 247.902 1340.36 246.414 1340.66 245.123C1340.96 243.832 1341.53 242.764 1342.37 241.919C1343.25 241.099 1344.36 240.558 1345.7 240.295C1347.67 239.911 1349.42 240.33 1350.96 241.554C1352.52 242.771 1353.72 244.742 1354.54 247.467L1356.75 254.526L1358.63 254.16C1359.94 253.903 1360.89 253.214 1361.48 252.094C1362.1 250.967 1362.25 249.575 1361.93 247.92C1361.61 246.296 1360.97 245.011 1360.01 244.064C1359.05 243.149 1357.83 242.626 1356.34 242.494L1356.85 239.089C1359.03 239.31 1360.86 240.136 1362.34 241.565C1363.83 243.026 1364.8 244.959 1365.27 247.364C1365.82 250.143 1365.52 252.439 1364.38 254.25C1363.28 256.086 1361.51 257.243 1359.08 257.719L1343.24 260.815L1342.61 257.582ZM1353.75 255.112L1351.49 248.016C1351 246.491 1350.33 245.389 1349.48 244.712C1348.67 244.028 1347.71 243.793 1346.62 244.006C1345.53 244.22 1344.73 244.782 1344.23 245.691C1343.73 246.631 1343.63 247.851 1343.92 249.35C1344.26 251.068 1344.87 252.406 1345.78 253.365C1346.68 254.323 1347.75 254.94 1349.01 255.213C1350.3 255.512 1351.63 255.527 1353 255.259L1353.75 255.112Z" fill="url(#paint7_linear_187_175)"/>
<path d="M1372.77 289.422L1374.25 292.37L1371.3 294.054C1372.69 294.211 1373.95 294.703 1375.08 295.53C1376.23 296.342 1377.17 297.488 1377.91 298.969C1378.72 300.592 1379.08 302.193 1378.98 303.773C1378.9 305.339 1378.34 306.811 1377.29 308.191C1376.26 309.556 1374.71 310.758 1372.63 311.795L1360.33 317.933L1358.73 314.73L1370.65 308.783C1372.87 307.675 1374.31 306.352 1374.96 304.816C1375.66 303.294 1375.56 301.636 1374.67 299.842C1373.74 297.991 1372.41 296.844 1370.66 296.402C1368.92 295.987 1366.86 296.377 1364.46 297.571L1353.02 303.283L1351.42 300.08L1372.77 289.422Z" fill="url(#paint8_linear_187_175)"/>
<path d="M1408.34 351.447L1408.01 351.245L1417.64 339.258L1420.43 341.499L1398.91 368.302L1396.34 366.241L1398.94 362.629C1397.53 363.213 1395.97 363.407 1394.25 363.211C1392.55 363.034 1390.87 362.278 1389.21 360.943C1387.5 359.569 1386.31 357.979 1385.63 356.174C1385 354.364 1384.91 352.45 1385.34 350.433C1385.8 348.436 1386.81 346.469 1388.37 344.534C1389.92 342.598 1391.61 341.202 1393.44 340.345C1395.32 339.483 1397.21 339.163 1399.11 339.385C1401.04 339.626 1402.86 340.435 1404.57 341.809C1406.33 343.223 1407.49 344.783 1408.04 346.489C1408.59 348.195 1408.69 349.847 1408.34 351.447ZM1391.38 346.954C1389.67 349.088 1388.85 351.227 1388.93 353.369C1389.02 355.486 1390.01 357.302 1391.9 358.816C1393.06 359.752 1394.33 360.316 1395.68 360.507C1397.04 360.698 1398.4 360.481 1399.75 359.857C1401.14 359.253 1402.42 358.219 1403.59 356.755C1404.77 355.291 1405.49 353.831 1405.76 352.375C1406.08 350.914 1405.99 349.542 1405.51 348.259C1405.05 346.951 1404.24 345.829 1403.07 344.893C1401.21 343.399 1399.22 342.837 1397.08 343.206C1394.99 343.57 1393.09 344.82 1391.38 346.954Z" fill="url(#paint9_linear_187_175)"/>
</g>
<g opacity="0.14">
<path d="M46.6032 726.256C48.9857 667.236 91.5449 562.04 242.722 613.417C296.272 631.616 330.766 629.727 377.931 579.613" stroke="black"/>
<path d="M9.50051 530.771L11.4164 529.073L22.389 541.455C23.1672 542.333 23.6689 543.285 23.8941 544.311C24.1194 545.337 24.0656 546.354 23.7328 547.362C23.4018 548.339 22.7812 549.231 21.8712 550.038C20.7216 551.056 19.5249 551.604 18.2811 551.68C17.0232 551.74 15.8057 551.379 14.6287 550.598L15.7506 548.535C16.2303 548.851 16.7224 549.085 17.2271 549.236C17.7478 549.373 18.2686 549.382 18.7897 549.262C19.3267 549.128 19.8586 548.828 20.3855 548.361C21.0082 547.809 21.3838 547.22 21.5123 546.593C21.6408 545.966 21.6018 545.359 21.3954 544.772C21.1909 544.156 20.8834 543.616 20.4731 543.153L9.50051 530.771Z" fill="url(#paint10_linear_187_175)"/>
<path d="M359.793 581.939C418.722 577.89 527.922 608.758 493.288 764.626C481.02 819.837 486.648 853.921 541.594 895.357" stroke="black"/>
<path d="M51.2393 526.841L49.6877 524.407C49.7661 525.483 49.5548 526.475 49.0541 527.381C48.543 528.269 47.6981 529.036 46.5192 529.681C45.5088 530.235 44.561 530.547 43.6757 530.618C42.7905 530.689 41.9926 530.542 41.282 530.178C40.5799 529.784 40.0086 529.184 39.568 528.38C38.9225 527.201 38.8346 525.997 39.3042 524.766C39.7636 523.518 40.7798 522.353 42.353 521.273L46.4141 518.429L45.7994 517.306C45.369 516.52 44.7358 516.052 43.8996 515.902C43.0531 515.733 42.134 515.92 41.1423 516.463C40.1693 516.996 39.4783 517.666 39.0692 518.474C38.6789 519.272 38.5927 520.158 38.8105 521.133L36.533 521.505C36.2311 520.065 36.3864 518.727 36.999 517.492C37.6303 516.246 38.6664 515.229 40.1072 514.44C41.7726 513.528 43.2994 513.251 44.6875 513.61C46.0842 513.94 47.1821 514.834 47.9813 516.294L53.176 525.781L51.2393 526.841ZM47.3977 520.225L43.3239 523.113C42.4498 523.737 41.8822 524.389 41.6211 525.067C41.3497 525.726 41.3933 526.383 41.7519 527.038C42.1106 527.693 42.6313 528.089 43.3143 528.226C44.016 528.352 44.8159 528.17 45.7141 527.678C46.7432 527.114 47.4725 526.447 47.902 525.677C48.3315 524.907 48.5064 524.094 48.4267 523.237C48.3555 522.352 48.0945 521.498 47.6436 520.674L47.3977 520.225Z" fill="url(#paint11_linear_187_175)"/>
<path d="M73.3314 511.828L73.5742 511.741L75.6896 521.17L73.3478 521.696L68.4445 499.839L70.599 499.356L71.4065 502.225C71.6892 501.243 72.2311 500.345 73.0324 499.531C73.8337 498.718 74.9421 498.152 76.3576 497.834C77.7106 497.531 79.0031 497.591 80.2349 498.014C81.4621 498.416 82.5234 499.151 83.4187 500.218C84.3094 501.265 84.9392 502.61 85.3081 504.255C85.6723 505.878 85.688 507.362 85.3552 508.704C85.0385 510.022 84.4137 511.135 83.4807 512.044C82.5685 512.948 81.3943 513.561 79.958 513.883C78.4592 514.22 77.1483 514.175 76.0252 513.749C74.9021 513.323 74.0041 512.683 73.3314 511.828ZM82.7789 504.822C82.3773 503.032 81.5914 501.722 80.4212 500.891C79.2672 500.035 77.9095 499.782 76.3483 500.132C75.37 500.352 74.5367 500.779 73.8484 501.414C73.1809 502.045 72.7267 502.847 72.4857 503.819C72.2447 504.791 72.262 505.892 72.5375 507.12C72.8083 508.327 73.2604 509.319 73.8936 510.095C74.5269 510.871 75.2823 511.412 76.1599 511.718C77.0537 511.999 77.9897 512.029 78.9681 511.81C80.5293 511.46 81.6511 510.661 82.3335 509.415C83.032 508.143 83.1805 506.612 82.7789 504.822Z" fill="url(#paint12_linear_187_175)"/>
<path d="M108.177 490.884C108.275 489.715 108.55 488.743 109.001 487.967C109.452 487.192 110.107 486.658 110.966 486.367C111.849 486.056 112.987 486.012 114.381 486.237L114.201 488.373C112.935 488.16 112.034 488.298 111.501 488.788C110.969 489.257 110.658 490.023 110.568 491.086L110.41 492.967L113.917 493.263L113.729 495.495L110.222 495.199L109.066 508.911L106.674 508.709L107.83 494.998L105.598 494.81L105.786 492.577L108.018 492.766L108.177 490.884Z" fill="url(#paint13_linear_187_175)"/>
<path d="M141.03 514.386L141.94 511.647C141.154 512.386 140.252 512.848 139.232 513.031C138.221 513.195 137.093 513.023 135.849 512.515C134.782 512.08 133.942 511.542 133.328 510.9C132.714 510.258 132.325 509.546 132.16 508.764C132.023 507.971 132.127 507.15 132.474 506.3C132.981 505.056 133.86 504.228 135.111 503.816C136.37 503.385 137.914 503.439 139.745 503.978L144.514 505.336L144.997 504.15C145.335 503.321 145.299 502.534 144.888 501.791C144.485 501.027 143.76 500.432 142.713 500.005C141.686 499.586 140.73 499.473 139.845 499.665C138.98 499.865 138.238 500.357 137.619 501.141L135.894 499.609C136.821 498.466 137.957 497.743 139.302 497.439C140.667 497.143 142.11 497.305 143.631 497.926C145.389 498.643 146.566 499.653 147.164 500.956C147.789 502.248 147.787 503.664 147.159 505.205L143.074 515.22L141.03 514.386ZM143.74 507.232L138.93 505.892C137.894 505.608 137.03 505.578 136.34 505.804C135.657 506.009 135.174 506.457 134.893 507.149C134.611 507.84 134.632 508.494 134.957 509.11C135.301 509.734 135.947 510.24 136.895 510.627C137.982 511.07 138.959 511.215 139.828 511.062C140.697 510.91 141.438 510.532 142.052 509.93C142.694 509.317 143.192 508.575 143.547 507.706L143.74 507.232Z" fill="url(#paint14_linear_187_175)"/>
<path d="M193.339 531.703C194.377 531.377 195.48 531.356 196.647 531.639C197.815 531.921 198.922 532.624 199.969 533.748C200.972 534.825 201.595 535.994 201.838 537.256C202.095 538.533 201.974 539.811 201.476 541.092C201.008 542.374 200.166 543.582 198.948 544.716C197.731 545.85 196.459 546.613 195.132 547.004C193.805 547.395 192.513 547.417 191.258 547.071C190.032 546.726 188.925 546.023 187.936 544.961C186.947 543.9 186.351 542.808 186.149 541.683C185.948 540.559 186.007 539.512 186.328 538.543L184.042 540.454L182.537 538.839L199.392 523.132L201.029 524.887L193.49 531.912L193.339 531.703ZM197.181 542.82C198.523 541.569 199.257 540.229 199.383 538.799C199.539 537.371 199.072 536.071 197.981 534.901C197.298 534.167 196.5 533.671 195.588 533.413C194.707 533.155 193.786 533.168 192.825 533.451C191.879 533.719 190.946 534.283 190.025 535.141C189.105 535.999 188.469 536.897 188.119 537.836C187.769 538.774 187.691 539.693 187.886 540.59C188.095 541.503 188.542 542.326 189.225 543.06C190.316 544.23 191.572 544.795 192.992 544.755C194.442 544.716 195.839 544.07 197.181 542.82Z" fill="url(#paint15_linear_187_175)"/>
<path d="M219.923 556.593L221.185 558.405L219.341 559.845C220.058 559.866 220.753 560.006 221.427 560.265C222.113 560.541 222.725 560.934 223.262 561.444C223.828 561.959 224.288 562.601 224.641 563.369L222.671 564.74C222.3 563.907 221.836 563.242 221.282 562.744C220.739 562.264 220.129 561.948 219.452 561.796C218.774 561.644 218.058 561.662 217.304 561.848C216.568 562.023 215.815 562.379 215.045 562.915L208.164 567.706L206.793 565.736L219.923 556.593Z" fill="url(#paint16_linear_187_175)"/>
<path d="M230.327 601.343L232.572 599.528C231.511 599.727 230.502 599.628 229.545 599.232C228.606 598.824 227.749 598.071 226.975 596.972C226.312 596.03 225.896 595.123 225.726 594.251C225.555 593.379 225.612 592.57 225.895 591.823C226.207 591.081 226.739 590.446 227.489 589.918C228.588 589.145 229.775 588.922 231.05 589.251C232.342 589.567 233.613 590.446 234.863 591.888L238.145 595.605L239.192 594.868C239.924 594.352 240.318 593.67 240.374 592.822C240.446 591.962 240.157 591.07 239.507 590.145C238.868 589.238 238.124 588.627 237.276 588.311C236.44 588.013 235.549 588.027 234.605 588.352L233.98 586.131C235.377 585.669 236.724 585.674 238.02 586.144C239.328 586.631 240.456 587.547 241.401 588.89C242.494 590.442 242.94 591.929 242.74 593.348C242.569 594.773 241.803 595.964 240.442 596.922L231.598 603.149L230.327 601.343ZM236.47 596.784L233.144 593.059C232.425 592.261 231.714 591.77 231.011 591.587C230.326 591.391 229.678 591.508 229.067 591.938C228.457 592.368 228.122 592.93 228.062 593.624C228.015 594.335 228.287 595.109 228.876 595.947C229.551 596.906 230.296 597.556 231.11 597.896C231.923 598.237 232.751 598.319 233.593 598.144C234.464 597.974 235.284 597.619 236.052 597.078L236.47 596.784Z" fill="url(#paint17_linear_187_175)"/>
</g>
<defs>
<linearGradient id="paint0_linear_187_175" x1="1107.78" y1="69.3713" x2="1061.81" y2="65.2212" gradientUnits="userSpaceOnUse">
<stop stop-color="#FF2525"/>
<stop offset="1" stop-color="#FF8743"/>
</linearGradient>
<linearGradient id="paint1_linear_187_175" x1="1153.28" y1="60.0775" x2="1108.11" y2="44.6911" gradientUnits="userSpaceOnUse">
<stop stop-color="#FF2525"/>
<stop offset="1" stop-color="#FF8743"/>
</linearGradient>
<linearGradient id="paint2_linear_187_175" x1="1202.04" y1="62.5603" x2="1160.46" y2="30.9574" gradientUnits="userSpaceOnUse">
<stop stop-color="#FF2525"/>
<stop offset="1" stop-color="#FF8743"/>
</linearGradient>
<linearGradient id="paint3_linear_187_175" x1="1234.35" y1="73.39" x2="1212.05" y2="51.9734" gradientUnits="userSpaceOnUse">
<stop stop-color="#FF2525"/>
<stop offset="1" stop-color="#FF8743"/>
</linearGradient>
<linearGradient id="paint4_linear_187_175" x1="1269.84" y1="99.5038" x2="1253.29" y2="54.7491" gradientUnits="userSpaceOnUse">
<stop stop-color="#FF2525"/>
<stop offset="1" stop-color="#FF8743"/>
</linearGradient>
<linearGradient id="paint5_linear_187_175" x1="1311.5" y1="171.642" x2="1317.78" y2="119.795" gradientUnits="userSpaceOnUse">
<stop stop-color="#FF2525"/>
<stop offset="1" stop-color="#FF8743"/>
</linearGradient>
<linearGradient id="paint6_linear_187_175" x1="1322.14" y1="211.265" x2="1325.71" y2="176.964" gradientUnits="userSpaceOnUse">
<stop stop-color="#FF2525"/>
<stop offset="1" stop-color="#FF8743"/>
</linearGradient>
<linearGradient id="paint7_linear_187_175" x1="1331.27" y1="267.326" x2="1341.49" y2="220.716" gradientUnits="userSpaceOnUse">
<stop stop-color="#FF2525"/>
<stop offset="1" stop-color="#FF8743"/>
</linearGradient>
<linearGradient id="paint8_linear_187_175" x1="1350.2" y1="326.757" x2="1348.24" y2="277.548" gradientUnits="userSpaceOnUse">
<stop stop-color="#FF2525"/>
<stop offset="1" stop-color="#FF8743"/>
</linearGradient>
<linearGradient id="paint9_linear_187_175" x1="1393.66" y1="380.759" x2="1371.22" y2="333.601" gradientUnits="userSpaceOnUse">
<stop stop-color="#FF2525"/>
<stop offset="1" stop-color="#FF8743"/>
</linearGradient>
<linearGradient id="paint10_linear_187_175" x1="34.7404" y1="550.359" x2="5.06624" y2="560.299" gradientUnits="userSpaceOnUse">
<stop stop-color="#FF2525"/>
<stop offset="1" stop-color="#FF8743"/>
</linearGradient>
<linearGradient id="paint11_linear_187_175" x1="59.5282" y1="532.563" x2="28.387" y2="535.658" gradientUnits="userSpaceOnUse">
<stop stop-color="#FF2525"/>
<stop offset="1" stop-color="#FF8743"/>
</linearGradient>
<linearGradient id="paint12_linear_187_175" x1="91.0301" y1="520.394" x2="56.3007" y2="511.784" gradientUnits="userSpaceOnUse">
<stop stop-color="#FF2525"/>
<stop offset="1" stop-color="#FF8743"/>
</linearGradient>
<linearGradient id="paint13_linear_187_175" x1="113.565" y1="518.322" x2="93.6541" y2="510.998" gradientUnits="userSpaceOnUse">
<stop stop-color="#FF2525"/>
<stop offset="1" stop-color="#FF8743"/>
</linearGradient>
<linearGradient id="paint14_linear_187_175" x1="141.818" y1="524.428" x2="119.773" y2="502.216" gradientUnits="userSpaceOnUse">
<stop stop-color="#FF2525"/>
<stop offset="1" stop-color="#FF8743"/>
</linearGradient>
<linearGradient id="paint15_linear_187_175" x1="187.909" y1="557.806" x2="177.799" y2="523.483" gradientUnits="userSpaceOnUse">
<stop stop-color="#FF2525"/>
<stop offset="1" stop-color="#FF8743"/>
</linearGradient>
<linearGradient id="paint16_linear_187_175" x1="204.857" y1="578.706" x2="197.696" y2="556.859" gradientUnits="userSpaceOnUse">
<stop stop-color="#FF2525"/>
<stop offset="1" stop-color="#FF8743"/>
</linearGradient>
<linearGradient id="paint17_linear_187_175" x1="225.571" y1="610.222" x2="219.002" y2="579.625" gradientUnits="userSpaceOnUse">
<stop stop-color="#FF2525"/>
<stop offset="1" stop-color="#FF8743"/>
</linearGradient>
</defs>
</svg>
