<svg width="110" height="110" viewBox="0 0 110 110" fill="none" xmlns="http://www.w3.org/2000/svg">
<rect y="0.00195312" width="110" height="110" rx="55" fill="url(#paint0_linear_9659_6883)"/>
<path d="M75.9216 62.8477H34.9473L37.1268 70.6938H73.7421L75.9216 62.8477Z" fill="#FFA979"/>
<path d="M40.6133 87.2594V71.5671V70.6953H70.2543V87.2594H40.6133Z" fill="#FFA979"/>
<circle cx="62.4082" cy="40.6171" r="4.79487" fill="white"/>
<path d="M52.3855 57.6184L51.5137 62.4133H72.4367L72.0009 58.9261L71.565 55.4389L80.7188 39.7466V38.003L79.4111 36.6953L76.7957 37.5671L68.9496 49.7722L66.3342 50.2081L64.5906 51.9517L61.1034 52.8235L58.9239 50.2081L56.3085 51.0799L53.2573 53.2594L52.3855 57.6184Z" fill="white"/>
<path d="M49.7684 31.8996V45.4124L44.5377 41.9252L38.871 44.1047L32.7684 41.0534L29.2812 36.6945V29.2842L31.8966 25.3611L35.3838 24.0534L38.871 23.1816L42.7941 24.0534L46.7171 26.2329L49.7684 31.8996Z" fill="#FFA979"/>
<path d="M73.5928 72.0774H36.9179C36.6847 72.0774 36.458 72.0007 36.2727 71.8591C36.0874 71.7175 35.9539 71.5189 35.8926 71.2938L33.7358 63.3477C33.6934 63.1902 33.6878 63.0252 33.7194 62.8652C33.751 62.7053 33.8191 62.5548 33.9182 62.4254C34.0173 62.2959 34.1449 62.1911 34.2911 62.1188C34.4372 62.0466 34.598 62.009 34.7611 62.0089H75.747C75.9099 62.0092 76.0706 62.047 76.2166 62.1193C76.3626 62.1916 76.49 62.2965 76.589 62.4259C76.6879 62.5553 76.7558 62.7057 76.7874 62.8656C76.819 63.0254 76.8134 63.1903 76.771 63.3477L74.6141 71.2938C74.5531 71.5182 74.4201 71.7164 74.2356 71.8579C74.0511 71.9995 73.8253 72.0766 73.5928 72.0774ZM37.7334 69.9524H72.7826L74.3618 64.1299H36.149L37.7334 69.9524ZM62.0633 47.021C60.8837 47.021 59.7306 46.6712 58.7497 46.0159C57.7689 45.3606 57.0044 44.4291 56.5529 43.3393C56.1014 42.2495 55.9832 41.0502 56.2132 39.8933C56.4433 38.7363 57.0112 37.6735 57.8453 36.8393C58.6793 36.005 59.742 35.4369 60.8989 35.2066C62.0558 34.9763 63.2551 35.0942 64.345 35.5454C65.4349 35.9967 66.3665 36.761 67.0221 37.7417C67.6776 38.7224 68.0277 39.8754 68.0279 41.0551C68.0251 42.6363 67.3959 44.1519 66.2779 45.2701C65.16 46.3883 63.6445 47.0179 62.0633 47.021ZM62.0633 37.2155C61.3036 37.2155 60.561 37.4408 59.9293 37.8629C59.2976 38.285 58.8053 38.8849 58.5146 39.5869C58.224 40.2888 58.148 41.0611 58.2963 41.8062C58.4446 42.5513 58.8106 43.2357 59.3479 43.7728C59.8852 44.3099 60.5697 44.6757 61.3148 44.8237C62.06 44.9718 62.8323 44.8955 63.5341 44.6046C64.2359 44.3137 64.8357 43.8212 65.2576 43.1894C65.6795 42.5575 65.9045 41.8148 65.9043 41.0551C65.9029 40.037 65.4977 39.061 64.7777 38.3412C64.0576 37.6214 63.0815 37.2165 62.0633 37.2155Z" fill="#6A0600"/>
<path d="M71.9863 61.1387C71.7175 61.1394 71.4585 61.0383 71.2614 60.8557C71.0642 60.6731 70.9436 60.4225 70.9237 60.1545C70.8188 58.7348 70.702 57.145 70.6316 56.1914C70.6139 55.9804 70.6602 55.7689 70.7644 55.5845L79.7027 40.0042C79.8322 39.7755 79.8965 39.5155 79.8883 39.2527C79.8802 38.99 79.8 38.7345 79.6564 38.5142C79.5129 38.2939 79.3116 38.1173 79.0745 38.0037C78.8375 37.8901 78.5737 37.8438 78.3121 37.8699C78.0862 37.8938 77.8693 37.9719 77.6802 38.0977C77.491 38.2235 77.335 38.3933 77.2257 38.5924C70.7856 50.1471 69.5478 50.5031 68.9515 50.6784C68.0579 50.935 67.1496 51.1373 66.2315 51.284C65.7896 51.9877 65.1753 52.567 64.4469 52.967C63.7185 53.367 62.9001 53.5744 62.0691 53.5697C61.2564 53.5691 60.4563 53.368 59.7398 52.9844C59.0233 52.6008 58.4124 52.0464 57.9612 51.3703C55.6662 51.3863 53.7352 53.1235 53.5572 55.3388C53.5578 55.3494 53.5578 55.36 53.5572 55.3706C53.5479 55.4782 53.4908 56.2233 53.2252 59.8557C53.2047 60.1375 53.0732 60.3996 52.8595 60.5845C52.6458 60.7693 52.3674 60.8616 52.0856 60.8412C51.8038 60.8208 51.5417 60.6892 51.3569 60.4755C51.1721 60.2618 51.0797 59.9834 51.1002 59.7017C51.3419 56.4026 51.4096 55.4742 51.4402 55.1701C51.7058 51.8498 54.5825 49.2467 57.9918 49.2467H58.5855C58.7868 49.2468 58.984 49.3042 59.154 49.4122C59.324 49.5201 59.4599 49.6741 59.5457 49.8563C59.7745 50.3331 60.1335 50.7356 60.5811 51.0173C61.0287 51.299 61.5469 51.4484 62.0758 51.4484C62.6047 51.4484 63.1228 51.299 63.5705 51.0173C64.0181 50.7356 64.377 50.3331 64.6059 49.8563C64.6833 49.694 64.8008 49.554 64.9471 49.4495C65.0934 49.3449 65.2639 49.2793 65.4426 49.2586C66.4079 49.1282 67.3627 48.9285 68.2994 48.661C68.5451 48.4843 70.0472 47.123 75.3756 37.5631C75.6486 37.0673 76.0374 36.6448 76.5089 36.3316C76.9805 36.0185 77.5207 35.8241 78.0837 35.7649C78.7347 35.6943 79.3926 35.8048 79.9848 36.0841C80.5771 36.3634 81.0808 36.8008 81.4405 37.348C81.8001 37.8953 82.0018 38.5311 82.0232 39.1856C82.0447 39.8401 81.8851 40.4878 81.562 41.0574L72.7791 56.3588C72.8509 57.3243 72.9531 58.7308 73.0448 60.0005C73.0649 60.2811 72.9728 60.5583 72.7888 60.7712C72.6048 60.9841 72.3439 61.1153 72.0633 61.136C72.0377 61.1382 72.012 61.1391 71.9863 61.1387ZM69.8958 87.9163C69.614 87.9163 69.3437 87.8044 69.1445 87.6051C68.9452 87.4059 68.8333 87.1356 68.8333 86.8538V71.0492C68.8333 70.7674 68.9452 70.4971 69.1445 70.2979C69.3437 70.0986 69.614 69.9867 69.8958 69.9867C70.1776 69.9867 70.4478 70.0986 70.6471 70.2979C70.8463 70.4971 70.9583 70.7674 70.9583 71.0492V86.8538C70.9583 87.1356 70.8463 87.4059 70.6471 87.6051C70.4478 87.8044 70.1776 87.9163 69.8958 87.9163ZM40.6133 87.9163C40.3315 87.9163 40.0612 87.8044 39.862 87.6051C39.6627 87.4059 39.5508 87.1356 39.5508 86.8538V71.0943C39.5508 70.8125 39.6627 70.5423 39.862 70.343C40.0612 70.1437 40.3315 70.0318 40.6133 70.0318C40.8951 70.0318 41.1653 70.1437 41.3646 70.343C41.5638 70.5423 41.6758 70.8125 41.6758 71.0943V86.8552C41.6754 87.1367 41.5633 87.4066 41.3641 87.6056C41.1649 87.8046 40.8948 87.9163 40.6133 87.9163Z" fill="#6A0600"/>
<path d="M49.4671 47.1969C49.2327 47.1969 49.0048 47.1194 48.819 46.9764L44.2609 43.4728C43.6081 43.7959 42.9253 44.0543 42.2222 44.2445C39.9465 44.8664 37.5331 44.7592 35.3215 43.9379C33.1099 43.1165 31.2116 41.6224 29.8935 39.6659C28.5754 37.7093 27.904 35.3886 27.9737 33.0305C28.0434 30.6724 28.8507 28.3955 30.282 26.5201C31.7133 24.6448 33.6967 23.2655 35.9529 22.5762C38.2091 21.8869 40.6246 21.9224 42.8596 22.6776C45.0946 23.4329 47.0365 24.8699 48.4122 26.7865C49.7878 28.703 50.5279 31.0027 50.5283 33.3618V46.1304C50.5282 46.3286 50.4727 46.5228 50.368 46.6911C50.2633 46.8593 50.1137 46.995 49.9359 47.0827C49.7907 47.1568 49.6301 47.1959 49.4671 47.1969ZM44.3591 41.1473C44.593 41.1472 44.8203 41.2242 45.0059 41.3664L48.4046 43.9789V33.3658C48.401 31.4562 47.7991 29.5957 46.6835 28.0458C45.5678 26.4959 43.9946 25.3345 42.1849 24.7249C40.3751 24.1153 38.4199 24.0882 36.5939 24.6472C34.7679 25.2062 33.163 26.3234 32.0047 27.8417C30.8464 29.3599 30.193 31.203 30.1363 33.1118C30.0796 35.0206 30.6224 36.8992 31.6885 38.4836C32.7546 40.0679 34.2904 41.2784 36.08 41.9448C37.8695 42.6113 39.823 42.7002 41.6657 42.1992C42.39 42.0017 43.0869 41.7149 43.7402 41.3452C43.7873 41.3115 43.837 41.2817 43.889 41.2562C44.0353 41.1843 44.1961 41.1471 44.3591 41.1473Z" fill="#6A0600"/>
<path d="M37.37 38.7186C37.0886 38.7185 36.8188 38.6067 36.6197 38.4078L33.4096 35.1978C33.2231 34.9962 33.1219 34.7303 33.1271 34.4558C33.1324 34.1813 33.2438 33.9194 33.4378 33.7252C33.6319 33.531 33.8936 33.4194 34.1681 33.4139C34.4427 33.4084 34.7087 33.5093 34.9104 33.6956L37.37 36.1553L43.0398 30.4856C43.2407 30.2947 43.5082 30.1899 43.7852 30.1934C44.0623 30.197 44.327 30.3086 44.5229 30.5046C44.7189 30.7005 44.8305 30.9652 44.834 31.2423C44.8376 31.5193 44.7328 31.7868 44.5419 31.9877L38.1204 38.4078C37.9213 38.6067 37.6515 38.7185 37.37 38.7186Z" fill="#6A0600"/>
<path d="M41.0527 87.2578H69.822" stroke="#6A0600" stroke-width="1.74359" stroke-linecap="round"/>
<defs>
<linearGradient id="paint0_linear_9659_6883" x1="55" y1="0.00195312" x2="55" y2="110.002" gradientUnits="userSpaceOnUse">
<stop stop-color="#FFEBE0"/>
<stop offset="1" stop-color="#FFD0B6"/>
</linearGradient>
</defs>
</svg>
