<svg width="110" height="110" viewBox="0 0 110 110" fill="none" xmlns="http://www.w3.org/2000/svg">
<rect y="0.00195312" width="110" height="110" rx="55" fill="url(#paint0_linear_9659_6901)"/>
<path d="M41.4844 41.0254L33.3984 36.1738L23.6953 55.5801L32.3203 59.3535L41.4844 41.0254Z" fill="#FFA979"/>
<path d="M70.5938 41.0254L78.6797 36.1738L87.3047 56.1191L79.7578 59.3535L70.5938 41.0254Z" fill="#FFA979"/>
<path d="M43.6399 44.2598L40.9446 43.7207L33.3984 57.7363L35.5547 58.8145C35.3748 59.1738 34.9071 60.0004 34.4758 60.4316C33.9368 60.9707 36.6321 63.666 37.1712 64.2051C37.7102 64.7441 38.7883 65.8223 39.3274 66.9004C39.8665 67.9785 40.9446 67.4395 42.0227 67.4395C42.8852 67.4395 44.179 68.877 44.718 69.5957L46.8743 70.6738L50.1087 71.752L52.804 69.5957L56.0383 71.752H59.8118L63.0462 69.5957L66.8196 67.4395L70.593 64.2051L74.3665 62.5879V60.9707V58.8145L78.1399 57.7363L70.593 42.1035L68.4368 43.7207L57.6555 39.9473L52.804 41.5645L51.7258 41.0254L43.6399 44.2598Z" fill="white"/>
<path d="M31.964 60.9708C31.7923 60.9708 31.6231 60.9302 31.4702 60.8522L23.2528 56.6195C22.9994 56.4891 22.808 56.2637 22.7203 55.9926C22.6326 55.7215 22.6558 55.4267 22.7848 55.1726L32.4384 36.1049C32.5025 35.9783 32.5909 35.8656 32.6987 35.7732C32.8064 35.6809 32.9313 35.6107 33.0662 35.5667C33.2011 35.5228 33.3434 35.5059 33.4849 35.517C33.6264 35.5281 33.7642 35.5671 33.8906 35.6316L41.7081 39.6207C41.9591 39.7484 42.1501 39.9692 42.2404 40.236C42.3307 40.5028 42.313 40.7942 42.1911 41.0481L32.9365 60.3552C32.8739 60.485 32.7861 60.6011 32.6782 60.6966C32.5703 60.7921 32.4444 60.8652 32.3079 60.9115C32.1971 60.9493 32.0811 60.9693 31.964 60.9708ZM25.1923 55.192L31.4713 58.4264L39.7923 41.0686L33.8734 38.0498L25.1923 55.192Z" fill="#6A0600"/>
<path d="M43.1317 45.9667C42.9462 45.9666 42.7639 45.9187 42.6023 45.8276L39.4693 44.0627C39.3459 43.9933 39.2374 43.9002 39.15 43.7888C39.0626 43.6775 38.9979 43.5499 38.9598 43.4136C38.9216 43.2772 38.9107 43.1347 38.9277 42.9941C38.9446 42.8536 38.9891 42.7177 39.0585 42.5943C39.128 42.4709 39.221 42.3624 39.3324 42.275C39.4438 42.1876 39.5713 42.123 39.7076 42.0848C39.844 42.0467 39.9865 42.0358 40.1271 42.0527C40.2677 42.0696 40.4035 42.1141 40.5269 42.1836L43.1144 43.6401C44.1246 43.0277 46.3111 41.7092 47.7105 40.9189C49.995 39.6252 51.6036 39.8031 53.4504 41.5528C53.6526 41.7507 53.7689 42.0201 53.7743 42.3029C53.7797 42.5857 53.6737 42.8593 53.4792 43.0647C53.2847 43.2701 53.0173 43.3909 52.7346 43.4009C52.4519 43.4109 52.1765 43.3094 51.968 43.1183C50.8209 42.0315 50.2236 41.9755 48.7713 42.7948C46.973 43.8115 43.729 45.7888 43.6955 45.8136C43.5253 45.9156 43.3301 45.9685 43.1317 45.9667Z" fill="#6A0600"/>
<path d="M71.494 64.7259C70.7084 64.7461 69.9334 64.5415 69.2601 64.1362C68.2683 63.4742 63.904 59.1941 63.0394 58.3434C62.8487 58.1405 62.744 57.8718 62.7471 57.5934C62.7501 57.315 62.8608 57.0486 63.0558 56.8499C63.2508 56.6513 63.5152 56.5358 63.7934 56.5276C64.0717 56.5194 64.3424 56.6192 64.5487 56.806C66.4894 58.7219 69.8186 61.9185 70.4536 62.3422C70.8629 62.5313 71.3156 62.6067 71.7641 62.5604C72.2126 62.5141 72.6403 62.3479 73.0023 62.0791C73.1718 61.9321 73.307 61.7497 73.3983 61.5447C73.4896 61.3397 73.5348 61.1172 73.5307 60.8928C73.5266 60.6685 73.4733 60.4477 73.3745 60.2462C73.2758 60.0447 73.134 59.8674 72.9592 59.7267C71.8573 58.4868 67.2796 54.0827 66.2748 53.1167C62.7687 51.8315 59.3686 50.2735 56.1059 48.457L54.9718 49.1988C54.7171 50.3808 54.0378 51.4284 53.0624 52.1431C52.72 52.4128 52.3226 52.604 51.8982 52.7031C51.4738 52.8022 51.0328 52.8069 50.6064 52.7167C50.089 52.6522 49.5908 52.4805 49.1435 52.2124C48.6963 51.9443 48.31 51.5858 48.0092 51.1599C47.4359 49.9349 47.3715 48.5326 47.8303 47.2603C48.7499 43.5796 50.242 42.6319 52.3066 41.3209L52.7605 41.0309C55.0354 39.57 56.9879 38.7916 59.1312 39.7566C60.4637 40.3571 65.1935 42.1888 66.5368 42.7085L71.0391 41.2325C71.3088 41.1505 71.5999 41.1774 71.85 41.3074C72.1001 41.4374 72.2894 41.6602 72.3772 41.9281C72.465 42.196 72.4444 42.4876 72.3199 42.7404C72.1953 42.9933 71.9766 43.1873 71.7107 43.281L66.843 44.8766C66.6073 44.9535 66.3524 44.9474 66.1206 44.8593C65.8651 44.7601 59.8514 42.4465 58.2503 41.7241C57.2897 41.2929 56.2752 41.3371 53.9292 42.8443L53.4656 43.1408C51.5821 44.3364 50.6366 44.938 49.9251 47.7832C49.5606 49.2408 49.7288 49.8316 49.8614 50.0473C50.0318 50.3319 50.4264 50.4473 51.0549 50.6047C51.1899 50.6274 51.3281 50.6198 51.4598 50.5825C51.5914 50.5452 51.7131 50.4791 51.8161 50.389C52.1202 50.1599 52.3742 49.871 52.5624 49.54C52.7505 49.2091 52.869 48.8431 52.9104 48.4646C52.9245 48.302 52.9752 48.1448 53.0589 48.0047C53.1426 47.8647 53.2569 47.7454 53.3934 47.656L55.4688 46.2986C55.6323 46.1922 55.8217 46.1322 56.0167 46.125C56.2117 46.1178 56.405 46.1636 56.576 46.2577C56.6493 46.2975 63.918 50.2726 67.1017 51.1092C67.2787 51.1565 67.4411 51.2473 67.574 51.3734C67.8068 51.5965 73.288 56.8448 74.5753 58.2971C74.932 58.6423 75.2148 59.0565 75.4067 59.5143C75.5985 59.9722 75.6954 60.4643 75.6913 60.9607C75.6873 61.4571 75.5825 61.9475 75.3832 62.4022C75.184 62.8569 74.8944 63.2663 74.5322 63.6058C73.7026 64.3583 72.6136 64.7599 71.494 64.7259Z" fill="#6A0600"/>
<path d="M73.7688 60.0883C73.5217 60.0881 73.2822 60.0031 73.0904 59.8474C72.8985 59.6918 72.7659 59.475 72.7148 59.2333C72.6636 58.9916 72.697 58.7397 72.8094 58.5197C72.9218 58.2997 73.1063 58.125 73.3321 58.0247L77.1142 56.3493C77.2442 56.2879 77.3851 56.2532 77.5288 56.2471C77.6724 56.241 77.8158 56.2637 77.9506 56.3138C78.0853 56.3639 78.2086 56.4405 78.3134 56.539C78.4181 56.6375 78.502 56.756 78.5602 56.8875C78.6185 57.0189 78.6498 57.1607 78.6525 57.3044C78.6551 57.4481 78.629 57.5909 78.5756 57.7244C78.5223 57.8579 78.4427 57.9794 78.3417 58.0817C78.2407 58.184 78.1203 58.2651 77.9875 58.3201L74.2043 59.9999C74.0669 60.0593 73.9185 60.0894 73.7688 60.0883Z" fill="#6A0600"/>
<path d="M78.7146 60.9708C78.4998 60.9707 78.2898 60.9064 78.1117 60.7862C77.9337 60.6659 77.7956 60.4952 77.7152 60.2959L69.5775 40.1069C69.5231 39.9723 69.4965 39.8281 69.4992 39.6829C69.5019 39.5377 69.534 39.3946 69.5934 39.2621C69.6528 39.1296 69.7383 39.0104 69.8449 38.9118C69.9515 38.8132 70.0769 38.7371 70.2136 38.6881L78.9098 35.5767C79.1728 35.4826 79.4622 35.4943 79.7168 35.6093C79.9714 35.7243 80.1714 35.9337 80.2747 36.1933L88.2528 56.2184C88.305 56.3508 88.3305 56.4922 88.3277 56.6345C88.325 56.7768 88.2941 56.9171 88.2369 57.0474C88.1797 57.1777 88.0972 57.2954 87.9943 57.3937C87.8914 57.492 87.77 57.5689 87.6372 57.62L79.1006 60.8953C78.9777 60.944 78.8468 60.9695 78.7146 60.9708ZM71.9936 40.3398L79.3151 58.503L85.8421 56.0017L78.6564 37.9572L71.9936 40.3398ZM66.6375 67.9959C65.7487 68.0225 64.8808 67.7239 64.1966 67.156C62.753 65.873 59.0421 62.1643 58.8847 62.0069C58.6883 61.8036 58.5796 61.5312 58.5821 61.2485C58.5845 60.9659 58.6979 60.6954 58.8978 60.4956C59.0977 60.2957 59.3681 60.1823 59.6508 60.1798C59.9335 60.1774 60.2058 60.286 60.4091 60.4824C60.4469 60.5202 64.2333 64.3044 65.6283 65.5496C65.9175 65.7258 66.2449 65.8295 66.5828 65.8521C66.9207 65.8746 67.259 65.8152 67.569 65.679C68.0752 65.5063 68.5243 65.1979 68.8673 64.7874C69.2103 64.377 69.434 63.8802 69.5139 63.3513C69.538 63.2118 69.5893 63.0784 69.6649 62.9587C69.7406 62.839 69.839 62.7353 69.9547 62.6537C70.0704 62.5721 70.201 62.514 70.3391 62.4828C70.4773 62.4517 70.6202 62.448 70.7597 62.4721C70.8992 62.4962 71.0326 62.5475 71.1523 62.6231C71.272 62.6988 71.3757 62.7972 71.4573 62.9129C71.5389 63.0286 71.597 63.1592 71.6282 63.2973C71.6593 63.4354 71.663 63.5784 71.6389 63.7179C71.4923 64.6236 71.1032 65.4727 70.5128 66.1751C69.9225 66.8774 69.1529 67.4068 68.2859 67.7069C67.7565 67.8949 67.1993 67.9925 66.6375 67.9959Z" fill="#6A0600"/>
<path d="M61.6186 70.6082C60.7317 70.646 59.865 70.3366 59.2025 69.7457L55.373 65.9162L56.8986 64.3906L60.7281 68.2201C60.9651 68.3532 61.2273 68.435 61.4979 68.4603C61.7685 68.4855 62.0414 68.4537 62.2989 68.3667C62.7935 68.2453 63.2463 67.9932 63.6101 67.6369C63.9739 67.2805 64.2352 66.8329 64.3668 66.341C64.4066 66.2037 64.4734 66.0758 64.5632 65.9646C64.6529 65.8534 64.7639 65.7611 64.8896 65.6932C65.0154 65.6253 65.1533 65.583 65.2956 65.5689C65.4378 65.5548 65.5814 65.5691 65.718 65.6109C65.8546 65.6528 65.9816 65.7214 66.0915 65.8128C66.2014 65.9042 66.292 66.0165 66.358 66.1432C66.4241 66.2699 66.4643 66.4085 66.4764 66.5509C66.4884 66.6934 66.472 66.8367 66.4281 66.9727C66.1282 68.0175 65.4973 68.9368 64.6302 69.5924C63.7631 70.2479 62.7056 70.6044 61.6186 70.6082Z" fill="#6A0600"/>
<path d="M57.5113 73.4891C56.63 73.5079 55.768 73.2287 55.0651 72.6967C54.0938 71.9191 53.1181 71.1472 52.138 70.3809C52.024 70.2946 51.9284 70.1865 51.8567 70.0629C51.7849 69.9393 51.7385 69.8027 51.72 69.661C51.7015 69.5193 51.7114 69.3753 51.7491 69.2374C51.7867 69.0996 51.8514 68.9706 51.9394 68.8579C52.0274 68.7453 52.1369 68.6513 52.2615 68.5814C52.3861 68.5114 52.5234 68.467 52.6654 68.4506C52.8074 68.4342 52.9512 68.4462 53.0885 68.4859C53.2258 68.5256 53.3538 68.5922 53.4651 68.6818C53.4651 68.6818 54.8117 69.733 56.4127 71.0138C56.7538 71.2168 57.1418 71.3278 57.5386 71.3359C57.9355 71.344 58.3277 71.249 58.6768 71.0601C58.9889 70.9259 59.2531 70.7003 59.4344 70.4129C59.6157 70.1256 59.7056 69.79 59.6924 69.4505C59.6837 69.1647 59.7888 68.8871 59.9848 68.6789C60.1807 68.4706 60.4513 68.3487 60.7371 68.34C61.022 68.335 61.2977 68.4415 61.5051 68.6369C61.7126 68.8323 61.8355 69.1011 61.8476 69.3858C61.873 70.1368 61.6773 70.8787 61.2847 71.5194C60.8922 72.1602 60.3201 72.6715 59.6396 72.99C58.9779 73.3175 58.2496 73.4883 57.5113 73.4891Z" fill="#6A0600"/>
<path d="M49.4297 72.9888C49.0793 72.9875 48.7325 72.9179 48.4087 72.7839C47.5296 72.3525 46.8049 71.6606 46.3334 70.8023C45.5682 70.9508 44.7753 70.8316 44.0876 70.4649C43.5108 70.0868 43.0149 69.5977 42.6288 69.0261C42.2427 68.4546 41.9741 67.8119 41.8387 67.1356C41.7818 66.8603 41.8348 66.5736 41.9864 66.3367C42.8629 64.9697 44.1847 62.8447 44.382 62.4016C44.5595 62.0481 44.8113 61.7371 45.1202 61.49C45.4291 61.2429 45.7878 61.0654 46.1716 60.9698C46.6938 60.833 47.2399 60.8146 47.7701 60.9161C48.3002 61.0176 48.801 61.2363 49.2357 61.5563C49.7174 61.8752 50.1043 62.3181 50.3555 62.8384C50.6067 63.3586 50.713 63.937 50.6631 64.5125C51.1759 64.5346 51.678 64.6665 52.1356 64.8991C52.5931 65.1318 52.9954 65.4599 53.3153 65.8613C53.626 66.3469 53.8244 66.8958 53.8958 67.4679C53.9673 68.04 53.91 68.6208 53.7282 69.1679C53.1627 70.7462 52.0017 72.0403 50.4938 72.7731C50.1571 72.9155 49.7953 72.9888 49.4297 72.9888ZM48.1489 69.6239C48.4875 70.1964 49.0923 71.018 49.6583 70.7818C50.598 70.2924 51.3215 69.4701 51.6873 68.4757C51.7593 68.2557 51.7868 68.0235 51.7683 67.7927C51.7498 67.5619 51.6856 67.3371 51.5795 67.1313C51.4155 66.9707 51.2208 66.8447 51.007 66.761C50.7933 66.6773 50.5648 66.6375 50.3354 66.644L48.1489 69.6239ZM44.0617 67.0903C44.2333 67.6894 44.6051 68.2115 45.1151 68.5695C45.2743 68.6512 45.4486 68.6994 45.6272 68.7111C45.8057 68.7228 45.9848 68.6977 46.1533 68.6375L48.4551 64.6915C48.5466 64.4477 48.5525 64.18 48.4718 63.9323C48.391 63.6847 48.2285 63.4719 48.0109 63.3288C47.8454 63.1982 47.6543 63.1039 47.45 63.0517C47.2458 62.9995 47.0329 62.9907 46.825 63.0258C46.6415 63.0561 46.4739 63.1486 46.3506 63.2878C46.066 63.9185 44.6968 66.092 44.0617 67.0903Z" fill="#6A0600"/>
<path d="M41.1919 68.7752C40.9364 68.7759 40.6822 68.7396 40.4372 68.6674C38.5904 68.1121 37.8669 65.7209 37.7904 65.4502C37.7517 65.313 37.7407 65.1694 37.7579 65.0278C37.7751 64.8862 37.8202 64.7495 37.8907 64.6255C38.807 63.0337 39.8206 61.4998 40.9256 60.0327C41.4803 59.311 42.2841 58.822 43.1799 58.6611C44.0758 58.5003 44.9995 58.6791 45.7707 59.1626C46.7884 59.8688 47.5345 61.4051 46.286 63.4126C46.2113 63.5329 46.1137 63.6374 45.9986 63.72C45.8836 63.8026 45.7534 63.8617 45.6155 63.894C45.4776 63.9263 45.3346 63.9311 45.1949 63.9082C45.0551 63.8852 44.9212 63.835 44.8009 63.7603C44.6805 63.6856 44.5761 63.5879 44.4935 63.4729C44.4109 63.3578 44.3518 63.2276 44.3195 63.0897C44.2872 62.9518 44.2824 62.8089 44.3053 62.6692C44.3283 62.5294 44.3785 62.3955 44.4532 62.2752C44.7303 61.8277 44.9707 61.2337 44.5405 60.9351C44.2261 60.7633 43.8604 60.7104 43.5103 60.7861C43.1601 60.8617 42.8488 61.0607 42.6333 61.3469C41.6862 62.6054 40.8098 63.9155 40.0081 65.2713C40.2442 65.8351 40.6463 66.4809 41.0571 66.6028C41.4204 66.7106 41.9196 66.3375 42.1902 66.1068C42.4067 65.9198 42.6885 65.8265 42.9738 65.8473C43.2591 65.8681 43.5244 66.0014 43.7114 66.2179C43.8985 66.4343 43.9918 66.7162 43.971 67.0015C43.9502 67.2868 43.8169 67.5521 43.6004 67.7391C42.9522 68.3687 42.0948 68.7376 41.1919 68.7752Z" fill="#6A0600"/>
<path d="M38.8239 66.2319C38.7055 66.2317 38.5878 66.212 38.4757 66.1736C38.2935 66.1122 33.9961 64.6104 33.9961 61.2444C33.996 61.1314 34.0134 61.019 34.0478 60.9113C34.4379 59.8377 34.9722 58.8222 35.6359 57.8926C36.1298 57.3023 36.8121 56.9003 37.5677 56.7542C38.3233 56.6081 39.1062 56.7269 39.7845 57.0904C40.4231 57.3734 40.9324 57.8855 41.2118 58.5256C41.4912 59.1657 41.5205 59.8873 41.2939 60.548C40.5888 62.8185 39.8654 65.4136 39.8579 65.4405C39.7945 65.6672 39.6588 65.8669 39.4713 66.0092C39.2839 66.1515 39.055 66.2286 38.8196 66.2286L38.8239 66.2319ZM36.161 61.4116C36.2688 62.4207 37.3016 63.1883 38.1296 63.6487C38.411 62.6654 38.8282 61.2347 39.2379 59.9119C39.2755 59.8279 39.2948 59.7368 39.2944 59.6447C39.2939 59.5526 39.2739 59.4617 39.2355 59.378C39.1971 59.2943 39.1413 59.2198 39.0718 59.1594C39.0024 59.099 38.9208 59.0542 38.8326 59.0278C38.6098 58.9022 38.3548 58.8453 38.0998 58.8645C37.8448 58.8837 37.6012 58.9781 37.3997 59.1356C36.8999 59.8436 36.4842 60.6074 36.161 61.4116Z" fill="#6A0600"/>
<path d="M35.96 60.463C35.743 60.4628 35.531 60.397 35.352 60.2743L32.524 58.3337C32.288 58.1722 32.1258 57.9235 32.0731 57.6423C32.0205 57.3612 32.0816 57.0706 32.2432 56.8346C32.4047 56.5985 32.6534 56.4364 32.9346 56.3837C33.2157 56.331 33.5063 56.3922 33.7423 56.5537L36.5702 58.4944C36.7607 58.6243 36.9045 58.812 36.9805 59.0297C37.0565 59.2475 37.0606 59.4838 36.9923 59.7041C36.9241 59.9244 36.7869 60.1169 36.6011 60.2535C36.4153 60.3901 36.1906 60.4636 35.96 60.463Z" fill="#6A0600"/>
<defs>
<linearGradient id="paint0_linear_9659_6901" x1="55" y1="0.00195312" x2="55" y2="110.002" gradientUnits="userSpaceOnUse">
<stop stop-color="#FFEBE0"/>
<stop offset="1" stop-color="#FFD0B6"/>
</linearGradient>
</defs>
</svg>
