<svg width="110" height="110" viewBox="0 0 110 110" fill="none" xmlns="http://www.w3.org/2000/svg">
<rect y="0.00195312" width="110" height="110" rx="55" fill="url(#paint0_linear_9659_6925)"/>
<path d="M65.7982 55.8496V72.3873C65.7983 72.7991 65.7172 73.2069 65.5597 73.5873C65.4021 73.9678 65.1712 74.3134 64.88 74.6046C64.5888 74.8958 64.2431 75.1267 63.8627 75.2843C63.4823 75.4418 63.0745 75.5229 62.6627 75.5228C62.2647 75.5226 61.8701 75.4498 61.4982 75.3078L56.8396 73.4444L56.3199 73.2294C55.7853 73.0144 55.1883 73.0144 54.6537 73.2294L54.152 73.4266L49.4933 75.3078C49.0168 75.496 48.5014 75.5649 47.9922 75.5085C47.4829 75.4521 46.9952 75.2721 46.5713 74.9842C46.1475 74.6964 45.8004 74.3093 45.5602 73.8567C45.3201 73.4041 45.1941 72.8997 45.1934 72.3873V55.8496C45.1959 55.494 45.3383 55.1537 45.5898 54.9023C45.8413 54.6508 46.1816 54.5084 46.5372 54.5059H64.4544C64.8101 54.5084 65.1504 54.6508 65.4019 54.9022C65.6533 55.1537 65.7957 55.494 65.7982 55.8496Z" fill="white"/>
<path d="M55.5014 64.0595C64.3 64.0595 71.4326 56.9269 71.4326 48.1284C71.4326 39.3299 64.3 32.1973 55.5014 32.1973C46.7029 32.1973 39.5703 39.3299 39.5703 48.1284C39.5703 56.9269 46.7029 64.0595 55.5014 64.0595Z" fill="#FFA979"/>
<path d="M58.1028 44.8119L58.1028 44.8118M58.1028 44.8119L58.1029 44.812L58.1028 44.8118M58.1028 44.8119C58.1028 44.8119 58.1028 44.8118 58.1028 44.8118M58.1028 44.8119L58.1028 44.8118M50.9441 44.7331L50.9437 44.7331C50.6008 44.7333 50.2641 44.833 49.9762 45.0217C49.688 45.2106 49.4606 45.4809 49.3255 45.8007L50.1909 46.1662L49.3255 45.8007C49.1903 46.1207 49.1547 46.4739 49.2239 46.8149C49.293 47.1557 49.4632 47.4662 49.7099 47.7081C49.7099 47.7081 49.7099 47.7081 49.7099 47.7081L51.1928 49.1624L50.4855 51.9369C50.4855 51.937 50.4855 51.937 50.4855 51.9371C50.4855 51.9371 50.4855 51.9372 50.4854 51.9373C50.4003 52.2711 50.4171 52.6223 50.5335 52.9463C50.6498 53.2703 50.8596 53.5507 51.1339 53.7545L51.688 53.0087L51.1339 53.7545C51.4081 53.9581 51.7351 54.077 52.0743 54.0985C52.4135 54.1201 52.7527 54.0436 53.0501 53.877L53.0503 53.8769L55.4973 52.5056L57.9443 53.8769L57.9445 53.877C58.242 54.0436 58.5812 54.1201 58.9203 54.0985C59.2595 54.077 59.5866 53.9581 59.8607 53.7545L59.8607 53.7545C60.135 53.5507 60.3448 53.2703 60.4612 52.9463C60.5775 52.6223 60.5944 52.2711 60.5092 51.9373C60.5092 51.9372 60.5091 51.937 60.5091 51.9369L59.8019 49.1625L61.2847 47.7082C61.2847 47.7082 61.2848 47.7081 61.2848 47.7081C61.5315 47.4662 61.7016 47.1557 61.7708 46.8149L60.8501 46.6281L61.7708 46.8149C61.84 46.474 61.8043 46.1208 61.6692 45.8008C61.5341 45.481 61.3066 45.2106 61.0185 45.0218L60.5127 45.7934L61.0185 45.0218C60.7305 44.833 60.3938 44.7333 60.0509 44.7332H60.0506H58.0684L57.1075 42.5343C57.1075 42.5343 57.1075 42.5342 57.1074 42.5341C56.9699 42.2194 56.7426 41.9541 56.4563 41.769C56.1702 41.5839 55.8368 41.4863 55.4974 41.4863C55.158 41.4863 54.8246 41.5839 54.5384 41.7689L55.0435 42.55L54.5384 41.7689C54.2521 41.954 54.0247 42.2193 53.8872 42.5341C53.8872 42.5341 53.8872 42.5342 53.8872 42.5342L52.9262 44.7331H50.9441ZM55.4425 52.4748L55.4426 52.4749L55.4425 52.4748ZM59.7802 49.0775C59.7802 49.0776 59.7803 49.0777 59.7803 49.0778L59.7802 49.0775ZM52.8918 44.8119C52.8918 44.8118 52.8919 44.8118 52.8919 44.8118L52.8918 44.8119Z" fill="white" stroke="#6A0600" stroke-width="1.87895"/>
<path d="M47.8448 77.4808C46.9149 77.4798 46.0233 77.1096 45.3661 76.4516C44.7089 75.7936 44.3398 74.9017 44.3398 73.9717V60.1426C44.3398 59.7199 44.5078 59.3145 44.8066 59.0156C45.1055 58.7167 45.5109 58.5488 45.9336 58.5488C46.3563 58.5488 46.7617 58.7167 47.0605 59.0156C47.3594 59.3145 47.5273 59.7199 47.5273 60.1426V73.9717C47.5262 74.0243 47.5386 74.0764 47.5633 74.1229C47.588 74.1694 47.6242 74.2088 47.6685 74.2373C47.7099 74.2692 47.7594 74.2891 47.8114 74.2946C47.8634 74.3001 47.9159 74.291 47.9631 74.2684L53.4831 72.0604C54.775 71.5416 56.2172 71.5416 57.509 72.0604L63.0271 74.2684C63.0749 74.2898 63.1275 74.2981 63.1796 74.2926C63.2317 74.2872 63.2815 74.2681 63.3238 74.2373C63.3681 74.2088 63.4043 74.1694 63.429 74.1229C63.4537 74.0764 63.4661 74.0243 63.4649 73.9717V60.1426C63.4649 59.7199 63.6329 59.3145 63.9317 59.0156C64.2306 58.7167 64.636 58.5488 65.0587 58.5488C65.4814 58.5488 65.8868 58.7167 66.1857 59.0156C66.4845 59.3145 66.6524 59.7199 66.6524 60.1426V73.9717C66.6527 74.545 66.5124 75.1096 66.2438 75.6161C65.9752 76.1226 65.5865 76.5554 65.1118 76.8768C64.637 77.1982 64.0907 77.3982 63.5206 77.4594C62.9506 77.5205 62.3743 77.441 61.8421 77.2277L56.3263 75.0196C55.7935 74.8059 55.1989 74.8059 54.6661 75.0196L49.1481 77.2277C48.7337 77.3942 48.2914 77.4801 47.8448 77.4808Z" fill="#6A0600"/>
<path d="M55.4981 64.5977C52.2408 64.5977 49.0568 63.6318 46.3485 61.8222C43.6402 60.0126 41.5294 57.4405 40.2829 54.4312C39.0364 51.422 38.7103 48.1106 39.3457 44.916C39.9812 41.7214 41.5497 38.7869 43.8529 36.4837C46.1561 34.1806 49.0905 32.6121 52.2852 31.9766C55.4798 31.3412 58.7911 31.6673 61.8004 32.9138C64.8096 34.1603 67.3817 36.2711 69.1913 38.9794C71.0009 41.6876 71.9668 44.8717 71.9668 48.1289C71.9619 52.4952 70.2253 56.6813 67.1378 59.7687C64.0504 62.8561 59.8643 64.5928 55.4981 64.5977ZM55.4981 34.8477C52.8713 34.8477 50.3035 35.6266 48.1194 37.086C45.9353 38.5453 44.233 40.6196 43.2278 43.0464C42.2226 45.4732 41.9595 48.1436 42.472 50.72C42.9845 53.2963 44.2494 55.6628 46.1068 57.5202C47.9642 59.3776 50.3307 60.6425 52.907 61.155C55.4833 61.6674 58.1537 61.4044 60.5806 60.3992C63.0074 59.394 65.0816 57.6917 66.541 55.5076C68.0004 53.3235 68.7793 50.7557 68.7793 48.1289C68.7754 44.6077 67.3748 41.2319 64.885 38.742C62.3951 36.2521 59.0193 34.8516 55.4981 34.8477Z" fill="#6A0600"/>
<defs>
<linearGradient id="paint0_linear_9659_6925" x1="55" y1="0.00195312" x2="55" y2="110.002" gradientUnits="userSpaceOnUse">
<stop stop-color="#FFEBE0"/>
<stop offset="1" stop-color="#FFD0B6"/>
</linearGradient>
</defs>
</svg>
