<svg width="110" height="110" viewBox="0 0 110 110" fill="none" xmlns="http://www.w3.org/2000/svg">
<rect y="0.00195312" width="110" height="110" rx="55" fill="url(#paint0_linear_9659_6864)"/>
<path d="M55.7754 49.5059L60.9831 45.7725L65.7174 44.1133L78.5 44.5281L83.2343 45.7725L86.0749 47.4318L88.4421 50.7503V69.0022H55.7754V56.9725V49.5059Z" fill="white"/>
<path d="M22.332 49.5059L27.4158 45.7725L32.0373 44.1133L44.5156 44.5281L49.1372 45.7725L51.9101 47.4318L54.2209 50.7503V69.0022H22.332V56.9725V49.5059Z" fill="white"/>
<circle cx="55.002" cy="53.4453" r="7" fill="#FFA979"/>
<circle cx="72" cy="35.002" r="8" fill="#FFA979"/>
<circle cx="38" cy="35.002" r="8" fill="#FFA979"/>
<path d="M41.7793 64.7235L46.0571 61.2235L49.946 59.668L60.446 60.0569L64.3349 61.2235L66.6682 62.7791L68.6126 65.8902V83.0013H41.7793V71.7235V64.7235Z" fill="white"/>
<path d="M63.3318 60.0898C62.7671 60.8499 62.1018 61.5298 61.3541 62.1109H61.6992C63.2579 62.1126 64.7522 62.7326 65.8543 63.8347C66.9565 64.9368 67.5764 66.4311 67.5781 67.9898V81.7984H42.4219V67.9898C42.4236 66.4311 43.0436 64.9368 44.1457 63.8347C45.2478 62.7326 46.7421 62.1126 48.3008 62.1109H48.6459C47.8982 61.5298 47.2329 60.8499 46.6682 60.0898C44.8518 60.4678 43.2208 61.4594 42.0492 62.898C40.8776 64.3365 40.2368 66.1345 40.2344 67.9898V82.1949C40.2349 82.6697 40.4238 83.125 40.7596 83.4607C41.0953 83.7965 41.5505 83.9853 42.0253 83.9859H67.9747C68.4495 83.9853 68.9047 83.7965 69.2404 83.4607C69.5762 83.125 69.7651 82.6697 69.7656 82.1949V67.9898C69.7632 66.1345 69.1224 64.3365 67.9508 62.898C66.7792 61.4594 65.1482 60.4678 63.3318 60.0898Z" fill="#6A0600"/>
<path d="M46.7969 53.9082C46.7969 55.5306 47.278 57.1166 48.1793 58.4656C49.0807 59.8146 50.3619 60.866 51.8608 61.4869C53.3597 62.1078 55.0091 62.2702 56.6003 61.9537C58.1916 61.6372 59.6533 60.8559 60.8005 59.7087C61.9477 58.5615 62.729 57.0998 63.0455 55.5086C63.362 53.9173 63.1996 52.2679 62.5787 50.769C61.9578 49.2701 60.9064 47.9889 59.5574 47.0876C58.2084 46.1862 56.6224 45.7051 55 45.7051C52.8251 45.7075 50.7401 46.5726 49.2022 48.1104C47.6644 49.6483 46.7993 51.7334 46.7969 53.9082ZM55 47.8926C56.1898 47.8926 57.3528 48.2454 58.3421 48.9064C59.3314 49.5674 60.1024 50.5069 60.5577 51.6061C61.013 52.7053 61.1321 53.9149 60.9 55.0818C60.6679 56.2487 60.095 57.3206 59.2537 58.1619C58.4124 59.0032 57.3405 59.5761 56.1736 59.8082C55.0067 60.0404 53.7971 59.9212 52.6979 59.4659C51.5987 59.0106 50.6592 58.2396 49.9982 57.2503C49.3372 56.261 48.9844 55.098 48.9844 53.9082C48.9862 52.3133 49.6205 50.7843 50.7483 49.6565C51.8761 48.5287 53.4051 47.8944 55 47.8926ZM22.1875 55.5488C22.1904 52.939 23.2285 50.4369 25.0739 48.5915C26.9193 46.7461 29.4214 45.708 32.0312 45.7051H33.1874C32.0834 45.1869 31.0688 44.4966 30.1815 43.66C27.3468 44.105 24.764 45.5468 22.8976 47.7262C21.0311 49.9056 20.0037 52.6795 20 55.5488V68.6738C20.0007 69.2538 20.2313 69.8098 20.6414 70.2199C21.0515 70.63 21.6075 70.8607 22.1875 70.8613H38.0469V68.6738H22.1875V55.5488ZM42.9064 45.7051H44.0625C45.3412 45.7051 46.6075 45.9558 47.7898 46.4429C48.384 45.8704 49.0441 45.3703 49.7561 44.9531C48.5559 44.3073 47.2541 43.8715 45.907 43.6648C45.0209 44.4992 44.0081 45.1879 42.9064 45.7051ZM47.3438 35.3145C47.3438 33.4757 46.7985 31.6783 45.7769 30.1494C44.7554 28.6205 43.3034 27.4289 41.6046 26.7253C39.9059 26.0216 38.0366 25.8375 36.2331 26.1962C34.4297 26.5549 32.7732 27.4404 31.473 28.7406C30.1728 30.0408 29.2874 31.6973 28.9286 33.5007C28.5699 35.3041 28.754 37.1734 29.4577 38.8722C30.1613 40.571 31.3529 42.023 32.8818 43.0445C34.4107 44.0661 36.2081 44.6113 38.0469 44.6113C40.5117 44.6086 42.8748 43.6282 44.6177 41.8853C46.3606 40.1424 47.341 37.7793 47.3438 35.3145ZM38.0469 42.4238C36.6408 42.4238 35.2662 42.0069 34.0971 41.2257C32.928 40.4445 32.0168 39.3342 31.4787 38.0351C30.9406 36.736 30.7998 35.3066 31.0741 33.9275C31.3484 32.5484 32.0255 31.2816 33.0198 30.2874C34.0141 29.2931 35.2808 28.616 36.6599 28.3417C38.039 28.0674 39.4684 28.2082 40.7675 28.7463C42.0666 29.2843 43.1769 30.1956 43.9581 31.3647C44.7393 32.5338 45.1562 33.9084 45.1562 35.3145C45.1542 37.1993 44.4045 39.0064 43.0717 40.3392C41.7388 41.6721 39.9318 42.4217 38.0469 42.4238ZM65.9375 45.7051H67.0936C65.9918 45.1879 64.979 44.4992 64.093 43.6648C62.7459 43.8715 61.4441 44.3073 60.2439 44.9531C60.9559 45.3703 61.616 45.8704 62.2102 46.4429C63.3925 45.9558 64.6588 45.7051 65.9375 45.7051ZM79.8185 43.66C78.9312 44.4966 77.9166 45.1869 76.8126 45.7051H77.9688C80.5786 45.708 83.0807 46.7461 84.9261 48.5915C86.7715 50.4369 87.8096 52.939 87.8125 55.5488L87.8138 68.6738H71.9531V70.8613H87.8125C88.3925 70.8607 88.9485 70.63 89.3586 70.2199C89.7687 69.8098 89.9993 69.2538 90 68.6738V55.5488C89.9963 52.6795 88.9688 49.9056 87.1024 47.7262C85.236 45.5468 82.6532 44.105 79.8185 43.66ZM71.9531 44.6113C73.7919 44.6113 75.5893 44.0661 77.1182 43.0445C78.6471 42.023 79.8387 40.571 80.5423 38.8722C81.246 37.1734 81.4301 35.3041 81.0714 33.5007C80.7126 31.6973 79.8272 30.0408 78.527 28.7406C77.2268 27.4404 75.5703 26.5549 73.7669 26.1962C71.9634 25.8375 70.0941 26.0216 68.3954 26.7253C66.6966 27.4289 65.2446 28.6205 64.2231 30.1494C63.2015 31.6783 62.6562 33.4757 62.6562 35.3145C62.659 37.7793 63.6394 40.1424 65.3823 41.8853C67.1252 43.6282 69.4883 44.6086 71.9531 44.6113ZM71.9531 28.2051C73.3592 28.2051 74.7337 28.622 75.9029 29.4032C77.072 30.1844 77.9832 31.2947 78.5213 32.5938C79.0594 33.8929 79.2002 35.3223 78.9259 36.7014C78.6516 38.0805 77.9745 39.3473 76.9802 40.3415C75.986 41.3358 74.7192 42.0129 73.3401 42.2872C71.961 42.5615 70.5316 42.4208 69.2325 41.8827C67.9334 41.3446 66.8231 40.4333 66.0419 39.2642C65.2607 38.0951 64.8438 36.7206 64.8438 35.3145C64.8458 33.4296 65.5955 31.6225 66.9283 30.2897C68.2612 28.9569 70.0682 28.2072 71.9531 28.2051Z" fill="#6A0600"/>
<defs>
<linearGradient id="paint0_linear_9659_6864" x1="55" y1="0.00195312" x2="55" y2="110.002" gradientUnits="userSpaceOnUse">
<stop stop-color="#FFEBE0"/>
<stop offset="1" stop-color="#FFD0B6"/>
</linearGradient>
</defs>
</svg>
