<svg width="116" height="116" viewBox="0 0 116 116" fill="none" xmlns="http://www.w3.org/2000/svg">
<rect width="116" height="116" rx="58" fill="url(#paint0_linear_6278_4900)"/>
<circle cx="80.9364" cy="62.9306" r="17.9384" fill="white"/>
<path d="M61.75 62.9671V62.9674C61.75 66.7683 62.8771 70.4838 64.9887 73.6441C67.1004 76.8043 70.1017 79.2675 73.6132 80.722C77.1248 82.1765 80.9887 82.5571 84.7166 81.8156C88.4444 81.0741 91.8686 79.2438 94.5562 76.5562C97.2438 73.8686 99.0741 70.4444 99.8156 66.7166C100.557 62.9887 100.177 59.1248 98.722 55.6132C97.2675 52.1017 94.8043 49.1004 91.6441 46.9887C88.4838 44.8771 84.7683 43.75 80.9674 43.75L80.9671 43.75C75.8722 43.7557 70.9876 45.7822 67.3849 49.3849C63.7822 52.9876 61.7557 57.8722 61.75 62.9671ZM80.9675 46.866C84.152 46.866 87.265 47.8104 89.9129 49.5796C92.5608 51.3488 94.6245 53.8635 95.8432 56.8057C97.0619 59.7478 97.3807 62.9853 96.7595 66.1087C96.1382 69.232 94.6047 72.101 92.3528 74.3528C90.101 76.6047 87.232 78.1382 84.1087 78.7595C80.9853 79.3807 77.7478 79.0619 74.8057 77.8432C71.8635 76.6245 69.3488 74.5608 67.5796 71.9129C65.8104 69.265 64.866 66.152 64.866 62.9675C64.8709 58.6986 66.5689 54.606 69.5874 51.5874C72.606 48.5689 76.6986 46.8709 80.9675 46.866Z" fill="#6A0600" stroke="#6A0600" stroke-width="0.5"/>
<path d="M72.9554 57.8227H81.0556V59.8796H75.411V62.3512H79.6365V64.2965H75.411V68.9844H72.9554V57.8227ZM84.9832 69.096C84.1647 69.096 83.4525 68.9259 82.8466 68.5857C82.2406 68.2349 81.7676 67.746 81.4274 67.1188C81.0979 66.4916 80.9331 65.7581 80.9331 64.9183C80.9331 64.1423 81.0979 63.4514 81.4274 62.8455C81.757 62.2395 82.2194 61.7665 82.8147 61.4263C83.41 61.0755 84.085 60.9001 84.8397 60.9001C85.637 60.9001 86.3279 61.0649 86.9126 61.3944C87.4973 61.7133 87.9544 62.1704 88.2839 62.7657C88.6134 63.361 88.7782 64.052 88.7782 64.8386C88.7782 64.9662 88.7729 65.0991 88.7622 65.2372C88.7516 65.3754 88.7357 65.5296 88.7144 65.6997H83.4206C83.4737 65.9867 83.5747 66.2365 83.7235 66.4491C83.8724 66.6511 84.0584 66.8105 84.2816 66.9274C84.5155 67.0337 84.7812 67.0869 85.0789 67.0869C85.4084 67.0869 85.7061 67.0178 85.9718 66.8796C86.2376 66.7414 86.4342 66.5448 86.5618 66.2896L88.6506 66.8637C88.3317 67.5759 87.8534 68.1286 87.2156 68.522C86.5777 68.9046 85.8336 69.096 84.9832 69.096ZM86.2429 64.1849C86.2323 63.9191 86.1632 63.6852 86.0356 63.4833C85.908 63.2813 85.7433 63.1218 85.5413 63.0049C85.3393 62.888 85.1161 62.8348 84.8716 62.8455C84.6271 62.8561 84.4039 62.9199 84.2019 63.0368C84.0106 63.1431 83.8458 63.2972 83.7076 63.4992C83.5694 63.6906 83.4844 63.9191 83.4525 64.1849H86.2429Z" fill="#6A0600"/>
<circle cx="50.9286" cy="46.1357" r="21.7216" fill="#FFA979"/>
<path d="M28 44.9677C28 49.5102 29.347 53.9508 31.8707 57.7278C34.3945 61.5048 37.9815 64.4486 42.1783 66.187C46.3751 67.9254 50.9931 68.3802 55.4484 67.494C59.9037 66.6078 63.9962 64.4203 67.2082 61.2082C70.4203 57.9962 72.6078 53.9037 73.494 49.4484C74.3802 44.9931 73.9254 40.3751 72.187 36.1783C70.4486 31.9815 67.5048 28.3945 63.7278 25.8707C59.9508 23.347 55.5102 22 50.9677 22C44.8784 22.0069 39.0404 24.4289 34.7347 28.7347C30.4289 33.0404 28.0069 38.8784 28 44.9677ZM50.9677 25.1677C54.8837 25.1677 58.7118 26.329 61.9679 28.5046C65.224 30.6803 67.7618 33.7726 69.2604 37.3906C70.759 41.0085 71.1511 44.9896 70.3871 48.8304C69.6231 52.6712 67.7374 56.1993 64.9683 58.9683C62.1993 61.7374 58.6712 63.6231 54.8304 64.3871C50.9896 65.1511 47.0085 64.759 43.3906 63.2604C39.7726 61.7618 36.6803 59.224 34.5046 55.9679C32.329 52.7118 31.1677 48.8837 31.1677 44.9677C31.1737 39.7182 33.2616 34.6855 36.9735 30.9735C40.6855 27.2616 45.7182 25.1737 50.9677 25.1677Z" fill="#6A0600"/>
<path d="M47.9941 42.2899C47.9941 41.7879 47.8332 41.4146 47.5114 41.1701C47.1896 40.9255 46.7326 40.8032 46.1405 40.8032H43.0319V43.7766H46.1212C46.7133 43.7766 47.1702 43.6544 47.492 43.4098C47.8267 43.1652 47.9941 42.7919 47.9941 42.2899ZM40.0584 51.8281V38.3125H46.6618C47.6015 38.3125 48.3931 38.4669 49.0367 38.7759C49.6803 39.0719 50.1694 39.4903 50.5041 40.0309C50.8517 40.5586 51.0254 41.1701 51.0254 41.8651C51.0254 42.4701 50.9096 42.9786 50.6779 43.3905C50.4591 43.7895 50.1501 44.1113 49.7511 44.3559C49.3649 44.5876 48.9208 44.7485 48.4188 44.8386V44.9931C49.0238 45.0703 49.5451 45.2376 49.9828 45.4951C50.4204 45.7525 50.7551 46.1065 50.9868 46.557C51.2185 46.9947 51.3344 47.5289 51.3344 48.1596C51.3344 48.8804 51.1606 49.5176 50.813 50.0711C50.4655 50.6246 49.9635 51.0558 49.307 51.3647C48.6505 51.6737 47.846 51.8281 46.8935 51.8281H40.0584ZM43.0319 49.3374H46.4108C47.0158 49.3374 47.4856 49.2022 47.8203 48.9319C48.1678 48.6616 48.3416 48.269 48.3416 47.7541C48.3416 47.2135 48.1614 46.8145 47.801 46.557C47.4406 46.2867 46.9579 46.1515 46.3529 46.1515H43.0319V49.3374ZM62.1377 38.3125V40.8032H56.2487V43.6608C56.5062 43.3647 56.828 43.133 57.2141 42.9657C57.6003 42.7855 58.083 42.6954 58.6622 42.6954C59.4474 42.6954 60.1103 42.8306 60.651 43.1009C61.2045 43.3583 61.655 43.7059 62.0025 44.1435C62.363 44.5812 62.6268 45.0639 62.7942 45.5916C62.9615 46.1194 63.0452 46.6407 63.0452 47.1556C63.0452 48.1338 62.8457 48.9834 62.4466 49.7042C62.0476 50.4251 61.4812 50.985 60.7475 51.384C60.0138 51.7702 59.1385 51.9633 58.1216 51.9633C57.0918 51.9633 56.2101 51.7895 55.4764 51.442C54.7427 51.0815 54.1699 50.5988 53.758 49.9939C53.3589 49.376 53.1272 48.6745 53.0629 47.8893H55.9977C56.0878 48.3012 56.3002 48.6616 56.6349 48.9705C56.9824 49.2666 57.4587 49.4146 58.0637 49.4146C58.5142 49.4146 58.8811 49.3245 59.1642 49.1443C59.4474 48.9641 59.6598 48.7066 59.8014 48.372C59.943 48.0373 60.0138 47.6383 60.0138 47.1749C60.0138 46.4927 59.84 45.9778 59.4925 45.6302C59.1578 45.2827 58.6687 45.1089 58.0251 45.1089C57.5359 45.1089 57.1305 45.2441 56.8087 45.5144C56.4869 45.7718 56.2745 46.0807 56.1715 46.4412H53.256V38.3125H62.1377Z" fill="#6A0600"/>
<circle cx="52.0156" cy="84.543" r="9.48827" fill="#FFA979"/>
<path d="M41.75 84.0323V84.0326C41.75 86.0663 42.3531 88.0543 43.4829 89.7453C44.6128 91.4362 46.2187 92.7542 48.0976 93.5324C49.9765 94.3107 52.044 94.5143 54.0386 94.1176C56.0332 93.7208 57.8654 92.7415 59.3034 91.3034C60.7415 89.8654 61.7208 88.0332 62.1176 86.0386C62.5143 84.044 62.3107 81.9765 61.5324 80.0976C60.7542 78.2187 59.4362 76.6128 57.7453 75.4829C56.0543 74.3531 54.0663 73.75 52.0326 73.75L52.0323 73.75C49.3062 73.7531 46.6926 74.8374 44.765 76.765C42.8374 78.6926 41.7531 81.3062 41.75 84.0323ZM52.0327 75.6337C53.6938 75.6337 55.3176 76.1263 56.6987 77.0492C58.0799 77.972 59.1564 79.2838 59.7921 80.8185C60.4278 82.3532 60.5941 84.0419 60.27 85.6711C59.946 87.3003 59.1461 88.7969 57.9715 89.9715C56.7969 91.1461 55.3003 91.946 53.6711 92.27C52.0419 92.5941 50.3532 92.4278 48.8185 91.7921C47.2838 91.1564 45.972 90.0799 45.0492 88.6987C44.1263 87.3176 43.6337 85.6938 43.6337 84.0327C43.6362 81.806 44.522 79.6711 46.0965 78.0965C47.6711 76.522 49.806 75.6362 52.0327 75.6337Z" fill="#6A0600" stroke="#6A0600" stroke-width="0.5"/>
<path d="M49.113 84.1575C49.113 83.7189 49.1861 83.3169 49.3323 82.9514C49.4841 82.5803 49.6922 82.2598 49.9564 81.9899C50.2207 81.72 50.5356 81.512 50.901 81.3658C51.2665 81.2196 51.6629 81.1465 52.0902 81.1465C52.7256 81.1465 53.2794 81.3011 53.7517 81.6104C54.224 81.9196 54.567 82.3526 54.7807 82.9092L53.6674 83.1876C53.5606 82.9626 53.4256 82.7827 53.2626 82.6478C53.0995 82.5072 52.9196 82.406 52.7228 82.3442C52.526 82.2767 52.3179 82.2429 52.0987 82.2429C51.7613 82.2429 51.4661 82.3273 51.2131 82.496C50.9601 82.659 50.7633 82.8839 50.6227 83.1707C50.4878 83.4574 50.4203 83.7864 50.4203 84.1575C50.4203 84.5342 50.4878 84.8659 50.6227 85.1527C50.7633 85.4394 50.9601 85.6643 51.2131 85.8274C51.4661 85.9905 51.7613 86.072 52.0987 86.072C52.3236 86.072 52.5372 86.0383 52.7396 85.9708C52.9477 85.9033 53.136 85.7909 53.3047 85.6334C53.479 85.476 53.6252 85.2651 53.7433 85.0009L54.8397 85.2539C54.6148 85.878 54.2634 86.3531 53.7855 86.6792C53.3075 87.0054 52.7425 87.1684 52.0902 87.1684C51.6629 87.1684 51.2665 87.0953 50.901 86.9491C50.5356 86.8029 50.2207 86.5977 49.9564 86.3334C49.6922 86.0636 49.4841 85.7459 49.3323 85.3804C49.1861 85.0093 49.113 84.6017 49.113 84.1575Z" fill="#6A0600"/>
<defs>
<linearGradient id="paint0_linear_6278_4900" x1="58" y1="0" x2="58" y2="116" gradientUnits="userSpaceOnUse">
<stop stop-color="#FFEBE0"/>
<stop offset="1" stop-color="#FFD0B6"/>
</linearGradient>
</defs>
</svg>
