<svg width="116" height="116" viewBox="0 0 116 116" fill="none" xmlns="http://www.w3.org/2000/svg">
<rect width="116" height="116" rx="58" fill="url(#paint0_linear_6278_4886)"/>
<circle cx="61.5" cy="43" r="18" fill="#FFA979"/>
<path d="M37.5 61.5L27 61V84H37L37.5 61.5Z" fill="white"/>
<path d="M42.2871 42.4701C42.2871 46.2344 43.4033 49.9141 45.4947 53.044C47.586 56.1739 50.5585 58.6133 54.0362 60.0539C57.514 61.4944 61.3408 61.8713 65.0327 61.1369C68.7247 60.4025 72.116 58.5899 74.7777 55.9281C77.4395 53.2664 79.2522 49.8751 79.9865 46.1831C80.7209 42.4912 80.344 38.6644 78.9035 35.1866C77.4629 31.7089 75.0235 28.7364 71.8936 26.6451C68.7637 24.5537 65.084 23.4375 61.3197 23.4375C56.2737 23.4432 51.436 25.4502 47.8679 29.0183C44.2998 32.5864 42.2928 37.4241 42.2871 42.4701ZM61.3197 26.0625C64.5648 26.0625 67.737 27.0248 70.4352 28.8277C73.1334 30.6306 75.2364 33.1931 76.4783 36.1912C77.7201 39.1893 78.0451 42.4883 77.412 45.671C76.7789 48.8538 75.2162 51.7773 72.9216 54.072C70.6269 56.3666 67.7034 57.9293 64.5206 58.5624C61.3379 59.1954 58.0389 58.8705 55.0408 57.6287C52.0427 56.3868 49.4802 54.2838 47.6773 51.5856C45.8744 48.8874 44.9121 45.7152 44.9121 42.4701C44.917 38.12 46.6472 33.9495 49.7232 30.8736C52.7991 27.7976 56.9696 26.0674 61.3197 26.0625Z" fill="#6A0600"/>
<path d="M54.0385 38.4531C54.0385 38.8012 54.1768 39.1351 54.4229 39.3812C54.6691 39.6273 55.0029 39.7656 55.351 39.7656H62.342C62.0742 40.4955 61.5863 41.1243 60.9459 41.5651C60.3054 42.0059 59.5439 42.237 58.7664 42.2266H55.351C55.0889 42.2241 54.8322 42.3009 54.6144 42.4467C54.3967 42.5926 54.228 42.8008 54.1305 43.0441C54.033 43.2873 54.0112 43.5544 54.068 43.8103C54.1248 44.0661 54.2574 44.2989 54.4486 44.4782L62.9855 52.5426C63.2374 52.7818 63.574 52.9111 63.9212 52.9021C64.2685 52.8931 64.5979 52.7465 64.8371 52.4946C65.0762 52.2427 65.2055 51.9061 65.1965 51.5588C65.1875 51.2116 65.0409 50.8821 64.789 50.643L58.6509 44.8516H58.7658C61.8636 44.8516 64.4568 42.5547 65.0645 39.7656H67.2865C67.6346 39.7656 67.9685 39.6273 68.2146 39.3812C68.4608 39.1351 68.599 38.8012 68.599 38.4531C68.599 38.105 68.4608 37.7712 68.2146 37.525C67.9685 37.2789 67.6346 37.1406 67.2865 37.1406H65.0651C64.8729 36.1994 64.4928 35.3066 63.9475 34.5156H67.2872C67.6353 34.5156 67.9691 34.3773 68.2153 34.1312C68.4614 33.8851 68.5997 33.5512 68.5997 33.2031C68.5997 32.855 68.4614 32.5212 68.2153 32.275C67.9691 32.0289 67.6353 31.8906 67.2872 31.8906H55.351C55.0029 31.8906 54.6691 32.0289 54.4229 32.275C54.1768 32.5212 54.0385 32.855 54.0385 33.2031C54.0385 33.5512 54.1768 33.8851 54.4229 34.1312C54.6691 34.3773 55.0029 34.5156 55.351 34.5156H58.7664C60.4056 34.5156 61.806 35.6641 62.342 37.1406H55.351C55.0029 37.1406 54.6691 37.2789 54.4229 37.525C54.1768 37.7712 54.0385 38.105 54.0385 38.4531Z" fill="#6A0600"/>
<path d="M47 62.5L38.5 65L37 67V81.5L42.5 79.5L54.5 82.5L62.5 84H70L94.5 68L90.5 65L82 69L76 72L72 67H69L60.5 66L54.5 65L47 62.5Z" fill="white"/>
<path d="M86.823 64.6585L76.5463 69.5148C76.1954 68.8644 75.7604 68.2631 75.2525 67.7265C74.4986 66.9255 73.5934 66.2821 72.5893 65.8334C71.5851 65.3846 70.5019 65.1396 69.4023 65.1123L59.911 64.8506C58.4077 64.8074 56.9333 64.4265 55.5971 63.7363L54.6314 63.2363C52.195 61.9663 49.4875 61.3045 46.74 61.3074C43.9924 61.3102 41.2864 61.9776 38.8526 63.2527L38.9128 61.0646C38.9224 60.7166 38.7933 60.3791 38.5541 60.1263C38.3148 59.8735 37.985 59.7261 37.637 59.7165L27.2291 59.43C26.8814 59.4224 26.5447 59.5512 26.2908 59.7888C26.1655 59.9073 26.0648 60.0493 25.9945 60.2066C25.9241 60.364 25.8854 60.5337 25.8806 60.7061L25.2524 83.5456C25.2429 83.8935 25.372 84.231 25.6113 84.4838C25.8505 84.7365 26.1804 84.8839 26.5284 84.8935L36.9362 85.1799H36.9729C37.3146 85.1798 37.6428 85.0463 37.8877 84.808C38.1326 84.5696 38.2749 84.2451 38.2843 83.9035L38.3143 82.8109L41.0182 81.363C42.0792 80.7921 43.3206 80.6562 44.4799 80.984L60.6255 85.5161C60.6537 85.5241 60.6821 85.531 60.7108 85.5371C61.8778 85.7811 63.067 85.9037 64.2593 85.9031C66.7844 85.9047 69.28 85.3602 71.575 84.307C71.6314 84.2809 71.6858 84.2509 71.7379 84.2171L95.1478 69.0741C95.4287 68.8924 95.6297 68.6104 95.7096 68.2855C95.7895 67.9607 95.7424 67.6176 95.5778 67.3263C94.7412 65.8416 93.3649 64.7361 91.7346 64.2393C90.1044 63.7425 88.3454 63.8927 86.823 64.6585ZM27.9126 82.3056L28.4689 62.0901L36.2527 62.3045L35.6963 82.5202L27.9126 82.3056ZM70.3928 81.9624C67.5413 83.2487 64.357 83.604 61.2921 82.9777L45.1898 78.4578C43.3779 77.9458 41.4379 78.1581 39.7795 79.0497L38.3981 79.7895L38.7679 66.3484C40.9176 64.9187 43.4115 64.092 45.9895 63.9546C48.5675 63.8172 51.1351 64.3741 53.4246 65.5671L54.3901 66.0673C56.0781 66.9389 57.9404 67.4199 59.8393 67.4748L69.3305 67.7358C70.626 67.7721 71.8714 68.2448 72.8648 69.0773C73.8582 69.9097 74.5414 71.0533 74.8037 72.3225L60.6639 71.9327C60.3158 71.9231 59.9781 72.0522 59.7252 72.2916C59.4723 72.5309 59.3248 72.8609 59.3152 73.209C59.3056 73.5571 59.4347 73.8948 59.674 74.1477C59.9134 74.4006 60.2434 74.5481 60.5915 74.5577L76.1939 74.9871H76.2306C76.5723 74.9869 76.9005 74.8535 77.1454 74.6151C77.3903 74.3767 77.5326 74.0523 77.542 73.7107C77.5576 73.1401 77.5154 72.5693 77.4161 72.0072L87.9604 67.0253L87.9913 67.0104C88.7215 66.6405 89.5475 66.503 90.3582 66.6166C91.1689 66.7301 91.9254 67.0892 92.5259 67.6454L70.3928 81.9624Z" fill="#6A0600"/>
<defs>
<linearGradient id="paint0_linear_6278_4886" x1="58" y1="0" x2="58" y2="116" gradientUnits="userSpaceOnUse">
<stop stop-color="#FFEBE0"/>
<stop offset="1" stop-color="#FFD0B6"/>
</linearGradient>
</defs>
</svg>
