<svg width="116" height="116" viewBox="0 0 116 116" fill="none" xmlns="http://www.w3.org/2000/svg">
<rect width="116" height="116" rx="58" fill="url(#paint0_linear_6278_4858)"/>
<mask id="path-2-inside-1_6278_4858" fill="white">
<path d="M33.6191 47.6902C33.6191 46.61 34.4948 45.7344 35.575 45.7344H74.9378V69.7073C74.9378 70.7874 74.0621 71.6631 72.982 71.6631H35.575C34.4948 71.6631 33.6191 70.7874 33.6191 69.7073V47.6902Z"/>
</mask>
<path d="M33.6191 47.6902C33.6191 46.61 34.4948 45.7344 35.575 45.7344H74.9378V69.7073C74.9378 70.7874 74.0621 71.6631 72.982 71.6631H35.575C34.4948 71.6631 33.6191 70.7874 33.6191 69.7073V47.6902Z" fill="white" stroke="#6A0600" stroke-width="4" mask="url(#path-2-inside-1_6278_4858)"/>
<rect x="37.7946" y="72.1266" width="3.76384" height="1.58918" fill="white" stroke="#6A0600" stroke-width="1.58918"/>
<rect x="68.331" y="71.583" width="4.85118" height="2.67651" fill="#FF8E4F" stroke="#6A0600" stroke-width="0.501846"/>
<rect x="50" y="40" width="24" height="7" fill="white" stroke="#6A0600" stroke-width="2"/>
<mask id="path-6-inside-2_6278_4858" fill="white">
<rect x="41" y="25" width="42" height="8" rx="0.669128"/>
</mask>
<rect x="41" y="25" width="42" height="8" rx="0.669128" fill="white" stroke="#6A0600" stroke-width="4" mask="url(#path-6-inside-2_6278_4858)"/>
<path d="M49.5194 39.8696L43.1052 32H80.8826L74.4683 39.8696H49.5194Z" fill="white" stroke="#6A0600" stroke-width="2"/>
<path d="M19.5457 64.8178C23.1343 62.8378 27.066 61.1194 30.1109 59.8932C31.631 59.281 32.9252 58.7934 33.8383 58.4592C33.8777 58.4448 33.9165 58.4307 33.9545 58.4168L33.9544 64.8085L18.0528 70.059C18.0092 69.5675 17.982 68.9656 18.014 68.3371C18.0963 66.7223 18.5413 65.3719 19.5457 64.8178Z" fill="white" stroke="#6A0600" stroke-width="2"/>
<path d="M41.9021 85.2621L45.3633 83.5621L48.0024 84.8742L47.7268 88.9989L44.3915 90.3303C42.9726 90.8777 42.7296 90.1748 42.4853 89.8856L41.1511 87.1693C40.6697 85.5645 41.6137 85.4038 41.9021 85.2621Z" fill="#FFA979" stroke="#6A0600" stroke-width="2" stroke-linecap="round"/>
<path d="M93.0469 55.9997C90.0906 55.9787 75.5922 62.3227 68.7125 65.4972L66.7347 66.4687L62.1458 70.8708L52.6512 80.9046L52.7574 83.3075L60.9591 81.8873L81.9188 79.2641L98.4376 68.8489C105.521 63.5282 105.3 59.3918 104.304 57.9887C102.653 54.6264 96.1111 55.2617 93.0469 55.9997Z" fill="#FFA979" stroke="#6A0600" stroke-width="2" stroke-linecap="round"/>
<path d="M97.6699 55.418L102.406 65.0598" stroke="#6A0600" stroke-width="2" stroke-linecap="round"/>
<path d="M90.8867 56.6016L97.2012 69.4573" stroke="#6A0600" stroke-width="2" stroke-linecap="round"/>
<path d="M84.8359 58.6523L91.7576 72.7442" stroke="#6A0600" stroke-width="2" stroke-linecap="round"/>
<path d="M78.7812 61.3203L86.1886 76.4011" stroke="#6A0600" stroke-width="2" stroke-linecap="round"/>
<path d="M72.9727 63.8633L80.6229 79.4385" stroke="#6A0600" stroke-width="2" stroke-linecap="round"/>
<path d="M66.918 66.5312L74.6897 82.3537" stroke="#6A0600" stroke-width="2" stroke-linecap="round"/>
<path d="M61.2324 69.3242L67.9112 82.9217" stroke="#6A0600" stroke-width="2" stroke-linecap="round"/>
<path d="M104.181 57.7429C101.758 57.8079 94.4647 59.14 84.6746 63.9488L60.57 75.7885" stroke="#6A0600" stroke-width="2" stroke-linecap="round"/>
<path d="M104.668 58.7297C103.136 60.6077 97.6229 65.5658 87.8328 70.3745L63.7282 82.2142" stroke="#6A0600" stroke-width="2" stroke-linecap="round"/>
<path d="M88.803 81.0996C91.7627 80.6278 90.2878 80.1657 89.1804 79.9936C76.6789 77.9289 61.1264 80.6536 52.8086 82.7899L55.5452 80.8641C61.9835 76.2287 66.508 69.342 67.9654 66.478C71.3105 60.2933 66.6993 56.8198 63.9756 55.8561C59.0589 54.3431 59.6673 55.415 60.586 56.14C63.6324 57.3442 65.2773 60.4847 65.7189 61.9044C66.8829 64.5241 56.1326 70.3977 50.6119 73.007C42.9037 76.0567 44.7093 83.1689 46.5756 86.3438C49.3199 95.4296 57.0802 93.3607 60.7076 91.3744C67.7536 87.9135 82.7359 82.5964 88.803 81.0996Z" fill="#FFA979"/>
<path d="M50.7865 83.3588C51.5672 83.1255 51.7939 83.0505 52.8086 82.7899M52.8086 82.7899C61.1264 80.6536 76.6789 77.9289 89.1804 79.9936C90.2878 80.1657 91.7627 80.6278 88.803 81.0996C82.7359 82.5964 67.7536 87.9135 60.7076 91.3744C57.0802 93.3607 49.3199 95.4296 46.5756 86.3438C44.7093 83.1689 42.9037 76.0567 50.6119 73.007C56.1326 70.3977 66.8829 64.5241 65.7189 61.9044C65.2773 60.4847 63.6324 57.3442 60.586 56.14C59.6673 55.415 59.0589 54.3431 63.9756 55.8561C66.6993 56.8198 71.3105 60.2933 67.9654 66.478C66.508 69.342 61.9835 76.2287 55.5452 80.8641L52.8086 82.7899Z" stroke="#6A0600" stroke-width="2" stroke-linecap="round"/>
<defs>
<linearGradient id="paint0_linear_6278_4858" x1="58" y1="0" x2="58" y2="116" gradientUnits="userSpaceOnUse">
<stop stop-color="#FFEBE0"/>
<stop offset="1" stop-color="#FFD0B6"/>
</linearGradient>
</defs>
</svg>
