<svg width="281" height="388" viewBox="0 0 281 388" fill="none" xmlns="http://www.w3.org/2000/svg">
<path d="M260.524 12.5541C275.791 35.1892 274.164 61.0777 256.842 70.3397C239.537 79.6132 213.148 68.7634 197.85 46.1135C182.578 23.4619 184.21 -2.40675 201.51 -11.6853C218.832 -20.9622 245.211 -10.0975 260.524 12.5541Z" fill="url(#paint0_linear_9231_23494)" fill-opacity="0.16"/>
<path d="M423.495 158.762C447.983 73.7701 461.711 -9.88898 293.391 16.8472C385.149 -14.4008 502.476 -1.54261 487.738 111.467C471.221 263.096 223.415 439.554 78.0769 397.767C-17.7607 383.195 -57.013 222.677 148.722 84.8534C50.1439 176.097 8.46614 345.829 145.798 377.549C233.109 361.961 315.56 164.353 119.49 39.0286C199.517 81.845 329.321 106.962 383.967 86.3236C373.634 114.343 317.404 133.761 287.533 126.241C336.673 233.32 276.688 351.906 182.314 376.079C259.684 374.152 368.711 298.125 423.495 158.762Z" fill="url(#paint1_linear_9231_23494)" fill-opacity="0.16"/>
<defs>
<linearGradient id="paint0_linear_9231_23494" x1="244.5" y1="-15" x2="244.5" y2="404" gradientUnits="userSpaceOnUse">
<stop stop-color="#EC691F"/>
<stop offset="1" stop-color="#EC691F" stop-opacity="0"/>
</linearGradient>
<linearGradient id="paint1_linear_9231_23494" x1="244.5" y1="-15" x2="244.5" y2="404" gradientUnits="userSpaceOnUse">
<stop stop-color="#EC691F"/>
<stop offset="1" stop-color="#EC691F" stop-opacity="0"/>
</linearGradient>
</defs>
</svg>
