<svg width="110" height="110" viewBox="0 0 110 110" fill="none" xmlns="http://www.w3.org/2000/svg">
<rect width="110" height="110" rx="55" fill="url(#paint0_linear_9132_8806)"/>
<rect x="33.6047" y="40.425" width="43.3139" height="7.22237" rx="0.804067" fill="#FFA979" stroke="#6A0600" stroke-width="1.6"/>
<path d="M33.8535 71.3084C32.8911 62.6465 35.3239 51.926 36.6607 47.6484H72.7533C76.6031 51.4982 76.4962 65.0258 75.9615 71.3084C79.4904 74.1958 78.2339 77.3237 77.1645 78.5267C74.9188 80.7724 72.2186 78.9277 71.1493 77.7247C60.8832 80.9328 45.4842 79.0614 39.0679 77.7247C35.8598 80.612 33.4527 79.4624 32.6502 78.5267C31.0461 76.6019 32.7841 72.9125 33.8535 71.3084Z" fill="#FFA979" stroke="#6A0600" stroke-width="1.6"/>
<path d="M48.843 33.6153C39.5394 30.4071 36.9462 36.8234 36.8125 40.4325H72.904C72.5832 33.0537 66.0867 32.2781 62.8786 32.8126C57.7456 27.3588 51.3828 31.0753 48.843 33.6153Z" fill="white" stroke="#6A0600" stroke-width="1.6"/>
<path d="M65.6868 36.0557L67.0368 36.6542" stroke="#6A0600" stroke-width="1.28325" stroke-linecap="round"/>
<path d="M59.2175 38.0874L60.6716 37.8299" stroke="#6A0600" stroke-width="1.28325" stroke-linecap="round"/>
<path d="M54.4555 33.6673L55.9062 33.9437" stroke="#6A0600" stroke-width="1.28325" stroke-linecap="round"/>
<path d="M48.8382 37.213L50.3053 37.0441" stroke="#6A0600" stroke-width="1.28325" stroke-linecap="round"/>
<path d="M40.9498 38.2673L42.1581 37.4183" stroke="#6A0600" stroke-width="1.28325" stroke-linecap="round"/>
<circle cx="54.8616" cy="63.1194" r="8.35145" fill="white" stroke="#6A0600" stroke-width="1.5359"/>
<path d="M55.0656 62.5763C55.357 62.5763 55.5512 62.3712 55.5512 62.0636V61.5509C55.5512 61.2432 55.357 61.0382 55.0656 61.0382C54.7742 61.0382 54.58 61.2432 54.58 61.5509V62.0636C54.58 62.3712 54.8228 62.5763 55.0656 62.5763Z" fill="#6A0600"/>
<path d="M55.5512 64.6271C55.5512 64.9347 55.357 65.1398 55.0656 65.1398C54.8228 65.1398 54.58 64.9347 54.58 64.6271V64.1144C54.58 63.8067 54.7742 63.6017 55.0656 63.6017C55.357 63.6017 55.5512 63.8067 55.5512 64.1144V64.6271Z" fill="#6A0600"/>
<path fill-rule="evenodd" clip-rule="evenodd" d="M59.0477 63.1398C58.5135 63.0373 57.9794 63.0886 57.4937 63.2424V62.5759C57.4937 60.1963 55.5868 58.296 55.4167 58.1266C55.411 58.1209 55.4071 58.117 55.4055 58.1154C55.2113 57.9615 54.9199 57.9615 54.7742 58.1154C54.6771 58.1666 52.6375 60.1149 52.6375 62.5759C52.6375 62.7809 52.6375 62.986 52.6861 63.2424C52.1519 63.0886 51.6177 63.0373 51.0835 63.1398C50.8407 63.1911 50.6464 63.4475 50.695 63.7038C50.9864 65.7546 52.6375 67.2415 54.58 67.2415V67.7029C54.58 68.0105 54.7742 68.2156 55.0656 68.2156C55.357 68.2156 55.5512 68.0105 55.5512 67.7029V67.2415C57.4452 67.2415 59.1448 65.7546 59.4362 63.7038C59.4848 63.4475 59.2905 63.1911 59.0477 63.1398ZM55.0656 59.192C55.5998 59.8073 56.5225 61.089 56.5225 62.5759C56.5225 64.5754 55.794 66.1648 55.0656 66.1648C54.3372 66.1648 53.6087 64.5754 53.6087 62.5759C53.6087 61.089 54.5314 59.8073 55.0656 59.192ZM51.7634 64.114C52.1033 64.114 52.4918 64.2165 52.7832 64.3703C52.9289 64.9856 53.1231 65.6008 53.3659 65.9597C52.6375 65.6008 52.0547 64.9343 51.7634 64.114ZM56.7653 65.9597C56.9595 65.5495 57.2024 64.9856 57.348 64.3703C57.688 64.2165 58.0279 64.1652 58.3679 64.114C58.0765 64.9343 57.4937 65.6008 56.7653 65.9597Z" fill="#6A0600"/>
<defs>
<linearGradient id="paint0_linear_9132_8806" x1="55" y1="0" x2="55" y2="110" gradientUnits="userSpaceOnUse">
<stop stop-color="#FFEBE0"/>
<stop offset="1" stop-color="#FFD0B6"/>
</linearGradient>
</defs>
</svg>
