<svg width="427" height="378" viewBox="0 0 427 378" fill="none" xmlns="http://www.w3.org/2000/svg">
<circle cx="219.529" cy="189.009" r="154.725" fill="#FFF9EF" stroke="#FFF9EF" stroke-width="1.00471"/>
<circle cx="219.532" cy="189" r="187.881" stroke="#822F00" stroke-width="1.00471" stroke-linecap="round" stroke-dasharray="4.02 6.03"/>
<rect x="125.258" y="93.7269" width="189.551" height="189.551" rx="94.7754" fill="white"/>
<rect x="125.258" y="93.7269" width="189.551" height="189.551" rx="94.7754" stroke="#6A0600" stroke-width="1.34433"/>
<g clip-path="url(#clip0_10080_89472)">
<path d="M181.348 154.547H258.719C262.365 154.547 265.324 157.506 265.324 161.152V213.99C265.324 215.742 264.628 217.422 263.389 218.661C262.151 219.899 260.471 220.595 258.719 220.595H181.348C179.596 220.595 177.916 219.899 176.678 218.661C175.439 217.422 174.743 215.742 174.743 213.99V161.152C174.743 157.506 177.702 154.547 181.348 154.547ZM180.404 171.199V213.99C180.404 214.511 180.827 214.934 181.348 214.934H258.719C258.969 214.934 259.209 214.835 259.386 214.658C259.563 214.481 259.662 214.241 259.662 213.99V171.199L223.732 195.478C221.498 196.988 218.569 196.988 216.335 195.478L180.404 171.199ZM180.404 161.152V164.367L219.505 190.787C219.661 190.892 219.845 190.948 220.033 190.948C220.222 190.948 220.406 190.892 220.562 190.787L259.662 164.367V161.152C259.662 160.901 259.563 160.661 259.386 160.485C259.209 160.308 258.969 160.208 258.719 160.208H181.348C181.098 160.208 180.858 160.308 180.681 160.485C180.504 160.661 180.404 160.901 180.404 161.152Z" fill="url(#paint0_linear_10080_89472)"/>
</g>
<rect x="0.354439" y="109.479" width="89.7151" height="89.7151" rx="44.8575" fill="white"/>
<rect x="0.354439" y="109.479" width="89.7151" height="89.7151" rx="44.8575" stroke="#6A0600" stroke-width="0.708878"/>
<path fill-rule="evenodd" clip-rule="evenodd" d="M47.1096 162.894H50.4319C56.9852 162.894 62.297 157.582 62.297 151.029C62.297 144.476 56.9852 139.164 50.4319 139.164H39.9906C33.4372 139.164 28.1255 144.476 28.1255 151.029C28.1255 158.542 33.0775 163.135 38.4946 165.956C41.1856 167.358 43.8956 168.263 45.945 168.818C46.3645 168.932 46.7546 169.031 47.1096 169.115V162.894ZM49.0081 171.437C49.0081 171.437 48.2905 171.333 47.1096 171.065C41.6384 169.823 26.2271 165.082 26.2271 151.029C26.2271 143.428 32.3893 137.266 39.9906 137.266H50.4319C58.0331 137.266 64.1954 143.428 64.1954 151.029C64.1954 158.63 58.0331 164.793 50.4319 164.793H49.0081V171.437Z" fill="url(#paint1_linear_10080_89472)"/>
<path fill-rule="evenodd" clip-rule="evenodd" d="M45.2113 152.453C45.4631 152.453 45.7045 152.353 45.8825 152.175C46.0605 151.997 46.1605 151.756 46.1605 151.504C46.1605 151.252 46.0605 151.011 45.8825 150.833C45.7045 150.655 45.4631 150.555 45.2113 150.555C44.9596 150.555 44.7181 150.655 44.5401 150.833C44.3621 151.011 44.2621 151.252 44.2621 151.504C44.2621 151.756 44.3621 151.997 44.5401 152.175C44.7181 152.353 44.9596 152.453 45.2113 152.453ZM45.2113 154.352C45.9666 154.352 46.6909 154.051 47.2249 153.517C47.7589 152.983 48.0589 152.259 48.0589 151.504C48.0589 150.749 47.7589 150.024 47.2249 149.49C46.6909 148.956 45.9666 148.656 45.2113 148.656C44.4561 148.656 43.7318 148.956 43.1977 149.49C42.6637 150.024 42.3637 150.749 42.3637 151.504C42.3637 152.259 42.6637 152.983 43.1977 153.517C43.7318 154.051 44.4561 154.352 45.2113 154.352ZM52.805 152.453C53.0567 152.453 53.2982 152.353 53.4762 152.175C53.6542 151.997 53.7542 151.756 53.7542 151.504C53.7542 151.252 53.6542 151.011 53.4762 150.833C53.2982 150.655 53.0567 150.555 52.805 150.555C52.5532 150.555 52.3118 150.655 52.1338 150.833C51.9558 151.011 51.8558 151.252 51.8558 151.504C51.8558 151.756 51.9558 151.997 52.1338 152.175C52.3118 152.353 52.5532 152.453 52.805 152.453ZM52.805 154.352C53.5602 154.352 54.2845 154.051 54.8186 153.517C55.3526 152.983 55.6526 152.259 55.6526 151.504C55.6526 150.749 55.3526 150.024 54.8186 149.49C54.2845 148.956 53.5602 148.656 52.805 148.656C52.0498 148.656 51.3255 148.956 50.7914 149.49C50.2574 150.024 49.9574 150.749 49.9574 151.504C49.9574 152.259 50.2574 152.983 50.7914 153.517C51.3255 154.051 52.0498 154.352 52.805 154.352ZM37.6176 152.453C37.8694 152.453 38.1108 152.353 38.2888 152.175C38.4669 151.997 38.5669 151.756 38.5669 151.504C38.5669 151.252 38.4669 151.011 38.2888 150.833C38.1108 150.655 37.8694 150.555 37.6176 150.555C37.3659 150.555 37.1245 150.655 36.9465 150.833C36.7684 151.011 36.6684 151.252 36.6684 151.504C36.6684 151.756 36.7684 151.997 36.9465 152.175C37.1245 152.353 37.3659 152.453 37.6176 152.453ZM37.6176 154.352C38.3729 154.352 39.0972 154.051 39.6312 153.517C40.1653 152.983 40.4653 152.259 40.4653 151.504C40.4653 150.749 40.1653 150.024 39.6312 149.49C39.0972 148.956 38.3729 148.656 37.6176 148.656C36.8624 148.656 36.1381 148.956 35.6041 149.49C35.07 150.024 34.77 150.749 34.77 151.504C34.77 152.259 35.07 152.983 35.6041 153.517C36.1381 154.051 36.8624 154.352 37.6176 154.352Z" fill="url(#paint2_linear_10080_89472)"/>
<rect x="310.867" y="257.238" width="115.726" height="115.726" rx="57.8629" fill="white"/>
<rect x="310.867" y="257.238" width="115.726" height="115.726" rx="57.8629" stroke="#6A0600" stroke-width="0.82075"/>
<rect width="75.509" height="75.509" transform="translate(330.976 277.344)" fill="white"/>
<path d="M388.382 321.572L378.886 317.317C378.456 317.132 377.986 317.058 377.52 317.101C377.054 317.144 376.606 317.302 376.217 317.562C376.177 317.587 376.14 317.615 376.104 317.646L371.141 321.867C371.09 321.896 371.033 321.911 370.974 321.913C370.915 321.915 370.857 321.904 370.804 321.879C367.614 320.34 364.309 317.055 362.763 313.91C362.738 313.857 362.724 313.799 362.724 313.741C362.724 313.682 362.738 313.624 362.763 313.572L366.999 308.547C367.029 308.509 367.057 308.471 367.083 308.43C367.339 308.039 367.494 307.591 367.533 307.125C367.572 306.659 367.495 306.191 367.308 305.763L363.083 296.283C362.843 295.724 362.428 295.257 361.9 294.953C361.373 294.65 360.761 294.525 360.156 294.599C357.53 294.944 355.119 296.234 353.374 298.228C351.629 300.221 350.669 302.782 350.675 305.431C350.675 321.17 363.479 333.974 379.218 333.974C381.867 333.979 384.427 333.02 386.421 331.275C388.414 329.53 389.704 327.119 390.05 324.493C390.124 323.891 390.001 323.282 389.7 322.756C389.4 322.229 388.937 321.814 388.382 321.572ZM379.218 331.562C364.81 331.562 353.087 319.839 353.087 305.431C353.08 303.369 353.825 301.374 355.181 299.821C356.538 298.267 358.413 297.26 360.458 296.989H360.504C360.585 296.99 360.664 297.016 360.73 297.063C360.796 297.11 360.846 297.176 360.874 297.252L365.115 306.722C365.139 306.774 365.152 306.831 365.152 306.889C365.152 306.947 365.139 307.005 365.115 307.057L360.872 312.094C360.84 312.13 360.811 312.169 360.785 312.209C360.52 312.614 360.364 313.081 360.332 313.565C360.299 314.048 360.393 314.532 360.603 314.969C362.385 318.619 366.064 322.269 369.754 324.052C370.194 324.261 370.68 324.352 371.165 324.317C371.65 324.282 372.118 324.121 372.522 323.851C372.56 323.825 372.599 323.797 372.635 323.767L377.596 319.546C377.645 319.519 377.699 319.504 377.754 319.501C377.81 319.497 377.865 319.506 377.917 319.526L387.415 323.781C387.492 323.814 387.558 323.871 387.601 323.943C387.645 324.015 387.665 324.099 387.658 324.183C387.388 326.229 386.382 328.106 384.829 329.464C383.276 330.822 381.281 331.568 379.218 331.562Z" fill="url(#paint3_linear_10080_89472)"/>
<defs>
<linearGradient id="paint0_linear_10080_89472" x1="265.335" y1="220.595" x2="202.452" y2="134.345" gradientUnits="userSpaceOnUse">
<stop stop-color="#FF2525"/>
<stop offset="1" stop-color="#FF8743"/>
</linearGradient>
<linearGradient id="paint1_linear_10080_89472" x1="64.2002" y1="171.437" x2="30.2179" y2="133.674" gradientUnits="userSpaceOnUse">
<stop stop-color="#FF2525"/>
<stop offset="1" stop-color="#FF8743"/>
</linearGradient>
<linearGradient id="paint2_linear_10080_89472" x1="55.6553" y1="154.352" x2="52.7641" y2="143.749" gradientUnits="userSpaceOnUse">
<stop stop-color="#FF2525"/>
<stop offset="1" stop-color="#FF8743"/>
</linearGradient>
<linearGradient id="paint3_linear_10080_89472" x1="390.076" y1="333.974" x2="350.68" y2="294.573" gradientUnits="userSpaceOnUse">
<stop stop-color="#FF2525"/>
<stop offset="1" stop-color="#FF8743"/>
</linearGradient>
<clipPath id="clip0_10080_89472">
<rect width="90.5806" height="90.5806" fill="white" transform="translate(174.743 143.211)"/>
</clipPath>
</defs>
</svg>
