<svg width="116" height="117" viewBox="0 0 116 117" fill="none" xmlns="http://www.w3.org/2000/svg">
<rect y="0.242188" width="116" height="116" rx="58" fill="url(#paint0_linear_9132_8534)"/>
<g clip-path="url(#clip0_9132_8534)">
<path d="M83.1764 32.4609H58.7305V65.2988H83.1764V32.4609Z" fill="white"/>
<circle cx="45.5932" cy="38.2963" r="4.37838" fill="#FFA979"/>
<path d="M51.7956 83.1762V48.8789L37.201 49.9735L33.1875 52.8924V67.487H38.2956V83.1762H51.7956Z" fill="#FFA979"/>
<path d="M45.2383 44.7109C49.0184 44.7109 52.0938 41.6356 52.0938 37.8555C52.0938 34.0754 49.0184 31 45.2383 31C41.4582 31 38.3828 34.0754 38.3828 37.8555C38.3828 41.6356 41.4582 44.7109 45.2383 44.7109ZM45.2383 34.1641C47.2737 34.1641 48.9297 35.82 48.9297 37.8555C48.9297 39.8909 47.2737 41.5469 45.2383 41.5469C43.2028 41.5469 41.5469 39.8909 41.5469 37.8555C41.5469 35.82 43.2028 34.1641 45.2383 34.1641ZM31 55.7852V65.2773C31 67.8943 33.1291 70.0234 35.7461 70.0234C36.3005 70.0234 36.8332 69.9279 37.3281 69.7524V85H53.1484V47.875H38.9102C34.5485 47.875 31 51.4235 31 55.7852ZM49.9844 81.8359H46.8203V66.2266H43.6562V81.8359H40.4922V55.1523H37.3281V65.2773C37.3281 66.1497 36.6184 66.8594 35.7461 66.8594C34.8738 66.8594 34.1641 66.1497 34.1641 65.2773V55.7852C34.1641 53.1682 36.2932 51.0391 38.9102 51.0391H43.6562V61.4805H46.8203V51.0391H49.9844V81.8359ZM85 31H56.3125V66.8594H59.4766V85H62.6406V79.5156H78.6719V85H81.8359V66.8594H85V31ZM81.8359 34.1641V38.3828H59.4766V34.1641H81.8359ZM78.6719 76.3516H62.6406V66.8594H78.6719V76.3516ZM59.4766 63.6953V41.5469H81.8359V63.6953H59.4766Z" fill="#6A0600"/>
<path d="M78.6719 44.7109H62.6406V47.875H78.6719V44.7109Z" fill="#6A0600"/>
<path d="M78.6719 51.0391H62.6406V54.2031H78.6719V51.0391Z" fill="#6A0600"/>
<path d="M78.6719 57.3672H62.6406V60.5312H78.6719V57.3672Z" fill="#6A0600"/>
</g>
<defs>
<linearGradient id="paint0_linear_9132_8534" x1="58" y1="0.242187" x2="58" y2="116.242" gradientUnits="userSpaceOnUse">
<stop stop-color="#FFEBE0"/>
<stop offset="1" stop-color="#FFD0B6"/>
</linearGradient>
<clipPath id="clip0_9132_8534">
<rect width="54" height="54" fill="white" transform="translate(31 31)"/>
</clipPath>
</defs>
</svg>
