<svg width="116" height="117" viewBox="0 0 116 117" fill="none" xmlns="http://www.w3.org/2000/svg">
<rect y="0.675781" width="116" height="116" rx="58" fill="url(#paint0_linear_9132_8578)"/>
<rect x="35" y="47.25" width="46" height="28" fill="white"/>
<rect x="35" y="75.75" width="46" height="3.25" rx="1.625" fill="#FFA979" stroke="#6A0600" stroke-width="2"/>
<path d="M35 38.25C35 37.1454 35.8954 36.25 37 36.25H79C80.1046 36.25 81 37.1454 81 38.25V46.25H35V38.25Z" fill="#FFA979" stroke="#6A0600" stroke-width="2"/>
<path d="M35 77V40.25" stroke="#6A0600" stroke-width="2"/>
<path d="M81 77V40.25" stroke="#6A0600" stroke-width="2"/>
<rect x="72.775" y="38.775" width="4.2" height="4.95" rx="0.975" fill="white" stroke="#6A0600" stroke-width="1.05"/>
<path d="M64.4532 52.8594C63.3755 52.8594 62.2706 53.3013 61.2235 54.0629C60.1764 53.3013 59.0715 52.8594 57.9938 52.8594C56.9161 52.8594 55.8112 53.3013 54.7642 54.0629C53.7171 53.3013 52.6122 52.8594 51.5345 52.8594C47.3223 52.8594 42.6953 59.6009 42.6953 65.7373C42.6953 71.6596 46.248 75.6372 51.5345 75.6372C52.7039 75.6372 53.785 75.4434 54.7642 75.0762C55.7433 75.4434 56.8244 75.6372 57.9938 75.6372C59.1633 75.6372 60.2444 75.4434 61.2235 75.0762C62.2026 75.4434 63.2837 75.6372 64.4532 75.6372C69.7397 75.6372 73.2924 71.6596 73.2924 65.7373C73.2924 59.6009 68.6654 52.8594 64.4532 52.8594ZM51.5345 74.2773C47.0605 74.2773 44.0552 70.847 44.0552 65.7373C44.0552 59.9137 48.3388 54.2192 51.5345 54.2192C52.2246 54.2192 52.9623 54.4844 53.7001 54.957C51.1435 57.4319 49.1547 61.7121 49.1547 65.7373C49.1547 69.5008 50.5894 72.4755 52.9895 74.1447C52.5238 74.2297 52.041 74.2773 51.5345 74.2773ZM57.9938 74.2773C53.5199 74.2773 50.5146 70.847 50.5146 65.7373C50.5146 59.9137 54.7981 54.2192 57.9938 54.2192C61.1895 54.2192 65.4731 59.9137 65.4731 65.7373C65.4731 70.847 62.4678 74.2773 57.9938 74.2773ZM64.4532 74.2773C63.9467 74.2773 63.4639 74.2297 62.9982 74.1447C65.3983 72.4755 66.833 69.5008 66.833 65.7373C66.833 61.7121 64.8442 57.4319 62.2876 54.957C63.0254 54.4844 63.7631 54.2192 64.4532 54.2192C67.6489 54.2192 71.9325 59.9137 71.9325 65.7373C71.9325 70.847 68.9272 74.2773 64.4532 74.2773Z" fill="#6A0600"/>
<defs>
<linearGradient id="paint0_linear_9132_8578" x1="58" y1="0.675781" x2="58" y2="116.676" gradientUnits="userSpaceOnUse">
<stop stop-color="#FFEBE0"/>
<stop offset="1" stop-color="#FFD0B6"/>
</linearGradient>
</defs>
</svg>
