<svg width="116" height="117" viewBox="0 0 116 117" fill="none" xmlns="http://www.w3.org/2000/svg">
<rect y="0.59375" width="116" height="116" rx="58" fill="url(#paint0_linear_9132_8482)"/>
<rect x="37.2305" y="84.3828" width="41.5385" height="4.61538" fill="#FFA979"/>
<circle cx="57.9991" cy="32.0772" r="2.30769" fill="#FFA979"/>
<path d="M53.8551 37.7986L56.9533 37.4888C57.1384 37.4703 57.3251 37.4742 57.5093 37.5005L64.5857 38.5115C65.0563 38.5787 65.4947 38.7897 65.8409 39.1155L71.5485 44.4873C71.7462 44.6734 71.9095 44.8929 72.0309 45.1358L74.0168 49.1076C74.1086 49.2911 74.1754 49.4859 74.2157 49.6871L74.8795 53.0061C74.9093 53.1551 74.9243 53.3067 74.9243 53.4587V63.6709C74.9243 64.7054 76.0129 65.3782 76.9382 64.9155C77.1314 64.8189 77.3444 64.7686 77.5605 64.7686H87.6463C88.1273 64.7686 88.5962 64.9189 88.9876 65.1985L90.1118 66.0014C90.7182 66.4346 91.0781 67.134 91.0781 67.8793V76.3518C91.0781 77.0528 90.7595 77.7159 90.212 78.1538L89.7872 78.4937C89.378 78.8211 88.8696 78.9994 88.3456 78.9994H76.6561C76.53 78.9994 76.4068 78.9621 76.3018 78.8921C75.8774 78.6092 75.3089 78.9134 75.3089 79.4235V82.2387C75.3089 83.4235 74.3484 84.384 73.1636 84.384H43.3858C42.1113 84.384 41.0781 83.3508 41.0781 82.0763V51.1263C41.0781 50.7402 41.175 50.3602 41.3599 50.0213L45.3706 42.6683C45.5815 42.2817 45.8985 41.9636 46.2844 41.7513L52.9726 38.0728C53.2453 37.9229 53.5454 37.8296 53.8551 37.7986Z" fill="white"/>
<path d="M76.1241 83.5217V54.6231C76.1241 44.9439 68.497 37.0125 58.9375 36.523V35.0462C60.3587 34.6381 61.4017 33.3275 61.4017 31.7769C61.4017 29.9011 59.8756 28.375 58 28.375C56.1241 28.375 54.5981 29.9013 54.5981 31.7769C54.5981 33.3275 55.6414 34.6381 57.0625 35.0462V36.523C47.5028 37.0125 39.8759 44.9439 39.8759 54.6231V83.5217H36.1719V89.6234H79.8281V83.5217H76.1241ZM74.2491 54.6231V64.3502H69.8741V53.4875C69.8741 49.833 68.7514 46.3127 66.6278 43.3067C65.4216 41.5992 63.9439 40.1297 62.2592 38.9414C69.1595 40.8178 74.2491 47.1367 74.2491 54.6231ZM74.2491 66.2252V83.5217H69.8741V66.2252H74.2491ZM65.0964 44.3886C66.9953 47.0764 67.9991 50.2228 67.9991 53.4875V64.3502H58.9355L58.9328 39.6303H58.9375V39.1477C61.3961 40.3494 63.508 42.1402 65.0964 44.3886ZM63.5834 75.3763V77.4709H58.9369L58.9366 75.3763H63.5834ZM58.9364 73.5013L58.9356 66.3038H63.5834V73.5013H58.9364ZM65.4584 79.3459V66.2252H67.9991V83.5217H58.9375L58.937 79.3458H65.4584V79.3459ZM56.4731 31.7769C56.4731 30.9348 57.1581 30.25 58 30.25C58.8419 30.25 59.5267 30.935 59.5267 31.7769C59.5267 32.6188 58.8417 33.3036 58 33.3036C57.158 33.3037 56.4731 32.6188 56.4731 31.7769ZM57.0625 83.5217H48.0009V66.2252H50.5414V79.3459H57.062L57.0625 83.5217ZM57.0619 77.4709H52.4164V75.3763H57.0616L57.0619 77.4709ZM57.0614 73.5013H52.4163V66.3038H57.0606L57.0614 73.5013ZM57.0605 64.3502H48.0009V53.4875C48.0009 50.2367 48.9967 47.1017 50.8806 44.4213C52.4698 42.16 54.5884 40.3573 57.0578 39.1494L57.0605 64.3502ZM41.7509 54.6231C41.7509 47.1362 46.8411 40.817 53.7422 38.9412C52.0445 40.1383 50.5572 41.6205 49.3466 43.3431C47.2397 46.3411 46.1259 49.8489 46.1259 53.4877V64.3503H41.7509V54.6231ZM41.7509 66.2252H46.1259V83.5217H41.7509V66.2252ZM77.9531 87.7484H38.0469V85.3967H39.8759V85.4295H76.1241V85.3967H77.9531V87.7484Z" fill="#6A0600"/>
<path d="M88.3855 64.7695H77.6163C76.3418 64.7695 75.3086 65.8027 75.3086 67.0772V77.0772C75.3086 78.3517 76.3418 79.3849 77.6163 79.3849H88.3855C89.66 79.3849 90.6932 78.3517 90.6932 77.0772V67.0772C90.6932 65.8027 89.66 64.7695 88.3855 64.7695Z" stroke="#6A0600" stroke-width="1.53846"/>
<path d="M80.3086 64.7695V79.3849" stroke="#6A0600" stroke-width="1.53846"/>
<path d="M85.6914 64.7695V79.3849" stroke="#6A0600" stroke-width="1.53846"/>
<defs>
<linearGradient id="paint0_linear_9132_8482" x1="58" y1="0.59375" x2="58" y2="116.594" gradientUnits="userSpaceOnUse">
<stop stop-color="#FFEBE0"/>
<stop offset="1" stop-color="#FFD0B6"/>
</linearGradient>
</defs>
</svg>
