<svg width="116" height="117" viewBox="0 0 116 117" fill="none" xmlns="http://www.w3.org/2000/svg">
<rect y="0.242188" width="116" height="116" rx="58" fill="url(#paint0_linear_9132_8517)"/>
<circle cx="57.5637" cy="59.1496" r="21.7941" fill="#FFA979"/>
<path d="M78.6353 48.6874C77.0077 45.4294 74.6491 42.5915 71.7438 40.3953C68.8385 38.1991 65.4649 36.704 61.8864 36.0267H61.4652C60.1824 35.7798 58.8813 35.6389 57.5753 35.6055H55.5932C54.9243 35.6055 54.3048 35.7294 53.6607 35.8532H53.2642C47.8667 36.8571 42.9905 39.7182 39.4812 43.9403C35.972 48.1625 34.0508 53.4795 34.0508 58.9697C34.0508 64.4598 35.972 69.7769 39.4812 73.999C42.9905 78.2212 47.8667 81.0822 53.2642 82.0861H53.6854C56.27 82.5065 58.9055 82.5065 61.49 82.0861H61.8864C65.4372 81.4116 68.7846 79.9275 71.6687 77.7493C74.5528 75.5711 76.8959 72.7574 78.5161 69.5266C80.1362 66.2959 80.9898 62.7351 81.0105 59.121C81.0312 55.5068 80.2184 51.9365 78.6353 48.6874ZM70.0379 67.8149C70.7065 65.3894 71.0971 62.8957 71.2024 60.3819H78.6353C78.4851 62.951 77.8636 65.4706 76.8019 67.8149H70.0379ZM38.4231 67.8149C37.3358 65.4756 36.689 62.9558 36.5153 60.3819H43.9483C44.0372 62.8938 44.4112 65.3875 45.0632 67.8149H38.4231ZM45.1128 50.4714C44.4442 52.8969 44.0536 55.3905 43.9483 57.9043H36.5153C36.6656 55.3352 37.2871 52.8156 38.3488 50.4714H45.1128ZM54.4783 38.3061H56.3365V47.9937H48.5567C49.9193 44.4284 51.9266 41.1445 54.4783 38.3061ZM67.4612 50.4714C68.1867 52.8876 68.6111 55.3841 68.7248 57.9043H58.8142V50.4714H67.4612ZM58.8142 47.9937V38.0831C59.4336 38.0831 60.0778 38.0831 60.6724 38.2318C63.2323 41.092 65.2401 44.4019 66.594 47.9937H58.8142ZM56.3365 50.4714V57.9043H46.4259C46.5237 55.3862 46.9315 52.8897 47.64 50.4714H56.3365ZM46.4259 60.3819H56.3365V67.8149H47.6895C46.964 65.3987 46.5396 62.9021 46.4259 60.3819ZM56.3365 70.2925V80.2031C55.7171 80.2031 55.0729 80.2031 54.4783 80.0545C51.9184 77.1942 49.9106 73.8844 48.5567 70.2925H56.3365ZM60.6724 79.9553C60.0778 79.9553 59.4336 79.9553 58.8142 80.104V70.2925H66.594C65.2292 73.8493 63.222 77.1247 60.6724 79.9553ZM58.8142 67.8149V60.3819H68.7248C68.6269 62.9001 68.2192 65.3965 67.5107 67.8149H58.8142ZM71.2024 57.9043C71.1135 55.3924 70.7395 52.8988 70.0875 50.4714H76.7771C77.8474 52.814 78.4773 55.3336 78.6353 57.9043H71.2024ZM75.4144 47.9937H69.2451C68.1569 44.9115 66.6208 42.0062 64.6862 39.3715C69.1242 40.968 72.9006 44.0031 75.4144 47.9937ZM50.4645 39.3715C48.5299 42.0062 46.9938 44.9115 45.9056 47.9937H39.7363C42.2515 44.0044 46.0275 40.9697 50.4645 39.3715ZM39.7363 70.2925H45.9056C46.9938 73.3748 48.5299 76.28 50.4645 78.9147C46.0265 77.3182 42.2501 74.2832 39.7363 70.2925ZM64.6862 78.9147C66.6208 76.28 68.1569 73.3748 69.2451 70.2925H75.4144C72.8992 74.2819 69.1232 77.3166 64.6862 78.9147Z" fill="#6A0600"/>
<path d="M34.6232 53.4113L32.329 51.1172L28.8879 52.2642L26.5938 55.7054V63.7348H33.4761L34.6232 53.4113Z" fill="white"/>
<path d="M81.6503 53.4113L83.9444 51.1172L87.3856 52.2642L89.6797 55.7054V63.7348H82.7973L81.6503 53.4113Z" fill="white"/>
<path d="M85.9054 64.3438H83.3587C82.9084 64.3438 82.4765 64.1649 82.1581 63.8465C81.8397 63.5281 81.6608 63.0962 81.6608 62.6459V53.2484C81.6608 52.6833 81.8853 52.1413 82.2849 51.7417C82.6845 51.3421 83.2265 51.1176 83.7916 51.1176C85.2258 51.1176 86.6012 51.6873 87.6154 52.7015C88.6295 53.7156 89.1992 55.091 89.1992 56.5252V61.0669C89.1992 61.936 88.854 62.7695 88.2395 63.384C87.6249 63.9985 86.7915 64.3438 85.9224 64.3438H85.9054Z" stroke="#6A0600" stroke-width="2.54675" stroke-miterlimit="10"/>
<path d="M29.8875 64.3438H32.4343C32.8846 64.3438 33.3164 64.1649 33.6349 63.8465C33.9533 63.5281 34.1321 63.0962 34.1321 62.6459V53.2484C34.1321 52.6833 33.9076 52.1413 33.508 51.7417C33.1084 51.3421 32.5665 51.1176 32.0014 51.1176C30.5672 51.1176 29.1917 51.6873 28.1776 52.7015C27.1635 53.7156 26.5937 55.091 26.5938 56.5252V61.0669C26.5938 61.936 26.939 62.7695 27.5535 63.384C28.168 63.9985 29.0015 64.3438 29.8706 64.3438H29.8875Z" stroke="#6A0600" stroke-width="2.54675" stroke-miterlimit="10"/>
<path d="M31.1797 51.117C31.9444 43.4699 38.2915 28.1758 57.562 28.1758C76.8326 28.1758 83.1797 43.4699 83.9444 51.117" stroke="#6A0600" stroke-width="2.29412"/>
<path d="M85.0887 64.8828C84.7063 72.1475 80.5005 83.2358 67.8828 87.824" stroke="#6A0600" stroke-width="2.29412"/>
<path d="M62.1494 86.6783L57.5611 87.8254L56.4141 88.9724L57.5611 92.4136L65.5905 91.2665L67.8847 90.1195L66.7376 85.5312L62.1494 86.6783Z" fill="white"/>
<path d="M65.1282 85.8265L58.2982 86.9085C57.2576 87.0734 56.5393 87.9979 56.6939 88.9734L56.9737 90.7398C57.1283 91.7153 58.0971 92.3725 59.1377 92.2077L65.9677 91.1256C67.0082 90.9608 67.7265 90.0363 67.572 89.0608L67.2921 87.2944C67.1376 86.3188 66.1687 85.6616 65.1282 85.8265Z" stroke="#6A0600" stroke-width="2.29412" stroke-miterlimit="10"/>
<defs>
<linearGradient id="paint0_linear_9132_8517" x1="58" y1="0.242187" x2="58" y2="116.242" gradientUnits="userSpaceOnUse">
<stop stop-color="#FFEBE0"/>
<stop offset="1" stop-color="#FFD0B6"/>
</linearGradient>
</defs>
</svg>
