<svg width="116" height="117" viewBox="0 0 116 117" fill="none" xmlns="http://www.w3.org/2000/svg">
<rect y="0.242188" width="116" height="116" rx="58" fill="url(#paint0_linear_9132_8548)"/>
<path d="M51 50L43 53L54 73H64L51 50Z" fill="#FFA979"/>
<circle cx="46" cy="47" r="6" fill="white"/>
<path d="M42.0039 71H51.2039L39.2439 50.28C38.4639 49 38.0039 47.58 38.0039 46C38.0057 44.0547 38.7164 42.1767 40.003 40.7176C41.2896 39.2585 43.0639 38.3183 44.9937 38.0731C46.9236 37.8279 48.8766 38.2945 50.4872 39.3854C52.0979 40.4764 53.2557 42.1169 53.7439 44H62.0039V39C62.0039 36.8 63.8039 35 66.0039 35V40.18L69.1839 37H78.0039V41H70.8239L66.0039 45.82V46.18L70.8239 51H78.0039V55H69.1839L66.0039 51.82V57C64.943 57 63.9256 56.5786 63.1755 55.8284C62.4253 55.0783 62.0039 54.0609 62.0039 53V48H53.7439C53.5439 48.78 53.2239 49.52 52.8239 50.2L64.8239 71H74.0039C75.0648 71 76.0822 71.4214 76.8323 72.1716C77.5825 72.9217 78.0039 73.9391 78.0039 75V77H38.0039V75C38.0039 72.8 39.8039 71 42.0039 71ZM49.8239 53C48.7039 53.64 47.4039 54 46.0039 54L55.8239 71H60.2039L49.8239 53ZM46.0039 42C44.943 42 43.9256 42.4214 43.1755 43.1716C42.4253 43.9217 42.0039 44.9391 42.0039 46C42.0039 48.22 43.7839 50 46.0039 50C48.2239 50 50.0039 48.22 50.0039 46C50.0039 44.9391 49.5825 43.9217 48.8323 43.1716C48.0822 42.4214 47.0648 42 46.0039 42Z" fill="#6A0600"/>
<mask id="path-5-inside-1_9132_8548" fill="white">
<rect x="35" y="71" width="45" height="12" rx="2"/>
</mask>
<rect x="35" y="71" width="45" height="12" rx="2" fill="#FFA979" stroke="#6A0600" stroke-width="6" mask="url(#path-5-inside-1_9132_8548)"/>
<defs>
<linearGradient id="paint0_linear_9132_8548" x1="58" y1="0.242187" x2="58" y2="116.242" gradientUnits="userSpaceOnUse">
<stop stop-color="#FFEBE0"/>
<stop offset="1" stop-color="#FFD0B6"/>
</linearGradient>
</defs>
</svg>
