<svg width="1156" height="175" viewBox="0 0 1156 175" fill="none" xmlns="http://www.w3.org/2000/svg">
<mask id="path-1-outside-1_9132_8715" maskUnits="userSpaceOnUse" x="55.5703" y="52.0938" width="295" height="90" fill="black">
<rect fill="white" x="55.5703" y="52.0938" width="295" height="90"/>
<path d="M75.4903 140.094H57.0103V56.0937H78.4903L103.45 115.974L128.41 56.0937H150.01V140.094H131.41V88.9737L110.89 140.094H96.0103L75.4903 88.9737V140.094ZM198.783 140.094L197.583 132.654C195.503 135.214 193.263 137.214 190.863 138.654C188.463 140.094 185.263 140.814 181.263 140.814C177.503 140.814 174.143 140.174 171.183 138.894C168.223 137.534 165.863 135.574 164.103 133.014C162.423 130.454 161.583 127.374 161.583 123.774C161.583 118.814 163.343 114.694 166.863 111.414C170.463 108.134 176.023 106.094 183.543 105.294L197.583 103.734V99.7737C197.583 98.4137 196.903 97.0937 195.543 95.8137C194.263 94.4537 192.223 93.7737 189.423 93.7737C186.943 93.7737 184.783 94.4137 182.943 95.6937C181.183 96.9737 179.983 98.8137 179.343 101.214L164.343 95.8137C166.103 90.4537 169.183 86.3737 173.583 83.5737C178.063 80.6937 183.583 79.2537 190.143 79.2537C198.303 79.2537 204.503 81.2937 208.743 85.3737C212.983 89.4537 215.103 94.9337 215.103 101.814V140.094H198.783ZM197.583 114.534L186.423 115.854C184.183 116.174 182.463 116.894 181.263 118.014C180.143 119.054 179.583 120.374 179.583 121.974C179.583 123.494 180.223 124.774 181.503 125.814C182.783 126.854 184.543 127.374 186.783 127.374C189.023 127.374 190.943 126.934 192.543 126.054C194.143 125.094 195.383 123.774 196.263 122.094C197.143 120.334 197.583 118.174 197.583 115.614V114.534ZM227.736 53.6937H245.376V102.414H248.616L266.856 80.0938H289.656L264.096 109.734L289.776 140.094H266.976L248.496 116.934H245.376V140.094H227.736V53.6937ZM320.615 140.934C314.455 140.934 309.095 139.654 304.535 137.094C299.975 134.454 296.415 130.774 293.855 126.054C291.375 121.334 290.135 115.814 290.135 109.494C290.135 103.654 291.375 98.4537 293.855 93.8937C296.335 89.3337 299.815 85.7737 304.295 83.2137C308.775 80.5737 313.855 79.2537 319.535 79.2537C325.535 79.2537 330.735 80.4937 335.135 82.9737C339.535 85.3737 342.975 88.8137 345.455 93.2937C347.935 97.7737 349.175 102.974 349.175 108.894C349.175 109.854 349.135 110.854 349.055 111.894C348.975 112.934 348.855 114.094 348.695 115.374H308.855C309.255 117.534 310.015 119.414 311.135 121.014C312.255 122.534 313.655 123.734 315.335 124.614C317.095 125.414 319.095 125.814 321.335 125.814C323.815 125.814 326.055 125.294 328.055 124.254C330.055 123.214 331.535 121.734 332.495 119.814L348.215 124.134C345.815 129.494 342.215 133.654 337.415 136.614C332.615 139.494 327.015 140.934 320.615 140.934ZM330.095 103.974C330.015 101.974 329.495 100.214 328.535 98.6937C327.575 97.1737 326.335 95.9737 324.815 95.0937C323.295 94.2137 321.615 93.8137 319.775 93.8937C317.935 93.9737 316.255 94.4537 314.735 95.3337C313.295 96.1337 312.055 97.2937 311.015 98.8137C309.975 100.254 309.335 101.974 309.095 103.974H330.095Z"/>
</mask>
<path d="M75.4903 140.094V140.894H76.2903V140.094H75.4903ZM57.0103 140.094H56.2103V140.894H57.0103V140.094ZM57.0103 56.0937V55.2937H56.2103V56.0937H57.0103ZM78.4903 56.0937L79.2287 55.7859L79.0236 55.2937H78.4903V56.0937ZM103.45 115.974L102.712 116.282L103.45 118.053L104.189 116.282L103.45 115.974ZM128.41 56.0937V55.2937H127.877L127.672 55.7859L128.41 56.0937ZM150.01 56.0937H150.81V55.2937H150.01V56.0937ZM150.01 140.094V140.894H150.81V140.094H150.01ZM131.41 140.094H130.61V140.894H131.41V140.094ZM131.41 88.9737H132.21L130.668 88.6757L131.41 88.9737ZM110.89 140.094V140.894H111.431L111.633 140.392L110.89 140.094ZM96.0103 140.094L95.2679 140.392L95.4694 140.894H96.0103V140.094ZM75.4903 88.9737L76.2327 88.6757L74.6903 88.9737H75.4903ZM75.4903 139.294H57.0103V140.894H75.4903V139.294ZM57.8103 140.094V56.0937H56.2103V140.094H57.8103ZM57.0103 56.8937H78.4903V55.2937H57.0103V56.8937ZM77.7519 56.4015L102.712 116.282L104.189 115.666L79.2287 55.7859L77.7519 56.4015ZM104.189 116.282L129.149 56.4015L127.672 55.7859L102.712 115.666L104.189 116.282ZM128.41 56.8937H150.01V55.2937H128.41V56.8937ZM149.21 56.0937V140.094H150.81V56.0937H149.21ZM150.01 139.294H131.41V140.894H150.01V139.294ZM132.21 140.094V88.9737H130.61V140.094H132.21ZM130.668 88.6757L110.148 139.796L111.633 140.392L132.153 89.2718L130.668 88.6757ZM110.89 139.294H96.0103V140.894H110.89V139.294ZM96.7527 139.796L76.2327 88.6757L74.7479 89.2718L95.2679 140.392L96.7527 139.796ZM74.6903 88.9737V140.094H76.2903V88.9737H74.6903ZM198.783 140.094L197.993 140.221L198.102 140.894H198.783V140.094ZM197.583 132.654L198.373 132.526L198.088 130.763L196.962 132.149L197.583 132.654ZM190.863 138.654L191.274 139.34L190.863 138.654ZM171.183 138.894L170.849 139.621L170.857 139.624L170.865 139.628L171.183 138.894ZM164.103 133.014L163.434 133.453L163.439 133.46L163.444 133.467L164.103 133.014ZM166.863 111.414L166.324 110.822L166.317 110.828L166.863 111.414ZM183.543 105.294L183.627 106.089L183.631 106.089L183.543 105.294ZM197.583 103.734L197.671 104.529L198.383 104.45V103.734H197.583ZM195.543 95.8138L194.96 96.362L194.977 96.3797L194.995 96.3963L195.543 95.8138ZM182.943 95.6937L182.486 95.037L182.479 95.0418L182.472 95.0468L182.943 95.6937ZM179.343 101.214L179.072 101.966L179.891 102.261L180.116 101.42L179.343 101.214ZM164.343 95.8138L163.583 95.5642L163.34 96.303L164.072 96.5665L164.343 95.8138ZM173.583 83.5737L174.012 84.2487L174.015 84.2467L173.583 83.5737ZM215.103 140.094V140.894H215.903V140.094H215.103ZM197.583 114.534H198.383V113.634L197.489 113.739L197.583 114.534ZM186.423 115.854L186.329 115.059L186.319 115.06L186.31 115.062L186.423 115.854ZM181.263 118.014L181.807 118.6L181.809 118.599L181.263 118.014ZM192.543 126.054L192.928 126.755L192.942 126.747L192.954 126.74L192.543 126.054ZM196.263 122.094L196.971 122.465L196.975 122.458L196.978 122.452L196.263 122.094ZM199.573 139.966L198.373 132.526L196.793 132.781L197.993 140.221L199.573 139.966ZM196.962 132.149C194.93 134.65 192.759 136.583 190.451 137.968L191.274 139.34C193.767 137.844 196.075 135.778 198.204 133.158L196.962 132.149ZM190.451 137.968C188.218 139.308 185.177 140.014 181.263 140.014V141.614C185.349 141.614 188.708 140.88 191.274 139.34L190.451 137.968ZM181.263 140.014C177.594 140.014 174.345 139.39 171.5 138.159L170.865 139.628C173.941 140.958 177.412 141.614 181.263 141.614V140.014ZM171.517 138.167C168.681 136.864 166.436 134.996 164.762 132.561L163.444 133.467C165.289 136.152 167.764 138.204 170.849 139.621L171.517 138.167ZM164.772 132.575C163.191 130.167 162.383 127.246 162.383 123.774H160.783C160.783 127.502 161.654 130.741 163.434 133.453L164.772 132.575ZM162.383 123.774C162.383 119.028 164.056 115.123 167.408 111.999L166.317 110.828C162.629 114.265 160.783 118.6 160.783 123.774H162.383ZM167.402 112.005C170.823 108.887 176.189 106.881 183.627 106.089L183.458 104.498C175.856 105.307 170.102 107.38 166.324 110.822L167.402 112.005ZM183.631 106.089L197.671 104.529L197.494 102.939L183.454 104.499L183.631 106.089ZM198.383 103.734V99.7738H196.783V103.734H198.383ZM198.383 99.7738C198.383 98.1206 197.55 96.6041 196.091 95.2312L194.995 96.3963C196.256 97.5834 196.783 98.7069 196.783 99.7738H198.383ZM196.125 95.2655C194.633 93.6793 192.334 92.9737 189.423 92.9737V94.5737C192.112 94.5737 193.893 95.2282 194.96 96.362L196.125 95.2655ZM189.423 92.9737C186.798 92.9737 184.474 93.6539 182.486 95.037L183.4 96.3505C185.091 95.1736 187.088 94.5737 189.423 94.5737V92.9737ZM182.472 95.0468C180.543 96.4497 179.25 98.4568 178.57 101.008L180.116 101.42C180.716 99.1707 181.822 97.4978 183.413 96.3407L182.472 95.0468ZM179.614 100.461L164.614 95.061L164.072 96.5665L179.072 101.966L179.614 100.461ZM165.103 96.0633C166.81 90.8637 169.782 86.941 174.012 84.2487L173.153 82.8988C168.584 85.8065 165.395 90.0438 163.583 95.5642L165.103 96.0633ZM174.015 84.2467C178.339 81.467 183.701 80.0537 190.143 80.0537V78.4537C183.465 78.4537 177.786 79.9205 173.15 82.9008L174.015 84.2467ZM190.143 80.0537C198.177 80.0537 204.147 82.0614 208.188 85.9502L209.298 84.7973C204.859 80.5261 198.429 78.4537 190.143 78.4537V80.0537ZM208.188 85.9502C212.245 89.8538 214.303 95.1113 214.303 101.814H215.903C215.903 94.7562 213.721 89.0537 209.298 84.7973L208.188 85.9502ZM214.303 101.814V140.094H215.903V101.814H214.303ZM215.103 139.294H198.783V140.894H215.103V139.294ZM197.489 113.739L186.329 115.059L186.517 116.648L197.677 115.328L197.489 113.739ZM186.31 115.062C183.967 115.396 182.074 116.162 180.717 117.429L181.809 118.599C182.851 117.625 184.398 116.951 186.536 116.646L186.31 115.062ZM180.718 117.428C179.427 118.627 178.783 120.163 178.783 121.974H180.383C180.383 120.584 180.859 119.481 181.807 118.6L180.718 117.428ZM178.783 121.974C178.783 123.757 179.55 125.257 180.998 126.435L182.007 125.193C180.896 124.29 180.383 123.23 180.383 121.974H178.783ZM180.998 126.435C182.465 127.626 184.425 128.174 186.783 128.174V126.574C184.661 126.574 183.101 126.081 182.007 125.193L180.998 126.435ZM186.783 128.174C189.127 128.174 191.186 127.713 192.928 126.755L192.157 125.353C190.699 126.155 188.918 126.574 186.783 126.574V128.174ZM192.954 126.74C194.683 125.703 196.024 124.273 196.971 122.465L195.554 121.723C194.741 123.275 193.603 124.485 192.131 125.368L192.954 126.74ZM196.978 122.452C197.928 120.552 198.383 118.262 198.383 115.614H196.783C196.783 118.086 196.358 120.115 195.547 121.736L196.978 122.452ZM198.383 115.614V114.534H196.783V115.614H198.383ZM227.736 53.6937V52.8937H226.936V53.6937H227.736ZM245.376 53.6937H246.176V52.8937H245.376V53.6937ZM245.376 102.414H244.576V103.214H245.376V102.414ZM248.616 102.414V103.214H248.995L249.235 102.92L248.616 102.414ZM266.856 80.0938V79.2938H266.476L266.236 79.5875L266.856 80.0938ZM289.656 80.0938L290.261 80.6162L291.402 79.2938H289.656V80.0938ZM264.096 109.734L263.49 109.211L263.044 109.729L263.485 110.25L264.096 109.734ZM289.776 140.094V140.894H291.5L290.386 139.577L289.776 140.094ZM266.976 140.094L266.35 140.593L266.59 140.894H266.976V140.094ZM248.496 116.934L249.121 116.435L248.881 116.134H248.496V116.934ZM245.376 116.934V116.134H244.576V116.934H245.376ZM245.376 140.094V140.894H246.176V140.094H245.376ZM227.736 140.094H226.936V140.894H227.736V140.094ZM227.736 54.4937H245.376V52.8937H227.736V54.4937ZM244.576 53.6937V102.414H246.176V53.6937H244.576ZM245.376 103.214H248.616V101.614H245.376V103.214ZM249.235 102.92L267.475 80.6L266.236 79.5875L247.996 101.908L249.235 102.92ZM266.856 80.8937H289.656V79.2938H266.856V80.8937ZM289.05 79.5713L263.49 109.211L264.701 110.256L290.261 80.6162L289.05 79.5713ZM263.485 110.25L289.165 140.61L290.386 139.577L264.706 109.217L263.485 110.25ZM289.776 139.294H266.976V140.894H289.776V139.294ZM267.601 139.595L249.121 116.435L247.87 117.433L266.35 140.593L267.601 139.595ZM248.496 116.134H245.376V117.734H248.496V116.134ZM244.576 116.934V140.094H246.176V116.934H244.576ZM245.376 139.294H227.736V140.894H245.376V139.294ZM228.536 140.094V53.6937H226.936V140.094H228.536ZM304.535 137.094L304.134 137.786L304.143 137.791L304.535 137.094ZM293.855 126.054L293.146 126.426L293.151 126.435L293.855 126.054ZM293.855 93.8937L294.557 94.276L293.855 93.8937ZM304.295 83.2137L304.692 83.9084L304.701 83.903L304.295 83.2137ZM335.135 82.9737L334.742 83.6707L334.752 83.6761L335.135 82.9737ZM345.455 93.2937L346.155 92.9063L345.455 93.2937ZM348.695 115.374V116.174H349.401L349.489 115.473L348.695 115.374ZM308.855 115.374V114.574H307.893L308.068 115.519L308.855 115.374ZM311.135 121.014L310.479 121.473L310.485 121.48L310.491 121.488L311.135 121.014ZM315.335 124.614L314.963 125.322L314.983 125.333L315.004 125.342L315.335 124.614ZM328.055 124.254L328.424 124.964L328.055 124.254ZM332.495 119.814L332.707 119.042L332.073 118.868L331.779 119.456L332.495 119.814ZM348.215 124.134L348.945 124.461L349.326 123.609L348.427 123.362L348.215 124.134ZM337.415 136.614L337.826 137.3L337.835 137.295L337.415 136.614ZM330.095 103.974V104.774H330.927L330.894 103.942L330.095 103.974ZM328.535 98.6937L327.858 99.1209L328.535 98.6937ZM324.815 95.0938L325.216 94.4014L324.815 95.0938ZM319.775 93.8937L319.74 93.0945L319.775 93.8937ZM314.735 95.3337L315.123 96.0331L315.129 96.0296L315.136 96.0261L314.735 95.3337ZM311.015 98.8138L311.663 99.2821L311.669 99.2739L311.675 99.2655L311.015 98.8138ZM309.095 103.974L308.3 103.878L308.193 104.774H309.095V103.974ZM320.615 140.134C314.567 140.134 309.347 138.878 304.926 136.396L304.143 137.791C308.842 140.43 314.342 141.734 320.615 141.734V140.134ZM304.936 136.401C300.506 133.837 297.049 130.265 294.558 125.672L293.151 126.435C295.78 131.282 299.444 135.071 304.134 137.786L304.936 136.401ZM294.563 125.682C292.153 121.096 290.935 115.708 290.935 109.494H289.335C289.335 115.919 290.596 121.572 293.146 126.426L294.563 125.682ZM290.935 109.494C290.935 103.77 292.149 98.7046 294.557 94.276L293.152 93.5115C290.6 98.2029 289.335 103.537 289.335 109.494H290.935ZM294.557 94.276C296.967 89.8456 300.341 86.3942 304.692 83.9083L303.898 82.5191C299.288 85.1533 295.702 88.8218 293.152 93.5115L294.557 94.276ZM304.701 83.903C309.047 81.3421 313.984 80.0537 319.535 80.0537V78.4537C313.725 78.4537 308.503 79.8054 303.889 82.5245L304.701 83.903ZM319.535 80.0537C325.423 80.0537 330.482 81.2699 334.742 83.6707L335.527 82.2768C330.987 79.7176 325.646 78.4537 319.535 78.4537V80.0537ZM334.752 83.6761C339.015 86.0017 342.347 89.3311 344.755 93.6812L346.155 92.9063C343.603 88.2964 340.054 84.7458 335.518 82.2714L334.752 83.6761ZM344.755 93.6812C347.16 98.0252 348.375 103.088 348.375 108.894H349.975C349.975 102.86 348.71 97.5223 346.155 92.9063L344.755 93.6812ZM348.375 108.894C348.375 109.832 348.336 110.811 348.257 111.832L349.852 111.955C349.934 110.896 349.975 109.876 349.975 108.894H348.375ZM348.257 111.832C348.178 112.857 348.06 114.004 347.901 115.275L349.489 115.473C349.65 114.183 349.771 113.01 349.852 111.955L348.257 111.832ZM348.695 114.574H308.855V116.174H348.695V114.574ZM308.068 115.519C308.486 117.778 309.286 119.768 310.479 121.473L311.79 120.555C310.743 119.06 310.023 117.29 309.641 115.228L308.068 115.519ZM310.491 121.488C311.683 123.106 313.176 124.386 314.963 125.322L315.706 123.905C314.133 123.081 312.826 121.961 311.779 120.539L310.491 121.488ZM315.004 125.342C316.883 126.196 318.999 126.614 321.335 126.614V125.014C319.191 125.014 317.307 124.631 315.666 123.885L315.004 125.342ZM321.335 126.614C323.93 126.614 326.299 126.069 328.424 124.964L327.686 123.544C325.811 124.519 323.699 125.014 321.335 125.014V126.614ZM328.424 124.964C330.565 123.85 332.171 122.25 333.21 120.172L331.779 119.456C330.899 121.217 329.544 122.578 327.686 123.544L328.424 124.964ZM332.283 120.585L348.003 124.905L348.427 123.362L332.707 119.042L332.283 120.585ZM347.485 123.807C345.147 129.027 341.652 133.061 336.995 135.933L337.835 137.295C342.777 134.247 346.482 129.961 348.945 124.461L347.485 123.807ZM337.003 135.928C332.344 138.723 326.891 140.134 320.615 140.134V141.734C327.138 141.734 332.885 140.265 337.826 137.3L337.003 135.928ZM330.894 103.942C330.809 101.818 330.254 99.9183 329.211 98.2665L327.858 99.1209C328.735 100.509 329.22 102.13 329.295 104.006L330.894 103.942ZM329.211 98.2666C328.184 96.6399 326.85 95.3478 325.216 94.4014L324.414 95.7861C325.819 96.5997 326.966 97.7076 327.858 99.1209L329.211 98.2666ZM325.216 94.4014C323.557 93.4412 321.725 93.0082 319.74 93.0945L319.809 94.693C321.505 94.6193 323.032 94.9863 324.414 95.7861L325.216 94.4014ZM319.74 93.0945C317.778 93.1798 315.971 93.6936 314.334 94.6414L315.136 96.0261C316.538 95.2139 318.092 94.7677 319.809 94.693L319.74 93.0945ZM314.346 94.6344C312.785 95.5015 311.456 96.7517 310.354 98.362L311.675 99.2655C312.653 97.8358 313.804 96.766 315.123 96.0331L314.346 94.6344ZM310.366 98.3454C309.237 99.9094 308.554 101.762 308.3 103.878L309.889 104.069C310.115 102.185 310.713 100.598 311.663 99.2821L310.366 98.3454ZM309.095 104.774H330.095V103.174H309.095V104.774Z" fill="black" mask="url(#path-1-outside-1_9132_8715)"/>
<path d="M71.8888 136.492H53.4088V52.4922H74.8888L99.8488 112.372L124.809 52.4922H146.409V136.492H127.809V85.3722L107.289 136.492H92.4088L71.8888 85.3722V136.492ZM195.181 136.492L193.981 129.052C191.901 131.612 189.661 133.612 187.261 135.052C184.861 136.492 181.661 137.212 177.661 137.212C173.901 137.212 170.541 136.572 167.581 135.292C164.621 133.932 162.261 131.972 160.501 129.412C158.821 126.852 157.981 123.772 157.981 120.172C157.981 115.212 159.741 111.092 163.261 107.812C166.861 104.532 172.421 102.492 179.941 101.692L193.981 100.132V96.1722C193.981 94.8122 193.301 93.4922 191.941 92.2122C190.661 90.8522 188.621 90.1722 185.821 90.1722C183.341 90.1722 181.181 90.8122 179.341 92.0922C177.581 93.3722 176.381 95.2122 175.741 97.6122L160.741 92.2122C162.501 86.8522 165.581 82.7722 169.981 79.9722C174.461 77.0922 179.981 75.6522 186.541 75.6522C194.701 75.6522 200.901 77.6922 205.141 81.7722C209.381 85.8522 211.501 91.3322 211.501 98.2122V136.492H195.181ZM193.981 110.932L182.821 112.252C180.581 112.572 178.861 113.292 177.661 114.412C176.541 115.452 175.981 116.772 175.981 118.372C175.981 119.892 176.621 121.172 177.901 122.212C179.181 123.252 180.941 123.772 183.181 123.772C185.421 123.772 187.341 123.332 188.941 122.452C190.541 121.492 191.781 120.172 192.661 118.492C193.541 116.732 193.981 114.572 193.981 112.012V110.932ZM224.134 50.0922H241.774V98.8122H245.014L263.254 76.4922H286.054L260.494 106.132L286.174 136.492H263.374L244.894 113.332H241.774V136.492H224.134V50.0922ZM317.013 137.332C310.853 137.332 305.493 136.052 300.933 133.492C296.373 130.852 292.813 127.172 290.253 122.452C287.773 117.732 286.533 112.212 286.533 105.892C286.533 100.052 287.773 94.8522 290.253 90.2922C292.733 85.7322 296.213 82.1722 300.693 79.6122C305.173 76.9722 310.253 75.6522 315.933 75.6522C321.933 75.6522 327.133 76.8922 331.533 79.3722C335.933 81.7722 339.373 85.2122 341.853 89.6922C344.333 94.1722 345.573 99.3722 345.573 105.292C345.573 106.252 345.533 107.252 345.453 108.292C345.373 109.332 345.253 110.492 345.093 111.772H305.253C305.653 113.932 306.413 115.812 307.533 117.412C308.653 118.932 310.053 120.132 311.733 121.012C313.493 121.812 315.493 122.212 317.733 122.212C320.213 122.212 322.453 121.692 324.453 120.652C326.453 119.612 327.933 118.132 328.893 116.212L344.613 120.532C342.213 125.892 338.613 130.052 333.813 133.012C329.013 135.892 323.413 137.332 317.013 137.332ZM326.493 100.372C326.413 98.3722 325.893 96.6122 324.933 95.0922C323.973 93.5722 322.733 92.3722 321.213 91.4922C319.693 90.6122 318.013 90.2122 316.173 90.2922C314.333 90.3722 312.653 90.8522 311.133 91.7322C309.693 92.5322 308.453 93.6922 307.413 95.2122C306.373 96.6522 305.733 98.3722 305.493 100.372H326.493Z" fill="#6A0600"/>
<mask id="path-4-outside-2_9132_8715" maskUnits="userSpaceOnUse" x="396.203" y="52.0938" width="294" height="90" fill="black">
<rect fill="white" x="396.203" y="52.0938" width="294" height="90"/>
<path d="M462.003 83.2137C459.683 78.9737 456.723 75.8937 453.123 73.9738C449.603 71.9737 445.643 70.9737 441.243 70.9737C436.603 70.9737 432.403 72.1737 428.643 74.5737C424.963 76.8937 422.043 80.0937 419.883 84.1737C417.803 88.2537 416.763 92.8937 416.763 98.0937C416.763 103.534 417.803 108.294 419.883 112.374C421.963 116.374 424.883 119.534 428.643 121.854C432.403 124.094 436.803 125.214 441.843 125.214C444.963 125.214 447.843 124.694 450.483 123.654C453.123 122.534 455.483 121.014 457.563 119.094C459.643 117.174 461.403 114.974 462.843 112.494V107.214H441.243V92.5737H480.243V115.854C478.323 120.254 475.523 124.374 471.843 128.214C468.163 131.974 463.723 135.054 458.523 137.454C453.323 139.774 447.403 140.934 440.763 140.934C434.523 140.934 428.803 139.894 423.603 137.814C418.403 135.734 413.883 132.774 410.043 128.934C406.203 125.094 403.203 120.574 401.043 115.374C398.963 110.094 397.923 104.334 397.923 98.0937C397.923 91.8537 398.963 86.1337 401.043 80.9337C403.203 75.6537 406.163 71.0937 409.923 67.2537C413.763 63.4137 418.283 60.4537 423.483 58.3737C428.683 56.2937 434.403 55.2537 440.643 55.2537C446.483 55.2537 451.963 56.1737 457.083 58.0137C462.283 59.8537 466.803 62.5337 470.643 66.0537C474.483 69.4937 477.323 73.6937 479.163 78.6537L462.003 83.2137ZM519.232 140.934C513.392 140.934 508.152 139.694 503.512 137.214C498.872 134.734 495.232 131.174 492.592 126.534C490.032 121.894 488.752 116.414 488.752 110.094C488.752 103.774 490.072 98.3337 492.712 93.7737C495.432 89.1337 499.112 85.5737 503.752 83.0937C508.472 80.5337 513.712 79.2537 519.472 79.2537C525.392 79.2537 530.672 80.5337 535.312 83.0937C540.032 85.5737 543.752 89.1337 546.472 93.7737C549.192 98.3337 550.552 103.734 550.552 109.974C550.552 116.374 549.152 121.894 546.352 126.534C543.632 131.174 539.872 134.734 535.072 137.214C530.352 139.694 525.072 140.934 519.232 140.934ZM519.232 125.094C521.312 125.094 523.312 124.534 525.232 123.414C527.152 122.294 528.712 120.654 529.912 118.494C531.112 116.254 531.712 113.454 531.712 110.094C531.712 106.734 531.112 103.974 529.912 101.814C528.712 99.5737 527.192 97.8937 525.352 96.7737C523.512 95.6537 521.552 95.0937 519.472 95.0937C517.232 95.0937 515.232 95.6537 513.472 96.7737C511.712 97.8937 510.272 99.5737 509.152 101.814C508.112 103.974 507.592 106.734 507.592 110.094C507.592 113.454 508.112 116.254 509.152 118.494C510.192 120.654 511.592 122.294 513.352 123.414C515.112 124.534 517.072 125.094 519.232 125.094ZM588.958 140.934C583.118 140.934 577.878 139.694 573.238 137.214C568.598 134.734 564.958 131.174 562.318 126.534C559.758 121.894 558.478 116.414 558.478 110.094C558.478 103.774 559.798 98.3337 562.438 93.7737C565.158 89.1337 568.838 85.5737 573.478 83.0937C578.198 80.5337 583.438 79.2537 589.198 79.2537C595.118 79.2537 600.398 80.5337 605.038 83.0937C609.758 85.5737 613.478 89.1337 616.198 93.7737C618.918 98.3337 620.278 103.734 620.278 109.974C620.278 116.374 618.878 121.894 616.078 126.534C613.358 131.174 609.598 134.734 604.798 137.214C600.078 139.694 594.798 140.934 588.958 140.934ZM588.958 125.094C591.038 125.094 593.038 124.534 594.958 123.414C596.878 122.294 598.438 120.654 599.638 118.494C600.838 116.254 601.438 113.454 601.438 110.094C601.438 106.734 600.838 103.974 599.638 101.814C598.438 99.5737 596.918 97.8937 595.078 96.7737C593.238 95.6537 591.278 95.0937 589.198 95.0937C586.958 95.0937 584.958 95.6537 583.198 96.7737C581.438 97.8937 579.998 99.5737 578.878 101.814C577.838 103.974 577.318 106.734 577.318 110.094C577.318 113.454 577.838 116.254 578.878 118.494C579.918 120.654 581.318 122.294 583.078 123.414C584.838 124.534 586.798 125.094 588.958 125.094ZM673.685 89.3337L671.285 89.4537V53.6937H688.805V140.094H672.965L671.885 132.534C670.285 134.854 667.925 136.854 664.805 138.534C661.685 140.134 658.205 140.934 654.365 140.934C649.325 140.934 644.805 139.694 640.805 137.214C636.885 134.654 633.805 131.054 631.565 126.414C629.325 121.774 628.205 116.334 628.205 110.094C628.205 103.774 629.325 98.3337 631.565 93.7737C633.805 89.1337 636.885 85.5737 640.805 83.0937C644.725 80.5337 649.245 79.2537 654.365 79.2537C658.925 79.2537 662.845 80.2537 666.125 82.2537C669.405 84.1737 671.925 86.5337 673.685 89.3337ZM647.045 110.094C647.045 114.494 648.165 118.054 650.405 120.774C652.645 123.414 655.565 124.734 659.165 124.734C661.325 124.734 663.325 124.174 665.165 123.054C667.005 121.934 668.485 120.294 669.605 118.134C670.725 115.974 671.285 113.294 671.285 110.094C671.285 106.894 670.725 104.214 669.605 102.054C668.485 99.8937 667.005 98.2537 665.165 97.1337C663.325 95.9337 661.325 95.3337 659.165 95.3337C655.485 95.3337 652.525 96.6937 650.285 99.4137C648.125 102.134 647.045 105.694 647.045 110.094Z"/>
</mask>
<path d="M462.003 83.2137L461.301 83.5978L461.602 84.148L462.209 83.9869L462.003 83.2137ZM453.123 73.9738L452.728 74.6693L452.737 74.6746L452.747 74.6796L453.123 73.9738ZM428.643 74.5737L429.07 75.2505L429.074 75.2481L428.643 74.5737ZM419.883 84.1737L419.176 83.7994L419.17 83.8104L419.883 84.1737ZM419.883 112.374L419.17 112.737L419.173 112.743L419.883 112.374ZM428.643 121.854L428.223 122.535L428.234 122.541L428.643 121.854ZM450.483 123.654L450.776 124.398L450.786 124.394L450.796 124.39L450.483 123.654ZM457.563 119.094L457.021 118.506L457.563 119.094ZM462.843 112.494L463.535 112.895L463.643 112.709V112.494H462.843ZM462.843 107.214H463.643V106.414H462.843V107.214ZM441.243 107.214H440.443V108.014H441.243V107.214ZM441.243 92.5737V91.7738H440.443V92.5737H441.243ZM480.243 92.5737H481.043V91.7738H480.243V92.5737ZM480.243 115.854L480.976 116.174L481.043 116.021V115.854H480.243ZM471.843 128.214L472.415 128.773L472.421 128.767L471.843 128.214ZM458.523 137.454L458.849 138.184L458.858 138.18L458.523 137.454ZM423.603 137.814L423.9 137.071L423.603 137.814ZM410.043 128.934L409.477 129.499L410.043 128.934ZM401.043 115.374L400.299 115.667L400.302 115.674L400.304 115.681L401.043 115.374ZM401.043 80.9337L400.303 80.6308L400.3 80.6366L401.043 80.9337ZM409.923 67.2537L409.357 66.688L409.352 66.694L409.923 67.2537ZM423.483 58.3737L423.186 57.631L423.483 58.3737ZM457.083 58.0137L456.813 58.7666L456.816 58.7679L457.083 58.0137ZM470.643 66.0537L470.103 66.6435L470.109 66.6496L470.643 66.0537ZM479.163 78.6537L479.369 79.4269L480.219 79.2008L479.913 78.3755L479.163 78.6537ZM462.705 82.8297C460.324 78.4787 457.261 75.2738 453.5 73.2679L452.747 74.6796C456.185 76.5137 459.042 79.4688 461.301 83.5978L462.705 82.8297ZM453.518 73.2782C449.868 71.2039 445.769 70.1737 441.243 70.1737V71.7737C445.517 71.7737 449.339 72.7436 452.728 74.6693L453.518 73.2782ZM441.243 70.1737C436.457 70.1737 432.107 71.4139 428.213 73.8994L429.074 75.2481C432.7 72.9336 436.749 71.7737 441.243 71.7737V70.1737ZM428.216 73.897C424.411 76.2962 421.397 79.6037 419.176 83.7994L420.59 84.5481C422.689 80.5838 425.515 77.4913 429.07 75.2505L428.216 73.897ZM419.17 83.8104C417.026 88.0173 415.963 92.7847 415.963 98.0938H417.563C417.563 93.0028 418.581 88.4902 420.596 84.5371L419.17 83.8104ZM415.963 98.0938C415.963 103.636 417.023 108.525 419.17 112.737L420.596 112.01C418.583 108.062 417.563 103.431 417.563 98.0938H415.963ZM419.173 112.743C421.319 116.868 424.337 120.137 428.223 122.535L429.063 121.173C425.429 118.93 422.608 115.879 420.593 112.005L419.173 112.743ZM428.234 122.541C432.135 124.865 436.681 126.014 441.843 126.014V124.414C436.925 124.414 432.671 123.322 429.053 121.166L428.234 122.541ZM441.843 126.014C445.053 126.014 448.034 125.478 450.776 124.398L450.19 122.909C447.652 123.909 444.873 124.414 441.843 124.414V126.014ZM450.796 124.39C453.519 123.235 455.957 121.665 458.106 119.682L457.021 118.506C455.009 120.363 452.727 121.833 450.171 122.917L450.796 124.39ZM458.106 119.682C460.245 117.707 462.055 115.444 463.535 112.895L462.151 112.092C460.751 114.504 459.041 116.641 457.021 118.506L458.106 119.682ZM463.643 112.494V107.214H462.043V112.494H463.643ZM462.843 106.414H441.243V108.014H462.843V106.414ZM442.043 107.214V92.5737H440.443V107.214H442.043ZM441.243 93.3737H480.243V91.7738H441.243V93.3737ZM479.443 92.5737V115.854H481.043V92.5737H479.443ZM479.51 115.534C477.631 119.839 474.887 123.881 471.266 127.66L472.421 128.767C476.159 124.867 479.015 120.669 480.976 116.174L479.51 115.534ZM471.271 127.654C467.665 131.339 463.307 134.365 458.188 136.727L458.858 138.18C464.139 135.743 468.661 132.609 472.415 128.773L471.271 127.654ZM458.197 136.723C453.115 138.99 447.309 140.134 440.763 140.134V141.734C447.497 141.734 453.531 140.557 458.849 138.184L458.197 136.723ZM440.763 140.134C434.613 140.134 428.996 139.109 423.9 137.071L423.306 138.557C428.611 140.678 434.433 141.734 440.763 141.734V140.134ZM423.9 137.071C418.798 135.03 414.37 132.129 410.609 128.368L409.477 129.499C413.396 133.418 418.009 136.438 423.306 138.557L423.9 137.071ZM410.609 128.368C406.846 124.605 403.903 120.174 401.782 115.067L400.304 115.681C402.503 120.974 405.561 125.583 409.477 129.499L410.609 128.368ZM401.787 115.081C399.748 109.903 398.723 104.243 398.723 98.0938H397.123C397.123 104.424 398.179 110.285 400.299 115.667L401.787 115.081ZM398.723 98.0938C398.723 91.9439 399.748 86.3262 401.786 81.2309L400.3 80.6366C398.178 85.9413 397.123 91.7636 397.123 98.0938H398.723ZM401.784 81.2367C403.907 76.0464 406.811 71.5751 410.495 67.8134L409.352 66.694C405.515 70.6124 402.499 75.2611 400.303 80.6308L401.784 81.2367ZM410.489 67.8194C414.25 64.0585 418.678 61.1576 423.78 59.1165L423.186 57.631C417.889 59.7499 413.276 62.769 409.357 66.6881L410.489 67.8194ZM423.78 59.1165C428.876 57.0784 434.493 56.0537 440.643 56.0537V54.4537C434.313 54.4537 428.491 55.5091 423.186 57.631L423.78 59.1165ZM440.643 56.0537C446.398 56.0537 451.786 56.96 456.813 58.7666L457.354 57.2609C452.141 55.3875 446.569 54.4537 440.643 54.4537V56.0537ZM456.816 58.7679C461.921 60.5742 466.346 63.2003 470.103 66.6435L471.184 65.464C467.26 61.8671 462.645 59.1333 457.35 57.2596L456.816 58.7679ZM470.109 66.6496C473.85 70.0006 476.617 74.0906 478.413 78.932L479.913 78.3755C478.029 73.2969 475.116 68.9869 471.177 65.4579L470.109 66.6496ZM478.958 77.8806L461.798 82.4406L462.209 83.9869L479.369 79.4269L478.958 77.8806ZM503.512 137.214L503.135 137.919L503.512 137.214ZM492.592 126.534L491.891 126.92L491.897 126.929L492.592 126.534ZM492.712 93.7738L492.022 93.3692L492.02 93.3729L492.712 93.7738ZM503.752 83.0937L504.129 83.7993L504.133 83.797L503.752 83.0937ZM535.312 83.0937L534.925 83.7942L534.933 83.7981L534.94 83.8019L535.312 83.0937ZM546.472 93.7738L545.782 94.1783L545.785 94.1836L546.472 93.7738ZM546.352 126.534L545.667 126.12L545.662 126.129L546.352 126.534ZM535.072 137.214L534.705 136.503L534.7 136.506L535.072 137.214ZM525.232 123.414L525.635 124.105L525.232 123.414ZM529.912 118.494L530.611 118.882L530.617 118.872L529.912 118.494ZM529.912 101.814L529.207 102.192L529.213 102.202L529.912 101.814ZM525.352 96.7737L525.768 96.0904L525.352 96.7737ZM513.472 96.7737L513.042 96.0988L513.472 96.7737ZM509.152 101.814L508.436 101.456L508.431 101.467L509.152 101.814ZM509.152 118.494L508.426 118.831L508.431 118.841L509.152 118.494ZM513.352 123.414L513.781 122.739L513.352 123.414ZM519.232 140.134C513.509 140.134 508.401 138.92 503.889 136.508L503.135 137.919C507.903 140.468 513.275 141.734 519.232 141.734V140.134ZM503.889 136.508C499.384 134.101 495.854 130.649 493.287 126.138L491.897 126.929C494.61 131.699 498.36 135.367 503.135 137.919L503.889 136.508ZM493.292 126.147C490.809 121.646 489.552 116.305 489.552 110.094H487.952C487.952 116.523 489.255 122.141 491.891 126.92L493.292 126.147ZM489.552 110.094C489.552 103.886 490.848 98.5905 493.404 94.1746L492.02 93.3729C489.296 98.077 487.952 103.661 487.952 110.094H489.552ZM493.402 94.1783C496.049 89.6626 499.622 86.2081 504.129 83.7993L503.375 82.3882C498.602 84.9394 494.815 88.6049 492.022 93.3692L493.402 94.1783ZM504.133 83.797C508.728 81.3051 513.835 80.0537 519.472 80.0537V78.4537C513.589 78.4537 508.216 79.7624 503.37 82.3905L504.133 83.797ZM519.472 80.0537C525.273 80.0537 530.417 81.3069 534.925 83.7942L535.698 82.3933C530.927 79.7606 525.511 78.4537 519.472 78.4537V80.0537ZM534.94 83.8019C539.526 86.2118 543.137 89.6661 545.782 94.1783L547.162 93.3692C544.367 88.6014 540.537 84.9357 535.684 82.3856L534.94 83.8019ZM545.785 94.1836C548.419 98.5994 549.752 103.852 549.752 109.974H551.352C551.352 103.615 549.965 98.0681 547.159 93.3639L545.785 94.1836ZM549.752 109.974C549.752 116.255 548.379 121.626 545.667 126.12L547.037 126.947C549.925 122.161 551.352 116.493 551.352 109.974H549.752ZM545.662 126.129C543.019 130.638 539.371 134.092 534.705 136.503L535.439 137.924C540.373 135.375 544.245 131.709 547.042 126.938L545.662 126.129ZM534.7 136.506C530.105 138.92 524.955 140.134 519.232 140.134V141.734C525.189 141.734 530.599 140.468 535.444 137.922L534.7 136.506ZM519.232 125.894C521.463 125.894 523.601 125.291 525.635 124.105L524.829 122.723C523.022 123.776 521.16 124.294 519.232 124.294V125.894ZM525.635 124.105C527.693 122.904 529.349 121.153 530.611 118.882L529.213 118.105C528.074 120.154 526.611 121.683 524.829 122.723L525.635 124.105ZM530.617 118.872C531.896 116.484 532.512 113.545 532.512 110.094H530.912C530.912 113.363 530.328 116.024 529.207 118.116L530.617 118.872ZM532.512 110.094C532.512 106.645 531.897 103.739 530.611 101.425L529.213 102.202C530.327 104.208 530.912 106.823 530.912 110.094H532.512ZM530.617 101.436C529.362 99.0929 527.75 97.297 525.768 96.0904L524.936 97.4571C526.634 98.4905 528.062 100.055 529.207 102.192L530.617 101.436ZM525.768 96.0904C523.807 94.8969 521.704 94.2937 519.472 94.2937V95.8937C521.4 95.8937 523.217 96.4105 524.936 97.4571L525.768 96.0904ZM519.472 94.2937C517.091 94.2937 514.94 94.8911 513.042 96.0988L513.901 97.4487C515.523 96.4164 517.372 95.8937 519.472 95.8937V94.2937ZM513.042 96.0988C511.138 97.311 509.608 99.1124 508.436 101.456L509.867 102.172C510.936 100.035 512.286 98.4765 513.901 97.4487L513.042 96.0988ZM508.431 101.467C507.322 103.769 506.792 106.659 506.792 110.094H508.392C508.392 106.809 508.901 104.178 509.873 102.161L508.431 101.467ZM506.792 110.094C506.792 113.53 507.323 116.454 508.426 118.831L509.877 118.157C508.901 116.053 508.392 113.377 508.392 110.094H506.792ZM508.431 118.841C509.526 121.115 511.019 122.877 512.922 124.089L513.781 122.739C512.165 121.71 510.858 120.193 509.873 118.147L508.431 118.841ZM512.922 124.089C514.815 125.293 516.925 125.894 519.232 125.894V124.294C517.218 124.294 515.408 123.774 513.781 122.739L512.922 124.089ZM573.238 137.214L572.861 137.919L573.238 137.214ZM562.318 126.534L561.618 126.92L561.623 126.929L562.318 126.534ZM562.438 93.7738L561.748 93.3692L561.746 93.3729L562.438 93.7738ZM573.478 83.0937L573.856 83.7993L573.86 83.797L573.478 83.0937ZM605.038 83.0937L604.652 83.7942L604.659 83.7981L604.666 83.8019L605.038 83.0937ZM616.198 93.7738L615.508 94.1783L615.511 94.1836L616.198 93.7738ZM616.078 126.534L615.393 126.12L615.388 126.129L616.078 126.534ZM604.798 137.214L604.431 136.503L604.426 136.506L604.798 137.214ZM594.958 123.414L595.362 124.105L594.958 123.414ZM599.638 118.494L600.338 118.882L600.344 118.872L599.638 118.494ZM599.638 101.814L598.933 102.192L598.939 102.202L599.638 101.814ZM595.078 96.7737L595.494 96.0904L595.078 96.7737ZM583.198 96.7737L582.769 96.0988L583.198 96.7737ZM578.878 101.814L578.163 101.456L578.158 101.467L578.878 101.814ZM578.878 118.494L578.153 118.831L578.158 118.841L578.878 118.494ZM583.078 123.414L583.508 122.739L583.078 123.414ZM588.958 140.134C583.235 140.134 578.127 138.92 573.616 136.508L572.861 137.919C577.63 140.468 583.002 141.734 588.958 141.734V140.134ZM573.616 136.508C569.111 134.101 565.58 130.649 563.014 126.138L561.623 126.929C564.337 131.699 568.086 135.367 572.861 137.919L573.616 136.508ZM563.019 126.147C560.536 121.646 559.278 116.305 559.278 110.094H557.678C557.678 116.523 558.981 122.141 561.618 126.92L563.019 126.147ZM559.278 110.094C559.278 103.886 560.574 98.5905 563.131 94.1746L561.746 93.3729C559.023 98.077 557.678 103.661 557.678 110.094H559.278ZM563.129 94.1783C565.776 89.6626 569.349 86.2081 573.856 83.7993L573.101 82.3882C568.328 84.9394 564.541 88.6049 561.748 93.3692L563.129 94.1783ZM573.86 83.797C578.454 81.3051 583.562 80.0537 589.198 80.0537V78.4537C583.315 78.4537 577.943 79.7624 573.097 82.3905L573.86 83.797ZM589.198 80.0537C594.999 80.0537 600.144 81.3069 604.652 83.7942L605.425 82.3933C600.653 79.7606 595.237 78.4537 589.198 78.4537V80.0537ZM604.666 83.8019C609.253 86.2118 612.863 89.6661 615.508 94.1783L616.889 93.3692C614.094 88.6014 610.264 84.9357 605.411 82.3856L604.666 83.8019ZM615.511 94.1836C618.145 98.5994 619.478 103.852 619.478 109.974H621.078C621.078 103.615 619.691 98.0681 616.885 93.3639L615.511 94.1836ZM619.478 109.974C619.478 116.255 618.106 121.626 615.393 126.12L616.763 126.947C619.651 122.161 621.078 116.493 621.078 109.974H619.478ZM615.388 126.129C612.745 130.638 609.097 134.092 604.431 136.503L605.166 137.924C610.099 135.375 613.972 131.709 616.769 126.938L615.388 126.129ZM604.426 136.506C599.832 138.92 594.681 140.134 588.958 140.134V141.734C594.915 141.734 600.325 140.468 605.171 137.922L604.426 136.506ZM588.958 125.894C591.19 125.894 593.328 125.291 595.362 124.105L594.555 122.723C592.749 123.776 590.887 124.294 588.958 124.294V125.894ZM595.362 124.105C597.419 122.904 599.076 121.153 600.338 118.882L598.939 118.105C597.801 120.154 596.338 121.683 594.555 122.723L595.362 124.105ZM600.344 118.872C601.623 116.484 602.238 113.545 602.238 110.094H600.638C600.638 113.363 600.054 116.024 598.933 118.116L600.344 118.872ZM602.238 110.094C602.238 106.645 601.623 103.739 600.338 101.425L598.939 102.202C600.054 104.208 600.638 106.823 600.638 110.094H602.238ZM600.344 101.436C599.088 99.0929 597.477 97.297 595.494 96.0904L594.662 97.4571C596.36 98.4905 597.788 100.055 598.933 102.192L600.344 101.436ZM595.494 96.0904C593.534 94.8969 591.431 94.2937 589.198 94.2937V95.8937C591.126 95.8937 592.943 96.4105 594.662 97.4571L595.494 96.0904ZM589.198 94.2937C586.818 94.2937 584.667 94.8911 582.769 96.0988L583.628 97.4487C585.25 96.4164 587.099 95.8937 589.198 95.8937V94.2937ZM582.769 96.0988C580.864 97.311 579.335 99.1124 578.163 101.456L579.594 102.172C580.662 100.035 582.013 98.4765 583.628 97.4487L582.769 96.0988ZM578.158 101.467C577.049 103.769 576.518 106.659 576.518 110.094H578.118C578.118 106.809 578.628 104.178 579.599 102.161L578.158 101.467ZM576.518 110.094C576.518 113.53 577.049 116.454 578.153 118.831L579.604 118.157C578.627 116.053 578.118 113.377 578.118 110.094H576.518ZM578.158 118.841C579.252 121.115 580.745 122.877 582.649 124.089L583.508 122.739C581.892 121.71 580.584 120.193 579.599 118.147L578.158 118.841ZM582.649 124.089C584.542 125.293 586.652 125.894 588.958 125.894V124.294C586.945 124.294 585.135 123.774 583.508 122.739L582.649 124.089ZM673.685 89.3337L673.725 90.1328L675.089 90.0645L674.362 88.908L673.685 89.3337ZM671.285 89.4537H670.485V90.2947L671.325 90.2527L671.285 89.4537ZM671.285 53.6937V52.8937H670.485V53.6937H671.285ZM688.805 53.6937H689.605V52.8937H688.805V53.6937ZM688.805 140.094V140.894H689.605V140.094H688.805ZM672.965 140.094L672.173 140.207L672.271 140.894H672.965V140.094ZM671.885 132.534L672.677 132.421L672.388 130.396L671.226 132.08L671.885 132.534ZM664.805 138.534L665.17 139.246L665.177 139.242L665.184 139.238L664.805 138.534ZM640.805 137.214L640.368 137.884L640.375 137.889L640.383 137.894L640.805 137.214ZM631.565 126.414L632.285 126.066L631.565 126.414ZM631.565 93.7738L632.283 94.1265L632.285 94.1216L631.565 93.7738ZM640.805 83.0937L641.233 83.7699L641.242 83.7636L640.805 83.0937ZM666.125 82.2537L665.709 82.9368L665.715 82.9405L665.721 82.9442L666.125 82.2537ZM650.405 120.774L649.787 121.282L649.795 121.291L650.405 120.774ZM665.165 123.054L664.749 122.37L665.165 123.054ZM669.605 118.134L668.895 117.765L669.605 118.134ZM669.605 102.054L668.895 102.422L669.605 102.054ZM665.165 97.1338L664.728 97.8038L664.738 97.8106L664.749 97.8171L665.165 97.1338ZM650.285 99.4137L649.667 98.9052L649.663 98.9107L649.659 98.9162L650.285 99.4137ZM673.645 88.5347L671.245 88.6547L671.325 90.2527L673.725 90.1328L673.645 88.5347ZM672.085 89.4537V53.6937H670.485V89.4537H672.085ZM671.285 54.4937H688.805V52.8937H671.285V54.4937ZM688.005 53.6937V140.094H689.605V53.6937H688.005ZM688.805 139.294H672.965V140.894H688.805V139.294ZM673.757 139.981L672.677 132.421L671.093 132.647L672.173 140.207L673.757 139.981ZM671.226 132.08C669.715 134.272 667.462 136.194 664.426 137.829L665.184 139.238C668.388 137.513 670.855 135.436 672.544 132.988L671.226 132.08ZM664.44 137.822C661.443 139.359 658.09 140.134 654.365 140.134V141.734C658.32 141.734 661.927 140.909 665.17 139.246L664.44 137.822ZM654.365 140.134C649.463 140.134 645.091 138.93 641.227 136.534L640.383 137.894C644.519 140.458 649.187 141.734 654.365 141.734V140.134ZM641.242 136.544C637.456 134.071 634.469 130.588 632.285 126.066L630.845 126.762C633.141 131.519 636.314 135.236 640.368 137.884L641.242 136.544ZM632.285 126.066C630.108 121.555 629.005 116.238 629.005 110.094H627.405C627.405 116.429 628.542 121.993 630.845 126.762L632.285 126.066ZM629.005 110.094C629.005 103.867 630.108 98.5532 632.283 94.1265L630.847 93.421C628.542 98.1143 627.405 103.681 627.405 110.094H629.005ZM632.285 94.1216C634.468 89.6008 637.453 86.1612 641.233 83.7698L640.377 82.4177C636.317 84.9863 633.142 88.6667 630.845 93.4259L632.285 94.1216ZM641.242 83.7636C645.02 81.2964 649.385 80.0537 654.365 80.0537V78.4537C649.105 78.4537 644.43 79.7711 640.368 82.4239L641.242 83.7636ZM654.365 80.0537C658.806 80.0537 662.576 81.0265 665.709 82.9368L666.542 81.5707C663.114 79.481 659.044 78.4537 654.365 78.4537V80.0537ZM665.721 82.9442C668.906 84.8089 671.326 87.0836 673.008 89.7595L674.362 88.908C672.524 85.9839 669.904 83.5386 666.529 81.5633L665.721 82.9442ZM646.245 110.094C646.245 114.632 647.403 118.386 649.787 121.282L651.023 120.265C648.927 117.721 647.845 114.356 647.845 110.094H646.245ZM649.795 121.291C652.194 124.118 655.341 125.534 659.165 125.534V123.934C655.789 123.934 653.096 122.709 651.015 120.256L649.795 121.291ZM659.165 125.534C661.471 125.534 663.615 124.934 665.581 123.737L664.749 122.37C663.035 123.414 661.179 123.934 659.165 123.934V125.534ZM665.581 123.737C667.562 122.531 669.137 120.775 670.315 118.502L668.895 117.765C667.833 119.813 666.448 121.336 664.749 122.37L665.581 123.737ZM670.315 118.502C671.51 116.198 672.085 113.383 672.085 110.094H670.485C670.485 113.204 669.94 115.749 668.895 117.765L670.315 118.502ZM672.085 110.094C672.085 106.804 671.51 103.989 670.315 101.685L668.895 102.422C669.94 104.438 670.485 106.983 670.485 110.094H672.085ZM670.315 101.685C669.137 99.4128 667.562 97.656 665.581 96.4504L664.749 97.8171C666.448 98.8515 667.833 100.375 668.895 102.422L670.315 101.685ZM665.602 96.4637C663.634 95.1804 661.483 94.5337 659.165 94.5337V96.1337C661.167 96.1337 663.016 96.6871 664.728 97.8038L665.602 96.4637ZM659.165 94.5337C655.258 94.5337 652.067 95.9914 649.667 98.9052L650.903 99.9223C652.983 97.3961 655.712 96.1337 659.165 96.1337V94.5337ZM649.659 98.9162C647.359 101.812 646.245 105.562 646.245 110.094H647.845C647.845 105.825 648.891 102.456 650.911 99.9113L649.659 98.9162Z" fill="black" mask="url(#path-4-outside-2_9132_8715)"/>
<path d="M458.409 79.6122C456.089 75.3722 453.129 72.2922 449.529 70.3722C446.009 68.3722 442.049 67.3722 437.649 67.3722C433.009 67.3722 428.809 68.5722 425.049 70.9722C421.369 73.2922 418.449 76.4922 416.289 80.5722C414.209 84.6522 413.169 89.2922 413.169 94.4922C413.169 99.9322 414.209 104.692 416.289 108.772C418.369 112.772 421.289 115.932 425.049 118.252C428.809 120.492 433.209 121.612 438.249 121.612C441.369 121.612 444.249 121.092 446.889 120.052C449.529 118.932 451.889 117.412 453.969 115.492C456.049 113.572 457.809 111.372 459.249 108.892V103.612H437.649V88.9722H476.649V112.252C474.729 116.652 471.929 120.772 468.249 124.612C464.569 128.372 460.129 131.452 454.929 133.852C449.729 136.172 443.809 137.332 437.169 137.332C430.929 137.332 425.209 136.292 420.009 134.212C414.809 132.132 410.289 129.172 406.449 125.332C402.609 121.492 399.609 116.972 397.449 111.772C395.369 106.492 394.329 100.732 394.329 94.4922C394.329 88.2522 395.369 82.5322 397.449 77.3322C399.609 72.0522 402.569 67.4922 406.329 63.6522C410.169 59.8122 414.689 56.8522 419.889 54.7722C425.089 52.6922 430.809 51.6522 437.049 51.6522C442.889 51.6522 448.369 52.5722 453.489 54.4122C458.689 56.2522 463.209 58.9322 467.049 62.4522C470.889 65.8922 473.729 70.0922 475.569 75.0522L458.409 79.6122ZM515.638 137.332C509.798 137.332 504.558 136.092 499.918 133.612C495.278 131.132 491.638 127.572 488.998 122.932C486.438 118.292 485.158 112.812 485.158 106.492C485.158 100.172 486.478 94.7322 489.118 90.1722C491.838 85.5322 495.518 81.9722 500.158 79.4922C504.878 76.9322 510.118 75.6522 515.878 75.6522C521.798 75.6522 527.078 76.9322 531.718 79.4922C536.438 81.9722 540.158 85.5322 542.878 90.1722C545.598 94.7322 546.958 100.132 546.958 106.372C546.958 112.772 545.558 118.292 542.758 122.932C540.038 127.572 536.278 131.132 531.478 133.612C526.758 136.092 521.478 137.332 515.638 137.332ZM515.638 121.492C517.718 121.492 519.718 120.932 521.638 119.812C523.558 118.692 525.118 117.052 526.318 114.892C527.518 112.652 528.118 109.852 528.118 106.492C528.118 103.132 527.518 100.372 526.318 98.2122C525.118 95.9722 523.598 94.2922 521.758 93.1722C519.918 92.0522 517.958 91.4922 515.878 91.4922C513.638 91.4922 511.638 92.0522 509.878 93.1722C508.118 94.2922 506.678 95.9722 505.558 98.2122C504.518 100.372 503.998 103.132 503.998 106.492C503.998 109.852 504.518 112.652 505.558 114.892C506.598 117.052 507.998 118.692 509.758 119.812C511.518 120.932 513.478 121.492 515.638 121.492ZM585.365 137.332C579.525 137.332 574.285 136.092 569.645 133.612C565.005 131.132 561.365 127.572 558.725 122.932C556.165 118.292 554.885 112.812 554.885 106.492C554.885 100.172 556.205 94.7322 558.845 90.1722C561.565 85.5322 565.245 81.9722 569.885 79.4922C574.605 76.9322 579.845 75.6522 585.605 75.6522C591.525 75.6522 596.805 76.9322 601.445 79.4922C606.165 81.9722 609.885 85.5322 612.605 90.1722C615.325 94.7322 616.685 100.132 616.685 106.372C616.685 112.772 615.285 118.292 612.485 122.932C609.765 127.572 606.005 131.132 601.205 133.612C596.485 136.092 591.205 137.332 585.365 137.332ZM585.365 121.492C587.445 121.492 589.445 120.932 591.365 119.812C593.285 118.692 594.845 117.052 596.045 114.892C597.245 112.652 597.845 109.852 597.845 106.492C597.845 103.132 597.245 100.372 596.045 98.2122C594.845 95.9722 593.325 94.2922 591.485 93.1722C589.645 92.0522 587.685 91.4922 585.605 91.4922C583.365 91.4922 581.365 92.0522 579.605 93.1722C577.845 94.2922 576.405 95.9722 575.285 98.2122C574.245 100.372 573.725 103.132 573.725 106.492C573.725 109.852 574.245 112.652 575.285 114.892C576.325 117.052 577.725 118.692 579.485 119.812C581.245 120.932 583.205 121.492 585.365 121.492ZM670.091 85.7322L667.691 85.8522V50.0922H685.211V136.492H669.371L668.291 128.932C666.691 131.252 664.331 133.252 661.211 134.932C658.091 136.532 654.611 137.332 650.771 137.332C645.731 137.332 641.211 136.092 637.211 133.612C633.291 131.052 630.211 127.452 627.971 122.812C625.731 118.172 624.611 112.732 624.611 106.492C624.611 100.172 625.731 94.7322 627.971 90.1722C630.211 85.5322 633.291 81.9722 637.211 79.4922C641.131 76.9322 645.651 75.6522 650.771 75.6522C655.331 75.6522 659.251 76.6522 662.531 78.6522C665.811 80.5722 668.331 82.9322 670.091 85.7322ZM643.451 106.492C643.451 110.892 644.571 114.452 646.811 117.172C649.051 119.812 651.971 121.132 655.571 121.132C657.731 121.132 659.731 120.572 661.571 119.452C663.411 118.332 664.891 116.692 666.011 114.532C667.131 112.372 667.691 109.692 667.691 106.492C667.691 103.292 667.131 100.612 666.011 98.4522C664.891 96.2922 663.411 94.6522 661.571 93.5322C659.731 92.3322 657.731 91.7322 655.571 91.7322C651.891 91.7322 648.931 93.0922 646.691 95.8122C644.531 98.5322 643.451 102.092 643.451 106.492Z" fill="#6A0600"/>
<mask id="path-7-outside-3_9132_8715" maskUnits="userSpaceOnUse" x="737.84" y="52.0273" width="402" height="113" fill="black">
<rect fill="white" x="737.84" y="52.0273" width="402" height="113"/>
<path d="M786.96 71.5073H782.76L758.76 140.027H739.68L770.04 56.0273H800.04L830.28 140.027H811.2L786.96 71.5073ZM759.96 106.427H808.92V121.907H759.96V106.427ZM837.669 53.6273H855.189V140.027H837.669V53.6273ZM899.45 140.027H880.97L864.05 80.0273H882.29L890.69 116.507L899.93 80.0273H917.81L926.81 116.747L935.21 80.0273H953.33L936.41 140.027H917.33L908.45 105.587L899.45 140.027ZM994.927 140.027L993.727 132.587C991.647 135.147 989.407 137.147 987.007 138.587C984.607 140.027 981.407 140.747 977.407 140.747C973.647 140.747 970.287 140.107 967.327 138.827C964.367 137.467 962.007 135.507 960.247 132.947C958.567 130.387 957.727 127.307 957.727 123.707C957.727 118.747 959.487 114.627 963.007 111.347C966.607 108.067 972.167 106.027 979.687 105.227L993.727 103.667V99.7073C993.727 98.3473 993.047 97.0273 991.687 95.7473C990.407 94.3873 988.367 93.7073 985.567 93.7073C983.087 93.7073 980.927 94.3473 979.087 95.6273C977.327 96.9073 976.127 98.7473 975.487 101.147L960.487 95.7473C962.247 90.3873 965.327 86.3073 969.727 83.5073C974.207 80.6273 979.727 79.1873 986.287 79.1873C994.447 79.1873 1000.65 81.2273 1004.89 85.3073C1009.13 89.3873 1011.25 94.8673 1011.25 101.747V140.027H994.927ZM993.727 114.467L982.567 115.787C980.327 116.107 978.607 116.827 977.407 117.947C976.287 118.987 975.727 120.307 975.727 121.907C975.727 123.427 976.367 124.707 977.647 125.747C978.927 126.787 980.687 127.307 982.927 127.307C985.167 127.307 987.087 126.867 988.687 125.987C990.287 125.027 991.527 123.707 992.407 122.027C993.287 120.267 993.727 118.107 993.727 115.547V114.467ZM1062.93 80.0273H1081.89L1046.37 164.027H1028.49L1040.37 137.267L1016.61 80.0273H1036.17L1049.49 115.907L1062.93 80.0273ZM1103.64 120.347C1104.04 121.947 1104.68 123.187 1105.56 124.067C1106.52 124.947 1107.64 125.587 1108.92 125.987C1110.2 126.387 1111.52 126.587 1112.88 126.587C1115.36 126.587 1117.28 126.147 1118.64 125.267C1120 124.387 1120.68 123.267 1120.68 121.907C1120.68 120.547 1120.16 119.547 1119.12 118.907C1118.16 118.187 1116.88 117.627 1115.28 117.227C1113.68 116.747 1112 116.307 1110.24 115.907C1108.24 115.427 1106 114.867 1103.52 114.227C1101.04 113.507 1098.68 112.547 1096.44 111.347C1094.2 110.067 1092.36 108.387 1090.92 106.307C1089.48 104.147 1088.76 101.467 1088.76 98.2673C1088.76 94.5873 1089.76 91.3073 1091.76 88.4273C1093.76 85.5473 1096.6 83.3073 1100.28 81.7073C1103.96 80.0273 1108.32 79.1873 1113.36 79.1873C1119.52 79.1873 1124.56 80.4673 1128.48 83.0273C1132.4 85.5873 1135.2 89.1873 1136.88 93.8273L1121.64 97.6673C1121.24 96.6273 1120.64 95.8273 1119.84 95.2673C1119.04 94.6273 1118.04 94.1873 1116.84 93.9473C1115.72 93.6273 1114.6 93.4673 1113.48 93.4673C1111.4 93.4673 1109.76 93.8673 1108.56 94.6673C1107.36 95.4673 1106.76 96.4673 1106.76 97.6673C1106.76 98.4673 1107 99.1473 1107.48 99.7073C1108.04 100.267 1108.76 100.707 1109.64 101.027C1110.6 101.347 1111.68 101.627 1112.88 101.867C1114.16 102.107 1115.52 102.427 1116.96 102.827C1119.36 103.387 1121.8 104.067 1124.28 104.867C1126.84 105.667 1129.2 106.747 1131.36 108.107C1133.52 109.387 1135.28 111.147 1136.64 113.387C1138 115.547 1138.72 118.347 1138.8 121.787C1138.8 125.307 1137.8 128.547 1135.8 131.507C1133.8 134.387 1130.88 136.667 1127.04 138.347C1123.2 140.027 1118.52 140.867 1113 140.867C1106.36 140.867 1100.8 139.507 1096.32 136.787C1091.84 134.067 1089 129.867 1087.8 124.187L1103.64 120.347Z"/>
</mask>
<path d="M786.96 71.5073L787.714 71.2405L787.525 70.7073H786.96V71.5073ZM782.76 71.5073V70.7073H782.192L782.005 71.2429L782.76 71.5073ZM758.76 140.027V140.827H759.327L759.515 140.292L758.76 140.027ZM739.68 140.027L738.927 139.755L738.54 140.827H739.68V140.027ZM770.04 56.0273V55.2273H769.478L769.287 55.7554L770.04 56.0273ZM800.04 56.0273L800.793 55.7564L800.602 55.2273H800.04V56.0273ZM830.28 140.027V140.827H831.418L831.033 139.756L830.28 140.027ZM811.2 140.027L810.446 140.294L810.634 140.827H811.2V140.027ZM759.96 106.427V105.627H759.16V106.427H759.96ZM808.92 106.427H809.72V105.627H808.92V106.427ZM808.92 121.907V122.707H809.72V121.907H808.92ZM759.96 121.907H759.16V122.707H759.96V121.907ZM786.96 70.7073H782.76V72.3073H786.96V70.7073ZM782.005 71.2429L758.005 139.763L759.515 140.292L783.515 71.7718L782.005 71.2429ZM758.76 139.227H739.68V140.827H758.76V139.227ZM740.432 140.299L770.792 56.2993L769.287 55.7554L738.927 139.755L740.432 140.299ZM770.04 56.8273H800.04V55.2273H770.04V56.8273ZM799.287 56.2983L829.527 140.298L831.033 139.756L800.793 55.7564L799.287 56.2983ZM830.28 139.227H811.2V140.827H830.28V139.227ZM811.954 139.761L787.714 71.2405L786.206 71.7741L810.446 140.294L811.954 139.761ZM759.96 107.227H808.92V105.627H759.96V107.227ZM808.12 106.427V121.907H809.72V106.427H808.12ZM808.92 121.107H759.96V122.707H808.92V121.107ZM760.76 121.907V106.427H759.16V121.907H760.76ZM837.669 53.6273V52.8273H836.869V53.6273H837.669ZM855.189 53.6273H855.989V52.8273H855.189V53.6273ZM855.189 140.027V140.827H855.989V140.027H855.189ZM837.669 140.027H836.869V140.827H837.669V140.027ZM837.669 54.4273H855.189V52.8273H837.669V54.4273ZM854.389 53.6273V140.027H855.989V53.6273H854.389ZM855.189 139.227H837.669V140.827H855.189V139.227ZM838.469 140.027V53.6273H836.869V140.027H838.469ZM899.45 140.027V140.827H900.067L900.224 140.23L899.45 140.027ZM880.97 140.027L880.2 140.244L880.364 140.827H880.97V140.027ZM864.05 80.0273V79.2273H862.993L863.28 80.2445L864.05 80.0273ZM882.29 80.0273L883.069 79.8478L882.926 79.2273H882.29V80.0273ZM890.69 116.507L889.91 116.687L891.465 116.704L890.69 116.507ZM899.93 80.0273V79.2273H899.307L899.154 79.8309L899.93 80.0273ZM917.81 80.0273L918.587 79.8369L918.437 79.2273H917.81V80.0273ZM926.81 116.747L926.033 116.938L927.589 116.926L926.81 116.747ZM935.21 80.0273V79.2273H934.572L934.43 79.8489L935.21 80.0273ZM953.33 80.0273L954.1 80.2445L954.386 79.2273H953.33V80.0273ZM936.41 140.027V140.827H937.015L937.18 140.244L936.41 140.027ZM917.33 140.027L916.555 140.227L916.71 140.827H917.33V140.027ZM908.45 105.587L909.224 105.388L908.455 102.403L907.676 105.385L908.45 105.587ZM899.45 139.227H880.97V140.827H899.45V139.227ZM881.74 139.81L864.82 79.8102L863.28 80.2445L880.2 140.244L881.74 139.81ZM864.05 80.8273H882.29V79.2273H864.05V80.8273ZM881.51 80.2069L889.91 116.687L891.469 116.328L883.069 79.8478L881.51 80.2069ZM891.465 116.704L900.705 80.2238L899.154 79.8309L889.914 116.311L891.465 116.704ZM899.93 80.8273H917.81V79.2273H899.93V80.8273ZM917.033 80.2178L926.033 116.938L927.587 116.557L918.587 79.8369L917.033 80.2178ZM927.589 116.926L935.989 80.2057L934.43 79.8489L926.03 116.569L927.589 116.926ZM935.21 80.8273H953.33V79.2273H935.21V80.8273ZM952.56 79.8102L935.64 139.81L937.18 140.244L954.1 80.2445L952.56 79.8102ZM936.41 139.227H917.33V140.827H936.41V139.227ZM918.104 139.828L909.224 105.388L907.675 105.787L916.555 140.227L918.104 139.828ZM907.676 105.385L898.676 139.825L900.224 140.23L909.224 105.79L907.676 105.385ZM994.927 140.027L994.138 140.155L994.246 140.827H994.927V140.027ZM993.727 132.587L994.517 132.46L994.233 130.697L993.106 132.083L993.727 132.587ZM987.007 138.587L987.419 139.273L987.007 138.587ZM967.327 138.827L966.993 139.554L967.002 139.558L967.01 139.562L967.327 138.827ZM960.247 132.947L959.579 133.386L959.583 133.393L959.588 133.401L960.247 132.947ZM963.007 111.347L962.469 110.756L962.462 110.762L963.007 111.347ZM979.687 105.227L979.772 106.023L979.776 106.022L979.687 105.227ZM993.727 103.667L993.816 104.462L994.527 104.383V103.667H993.727ZM991.687 95.7473L991.105 96.2956L991.121 96.3133L991.139 96.3299L991.687 95.7473ZM979.087 95.6273L978.63 94.9706L978.624 94.9754L978.617 94.9804L979.087 95.6273ZM975.487 101.147L975.216 101.9L976.036 102.195L976.26 101.353L975.487 101.147ZM960.487 95.7473L959.727 95.4978L959.485 96.2366L960.216 96.5001L960.487 95.7473ZM969.727 83.5073L970.157 84.1823L970.16 84.1803L969.727 83.5073ZM1011.25 140.027V140.827H1012.05V140.027H1011.25ZM993.727 114.467H994.527V113.567L993.633 113.673L993.727 114.467ZM982.567 115.787L982.473 114.993L982.464 114.994L982.454 114.995L982.567 115.787ZM977.407 117.947L977.952 118.534L977.953 118.532L977.407 117.947ZM988.687 125.987L989.073 126.688L989.086 126.681L989.099 126.673L988.687 125.987ZM992.407 122.027L993.116 122.399L993.12 122.392L993.123 122.385L992.407 122.027ZM995.717 139.9L994.517 132.46L992.938 132.715L994.138 140.155L995.717 139.9ZM993.106 132.083C991.075 134.583 988.903 136.517 986.596 137.901L987.419 139.273C989.912 137.778 992.22 135.711 994.348 133.092L993.106 132.083ZM986.596 137.901C984.362 139.241 981.321 139.947 977.407 139.947V141.547C981.493 141.547 984.852 140.813 987.419 139.273L986.596 137.901ZM977.407 139.947C973.739 139.947 970.489 139.323 967.645 138.093L967.01 139.562C970.085 140.892 973.556 141.547 977.407 141.547V139.947ZM967.661 138.1C964.826 136.798 962.581 134.929 960.907 132.494L959.588 133.401C961.434 136.085 963.909 138.137 966.993 139.554L967.661 138.1ZM960.916 132.508C959.336 130.1 958.527 127.179 958.527 123.707H956.927C956.927 127.435 957.799 130.674 959.579 133.386L960.916 132.508ZM958.527 123.707C958.527 118.962 960.201 115.056 963.553 111.933L962.462 110.762C958.774 114.199 956.927 118.533 956.927 123.707H958.527ZM963.546 111.939C966.968 108.821 972.334 106.814 979.772 106.023L979.603 104.432C972.001 105.241 966.247 107.314 962.469 110.756L963.546 111.939ZM979.776 106.022L993.816 104.462L993.639 102.872L979.599 104.432L979.776 106.022ZM994.527 103.667V99.7073H992.927V103.667H994.527ZM994.527 99.7073C994.527 98.0542 993.694 96.5377 992.236 95.1648L991.139 96.3299C992.4 97.517 992.927 98.6405 992.927 99.7073H994.527ZM992.27 95.1991C990.777 93.6129 988.478 92.9073 985.567 92.9073V94.5073C988.257 94.5073 990.038 95.1618 991.105 96.2956L992.27 95.1991ZM985.567 92.9073C982.942 92.9073 980.619 93.5875 978.63 94.9706L979.544 96.2841C981.236 95.1072 983.233 94.5073 985.567 94.5073V92.9073ZM978.617 94.9804C976.688 96.3833 975.395 98.3904 974.714 100.941L976.26 101.353C976.86 99.1043 977.967 97.4314 979.558 96.2743L978.617 94.9804ZM975.758 100.395L960.758 94.9946L960.216 96.5001L975.216 101.9L975.758 100.395ZM961.247 95.9969C962.955 90.7972 965.926 86.8746 970.157 84.1823L969.298 82.8324C964.729 85.7401 961.54 89.9774 959.727 95.4978L961.247 95.9969ZM970.16 84.1803C974.484 81.4006 979.845 79.9873 986.287 79.9873V78.3873C979.61 78.3873 973.931 79.8541 969.295 82.8344L970.16 84.1803ZM986.287 79.9873C994.322 79.9873 1000.29 81.995 1004.33 85.8838L1005.44 84.7309C1001 80.4597 994.573 78.3873 986.287 78.3873V79.9873ZM1004.33 85.8838C1008.39 89.7874 1010.45 95.0449 1010.45 101.747H1012.05C1012.05 94.6898 1009.87 88.9873 1005.44 84.7309L1004.33 85.8838ZM1010.45 101.747V140.027H1012.05V101.747H1010.45ZM1011.25 139.227H994.927V140.827H1011.25V139.227ZM993.633 113.673L982.473 114.993L982.661 116.582L993.821 115.262L993.633 113.673ZM982.454 114.995C980.112 115.33 978.219 116.096 976.861 117.362L977.953 118.532C978.996 117.559 980.543 116.885 982.68 116.579L982.454 114.995ZM976.863 117.361C975.572 118.56 974.927 120.097 974.927 121.907H976.527C976.527 120.518 977.003 119.414 977.952 118.534L976.863 117.361ZM974.927 121.907C974.927 123.691 975.694 125.191 977.143 126.368L978.152 125.126C977.041 124.224 976.527 123.164 976.527 121.907H974.927ZM977.143 126.368C978.609 127.56 980.569 128.107 982.927 128.107V126.507C980.805 126.507 979.245 126.015 978.152 125.126L977.143 126.368ZM982.927 128.107C985.272 128.107 987.331 127.646 989.073 126.688L988.302 125.286C986.844 126.088 985.063 126.507 982.927 126.507V128.107ZM989.099 126.673C990.827 125.636 992.169 124.207 993.116 122.399L991.699 121.656C990.886 123.208 989.748 124.418 988.276 125.301L989.099 126.673ZM993.123 122.385C994.073 120.486 994.527 118.196 994.527 115.547H992.927C992.927 118.019 992.502 120.049 991.692 121.67L993.123 122.385ZM994.527 115.547V114.467H992.927V115.547H994.527ZM1062.93 80.0273V79.2273H1062.38L1062.18 79.7467L1062.93 80.0273ZM1081.89 80.0273L1082.63 80.3389L1083.1 79.2273H1081.89V80.0273ZM1046.37 164.027V164.827H1046.9L1047.11 164.339L1046.37 164.027ZM1028.49 164.027L1027.76 163.703L1027.26 164.827H1028.49V164.027ZM1040.37 137.267L1041.1 137.592L1041.24 137.278L1041.11 136.961L1040.37 137.267ZM1016.61 80.0273V79.2273H1015.42L1015.87 80.334L1016.61 80.0273ZM1036.17 80.0273L1036.92 79.7489L1036.73 79.2273H1036.17V80.0273ZM1049.49 115.907L1048.74 116.186L1049.49 118.197L1050.24 116.188L1049.49 115.907ZM1062.93 80.8273H1081.89V79.2273H1062.93V80.8273ZM1081.16 79.7158L1045.64 163.716L1047.11 164.339L1082.63 80.3389L1081.16 79.7158ZM1046.37 163.227H1028.49V164.827H1046.37V163.227ZM1029.22 164.352L1041.1 137.592L1039.64 136.943L1027.76 163.703L1029.22 164.352ZM1041.11 136.961L1017.35 79.7206L1015.87 80.334L1039.63 137.574L1041.11 136.961ZM1016.61 80.8273H1036.17V79.2273H1016.61V80.8273ZM1035.42 80.3058L1048.74 116.186L1050.24 115.629L1036.92 79.7489L1035.42 80.3058ZM1050.24 116.188L1063.68 80.308L1062.18 79.7467L1048.74 115.627L1050.24 116.188ZM1103.64 120.347L1104.42 120.153L1104.23 119.383L1103.45 119.57L1103.64 120.347ZM1105.56 124.067L1105 124.633L1105.01 124.645L1105.02 124.657L1105.56 124.067ZM1118.64 125.267L1118.21 124.596L1118.64 125.267ZM1119.12 118.907L1118.64 119.547L1118.67 119.569L1118.7 119.589L1119.12 118.907ZM1115.28 117.227L1115.05 117.994L1115.07 117.999L1115.09 118.003L1115.28 117.227ZM1110.24 115.907L1110.06 116.685L1110.07 116.687L1110.24 115.907ZM1103.52 114.227L1103.3 114.996L1103.31 114.999L1103.32 115.002L1103.52 114.227ZM1096.44 111.347L1096.05 112.042L1096.06 112.047L1096.06 112.053L1096.44 111.347ZM1090.92 106.307L1090.26 106.751L1090.26 106.763L1090.92 106.307ZM1091.76 88.4273L1092.42 88.8837L1091.76 88.4273ZM1100.28 81.7073L1100.6 82.441L1100.61 82.4381L1100.61 82.4351L1100.28 81.7073ZM1128.48 83.0273L1128.92 82.3575L1128.48 83.0273ZM1136.88 93.8273L1137.08 94.6031L1137.94 94.3869L1137.63 93.555L1136.88 93.8273ZM1121.64 97.6673L1120.9 97.9545L1121.15 98.6163L1121.84 98.4431L1121.64 97.6673ZM1119.84 95.2673L1119.34 95.892L1119.36 95.908L1119.38 95.9227L1119.84 95.2673ZM1116.84 93.9473L1116.62 94.7166L1116.65 94.7255L1116.69 94.7318L1116.84 93.9473ZM1108.56 94.6673L1109.01 95.333L1108.56 94.6673ZM1107.48 99.7073L1106.88 100.228L1106.9 100.251L1106.92 100.273L1107.48 99.7073ZM1109.64 101.027L1109.37 101.779L1109.38 101.783L1109.39 101.786L1109.64 101.027ZM1112.88 101.867L1112.73 102.652L1112.74 102.654L1112.88 101.867ZM1116.96 102.827L1116.75 103.598L1116.76 103.603L1116.78 103.606L1116.96 102.827ZM1124.28 104.867L1124.04 105.629L1124.04 105.631L1124.28 104.867ZM1131.36 108.107L1130.94 108.784L1130.95 108.79L1130.95 108.796L1131.36 108.107ZM1136.64 113.387L1135.96 113.803L1135.97 113.814L1136.64 113.387ZM1138.8 121.787H1139.6V121.778L1139.6 121.769L1138.8 121.787ZM1135.8 131.507L1136.46 131.964L1136.47 131.955L1135.8 131.507ZM1127.04 138.347L1127.36 139.08L1127.04 138.347ZM1096.32 136.787L1095.91 137.471L1096.32 136.787ZM1087.8 124.187L1087.61 123.41L1086.86 123.593L1087.02 124.353L1087.8 124.187ZM1102.87 120.541C1103.29 122.238 1103.99 123.622 1105 124.633L1106.13 123.502C1105.38 122.752 1104.79 121.657 1104.42 120.153L1102.87 120.541ZM1105.02 124.657C1106.07 125.619 1107.3 126.317 1108.68 126.751L1109.16 125.224C1107.99 124.858 1106.97 124.276 1106.1 123.478L1105.02 124.657ZM1108.68 126.751C1110.04 127.175 1111.44 127.387 1112.88 127.387V125.787C1111.6 125.787 1110.36 125.599 1109.16 125.224L1108.68 126.751ZM1112.88 127.387C1115.44 127.387 1117.54 126.936 1119.08 125.939L1118.21 124.596C1117.03 125.358 1115.28 125.787 1112.88 125.787V127.387ZM1119.08 125.939C1120.61 124.944 1121.48 123.594 1121.48 121.907H1119.88C1119.88 122.941 1119.39 123.83 1118.21 124.596L1119.08 125.939ZM1121.48 121.907C1121.48 120.307 1120.85 119.03 1119.54 118.226L1118.7 119.589C1119.48 120.064 1119.88 120.787 1119.88 121.907H1121.48ZM1119.6 118.267C1118.53 117.464 1117.14 116.868 1115.48 116.451L1115.09 118.003C1116.62 118.387 1117.79 118.91 1118.64 119.547L1119.6 118.267ZM1115.51 116.461C1113.89 115.975 1112.2 115.531 1110.42 115.127L1110.07 116.687C1111.81 117.084 1113.47 117.519 1115.05 117.994L1115.51 116.461ZM1110.43 115.129C1108.43 114.651 1106.2 114.092 1103.72 113.453L1103.32 115.002C1105.81 115.643 1108.05 116.204 1110.06 116.685L1110.43 115.129ZM1103.75 113.459C1101.32 112.754 1099.01 111.815 1096.82 110.642L1096.06 112.053C1098.35 113.279 1100.77 114.26 1103.3 114.996L1103.75 113.459ZM1096.84 110.653C1094.7 109.431 1092.95 107.832 1091.58 105.852L1090.26 106.763C1091.77 108.943 1093.7 110.704 1096.05 112.042L1096.84 110.653ZM1091.59 105.864C1090.25 103.863 1089.56 101.346 1089.56 98.2673H1087.96C1087.96 101.588 1088.71 104.432 1090.26 106.751L1091.59 105.864ZM1089.56 98.2673C1089.56 94.7419 1090.52 91.6228 1092.42 88.8837L1091.11 87.971C1089.01 90.9919 1087.96 94.4328 1087.96 98.2673H1089.56ZM1092.42 88.8837C1094.32 86.1426 1097.04 83.9905 1100.6 82.441L1099.96 80.9737C1096.17 82.6242 1093.2 84.9521 1091.11 87.971L1092.42 88.8837ZM1100.61 82.4351C1104.17 80.8129 1108.41 79.9873 1113.36 79.9873V78.3873C1108.24 78.3873 1103.76 79.2418 1099.95 80.9796L1100.61 82.4351ZM1113.36 79.9873C1119.42 79.9873 1124.29 81.2451 1128.05 83.6972L1128.92 82.3575C1124.83 79.6896 1119.63 78.3873 1113.36 78.3873V79.9873ZM1128.05 83.6972C1131.81 86.157 1134.51 89.6134 1136.13 94.0997L1137.63 93.555C1135.9 88.7613 1132.99 85.0177 1128.92 82.3575L1128.05 83.6972ZM1136.69 93.0516L1121.45 96.8916L1121.84 98.4431L1137.08 94.6031L1136.69 93.0516ZM1122.39 97.3802C1121.94 96.2131 1121.25 95.2757 1120.3 94.612L1119.38 95.9227C1120.04 96.3789 1120.54 97.0415 1120.9 97.9545L1122.39 97.3802ZM1120.34 94.6426C1119.42 93.9086 1118.3 93.4231 1117 93.1629L1116.69 94.7318C1117.78 94.9516 1118.66 95.3461 1119.34 95.892L1120.34 94.6426ZM1117.06 93.1781C1115.87 92.8385 1114.68 92.6673 1113.48 92.6673V94.2673C1114.53 94.2673 1115.57 94.4162 1116.62 94.7166L1117.06 93.1781ZM1113.48 92.6673C1111.31 92.6673 1109.5 93.0833 1108.12 94.0017L1109.01 95.333C1110.03 94.6514 1111.49 94.2673 1113.48 94.2673V92.6673ZM1108.12 94.0017C1106.75 94.9157 1105.96 96.1433 1105.96 97.6673H1107.56C1107.56 96.7914 1107.98 96.019 1109.01 95.333L1108.12 94.0017ZM1105.96 97.6673C1105.96 98.6409 1106.26 99.5103 1106.88 100.228L1108.09 99.1867C1107.75 98.7844 1107.56 98.2938 1107.56 97.6673H1105.96ZM1106.92 100.273C1107.57 100.929 1108.4 101.426 1109.37 101.779L1109.92 100.276C1109.13 99.9882 1108.51 99.6053 1108.05 99.1417L1106.92 100.273ZM1109.39 101.786C1110.39 102.119 1111.5 102.407 1112.73 102.652L1113.04 101.083C1111.87 100.848 1110.82 100.576 1109.9 100.268L1109.39 101.786ZM1112.74 102.654C1113.99 102.889 1115.33 103.203 1116.75 103.598L1117.18 102.057C1115.72 101.651 1114.34 101.326 1113.03 101.081L1112.74 102.654ZM1116.78 103.606C1119.16 104.161 1121.58 104.835 1124.04 105.629L1124.53 104.106C1122.03 103.3 1119.57 102.614 1117.14 102.048L1116.78 103.606ZM1124.04 105.631C1126.54 106.411 1128.84 107.463 1130.94 108.784L1131.79 107.43C1129.57 106.032 1127.14 104.923 1124.52 104.104L1124.04 105.631ZM1130.95 108.796C1133 110.006 1134.66 111.67 1135.96 113.803L1137.33 112.972C1135.9 110.625 1134.05 108.769 1131.77 107.419L1130.95 108.796ZM1135.97 113.814C1137.23 115.816 1137.93 118.462 1138 121.806L1139.6 121.769C1139.52 118.233 1138.78 115.279 1137.32 112.961L1135.97 113.814ZM1138 121.787C1138 125.145 1137.05 128.23 1135.14 131.059L1136.47 131.955C1138.55 128.865 1139.6 125.469 1139.6 121.787H1138ZM1135.15 131.051C1133.25 133.788 1130.45 135.982 1126.72 137.614L1127.36 139.08C1131.31 137.353 1134.36 134.987 1136.46 131.964L1135.15 131.051ZM1126.72 137.614C1123.01 139.239 1118.45 140.067 1113 140.067V141.667C1118.6 141.667 1123.4 140.816 1127.36 139.08L1126.72 137.614ZM1113 140.067C1106.47 140.067 1101.06 138.73 1096.74 136.104L1095.91 137.471C1100.54 140.285 1106.25 141.667 1113 141.667V140.067ZM1096.74 136.104C1092.47 133.511 1089.75 129.512 1088.59 124.022L1087.02 124.353C1088.26 130.223 1091.22 134.624 1095.91 137.471L1096.74 136.104ZM1087.99 124.965L1103.83 121.125L1103.45 119.57L1087.61 123.41L1087.99 124.965Z" fill="black" mask="url(#path-7-outside-3_9132_8715)"/>
<path d="M783.366 67.9097H779.166L755.166 136.43H736.086L766.446 52.4297H796.446L826.686 136.43H807.606L783.366 67.9097ZM756.366 102.83H805.326V118.31H756.366V102.83ZM834.075 50.0297H851.595V136.43H834.075V50.0297ZM895.856 136.43H877.376L860.456 76.4297H878.696L887.096 112.91L896.336 76.4297H914.216L923.216 113.15L931.616 76.4297H949.736L932.816 136.43H913.736L904.856 101.99L895.856 136.43ZM991.334 136.43L990.134 128.99C988.054 131.55 985.814 133.55 983.414 134.99C981.014 136.43 977.814 137.15 973.814 137.15C970.054 137.15 966.694 136.51 963.734 135.23C960.774 133.87 958.414 131.91 956.654 129.35C954.974 126.79 954.134 123.71 954.134 120.11C954.134 115.15 955.894 111.03 959.414 107.75C963.014 104.47 968.574 102.43 976.094 101.63L990.134 100.07V96.1097C990.134 94.7497 989.454 93.4297 988.094 92.1497C986.814 90.7897 984.774 90.1097 981.974 90.1097C979.494 90.1097 977.334 90.7497 975.494 92.0297C973.734 93.3097 972.534 95.1497 971.894 97.5497L956.894 92.1497C958.654 86.7897 961.734 82.7097 966.134 79.9097C970.614 77.0297 976.134 75.5897 982.694 75.5897C990.854 75.5897 997.054 77.6297 1001.29 81.7097C1005.53 85.7897 1007.65 91.2697 1007.65 98.1497V136.43H991.334ZM990.134 110.87L978.974 112.19C976.734 112.51 975.014 113.23 973.814 114.35C972.694 115.39 972.134 116.71 972.134 118.31C972.134 119.83 972.774 121.11 974.054 122.15C975.334 123.19 977.094 123.71 979.334 123.71C981.574 123.71 983.494 123.27 985.094 122.39C986.694 121.43 987.934 120.11 988.814 118.43C989.694 116.67 990.134 114.51 990.134 111.95V110.87ZM1059.34 76.4297H1078.3L1042.78 160.43H1024.9L1036.78 133.67L1013.02 76.4297H1032.58L1045.9 112.31L1059.34 76.4297ZM1100.05 116.75C1100.45 118.35 1101.09 119.59 1101.97 120.47C1102.93 121.35 1104.05 121.99 1105.33 122.39C1106.61 122.79 1107.93 122.99 1109.29 122.99C1111.77 122.99 1113.69 122.55 1115.05 121.67C1116.41 120.79 1117.09 119.67 1117.09 118.31C1117.09 116.95 1116.57 115.95 1115.53 115.31C1114.57 114.59 1113.29 114.03 1111.69 113.63C1110.09 113.15 1108.41 112.71 1106.65 112.31C1104.65 111.83 1102.41 111.27 1099.93 110.63C1097.45 109.91 1095.09 108.95 1092.85 107.75C1090.61 106.47 1088.77 104.79 1087.33 102.71C1085.89 100.55 1085.17 97.8697 1085.17 94.6697C1085.17 90.9897 1086.17 87.7097 1088.17 84.8297C1090.17 81.9497 1093.01 79.7097 1096.69 78.1097C1100.37 76.4297 1104.73 75.5897 1109.77 75.5897C1115.93 75.5897 1120.97 76.8697 1124.89 79.4297C1128.81 81.9897 1131.61 85.5897 1133.29 90.2297L1118.05 94.0697C1117.65 93.0297 1117.05 92.2297 1116.25 91.6697C1115.45 91.0297 1114.45 90.5897 1113.25 90.3497C1112.13 90.0297 1111.01 89.8697 1109.89 89.8697C1107.81 89.8697 1106.17 90.2697 1104.97 91.0697C1103.77 91.8697 1103.17 92.8697 1103.17 94.0697C1103.17 94.8697 1103.41 95.5497 1103.89 96.1097C1104.45 96.6697 1105.17 97.1097 1106.05 97.4297C1107.01 97.7497 1108.09 98.0297 1109.29 98.2697C1110.57 98.5097 1111.93 98.8297 1113.37 99.2297C1115.77 99.7897 1118.21 100.47 1120.69 101.27C1123.25 102.07 1125.61 103.15 1127.77 104.51C1129.93 105.79 1131.69 107.55 1133.05 109.79C1134.41 111.95 1135.13 114.75 1135.21 118.19C1135.21 121.71 1134.21 124.95 1132.21 127.91C1130.21 130.79 1127.29 133.07 1123.45 134.75C1119.61 136.43 1114.93 137.27 1109.41 137.27C1102.77 137.27 1097.21 135.91 1092.73 133.19C1088.25 130.47 1085.41 126.27 1084.21 120.59L1100.05 116.75Z" fill="url(#paint0_linear_9132_8715)"/>
<path d="M62.9688 3.00391V34.1165" stroke="url(#paint1_linear_9132_8715)" stroke-width="5.56844" stroke-linecap="round"/>
<path d="M20.5391 19.9727L42.2881 42.2206" stroke="url(#paint2_linear_9132_8715)" stroke-width="5.56844" stroke-linecap="round"/>
<path d="M3.57031 62.3984L34.6829 62.3984" stroke="url(#paint3_linear_9132_8715)" stroke-width="5.56844" stroke-linecap="round"/>
<defs>
<linearGradient id="paint0_linear_9132_8715" x1="937.246" y1="22.4297" x2="937.246" y2="136.793" gradientUnits="userSpaceOnUse">
<stop stop-color="#FFBA93"/>
<stop offset="1" stop-color="#FF7D34"/>
</linearGradient>
<linearGradient id="paint1_linear_9132_8715" x1="62.9687" y1="38.3591" x2="62.9687" y2="11.4892" gradientUnits="userSpaceOnUse">
<stop stop-color="#FF2525"/>
<stop offset="1" stop-color="#FF8743"/>
</linearGradient>
<linearGradient id="paint2_linear_9132_8715" x1="45.2538" y1="45.2545" x2="26.2551" y2="26.2558" gradientUnits="userSpaceOnUse">
<stop stop-color="#FF2525"/>
<stop offset="1" stop-color="#FF8743"/>
</linearGradient>
<linearGradient id="paint3_linear_9132_8715" x1="38.9255" y1="62.3984" x2="12.0556" y2="62.3984" gradientUnits="userSpaceOnUse">
<stop stop-color="#FF2525"/>
<stop offset="1" stop-color="#FF8743"/>
</linearGradient>
</defs>
</svg>
