<svg width="116" height="117" viewBox="0 0 116 117" fill="none" xmlns="http://www.w3.org/2000/svg">
<rect y="0.675781" width="116" height="116" rx="58" fill="url(#paint0_linear_9132_8593)"/>
<path d="M43.1213 51.3787L42.3787 52.1213C41.8161 52.6839 41.5 53.447 41.5 54.2426V72.4561C41.5 73.425 41.9679 74.3342 42.7563 74.8973L44.2177 75.9412C44.7265 76.3046 45.3361 76.5 45.9614 76.5H70.7574C71.553 76.5 72.3161 76.1839 72.8787 75.6213L73.6213 74.8787C74.1839 74.3161 74.5 73.553 74.5 72.7574V55.3604C74.5 54.7981 74.342 54.2472 74.044 53.7704L72.8813 51.91C72.333 51.0329 71.3716 50.5 70.3373 50.5H45.2426C44.447 50.5 43.6839 50.8161 43.1213 51.3787Z" fill="#FFA979" stroke="#6A0600" stroke-width="2"/>
<path d="M72.2953 50.7H69.2953V44.3C69.2953 38.1 64.1953 33 57.9953 33C51.7953 33 46.6953 38.1 46.6953 44.3V50.7H43.6953V44.3C43.6953 36.4 50.0953 30 57.9953 30C65.8953 30 72.2953 36.4 72.2953 44.3V50.7Z" fill="#6A0600"/>
<path d="M70.7984 77.9016H45.1984C42.5984 77.9016 40.3984 75.7016 40.3984 73.1016V53.9016C40.3984 51.3016 42.5984 49.1016 45.1984 49.1016H70.7984C73.3984 49.1016 75.5984 51.3016 75.5984 53.9016V73.1016C75.5984 75.8016 73.3984 77.9016 70.7984 77.9016ZM45.1984 52.3016C44.2984 52.3016 43.5984 53.0016 43.5984 53.9016V73.1016C43.5984 74.0016 44.2984 74.7016 45.1984 74.7016H70.7984C71.6984 74.7016 72.3984 74.0016 72.3984 73.1016V53.9016C72.3984 53.0016 71.6984 52.3016 70.7984 52.3016H45.1984Z" fill="#6A0600"/>
<path d="M60.447 61.45C60.447 62.8282 59.3751 63.9001 57.9969 63.9001C56.6188 63.9001 55.5469 62.8282 55.5469 61.45C55.5469 60.0719 56.6188 59 57.9969 59C59.3751 59 60.447 60.1485 60.447 61.45Z" fill="white"/>
<path d="M58.6141 61.4492H57.3891L56.1641 68.7994H59.8391L58.6141 61.4492Z" fill="white"/>
<path d="M74 55H78C79.6569 55 81 53.6569 81 52V50" stroke="#6A0600" stroke-width="2"/>
<circle cx="81" cy="48" r="3" fill="#6A0600"/>
<path d="M41 55H38C36.3431 55 35 53.6569 35 52V50" stroke="#6A0600" stroke-width="2"/>
<circle cx="3" cy="3" r="3" transform="matrix(-1 0 0 1 38 45)" fill="#6A0600"/>
<path d="M73 72H77C78.6569 72 80 73.3431 80 75V77" stroke="#6A0600" stroke-width="2"/>
<circle cx="3" cy="3" r="3" transform="matrix(1 0 0 -1 77 82)" fill="#6A0600"/>
<path d="M43 72H38C36.3431 72 35 73.3431 35 75V77" stroke="#6A0600" stroke-width="2"/>
<circle cx="35" cy="79" r="3" transform="rotate(180 35 79)" fill="#6A0600"/>
<path d="M74 64H81" stroke="#6A0600" stroke-width="2"/>
<circle cx="80" cy="64" r="3" fill="#6A0600"/>
<path d="M42 64H33" stroke="#6A0600" stroke-width="2"/>
<circle cx="3" cy="3" r="3" transform="matrix(-1 0 0 1 38 61)" fill="#6A0600"/>
<defs>
<linearGradient id="paint0_linear_9132_8593" x1="58" y1="0.675781" x2="58" y2="116.676" gradientUnits="userSpaceOnUse">
<stop stop-color="#FFEBE0"/>
<stop offset="1" stop-color="#FFD0B6"/>
</linearGradient>
</defs>
</svg>
