<svg width="116" height="117" viewBox="0 0 116 117" fill="none" xmlns="http://www.w3.org/2000/svg">
<rect y="0.675781" width="116" height="116" rx="58" fill="url(#paint0_linear_9132_8624)"/>
<path d="M65.9981 56.49C65.9218 58.9293 65.428 61.3375 64.5381 63.61C63.0532 67.4371 60.4792 70.745 57.1343 73.1248C53.7895 75.5046 49.8205 76.8518 45.7181 77H44.9981H44.2781C39.1313 76.7958 34.2368 74.7168 30.5163 71.1547C26.7957 67.5926 24.506 62.793 24.0781 57.66L25.0781 58.5L27.1481 60.27L27.9981 61L28.4381 60.48L30.3381 58.19L32.5881 55.49L32.9981 55L33.9981 56.28L34.2181 56.57L35.9281 58.85L38.9981 63L44.9981 56L49.9981 62L53.9981 58L55.8081 60.41L56.9981 62L58.2181 60.37L59.9981 58L60.7181 57L62.9981 54L64.5981 55.33L65.4481 56.04L65.5581 56.14L65.9981 56.49Z" fill="white"/>
<path d="M61 46.51C61.0099 46.6899 61.0099 46.8701 61 47.05C60.8014 48.9427 59.9926 50.7194 58.6956 52.112C57.3986 53.5046 55.6838 54.4375 53.81 54.77C53.293 54.8812 52.768 54.9514 52.24 54.98H51.62H37.81C37.2756 54.9431 36.7443 54.8696 36.22 54.76C34.5615 54.4089 33.0239 53.6297 31.76 52.5C30.1614 51.1152 29.1703 49.1582 29 47.05C29 46.87 29 46.69 29 46.51C29.0005 46.003 29.0508 45.4972 29.15 45C29.3135 44.1974 29.6002 43.4249 30 42.71L30.27 42.22C31.5174 40.002 33.2933 38.1265 35.44 36.76C37.3333 35.5468 39.4468 34.7177 41.66 34.32C41.99 34.26 42.32 34.21 42.66 34.17C42.9292 34.1703 43.1976 34.1401 43.46 34.08C44.0916 33.9295 44.6695 33.6077 45.13 33.15C45.6076 32.6876 45.9431 32.0985 46.0973 31.4519C46.2514 30.8053 46.2176 30.1281 46 29.5C46.4943 29.6682 46.9428 29.9489 47.31 30.32C47.8133 30.8256 48.1501 31.473 48.2752 32.1754C48.4003 32.8778 48.3078 33.6017 48.01 34.25C50.3583 34.6273 52.6044 35.4815 54.61 36.76C56.7567 38.1265 58.5326 40.002 59.78 42.22L60.05 42.71C60.4251 43.4301 60.6913 44.2018 60.84 45C60.9465 45.4963 61.0001 46.0024 61 46.51Z" fill="white"/>
<path d="M58.2197 60.369L56.9997 61.999L55.8097 60.409L53.9997 57.999L49.9997 61.999L44.9997 55.999L38.9997 62.999L35.8897 58.849L34.1797 56.569C34.7849 55.9041 35.4549 55.3011 36.1797 54.769C36.704 54.8786 37.2353 54.9521 37.7697 54.989H51.5897H52.2097C52.7377 54.9604 53.2627 54.8901 53.7797 54.779C55.7622 56.1811 57.3027 58.1206 58.2197 60.369ZM42.9997 49.409C43.1983 49.0529 43.4884 48.7562 43.84 48.5497C44.1916 48.3432 44.5919 48.2344 44.9997 48.2344C45.4074 48.2344 45.8078 48.3432 46.1594 48.5497C46.511 48.7562 46.8011 49.0529 46.9997 49.409L44.9997 52.239L42.9997 49.409Z" fill="white"/>
<path d="M44.9997 77.9989H44.2397C38.8468 77.7787 33.7202 75.5962 29.8235 71.8616C25.9268 68.127 23.5286 63.0976 23.0797 57.7189C23.0584 57.5161 23.0997 57.3115 23.198 57.1328C23.2963 56.954 23.4469 56.8096 23.6297 56.719C23.8054 56.6298 24.0036 56.5946 24.1993 56.6177C24.395 56.6409 24.5795 56.7213 24.7297 56.8489L27.8897 59.5489L32.2297 54.329C32.3233 54.2103 32.4425 54.1145 32.5785 54.0486C32.7144 53.9827 32.8636 53.9484 33.0147 53.9484C33.1658 53.9484 33.3149 53.9827 33.4508 54.0486C33.5868 54.1145 33.7061 54.2103 33.7997 54.329L39.0497 61.329L44.2397 55.329C44.338 55.2262 44.4559 55.1441 44.5864 55.0874C44.7169 55.0307 44.8574 55.0007 44.9997 54.9989C45.1449 55.0002 45.2881 55.033 45.4193 55.0952C45.5506 55.1573 45.6667 55.2474 45.7597 55.3589L50.0597 60.5189L53.2797 57.2889C53.3812 57.1874 53.5035 57.109 53.6381 57.059C53.7727 57.0089 53.9165 56.9885 54.0597 56.9989C54.2029 57.0093 54.3423 57.0504 54.4683 57.1194C54.5942 57.1884 54.7039 57.2838 54.7897 57.399L56.9997 60.329L59.1997 57.3889L59.2797 57.2989L59.9397 56.4089L62.1397 53.4789C62.2854 53.2736 62.5032 53.1307 62.7497 53.079C62.8973 53.0458 63.0504 53.0466 63.1977 53.0813C63.3449 53.1159 63.4823 53.1835 63.5997 53.2789L66.5997 55.7689C66.7165 55.8662 66.8097 55.9887 66.8721 56.1274C66.9345 56.266 66.9644 56.417 66.9597 56.5689C66.8862 59.1129 66.3789 61.6257 65.4597 63.9989C65.1689 64.7639 64.835 65.5118 64.4597 66.239C64.3253 66.4537 64.1144 66.6095 63.8696 66.6747C63.6248 66.74 63.3643 66.7099 63.1409 66.5906C62.9174 66.4712 62.7475 66.2715 62.6656 66.0317C62.5838 65.792 62.5959 65.5301 62.6997 65.2989C63.0445 64.649 63.3549 63.9814 63.6297 63.2989C64.4261 61.2666 64.8888 59.1189 64.9997 56.9389L63.1997 55.4389L61.5497 57.5989L60.8597 58.5189L60.7797 58.6089L57.7997 62.5989C57.7065 62.7231 57.5857 62.8239 57.4469 62.8934C57.308 62.9628 57.1549 62.9989 56.9997 62.9989C56.8444 62.9989 56.6913 62.9628 56.5525 62.8934C56.4136 62.8239 56.2928 62.7231 56.1997 62.5989L53.8897 59.5189L50.7097 62.7089C50.6162 62.8016 50.5054 62.875 50.3836 62.9247C50.2617 62.9745 50.1313 62.9997 49.9997 62.9989C49.8596 62.9935 49.7221 62.9586 49.5964 62.8966C49.4706 62.8346 49.3593 62.7468 49.2697 62.6389L44.9997 57.5489L39.7697 63.649C39.6747 63.76 39.5565 63.8489 39.4235 63.9094C39.2905 63.9698 39.1458 64.0004 38.9997 63.9989C38.8495 63.9944 38.7023 63.9561 38.569 63.8868C38.4357 63.8176 38.3197 63.7192 38.2297 63.5989L32.9897 56.5989L28.7897 61.5989C28.6183 61.8011 28.3738 61.927 28.1097 61.9489C27.8449 61.9631 27.5844 61.8774 27.3797 61.7089L25.4897 60.0889C26.4206 64.4512 28.7741 68.3808 32.1805 71.2605C35.5869 74.1402 39.8533 75.8069 44.3097 75.9989C44.7797 75.9989 45.2297 75.9989 45.6797 75.9989C48.5891 75.8974 51.4408 75.1578 54.0328 73.8324C56.6248 72.507 58.894 70.6282 60.6797 68.329C60.8441 68.1194 61.085 67.9838 61.3495 67.9519C61.6139 67.92 61.8801 67.9945 62.0897 68.1589C62.2992 68.3234 62.4348 68.5643 62.4667 68.8287C62.4986 69.0932 62.4241 69.3594 62.2597 69.5689C60.2916 72.0959 57.7932 74.1604 54.9406 75.617C52.088 77.0735 48.9506 77.8866 45.7497 77.9989H44.9997Z" fill="#6A0600"/>
<path d="M51.59 55.9989H37.81C37.2052 55.9604 36.6038 55.8803 36.01 55.7589C34.1795 55.3705 32.4829 54.5085 31.09 53.2589C29.296 51.6955 28.1866 49.4911 28 47.1189C28 46.9089 28 46.7089 28 46.5089C28.0083 45.0121 28.3899 43.541 29.11 42.2289L29.38 41.7389C30.3967 39.9253 31.7551 38.3259 33.38 37.0289C33.4824 36.9461 33.6002 36.8844 33.7264 36.8472C33.8527 36.8099 33.9851 36.7979 34.1161 36.8119C34.247 36.8258 34.3739 36.8654 34.4895 36.9283C34.6052 36.9913 34.7073 37.0764 34.79 37.1789C34.8727 37.2813 34.9345 37.399 34.9717 37.5253C35.009 37.6516 35.0209 37.784 35.007 37.9149C34.9931 38.0459 34.9535 38.1728 34.8905 38.2884C34.8276 38.404 34.7424 38.5061 34.64 38.5889C33.2228 39.7213 32.0377 41.1168 31.15 42.6989L30.89 43.1889C30.3176 44.2026 30.0114 45.3448 30 46.5089C30 46.6689 30 46.8289 30 46.9889C30.1473 48.8332 31.0127 50.5461 32.41 51.7589C33.5442 52.7658 34.9239 53.4557 36.41 53.7589C36.8878 53.8609 37.3724 53.9277 37.86 53.9589H51.59H52.16C52.6345 53.9356 53.1062 53.8721 53.57 53.7689C55.2286 53.485 56.751 52.6724 57.9099 51.4522C59.0687 50.2321 59.8019 48.6699 60 46.9989C60.0084 46.8423 60.0084 46.6854 60 46.5289C59.9947 45.3665 59.6954 44.2244 59.13 43.2089L58.86 42.7189C57.6889 40.6362 56.0189 38.8768 54 37.5989C52.1072 36.4006 49.9913 35.5978 47.78 35.2389C47.628 35.2135 47.484 35.1534 47.3591 35.0632C47.2342 34.973 47.1318 34.8552 47.06 34.7189C46.9913 34.5806 46.9555 34.4283 46.9555 34.2739C46.9555 34.1195 46.9913 33.9672 47.06 33.8289C47.2134 33.4965 47.2928 33.1349 47.2928 32.7689C47.2928 32.4029 47.2134 32.0412 47.06 31.7089C46.8683 32.5192 46.4555 33.2604 45.8676 33.8501C45.2797 34.4398 44.5397 34.8547 43.73 35.0489C43.402 35.1253 43.0667 35.1655 42.73 35.1689L41.88 35.2989C40.4716 35.5546 39.1031 35.9951 37.81 36.6089C37.6906 36.6768 37.5585 36.7194 37.422 36.734C37.2854 36.7486 37.1473 36.7349 37.0163 36.6938C36.8852 36.6527 36.7641 36.5851 36.6603 36.4951C36.5566 36.4051 36.4725 36.2947 36.4133 36.1708C36.3541 36.0468 36.321 35.9121 36.3162 35.7748C36.3114 35.6375 36.3349 35.5008 36.3852 35.373C36.4356 35.2452 36.5117 35.1292 36.6089 35.0321C36.706 34.9351 36.8222 34.8591 36.95 34.8089C38.4012 34.1179 39.9381 33.6236 41.52 33.3389C41.87 33.2689 42.22 33.2189 42.58 33.1789C42.94 33.1389 43.09 33.1789 43.31 33.1089C43.757 32.9972 44.165 32.7655 44.49 32.4389C44.8121 32.0981 45.031 31.6729 45.1213 31.2127C45.2116 30.7525 45.1695 30.2761 45 29.8389C44.9354 29.6618 44.9221 29.4701 44.9618 29.2858C45.0014 29.1015 45.0923 28.9322 45.224 28.7974C45.3557 28.6625 45.5229 28.5676 45.7062 28.5237C45.8895 28.4797 46.0815 28.4884 46.26 28.5489C46.9127 28.7661 47.5076 29.1286 48 29.6089C48.4982 30.1101 48.8711 30.7218 49.0883 31.3942C49.3055 32.0667 49.3609 32.7809 49.25 33.4789C51.3378 33.9416 53.328 34.7675 55.13 35.9189C57.4179 37.3756 59.3106 39.3748 60.64 41.7389L60.91 42.2289C61.6232 43.5429 61.9978 45.0138 62 46.5089C62.0152 46.7253 62.0152 46.9425 62 47.1589C61.7725 49.2624 60.8703 51.2358 59.4284 52.7841C57.9864 54.3325 56.0821 55.3725 54 55.7489C53.4337 55.871 52.8585 55.9479 52.28 55.9789L51.59 55.9989Z" fill="#6A0600"/>
<path d="M38.9995 63.9993C38.8494 63.9948 38.7022 63.9564 38.5689 63.8872C38.4356 63.8179 38.3196 63.7195 38.2295 63.5993L33.4095 57.1693C33.2694 56.9816 33.1996 56.7506 33.2124 56.5166C33.2252 56.2827 33.3197 56.0607 33.4795 55.8893C34.1329 55.187 34.8567 54.5537 35.6395 53.9993C35.7521 53.9176 35.8805 53.8602 36.0166 53.831C36.1526 53.8017 36.2932 53.8011 36.4295 53.8293C36.9073 53.9313 37.3919 53.9982 37.8795 54.0293H51.5895H52.1595C52.634 54.0061 53.1057 53.9425 53.5695 53.8393C53.7073 53.8097 53.8498 53.8095 53.9877 53.8388C54.1256 53.8681 54.2557 53.9262 54.3695 54.0093C56.4983 55.517 58.1557 57.5975 59.1495 60.0093C59.2137 60.173 59.2337 60.3506 59.2073 60.5245C59.181 60.6983 59.1093 60.8621 58.9995 60.9993L57.7995 62.5993C57.7064 62.7235 57.5856 62.8243 57.4467 62.8938C57.3079 62.9632 57.1548 62.9993 56.9995 62.9993C56.8443 62.9993 56.6911 62.9632 56.5523 62.8938C56.4134 62.8243 56.2927 62.7235 56.1995 62.5993L53.8895 59.5193L50.7095 62.7093C50.6161 62.802 50.5053 62.8753 50.3834 62.9251C50.2616 62.9749 50.1311 63.0001 49.9995 62.9993C49.8594 62.9939 49.722 62.959 49.5962 62.897C49.4705 62.8349 49.3591 62.7472 49.2695 62.6393L44.9995 57.5493L39.7695 63.6493C39.6745 63.7604 39.5564 63.8493 39.4233 63.9097C39.2903 63.9702 39.1456 64.0008 38.9995 63.9993ZM35.4995 56.6593L39.0495 61.3993L43.6795 55.9993H37.8095C37.3569 55.9711 36.9062 55.9176 36.4595 55.8393C36.1295 56.0893 35.7995 56.3693 35.4995 56.6593ZM46.2995 55.9993L50.0695 60.5193L53.2895 57.2893C53.3911 57.1878 53.5133 57.1094 53.6479 57.0593C53.7825 57.0093 53.9263 56.9888 54.0695 56.9993C54.2128 57.0097 54.3521 57.0507 54.4781 57.1198C54.6041 57.1888 54.7137 57.2841 54.7995 57.3993L56.9995 60.3293L57.0695 60.2293C56.2645 58.4997 55.0535 56.9902 53.5395 55.8293C53.1195 55.9045 52.6954 55.9546 52.2695 55.9793H51.5895L46.2995 55.9993Z" fill="#6A0600"/>
<path d="M37.5 47C38.3284 47 39 46.3284 39 45.5C39 44.6716 38.3284 44 37.5 44C36.6716 44 36 44.6716 36 45.5C36 46.3284 36.6716 47 37.5 47Z" fill="#6A0600"/>
<path d="M52.5 47C53.3284 47 54 46.3284 54 45.5C54 44.6716 53.3284 44 52.5 44C51.6716 44 51 44.6716 51 45.5C51 46.3284 51.6716 47 52.5 47Z" fill="#6A0600"/>
<path d="M45.0018 53.2415C44.8415 53.2423 44.6833 53.2046 44.5406 53.1315C44.3979 53.0584 44.2748 52.9521 44.1818 52.8215L42.1818 49.9915C42.0635 49.8231 42 49.6223 42 49.4165C42 49.2107 42.0635 49.0099 42.1818 48.8415C42.4743 48.3548 42.8877 47.9521 43.3818 47.6726C43.876 47.393 44.4341 47.2461 45.0018 47.2461C45.5696 47.2461 46.1277 47.393 46.6219 47.6726C47.116 47.9521 47.5294 48.3548 47.8218 48.8415C47.9402 49.0099 48.0037 49.2107 48.0037 49.4165C48.0037 49.6223 47.9402 49.8231 47.8218 49.9915L45.8218 52.8215C45.7288 52.9521 45.6058 53.0584 45.4631 53.1315C45.3204 53.2046 45.1622 53.2423 45.0018 53.2415ZM44.2918 49.5015L45.0018 50.5015L45.7118 49.5015C45.5116 49.3374 45.2607 49.2477 45.0018 49.2477C44.743 49.2477 44.4921 49.3374 44.2918 49.5015Z" fill="#6A0600"/>
<path d="M51.3746 85.1448L44.9643 89.0538L42.014 84.2086L48.4278 80.3039L51.3746 85.1448Z" fill="white"/>
<path d="M85.2031 52.8083C85.6125 52.908 85.9666 53.1686 86.1918 53.5387L92.5052 63.9129C92.7312 64.2844 92.7987 64.7212 92.6946 65.144C92.5913 65.5658 92.3303 65.9215 91.9593 66.1453L87.8701 68.633L84.4663 63.041L83.085 63.8804L86.4904 69.4728L81.3634 72.5913L77.9619 66.9976L76.5817 67.8373L79.9838 73.4311L74.8568 76.5497L66.8566 63.4006L83.9658 52.9921C84.3327 52.7684 84.7654 52.7016 85.1835 52.8034L85.2031 52.8083Z" fill="#FFA979"/>
<path d="M74.8609 76.5419L68.3486 80.5093L64.9467 74.9166L63.5644 75.7557L66.9656 81.3483L61.8392 84.467L58.4355 78.875L57.0566 79.7138L60.4628 85.3053L55.2879 88.4525L47.2867 75.3021L66.8617 63.3953L74.8609 76.5419Z" fill="white"/>
<path d="M37.9998 81.3689L46.0548 94.611C46.3847 95.1533 47.0912 95.3254 47.6335 94.9955C48.1759 94.6656 48.3479 93.959 48.018 93.4167L46.2825 90.564L52.1156 87.0099L56.5688 94.33C56.8988 94.8724 57.6053 95.0444 58.1477 94.7145C58.69 94.3846 58.862 93.678 58.5321 93.1357L56.6053 89.9684L92.9858 67.8357C94.669 66.8117 95.2084 64.606 94.186 62.9162L91.6245 58.7103L102.401 52.1534C102.943 51.8235 103.115 51.117 102.785 50.5747C102.707 50.4456 102.604 50.3333 102.482 50.2441C102.361 50.155 102.222 50.0908 102.076 50.0553C101.79 49.9858 101.478 50.0252 101.207 50.1902L90.4295 56.7474L87.8686 52.5416C87.3712 51.724 86.5856 51.1488 85.6566 50.9226L85.6544 50.922C84.7264 50.6966 83.7659 50.8468 82.9506 51.3441L46.5702 73.4745L44.6417 70.3046C44.4768 70.0334 44.2176 69.8548 43.932 69.7852C43.6463 69.7157 43.3341 69.7552 43.0629 69.9201C42.5206 70.25 42.3486 70.9566 42.6785 71.4989L47.1326 78.8205L41.2993 82.371L39.9631 80.1746C39.7981 79.9034 39.5389 79.7248 39.2532 79.6553C38.9675 79.5857 38.6554 79.6251 38.3843 79.7901C37.8419 80.12 37.6699 80.8266 37.9998 81.3689ZM84.1464 53.3065C84.438 53.1287 84.7807 53.0753 85.1123 53.1554L85.1129 53.1556C85.4454 53.2365 85.7266 53.443 85.9052 53.7366L89.0572 58.9132C89.0593 58.9167 89.0593 58.9212 89.0614 58.9247C89.0635 58.928 89.067 58.9301 89.0697 58.9336L92.2208 64.1089C92.5874 64.7144 92.3947 65.5055 91.7914 65.8725L87.9917 68.1841L84.1664 61.9016L82.2029 63.097L86.0277 69.3788L81.4844 72.1429L77.6629 65.8589L75.6997 67.0534L79.5211 73.3372L75.0725 76.044L67.4277 63.4769L84.1464 53.3065ZM65.4634 64.671L73.1092 77.2383L68.471 80.06L64.6494 73.7767L62.6861 74.971L66.5077 81.2544L61.9624 84.019L58.14 77.7367L56.1768 78.931L59.9991 85.2134L55.4109 88.0052L53.4816 84.8338C53.4805 84.8336 53.4807 84.833 53.4808 84.8325L51.5869 81.72L47.7645 75.4377L65.4634 64.6711L65.4634 64.671ZM48.3269 80.7837L50.9203 85.0459L45.0884 88.6002L42.4936 84.3343L48.3268 80.7837L48.3269 80.7837Z" fill="#6A0600"/>
<defs>
<linearGradient id="paint0_linear_9132_8624" x1="58" y1="0.675781" x2="58" y2="116.676" gradientUnits="userSpaceOnUse">
<stop stop-color="#FFEBE0"/>
<stop offset="1" stop-color="#FFD0B6"/>
</linearGradient>
</defs>
</svg>
