<svg width="116" height="117" viewBox="0 0 116 117" fill="none" xmlns="http://www.w3.org/2000/svg">
<rect y="0.59375" width="116" height="116" rx="58" fill="url(#paint0_linear_9132_8453)"/>
<circle cx="49.2139" cy="61.2139" r="11.9756" fill="#FFA979"/>
<path d="M48.6195 89.5074V84.3414H43.4536V81.7585H48.6195V73.9501C45.3185 73.5799 42.5555 72.1696 40.3307 69.7192C38.1076 67.2705 36.9961 64.387 36.9961 61.0688C36.9961 57.4819 38.2523 54.4374 40.7647 51.9353C43.2753 49.4316 46.3241 48.1797 49.911 48.1797C53.4979 48.1797 56.5467 49.4307 59.0574 51.9328C61.5697 54.4348 62.8259 57.4784 62.8259 61.0636C62.8259 64.387 61.7144 67.2722 59.4913 69.7192C57.2665 72.1696 54.5036 73.5799 51.2025 73.9501V81.7585H56.3685V84.3414H51.2025V89.5074H48.6195ZM49.9188 71.4265C52.7755 71.4265 55.2104 70.4174 57.2234 68.3993C59.2364 66.3794 60.2429 63.9419 60.2429 61.0869C60.2429 58.2318 59.2339 55.7969 57.2157 53.7822C55.1958 51.7692 52.7583 50.7627 49.9033 50.7627C47.0482 50.7627 44.6133 51.7718 42.5986 53.7899C40.5856 55.8098 39.5791 58.2473 39.5791 61.1024C39.5791 63.9574 40.5882 66.3923 42.6063 68.407C44.6262 70.42 47.0637 71.4265 49.9188 71.4265Z" fill="#6A0600"/>
<circle cx="62.4913" cy="53.3506" r="11.9756" fill="white"/>
<path d="M62.1568 64.2078C64.9484 64.2078 67.6256 63.0989 69.5995 61.1249C71.5734 59.151 72.6823 56.4738 72.6823 53.6823C72.6823 50.8908 71.5734 48.2136 69.5995 46.2397C67.6256 44.2658 64.9484 43.1568 62.1568 43.1568C59.3653 43.1568 56.6881 44.2658 54.7142 46.2397C52.7403 48.2136 51.6314 50.8908 51.6314 53.6823C51.6314 56.4738 52.7403 59.151 54.7142 61.1249C56.6881 63.0989 59.3653 64.2078 62.1568 64.2078ZM62.1568 66.8392C58.6674 66.8392 55.3209 65.453 52.8535 62.9856C50.3862 60.5182 49 57.1717 49 53.6823C49 50.1929 50.3862 46.8464 52.8535 44.379C55.3209 41.9116 58.6674 40.5255 62.1568 40.5255C65.6463 40.5255 68.9927 41.9116 71.4601 44.379C73.9275 46.8464 75.3137 50.1929 75.3137 53.6823C75.3137 57.1717 73.9275 60.5182 71.4601 62.9856C68.9927 65.453 65.6463 66.8392 62.1568 66.8392ZM73.998 30H84.5235C85.4006 30 85.8392 30.4386 85.8392 31.3157C85.8392 32.1928 85.4006 32.6314 84.5235 32.6314H73.998C73.1209 32.6314 72.6823 32.1928 72.6823 31.3157C72.6823 30.4386 73.1209 30 73.998 30Z" fill="#6A0600"/>
<path d="M84.5266 30C85.4037 30 85.8423 30.4386 85.8423 31.3157V41.8412C85.8423 42.7183 85.4037 43.1568 84.5266 43.1568C83.6495 43.1568 83.2109 42.7183 83.2109 41.8412V31.3157C83.2109 30.4386 83.6495 30 84.5266 30Z" fill="#6A0600"/>
<path d="M71.7718 45.9381L69.9141 44.0777L83.6025 30.3867L85.4655 32.2497L71.7718 45.9381Z" fill="#6A0600"/>
<defs>
<linearGradient id="paint0_linear_9132_8453" x1="58" y1="0.59375" x2="58" y2="116.594" gradientUnits="userSpaceOnUse">
<stop stop-color="#FFEBE0"/>
<stop offset="1" stop-color="#FFD0B6"/>
</linearGradient>
</defs>
</svg>
