<svg width="116" height="117" viewBox="0 0 116 117" fill="none" xmlns="http://www.w3.org/2000/svg">
<rect y="0.59375" width="116" height="116" rx="58" fill="url(#paint0_linear_9132_8467)"/>
<path d="M74.0243 78.9966C72.1533 77.7114 69.2282 78.7976 67.5431 79.7838C67.2892 79.9324 67.0939 80.1608 66.9692 80.4271L66.8205 80.7443C66.7226 80.9533 66.6719 81.1812 66.6719 81.412V81.8302C66.6719 82.6994 67.3765 83.404 68.2457 83.404H86.4432L88.4425 83.6561C89.1686 83.8013 89.9144 83.328 89.8827 82.5883C89.8088 80.8626 88.6008 80.3867 87.4563 80.2831C86.7235 80.2168 86.1455 79.666 85.5597 79.2207C84.9601 78.7651 84.1201 78.9786 83.3038 79.4467C82.2844 80.0313 80.6418 79.7046 79.5115 79.3829C78.512 79.0984 77.3085 79.2541 76.2889 79.541C75.5189 79.7577 74.6836 79.4495 74.0243 78.9966Z" fill="#FFA979" stroke="#6A0600" stroke-width="1.6"/>
<path d="M33.8938 67.3942C33.8938 62.0416 38.233 57.7023 43.5856 57.7023H56.7005C62.0532 57.7023 66.3924 62.0416 66.3924 67.3942V90.201H33.8938V67.3942Z" fill="white" stroke="#6A0600" stroke-width="1.6"/>
<path d="M40.1945 61.0991C40.1945 59.2231 41.7153 57.7023 43.5913 57.7023H57.2307C59.1067 57.7023 60.6275 59.2231 60.6275 61.0991V80.7583H40.1945V61.0991Z" fill="white" stroke="#6A0600" stroke-width="1.6"/>
<path d="M37.05 50.6088C37.05 54.2231 39.98 57.1531 43.5943 57.1531H56.7092C60.3235 57.1531 63.2535 54.2231 63.2535 50.6088V34.0972H37.05V50.6088Z" fill="white" stroke="#6A0600" stroke-width="1.6"/>
<rect x="0.8" y="-0.8" width="36.4" height="3.4" rx="1.7" transform="matrix(1 0 0 -1 31 33.4)" fill="white" stroke="#6A0600" stroke-width="1.6"/>
<path d="M91.5789 86.8032C91.5789 88.6792 90.0581 90.2 88.1822 90.2H66.9492V83.4065H88.1822C90.0581 83.4065 91.5789 84.9273 91.5789 86.8032Z" fill="white" stroke="#6A0600" stroke-width="1.6"/>
<circle cx="50.4104" cy="75.262" r="2.97216" fill="#FFA979" stroke="#6A0600" stroke-width="1.4"/>
<path d="M43.2028 43.1848C40.993 42.0797 38.5734 43.4469 37.2204 44.6629C36.9222 44.9308 36.7734 45.3214 36.7734 45.7223V51.4004C36.7734 51.5695 36.8007 51.7376 36.8542 51.898L37.0357 52.4426L37.7032 54.0001C37.7821 54.1842 37.8954 54.3515 38.0369 54.493L39.7067 56.1628C39.8483 56.3044 40.0156 56.4176 40.1996 56.4965L41.51 57.0581C41.6735 57.1282 41.8478 57.17 42.0253 57.1819L45.6915 57.4263H57.9478C58.168 57.4263 58.3858 57.3801 58.587 57.2906L60.3755 56.4958C60.552 56.4173 60.7125 56.3071 60.8491 56.1705L61.805 55.2146C61.9039 55.1157 61.9891 55.0041 62.0585 54.8826L62.8955 53.418C62.9669 53.293 63.0209 53.1587 63.0558 53.0189L63.4808 51.3191C63.512 51.1943 63.5278 51.0661 63.5278 50.9374V45.5565C63.5278 45.2572 63.4541 44.951 63.238 44.7439C61.965 43.5239 59.1323 44.2323 56.7806 45.217C55.6659 45.6837 53.8817 44.875 52.7545 44.4395C52.1895 44.2213 51.5482 44.1083 50.9603 44.0624C50.3148 44.012 49.7492 43.6193 49.2895 43.1635C48.2621 42.1448 46.761 42.5405 45.5771 43.2083C44.858 43.6139 43.9412 43.5541 43.2028 43.1848Z" fill="#FFA979" stroke="#6A0600" stroke-width="1.6"/>
<defs>
<linearGradient id="paint0_linear_9132_8467" x1="58" y1="0.59375" x2="58" y2="116.594" gradientUnits="userSpaceOnUse">
<stop stop-color="#FFEBE0"/>
<stop offset="1" stop-color="#FFD0B6"/>
</linearGradient>
</defs>
</svg>
