<svg width="40" height="40" viewBox="0 0 40 40" fill="none" xmlns="http://www.w3.org/2000/svg">
<path d="M29.283 22.673C30.3854 22.673 31.2723 23.5726 31.2723 24.6722C31.2723 25.022 31.1811 25.3635 31.007 25.6718L32.1508 26.3382C33.0626 24.7471 32.5238 22.7063 30.9324 21.79C30.4269 21.4984 29.8549 21.3401 29.2748 21.3401V22.673H29.283Z" fill="black"/>
<path d="M23.6469 13.61L22.9838 12.4604C24.3514 11.6607 26.0837 11.9523 27.1281 13.1351C28.3382 14.5179 28.2138 16.6254 26.838 17.8416L25.9594 16.842C26.6639 16.2089 26.838 15.1677 26.3655 14.343C25.8185 13.385 24.6001 13.0602 23.6469 13.61Z" fill="black"/>
<path d="M20 22.673V21.3401C21.1853 21.3401 22.2793 21.9732 22.8678 23.0062C23.7878 24.5972 23.2408 26.6297 21.6577 27.5543L20.9946 26.4048C21.608 26.0466 21.9892 25.3885 21.9892 24.6722C21.9892 23.5726 21.1024 22.673 20 22.673Z" fill="black"/>
<path d="M20.9946 7.74568L21.6577 8.90356C22.1633 8.61201 22.5777 8.18717 22.8678 7.68737L21.724 7.02097C21.5499 7.31252 21.293 7.57075 20.9946 7.74568Z" fill="black"/>
<path d="M21.9892 6.01291C21.9892 4.91335 21.0941 4.0137 20 4.0137C19.8342 4.0137 19.6685 4.03869 19.5027 4.08034L19.1712 2.78919C19.4364 2.71422 19.7099 2.6809 19.9917 2.6809C21.8317 2.6809 23.3154 4.17197 23.3154 6.01291H21.9892Z" fill="black"/>
<path d="M15.3585 13.3433C16.4608 13.3433 17.3477 14.2346 17.3477 15.3425C17.3477 15.8256 17.1736 16.3004 16.8504 16.667L17.845 17.5499C19.0551 16.1672 18.9225 14.0597 17.5549 12.8435C16.4857 11.8939 14.9358 11.7439 13.7008 12.4603L14.3639 13.6098C14.6705 13.4349 15.0104 13.3433 15.3585 13.3433Z" fill="black"/>
<path d="M10.717 22.673V21.3401C11.6701 21.3401 12.5736 21.7483 13.2035 22.4647L12.2089 23.3477C11.8276 22.9229 11.2889 22.673 10.717 22.673Z" fill="black"/>
<path fill-rule="evenodd" clip-rule="evenodd" d="M27.9735 38.6581L39.7845 36.6756L40 37.9917L28.0646 39.9909C27.9901 39.9992 27.9072 39.9992 27.8243 39.9826L20 38.3416L12.1757 39.9826C12.1011 39.9992 12.0182 40.0076 11.9354 39.9909L0 37.9917L0.2155 36.6756L12.0431 38.6498L27.2772 35.4594C27.1032 34.3765 26.0837 33.6351 25.0062 33.81L15.4745 35.3261C15.317 35.3511 15.1596 35.3261 15.0269 35.2428L8.55367 31.336H7.40986V30.0032H12.7145C13.5516 30.0032 14.3058 29.4701 14.5877 28.6704H6.63075C6.4484 28.6704 6.28264 28.7371 6.15831 28.862L3.89557 31.1528C3.77124 31.2777 3.59718 31.3444 3.42313 31.3444H0.10775V30.0116H3.14961L5.22172 27.9291C5.32118 27.8291 5.42893 27.7375 5.54496 27.6625C5.07252 26.8461 4.80729 25.9298 4.75756 24.9886C4.58351 21.6815 7.11148 18.8577 10.402 18.6827C9.80522 17.7831 9.45711 16.7418 9.39909 15.6673C9.22503 12.3602 11.753 9.52803 15.0435 9.3531C13.7008 7.33724 13.7008 4.69662 15.0435 2.68076C16.8753 -0.0764819 20.5802 -0.834512 23.3237 1.00642C26.0671 2.84736 26.7965 6.57921 24.9648 9.32811C26.034 9.38642 27.07 9.73628 27.9652 10.336C30.7087 12.177 31.438 15.9005 29.6063 18.6577C30.5429 18.7077 31.4546 18.9826 32.2669 19.4491C35.1181 21.0984 36.1044 24.7636 34.4633 27.6375C34.5794 27.7125 34.6871 27.8041 34.7866 27.9041L36.8587 29.9866H39.9005V31.3194H36.5852C36.4028 31.3194 36.237 31.2527 36.1127 31.1278L33.85 28.8537C33.7257 28.7287 33.5516 28.6621 33.3775 28.6621H25.4206C25.7024 29.4618 26.4484 29.9949 27.2938 29.9949H32.5984V31.3277H31.4546L27.7663 33.5518C28.3133 34.1682 28.62 34.9596 28.62 35.7843V36.0008C28.62 36.3174 28.3962 36.5839 28.0895 36.6506L23.2491 37.6668L27.9735 38.6581ZM33.0957 27.3376C33.6345 26.5546 33.9246 25.6216 33.9246 24.672C33.9246 23.0976 33.1372 21.6316 31.8276 20.7652C29.6809 19.3575 26.8048 19.9572 25.4041 22.1147C26.1749 23.7724 26.1583 25.6966 25.346 27.3376H33.0957ZM27.6254 18.9076C28.678 18.0247 29.2831 16.7168 29.2831 15.3424C29.2831 13.768 28.4956 12.3019 27.1778 11.4273C25.0311 10.0195 22.155 10.6193 20.7542 12.7767C21.6494 14.6843 21.4836 16.9251 20.315 18.6744C21.9975 18.766 23.5723 19.574 24.6332 20.8985C25.4041 19.9489 26.4484 19.2492 27.6254 18.9076ZM20 29.3368C22.5611 29.3368 24.6415 27.246 24.6415 24.672C24.6415 22.098 22.5611 20.0072 20 20.0072C17.4389 20.0072 15.3585 22.098 15.3585 24.672C15.3585 27.246 17.4389 29.3368 20 29.3368ZM24.6415 6.01276C24.6415 3.43046 22.5611 1.34795 20 1.34795C18.6324 1.34795 17.3311 1.95604 16.4443 3.01396C14.7949 4.98817 15.0435 7.92867 17.0079 9.58634C18.1848 9.92787 19.2209 10.6193 19.9917 11.5772C20.7625 10.6276 21.8069 9.92787 22.9838 9.58634C24.0365 8.69503 24.6415 7.38722 24.6415 6.01276ZM20 15.3424C20 12.7601 17.9196 10.6776 15.3585 10.6776C13.9909 10.6776 12.6896 11.2857 11.8027 12.3436C10.1533 14.3178 10.402 17.2583 12.3663 18.916C13.5433 19.2575 14.5877 19.9489 15.3585 20.9068C16.1293 19.9572 17.1654 19.2575 18.3423 18.916C19.3949 18.0247 20 16.7168 20 15.3424ZM6.07543 24.672C6.06714 25.6216 6.35723 26.5546 6.90427 27.3376H14.6622C13.85 25.6966 13.8251 23.7724 14.6042 22.1147C13.7422 20.7985 12.2835 20.0072 10.717 20.0072C8.15582 20.0072 6.07543 22.098 6.07543 24.672ZM24.7907 32.5022C25.3958 32.4023 26.0174 32.4772 26.5893 32.7188L28.8769 31.336H27.2938C25.8433 31.336 24.5586 30.3864 24.1276 28.9953C21.8235 31.2277 18.1765 31.2277 15.8724 28.9953C15.4414 30.3864 14.1567 31.336 12.7062 31.336H11.1231L15.4994 33.9766L24.7907 32.5022Z" fill="black"/>
</svg>
