<svg width="548" height="192" viewBox="0 0 548 192" fill="none" xmlns="http://www.w3.org/2000/svg">
<path d="M37.0909 101.154L35.7028 100.586L35.6985 100.597L37.0909 101.154ZM49.3749 82.2302L48.3034 81.181L49.3749 82.2302ZM67.9669 69.9462L67.4099 68.5538H67.4099L67.9669 69.9462ZM124.075 74.7602L124.896 73.5055L124.075 74.7602ZM144.327 100.324L144.691 101.779L146.334 101.368L145.727 99.7868L144.327 100.324ZM122.415 105.802L121.06 106.446L121.587 107.555L122.779 107.257L122.415 105.802ZM114.447 95.1782L113.468 96.314L113.479 96.3239L113.491 96.3335L114.447 95.1782ZM103.823 89.2022L103.337 90.6208L103.355 90.6271L103.373 90.6329L103.823 89.2022ZM74.1089 92.1902L74.9213 93.4508L74.9311 93.4444L74.9408 93.438L74.1089 92.1902ZM62.4889 105.47L61.1423 104.81L61.1371 104.821L61.132 104.832L62.4889 105.47ZM62.4889 144.48L61.132 145.119L61.1371 145.13L61.1423 145.14L62.4889 144.48ZM74.1089 157.76L73.2965 159.021L74.1089 157.76ZM104.155 160.582L103.692 159.156L103.681 159.159L104.155 160.582ZM115.277 153.942L114.272 152.829L114.263 152.837L114.254 152.846L115.277 153.942ZM123.909 141.492L124.246 140.031L123.043 139.753L122.54 140.88L123.909 141.492ZM145.489 146.472L146.9 146.981L147.473 145.391L145.826 145.011L145.489 146.472ZM124.739 174.526L125.584 175.765L124.739 174.526ZM67.9669 179.838L68.5239 178.446L67.9669 179.838ZM49.3749 167.72L48.3034 168.769L48.3089 168.775L48.3145 168.781L49.3749 167.72ZM37.0909 148.962L35.6956 149.512L35.7007 149.525L35.706 149.537L37.0909 148.962ZM34.2746 124.892C34.2746 116.429 35.6845 108.708 38.4833 101.711L35.6985 100.597C32.7427 107.987 31.2752 116.091 31.2752 124.892H34.2746ZM38.4789 101.722C41.3981 94.5862 45.3889 88.4445 50.4464 83.2794L48.3034 81.181C42.9582 86.6398 38.7597 93.1141 35.7029 100.586L38.4789 101.722ZM50.4464 83.2794C55.4958 78.1226 61.5157 74.1419 68.5239 71.3386L67.4099 68.5538C60.0314 71.5052 53.6567 75.7138 48.3034 81.181L50.4464 83.2794ZM68.5239 71.3386C75.5254 68.538 83.1366 67.1299 91.3729 67.1299V64.1305C82.7879 64.1305 74.7951 65.5997 67.4099 68.5538L68.5239 71.3386ZM91.3729 67.1299C103.624 67.1299 114.231 70.1076 123.253 76.0148L124.896 73.5055C115.326 67.2395 104.132 64.1305 91.3729 64.1305V67.1299ZM123.253 76.0148C132.271 81.9191 138.828 90.1819 142.927 100.862L145.727 99.7868C141.416 88.5544 134.471 79.7746 124.896 73.5055L123.253 76.0148ZM143.963 98.8693L122.051 104.347L122.779 107.257L144.691 101.779L143.963 98.8693ZM123.77 105.159C121.589 100.569 118.808 96.8409 115.403 94.0228L113.491 96.3335C116.504 98.8275 119.035 102.182 121.06 106.446L123.77 105.159ZM115.426 94.0423C112.069 91.1483 108.349 89.0527 104.273 87.7715L103.373 90.6329C107.043 91.7863 110.406 93.6747 113.468 96.314L115.426 94.0423ZM104.309 87.7836C100.271 86.3991 96.0114 85.7105 91.5389 85.7105V88.7099C95.6984 88.7099 99.628 89.3493 103.337 90.6208L104.309 87.7836ZM91.5389 85.7105C84.6365 85.7105 78.53 87.4404 73.277 90.9424L74.9408 93.438C79.6478 90.2999 85.1613 88.7099 91.5389 88.7099V85.7105ZM73.2965 90.9296C68.073 94.2959 64.0215 98.9366 61.1423 104.81L63.8355 106.13C66.4897 100.716 70.1848 96.5032 74.9213 93.4508L73.2965 90.9296ZM61.132 104.832C58.3672 110.707 57.0052 117.405 57.0052 124.892H60.0046C60.0046 117.771 61.2986 111.522 63.8458 106.109L61.132 104.832ZM57.0052 124.892C57.0052 132.486 58.3659 139.241 61.132 145.119L63.8458 143.842C61.2999 138.432 60.0046 132.127 60.0046 124.892H57.0052ZM61.1423 145.14C64.0215 151.014 68.073 155.654 73.2965 159.021L74.9213 156.5C70.1848 153.447 66.4897 149.235 63.8355 143.82L61.1423 145.14ZM73.2965 159.021C78.5473 162.405 84.6467 164.074 91.5389 164.074V161.075C85.1511 161.075 79.6306 159.534 74.9213 156.5L73.2965 159.021ZM91.5389 164.074C96.118 164.074 100.484 163.387 104.629 162.005L103.681 159.159C99.8577 160.434 95.8132 161.075 91.5389 161.075V164.074ZM104.618 162.009C108.932 160.609 112.829 158.279 116.3 155.039L114.254 152.846C111.085 155.803 107.567 157.899 103.692 159.156L104.618 162.009ZM116.282 155.055C119.899 151.788 122.888 147.453 125.278 142.104L122.54 140.88C120.282 145.934 117.516 149.899 114.272 152.829L116.282 155.055ZM123.572 142.953L145.152 147.933L145.826 145.011L124.246 140.031L123.572 142.953ZM144.078 145.964C139.742 157.996 133.003 167.072 123.894 173.287L125.584 175.765C135.289 169.143 142.382 159.516 146.9 146.981L144.078 145.964ZM123.894 173.287C114.767 179.515 103.948 182.655 91.3729 182.655V185.654C104.472 185.654 115.897 182.375 125.584 175.765L123.894 173.287ZM91.3729 182.655C83.1366 182.655 75.5254 181.246 68.5239 178.446L67.4099 181.231C74.7951 184.185 82.7879 185.654 91.3729 185.654V182.655ZM68.5239 178.446C61.5089 175.64 55.4855 171.71 50.4353 166.66L48.3145 168.781C53.667 174.133 60.0383 178.282 67.4099 181.231L68.5239 178.446ZM50.4464 166.671C45.3852 161.502 41.3941 155.412 38.4759 148.387L35.706 149.537C38.7637 156.899 42.962 163.314 48.3034 168.769L50.4464 166.671ZM38.4862 148.413C35.6853 141.302 34.2746 133.468 34.2746 124.892H31.2752C31.2752 133.802 32.7419 142.014 35.6956 149.512L38.4862 148.413ZM209.399 182.992L207.918 183.231L208.122 184.492H209.399V182.992ZM207.739 172.7L209.219 172.461L208.686 169.156L206.575 171.755L207.739 172.7ZM198.443 181L199.214 182.286L198.443 181ZM171.219 181.332L170.593 182.695L170.608 182.702L170.624 182.709L171.219 181.332ZM161.425 173.198L160.171 174.021L160.18 174.034L160.189 174.048L161.425 173.198ZM165.243 143.318L164.233 142.21L164.227 142.215L164.221 142.221L165.243 143.318ZM188.317 134.852L188.476 136.343L188.483 136.343L188.317 134.852ZM207.739 132.694L207.905 134.185L209.239 134.036V132.694H207.739ZM204.917 121.738L203.825 122.766L203.856 122.799L203.889 122.83L204.917 121.738ZM187.487 121.572L186.63 120.341L186.618 120.35L186.605 120.359L187.487 121.572ZM182.507 129.208L181.999 130.619L183.535 131.172L183.956 129.595L182.507 129.208ZM161.757 121.738L160.332 121.27L159.877 122.655L161.249 123.149L161.757 121.738ZM174.539 104.806L175.344 106.071L175.35 106.068L174.539 104.806ZM231.975 182.992V184.492H233.475V182.992H231.975ZM207.739 147.634H209.239V145.947L207.563 146.145L207.739 147.634ZM192.301 149.46L192.125 147.971L192.107 147.973L192.089 147.976L192.301 149.46ZM185.163 152.448L186.183 153.547L186.186 153.545L185.163 152.448ZM200.767 163.57L201.49 164.884L201.514 164.871L201.538 164.856L200.767 163.57ZM205.913 158.092L207.241 158.788L207.248 158.776L207.254 158.763L205.913 158.092ZM210.879 182.753L209.219 172.461L206.258 172.939L207.918 183.231L210.879 182.753ZM206.575 171.755C203.788 175.184 200.818 177.826 197.671 179.714L199.214 182.286C202.708 180.19 205.935 177.299 208.903 173.646L206.575 171.755ZM197.671 179.714C194.664 181.519 190.535 182.489 185.163 182.489V185.488C190.858 185.488 195.582 184.466 199.214 182.286L197.671 179.714ZM185.163 182.489C180.133 182.489 175.692 181.633 171.814 179.956L170.624 182.709C174.935 184.573 179.79 185.488 185.163 185.488V182.489ZM171.845 179.969C167.984 178.195 164.935 175.656 162.661 172.349L160.189 174.048C162.785 177.823 166.265 180.706 170.593 182.695L171.845 179.969ZM162.679 172.375C160.542 169.119 159.439 165.156 159.439 160.416H156.439C156.439 165.636 157.66 170.195 160.171 174.021L162.679 172.375ZM159.439 160.416C159.439 153.956 161.711 148.659 166.265 144.415L164.221 142.221C159.036 147.052 156.439 153.153 156.439 160.416H159.439ZM166.253 144.427C170.899 140.194 178.226 137.434 188.476 136.343L188.158 133.361C177.602 134.484 169.547 137.368 164.233 142.21L166.253 144.427ZM188.483 136.343L207.905 134.185L207.573 131.204L188.151 133.362L188.483 136.343ZM209.239 132.694V127.216H206.239V132.694H209.239ZM209.239 127.216C209.239 124.785 208.011 122.591 205.945 120.646L203.889 122.83C205.585 124.427 206.239 125.884 206.239 127.216H209.239ZM206.009 120.71C203.839 118.405 200.532 117.417 196.451 117.417V120.416C200.117 120.416 202.453 121.309 203.825 122.766L206.009 120.71ZM196.451 117.417C192.748 117.417 189.454 118.377 186.63 120.341L188.343 122.803C190.611 121.226 193.292 120.416 196.451 120.416V117.417ZM186.605 120.359C183.853 122.361 182.019 125.219 181.058 128.822L183.956 129.595C184.766 126.557 186.251 124.325 188.369 122.785L186.605 120.359ZM183.015 127.797L162.265 120.327L161.249 123.149L181.999 130.619L183.015 127.797ZM163.182 122.206C165.518 115.092 169.575 109.743 175.344 106.071L173.734 103.541C167.33 107.616 162.865 113.555 160.332 121.27L163.182 122.206ZM175.35 106.068C181.255 102.272 188.593 100.33 197.447 100.33V97.3305C188.152 97.3305 180.218 99.3726 173.728 103.545L175.35 106.068ZM197.447 100.33C208.499 100.33 216.644 103.091 222.137 108.377L224.217 106.216C217.979 100.213 208.971 97.3305 197.447 97.3305V100.33ZM222.137 108.377C227.659 113.69 230.475 120.854 230.475 130.038H233.475C233.475 120.188 230.426 112.19 224.217 106.216L222.137 108.377ZM230.475 130.038V182.992H233.475V130.038H230.475ZM231.975 181.493H209.399V184.492H231.975V181.493ZM207.563 146.145L192.125 147.971L192.477 150.949L207.915 149.123L207.563 146.145ZM192.089 147.976C188.798 148.446 186.094 149.527 184.14 151.352L186.186 153.545C187.551 152.27 189.606 151.36 192.513 150.945L192.089 147.976ZM184.142 151.349C182.272 153.086 181.339 155.318 181.339 157.926H184.339C184.339 156.108 184.955 154.687 186.183 153.547L184.142 151.349ZM181.339 157.926C181.339 160.523 182.462 162.706 184.549 164.402L186.441 162.074C184.986 160.893 184.339 159.535 184.339 157.926H181.339ZM184.549 164.402C186.669 166.125 189.479 166.896 192.799 166.896V163.897C189.922 163.897 187.862 163.229 186.441 162.074L184.549 164.402ZM192.799 166.896C196.094 166.896 199.01 166.248 201.49 164.884L200.044 162.256C198.097 163.327 195.702 163.897 192.799 163.897V166.896ZM201.538 164.856C203.992 163.384 205.898 161.352 207.241 158.788L204.584 157.396C203.493 159.48 201.968 161.1 199.995 162.284L201.538 164.856ZM207.254 158.763C208.602 156.067 209.239 152.835 209.239 149.128H206.239C206.239 152.504 205.658 155.248 204.572 157.422L207.254 158.763ZM209.239 149.128V147.634H206.239V149.128H209.239ZM255.924 99.9922V101.492H257.424V99.9922H255.924ZM255.924 76.7522V75.2525H254.425V76.7522H255.924ZM280.658 76.7522H282.158V75.2525H280.658V76.7522ZM280.658 99.9922H279.159V101.492H280.658V99.9922ZM297.756 99.9922H299.256V98.4925H297.756V99.9922ZM297.756 121.406V122.906H299.256V121.406H297.756ZM280.658 121.406V119.907H279.159V121.406H280.658ZM283.148 159.254L282.125 160.351L282.143 160.367L282.161 160.383L283.148 159.254ZM289.788 161.744L289.726 163.243L289.757 163.244H289.788V161.744ZM297.756 161.08H299.256V159.31L297.51 159.601L297.756 161.08ZM297.756 182.162L298.017 183.639L299.256 183.42V182.162H297.756ZM281.654 182.992L281.784 181.498L281.768 181.497L281.752 181.496L281.654 182.992ZM268.208 179.008L267.42 180.284L267.428 180.289L267.437 180.294L268.208 179.008ZM259.244 168.716L257.896 169.374L259.244 168.716ZM255.924 121.406H257.424V119.907H255.924V121.406ZM244.304 121.406H242.805V122.906H244.304V121.406ZM244.304 99.9922V98.4925H242.805V99.9922H244.304ZM257.424 99.9922V76.7522H254.425V99.9922H257.424ZM255.924 78.2519H280.658V75.2525H255.924V78.2519ZM279.159 76.7522V99.9922H282.158V76.7522H279.159ZM280.658 101.492H297.756V98.4925H280.658V101.492ZM296.257 99.9922V121.406H299.256V99.9922H296.257ZM297.756 119.907H280.658V122.906H297.756V119.907ZM279.159 121.406V151.286H282.158V121.406H279.159ZM279.159 151.286C279.159 155.203 280.012 158.378 282.125 160.351L284.172 158.158C282.965 157.031 282.158 154.895 282.158 151.286H279.159ZM282.161 160.383C284.222 162.186 286.775 163.12 289.726 163.243L289.851 160.246C287.489 160.147 285.616 159.421 284.136 158.126L282.161 160.383ZM289.788 163.244C292.528 163.244 295.266 163.016 298.003 162.559L297.51 159.601C294.934 160.03 292.361 160.245 289.788 160.245V163.244ZM296.257 161.08V182.162H299.256V161.08H296.257ZM297.496 180.685C291.965 181.661 286.73 181.928 281.784 181.498L281.524 184.486C286.76 184.942 292.259 184.655 298.017 183.639L297.496 180.685ZM281.752 181.496C276.868 181.177 272.623 179.908 268.98 177.722L267.437 180.294C271.54 182.756 276.259 184.143 281.557 184.489L281.752 181.496ZM268.996 177.732C265.508 175.578 262.699 172.378 260.592 168.059L257.896 169.374C260.216 174.129 263.383 177.791 267.42 180.284L268.996 177.732ZM260.592 168.059C258.511 163.792 257.424 158.227 257.424 151.286H254.425C254.425 158.511 255.551 164.566 257.896 169.374L260.592 168.059ZM257.424 151.286V121.406H254.425V151.286H257.424ZM255.924 119.907H244.304V122.906H255.924V119.907ZM245.804 121.406V99.9922H242.805V121.406H245.804ZM244.304 101.492H255.924V98.4925H244.304V101.492ZM317.85 99.9922V101.492H319.35V99.9922H317.85ZM317.85 76.7522V75.2525H316.35V76.7522H317.85ZM342.584 76.7522H344.084V75.2525H342.584V76.7522ZM342.584 99.9922H341.084V101.492H342.584V99.9922ZM359.682 99.9922H361.182V98.4925H359.682V99.9922ZM359.682 121.406V122.906H361.182V121.406H359.682ZM342.584 121.406V119.907H341.084V121.406H342.584ZM345.074 159.254L344.051 160.351L344.068 160.367L344.087 160.383L345.074 159.254ZM351.714 161.744L351.652 163.243L351.683 163.244H351.714V161.744ZM359.682 161.08H361.182V159.31L359.436 159.601L359.682 161.08ZM359.682 182.162L359.943 183.639L361.182 183.42V182.162H359.682ZM343.58 182.992L343.71 181.498L343.694 181.497L343.678 181.496L343.58 182.992ZM330.134 179.008L329.346 180.284L329.354 180.289L329.363 180.294L330.134 179.008ZM321.17 168.716L319.822 169.374L321.17 168.716ZM317.85 121.406H319.35V119.907H317.85V121.406ZM306.23 121.406H304.73V122.906H306.23V121.406ZM306.23 99.9922V98.4925H304.73V99.9922H306.23ZM319.35 99.9922V76.7522H316.35V99.9922H319.35ZM317.85 78.2519H342.584V75.2525H317.85V78.2519ZM341.084 76.7522V99.9922H344.084V76.7522H341.084ZM342.584 101.492H359.682V98.4925H342.584V101.492ZM358.182 99.9922V121.406H361.182V99.9922H358.182ZM359.682 119.907H342.584V122.906H359.682V119.907ZM341.084 121.406V151.286H344.084V121.406H341.084ZM341.084 151.286C341.084 155.203 341.938 158.378 344.051 160.351L346.097 158.158C344.891 157.031 344.084 154.895 344.084 151.286H341.084ZM344.087 160.383C346.148 162.186 348.701 163.12 351.652 163.243L351.777 160.246C349.415 160.147 347.542 159.421 346.062 158.126L344.087 160.383ZM351.714 163.244C354.454 163.244 357.192 163.016 359.929 162.559L359.436 159.601C356.86 160.03 354.286 160.245 351.714 160.245V163.244ZM358.182 161.08V182.162H361.182V161.08H358.182ZM359.421 180.685C353.891 181.661 348.656 181.928 343.71 181.498L343.45 184.486C348.686 184.942 354.185 184.655 359.943 183.639L359.421 180.685ZM343.678 181.496C338.794 181.177 334.549 179.908 330.906 177.722L329.363 180.294C333.466 182.756 338.185 184.143 343.482 184.489L343.678 181.496ZM330.922 177.732C327.434 175.578 324.625 172.378 322.518 168.059L319.822 169.374C322.142 174.129 325.309 177.791 329.346 180.284L330.922 177.732ZM322.518 168.059C320.436 163.792 319.35 158.227 319.35 151.286H316.35C316.35 158.511 317.477 164.566 319.822 169.374L322.518 168.059ZM319.35 151.286V121.406H316.35V151.286H319.35ZM317.85 119.907H306.23V122.906H317.85V119.907ZM307.73 121.406V99.9922H304.73V121.406H307.73ZM306.23 101.492H317.85V98.4925H306.23V101.492ZM373.302 63.4722V61.9725H371.802V63.4722H373.302ZM397.538 63.4722H399.038V61.9725H397.538V63.4722ZM397.538 182.992V184.492H399.038V182.992H397.538ZM373.302 182.992H371.802V184.492H373.302V182.992ZM373.302 64.9719H397.538V61.9725H373.302V64.9719ZM396.038 63.4722V182.992H399.038V63.4722H396.038ZM397.538 181.493H373.302V184.492H397.538V181.493ZM374.802 182.992V63.4722H371.802V182.992H374.802ZM432.205 178.842L431.453 180.14L431.462 180.145L431.47 180.15L432.205 178.842ZM417.431 163.57L416.103 164.268L416.108 164.276L416.112 164.285L417.431 163.57ZM417.431 119.082L418.748 119.799L417.431 119.082ZM431.873 104.308L432.617 105.61L432.625 105.605L432.634 105.6L431.873 104.308ZM474.535 103.976L473.798 105.283L473.807 105.288L473.816 105.293L474.535 103.976ZM488.811 118.252L490.123 117.526L488.811 118.252ZM493.293 148.796V150.296H494.617L494.781 148.982L493.293 148.796ZM438.181 148.796V147.297H436.378L436.706 149.069L438.181 148.796ZM441.335 156.598L440.106 157.458L440.116 157.473L440.127 157.488L441.335 156.598ZM447.145 161.578L446.449 162.907L446.486 162.926L446.524 162.943L447.145 161.578ZM464.741 161.08L465.432 162.411L464.741 161.08ZM470.883 154.938L471.28 153.492L470.092 153.166L469.541 154.268L470.883 154.938ZM492.629 160.914L493.997 161.527L494.712 159.931L493.026 159.468L492.629 160.914ZM477.689 178.178L478.46 179.464L478.468 179.459L478.476 179.455L477.689 178.178ZM467.563 133.026V134.526H469.123L469.061 132.966L467.563 133.026ZM465.405 125.722L464.137 126.523L465.405 125.722ZM460.259 120.742L461.01 119.444L460.259 120.742ZM453.287 119.082L453.221 117.584L453.287 119.082ZM446.315 121.074L447.043 122.385L447.055 122.379L447.066 122.372L446.315 121.074ZM441.169 125.888L442.384 126.766L442.396 126.751L442.406 126.735L441.169 125.888ZM438.513 133.026L437.024 132.848L436.822 134.526H438.513V133.026ZM454.449 182.655C446.138 182.655 438.986 180.929 432.939 177.534L431.47 180.15C438.04 183.838 445.716 185.654 454.449 185.654V182.655ZM432.956 177.544C426.892 174.033 422.161 169.147 418.749 162.855L416.112 164.285C419.783 171.052 424.901 176.347 431.453 180.14L432.956 177.544ZM418.758 162.873C415.46 156.595 413.784 149.207 413.784 140.662H410.785C410.785 149.603 412.54 157.487 416.103 164.268L418.758 162.873ZM413.784 140.662C413.784 132.802 415.451 125.86 418.748 119.799L416.113 118.366C412.549 124.92 410.785 132.365 410.785 140.662H413.784ZM418.748 119.799C422.047 113.734 426.663 109.013 432.617 105.61L431.129 103.006C424.688 106.686 419.676 111.815 416.113 118.366L418.748 119.799ZM432.634 105.6C438.58 102.097 445.34 100.33 452.955 100.33V97.3305C444.855 97.3305 437.56 99.2158 431.111 103.016L432.634 105.6ZM452.955 100.33C461.045 100.33 467.975 102.001 473.798 105.283L475.271 102.67C468.921 99.0905 461.464 97.3305 452.955 97.3305V100.33ZM473.816 105.293C479.647 108.473 484.203 113.025 487.499 118.979L490.123 117.526C486.557 111.085 481.595 106.119 475.253 102.66L473.816 105.293ZM487.499 118.979C490.788 124.921 492.457 131.857 492.457 139.832H495.456C495.456 131.429 493.694 123.978 490.123 117.526L487.499 118.979ZM492.457 139.832C492.457 141.119 492.403 142.464 492.295 143.867L495.286 144.097C495.399 142.624 495.456 141.202 495.456 139.832H492.457ZM492.295 143.867C492.187 145.277 492.024 146.858 491.805 148.61L494.781 148.982C495.004 147.193 495.173 145.564 495.286 144.097L492.295 143.867ZM493.293 147.297H438.181V150.296H493.293V147.297ZM436.706 149.069C437.294 152.242 438.419 155.048 440.106 157.458L442.563 155.738C441.151 153.721 440.174 151.327 439.655 148.523L436.706 149.069ZM440.127 157.488C441.812 159.775 443.924 161.584 446.449 162.907L447.84 160.25C445.717 159.137 443.956 157.627 442.542 155.709L440.127 157.488ZM446.524 162.943C449.182 164.152 452.166 164.738 455.445 164.738V161.739C452.526 161.739 449.976 161.218 447.765 160.213L446.524 162.943ZM455.445 164.738C459.092 164.738 462.431 163.971 465.432 162.411L464.049 159.75C461.517 161.066 458.659 161.739 455.445 161.739V164.738ZM465.432 162.411C468.465 160.834 470.747 158.563 472.224 155.609L469.541 154.268C468.362 156.626 466.55 158.449 464.049 159.75L465.432 162.411ZM470.485 156.384L492.231 162.36L493.026 159.468L471.28 153.492L470.485 156.384ZM491.26 160.301C488.057 167.454 483.274 172.972 476.901 176.902L478.476 179.455C485.383 175.195 490.56 169.204 493.997 161.527L491.26 160.301ZM476.917 176.892C470.542 180.717 463.07 182.655 454.449 182.655V185.654C463.534 185.654 471.555 183.607 478.46 179.464L476.917 176.892ZM469.061 132.966C468.941 129.967 468.157 127.271 466.673 124.921L464.137 126.523C465.309 128.379 465.963 130.552 466.064 133.086L469.061 132.966ZM466.673 124.921C465.218 122.619 463.328 120.786 461.01 119.444L459.507 122.04C461.395 123.133 462.935 124.62 464.137 126.523L466.673 124.921ZM461.01 119.444C458.647 118.077 456.038 117.461 453.221 117.584L453.352 120.58C455.626 120.482 457.664 120.973 459.507 122.04L461.01 119.444ZM453.221 117.584C450.447 117.705 447.885 118.432 445.563 119.776L447.066 122.372C448.949 121.282 451.036 120.681 453.352 120.58L453.221 117.584ZM445.586 119.763C443.368 120.996 441.485 122.769 439.931 125.041L442.406 126.735C443.729 124.802 445.277 123.366 447.043 122.385L445.586 119.763ZM439.953 125.01C438.346 127.235 437.382 129.863 437.024 132.848L440.002 133.205C440.307 130.656 441.114 128.526 442.384 126.766L439.953 125.01ZM438.513 134.526H467.563V131.527H438.513V134.526Z" fill="#1E140F"/>
<path d="M25.2769 120.392C25.2769 111.76 26.7155 103.848 29.5929 96.6542C32.5809 89.3502 36.6755 83.0422 41.8769 77.7302C47.0782 72.4182 53.2755 68.3235 60.4689 65.4462C67.6622 62.5688 75.4642 61.1302 83.8749 61.1302C96.3802 61.1302 107.281 64.1735 116.577 70.2602C125.873 76.3469 132.624 84.8682 136.829 95.8242L114.917 101.302C112.814 96.8755 110.158 93.3342 106.949 90.6782C103.74 87.9115 100.198 85.9195 96.3249 84.7022C92.4515 83.3742 88.3569 82.7102 84.0409 82.7102C77.4009 82.7102 71.5909 84.3702 66.6109 87.6902C61.6309 90.8995 57.7575 95.3262 54.9909 100.97C52.3349 106.614 51.0069 113.088 51.0069 120.392C51.0069 127.807 52.3349 134.336 54.9909 139.98C57.7575 145.624 61.6309 150.051 66.6109 153.26C71.5909 156.47 77.4009 158.074 84.0409 158.074C88.4675 158.074 92.6729 157.41 96.6569 156.082C100.752 154.754 104.459 152.541 107.779 149.442C111.21 146.344 114.087 142.194 116.411 136.992L137.991 141.972C133.564 154.256 126.648 163.608 117.241 170.026C107.834 176.445 96.7122 179.654 83.8749 179.654C75.4642 179.654 67.6622 178.216 60.4689 175.338C53.2755 172.461 47.0782 168.422 41.8769 163.22C36.6755 157.908 32.5809 151.656 29.5929 144.462C26.7155 137.158 25.2769 129.135 25.2769 120.392ZM201.901 178.492L200.241 168.2C197.364 171.742 194.265 174.508 190.945 176.5C187.625 178.492 183.198 179.488 177.665 179.488C172.464 179.488 167.816 178.603 163.721 176.832C159.626 174.951 156.362 172.24 153.927 168.698C151.603 165.157 150.441 160.896 150.441 155.916C150.441 149.055 152.876 143.356 157.745 138.818C162.725 134.281 170.416 131.459 180.819 130.352L200.241 128.194V122.716C200.241 120.835 199.3 119.009 197.419 117.238C195.648 115.357 192.826 114.416 188.953 114.416C185.522 114.416 182.534 115.302 179.989 117.072C177.554 118.843 175.894 121.388 175.009 124.708L154.259 117.238C156.694 109.824 160.954 104.18 167.041 100.306C173.238 96.3222 180.874 94.3302 189.949 94.3302C201.237 94.3302 209.814 97.1522 215.679 102.796C221.544 108.44 224.477 116.021 224.477 125.538V178.492H201.901ZM200.241 143.134L184.803 144.96C181.704 145.403 179.325 146.399 177.665 147.948C176.116 149.387 175.341 151.213 175.341 153.426C175.341 155.529 176.226 157.3 177.997 158.738C179.768 160.177 182.202 160.896 185.301 160.896C188.4 160.896 191.056 160.288 193.269 159.07C195.482 157.742 197.198 155.916 198.415 153.592C199.632 151.158 200.241 148.17 200.241 144.628V143.134ZM248.426 95.4922V72.2522H273.16V95.4922H290.258V116.906H273.16V146.786C273.16 150.549 273.99 153.205 275.65 154.754C277.421 156.304 279.634 157.134 282.29 157.244C284.946 157.244 287.602 157.023 290.258 156.58V177.662C284.614 178.658 279.247 178.935 274.156 178.492C269.066 178.16 264.584 176.832 260.71 174.508C256.948 172.184 253.96 168.754 251.746 164.216C249.533 159.679 248.426 153.869 248.426 146.786V116.906H236.806V95.4922H248.426ZM310.352 95.4922V72.2522H335.086V95.4922H352.184V116.906H335.086V146.786C335.086 150.549 335.916 153.205 337.576 154.754C339.347 156.304 341.56 157.134 344.216 157.244C346.872 157.244 349.528 157.023 352.184 156.58V177.662C346.54 178.658 341.173 178.935 336.082 178.492C330.991 178.16 326.509 176.832 322.636 174.508C318.873 172.184 315.885 168.754 313.672 164.216C311.459 159.679 310.352 153.869 310.352 146.786V116.906H298.732V95.4922H310.352ZM365.804 58.9722H390.04V178.492H365.804V58.9722ZM446.951 179.654C438.429 179.654 431.015 177.884 424.707 174.342C418.399 170.69 413.474 165.6 409.933 159.07C406.502 152.541 404.787 144.905 404.787 136.162C404.787 128.084 406.502 120.89 409.933 114.582C413.363 108.274 418.177 103.35 424.375 99.8082C430.572 96.1562 437.599 94.3302 445.457 94.3302C453.757 94.3302 460.95 96.0455 467.037 99.4762C473.123 102.796 477.882 107.555 481.313 113.752C484.743 119.95 486.459 127.143 486.459 135.332C486.459 136.66 486.403 138.044 486.293 139.482C486.182 140.921 486.016 142.526 485.795 144.296H430.683C431.236 147.284 432.287 149.885 433.837 152.098C435.386 154.201 437.323 155.861 439.647 157.078C442.081 158.185 444.848 158.738 447.947 158.738C451.377 158.738 454.476 158.019 457.243 156.58C460.009 155.142 462.057 153.094 463.385 150.438L485.131 156.414C481.811 163.829 476.831 169.584 470.191 173.678C463.551 177.662 455.804 179.654 446.951 179.654ZM460.065 128.526C459.954 125.76 459.235 123.325 457.907 121.222C456.579 119.12 454.863 117.46 452.761 116.242C450.658 115.025 448.334 114.472 445.789 114.582C443.243 114.693 440.919 115.357 438.817 116.574C436.825 117.681 435.109 119.286 433.671 121.388C432.232 123.38 431.347 125.76 431.015 128.526H460.065Z" fill="#1E140F"/>
<path d="M417.288 15H447.768V22.74H426.528V32.04H442.428V39.36H426.528V57H417.288V15ZM462.548 57.42C459.468 57.42 456.788 56.78 454.508 55.5C452.228 54.18 450.448 52.34 449.168 49.98C447.928 47.62 447.308 44.86 447.308 41.7C447.308 38.78 447.928 36.18 449.168 33.9C450.408 31.62 452.148 29.84 454.388 28.56C456.628 27.24 459.168 26.58 462.008 26.58C465.008 26.58 467.608 27.2 469.808 28.44C472.008 29.64 473.728 31.36 474.968 33.6C476.208 35.84 476.828 38.44 476.828 41.4C476.828 41.88 476.808 42.38 476.768 42.9C476.728 43.42 476.668 44 476.588 44.64H456.668C456.868 45.72 457.248 46.66 457.808 47.46C458.368 48.22 459.068 48.82 459.908 49.26C460.788 49.66 461.788 49.86 462.908 49.86C464.148 49.86 465.268 49.6 466.268 49.08C467.268 48.56 468.008 47.82 468.488 46.86L476.348 49.02C475.148 51.7 473.348 53.78 470.948 55.26C468.548 56.7 465.748 57.42 462.548 57.42ZM467.288 38.94C467.248 37.94 466.988 37.06 466.508 36.3C466.028 35.54 465.408 34.94 464.648 34.5C463.888 34.06 463.048 33.86 462.128 33.9C461.208 33.94 460.368 34.18 459.608 34.62C458.888 35.02 458.268 35.6 457.748 36.36C457.228 37.08 456.908 37.94 456.788 38.94H467.288ZM496.063 57.42C492.983 57.42 490.303 56.78 488.023 55.5C485.743 54.18 483.963 52.34 482.683 49.98C481.443 47.62 480.823 44.86 480.823 41.7C480.823 38.78 481.443 36.18 482.683 33.9C483.923 31.62 485.663 29.84 487.903 28.56C490.143 27.24 492.683 26.58 495.523 26.58C498.523 26.58 501.123 27.2 503.323 28.44C505.523 29.64 507.243 31.36 508.483 33.6C509.723 35.84 510.343 38.44 510.343 41.4C510.343 41.88 510.323 42.38 510.283 42.9C510.243 43.42 510.183 44 510.103 44.64H490.183C490.383 45.72 490.763 46.66 491.323 47.46C491.883 48.22 492.583 48.82 493.423 49.26C494.303 49.66 495.303 49.86 496.423 49.86C497.663 49.86 498.783 49.6 499.783 49.08C500.783 48.56 501.523 47.82 502.003 46.86L509.863 49.02C508.663 51.7 506.863 53.78 504.463 55.26C502.063 56.7 499.263 57.42 496.063 57.42ZM500.803 38.94C500.763 37.94 500.503 37.06 500.023 36.3C499.543 35.54 498.923 34.94 498.163 34.5C497.403 34.06 496.563 33.86 495.643 33.9C494.723 33.94 493.883 34.18 493.123 34.62C492.403 35.02 491.783 35.6 491.263 36.36C490.743 37.08 490.423 37.94 490.303 38.94H500.803ZM537.079 31.62L535.879 31.68V13.8H544.639V57H536.719L536.179 53.22C535.379 54.38 534.199 55.38 532.639 56.22C531.079 57.02 529.339 57.42 527.419 57.42C524.899 57.42 522.639 56.8 520.639 55.56C518.679 54.28 517.139 52.48 516.019 50.16C514.899 47.84 514.339 45.12 514.339 42C514.339 38.84 514.899 36.12 516.019 33.84C517.139 31.52 518.679 29.74 520.639 28.5C522.599 27.22 524.859 26.58 527.419 26.58C529.699 26.58 531.659 27.08 533.299 28.08C534.939 29.04 536.199 30.22 537.079 31.62ZM523.759 42C523.759 44.2 524.319 45.98 525.439 47.34C526.559 48.66 528.019 49.32 529.819 49.32C530.899 49.32 531.899 49.04 532.819 48.48C533.739 47.92 534.479 47.1 535.039 46.02C535.599 44.94 535.879 43.6 535.879 42C535.879 40.4 535.599 39.06 535.039 37.98C534.479 36.9 533.739 36.08 532.819 35.52C531.899 34.92 530.899 34.62 529.819 34.62C527.979 34.62 526.499 35.3 525.379 36.66C524.299 38.02 523.759 39.8 523.759 42Z" fill="#EC691F"/>
</svg>
