<svg width="447" height="208" viewBox="0 0 447 208" fill="none" xmlns="http://www.w3.org/2000/svg">
<path d="M86.1717 79.589L87.5574 79.0988L87.2109 78.1191H86.1717V79.589ZM80.3617 79.589V78.1191H79.319L78.9744 79.1031L80.3617 79.589ZM47.1617 174.375V175.845H48.2043L48.549 174.861L47.1617 174.375ZM20.7677 174.375L19.3853 173.875L18.6734 175.845H20.7677V174.375ZM62.7657 58.175V56.7051H61.734L61.3833 57.6754L62.7657 58.175ZM104.266 58.175L105.649 57.6771L105.299 56.7051H104.266V58.175ZM146.098 174.375V175.845H148.189L147.481 173.877L146.098 174.375ZM119.704 174.375L118.318 174.865L118.664 175.845H119.704V174.375ZM48.8217 127.895V126.425H47.3517V127.895H48.8217ZM116.55 127.895H118.02V126.425H116.55V127.895ZM116.55 149.309V150.779H118.02V149.309H116.55ZM48.8217 149.309H47.3517V150.779H48.8217V149.309ZM86.1717 78.1191H80.3617V81.0589H86.1717V78.1191ZM78.9744 79.1031L45.7744 173.889L48.549 174.861L81.749 80.0749L78.9744 79.1031ZM47.1617 172.905H20.7677V175.845H47.1617V172.905ZM22.1501 174.875L64.1481 58.6746L61.3833 57.6754L19.3853 173.875L22.1501 174.875ZM62.7657 59.6449H104.266V56.7051H62.7657V59.6449ZM102.883 58.6729L144.715 174.873L147.481 173.877L105.649 57.6771L102.883 58.6729ZM146.098 172.905H119.704V175.845H146.098V172.905ZM121.089 173.885L87.5574 79.0988L84.7859 80.0792L118.318 174.865L121.089 173.885ZM48.8217 129.365H116.55V126.425H48.8217V129.365ZM115.08 127.895V149.309H118.02V127.895H115.08ZM116.55 147.839H48.8217V150.779H116.55V147.839ZM50.2916 149.309V127.895H47.3517V149.309H50.2916ZM215.582 161.593L216.816 162.392L218.2 160.252L215.655 160.125L215.582 161.593ZM205.124 171.387L204.358 170.132L205.124 171.387ZM170.098 170.391L169.294 171.622L169.303 171.628L169.312 171.633L170.098 170.391ZM157.316 155.451L158.639 154.812L157.316 155.451ZM157.316 110.299L158.635 110.947L158.639 110.938L157.316 110.299ZM170.098 95.525L170.884 96.7672L170.89 96.7631L170.098 95.525ZM203.298 93.699L202.601 94.9932L202.614 95.0002L202.627 95.007L203.298 93.699ZM213.092 101.833L211.882 102.668L214.015 105.761L214.547 102.041L213.092 101.833ZM214.586 91.375V89.9051H213.311L213.13 91.1671L214.586 91.375ZM236.498 91.375H237.968V89.9051H236.498V91.375ZM236.498 207.575V209.045H237.968V207.575H236.498ZM212.262 207.575H210.792V209.045H212.262V207.575ZM212.262 161.427L212.335 159.959L210.792 159.882V161.427H212.262ZM183.212 147.649L182.061 148.563L182.069 148.573L182.077 148.583L183.212 147.649ZM203.63 150.969L204.394 152.225L204.413 152.213L204.433 152.2L203.63 150.969ZM209.772 143.997L208.476 143.303L208.471 143.312L208.467 143.32L209.772 143.997ZM209.772 121.753L208.467 122.43L208.476 122.448L208.487 122.467L209.772 121.753ZM183.378 118.267L184.498 119.218L184.505 119.21L184.512 119.201L183.378 118.267ZM214.348 160.794C212.053 164.34 208.742 167.459 204.358 170.132L205.889 172.642C210.58 169.782 214.241 166.371 216.816 162.392L214.348 160.794ZM204.358 170.132C200.091 172.734 194.945 174.067 188.856 174.067V177.007C195.383 177.007 201.081 175.574 205.889 172.642L204.358 170.132ZM188.856 174.067C182.021 174.067 176.047 172.416 170.884 169.149L169.312 171.633C174.994 175.228 181.525 177.007 188.856 177.007V174.067ZM170.901 169.16C165.725 165.78 161.634 161.015 158.639 154.812L155.992 156.09C159.195 162.725 163.625 167.92 169.294 171.622L170.901 169.16ZM158.639 154.812C155.655 148.63 154.138 141.332 154.138 132.875H151.198C151.198 141.682 152.779 149.434 155.992 156.09L158.639 154.812ZM154.138 132.875C154.138 124.303 155.657 117.01 158.635 110.947L155.996 109.651C152.777 116.204 151.198 123.961 151.198 132.875H154.138ZM158.639 110.938C161.632 104.738 165.718 100.035 170.884 96.7672L169.312 94.2828C163.632 97.8762 159.196 103.022 155.992 109.66L158.639 110.938ZM170.89 96.7631C176.172 93.3826 182.146 91.6829 188.856 91.6829V88.7431C181.621 88.7431 175.09 90.5848 169.305 94.2869L170.89 96.7631ZM188.856 91.6829C193.945 91.6829 198.517 92.7941 202.601 94.9932L203.995 92.4048C199.447 89.9559 194.39 88.7431 188.856 88.7431V91.6829ZM202.627 95.007C206.779 97.1361 209.836 99.7012 211.882 102.668L214.302 100.998C211.921 97.5461 208.449 94.6886 203.968 92.391L202.627 95.007ZM214.547 102.041L216.041 91.5829L213.13 91.1671L211.636 101.625L214.547 102.041ZM214.586 92.8449H236.498V89.9051H214.586V92.8449ZM235.028 91.375V207.575H237.968V91.375H235.028ZM236.498 206.105H212.262V209.045H236.498V206.105ZM213.732 207.575V161.427H210.792V207.575H213.732ZM212.188 162.895L215.508 163.061L215.655 160.125L212.335 159.959L212.188 162.895ZM177.26 132.875C177.26 139.203 178.816 144.478 182.061 148.563L184.363 146.735C181.631 143.295 180.2 138.72 180.2 132.875H177.26ZM182.077 148.583C185.469 152.702 189.988 154.763 195.496 154.763V151.823C190.822 151.823 187.152 150.121 184.346 146.715L182.077 148.583ZM195.496 154.763C198.652 154.763 201.627 153.909 204.394 152.225L202.865 149.713C200.542 151.128 198.093 151.823 195.496 151.823V154.763ZM204.433 152.2C207.213 150.387 209.423 147.862 211.077 144.674L208.467 143.32C207.021 146.108 205.137 148.231 202.827 149.738L204.433 152.2ZM211.067 144.691C212.865 141.336 213.732 137.379 213.732 132.875H210.792C210.792 137.003 209.998 140.461 208.476 143.303L211.067 144.691ZM213.732 132.875C213.732 128.27 212.869 124.301 211.057 121.039L208.487 122.467C209.995 125.181 210.792 128.626 210.792 132.875H213.732ZM211.077 121.076C209.42 117.881 207.198 115.398 204.394 113.691L202.865 116.203C205.152 117.595 207.025 119.649 208.467 122.43L211.077 121.076ZM204.394 113.691C201.627 112.007 198.652 111.153 195.496 111.153V114.093C198.093 114.093 200.542 114.788 202.865 116.203L204.394 113.691ZM195.496 111.153C190.087 111.153 185.628 113.222 182.243 117.333L184.512 119.201C187.325 115.786 190.944 114.093 195.496 114.093V111.153ZM182.257 117.316C178.877 121.299 177.26 126.537 177.26 132.875H180.2C180.2 127.04 181.681 122.539 184.498 119.218L182.257 117.316ZM330.08 174.375V175.845H331.55V174.375H330.08ZM308.002 174.375L306.556 174.638L306.775 175.845H308.002V174.375ZM306.342 165.245L307.788 164.982L307.25 162.021L305.246 164.266L306.342 165.245ZM296.548 172.715L295.891 171.4L295.883 171.404L295.875 171.408L296.548 172.715ZM268.328 171.387L269.093 170.132L268.328 171.387ZM257.704 159.269L256.373 159.894L256.379 159.904L257.704 159.269ZM253.886 91.375V89.9051H252.416V91.375H253.886ZM278.122 91.375H279.592V89.9051H278.122V91.375ZM281.442 149.475L280.277 150.371L280.288 150.385L280.299 150.399L281.442 149.475ZM302.192 149.309L303.332 150.238L302.192 149.309ZM305.844 91.375V89.9051H304.374V91.375H305.844ZM330.08 91.375H331.55V89.9051H330.08V91.375ZM330.08 172.905H308.002V175.845H330.08V172.905ZM309.448 174.112L307.788 164.982L304.896 165.508L306.556 174.638L309.448 174.112ZM305.246 164.266C302.604 167.224 299.489 169.601 295.891 171.4L297.206 174.03C301.132 172.066 304.547 169.463 307.439 166.224L305.246 164.266ZM295.875 171.408C292.447 173.174 288.641 174.067 284.43 174.067V177.007C289.072 177.007 293.345 176.019 297.221 174.022L295.875 171.408ZM284.43 174.067C278.457 174.067 273.364 172.736 269.093 170.132L267.563 172.642C272.367 175.571 278.008 177.007 284.43 177.007V174.067ZM269.093 170.132C264.825 167.529 261.466 163.718 259.03 158.634L256.379 159.904C259.033 165.444 262.757 169.711 267.563 172.642L269.093 170.132ZM259.035 158.644C256.602 153.461 255.356 147.21 255.356 139.847H252.416C252.416 147.535 253.716 154.232 256.374 159.894L259.035 158.644ZM255.356 139.847V91.375H252.416V139.847H255.356ZM253.886 92.8449H278.122V89.9051H253.886V92.8449ZM276.652 91.375V136.859H279.592V91.375H276.652ZM276.652 136.859C276.652 142.556 277.786 147.133 280.277 150.371L282.607 148.579C280.671 146.062 279.592 142.229 279.592 136.859H276.652ZM280.299 150.399C282.972 153.708 286.933 155.261 291.9 155.261V152.321C287.572 152.321 284.561 150.997 282.586 148.551L280.299 150.399ZM291.9 155.261C296.695 155.261 300.574 153.621 303.332 150.238L301.053 148.38C298.941 150.973 295.959 152.321 291.9 152.321V155.261ZM303.332 150.238C306.056 146.894 307.314 142.255 307.314 136.527H304.374C304.374 141.866 303.198 145.748 301.053 148.38L303.332 150.238ZM307.314 136.527V91.375H304.374V136.527H307.314ZM305.844 92.8449H330.08V89.9051H305.844V92.8449ZM328.61 91.375V174.375H331.55V91.375H328.61ZM396.555 174.375L395.104 174.609L395.303 175.845H396.555V174.375ZM394.895 164.083L396.346 163.849L395.824 160.609L393.755 163.156L394.895 164.083ZM385.599 172.383L386.356 173.643L385.599 172.383ZM358.375 172.715L357.762 174.051L357.777 174.058L357.792 174.064L358.375 172.715ZM348.581 164.581L347.352 165.387L347.361 165.401L347.37 165.414L348.581 164.581ZM352.399 134.701L351.409 133.614L351.403 133.62L351.397 133.626L352.399 134.701ZM375.473 126.235L375.629 127.697L375.636 127.696L375.473 126.235ZM394.895 124.077L395.058 125.538L396.365 125.393V124.077H394.895ZM392.073 113.121L391.003 114.128L391.033 114.161L391.066 114.191L392.073 113.121ZM374.643 112.955L373.804 111.748L373.791 111.757L373.779 111.766L374.643 112.955ZM369.663 120.591L369.165 121.974L370.671 122.516L371.084 120.97L369.663 120.591ZM348.913 113.121L347.517 112.662L347.071 114.02L348.415 114.504L348.913 113.121ZM361.695 96.189L362.485 97.4291L362.49 97.4255L361.695 96.189ZM419.131 174.375V175.845H420.601V174.375H419.131ZM394.895 139.017H396.365V137.363L394.723 137.557L394.895 139.017ZM379.457 140.843L379.285 139.383L379.267 139.385L379.249 139.388L379.457 140.843ZM372.319 143.831L373.32 144.908L373.322 144.906L372.319 143.831ZM387.923 154.953L388.632 156.241L388.656 156.228L388.68 156.213L387.923 154.953ZM393.069 149.475L394.371 150.157L394.378 150.145L394.384 150.132L393.069 149.475ZM398.007 174.141L396.346 163.849L393.444 164.317L395.104 174.609L398.007 174.141ZM393.755 163.156C390.966 166.588 387.993 169.233 384.843 171.123L386.356 173.643C389.846 171.549 393.07 168.661 396.036 165.01L393.755 163.156ZM384.843 171.123C381.829 172.931 377.694 173.901 372.319 173.901V176.841C378.011 176.841 382.729 175.819 386.356 173.643L384.843 171.123ZM372.319 173.901C367.286 173.901 362.841 173.045 358.959 171.366L357.792 174.064C362.099 175.927 366.95 176.841 372.319 176.841V173.901ZM358.989 171.379C355.123 169.603 352.07 167.06 349.793 163.748L347.37 165.414C349.962 169.184 353.438 172.064 357.762 174.051L358.989 171.379ZM349.81 163.775C347.669 160.512 346.565 156.544 346.565 151.799H343.625C343.625 157.014 344.845 161.567 347.352 165.387L349.81 163.775ZM346.565 151.799C346.565 145.331 348.841 140.026 353.401 135.776L351.397 133.626C346.219 138.451 343.625 144.544 343.625 151.799H346.565ZM353.389 135.788C358.042 131.548 365.376 128.787 375.629 127.697L375.318 124.773C364.765 125.896 356.717 128.779 351.409 133.614L353.389 135.788ZM375.636 127.696L395.058 125.538L394.733 122.616L375.311 124.774L375.636 127.696ZM396.365 124.077V118.599H393.425V124.077H396.365ZM396.365 118.599C396.365 116.179 395.144 113.992 393.081 112.051L391.066 114.191C392.766 115.791 393.425 117.256 393.425 118.599H396.365ZM393.144 112.114C390.982 109.817 387.684 108.829 383.607 108.829V111.769C387.277 111.769 389.623 112.663 391.003 114.128L393.144 112.114ZM383.607 108.829C379.91 108.829 376.622 109.788 373.804 111.748L375.483 114.162C377.756 112.581 380.443 111.769 383.607 111.769V108.829ZM373.779 111.766C371.033 113.763 369.202 116.615 368.243 120.212L371.084 120.97C371.895 117.927 373.384 115.688 375.508 114.144L373.779 111.766ZM370.161 119.208L349.411 111.738L348.415 114.504L369.165 121.974L370.161 119.208ZM350.31 113.58C352.648 106.459 356.709 101.105 362.484 97.4291L360.906 94.9489C354.509 99.0201 350.048 104.953 347.517 112.662L350.31 113.58ZM362.49 97.4255C368.401 93.6258 375.745 91.6829 384.603 91.6829V88.7431C375.312 88.7431 367.385 90.7842 360.9 94.9525L362.49 97.4255ZM384.603 91.6829C395.66 91.6829 403.814 94.4455 409.314 99.7382L411.353 97.6198C405.122 91.6245 396.123 88.7431 384.603 88.7431V91.6829ZM409.314 99.7382C414.843 105.058 417.661 112.23 417.661 121.421H420.601C420.601 111.577 417.555 103.588 411.353 97.6198L409.314 99.7382ZM417.661 121.421V174.375H420.601V121.421H417.661ZM419.131 172.905H396.555V175.845H419.131V172.905ZM394.723 137.557L379.285 139.383L379.63 142.303L395.068 140.477L394.723 137.557ZM379.249 139.388C375.963 139.857 373.265 140.937 371.316 142.756L373.322 144.906C374.693 143.626 376.755 142.714 379.665 142.298L379.249 139.388ZM371.319 142.754C369.455 144.485 368.525 146.709 368.525 149.309H371.465C371.465 147.483 372.085 146.054 373.32 144.908L371.319 142.754ZM368.525 149.309C368.525 151.896 369.644 154.071 371.724 155.762L373.578 153.48C372.118 152.294 371.465 150.928 371.465 149.309H368.525ZM371.724 155.762C373.837 157.479 376.64 158.249 379.955 158.249V155.309C377.074 155.309 375.007 154.641 373.578 153.48L371.724 155.762ZM379.955 158.249C383.246 158.249 386.157 157.602 388.632 156.241L387.215 153.665C385.263 154.739 382.862 155.309 379.955 155.309V158.249ZM388.68 156.213C391.129 154.744 393.031 152.716 394.371 150.157L391.767 148.793C390.673 150.882 389.145 152.506 387.167 153.693L388.68 156.213ZM394.384 150.132C395.729 147.442 396.365 144.214 396.365 140.511H393.425C393.425 143.89 392.844 146.639 391.755 148.818L394.384 150.132ZM396.365 140.511V139.017H393.425V140.511H396.365Z" fill="#1E140F"/>
<path d="M81.7135 74.6554H75.9035L42.7035 169.441H16.3095L58.3075 53.2414H99.8075L141.639 169.441H115.245L81.7135 74.6554ZM44.3635 122.961H112.091V144.375H44.3635V122.961ZM211.123 156.659C208.689 160.422 205.203 163.687 200.665 166.453C196.128 169.22 190.705 170.603 184.397 170.603C177.315 170.603 171.062 168.888 165.639 165.457C160.217 161.916 155.956 156.936 152.857 150.517C149.759 144.099 148.209 136.573 148.209 127.941C148.209 119.199 149.759 111.673 152.857 105.365C155.956 98.9467 160.217 94.0221 165.639 90.5914C171.173 87.0501 177.425 85.2794 184.397 85.2794C189.709 85.2794 194.523 86.4414 198.839 88.7654C203.155 90.9787 206.42 93.6901 208.633 96.8994L210.127 86.4414H232.039V202.641H207.803V156.493L211.123 156.659ZM174.271 127.941C174.271 134.028 175.765 138.953 178.753 142.715C181.852 146.478 185.947 148.359 191.037 148.359C193.915 148.359 196.626 147.585 199.171 146.035C201.717 144.375 203.764 142.051 205.313 139.063C206.973 135.965 207.803 132.257 207.803 127.941C207.803 123.515 206.973 119.807 205.313 116.819C203.764 113.831 201.717 111.563 199.171 110.013C196.626 108.464 193.915 107.689 191.037 107.689C186.057 107.689 182.018 109.571 178.919 113.333C175.821 116.985 174.271 121.855 174.271 127.941ZM325.622 169.441H303.544L301.884 160.311C299.117 163.41 295.853 165.9 292.09 167.781C288.438 169.663 284.399 170.603 279.972 170.603C273.775 170.603 268.407 169.22 263.87 166.453C259.333 163.687 255.791 159.647 253.246 154.335C250.701 148.913 249.428 142.439 249.428 134.913V86.4414H273.664V131.925C273.664 137.459 274.771 141.664 276.984 144.541C279.308 147.419 282.794 148.857 287.442 148.857C291.869 148.857 295.299 147.363 297.734 144.375C300.169 141.387 301.386 137.127 301.386 131.593V86.4414H325.622V169.441ZM392.097 169.441L390.437 159.149C387.56 162.691 384.461 165.457 381.141 167.449C377.821 169.441 373.394 170.437 367.861 170.437C362.66 170.437 358.012 169.552 353.917 167.781C349.822 165.9 346.558 163.189 344.123 159.647C341.799 156.106 340.637 151.845 340.637 146.865C340.637 140.004 343.072 134.305 347.941 129.767C352.921 125.23 360.612 122.408 371.015 121.301L390.437 119.143V113.665C390.437 111.784 389.496 109.958 387.615 108.187C385.844 106.306 383.022 105.365 379.149 105.365C375.718 105.365 372.73 106.251 370.185 108.021C367.75 109.792 366.09 112.337 365.205 115.657L344.455 108.187C346.89 100.773 351.15 95.1287 357.237 91.2554C363.434 87.2714 371.07 85.2794 380.145 85.2794C391.433 85.2794 400.01 88.1014 405.875 93.7454C411.74 99.3894 414.673 106.97 414.673 116.487V169.441H392.097ZM390.437 134.083L374.999 135.909C371.9 136.352 369.521 137.348 367.861 138.897C366.312 140.336 365.537 142.162 365.537 144.375C365.537 146.478 366.422 148.249 368.193 149.687C369.964 151.126 372.398 151.845 375.497 151.845C378.596 151.845 381.252 151.237 383.465 150.019C385.678 148.691 387.394 146.865 388.611 144.541C389.828 142.107 390.437 139.119 390.437 135.577V134.083Z" fill="#1E140F"/>
<path d="M294.498 15H324.978V22.74H303.738V32.04H319.638V39.36H303.738V57H294.498V15ZM339.757 57.42C336.677 57.42 333.997 56.78 331.717 55.5C329.437 54.18 327.657 52.34 326.377 49.98C325.137 47.62 324.517 44.86 324.517 41.7C324.517 38.78 325.137 36.18 326.377 33.9C327.617 31.62 329.357 29.84 331.597 28.56C333.837 27.24 336.377 26.58 339.217 26.58C342.217 26.58 344.817 27.2 347.017 28.44C349.217 29.64 350.937 31.36 352.177 33.6C353.417 35.84 354.037 38.44 354.037 41.4C354.037 41.88 354.017 42.38 353.977 42.9C353.937 43.42 353.877 44 353.797 44.64H333.877C334.077 45.72 334.457 46.66 335.017 47.46C335.577 48.22 336.277 48.82 337.117 49.26C337.997 49.66 338.997 49.86 340.117 49.86C341.357 49.86 342.477 49.6 343.477 49.08C344.477 48.56 345.217 47.82 345.697 46.86L353.557 49.02C352.357 51.7 350.557 53.78 348.157 55.26C345.757 56.7 342.957 57.42 339.757 57.42ZM344.497 38.94C344.457 37.94 344.197 37.06 343.717 36.3C343.237 35.54 342.617 34.94 341.857 34.5C341.097 34.06 340.257 33.86 339.337 33.9C338.417 33.94 337.577 34.18 336.817 34.62C336.097 35.02 335.477 35.6 334.957 36.36C334.437 37.08 334.117 37.94 333.997 38.94H344.497ZM373.273 57.42C370.193 57.42 367.513 56.78 365.233 55.5C362.953 54.18 361.173 52.34 359.893 49.98C358.653 47.62 358.033 44.86 358.033 41.7C358.033 38.78 358.653 36.18 359.893 33.9C361.133 31.62 362.873 29.84 365.113 28.56C367.353 27.24 369.893 26.58 372.733 26.58C375.733 26.58 378.333 27.2 380.533 28.44C382.733 29.64 384.453 31.36 385.693 33.6C386.933 35.84 387.553 38.44 387.553 41.4C387.553 41.88 387.533 42.38 387.493 42.9C387.453 43.42 387.393 44 387.313 44.64H367.393C367.593 45.72 367.973 46.66 368.533 47.46C369.093 48.22 369.793 48.82 370.633 49.26C371.513 49.66 372.513 49.86 373.633 49.86C374.873 49.86 375.993 49.6 376.993 49.08C377.993 48.56 378.733 47.82 379.213 46.86L387.073 49.02C385.873 51.7 384.073 53.78 381.673 55.26C379.273 56.7 376.473 57.42 373.273 57.42ZM378.013 38.94C377.973 37.94 377.713 37.06 377.233 36.3C376.753 35.54 376.133 34.94 375.373 34.5C374.613 34.06 373.773 33.86 372.853 33.9C371.933 33.94 371.093 34.18 370.333 34.62C369.613 35.02 368.993 35.6 368.473 36.36C367.953 37.08 367.633 37.94 367.513 38.94H378.013ZM414.289 31.62L413.089 31.68V13.8H421.849V57H413.929L413.389 53.22C412.589 54.38 411.409 55.38 409.849 56.22C408.289 57.02 406.549 57.42 404.629 57.42C402.109 57.42 399.849 56.8 397.849 55.56C395.889 54.28 394.349 52.48 393.229 50.16C392.109 47.84 391.549 45.12 391.549 42C391.549 38.84 392.109 36.12 393.229 33.84C394.349 31.52 395.889 29.74 397.849 28.5C399.809 27.22 402.069 26.58 404.629 26.58C406.909 26.58 408.869 27.08 410.509 28.08C412.149 29.04 413.409 30.22 414.289 31.62ZM400.969 42C400.969 44.2 401.529 45.98 402.649 47.34C403.769 48.66 405.229 49.32 407.029 49.32C408.109 49.32 409.109 49.04 410.029 48.48C410.949 47.92 411.689 47.1 412.249 46.02C412.809 44.94 413.089 43.6 413.089 42C413.089 40.4 412.809 39.06 412.249 37.98C411.689 36.9 410.949 36.08 410.029 35.52C409.109 34.92 408.109 34.62 407.029 34.62C405.189 34.62 403.709 35.3 402.589 36.66C401.509 38.02 400.969 39.8 400.969 42Z" fill="#EC691F"/>
</svg>
