<svg width="473" height="188" viewBox="0 0 473 188" fill="none" xmlns="http://www.w3.org/2000/svg">
<path d="M37.5216 144.804L38.9636 144.506L38.6564 143.021L37.181 143.371L37.5216 144.804ZM47.9796 157.586L47.4327 158.953L47.4566 158.963L47.4808 158.972L47.9796 157.586ZM70.7216 155.262L71.6765 156.383L70.7216 155.262ZM72.3816 138.33L71.281 139.308L71.3097 139.341L71.3403 139.371L72.3816 138.33ZM64.5796 133.35L64.0327 134.717L64.0403 134.72L64.048 134.723L64.5796 133.35ZM53.1256 129.366L53.5587 127.959L53.5375 127.952L53.5161 127.946L53.1256 129.366ZM39.8456 125.216L39.3286 126.595L39.3438 126.601L39.3591 126.606L39.8456 125.216ZM27.5616 119.074L26.7448 120.299L26.7532 120.305L26.7616 120.31L27.5616 119.074ZM18.7636 109.778L17.4851 110.509L17.4897 110.517L17.4944 110.525L18.7636 109.778ZM15.6096 95.336L17.0819 95.3643L17.0822 95.3502V95.336H15.6096ZM20.9216 77.076L19.7251 76.2176L19.7215 76.2226L20.9216 77.076ZM35.6956 65.622L36.2551 66.9842L36.267 66.9792L35.6956 65.622ZM76.6976 64.792L76.1835 66.1719L76.1955 66.1764L76.2075 66.1806L76.6976 64.792ZM90.8076 73.922L89.7233 74.9184L89.7301 74.9258L89.737 74.9331L90.8076 73.922ZM98.7756 88.696L99.0897 90.1347L100.592 89.8067L100.199 88.3199L98.7756 88.696ZM75.2036 93.842L73.7548 94.1054L74.0276 95.606L75.5177 95.2807L75.2036 93.842ZM71.8836 87.7L70.8093 88.7071L70.8418 88.7418L70.8765 88.7743L71.8836 87.7ZM65.7416 83.882L65.2384 85.2659L65.2665 85.2761L65.2951 85.2852L65.7416 83.882ZM58.2716 82.388L58.3356 80.9168L58.3036 80.9154H58.2716V82.388ZM49.8056 83.882L49.269 82.5107L49.2585 82.5148L49.248 82.5191L49.8056 83.882ZM43.8296 88.198L42.6929 87.2619L42.676 87.2824L42.6599 87.3035L43.8296 88.198ZM44.1616 101.478L43.0873 102.485L43.1198 102.52L43.1545 102.552L44.1616 101.478ZM51.2996 105.794L50.744 107.158L51.2996 105.794ZM61.0936 109.446L60.6149 110.839L60.6317 110.844L60.6485 110.85L61.0936 109.446ZM74.8716 114.094L74.3763 115.481L74.3866 115.484L74.8716 114.094ZM87.9856 120.568L87.1688 121.793L87.1807 121.801L87.1928 121.809L87.9856 120.568ZM97.6136 130.528L96.3479 131.281L96.3525 131.288L96.3571 131.296L97.6136 130.528ZM96.6176 163.064L97.8827 163.818L96.6176 163.064ZM82.5076 175.514L81.8583 174.192L81.8491 174.197L82.5076 175.514ZM37.5216 176.676L37.0125 178.058L37.5216 176.676ZM21.9176 166.55L22.9986 165.55L21.9176 166.55ZM13.7836 150.448L13.443 149.015L12.047 149.347L12.3426 150.751L13.7836 150.448ZM36.0796 145.102C36.7836 148.505 38.0913 151.398 40.0472 153.721L42.3 151.823C40.7146 149.941 39.5876 147.521 38.9636 144.506L36.0796 145.102ZM40.0472 153.721C41.9866 156.024 44.4608 157.764 47.4327 158.953L48.5265 156.219C45.9651 155.194 43.9019 153.726 42.3 151.823L40.0472 153.721ZM47.4808 158.972C50.4364 160.036 53.764 160.553 57.4416 160.553V157.607C54.0366 157.607 51.0561 157.128 48.4784 156.2L47.4808 158.972ZM57.4416 160.553C63.4896 160.553 68.3177 159.244 71.6765 156.383L69.7667 154.141C67.1495 156.37 63.1243 157.607 57.4416 157.607V160.553ZM71.6765 156.383C74.9767 153.572 76.6762 150.015 76.6762 145.8H73.731C73.731 149.11 72.4425 151.862 69.7667 154.141L71.6765 156.383ZM76.6762 145.8C76.6762 142.38 75.6259 139.492 73.4229 137.289L71.3403 139.371C72.9 140.931 73.731 143.022 73.731 145.8H76.6762ZM73.4822 137.352C71.5083 135.131 68.6816 133.359 65.1112 131.977L64.048 134.723C67.3389 135.997 69.7136 137.545 71.281 139.308L73.4822 137.352ZM65.1265 131.983C61.7609 130.637 57.9037 129.295 53.5587 127.959L52.6925 130.773C56.9795 132.093 60.7583 133.407 64.0327 134.717L65.1265 131.983ZM53.5161 127.946C49.1224 126.738 44.7278 125.365 40.3321 123.826L39.3591 126.606C43.8168 128.166 48.2755 129.559 52.7351 130.786L53.5161 127.946ZM40.3627 123.837C36.0297 122.212 32.0306 120.212 28.3616 117.838L26.7616 120.31C30.6179 122.806 34.8081 124.9 39.3286 126.595L40.3627 123.837ZM28.3784 117.849C24.9104 115.537 22.1328 112.601 20.0329 109.031L17.4944 110.525C19.8211 114.48 22.9088 117.742 26.7448 120.299L28.3784 117.849ZM20.0421 109.047C17.9938 105.463 16.9749 100.929 17.0819 95.3643L14.1373 95.3077C14.023 101.253 15.1068 106.347 17.4851 110.509L20.0421 109.047ZM17.0822 95.336C17.0822 88.3928 18.7874 82.6183 22.1217 77.9294L19.7215 76.2226C15.9732 81.4937 14.137 87.8925 14.137 95.336H17.0822ZM22.1181 77.9344C25.5979 73.0837 30.2946 69.4322 36.2551 66.9841L35.1362 64.2598C28.7019 66.9025 23.5493 70.8869 19.7251 76.2176L22.1181 77.9344ZM36.267 66.9792C42.3623 64.4127 49.4107 63.1106 57.4416 63.1106V60.1654C49.0938 60.1654 41.6449 61.5193 35.1242 64.2648L36.267 66.9792ZM57.4416 63.1106C64.4927 63.1106 70.7325 64.1411 76.1835 66.1719L77.2117 63.4121C71.3747 61.2375 64.7772 60.1654 57.4416 60.1654V63.1106ZM76.2075 66.1806C81.6421 68.0987 86.136 71.0145 89.7233 74.9184L91.8919 72.9256C87.9539 68.6402 83.0411 65.4693 77.1877 63.4034L76.2075 66.1806ZM89.737 74.9331C93.3133 78.7197 95.8585 83.4186 97.3519 89.0721L100.199 88.3199C98.594 82.2427 95.8273 77.0923 91.8782 72.9109L89.737 74.9331ZM98.4615 87.2573L74.8895 92.4033L75.5177 95.2807L99.0897 90.1347L98.4615 87.2573ZM76.6524 93.5786C76.1544 90.8398 74.8966 88.5062 72.8907 86.6257L70.8765 88.7743C72.412 90.2138 73.3674 91.9749 73.7548 94.1054L76.6524 93.5786ZM72.9579 86.6929C71.1167 84.7289 68.8493 83.3255 66.1881 82.4788L65.2951 85.2852C67.5032 85.9878 69.3305 87.1297 70.8093 88.7071L72.9579 86.6929ZM66.2448 82.4981C63.6715 81.5623 61.0335 81.0341 58.3356 80.9168L58.2076 83.8592C60.6004 83.9632 62.9424 84.431 65.2384 85.2659L66.2448 82.4981ZM58.2716 80.9154C55.0137 80.9154 52.0066 81.4394 49.269 82.5107L50.3422 85.2533C52.6952 84.3326 55.3322 83.8606 58.2716 83.8606V80.9154ZM49.248 82.5191C46.6064 83.5998 44.4092 85.1778 42.6929 87.2619L44.9663 89.1341C46.3487 87.4555 48.1355 86.1562 50.3632 85.2449L49.248 82.5191ZM42.6599 87.3035C41.019 89.4493 40.199 91.9238 40.199 94.672H43.1442C43.1442 92.5509 43.7629 90.7094 44.9993 89.0925L42.6599 87.3035ZM40.199 94.672C40.199 97.7564 41.1353 100.403 43.0873 102.485L45.2359 100.471C43.8679 99.0116 43.1442 97.1209 43.1442 94.672H40.199ZM43.1545 102.552C45.0921 104.369 47.6409 105.893 50.744 107.158L51.8552 104.43C48.9823 103.26 46.7724 101.907 45.1687 100.404L43.1545 102.552ZM50.744 107.158C53.761 108.387 57.0517 109.614 60.6149 110.839L61.5723 108.053C58.0529 106.844 54.8142 105.636 51.8552 104.43L50.744 107.158ZM60.6485 110.85C65.1684 112.283 69.7444 113.826 74.3763 115.481L75.3669 112.707C70.7029 111.042 66.0934 109.487 61.5387 108.042L60.6485 110.85ZM74.3866 115.484C79.0343 117.106 83.2933 119.21 87.1688 121.793L88.8024 119.343C84.7099 116.614 80.2263 114.402 75.3566 112.704L74.3866 115.484ZM87.1928 121.809C90.9817 124.23 94.0297 127.382 96.3479 131.281L98.8793 129.775C96.3282 125.485 92.9575 121.997 88.7784 119.327L87.1928 121.809ZM96.3571 131.296C98.616 134.992 99.793 139.688 99.793 145.468H102.738C102.738 139.296 101.481 134.032 98.8701 129.76L96.3571 131.296ZM99.793 145.468C99.793 151.754 98.3048 157.355 95.3525 162.31L97.8827 163.818C101.128 158.371 102.738 152.241 102.738 145.468H99.793ZM95.3525 162.31C92.4221 167.229 87.9525 171.199 81.8584 174.192L83.1569 176.836C89.6787 173.632 94.6158 169.301 97.8827 163.818L95.3525 162.31ZM81.8491 174.197C75.9179 177.162 68.3051 178.689 58.9356 178.689V181.635C68.6007 181.635 76.7026 180.063 83.1662 176.831L81.8491 174.197ZM58.9356 178.689C51.1099 178.689 44.1486 177.548 38.0307 175.294L37.0125 178.058C43.5106 180.452 50.8253 181.635 58.9356 181.635V178.689ZM38.0307 175.294C31.9154 173.041 26.918 169.787 22.9986 165.55L20.8366 167.55C25.1065 172.166 30.5118 175.663 37.0125 178.058L38.0307 175.294ZM22.9986 165.55C19.0972 161.332 16.5017 156.211 15.2246 150.145L12.3426 150.751C13.7215 157.301 16.5487 162.914 20.8366 167.55L22.9986 165.55ZM14.1242 151.881L37.8622 146.237L37.181 143.371L13.443 149.015L14.1242 151.881ZM159.463 179V180.473H160.6L160.888 179.372L159.463 179ZM133.899 179L132.482 179.4L132.784 180.473H133.899V179ZM110.493 96V94.5274H108.548L109.076 96.3997L110.493 96ZM135.725 96L137.16 95.6696L136.897 94.5274H135.725V96ZM147.345 146.464L145.91 146.794L148.772 146.826L147.345 146.464ZM160.127 96V94.5274H158.981L158.699 95.6384L160.127 96ZM184.861 96L186.291 95.6495L186.016 94.5274H184.861V96ZM197.311 146.796L195.881 147.147L198.746 147.124L197.311 146.796ZM208.931 96V94.5274H207.757L207.495 95.6716L208.931 96ZM233.997 96L235.414 96.3997L235.942 94.5274H233.997V96ZM210.591 179V180.473H211.706L212.008 179.4L210.591 179ZM184.197 179L182.771 179.368L183.056 180.473H184.197V179ZM171.913 131.358L173.339 130.99L171.922 125.497L170.488 130.986L171.913 131.358ZM159.463 177.527H133.899V180.473H159.463V177.527ZM135.316 178.6L111.91 95.6003L109.076 96.3997L132.482 179.4L135.316 178.6ZM110.493 97.4726H135.725V94.5274H110.493V97.4726ZM134.29 96.3304L145.91 146.794L148.78 146.134L137.16 95.6696L134.29 96.3304ZM148.772 146.826L161.554 96.3616L158.699 95.6384L145.917 146.102L148.772 146.826ZM160.127 97.4726H184.861V94.5274H160.127V97.4726ZM183.431 96.3505L195.881 147.147L198.741 146.445L186.291 95.6495L183.431 96.3505ZM198.746 147.124L210.366 96.3284L207.495 95.6716L195.875 146.468L198.746 147.124ZM208.931 97.4726H233.997V94.5274H208.931V97.4726ZM232.58 95.6003L209.174 178.6L212.008 179.4L235.414 96.3997L232.58 95.6003ZM210.591 177.527H184.197V180.473H210.591V177.527ZM185.623 178.632L173.339 130.99L170.487 131.726L182.771 179.368L185.623 178.632ZM170.488 130.986L158.038 178.628L160.888 179.372L173.338 131.73L170.488 130.986ZM249.476 96V94.5274H248.004V96H249.476ZM273.712 96H275.185V94.5274H273.712V96ZM273.712 179V180.473H275.185V179H273.712ZM249.476 179H248.004V180.473H249.476V179ZM250.472 83.55L249.431 84.5912L249.452 84.6121L249.474 84.632L250.472 83.55ZM250.472 63.63L251.492 64.6923L251.493 64.6915L250.472 63.63ZM272.384 63.63L271.343 64.6712L271.364 64.6921L271.386 64.712L272.384 63.63ZM272.384 83.55L273.404 84.6123L273.405 84.6115L272.384 83.55ZM249.476 97.4726H273.712V94.5274H249.476V97.4726ZM272.24 96V179H275.185V96H272.24ZM273.712 177.527H249.476V180.473H273.712V177.527ZM250.949 179V96H248.004V179H250.949ZM261.594 86.0614C257.364 86.0614 254.034 84.8333 251.471 82.468L249.474 84.632C252.666 87.5787 256.75 89.0066 261.594 89.0066V86.0614ZM251.514 82.5087C249.02 80.0151 247.795 77.0683 247.795 73.59H244.85C244.85 77.8583 246.391 81.5516 249.431 84.5912L251.514 82.5087ZM247.795 73.59C247.795 69.9895 249.027 67.0587 251.492 64.6923L249.453 62.5677C246.384 65.5133 244.85 69.2225 244.85 73.59H247.795ZM251.493 64.6915C254.058 62.2251 257.381 60.9526 261.594 60.9526V58.0074C256.733 58.0074 252.641 59.5015 249.452 62.5685L251.493 64.6915ZM261.594 60.9526C265.686 60.9526 268.89 62.2179 271.343 64.6712L273.426 62.5887C270.346 59.5087 266.356 58.0074 261.594 58.0074V60.9526ZM271.386 64.712C273.955 67.0838 275.228 70.0088 275.228 73.59H278.173C278.173 69.2031 276.568 65.4882 273.383 62.548L271.386 64.712ZM275.228 73.59C275.228 77.0492 273.962 79.9899 271.364 82.4885L273.405 84.6115C276.561 81.5767 278.173 77.8775 278.173 73.59H275.228ZM271.365 82.4877C268.915 84.8398 265.704 86.0614 261.594 86.0614V89.0066C266.338 89.0066 270.321 87.5722 273.404 84.6123L271.365 82.4877ZM295.117 96V94.5274H293.645V96H295.117ZM317.029 96L318.477 95.7319L318.254 94.5274H317.029V96ZM318.689 104.964L317.241 105.232L317.776 108.118L319.77 105.964L318.689 104.964ZM328.483 97.66L329.142 98.9771V98.9771L328.483 97.66ZM357.201 98.988L356.421 100.237L356.428 100.241L356.435 100.245L357.201 98.988ZM367.493 111.106L366.144 111.696L366.149 111.708L366.155 111.72L367.493 111.106ZM371.145 179V180.473H372.618V179H371.145ZM346.909 179H345.437V180.473H346.909V179ZM343.423 120.9L342.256 121.798L342.267 121.812L342.278 121.825L343.423 120.9ZM322.839 121.066L323.985 121.991L323.993 121.981L324.002 121.97L322.839 121.066ZM319.353 179V180.473H320.826V179H319.353ZM295.117 179H293.645V180.473H295.117V179ZM295.117 97.4726H317.029V94.5274H295.117V97.4726ZM315.581 96.2681L317.241 105.232L320.137 104.696L318.477 95.7319L315.581 96.2681ZM319.77 105.964C322.412 103.111 325.532 100.782 329.142 98.9771L327.825 96.3429C323.909 98.3009 320.5 100.841 317.609 103.964L319.77 105.964ZM329.142 98.9771C332.689 97.2034 336.557 96.3106 340.767 96.3106V93.3654C336.124 93.3654 331.803 94.354 327.825 96.3429L329.142 98.9771ZM340.767 96.3106C347.09 96.3106 352.28 97.649 356.421 100.237L357.982 97.7393C353.269 94.7937 347.504 93.3654 340.767 93.3654V96.3106ZM356.435 100.245C360.69 102.84 363.93 106.635 366.144 111.696L368.842 110.516C366.409 104.953 362.787 100.669 357.968 97.7307L356.435 100.245ZM366.155 111.72C368.478 116.79 369.673 123.042 369.673 130.528H372.618C372.618 122.742 371.378 116.046 368.832 110.492L366.155 111.72ZM369.673 130.528V179H372.618V130.528H369.673ZM371.145 177.527H346.909V180.473H371.145V177.527ZM348.382 179V133.516H345.437V179H348.382ZM348.382 133.516C348.382 127.806 347.187 123.216 344.569 119.975L342.278 121.825C344.308 124.338 345.437 128.159 345.437 133.516H348.382ZM344.59 120.002C342.03 116.673 338.166 115.111 333.297 115.111V118.057C337.504 118.057 340.39 119.372 342.256 121.798L344.59 120.002ZM333.297 115.111C328.31 115.111 324.344 116.733 321.677 120.162L324.002 121.97C325.983 119.423 328.989 118.057 333.297 118.057V115.111ZM321.694 120.141C319.076 123.382 317.881 127.972 317.881 133.682H320.826C320.826 128.325 321.955 124.504 323.985 121.991L321.694 120.141ZM317.881 133.682V179H320.826V133.682H317.881ZM319.353 177.527H295.117V180.473H319.353V177.527ZM296.59 179V96H293.645V179H296.59ZM404.922 174.85L404.185 176.124L404.193 176.129L404.202 176.134L404.922 174.85ZM390.148 159.578L388.845 160.263L388.849 160.272L388.854 160.28L390.148 159.578ZM390.148 115.09L391.442 115.794L390.148 115.09ZM404.59 100.316L405.321 101.595L405.33 101.59L405.338 101.585L404.59 100.316ZM447.252 99.984L446.529 101.267L446.538 101.272L446.547 101.277L447.252 99.984ZM461.528 114.26L462.817 113.547L461.528 114.26ZM466.01 144.804V146.277H467.31L467.472 144.987L466.01 144.804ZM410.898 144.804V143.331H409.128L409.45 145.072L410.898 144.804ZM414.052 152.606L412.846 153.45L412.856 153.465L412.867 153.48L414.052 152.606ZM419.862 157.586L419.179 158.89L419.216 158.91L419.253 158.927L419.862 157.586ZM437.458 157.088L438.138 158.394L437.458 157.088ZM443.6 150.946L443.991 149.526L442.824 149.206L442.283 150.287L443.6 150.946ZM465.346 156.922L466.69 157.524L467.392 155.957L465.737 155.502L465.346 156.922ZM450.406 174.186L451.164 175.449L451.172 175.444L451.179 175.439L450.406 174.186ZM440.28 129.034V130.507H441.813L441.752 128.975L440.28 129.034ZM438.122 121.73L436.877 122.516L438.122 121.73ZM432.976 116.75L433.714 115.476L432.976 116.75ZM426.004 115.09L425.94 113.619L426.004 115.09ZM419.032 117.082L419.748 118.369L419.759 118.363L419.77 118.356L419.032 117.082ZM413.886 121.896L415.08 122.758L415.091 122.743L415.102 122.728L413.886 121.896ZM411.23 129.034L409.768 128.859L409.571 130.507H411.23V129.034ZM427.166 178.689C418.852 178.689 411.695 176.963 405.643 173.566L404.202 176.134C410.766 179.819 418.438 181.635 427.166 181.635V178.689ZM405.66 173.576C399.592 170.062 394.857 165.172 391.443 158.876L388.854 160.28C392.522 167.043 397.637 172.334 404.185 176.124L405.66 173.576ZM391.452 158.893C388.151 152.611 386.475 145.218 386.475 136.67H383.53C383.53 145.607 385.284 153.486 388.845 160.263L391.452 158.893ZM386.475 136.67C386.475 128.806 388.143 121.86 391.442 115.794L388.855 114.386C385.293 120.936 383.53 128.377 383.53 136.67H386.475ZM391.442 115.794C394.743 109.724 399.363 104.999 405.321 101.595L403.86 99.0375C397.424 102.715 392.415 107.84 388.855 114.386L391.442 115.794ZM405.338 101.585C411.288 98.0783 418.053 96.3106 425.672 96.3106V93.3654C417.577 93.3654 410.287 95.2497 403.843 99.0473L405.338 101.585ZM425.672 96.3106C433.767 96.3106 440.702 97.982 446.529 101.267L447.975 98.7012C441.63 95.1246 434.178 93.3654 425.672 93.3654V96.3106ZM446.547 101.277C452.383 104.46 456.942 109.015 460.24 114.973L462.817 113.547C459.254 107.11 454.295 102.148 447.958 98.6912L446.547 101.277ZM460.24 114.973C463.532 120.92 465.202 127.861 465.202 135.84H468.147C468.147 127.44 466.386 119.994 462.817 113.547L460.24 114.973ZM465.202 135.84C465.202 137.127 465.148 138.473 465.04 139.877L467.977 140.103C468.09 138.63 468.147 137.209 468.147 135.84H465.202ZM465.04 139.877C464.932 141.288 464.768 142.869 464.549 144.621L467.472 144.987C467.695 143.198 467.864 141.57 467.977 140.103L465.04 139.877ZM466.01 143.331H410.898V146.277H466.01V143.331ZM409.45 145.072C410.037 148.241 411.162 151.044 412.846 153.45L415.259 151.762C413.845 149.741 412.866 147.343 412.346 144.536L409.45 145.072ZM412.867 153.48C414.549 155.763 416.658 157.57 419.179 158.89L420.546 156.282C418.419 155.167 416.654 153.654 415.238 151.732L412.867 153.48ZM419.253 158.927C421.907 160.133 424.887 160.719 428.162 160.719V157.773C425.241 157.773 422.687 157.252 420.472 156.245L419.253 158.927ZM428.162 160.719C431.805 160.719 435.141 159.953 438.138 158.394L436.779 155.782C434.243 157.1 431.381 157.773 428.162 157.773V160.719ZM438.138 158.394C441.165 156.82 443.443 154.553 444.918 151.605L442.283 150.287C441.101 152.651 439.285 154.479 436.779 155.782L438.138 158.394ZM443.21 152.366L464.956 158.342L465.737 155.502L443.991 149.526L443.21 152.366ZM464.002 156.32C460.798 163.477 456.011 169 449.633 172.933L451.179 175.439C458.082 171.183 463.255 165.196 466.69 157.524L464.002 156.32ZM449.649 172.923C443.269 176.751 435.792 178.689 427.166 178.689V181.635C436.248 181.635 444.264 179.589 451.164 175.449L449.649 172.923ZM441.752 128.975C441.632 125.98 440.849 123.289 439.367 120.944L436.877 122.516C438.052 124.377 438.707 126.554 438.809 129.093L441.752 128.975ZM439.367 120.944C437.915 118.645 436.028 116.815 433.714 115.476L432.239 118.024C434.13 119.12 435.673 120.61 436.877 122.516L439.367 120.944ZM433.714 115.476C431.356 114.111 428.752 113.497 425.94 113.619L426.068 116.561C428.347 116.462 430.391 116.955 432.239 118.024L433.714 115.476ZM425.94 113.619C423.17 113.739 420.613 114.465 418.295 115.808L419.77 118.356C421.657 117.264 423.748 116.662 426.068 116.561L425.94 113.619ZM418.317 115.795C416.103 117.025 414.223 118.796 412.671 121.064L415.102 122.728C416.427 120.791 417.978 119.352 419.748 118.369L418.317 115.795ZM412.693 121.034C411.089 123.254 410.126 125.878 409.768 128.859L412.692 129.209C412.999 126.657 413.806 124.522 415.08 122.758L412.693 121.034ZM411.23 130.507H440.28V127.561H411.23V130.507Z" fill="#1E140F"/>
<path d="M30.1583 140.804C30.8223 144.013 32.0397 146.669 33.8103 148.772C35.581 150.875 37.8497 152.479 40.6163 153.586C43.383 154.582 46.537 155.08 50.0783 155.08C55.9437 155.08 60.3703 153.807 63.3583 151.262C66.3463 148.717 67.8403 145.563 67.8403 141.8C67.8403 138.701 66.8997 136.211 65.0183 134.33C63.2477 132.338 60.647 130.678 57.2163 129.35C53.8963 128.022 50.0783 126.694 45.7623 125.366C41.3357 124.149 36.909 122.765 32.4823 121.216C28.0557 119.556 23.961 117.509 20.1983 115.074C16.5463 112.639 13.6137 109.541 11.4003 105.778C9.18699 101.905 8.13565 97.0907 8.24632 91.336C8.24632 84.1427 10.017 78.056 13.5583 73.076C17.2103 67.9853 22.135 64.1673 28.3323 61.622C34.6403 58.966 41.889 57.638 50.0783 57.638C57.2717 57.638 63.6903 58.6893 69.3343 60.792C74.9783 62.784 79.6817 65.8273 83.4443 69.922C87.207 73.906 89.863 78.8307 91.4123 84.696L67.8403 89.842C67.3977 87.4073 66.291 85.36 64.5203 83.7C62.8603 81.9293 60.813 80.6567 58.3783 79.882C55.9437 78.9967 53.4537 78.4987 50.9083 78.388C47.8097 78.388 44.9877 78.886 42.4423 79.882C40.0077 80.878 38.0157 82.3167 36.4663 84.198C35.0277 86.0793 34.3083 88.2373 34.3083 90.672C34.3083 93.4387 35.1383 95.7073 36.7983 97.478C38.569 99.138 40.9483 100.577 43.9363 101.794C46.9243 103.011 50.189 104.229 53.7303 105.446C58.2677 106.885 62.8603 108.434 67.5083 110.094C72.267 111.754 76.6383 113.912 80.6223 116.568C84.6063 119.113 87.8157 122.433 90.2503 126.528C92.685 130.512 93.9023 135.492 93.9023 141.468C93.9023 147.997 92.353 153.863 89.2543 159.064C86.1557 164.265 81.4523 168.415 75.1443 171.514C68.947 174.613 61.0897 176.162 51.5723 176.162C43.6043 176.162 36.4663 175 30.1583 172.676C23.8503 170.352 18.649 166.977 14.5543 162.55C10.4597 158.123 7.74832 152.756 6.42032 146.448L30.1583 140.804ZM152.1 175H126.536L103.13 92H128.362L139.982 142.464L152.764 92H177.498L189.948 142.796L201.568 92H226.634L203.228 175H176.834L164.55 127.358L152.1 175ZM242.113 92H266.349V175H242.113V92ZM254.231 83.534C249.694 83.534 245.986 82.206 243.109 79.55C240.342 76.7833 238.959 73.4633 238.959 69.59C238.959 65.606 240.342 62.286 243.109 59.63C245.986 56.8633 249.694 55.48 254.231 55.48C258.658 55.48 262.254 56.8633 265.021 59.63C267.898 62.286 269.337 65.606 269.337 69.59C269.337 73.4633 267.898 76.7833 265.021 79.55C262.254 82.206 258.658 83.534 254.231 83.534ZM287.754 92H309.666L311.326 100.964C314.093 97.976 317.357 95.5413 321.12 93.66C324.883 91.7787 328.977 90.838 333.404 90.838C339.933 90.838 345.411 92.2213 349.838 94.988C354.375 97.7547 357.806 101.794 360.13 107.106C362.565 112.418 363.782 118.892 363.782 126.528V175H339.546V129.516C339.546 123.983 338.384 119.777 336.06 116.9C333.847 114.023 330.471 112.584 325.934 112.584C321.286 112.584 317.8 114.078 315.476 117.066C313.152 119.943 311.99 124.149 311.99 129.682V175H287.754V92ZM419.803 176.162C411.282 176.162 403.867 174.391 397.559 170.85C391.251 167.198 386.326 162.107 382.785 155.578C379.354 149.049 377.639 141.413 377.639 132.67C377.639 124.591 379.354 117.398 382.785 111.09C386.216 104.782 391.03 99.8573 397.227 96.316C403.424 92.664 410.452 90.838 418.309 90.838C426.609 90.838 433.802 92.5533 439.889 95.984C445.976 99.304 450.734 104.063 454.165 110.26C457.596 116.457 459.311 123.651 459.311 131.84C459.311 133.168 459.256 134.551 459.145 135.99C459.034 137.429 458.868 139.033 458.647 140.804H403.535C404.088 143.792 405.14 146.393 406.689 148.606C408.238 150.709 410.175 152.369 412.499 153.586C414.934 154.693 417.7 155.246 420.799 155.246C424.23 155.246 427.328 154.527 430.095 153.088C432.862 151.649 434.909 149.602 436.237 146.946L457.983 152.922C454.663 160.337 449.683 166.091 443.043 170.186C436.403 174.17 428.656 176.162 419.803 176.162ZM432.917 125.034C432.806 122.267 432.087 119.833 430.759 117.73C429.431 115.627 427.716 113.967 425.613 112.75C423.51 111.533 421.186 110.979 418.641 111.09C416.096 111.201 413.772 111.865 411.669 113.082C409.677 114.189 407.962 115.793 406.523 117.896C405.084 119.888 404.199 122.267 403.867 125.034H432.917Z" fill="#1E140F"/>
<path d="M319.161 15H349.641V22.74H328.401V32.04H344.301V39.36H328.401V57H319.161V15ZM364.421 57.42C361.341 57.42 358.661 56.78 356.381 55.5C354.101 54.18 352.321 52.34 351.041 49.98C349.801 47.62 349.181 44.86 349.181 41.7C349.181 38.78 349.801 36.18 351.041 33.9C352.281 31.62 354.021 29.84 356.261 28.56C358.501 27.24 361.041 26.58 363.881 26.58C366.881 26.58 369.481 27.2 371.681 28.44C373.881 29.64 375.601 31.36 376.841 33.6C378.081 35.84 378.701 38.44 378.701 41.4C378.701 41.88 378.681 42.38 378.641 42.9C378.601 43.42 378.541 44 378.461 44.64H358.541C358.741 45.72 359.121 46.66 359.681 47.46C360.241 48.22 360.941 48.82 361.781 49.26C362.661 49.66 363.661 49.86 364.781 49.86C366.021 49.86 367.141 49.6 368.141 49.08C369.141 48.56 369.881 47.82 370.361 46.86L378.221 49.02C377.021 51.7 375.221 53.78 372.821 55.26C370.421 56.7 367.621 57.42 364.421 57.42ZM369.161 38.94C369.121 37.94 368.861 37.06 368.381 36.3C367.901 35.54 367.281 34.94 366.521 34.5C365.761 34.06 364.921 33.86 364.001 33.9C363.081 33.94 362.241 34.18 361.481 34.62C360.761 35.02 360.141 35.6 359.621 36.36C359.101 37.08 358.781 37.94 358.661 38.94H369.161ZM397.936 57.42C394.856 57.42 392.176 56.78 389.896 55.5C387.616 54.18 385.836 52.34 384.556 49.98C383.316 47.62 382.696 44.86 382.696 41.7C382.696 38.78 383.316 36.18 384.556 33.9C385.796 31.62 387.536 29.84 389.776 28.56C392.016 27.24 394.556 26.58 397.396 26.58C400.396 26.58 402.996 27.2 405.196 28.44C407.396 29.64 409.116 31.36 410.356 33.6C411.596 35.84 412.216 38.44 412.216 41.4C412.216 41.88 412.196 42.38 412.156 42.9C412.116 43.42 412.056 44 411.976 44.64H392.056C392.256 45.72 392.636 46.66 393.196 47.46C393.756 48.22 394.456 48.82 395.296 49.26C396.176 49.66 397.176 49.86 398.296 49.86C399.536 49.86 400.656 49.6 401.656 49.08C402.656 48.56 403.396 47.82 403.876 46.86L411.736 49.02C410.536 51.7 408.736 53.78 406.336 55.26C403.936 56.7 401.136 57.42 397.936 57.42ZM402.676 38.94C402.636 37.94 402.376 37.06 401.896 36.3C401.416 35.54 400.796 34.94 400.036 34.5C399.276 34.06 398.436 33.86 397.516 33.9C396.596 33.94 395.756 34.18 394.996 34.62C394.276 35.02 393.656 35.6 393.136 36.36C392.616 37.08 392.296 37.94 392.176 38.94H402.676ZM438.952 31.62L437.752 31.68V13.8H446.512V57H438.592L438.052 53.22C437.252 54.38 436.072 55.38 434.512 56.22C432.952 57.02 431.212 57.42 429.292 57.42C426.772 57.42 424.512 56.8 422.512 55.56C420.552 54.28 419.012 52.48 417.892 50.16C416.772 47.84 416.212 45.12 416.212 42C416.212 38.84 416.772 36.12 417.892 33.84C419.012 31.52 420.552 29.74 422.512 28.5C424.472 27.22 426.732 26.58 429.292 26.58C431.572 26.58 433.532 27.08 435.172 28.08C436.812 29.04 438.072 30.22 438.952 31.62ZM425.632 42C425.632 44.2 426.192 45.98 427.312 47.34C428.432 48.66 429.892 49.32 431.692 49.32C432.772 49.32 433.772 49.04 434.692 48.48C435.612 47.92 436.352 47.1 436.912 46.02C437.472 44.94 437.752 43.6 437.752 42C437.752 40.4 437.472 39.06 436.912 37.98C436.352 36.9 435.612 36.08 434.692 35.52C433.772 34.92 432.772 34.62 431.692 34.62C429.852 34.62 428.372 35.3 427.252 36.66C426.172 38.02 425.632 39.8 425.632 42Z" fill="#EC691F"/>
</svg>
