<svg width="563" height="216" viewBox="0 0 563 216" fill="none" xmlns="http://www.w3.org/2000/svg">
<path d="M81.9402 101.622L80.7272 100.96L80.7216 100.97L80.7162 100.981L81.9402 101.622ZM79.6162 81.8679L78.6392 82.8449L78.6488 82.8545L78.6585 82.8639L79.6162 81.8679ZM42.7642 77.7179V76.3362H41.3825V77.7179H42.7642ZM42.7642 108.76H41.3825V110.142H42.7642V108.76ZM107.504 106.602L106.21 106.117L106.207 106.126L106.204 106.135L107.504 106.602ZM100.034 118.554L99.0271 117.608L99.0262 117.609L100.034 118.554ZM86.9202 127.02L86.4207 125.732L86.4117 125.735L86.9202 127.02ZM42.7642 130.174V128.792H41.3825V130.174H42.7642ZM42.7642 172.504V173.886H44.1459V172.504H42.7642ZM17.2002 172.504H15.8185V173.886H17.2002V172.504ZM17.2002 56.3039V54.9222H15.8185V56.3039H17.2002ZM91.2362 61.4499L90.567 62.6588L90.5798 62.6658L90.5927 62.6726L91.2362 61.4499ZM105.346 74.8959L104.135 75.5609L104.141 75.571L105.346 74.8959ZM66.5022 110.142C70.6131 110.142 74.1005 109.516 76.8924 108.18L75.7001 105.687C73.4012 106.787 70.3593 107.378 66.5022 107.378V110.142ZM76.8924 108.18C79.6853 106.845 81.7977 104.872 83.1642 102.263L80.7162 100.981C79.648 103.02 77.9978 104.588 75.7001 105.687L76.8924 108.18ZM83.1532 102.284C84.6082 99.616 85.3139 96.5598 85.3139 93.1559H82.5505C82.5505 96.1707 81.9282 98.7584 80.7272 100.96L83.1532 102.284ZM85.3139 93.1559C85.3139 88.0993 83.7736 83.9486 80.5739 80.8719L78.6585 82.8639C81.2135 85.3206 82.5505 88.6951 82.5505 93.1559H85.3139ZM80.5932 80.8909C77.4587 77.7563 72.6551 76.3362 66.5022 76.3362V79.0996C72.3013 79.0996 76.2404 80.4462 78.6392 82.8449L80.5932 80.8909ZM66.5022 76.3362H42.7642V79.0996H66.5022V76.3362ZM41.3825 77.7179V108.76H44.1459V77.7179H41.3825ZM42.7642 110.142H66.5022V107.378H42.7642V110.142ZM108.612 93.1559C108.612 97.5206 107.815 101.839 106.21 106.117L108.798 107.087C110.514 102.512 111.376 97.8658 111.376 93.1559H108.612ZM106.204 106.135C104.724 110.257 102.34 114.081 99.0271 117.608L101.041 119.5C104.589 115.723 107.186 111.579 108.805 107.069L106.204 106.135ZM99.0262 117.609C95.8731 120.972 91.688 123.689 86.4207 125.732L87.4197 128.308C92.9977 126.145 97.5553 123.218 101.042 119.499L99.0262 117.609ZM86.4117 125.735C81.3019 127.758 75.1201 128.792 67.8302 128.792V131.556C75.3696 131.556 81.9146 130.487 87.4287 128.305L86.4117 125.735ZM67.8302 128.792H42.7642V131.556H67.8302V128.792ZM41.3825 130.174V172.504H44.1459V130.174H41.3825ZM42.7642 171.122H17.2002V173.886H42.7642V171.122ZM18.5819 172.504V56.3039H15.8185V172.504H18.5819ZM17.2002 57.6856H67.8302V54.9222H17.2002V57.6856ZM67.8302 57.6856C77.0768 57.6856 84.6308 59.3726 90.567 62.6588L91.9054 60.241C85.447 56.6658 77.3969 54.9222 67.8302 54.9222V57.6856ZM90.5927 62.6726C96.6875 65.8804 101.181 70.1796 104.135 75.5609L106.557 74.2309C103.315 68.3242 98.4009 63.6594 91.8797 60.2272L90.5927 62.6726ZM104.141 75.571C107.118 80.8882 108.612 86.7408 108.612 93.1559H111.376C111.376 86.291 109.771 79.9702 106.552 74.2208L104.141 75.571ZM133.64 168.52L132.989 169.738L133.64 168.52ZM118.534 153.746L117.324 154.413L117.329 154.421L117.333 154.429L118.534 153.746ZM118.7 108.428L117.508 107.729L117.504 107.736L118.7 108.428ZM133.972 93.6539L134.623 94.8725L134.631 94.8685L133.972 93.6539ZM177.63 93.6539L176.963 94.8637L176.975 94.8705L176.987 94.8771L177.63 93.6539ZM193.068 108.428L191.876 109.127L191.881 109.136L193.068 108.428ZM192.902 153.746L191.719 153.032L191.715 153.04L191.71 153.047L192.902 153.746ZM177.298 168.52L176.664 167.292L176.655 167.297L177.298 168.52ZM163.686 149.43L164.382 150.623L163.686 149.43ZM170.16 142.624L171.368 143.295L171.373 143.286L171.378 143.276L170.16 142.624ZM170.16 119.55L168.942 120.202L168.947 120.212L168.952 120.221L170.16 119.55ZM163.852 112.578L164.571 111.398L163.852 112.578ZM147.418 112.578L146.676 111.412V111.412L147.418 112.578ZM141.442 119.55L140.206 118.932L140.202 118.941L140.197 118.95L141.442 119.55ZM141.442 142.624L140.189 143.206L140.193 143.215L140.197 143.223L141.442 142.624ZM147.252 149.43L147.994 148.264V148.264L147.252 149.43ZM155.386 172.284C147.509 172.284 140.488 170.613 134.291 167.301L132.989 169.738C139.629 173.288 147.106 175.048 155.386 175.048V172.284ZM134.291 167.301C128.106 163.996 123.26 159.258 119.735 153.063L117.333 154.429C121.112 161.071 126.337 166.183 132.989 169.738L134.291 167.301ZM119.744 153.078C116.335 146.9 114.604 139.558 114.604 131.004H111.84C111.84 139.935 113.65 147.754 117.324 154.413L119.744 153.078ZM114.604 131.004C114.604 122.456 116.388 115.179 119.896 109.12L117.504 107.736C113.708 114.292 111.84 122.067 111.84 131.004H114.604ZM119.892 109.127C123.529 102.923 128.435 98.1803 134.623 94.8725L133.321 92.4353C126.672 95.9889 121.397 101.096 117.508 107.729L119.892 109.127ZM134.631 94.8685C140.943 91.4448 147.963 89.7236 155.718 89.7236V86.9602C147.537 86.9602 140.06 88.7804 133.313 92.4393L134.631 94.8685ZM155.718 89.7236C163.702 89.7236 170.771 91.4479 176.963 94.8637L178.298 92.4441C171.651 88.7773 164.113 86.9602 155.718 86.9602V89.7236ZM176.987 94.8771C183.286 98.1866 188.243 102.929 191.876 109.127L194.26 107.729C190.368 101.09 185.033 95.9826 178.273 92.4307L176.987 94.8771ZM191.881 109.136C195.496 115.195 197.33 122.411 197.33 130.838H200.094C200.094 122.001 198.166 114.277 194.255 107.72L191.881 109.136ZM197.33 130.838C197.33 139.486 195.441 146.865 191.719 153.032L194.085 154.46C198.11 147.789 200.094 139.897 200.094 130.838H197.33ZM191.71 153.047C188.08 159.239 183.073 163.981 176.664 167.292L177.932 169.747C184.803 166.197 190.199 161.09 194.094 154.445L191.71 153.047ZM176.655 167.297C170.343 170.614 163.263 172.284 155.386 172.284V175.048C163.667 175.048 171.195 173.288 177.941 169.743L176.655 167.297ZM155.386 153.136C158.525 153.136 161.53 152.287 164.382 150.623L162.99 148.236C160.53 149.671 158.002 150.372 155.386 150.372V153.136ZM164.382 150.623C167.276 148.935 169.601 146.475 171.368 143.295L168.952 141.953C167.399 144.749 165.408 146.826 162.99 148.236L164.382 150.623ZM171.378 143.276C173.175 139.923 174.032 135.809 174.032 131.004H171.268C171.268 135.495 170.466 139.128 168.942 141.971L171.378 143.276ZM174.032 131.004C174.032 126.202 173.176 122.133 171.368 118.879L168.952 120.221C170.465 122.943 171.268 126.51 171.268 131.004H174.032ZM171.378 118.897C169.623 115.621 167.362 113.097 164.571 111.398L163.134 113.758C165.433 115.158 167.378 117.282 168.942 120.202L171.378 118.897ZM164.571 111.398C161.817 109.721 158.858 108.872 155.718 108.872V111.636C158.333 111.636 160.797 112.336 163.134 113.758L164.571 111.398ZM155.718 108.872C152.377 108.872 149.349 109.711 146.676 111.412L148.16 113.744C150.356 112.346 152.862 111.636 155.718 111.636V108.872ZM146.676 111.412C143.992 113.121 141.845 115.654 140.206 118.932L142.678 120.168C144.138 117.248 145.975 115.134 148.16 113.744L146.676 111.412ZM140.197 118.95C138.64 122.185 137.902 126.226 137.902 131.004H140.666C140.666 126.485 141.367 122.891 142.687 120.149L140.197 118.95ZM137.902 131.004C137.902 135.784 138.641 139.872 140.189 143.206L142.695 142.042C141.366 139.179 140.666 135.519 140.666 131.004H137.902ZM140.197 143.223C141.731 146.408 143.828 148.888 146.51 150.596L147.994 148.264C145.807 146.873 144.031 144.816 142.687 142.024L140.197 143.223ZM146.51 150.596C149.175 152.291 152.145 153.136 155.386 153.136V150.372C152.651 150.372 150.199 149.667 147.994 148.264L146.51 150.596ZM288.527 172.504V173.886H289.909V172.504H288.527ZM266.449 172.504L265.09 172.751L265.296 173.886H266.449V172.504ZM264.789 163.374L266.149 163.127L265.643 160.343L263.759 162.454L264.789 163.374ZM254.995 170.844L254.377 169.608L254.37 169.612L254.362 169.616L254.995 170.844ZM226.775 169.516L227.495 168.336L226.775 169.516ZM216.151 157.398L214.9 157.985L214.905 157.995L216.151 157.398ZM212.333 89.5039V88.1222H210.951V89.5039H212.333ZM236.569 89.5039H237.951V88.1222H236.569V89.5039ZM239.889 147.604L238.794 148.446L238.804 148.459L238.814 148.472L239.889 147.604ZM260.639 147.438L261.71 148.311L260.639 147.438ZM264.291 89.5039V88.1222H262.909V89.5039H264.291ZM288.527 89.5039H289.909V88.1222H288.527V89.5039ZM288.527 171.122H266.449V173.886H288.527V171.122ZM267.809 172.257L266.149 163.127L263.43 163.621L265.09 172.751L267.809 172.257ZM263.759 162.454C261.11 165.42 257.986 167.804 254.377 169.608L255.613 172.08C259.53 170.121 262.935 167.525 265.82 164.294L263.759 162.454ZM254.362 169.616C250.921 171.388 247.101 172.284 242.877 172.284V175.048C247.507 175.048 251.765 174.062 255.628 172.072L254.362 169.616ZM242.877 172.284C236.891 172.284 231.781 170.95 227.495 168.336L226.056 170.696C230.844 173.615 236.469 175.048 242.877 175.048V172.284ZM227.495 168.336C223.21 165.724 219.84 161.899 217.397 156.801L214.905 157.995C217.553 163.521 221.266 167.775 226.056 170.696L227.495 168.336ZM217.402 156.811C214.962 151.613 213.715 145.349 213.715 137.976H210.951C210.951 145.654 212.25 152.338 214.9 157.985L217.402 156.811ZM213.715 137.976V89.5039H210.951V137.976H213.715ZM212.333 90.8856H236.569V88.1222H212.333V90.8856ZM235.187 89.5039V134.988H237.951V89.5039H235.187ZM235.187 134.988C235.187 140.675 236.32 145.23 238.794 148.446L240.984 146.761C239.032 144.223 237.951 140.368 237.951 134.988H235.187ZM238.814 148.472C241.466 151.755 245.399 153.302 250.347 153.302V150.538C246 150.538 242.96 149.207 240.964 146.736L238.814 148.472ZM250.347 153.302C255.12 153.302 258.972 151.671 261.71 148.311L259.568 146.565C257.437 149.181 254.428 150.538 250.347 150.538V153.302ZM261.71 148.311C264.417 144.988 265.673 140.372 265.673 134.656H262.909C262.909 140.007 261.73 143.911 259.568 146.565L261.71 148.311ZM265.673 134.656V89.5039H262.909V134.656H265.673ZM264.291 90.8856H288.527V88.1222H264.291V90.8856ZM287.145 89.5039V172.504H289.909V89.5039H287.145ZM307.028 52.9839V51.6022H305.647V52.9839H307.028ZM331.264 52.9839H332.646V51.6022H331.264V52.9839ZM331.264 172.504V173.886H332.646V172.504H331.264ZM307.028 172.504H305.647V173.886H307.028V172.504ZM307.028 54.3656H331.264V51.6022H307.028V54.3656ZM329.883 52.9839V172.504H332.646V52.9839H329.883ZM331.264 171.122H307.028V173.886H331.264V171.122ZM308.41 172.504V52.9839H305.647V172.504H308.41ZM356.137 89.5039V90.8856H357.519V89.5039H356.137ZM356.137 66.2639V64.8822H354.755V66.2639H356.137ZM380.871 66.2639H382.253V64.8822H380.871V66.2639ZM380.871 89.5039H379.489V90.8856H380.871V89.5039ZM397.969 89.5039H399.351V88.1222H397.969V89.5039ZM397.969 110.918V112.3H399.351V110.918H397.969ZM380.871 110.918V109.536H379.489V110.918H380.871ZM383.361 148.766L382.418 149.776L382.435 149.791L382.451 149.806L383.361 148.766ZM390.001 151.256L389.944 152.636L389.972 152.638H390.001V151.256ZM397.969 150.592H399.351V148.961L397.742 149.229L397.969 150.592ZM397.969 171.674L398.209 173.035L399.351 172.833V171.674H397.969ZM381.867 172.504L381.987 171.127L381.972 171.126L381.957 171.125L381.867 172.504ZM368.421 168.52L367.695 169.695L367.703 169.7L367.71 169.705L368.421 168.52ZM359.457 158.228L358.215 158.834L359.457 158.228ZM356.137 110.918H357.519V109.536H356.137V110.918ZM344.517 110.918H343.135V112.3H344.517V110.918ZM344.517 89.5039V88.1222H343.135V89.5039H344.517ZM357.519 89.5039V66.2639H354.755V89.5039H357.519ZM356.137 67.6456H380.871V64.8822H356.137V67.6456ZM379.489 66.2639V89.5039H382.253V66.2639H379.489ZM380.871 90.8856H397.969V88.1222H380.871V90.8856ZM396.587 89.5039V110.918H399.351V89.5039H396.587ZM397.969 109.536H380.871V112.3H397.969V109.536ZM379.489 110.918V140.798H382.253V110.918H379.489ZM379.489 140.798C379.489 144.702 380.341 147.837 382.418 149.776L384.304 147.756C383.062 146.596 382.253 144.419 382.253 140.798H379.489ZM382.451 149.806C384.49 151.589 387.016 152.514 389.944 152.636L390.059 149.875C387.674 149.776 385.774 149.041 384.271 147.726L382.451 149.806ZM390.001 152.638C392.734 152.638 395.466 152.41 398.196 151.955L397.742 149.229C395.16 149.659 392.58 149.874 390.001 149.874V152.638ZM396.587 150.592V171.674H399.351V150.592H396.587ZM397.729 170.313C392.19 171.291 386.944 171.558 381.987 171.127L381.747 173.88C386.972 174.335 392.461 174.049 398.209 173.035L397.729 170.313ZM381.957 171.125C377.057 170.806 372.794 169.532 369.132 167.335L367.71 169.705C371.795 172.156 376.496 173.538 381.777 173.883L381.957 171.125ZM369.147 167.344C365.637 165.176 362.814 161.959 360.699 157.622L358.215 158.834C360.527 163.572 363.68 167.215 367.695 169.695L369.147 167.344ZM360.699 157.622C358.607 153.334 357.519 147.75 357.519 140.798H354.755C354.755 148.011 355.881 154.047 358.215 158.834L360.699 157.622ZM357.519 140.798V110.918H354.755V140.798H357.519ZM356.137 109.536H344.517V112.3H356.137V109.536ZM345.899 110.918V89.5039H343.135V110.918H345.899ZM344.517 90.8856H356.137V88.1222H344.517V90.8856ZM411.589 89.5039V88.1222H410.207V89.5039H411.589ZM433.667 89.5039L435.033 89.2969L434.855 88.1222H433.667V89.5039ZM435.327 100.46L433.961 100.667L434.463 103.984L436.443 101.275L435.327 100.46ZM442.797 93.3219L443.553 94.4784L443.563 94.4716L442.797 93.3219ZM452.591 89.3379L452.344 87.9784L452.336 87.9798L452.591 89.3379ZM464.543 89.5039H465.925V88.3481L464.787 88.1439L464.543 89.5039ZM464.543 112.412L464.091 113.718L465.925 114.352V112.412H464.543ZM455.247 111.582L455.384 112.957L455.407 112.955L455.43 112.952L455.247 111.582ZM445.785 114.902L446.489 116.091L446.505 116.081L446.521 116.071L445.785 114.902ZM438.481 122.87L437.261 122.222L437.253 122.237L437.245 122.252L438.481 122.87ZM435.825 172.504V173.886H437.207V172.504H435.825ZM411.589 172.504H410.207V173.886H411.589V172.504ZM411.589 90.8856H433.667V88.1222H411.589V90.8856ZM432.301 89.7109L433.961 100.667L436.693 100.253L435.033 89.2969L432.301 89.7109ZM436.443 101.275C438.451 98.5273 440.82 96.2652 443.553 94.4784L442.041 92.1654C439.019 94.1413 436.409 96.6379 434.211 99.6447L436.443 101.275ZM443.563 94.4716C446.396 92.5831 449.487 91.3258 452.846 90.696L452.336 87.9798C448.613 88.678 445.174 90.0767 442.031 92.1722L443.563 94.4716ZM452.838 90.6973C456.301 90.0677 460.117 90.1132 464.299 90.8639L464.787 88.1439C460.337 87.3453 456.185 87.2801 452.344 87.9785L452.838 90.6973ZM463.161 89.5039V112.412H465.925V89.5039H463.161ZM464.995 111.106C461.894 110.033 458.576 109.744 455.064 110.212L455.43 112.952C458.558 112.534 461.437 112.799 464.091 113.718L464.995 111.106ZM455.109 110.207C451.564 110.562 448.207 111.744 445.049 113.733L446.521 116.071C449.339 114.297 452.29 113.266 455.384 112.957L455.109 110.207ZM445.081 113.713C441.842 115.632 439.242 118.491 437.261 122.222L439.701 123.518C441.482 120.166 443.752 117.713 446.489 116.091L445.081 113.713ZM437.245 122.252C435.35 126.043 434.443 130.754 434.443 136.316H437.207C437.207 131.033 438.071 126.78 439.717 123.488L437.245 122.252ZM434.443 136.316V172.504H437.207V136.316H434.443ZM435.825 171.122H411.589V173.886H435.825V171.122ZM412.971 172.504V89.5039H410.207V172.504H412.971ZM533.861 89.5039V88.1222H532.903L532.567 89.0192L533.861 89.5039ZM560.089 89.5039L561.362 90.042L562.173 88.1222H560.089V89.5039ZM510.953 205.704V207.086H511.869L512.226 206.242L510.953 205.704ZM486.219 205.704L484.956 205.143L484.094 207.086H486.219V205.704ZM502.653 168.686L503.916 169.247L504.157 168.704L503.929 168.156L502.653 168.686ZM469.785 89.5039V88.1222H467.715L468.509 90.0336L469.785 89.5039ZM496.843 89.5039L498.138 89.023L497.804 88.1222H496.843V89.5039ZM515.269 139.138L513.974 139.619L515.263 143.092L516.563 139.623L515.269 139.138ZM533.861 90.8856H560.089V88.1222H533.861V90.8856ZM558.816 88.9658L509.68 205.166L512.226 206.242L561.362 90.042L558.816 88.9658ZM510.953 204.322H486.219V207.086H510.953V204.322ZM487.482 206.265L503.916 169.247L501.39 168.125L484.956 205.143L487.482 206.265ZM503.929 168.156L471.061 88.9742L468.509 90.0336L501.377 169.216L503.929 168.156ZM469.785 90.8856H496.843V88.1222H469.785V90.8856ZM495.548 89.9848L513.974 139.619L516.564 138.657L498.138 89.023L495.548 89.9848ZM516.563 139.623L535.155 89.9886L532.567 89.0192L513.975 138.653L516.563 139.623Z" fill="#1E140F"/>
<path d="M59.594 104.615C63.578 104.615 66.8427 104.007 69.388 102.789C71.9333 101.572 73.8147 99.8014 75.032 97.4774C76.36 95.0427 77.024 92.2207 77.024 89.0114C77.024 84.2527 75.5853 80.49 72.708 77.7234C69.9413 74.9567 65.57 73.5734 59.594 73.5734H35.856V104.615H59.594ZM103.086 89.0114C103.086 93.5487 102.256 98.0307 100.596 102.457C99.0467 106.773 96.5567 110.757 93.126 114.409C89.806 117.951 85.4347 120.773 80.012 122.875C74.7 124.978 68.3367 126.029 60.922 126.029H35.856V168.359H10.292V52.1594H60.922C70.3287 52.1594 78.1307 53.8747 84.328 57.3054C90.636 60.6254 95.3393 65.1074 98.438 70.7514C101.537 76.2847 103.086 82.3714 103.086 89.0114ZM148.478 169.521C140.399 169.521 133.151 167.806 126.732 164.375C120.313 160.945 115.278 156.02 111.626 149.601C108.085 143.183 106.314 135.602 106.314 126.859C106.314 118.117 108.14 110.591 111.792 104.283C115.555 97.8647 120.645 92.94 127.064 89.5094C133.593 85.968 140.842 84.1974 148.81 84.1974C156.999 84.1974 164.303 85.968 170.722 89.5094C177.251 92.94 182.397 97.8647 186.16 104.283C189.923 110.591 191.804 118.061 191.804 126.693C191.804 135.547 189.867 143.183 185.994 149.601C182.231 156.02 177.03 160.945 170.39 164.375C163.861 167.806 156.557 169.521 148.478 169.521ZM148.478 147.609C151.355 147.609 154.122 146.835 156.778 145.285C159.434 143.736 161.592 141.467 163.252 138.479C164.912 135.381 165.742 131.507 165.742 126.859C165.742 122.211 164.912 118.393 163.252 115.405C161.592 112.307 159.489 109.983 156.944 108.433C154.399 106.884 151.687 106.109 148.81 106.109C145.711 106.109 142.945 106.884 140.51 108.433C138.075 109.983 136.083 112.307 134.534 115.405C133.095 118.393 132.376 122.211 132.376 126.859C132.376 131.507 133.095 135.381 134.534 138.479C135.973 141.467 137.909 143.736 140.344 145.285C142.779 146.835 145.49 147.609 148.478 147.609ZM281.619 168.359H259.541L257.881 159.229C255.114 162.328 251.85 164.818 248.087 166.699C244.435 168.581 240.396 169.521 235.969 169.521C229.772 169.521 224.404 168.138 219.867 165.371C215.33 162.605 211.788 158.565 209.243 153.253C206.698 147.831 205.425 141.357 205.425 133.831V85.3594H229.661V130.843C229.661 136.377 230.768 140.582 232.981 143.459C235.305 146.337 238.791 147.775 243.439 147.775C247.866 147.775 251.296 146.281 253.731 143.293C256.166 140.305 257.383 136.045 257.383 130.511V85.3594H281.619V168.359ZM300.12 48.8394H324.356V168.359H300.12V48.8394ZM349.229 85.3594V62.1194H373.963V85.3594H391.061V106.773H373.963V136.653C373.963 140.416 374.793 143.072 376.453 144.621C378.224 146.171 380.437 147.001 383.093 147.111C385.749 147.111 388.405 146.89 391.061 146.447V167.529C385.417 168.525 380.05 168.802 374.959 168.359C369.868 168.027 365.386 166.699 361.513 164.375C357.75 162.051 354.762 158.621 352.549 154.083C350.336 149.546 349.229 143.736 349.229 136.653V106.773H337.609V85.3594H349.229ZM404.681 85.3594H426.759L428.419 96.3154C430.521 93.438 433.011 91.0587 435.889 89.1774C438.877 87.1854 442.141 85.8574 445.683 85.1934C449.335 84.5294 453.319 84.5847 457.635 85.3594V108.267C454.757 107.271 451.659 106.995 448.339 107.437C445.019 107.769 441.865 108.876 438.877 110.757C435.889 112.528 433.454 115.184 431.573 118.725C429.802 122.267 428.917 126.749 428.917 132.171V168.359H404.681V85.3594ZM526.953 85.3594H553.181L504.045 201.559H479.311L495.745 164.541L462.877 85.3594H489.935L508.361 134.993L526.953 85.3594Z" fill="#1E140F"/>
<path d="M429.99 15H460.47V22.74H439.23V32.04H455.13V39.36H439.23V57H429.99V15ZM475.249 57.42C472.169 57.42 469.489 56.78 467.209 55.5C464.929 54.18 463.149 52.34 461.869 49.98C460.629 47.62 460.009 44.86 460.009 41.7C460.009 38.78 460.629 36.18 461.869 33.9C463.109 31.62 464.849 29.84 467.089 28.56C469.329 27.24 471.869 26.58 474.709 26.58C477.709 26.58 480.309 27.2 482.509 28.44C484.709 29.64 486.429 31.36 487.669 33.6C488.909 35.84 489.529 38.44 489.529 41.4C489.529 41.88 489.509 42.38 489.469 42.9C489.429 43.42 489.369 44 489.289 44.64H469.369C469.569 45.72 469.949 46.66 470.509 47.46C471.069 48.22 471.769 48.82 472.609 49.26C473.489 49.66 474.489 49.86 475.609 49.86C476.849 49.86 477.969 49.6 478.969 49.08C479.969 48.56 480.709 47.82 481.189 46.86L489.049 49.02C487.849 51.7 486.049 53.78 483.649 55.26C481.249 56.7 478.449 57.42 475.249 57.42ZM479.989 38.94C479.949 37.94 479.689 37.06 479.209 36.3C478.729 35.54 478.109 34.94 477.349 34.5C476.589 34.06 475.749 33.86 474.829 33.9C473.909 33.94 473.069 34.18 472.309 34.62C471.589 35.02 470.969 35.6 470.449 36.36C469.929 37.08 469.609 37.94 469.489 38.94H479.989ZM508.764 57.42C505.684 57.42 503.004 56.78 500.724 55.5C498.444 54.18 496.664 52.34 495.384 49.98C494.144 47.62 493.524 44.86 493.524 41.7C493.524 38.78 494.144 36.18 495.384 33.9C496.624 31.62 498.364 29.84 500.604 28.56C502.844 27.24 505.384 26.58 508.224 26.58C511.224 26.58 513.824 27.2 516.024 28.44C518.224 29.64 519.944 31.36 521.184 33.6C522.424 35.84 523.044 38.44 523.044 41.4C523.044 41.88 523.024 42.38 522.984 42.9C522.944 43.42 522.884 44 522.804 44.64H502.884C503.084 45.72 503.464 46.66 504.024 47.46C504.584 48.22 505.284 48.82 506.124 49.26C507.004 49.66 508.004 49.86 509.124 49.86C510.364 49.86 511.484 49.6 512.484 49.08C513.484 48.56 514.224 47.82 514.704 46.86L522.564 49.02C521.364 51.7 519.564 53.78 517.164 55.26C514.764 56.7 511.964 57.42 508.764 57.42ZM513.504 38.94C513.464 37.94 513.204 37.06 512.724 36.3C512.244 35.54 511.624 34.94 510.864 34.5C510.104 34.06 509.264 33.86 508.344 33.9C507.424 33.94 506.584 34.18 505.824 34.62C505.104 35.02 504.484 35.6 503.964 36.36C503.444 37.08 503.124 37.94 503.004 38.94H513.504ZM549.78 31.62L548.58 31.68V13.8H557.34V57H549.42L548.88 53.22C548.08 54.38 546.9 55.38 545.34 56.22C543.78 57.02 542.04 57.42 540.12 57.42C537.6 57.42 535.34 56.8 533.34 55.56C531.38 54.28 529.84 52.48 528.72 50.16C527.6 47.84 527.04 45.12 527.04 42C527.04 38.84 527.6 36.12 528.72 33.84C529.84 31.52 531.38 29.74 533.34 28.5C535.3 27.22 537.56 26.58 540.12 26.58C542.4 26.58 544.36 27.08 546 28.08C547.64 29.04 548.9 30.22 549.78 31.62ZM536.46 42C536.46 44.2 537.02 45.98 538.14 47.34C539.26 48.66 540.72 49.32 542.52 49.32C543.6 49.32 544.6 49.04 545.52 48.48C546.44 47.92 547.18 47.1 547.74 46.02C548.3 44.94 548.58 43.6 548.58 42C548.58 40.4 548.3 39.06 547.74 37.98C547.18 36.9 546.44 36.08 545.52 35.52C544.6 34.92 543.6 34.62 542.52 34.62C540.68 34.62 539.2 35.3 538.08 36.66C537 38.02 536.46 39.8 536.46 42Z" fill="#EC691F"/>
</svg>
