<svg width="40" height="38" viewBox="0 0 40 38" fill="none" xmlns="http://www.w3.org/2000/svg">
<path d="M26.7865 21.0219C27.7183 21.0219 28.5997 21.2579 29.3728 21.6717L29.4178 21.6978C29.7609 21.886 30.0822 22.1092 30.3758 22.3639C30.5562 21.8613 30.706 21.3453 30.8237 20.8194C30.971 20.1588 31.0689 19.4739 31.1119 18.7688H29.8241C29.3619 18.7688 28.9867 18.394 28.9867 17.9323C28.9867 17.4707 29.3619 17.0959 29.8241 17.0959H31.1114C30.923 14.0878 29.7233 11.3533 27.8493 9.22861L26.9387 10.1381C26.612 10.4645 26.082 10.4645 25.7553 10.1381C25.4285 9.81176 25.4285 9.28243 25.7553 8.95605L26.6658 8.04652C24.5387 6.17463 21.8011 4.97624 18.7896 4.78811V6.0739C18.7896 6.53557 18.4144 6.91035 17.9522 6.91035C17.49 6.91035 17.1148 6.53557 17.1148 6.0739V4.78811C14.1038 4.97673 11.3662 6.17512 9.2391 8.04701L10.1492 8.95605C10.4759 9.28243 10.4759 9.81176 10.1492 10.1381C9.82241 10.4645 9.29248 10.4645 8.96573 10.1381L8.05566 9.2291C6.18214 11.3538 4.98189 14.0878 4.79355 17.0959H6.0803C6.54251 17.0959 6.91771 17.4707 6.91771 17.9323C6.91771 18.394 6.54251 18.7688 6.0803 18.7688H4.79355C4.98239 21.7769 6.18164 24.5114 8.05566 26.6356L8.96573 25.7265C9.29248 25.4002 9.82241 25.4002 10.1492 25.7265C10.4759 26.0529 10.4759 26.5822 10.1492 26.9086L9.2391 27.8177C11.3662 29.6896 14.1033 30.8875 17.1148 31.0761V29.7908C17.1148 29.3291 17.49 28.9543 17.9522 28.9543C18.4144 28.9543 18.7896 29.3291 18.7896 29.7908V31.0766C19.409 31.0385 20.0116 30.9595 20.5944 30.8415C21.157 30.7275 21.7101 30.5754 22.249 30.3897C21.504 28.8748 21.3083 27.5407 21.3083 26.4939C21.3083 24.9864 21.9227 23.6181 22.9148 22.6266C23.9045 21.6351 25.2748 21.0219 26.7865 21.0219ZM17.1148 10.0364C17.1148 9.57475 17.49 9.19997 17.9522 9.19997C18.4144 9.19997 18.7896 9.57475 18.7896 10.0364V17.9323C18.7896 18.1723 18.6883 18.3891 18.5257 18.5417L15.5428 21.5211C15.2161 21.8475 14.6862 21.8475 14.3594 21.5211C14.0327 21.1947 14.0327 20.6654 14.3594 20.339L17.1148 17.5867V10.0364ZM32.3868 21.4569C32.8707 21.251 33.3903 21.1122 33.9321 21.0535C34.0111 20.6461 34.0754 20.2333 34.1234 19.8176C34.1936 19.2082 34.2301 18.5782 34.2301 17.9318C34.2301 13.4415 32.408 9.37625 29.4628 6.43484C26.518 3.49295 22.4482 1.6729 17.9527 1.6729C13.4572 1.6729 9.3869 3.49295 6.44216 6.43484C3.49692 9.37625 1.6748 13.4415 1.6748 17.9318C1.6748 22.4222 3.49692 26.4879 6.44216 29.4293C9.3869 32.3712 13.4572 34.1913 17.9527 34.1913C19.2177 34.1913 20.4432 34.0491 21.6128 33.781C22.4408 33.5914 23.2475 33.3366 24.0266 33.023C23.682 32.625 23.379 32.2345 23.1141 31.8523C22.4101 32.112 21.677 32.3219 20.9217 32.4749C19.9854 32.6645 18.885 32.7964 17.9305 32.7747C9.5614 32.7623 3.27941 26.1497 3.09255 17.9323C3.09255 9.75398 9.80017 3.08904 17.9527 3.08904C22.0552 3.08904 25.7711 4.75108 28.4598 7.43671C31.1485 10.1223 32.8124 13.834 32.8124 17.9318C32.8124 19.0364 32.6873 20.1242 32.452 21.1789L32.3868 21.4569ZM35.6182 21.1315C36.6909 21.3492 37.6499 21.881 38.3949 22.6252C39.386 23.6152 40 24.9839 40 26.4939C40 27.8078 39.6915 29.575 38.3756 31.5832C37.1091 33.5163 34.8921 35.6849 31.0728 37.8877C30.8034 38.0437 30.4821 38.0318 30.231 37.8852C28.1281 36.672 26.5116 35.4692 25.2718 34.3103C24.2288 34.7754 23.1294 35.1453 21.9855 35.4074C20.6834 35.7057 19.3329 35.8642 17.9527 35.8642C12.996 35.8642 8.50748 33.857 5.25872 30.6114C2.00947 27.3664 0 22.8829 0 17.9318C0 12.9808 2.00947 8.49783 5.25872 5.25275C8.50748 2.00719 12.996 0 17.9527 0C22.9094 0 27.3975 2.00719 30.6462 5.25275C33.8955 8.49783 35.9049 12.9808 35.9049 17.9318C35.9049 18.6251 35.8639 19.3189 35.7843 20.0072C35.7408 20.3854 35.685 20.7607 35.6182 21.1315ZM31.1089 34.7181C30.7223 34.969 30.2053 34.8594 29.9542 34.4732C29.703 34.0871 29.8128 33.5706 30.1993 33.3198C31.4727 32.4962 32.8653 31.4444 33.9316 30.2332C34.9311 29.0975 35.6355 27.8256 35.6355 26.4939C35.6355 26.0322 36.0107 25.6574 36.4729 25.6574C36.9351 25.6574 37.3103 26.0322 37.3103 26.4939C37.3103 28.2892 36.4329 29.9221 35.1872 31.3373C34.0097 32.6754 32.4916 33.8239 31.1089 34.7181ZM28.5819 23.1411C28.051 22.8567 27.439 22.6948 26.7865 22.6948C25.736 22.6948 24.7844 23.1204 24.0968 23.8072C23.4082 24.4916 22.9831 25.4421 22.9831 26.4939C22.9831 27.5584 23.2396 29.0007 24.3326 30.6687C25.4295 32.3426 27.3525 34.2337 30.6541 36.1985C33.9558 34.2337 35.8787 32.3426 36.9757 30.6687C38.0686 29.0007 38.3252 27.5584 38.3252 26.4939C38.3252 25.4446 37.8991 24.4941 37.2115 23.8072C36.5238 23.1204 35.5723 22.6948 34.5213 22.6948C33.8688 22.6948 33.2573 22.8567 32.7264 23.1411C32.1742 23.4354 31.7041 23.8635 31.3566 24.3825C31.2958 24.4768 31.2152 24.5607 31.1153 24.6264C30.7307 24.8807 30.2122 24.7755 29.9576 24.3914C29.6175 23.8798 29.1578 23.4562 28.6214 23.1609L28.5819 23.1411Z" fill="black"/>
</svg>
