<svg width="258" height="129" viewBox="0 0 258 129" fill="none" xmlns="http://www.w3.org/2000/svg">
<path d="M255.614 15.0832C256.415 15.2963 257.236 14.8201 257.45 14.0196C257.663 13.2191 257.186 12.3973 256.386 12.1842L255.614 15.0832ZM9.90394 128.024C10.4695 128.629 11.4187 128.662 12.024 128.096L21.8885 118.88C22.4939 118.314 22.5261 117.365 21.9606 116.76C21.395 116.154 20.4458 116.122 19.8405 116.688L11.072 124.88L2.87969 116.111C2.31413 115.506 1.36493 115.474 0.75959 116.039C0.154255 116.605 0.122012 117.554 0.687574 118.16L9.90394 128.024ZM12.5806 124.991C12.618 124.164 11.9775 123.463 11.1499 123.425C10.3223 123.388 9.62108 124.028 9.58367 124.856L12.5806 124.991ZM10.1391 116.695C10.0635 117.52 10.671 118.25 11.496 118.325C12.3209 118.401 13.051 117.794 13.1266 116.969L10.1391 116.695ZM13.538 113.009C13.6338 112.186 13.0443 111.442 12.2214 111.346C11.3986 111.25 10.6539 111.84 10.5581 112.662L13.538 113.009ZM11.7174 104.541C11.5785 105.358 12.128 106.133 12.9447 106.272C13.7613 106.411 14.536 105.861 14.6749 105.044L11.7174 104.541ZM15.396 101.132C15.5575 100.319 15.0297 99.5294 14.2172 99.3679C13.4047 99.2064 12.6151 99.7342 12.4536 100.547L15.396 101.132ZM14.2868 92.5546C14.0774 93.3561 14.5574 94.1757 15.3589 94.385C16.1605 94.5944 16.98 94.1144 17.1894 93.3129L14.2868 92.5546ZM18.2597 89.4614C18.4941 88.6668 18.0399 87.8327 17.2453 87.5984C16.4507 87.364 15.6166 87.8182 15.3823 88.6128L18.2597 89.4614ZM17.949 80.8506C17.6629 81.628 18.0613 82.4902 18.8387 82.7763C19.6162 83.0624 20.4783 82.6641 20.7645 81.8867L17.949 80.8506ZM22.2197 78.1341C22.5327 77.3671 22.1646 76.4916 21.3976 76.1786C20.6306 75.8656 19.755 76.2336 19.442 77.0007L22.2197 78.1341ZM22.7974 69.5473C22.4302 70.2899 22.7346 71.1896 23.4772 71.5567C24.2199 71.9239 25.1195 71.6195 25.4867 70.8768L22.7974 69.5473ZM27.3356 67.3063C27.7303 66.5779 27.4599 65.6675 26.7315 65.2728C26.0031 64.8781 25.0927 65.1486 24.698 65.8769L27.3356 67.3063ZM28.8738 58.8232C28.4249 59.5195 28.6253 60.4478 29.3215 60.8968C30.0177 61.3458 30.9461 61.1453 31.3951 60.4491L28.8738 58.8232ZM33.6219 57.1385C34.0975 56.4603 33.9332 55.5248 33.255 55.0492C32.5767 54.5736 31.6412 54.7379 31.1656 55.4161L33.6219 57.1385ZM36.1381 48.8826C35.611 49.5217 35.7019 50.4671 36.341 50.9941C36.9802 51.5212 37.9256 51.4303 38.4526 50.7912L36.1381 48.8826ZM41.04 47.7749C41.5914 47.1567 41.5373 46.2085 40.919 45.657C40.3008 45.1056 39.3526 45.1597 38.8012 45.7779L41.04 47.7749ZM44.5037 39.8618C43.9063 40.4357 43.8874 41.3853 44.4613 41.9827C45.0353 42.58 45.9849 42.599 46.5822 42.025L44.5037 39.8618ZM49.5114 39.3152C50.13 38.7641 50.1847 37.816 49.6337 37.1974C49.0826 36.5788 48.1344 36.5241 47.5159 37.0751L49.5114 39.3152ZM53.8382 31.8479C53.1809 32.3522 53.057 33.2939 53.5613 33.9511C54.0657 34.6083 55.0073 34.7323 55.6645 34.2279L53.8382 31.8479ZM58.8765 31.8525C59.5511 31.3716 59.7082 30.435 59.2274 29.7604C58.7466 29.0857 57.81 28.9286 57.1353 29.4094L58.8765 31.8525ZM63.9674 24.884C63.2618 25.3181 63.0417 26.242 63.4758 26.9476C63.9099 27.6532 64.8338 27.8733 65.5394 27.4392L63.9674 24.884ZM68.9824 25.3973C69.7016 24.9862 69.9515 24.0699 69.5404 23.3507C69.1293 22.6314 68.213 22.3816 67.4938 22.7927L68.9824 25.3973ZM74.7222 18.9535C73.9791 19.3197 73.6737 20.219 74.04 20.9621C74.4062 21.7051 75.3055 22.0106 76.0486 21.6443L74.7222 18.9535ZM79.6704 19.9244C80.4238 19.5798 80.7552 18.6898 80.4106 17.9364C80.0661 17.183 79.1761 16.8516 78.4227 17.1961L79.6704 19.9244ZM85.9548 14.0011C85.1837 14.3038 84.804 15.1744 85.1068 15.9455C85.4096 16.7166 86.2801 17.0963 87.0512 16.7935L85.9548 14.0011ZM90.7942 15.3797C91.5729 15.0969 91.9749 14.2364 91.6921 13.4577C91.4093 12.6791 90.5488 12.2771 89.7701 12.5599L90.7942 15.3797ZM97.5194 9.96003C96.7279 10.2046 96.2845 11.0445 96.529 11.836C96.7736 12.6275 97.6134 13.0709 98.405 12.8263L97.5194 9.96003ZM102.251 11.6865C103.048 11.4602 103.51 10.6306 103.284 9.83374C103.058 9.03684 102.228 8.57432 101.431 8.80067L102.251 11.6865ZM109.33 6.7429C108.524 6.93459 108.026 7.74333 108.218 8.54928C108.409 9.35522 109.218 9.85317 110.024 9.66148L109.33 6.7429ZM113.948 8.77071C114.758 8.59551 115.272 7.7971 115.097 6.98741C114.922 6.17773 114.123 5.66337 113.313 5.83857L113.948 8.77071ZM121.313 4.27015C120.498 4.41404 119.953 5.19206 120.097 6.00789C120.241 6.82373 121.019 7.36844 121.835 7.22455L121.313 4.27015ZM125.807 6.56149C126.625 6.4325 127.184 5.66456 127.055 4.84623C126.926 4.02791 126.158 3.46909 125.34 3.59807L125.807 6.56149ZM133.41 2.47021C132.587 2.57086 132.002 3.31905 132.103 4.14134C132.204 4.96363 132.952 5.54863 133.774 5.44798L133.41 2.47021ZM137.772 4.99209C138.595 4.90493 139.193 4.16643 139.105 3.3426C139.018 2.51877 138.28 1.92158 137.456 2.00874L137.772 4.99209ZM145.57 1.27955C144.744 1.34095 144.124 2.06045 144.185 2.8866C144.247 3.71274 144.966 4.3327 145.792 4.2713L145.57 1.27955ZM149.81 4.00294C150.637 3.95384 151.267 3.24365 151.218 2.41668C151.169 1.5897 150.459 0.959113 149.632 1.00821L149.81 4.00294ZM157.767 0.642539C156.938 0.668065 156.288 1.36001 156.313 2.18805C156.339 3.01608 157.031 3.66664 157.859 3.64111L157.767 0.642539ZM161.886 3.54459C162.715 3.53037 163.375 2.84736 163.36 2.01906C163.346 1.19075 162.663 0.530808 161.835 0.54503L161.886 3.54459ZM169.976 0.51308C169.147 0.50554 168.47 1.17097 168.462 1.99937C168.454 2.82776 169.12 3.50542 169.948 3.51296L169.976 0.51308ZM173.972 3.57513C174.801 3.59314 175.487 2.93633 175.505 2.1081C175.523 1.27987 174.866 0.593854 174.038 0.575839L173.972 3.57513ZM182.174 0.853387C181.346 0.815058 180.644 1.45484 180.606 2.28238C180.568 3.10992 181.208 3.81184 182.035 3.85017L182.174 0.853387ZM186.058 4.06058C186.885 4.10875 187.595 3.47736 187.643 2.65034C187.691 1.82331 187.06 1.11383 186.233 1.06565L186.058 4.06058ZM194.34 1.6328C193.514 1.56545 192.79 2.1802 192.723 3.00589C192.655 3.83157 193.27 4.55552 194.096 4.62287L194.34 1.6328ZM198.129 4.97507C198.954 5.05184 199.685 4.44538 199.761 3.62052C199.838 2.79566 199.232 2.06474 198.407 1.98798L198.129 4.97507ZM206.491 2.83191C205.668 2.73672 204.924 3.32668 204.829 4.14962C204.734 4.97256 205.324 5.71685 206.147 5.81204L206.491 2.83191ZM210.156 6.29827C210.977 6.40257 211.728 5.82088 211.832 4.99905C211.937 4.17721 211.355 3.42644 210.533 3.32214L210.156 6.29827ZM218.594 4.43536C217.774 4.31301 217.011 4.87802 216.889 5.69736C216.766 6.51671 217.331 7.2801 218.151 7.40246L218.594 4.43536ZM222.111 8.01596C222.929 8.14727 223.698 7.59063 223.829 6.77268C223.961 5.95472 223.404 5.18519 222.586 5.05388L222.111 8.01596ZM230.611 6.43365C229.797 6.28419 229.015 6.82358 228.865 7.63841C228.716 8.45324 229.255 9.23496 230.07 9.38442L230.611 6.43365ZM234.047 10.1372C234.86 10.2959 235.648 9.76539 235.807 8.9523C235.966 8.13921 235.435 7.35143 234.622 7.19275L234.047 10.1372ZM242.584 8.84223C241.775 8.66471 240.975 9.17677 240.798 9.98595C240.62 10.7951 241.132 11.595 241.942 11.7725L242.584 8.84223ZM245.875 12.6602C246.682 12.8475 247.488 12.3451 247.675 11.5381C247.862 10.7311 247.36 9.92512 246.553 9.73784L245.875 12.6602ZM254.457 11.6774C253.655 11.4696 252.836 11.9512 252.629 12.7531C252.421 13.5551 252.902 14.3736 253.704 14.5815L254.457 11.6774ZM12.4991 127.051C12.5226 126.361 12.5497 125.674 12.5806 124.991L9.58367 124.856C9.5523 125.55 9.52469 126.248 9.50086 126.949L12.4991 127.051ZM13.1266 116.969C13.2489 115.634 13.3862 114.314 13.538 113.009L10.5581 112.662C10.4034 113.992 10.2637 115.336 10.1391 116.695L13.1266 116.969ZM14.6749 105.044C14.8995 103.724 15.14 102.42 15.396 101.132L12.4536 100.547C12.1921 101.863 11.9466 103.194 11.7174 104.541L14.6749 105.044ZM17.1894 93.3129C17.5293 92.0116 17.8862 90.7278 18.2597 89.4614L15.3823 88.6128C14.9998 89.9094 14.6345 91.2233 14.2868 92.5546L17.1894 93.3129ZM20.7645 81.8867C21.2317 80.6169 21.717 79.3661 22.2197 78.1341L19.442 77.0007C18.9261 78.2651 18.4283 79.5483 17.949 80.8506L20.7645 81.8867ZM25.4867 70.8768C26.0849 69.6668 26.7013 68.4767 27.3356 67.3063L24.698 65.8769C24.0458 67.0804 23.4121 68.3038 22.7974 69.5473L25.4867 70.8768ZM31.3951 60.4491C32.1196 59.3256 32.8621 58.2221 33.6219 57.1385L31.1656 55.4161C30.3835 56.5315 29.6194 57.6671 28.8738 58.8232L31.3951 60.4491ZM38.4526 50.7912C39.2981 49.7659 40.1607 48.7606 41.04 47.7749L38.8012 45.7779C37.8963 46.7924 37.0084 47.8272 36.1381 48.8826L38.4526 50.7912ZM46.5822 42.025C47.5427 41.1022 48.5192 40.199 49.5114 39.3152L47.5159 37.0751C46.4958 37.9838 45.4916 38.9126 44.5037 39.8618L46.5822 42.025ZM55.6645 34.2279C56.7207 33.4174 57.7916 32.6257 58.8765 31.8525L57.1353 29.4094C56.022 30.2029 54.9228 31.0156 53.8382 31.8479L55.6645 34.2279ZM65.5394 27.4392C66.6743 26.7409 67.8222 26.0604 68.9824 25.3973L67.4938 22.7927C66.3059 23.4716 65.1303 24.1686 63.9674 24.884L65.5394 27.4392ZM76.0486 21.6443C77.245 21.0546 78.4524 20.4814 79.6704 19.9244L78.4227 17.1961C77.1788 17.765 75.9451 18.3507 74.7222 18.9535L76.0486 21.6443ZM87.0512 16.7935C88.2899 16.3072 89.5378 15.836 90.7942 15.3797L89.7701 12.5599C88.4899 13.0248 87.2179 13.5051 85.9548 14.0011L87.0512 16.7935ZM98.405 12.8263C99.6797 12.4325 100.962 12.0526 102.251 11.6865L101.431 8.80067C100.12 9.17295 98.8164 9.5593 97.5194 9.96003L98.405 12.8263ZM110.024 9.66148C111.326 9.35172 112.635 9.05489 113.948 8.77071L113.313 5.83857C111.98 6.12699 110.652 6.42833 109.33 6.7429L110.024 9.66148ZM121.835 7.22455C123.155 6.99173 124.479 6.7708 125.807 6.56149L125.34 3.59807C123.994 3.81017 122.652 4.03411 121.313 4.27015L121.835 7.22455ZM133.774 5.44798C135.104 5.28519 136.437 5.13331 137.772 4.99209L137.456 2.00874C136.105 2.15166 134.756 2.30539 133.41 2.47021L133.774 5.44798ZM145.792 4.2713C147.13 4.17186 148.47 4.08249 149.81 4.00294L149.632 1.00821C148.277 1.08864 146.923 1.17899 145.57 1.27955L145.792 4.2713ZM157.859 3.64111C159.202 3.59972 160.544 3.56763 161.886 3.54459L161.835 0.54503C160.479 0.568304 159.123 0.600716 157.767 0.642539L157.859 3.64111ZM169.948 3.51296C171.291 3.52518 172.633 3.54599 173.972 3.57513L174.038 0.575839C172.686 0.546433 171.332 0.525422 169.976 0.51308L169.948 3.51296ZM182.035 3.85017C183.379 3.91244 184.721 3.98267 186.058 4.06058L186.233 1.06565C184.883 0.987061 183.53 0.916211 182.174 0.853387L182.035 3.85017ZM194.096 4.62287C195.445 4.73294 196.79 4.85044 198.129 4.97507L198.407 1.98798C197.056 1.8623 195.701 1.7438 194.34 1.6328L194.096 4.62287ZM206.147 5.81204C207.49 5.96741 208.826 6.12959 210.156 6.29827L210.533 3.32214C209.193 3.15208 207.846 2.98856 206.491 2.83191L206.147 5.81204ZM218.151 7.40246C219.48 7.60093 220.8 7.80555 222.111 8.01596L222.586 5.05388C221.265 4.84175 219.934 4.63546 218.594 4.43536L218.151 7.40246ZM230.07 9.38442C231.408 9.62982 232.734 9.88088 234.047 10.1372L234.622 7.19275C233.298 6.93426 231.96 6.6811 230.611 6.43365L230.07 9.38442ZM241.942 11.7725C243.269 12.0637 244.58 12.3597 245.875 12.6602L246.553 9.73784C245.246 9.43461 243.923 9.13592 242.584 8.84223L241.942 11.7725ZM253.704 14.5815C254.346 14.7478 254.983 14.915 255.614 15.0832L256.386 12.1842C255.748 12.0143 255.105 11.8454 254.457 11.6774L253.704 14.5815Z" fill="#6A0600"/>
</svg>
