<svg width="32" height="32" viewBox="0 0 32 32" fill="none" xmlns="http://www.w3.org/2000/svg">
<path d="M16 14.9594C16.5989 14.9594 16.9982 14.5579 16.9982 13.9556V12.9519C16.9982 12.3496 16.5989 11.9481 16 11.9481C15.401 11.9481 15.0017 12.3496 15.0017 12.9519V13.9556C15.0017 14.5579 15.5008 14.9594 16 14.9594Z" fill="url(#paint0_linear_6278_4743)"/>
<path d="M16.9982 18.9744C16.9982 19.5767 16.5989 19.9782 16 19.9782C15.5008 19.9782 15.0017 19.5767 15.0017 18.9744V17.9707C15.0017 17.3684 15.401 16.9669 16 16.9669C16.5989 16.9669 16.9982 17.3684 16.9982 17.9707V18.9744Z" fill="url(#paint1_linear_6278_4743)"/>
<path fill-rule="evenodd" clip-rule="evenodd" d="M24.186 16.0627C23.0879 15.862 21.9897 15.9624 20.9914 16.2635V14.9586C20.9914 10.2999 17.0714 6.5796 16.7218 6.24789C16.71 6.23663 16.7021 6.22915 16.6988 6.22585C16.2995 5.92472 15.7005 5.92472 15.401 6.22585C15.2014 6.32622 11.0086 10.1405 11.0086 14.9586C11.0086 15.3601 11.0086 15.7616 11.1084 16.2635C10.0103 15.9624 8.91215 15.862 7.81403 16.0627C7.31489 16.1631 6.91557 16.665 7.0154 17.1669C7.61437 21.1819 11.0086 24.0928 15.0017 24.0928V24.9962C15.0017 25.5985 15.401 26 16 26C16.599 26 16.9983 25.5985 16.9983 24.9962V24.0928C20.8916 24.0928 24.3856 21.1819 24.9846 17.1669C25.0844 16.665 24.6851 16.1631 24.186 16.0627ZM16 8.33375C17.0981 9.53827 18.9949 12.0477 18.9949 14.9586C18.9949 18.8733 17.4974 21.9849 16 21.9849C14.5026 21.9849 13.0051 18.8733 13.0051 14.9586C13.0051 12.0477 14.9019 9.53827 16 8.33375ZM9.21164 17.9699C9.91044 17.9699 10.7091 18.1706 11.308 18.4718C11.6075 19.6763 12.0068 20.8808 12.506 21.5834C11.0086 20.8808 9.81061 19.5759 9.21164 17.9699ZM19.494 21.5834C19.8933 20.7804 20.3925 19.6763 20.692 18.4718C21.3908 18.1706 22.0896 18.0703 22.7884 17.9699C22.1894 19.5759 20.9914 20.8808 19.494 21.5834Z" fill="url(#paint2_linear_6278_4743)"/>
<defs>
<linearGradient id="paint0_linear_6278_4743" x1="25.0023" y1="26" x2="5.11251" y2="8.09694" gradientUnits="userSpaceOnUse">
<stop stop-color="#FF2525"/>
<stop offset="1" stop-color="#FF8743"/>
</linearGradient>
<linearGradient id="paint1_linear_6278_4743" x1="25.0023" y1="26" x2="5.11251" y2="8.09694" gradientUnits="userSpaceOnUse">
<stop stop-color="#FF2525"/>
<stop offset="1" stop-color="#FF8743"/>
</linearGradient>
<linearGradient id="paint2_linear_6278_4743" x1="25.0023" y1="26" x2="5.11251" y2="8.09694" gradientUnits="userSpaceOnUse">
<stop stop-color="#FF2525"/>
<stop offset="1" stop-color="#FF8743"/>
</linearGradient>
</defs>
</svg>
