<svg width="110" height="110" viewBox="0 0 110 110" fill="none" xmlns="http://www.w3.org/2000/svg">
<rect width="110" height="110" rx="55" fill="url(#paint0_linear_10077_59060)"/>
<circle cx="55.3632" cy="56.2304" r="13.1835" fill="#FB6069"/>
<path d="M41.2812 55.8461C41.2813 58.6031 42.0988 61.2982 43.6305 63.5906C45.1623 65.883 47.3394 67.6697 49.8865 68.7248C52.4337 69.7798 55.2365 70.0559 57.9406 69.518C60.6446 68.9802 63.1285 67.6525 65.078 65.703C67.0275 63.7535 68.3552 61.2696 68.893 58.5656C69.4309 55.8615 69.1548 53.0587 68.0998 50.5115C67.0447 47.9644 65.258 45.7873 62.9656 44.2555C60.6732 42.7238 57.9781 41.9062 55.2211 41.9062C51.5253 41.9104 47.982 43.3804 45.3687 45.9937C42.7554 48.607 41.2854 52.1503 41.2812 55.8461ZM55.2211 43.8289C57.5978 43.8289 59.9212 44.5336 61.8975 45.8541C63.8737 47.1746 65.414 49.0514 66.3235 51.2473C67.2331 53.4431 67.4711 55.8594 67.0074 58.1905C66.5437 60.5216 65.3992 62.6629 63.7185 64.3435C62.0379 66.0242 59.8966 67.1687 57.5655 67.6324C55.2344 68.0961 52.8181 67.8581 50.6223 66.9485C48.4264 66.039 46.5496 64.4987 45.2291 62.5225C43.9086 60.5462 43.2039 58.2228 43.2039 55.8461C43.2074 52.66 44.4747 49.6055 46.7276 47.3526C48.9805 45.0997 52.035 43.8324 55.2211 43.8289Z" fill="#6A0600"/>
<path d="M49.8838 52.9042C49.8838 53.1591 49.9851 53.4036 50.1654 53.5839C50.3457 53.7642 50.5902 53.8655 50.8451 53.8655H55.9655C55.7693 54.4001 55.412 54.8606 54.9429 55.1834C54.4738 55.5063 53.9161 55.6756 53.3467 55.6679H50.8451C50.6532 55.6661 50.4652 55.7223 50.3057 55.8292C50.1462 55.936 50.0226 56.0885 49.9512 56.2666C49.8798 56.4448 49.8639 56.6404 49.9054 56.8278C49.947 57.0152 50.0442 57.1857 50.1842 57.317L56.4368 63.2236C56.6213 63.3988 56.8678 63.4935 57.1221 63.4869C57.3765 63.4803 57.6178 63.3729 57.7929 63.1884C57.9681 63.0039 58.0628 62.7573 58.0562 62.503C58.0496 62.2487 57.9422 62.0074 57.7577 61.8322L53.2621 57.5905H53.3462C55.6151 57.5905 57.5144 55.9082 57.9595 53.8655H59.5869C59.8419 53.8655 60.0864 53.7642 60.2667 53.5839C60.447 53.4036 60.5482 53.1591 60.5482 52.9042C60.5482 52.6492 60.447 52.4047 60.2667 52.2244C60.0864 52.0441 59.8419 51.9429 59.5869 51.9429H57.9599C57.8192 51.2535 57.5408 50.5996 57.1414 50.0203H59.5874C59.8424 50.0203 60.0869 49.919 60.2672 49.7387C60.4474 49.5584 60.5487 49.3139 60.5487 49.059C60.5487 48.804 60.4474 48.5595 60.2672 48.3792C60.0869 48.1989 59.8424 48.0977 59.5874 48.0977H50.8451C50.5902 48.0977 50.3457 48.1989 50.1654 48.3792C49.9851 48.5595 49.8838 48.804 49.8838 49.059C49.8838 49.3139 49.9851 49.5584 50.1654 49.7387C50.3457 49.919 50.5902 50.0203 50.8451 50.0203H53.3467C54.5472 50.0203 55.5729 50.8614 55.9655 51.9429H50.8451C50.5902 51.9429 50.3457 52.0441 50.1654 52.2244C49.9851 52.4047 49.8838 52.6492 49.8838 52.9042Z" fill="#6A0600"/>
<path d="M37.7763 69.7803L30.0859 69.4141V86.2597H37.4101L37.7763 69.7803Z" fill="white"/>
<path d="M44.7304 70.5156L38.5049 72.3467L37.4062 73.8115V84.4316L41.4346 82.9668L50.2236 85.164L56.0829 86.2626H61.5761L79.5204 74.5439L76.5907 72.3467L70.3651 75.2763L65.9706 77.4736L63.0409 73.8115H60.8437L54.6181 73.0791L50.2236 72.3467L44.7304 70.5156Z" fill="white"/>
<path d="M73.9005 72.0953L66.3736 75.6521C66.1167 75.1758 65.7981 74.7354 65.426 74.3424C64.8739 73.7557 64.2109 73.2845 63.4754 72.9558C62.74 72.6271 61.9466 72.4476 61.1413 72.4277L54.1896 72.236C53.0886 72.2043 52.0087 71.9254 51.0301 71.4199L50.3228 71.0536C48.5383 70.1235 46.5553 69.6388 44.5429 69.6409C42.5306 69.643 40.5486 70.1318 38.766 71.0656L38.8101 69.463C38.8172 69.2082 38.7227 68.961 38.5474 68.7758C38.3722 68.5907 38.1306 68.4827 37.8758 68.4757L30.2528 68.2659C29.9982 68.2603 29.7515 68.3546 29.5656 68.5287C29.4738 68.6154 29.4001 68.7194 29.3485 68.8347C29.297 68.95 29.2686 69.0743 29.2652 69.2005L28.805 85.9285C28.7981 86.1834 28.8926 86.4306 29.0679 86.6157C29.2431 86.8008 29.4847 86.9088 29.7396 86.9158L37.3624 87.1256H37.3893C37.6396 87.1255 37.88 87.0277 38.0594 86.8532C38.2387 86.6786 38.3429 86.4409 38.3498 86.1907L38.3718 85.3905L40.3522 84.33C41.1292 83.9119 42.0385 83.8123 42.8876 84.0525L54.7129 87.3718C54.7336 87.3777 54.7544 87.3828 54.7754 87.3872C55.6302 87.5659 56.5012 87.6557 57.3744 87.6553C59.2239 87.6565 61.0517 87.2576 62.7326 86.4862C62.7739 86.4672 62.8137 86.4451 62.8519 86.4204L79.9978 75.3294C80.2035 75.1963 80.3507 74.9897 80.4092 74.7518C80.4678 74.5139 80.4332 74.2626 80.3127 74.0493C79.6999 72.9618 78.6919 72.1521 77.4979 71.7883C76.3038 71.4244 75.0156 71.5344 73.9005 72.0953ZM30.7534 85.0204L31.1608 70.2142L36.8618 70.3712L36.4544 85.1775L30.7534 85.0204ZM61.8667 84.769C59.7782 85.7112 57.4459 85.9714 55.2011 85.5127L43.4076 82.2022C42.0805 81.8272 40.6596 81.9827 39.445 82.6357L38.4332 83.1775L38.704 73.333C40.2785 72.2859 42.1051 71.6804 43.9933 71.5798C45.8814 71.4791 47.762 71.887 49.4389 72.7608L50.146 73.1272C51.3823 73.7655 52.7463 74.1178 54.1371 74.158L61.0886 74.3492C62.0375 74.3758 62.9497 74.722 63.6773 75.3317C64.4049 75.9414 64.9052 76.7789 65.0974 77.7086L54.741 77.4231C54.4861 77.4161 54.2388 77.5106 54.0535 77.6859C53.8683 77.8612 53.7603 78.1029 53.7532 78.3579C53.7462 78.6128 53.8408 78.8601 54.0161 79.0454C54.1914 79.2306 54.4331 79.3387 54.6881 79.3457L66.1155 79.6601H66.1424C66.3927 79.66 66.6331 79.5623 66.8124 79.3877C66.9918 79.2131 67.096 78.9755 67.1029 78.7253C67.1143 78.3074 67.0835 77.8893 67.0107 77.4776L74.7336 73.8288L74.7561 73.8178C75.291 73.5469 75.896 73.4463 76.4898 73.5294C77.0835 73.6126 77.6376 73.8756 78.0774 74.283L61.8667 84.769Z" fill="#6A0600"/>
<path d="M71.4658 40.876L79.1562 41.2422V24.3965H71.8321L71.4658 40.876Z" fill="white"/>
<path d="M64.5117 40.1406L70.7373 38.3096L71.8359 36.8447V26.2247L67.8076 27.6895L59.0186 25.4922L53.1593 24.3936H47.6661L29.7218 36.1123L32.6515 38.3096L38.8771 35.3799L43.2716 33.1826L46.2013 36.8447H48.3985L54.6241 37.5772L59.0186 38.3096L64.5117 40.1406Z" fill="white"/>
<path d="M35.3417 38.5609L42.8686 35.0041C43.1255 35.4805 43.4441 35.9208 43.8162 36.3139C44.3683 36.9005 45.0313 37.3718 45.7668 37.7004C46.5022 38.0291 47.2956 38.2086 48.1009 38.2286L55.0526 38.4202C56.1536 38.4519 57.2335 38.7308 58.2121 39.2364L58.9194 39.6026C60.7039 40.5328 62.6869 41.0175 64.6992 41.0154C66.7116 41.0133 68.6936 40.5245 70.4761 39.5906L70.432 41.1932C70.425 41.448 70.5195 41.6952 70.6948 41.8804C70.87 42.0656 71.1116 42.1735 71.3664 42.1806L78.9894 42.3904C79.244 42.396 79.4907 42.3016 79.6766 42.1276C79.7684 42.0408 79.8421 41.9368 79.8937 41.8216C79.9452 41.7063 79.9735 41.582 79.977 41.4558L80.4371 24.7277C80.4441 24.4729 80.3496 24.2257 80.1743 24.0405C79.9991 23.8554 79.7575 23.7475 79.5026 23.7404L71.8798 23.5306H71.8528C71.6026 23.5308 71.3622 23.6285 71.1828 23.8031C71.0035 23.9777 70.8993 24.2153 70.8924 24.4655L70.8704 25.2658L68.89 26.3262C68.1129 26.7444 67.2037 26.8439 66.3546 26.6038L54.5293 23.2844C54.5086 23.2785 54.4878 23.2735 54.4668 23.269C53.612 23.0904 52.741 23.0005 51.8678 23.001C50.0183 22.9998 48.1905 23.3986 46.5096 24.17C46.4683 24.1891 46.4284 24.2111 46.3903 24.2359L29.2444 35.3269C29.0387 35.4599 28.8915 35.6665 28.833 35.9044C28.7744 36.1424 28.809 36.3936 28.9295 36.607C29.5423 37.6944 30.5503 38.5041 31.7443 38.868C32.9383 39.2318 34.2266 39.1219 35.3417 38.5609ZM78.4888 25.6359L78.0814 40.4421L72.3804 40.285L72.7878 25.4787L78.4888 25.6359ZM47.3755 25.8873C49.464 24.9451 51.7962 24.6849 54.041 25.1436L65.8346 28.4541C67.1617 28.829 68.5826 28.6736 69.7972 28.0205L70.809 27.4787L70.5382 37.3233C68.9637 38.3704 67.1371 38.9758 65.2489 39.0765C63.3608 39.1771 61.4802 38.7693 59.8033 37.8955L59.0962 37.5291C57.8598 36.8908 56.4959 36.5384 55.1051 36.4982L48.1536 36.307C47.2046 36.2805 46.2925 35.9343 45.5649 35.3246C44.8373 34.7148 44.3369 33.8773 44.1448 32.9477L54.5011 33.2332C54.7561 33.2402 55.0034 33.1457 55.1886 32.9703C55.3739 32.795 55.4819 32.5533 55.4889 32.2984C55.496 32.0434 55.4014 31.7961 55.2261 31.6109C55.0508 31.4256 54.8091 31.3176 54.5541 31.3106L43.1267 30.9961H43.0998C42.8495 30.9962 42.6091 31.094 42.4297 31.2685C42.2504 31.4431 42.1462 31.6808 42.1393 31.931C42.1278 32.3489 42.1587 32.7669 42.2315 33.1786L34.5086 36.8275L34.486 36.8384C33.9512 37.1093 33.3462 37.21 32.7524 37.1268C32.1587 37.0436 31.6046 36.7807 31.1647 36.3733L47.3755 25.8873Z" fill="#6A0600"/>
<defs>
<linearGradient id="paint0_linear_10077_59060" x1="55" y1="0" x2="55" y2="110" gradientUnits="userSpaceOnUse">
<stop stop-color="#FFDCD8"/>
<stop offset="1" stop-color="#FFC1BB"/>
</linearGradient>
</defs>
</svg>
