<svg width="110" height="110" viewBox="0 0 110 110" fill="none" xmlns="http://www.w3.org/2000/svg">
<rect width="110" height="110" rx="55" fill="url(#paint0_linear_10077_59039)"/>
<g clip-path="url(#clip0_10077_59039)">
<ellipse cx="66.9206" cy="57.228" rx="8.93826" ry="16.8005" transform="rotate(154.511 66.9206 57.228)" fill="white"/>
<path d="M45.9942 67.6126C50.2768 77.1656 65.8525 75.4518 73.105 73.4008C56.3071 63.2777 56.7197 48.5891 59.0257 42.5101C43.4496 51.888 43.848 63.1526 45.9942 67.6126Z" fill="#FB6069"/>
<path d="M42.7315 73.8868L47.829 71.4341L44.7631 65.0622L39.8309 67.0431L36.8583 64.9422L32.5874 65.0355L30.6518 67.5362L30.9104 71.3353L32.6086 74.0493L33.3391 78.0137L35.0373 80.7278L38.1992 80.7758L42.6595 78.6297L42.7315 73.8868Z" fill="white"/>
<path d="M48.6289 70.9138L42.5734 73.8294C42.9181 74.5456 43.0809 75.3357 43.0474 76.1298C43.0138 76.9239 42.7849 77.6975 42.381 78.382C41.977 79.0666 41.4105 79.6409 40.7316 80.0542C40.0527 80.4675 39.2824 80.707 38.4888 80.7515C37.6952 80.7959 36.9029 80.644 36.1821 80.3092C35.4612 79.9743 34.8341 79.4669 34.3562 78.8318C33.8783 78.1966 33.5644 77.4535 33.4424 76.6681C33.3203 75.8827 33.3938 75.0793 33.6563 74.3291C32.9058 74.0668 32.2316 73.6235 31.6934 73.0383C31.1552 72.4531 30.7697 71.7442 30.571 70.9744C30.3723 70.2046 30.3666 69.3977 30.5543 68.6252C30.742 67.8526 31.1174 67.1383 31.6472 66.5456C32.177 65.9528 32.8448 65.4998 33.5915 65.2269C34.3382 64.9539 35.1407 64.8694 35.9279 64.9807C36.7151 65.0921 37.4626 65.3959 38.1043 65.8652C38.746 66.3346 39.262 66.955 39.6066 67.6714L45.2125 64.9722M68.6737 58.4283L67.1918 55.3486M74.3879 53.7825C70.3388 45.3634 64.127 39.9457 60.5229 41.6817C56.9135 43.4184 57.2715 51.6508 61.3237 60.0685C65.3727 68.4877 71.5845 73.9054 75.1886 72.1694C78.798 70.4326 78.44 62.2002 74.3879 53.7825Z" stroke="#570500" stroke-width="3" stroke-linecap="round" stroke-linejoin="round"/>
<path d="M60.5239 41.6797C48.4968 47.4685 42.0301 58.9847 46.0823 67.4024C50.1314 75.8216 63.1655 77.9547 75.1919 72.1681" stroke="#570500" stroke-width="3" stroke-linecap="round" stroke-linejoin="round"/>
</g>
<path d="M39.9585 44.1877L32 39" stroke="#570500" stroke-width="3" stroke-linecap="round"/>
<path d="M63 35V25.5" stroke="#570500" stroke-width="3" stroke-linecap="round"/>
<path d="M75.9252 38.0207L80.0781 29.4766" stroke="#570500" stroke-width="3" stroke-linecap="round"/>
<path d="M85.0024 44.1877L92.9609 39" stroke="#570500" stroke-width="3" stroke-linecap="round"/>
<path d="M50.1529 36.5442L46 28" stroke="#570500" stroke-width="3" stroke-linecap="round"/>
<defs>
<linearGradient id="paint0_linear_10077_59039" x1="55" y1="0" x2="55" y2="110" gradientUnits="userSpaceOnUse">
<stop stop-color="#FFDCD8"/>
<stop offset="1" stop-color="#FFC1BB"/>
</linearGradient>
<clipPath id="clip0_10077_59039">
<rect width="58" height="58" fill="white" transform="translate(73 100.914) rotate(-160.695)"/>
</clipPath>
</defs>
</svg>
