<svg width="110" height="110" viewBox="0 0 110 110" fill="none" xmlns="http://www.w3.org/2000/svg">
<rect width="110" height="110" rx="55" fill="url(#paint0_linear_10077_59023)"/>
<circle cx="49.5" cy="41.5" r="22" fill="#FB6069" stroke="#570500" stroke-width="3"/>
<path d="M39.6992 41.3347L40.3976 42.0439L39.6992 41.3347C39.2533 41.7738 39 42.3726 39 43.0003C39 43.3108 39.0621 43.6179 39.1824 43.9039C39.3027 44.1898 39.4785 44.4486 39.6992 44.6659L45.4375 50.3171C46.3622 51.2276 47.8519 51.2276 48.7765 50.3171L63.3008 36.0135C63.7467 35.5744 64 34.9756 64 34.3479C64 33.7202 63.7467 33.1214 63.3008 32.6823C62.8554 32.2437 62.2546 32 61.6313 32C61.0081 32 60.4075 32.2436 59.9622 32.6819C59.962 32.6821 59.9619 32.6822 59.9618 32.6823L47.1005 45.3353L43.0382 41.3347C42.5929 40.8961 41.992 40.6524 41.3687 40.6524C40.7454 40.6524 40.1446 40.8961 39.6992 41.3347Z" fill="white" stroke="#570500" stroke-width="2"/>
<path d="M55 52V71V74L46.5 68.5L42 71L55 84.5V91.5H77V65.5L62 62.5V53.5L58.5 50.5L55 52Z" fill="white"/>
<path d="M77 85H55V91H77V85Z" stroke="#570500" stroke-width="4" stroke-linejoin="round"/>
<path d="M55.0015 85C48.4825 77.877 44.7415 73.75 43.7795 72.616C42.3365 70.916 42.9425 68.996 46.5545 68.996C50.1665 68.996 52.2495 74.281 55.0015 74.281C55.0185 74.285 55.0195 67.526 55.0045 54.004C55.004 53.6099 55.0811 53.2195 55.2315 52.8552C55.3819 52.4909 55.6027 52.1598 55.8811 51.8808C56.1595 51.6018 56.4901 51.3804 56.8542 51.2293C57.2182 51.0782 57.6084 51.0003 58.0025 51H58.0055C58.4001 50.9999 58.7908 51.0775 59.1554 51.2284C59.52 51.3793 59.8513 51.6005 60.1303 51.8795C60.4094 52.1585 60.6307 52.4897 60.7818 52.8542C60.9328 53.2187 61.0105 53.6094 61.0105 54.004V62.014C68.9825 63.222 73.3175 63.889 74.0135 64.014C75.0585 64.202 77.0015 65.2 77.0015 68.068V85H55.0015Z" stroke="#570500" stroke-width="3" stroke-linejoin="round"/>
<defs>
<linearGradient id="paint0_linear_10077_59023" x1="55" y1="0" x2="55" y2="110" gradientUnits="userSpaceOnUse">
<stop stop-color="#FFDCD8"/>
<stop offset="1" stop-color="#FFC1BB"/>
</linearGradient>
</defs>
</svg>
