<svg width="110" height="110" viewBox="0 0 110 110" fill="none" xmlns="http://www.w3.org/2000/svg">
<rect width="110" height="110" rx="55" fill="url(#paint0_linear_10077_59005)"/>
<circle cx="55.5" cy="49.5" r="27.5" fill="#FB6069"/>
<circle cx="54.5" cy="49.5" r="23.5" fill="white"/>
<path d="M25.5 81.5L34.5 67L40.5 72L44 74.5L36 89L33 81L25.5 81.5Z" fill="#FB6069"/>
<path d="M83.5 81.5L74.5 67L68.5 72L65 74.5L73 89L76 81L83.5 81.5Z" fill="#FB6069"/>
<path fill-rule="evenodd" clip-rule="evenodd" d="M32.9502 66.8262L23.9252 82.0175C23.6715 82.4437 23.6952 82.98 23.984 83.3838C24.274 83.7875 24.774 83.9813 25.2602 83.8787L32.384 82.365L34.6365 89.2925C34.789 89.76 35.2015 90.095 35.6902 90.1475C36.179 90.2012 36.654 89.9638 36.9027 89.5387L45.0527 75.6875C48.1452 76.8587 51.4977 77.5 55.0002 77.5C58.164 77.5 61.2065 76.9762 64.0452 76.0112L71.8427 89.53C72.089 89.9575 72.564 90.2 73.0552 90.1488C73.5465 90.0975 73.9615 89.7612 74.114 89.2925L76.3665 82.365L83.4902 83.8787C83.9665 83.9787 84.4577 83.795 84.7502 83.4062C85.0415 83.0163 85.0815 82.4938 84.8515 82.065L76.8302 67.1012C80.7652 62.2612 83.1252 56.0913 83.1252 49.375C83.1252 33.8525 70.5227 21.25 55.0002 21.25C39.4777 21.25 26.8752 33.8525 26.8752 49.375C26.8752 55.9662 29.1477 62.03 32.9502 66.8262ZM34.679 68.8112L27.5327 80.84L32.9652 79.6862C33.5915 79.5537 34.2165 79.9137 34.414 80.5225L36.1565 85.8787L42.739 74.69C39.709 73.2188 36.9827 71.2188 34.679 68.8112ZM75.0565 69.0837C72.5902 71.5937 69.6577 73.6425 66.399 75.09L72.604 85.8488L74.3365 80.5225C74.534 79.9137 75.159 79.5537 75.7852 79.6862L81.3765 80.8738L75.0565 69.0837ZM55.0002 23.75C69.1427 23.75 80.6252 35.2325 80.6252 49.375C80.6252 63.5175 69.1427 75 55.0002 75C40.8577 75 29.3752 63.5175 29.3752 49.375C29.3752 35.2325 40.8577 23.75 55.0002 23.75ZM55.0002 25.34C41.7352 25.34 30.9652 36.11 30.9652 49.375C30.9652 62.64 41.7352 73.41 55.0002 73.41C68.2652 73.41 79.0352 62.64 79.0352 49.375C79.0352 36.11 68.2652 25.34 55.0002 25.34ZM55.0002 27.84C66.8865 27.84 76.5352 37.4888 76.5352 49.375C76.5352 61.2612 66.8865 70.91 55.0002 70.91C43.114 70.91 33.4652 61.2612 33.4652 49.375C33.4652 37.4888 43.114 27.84 55.0002 27.84Z" fill="#570500"/>
<path d="M51 45.5L54.5 39H55.5L58 45.5L66.5 47L61 53L62 60.5L55.5 57L48 60.5L49 53L43.5 47L51 45.5Z" fill="#FB6069"/>
<path d="M67.1602 46.6409C67.0542 46.3143 66.8545 46.026 66.5859 45.8121C66.3173 45.5982 65.9918 45.468 65.6497 45.4378L59.1539 44.8777L56.6077 38.8228C56.4751 38.505 56.2515 38.2336 55.965 38.0428C55.6785 37.8519 55.3419 37.75 54.9977 37.75C54.6534 37.75 54.3168 37.8519 54.0304 38.0428C53.7439 38.2336 53.5203 38.505 53.3877 38.8228L50.8491 44.8777L44.3456 45.441C44.0023 45.4699 43.675 45.5995 43.405 45.8136C43.1349 46.0277 42.9341 46.3167 42.8277 46.6445C42.7213 46.9723 42.714 47.3242 42.8068 47.656C42.8996 47.9879 43.0883 48.285 43.3492 48.5101L48.2831 52.8217L46.8044 59.2245C46.7262 59.5595 46.7485 59.9102 46.8685 60.2327C46.9886 60.5551 47.201 60.835 47.4792 61.0374C47.7575 61.2398 48.0892 61.3557 48.433 61.3705C48.7767 61.3854 49.1172 61.2986 49.4119 61.121L54.99 57.7304L60.5802 61.121C60.8749 61.2986 61.2154 61.3854 61.5591 61.3705C61.9029 61.3557 62.2346 61.2398 62.5128 61.0374C62.7911 60.835 63.0035 60.5551 63.1235 60.2327C63.2436 59.9102 63.2659 59.5595 63.1877 59.2245L61.71 52.8151L66.6428 48.5101C66.9038 48.2842 67.0921 47.9863 67.1841 47.6537C67.2762 47.3211 67.2679 46.9687 67.1602 46.6409ZM65.4955 47.1878L60.5627 51.4927C60.3226 51.7016 60.144 51.9719 60.0461 52.2747C59.9482 52.5774 59.9347 52.9012 60.0071 53.211L61.4891 59.6248L55.9033 56.2342C55.6308 56.0682 55.3179 55.9804 54.9988 55.9804C54.6797 55.9804 54.3668 56.0682 54.0942 56.2342L48.5161 59.6248L49.9883 53.2154C50.0607 52.9055 50.0472 52.5818 49.9493 52.2791C49.8514 51.9763 49.6728 51.706 49.4327 51.4971L44.4977 47.1943C44.4973 47.191 44.4973 47.1877 44.4977 47.1845L50.9989 46.6223C51.3163 46.5943 51.6201 46.4802 51.8774 46.2923C52.1347 46.1043 52.3358 45.8497 52.4591 45.5559L54.9977 39.5085L57.5352 45.5559C57.6584 45.8497 57.8595 46.1043 58.1169 46.2923C58.3742 46.4802 58.6779 46.5943 58.9953 46.6223L65.4977 47.1845V47.1921L65.4955 47.1878Z" fill="#570500"/>
<defs>
<linearGradient id="paint0_linear_10077_59005" x1="55" y1="0" x2="55" y2="110" gradientUnits="userSpaceOnUse">
<stop stop-color="#FFDCD8"/>
<stop offset="1" stop-color="#FFC1BB"/>
</linearGradient>
</defs>
</svg>
