<svg width="110" height="110" viewBox="0 0 110 110" fill="none" xmlns="http://www.w3.org/2000/svg">
<rect width="110" height="110" rx="55" fill="url(#paint0_linear_9132_8755)"/>
<path d="M56.2807 33L60.4186 35.9412L63.0048 33.9804L69.729 33L73.8669 35.451L76.4531 41.8235L73.3497 49.6667L65.5911 56.0392L62.4876 58H59.9014L54.2117 54.5686L46.9704 47.2157L46.4531 38.3922L50.0738 33.4902L56.2807 33Z" fill="#FFA979"/>
<path d="M61.4531 36.2495L60.6431 37.0295C60.7481 37.1384 60.8739 37.225 61.0131 37.2841C61.1522 37.3433 61.3019 37.3738 61.4531 37.3738C61.6043 37.3738 61.754 37.3433 61.8932 37.2841C62.0324 37.225 62.1582 37.1384 62.2631 37.0295L61.4531 36.2495ZM57.5921 55.4825C55.3181 53.69 52.8326 51.9395 50.8601 49.7195C48.9281 47.5415 47.5781 45.0005 47.5781 41.705H45.3281C45.3281 45.704 46.9931 48.755 49.1786 51.2135C51.3236 53.6285 54.0596 55.5635 56.1986 57.2495L57.5936 55.4825H57.5921ZM47.5781 41.705C47.5781 38.48 49.4006 35.774 51.8891 34.6355C54.3071 33.53 57.5561 33.8225 60.6431 37.0295L62.2631 35.471C58.6031 31.6655 54.3491 31.037 50.9531 32.5895C47.6321 34.109 45.3281 37.637 45.3281 41.705H47.5781ZM56.1986 57.2495C56.9681 57.8555 57.7931 58.5005 58.6286 58.9895C59.4641 59.477 60.4181 59.8745 61.4531 59.8745V57.6245C60.9881 57.6245 60.4421 57.4445 59.7641 57.047C59.0846 56.651 58.3811 56.105 57.5921 55.4825L56.1986 57.2495ZM66.7076 57.2495C68.8466 55.562 71.5826 53.63 73.7276 51.2135C75.9131 48.7535 77.5781 45.704 77.5781 41.705H75.3281C75.3281 45.0005 73.9781 47.5415 72.0461 49.7195C70.0736 51.9395 67.5881 53.69 65.3141 55.4825L66.7076 57.2495ZM77.5781 41.705C77.5781 37.637 75.2756 34.109 71.9531 32.5895C68.5571 31.037 64.3061 31.6655 60.6431 35.4695L62.2631 37.0295C65.3501 33.824 68.5991 33.53 71.0171 34.6355C73.5056 35.774 75.3281 38.4785 75.3281 41.705H77.5781ZM65.3141 55.4825C64.5251 56.105 63.8216 56.651 63.1421 57.047C62.4641 57.443 61.9181 57.6245 61.4531 57.6245V59.8745C62.4881 59.8745 63.4421 59.477 64.2776 58.9895C65.1146 58.5005 65.9381 57.8555 66.7076 57.2495L65.3141 55.4825Z" fill="#6A0600"/>
<path d="M46.6631 62.3945L31.4258 62.9806V78.2179H38.4584L60.1423 85.8365H63.6586L87.1006 71.7713V70.5992L83.5843 67.669L77.7238 69.4271L63.0725 72.9434L46.6631 62.3945Z" fill="white"/>
<rect x="22.6328" y="61.2227" width="8.20471" height="18.7536" fill="#FFA979"/>
<path fill-rule="evenodd" clip-rule="evenodd" d="M44.0413 61.0277C44.0402 61.0329 44.039 61.0381 44.0378 61.0434C42.8267 60.8774 41.5999 60.8589 40.3844 60.9883L32.032 61.8802V61.1711C32.032 60.8603 31.9085 60.5621 31.6887 60.3423C31.4689 60.1225 31.1708 59.999 30.8599 59.999H23.2776C22.9667 59.999 22.6686 60.1225 22.4488 60.3423C22.229 60.5621 22.1055 60.8603 22.1055 61.1711V80.3127C22.1055 80.6236 22.229 80.9217 22.4488 81.1415C22.6686 81.3613 22.9667 81.4848 23.2776 81.4848H30.8599C31.1708 81.4848 31.4689 81.3613 31.6887 81.1415C31.9085 80.9217 32.032 80.6236 32.032 80.3127V79.2168H38.3906L57.885 86.5401C59.431 87.1226 61.0888 87.3477 62.7341 87.1988C64.3795 87.0498 65.9698 86.5305 67.3861 85.6798L87.8697 72.7093C88.1161 72.5535 88.3257 72.3462 88.4843 72.1016C88.643 71.8571 88.7467 71.5811 88.7885 71.2926C88.8302 71.0042 88.809 70.7101 88.7263 70.4306C88.6436 70.1511 88.5013 69.8928 88.3092 69.6735C87.4929 68.7405 86.494 67.9889 85.3775 67.4632L82.3874 66.6089C82.3287 66.5922 82.271 66.5729 82.2142 66.5511C82.1965 66.5719 82.1785 66.5926 82.1604 66.6132C80.922 66.5222 79.6782 66.6882 78.507 67.1008L63.6623 72.3741C63.2542 71.5647 62.6267 70.8864 61.8514 70.4167L49.8397 63.0981C48.7758 62.4532 47.6362 61.9427 46.447 61.5781L45.0111 61.3388C44.6738 61.2826 44.3472 61.1776 44.0413 61.0277ZM29.6878 79.1406V63.1742V62.3374H24.4497V79.1406H29.6878ZM62.5104 84.8619C63.8008 84.7472 65.0485 84.342 66.1601 83.6766L86.2839 70.9312C85.3967 70.0186 84.2656 69.3805 83.0257 69.093C81.7858 68.8056 80.4893 68.881 79.2911 69.3102L64.1839 74.6761C64.1655 75.4609 63.9574 76.2296 63.5774 76.9166C63.1974 77.6036 62.6569 78.1884 62.0019 78.6212C61.3468 79.054 60.5968 79.3218 59.8159 79.4018C59.0349 79.4819 58.2462 79.3717 57.517 79.0808L45.9132 74.4381L46.7841 72.2615L58.3879 76.9042C58.9739 77.1396 59.6269 77.1461 60.2175 76.9223C60.808 76.6986 61.2929 76.261 61.5757 75.6964C61.8586 75.1318 61.9189 74.4815 61.7446 73.8745C61.5703 73.2675 61.1741 72.7482 60.6348 72.4198L48.6196 65.1035C46.2242 63.6519 43.4198 63.0234 40.634 63.3137L32.032 64.2315V76.8726H38.6051C38.746 76.8724 38.8857 76.8974 39.0177 76.9464L58.709 84.3389C59.9205 84.7978 61.2201 84.9766 62.5104 84.8619Z" fill="#6A0600"/>
<path d="M60.4531 41.5V44.5V45H56.9531V47H60.4531V50.5H62.4531V47H65.9531V45H62.4531V41.5H60.4531Z" fill="white"/>
<path fill-rule="evenodd" clip-rule="evenodd" d="M59.4531 41.3333C59.4531 40.9797 59.5936 40.6406 59.8436 40.3905C60.0937 40.1405 60.4328 40 60.7865 40H62.1198C62.4734 40 62.8126 40.1405 63.0626 40.3905C63.3126 40.6406 63.4531 40.9797 63.4531 41.3333V44H66.1198C66.4734 44 66.8126 44.1405 67.0626 44.3905C67.3126 44.6406 67.4531 44.9797 67.4531 45.3333V46.6667C67.4531 47.0203 67.3126 47.3594 67.0626 47.6095C66.8126 47.8595 66.4734 48 66.1198 48H63.4531V50.6667C63.4531 51.0203 63.3126 51.3594 63.0626 51.6095C62.8126 51.8595 62.4734 52 62.1198 52H60.7865C60.4328 52 60.0937 51.8595 59.8436 51.6095C59.5936 51.3594 59.4531 51.0203 59.4531 50.6667V48H56.7865C56.4328 48 56.0937 47.8595 55.8436 47.6095C55.5936 47.3594 55.4531 47.0203 55.4531 46.6667V45.3333C55.4531 44.9797 55.5936 44.6406 55.8436 44.3905C56.0937 44.1405 56.4328 44 56.7865 44H59.4531V41.3333ZM62.1198 41.3333H60.7865V44.6667C60.7865 44.8435 60.7162 45.013 60.5912 45.1381C60.4662 45.2631 60.2966 45.3333 60.1198 45.3333H56.7865V46.6667H60.1198C60.2966 46.6667 60.4662 46.7369 60.5912 46.8619C60.7162 46.987 60.7865 47.1565 60.7865 47.3333V50.6667H62.1198V47.3333C62.1198 47.1565 62.19 46.987 62.3151 46.8619C62.4401 46.7369 62.6096 46.6667 62.7865 46.6667H66.1198V45.3333H62.7865C62.6096 45.3333 62.4401 45.2631 62.3151 45.1381C62.19 45.013 62.1198 44.8435 62.1198 44.6667V41.3333Z" fill="#6A0600"/>
<defs>
<linearGradient id="paint0_linear_9132_8755" x1="55" y1="0" x2="55" y2="110" gradientUnits="userSpaceOnUse">
<stop stop-color="#FFEBE0"/>
<stop offset="1" stop-color="#FFD0B6"/>
</linearGradient>
</defs>
</svg>
