<svg width="723" height="281" viewBox="0 0 723 281" fill="none" xmlns="http://www.w3.org/2000/svg">
<path d="M251.848 210.6V261H247.456L218.728 217.656V261H214.336V210.6H218.728L247.456 253.872V210.6H251.848ZM287.147 261L286.859 253.368C285.851 255.96 284.267 257.976 282.107 259.416C279.995 260.808 277.307 261.504 274.043 261.504C271.451 261.504 269.243 261.12 267.419 260.352C265.595 259.536 264.179 258.384 263.171 256.896C262.211 255.408 261.731 253.632 261.731 251.568C261.731 248.544 262.859 246.096 265.115 244.224C267.371 242.304 270.731 241.128 275.195 240.696L286.859 239.4V236.376C286.859 233.88 286.019 231.936 284.339 230.544C282.707 229.104 280.427 228.384 277.499 228.384C274.715 228.384 272.387 229.032 270.515 230.328C268.691 231.624 267.467 233.472 266.843 235.872L263.099 234.576C264.011 231.36 265.715 228.888 268.211 227.16C270.707 225.384 273.827 224.496 277.571 224.496C281.795 224.496 285.083 225.552 287.435 227.664C289.787 229.776 290.963 232.68 290.963 236.376V261H287.147ZM286.859 242.928L275.123 244.296C272.051 244.632 269.771 245.4 268.283 246.6C266.843 247.752 266.123 249.336 266.123 251.352C266.123 253.368 266.819 254.952 268.211 256.104C269.651 257.256 271.691 257.832 274.331 257.832C277.115 257.832 279.419 257.28 281.243 256.176C283.115 255.024 284.507 253.464 285.419 251.496C286.379 249.48 286.859 247.224 286.859 244.728V242.928ZM304.308 225V214.92H308.412V225H318.492V228.816H308.412V250.056C308.412 252.168 308.892 253.8 309.852 254.952C310.86 256.104 312.132 256.848 313.668 257.184C315.204 257.472 316.812 257.472 318.492 257.184V260.712C316.764 261.144 315.036 261.264 313.308 261.072C311.628 260.88 310.092 260.352 308.7 259.488C307.356 258.576 306.276 257.352 305.46 255.816C304.692 254.28 304.308 252.36 304.308 250.056V228.816H298.692V225H304.308ZM355.909 261H352.093L351.877 254.592C350.869 256.8 349.381 258.504 347.413 259.704C345.445 260.904 342.997 261.504 340.069 261.504C337.381 261.504 334.981 260.952 332.869 259.848C330.805 258.696 329.197 256.968 328.045 254.664C326.893 252.312 326.317 249.36 326.317 245.808V225H330.349V245.448C330.349 249.528 331.237 252.6 333.013 254.664C334.837 256.68 337.405 257.688 340.717 257.688C344.125 257.688 346.813 256.584 348.781 254.376C350.797 252.168 351.805 248.808 351.805 244.296V225H355.909V261ZM367.323 225H371.139L371.355 231.408C372.171 229.92 373.275 228.624 374.667 227.52C376.059 226.416 377.643 225.624 379.419 225.144C381.195 224.664 383.139 224.616 385.251 225V229.104C383.187 228.672 381.315 228.696 379.635 229.176C377.955 229.608 376.491 230.4 375.243 231.552C374.043 232.704 373.107 234.144 372.435 235.872C371.763 237.6 371.427 239.568 371.427 241.776V261H367.323V225ZM416.1 261L415.812 253.368C414.804 255.96 413.22 257.976 411.06 259.416C408.948 260.808 406.26 261.504 402.996 261.504C400.404 261.504 398.196 261.12 396.372 260.352C394.548 259.536 393.132 258.384 392.124 256.896C391.164 255.408 390.684 253.632 390.684 251.568C390.684 248.544 391.812 246.096 394.068 244.224C396.324 242.304 399.684 241.128 404.148 240.696L415.812 239.4V236.376C415.812 233.88 414.972 231.936 413.292 230.544C411.66 229.104 409.38 228.384 406.452 228.384C403.668 228.384 401.34 229.032 399.468 230.328C397.644 231.624 396.42 233.472 395.796 235.872L392.052 234.576C392.964 231.36 394.668 228.888 397.164 227.16C399.66 225.384 402.78 224.496 406.524 224.496C410.748 224.496 414.036 225.552 416.388 227.664C418.74 229.776 419.916 232.68 419.916 236.376V261H416.1ZM415.812 242.928L404.076 244.296C401.004 244.632 398.724 245.4 397.236 246.6C395.796 247.752 395.076 249.336 395.076 251.352C395.076 253.368 395.772 254.952 397.164 256.104C398.604 257.256 400.644 257.832 403.284 257.832C406.068 257.832 408.372 257.28 410.196 256.176C412.068 255.024 413.46 253.464 414.372 251.496C415.332 249.48 415.812 247.224 415.812 244.728V242.928ZM430.885 209.376H434.989V261H430.885V209.376ZM446.424 209.376H450.528V261H446.424V209.376ZM486.515 225H490.763L470.531 275.4H466.499L472.475 260.64L457.643 225H462.107L474.635 255.816L486.515 225ZM498.467 210.6H503.219L502.715 248.04H498.971L498.467 210.6ZM501.059 261.216C500.147 261.216 499.403 260.904 498.827 260.28C498.251 259.656 497.963 258.888 497.963 257.976C497.963 257.064 498.251 256.296 498.827 255.672C499.403 255.048 500.147 254.736 501.059 254.736C501.971 254.736 502.715 255.048 503.291 255.672C503.915 256.296 504.227 257.064 504.227 257.976C504.227 258.888 503.915 259.656 503.291 260.28C502.715 260.904 501.971 261.216 501.059 261.216Z" fill="#1E140F"/>
<path d="M208 270H509.987V273.6H208V270Z" fill="#1E140F"/>
<path d="M150.184 30.6H154.576V53.352H183.304V30.6H187.696V81H183.304V57.168H154.576V81H150.184V30.6ZM222.995 81L222.707 73.368C221.699 75.96 220.115 77.976 217.955 79.416C215.843 80.808 213.155 81.504 209.891 81.504C207.299 81.504 205.091 81.12 203.267 80.352C201.443 79.536 200.027 78.384 199.019 76.896C198.059 75.408 197.579 73.632 197.579 71.568C197.579 68.544 198.707 66.096 200.963 64.224C203.219 62.304 206.579 61.128 211.043 60.696L222.707 59.4V56.376C222.707 53.88 221.867 51.936 220.187 50.544C218.555 49.104 216.275 48.384 213.347 48.384C210.563 48.384 208.235 49.032 206.363 50.328C204.539 51.624 203.315 53.472 202.691 55.872L198.947 54.576C199.859 51.36 201.563 48.888 204.059 47.16C206.555 45.384 209.675 44.496 213.419 44.496C217.643 44.496 220.931 45.552 223.283 47.664C225.635 49.776 226.811 52.68 226.811 56.376V81H222.995ZM222.707 62.928L210.971 64.296C207.899 64.632 205.619 65.4 204.131 66.6C202.691 67.752 201.971 69.336 201.971 71.352C201.971 73.368 202.667 74.952 204.059 76.104C205.499 77.256 207.539 77.832 210.179 77.832C212.963 77.832 215.267 77.28 217.091 76.176C218.963 75.024 220.355 73.464 221.267 71.496C222.227 69.48 222.707 67.224 222.707 64.728V62.928ZM241.524 72.648L241.884 72.504V95.4H237.78V45H241.596L241.884 52.92C242.892 50.568 244.524 48.576 246.78 46.944C249.084 45.312 252.012 44.496 255.564 44.496C258.78 44.496 261.636 45.264 264.132 46.8C266.628 48.288 268.572 50.424 269.964 53.208C271.404 55.944 272.124 59.208 272.124 63C272.124 66.744 271.428 70.008 270.036 72.792C268.692 75.528 266.772 77.664 264.276 79.2C261.828 80.736 258.924 81.504 255.564 81.504C251.916 81.504 248.892 80.664 246.492 78.984C244.14 77.256 242.484 75.144 241.524 72.648ZM267.732 63C267.732 58.488 266.556 54.912 264.204 52.272C261.852 49.632 258.708 48.312 254.772 48.312C252.276 48.312 250.044 48.912 248.076 50.112C246.108 51.312 244.572 53.016 243.468 55.224C242.412 57.384 241.884 59.976 241.884 63C241.884 65.976 242.436 68.568 243.54 70.776C244.644 72.984 246.156 74.688 248.076 75.888C250.044 77.088 252.3 77.688 254.844 77.688C258.78 77.688 261.9 76.368 264.204 73.728C266.556 71.088 267.732 67.512 267.732 63ZM284.977 72.648L285.337 72.504V95.4H281.233V45H285.049L285.337 52.92C286.345 50.568 287.977 48.576 290.233 46.944C292.537 45.312 295.465 44.496 299.017 44.496C302.233 44.496 305.089 45.264 307.585 46.8C310.081 48.288 312.025 50.424 313.417 53.208C314.857 55.944 315.577 59.208 315.577 63C315.577 66.744 314.881 70.008 313.489 72.792C312.145 75.528 310.225 77.664 307.729 79.2C305.281 80.736 302.377 81.504 299.017 81.504C295.369 81.504 292.345 80.664 289.945 78.984C287.593 77.256 285.937 75.144 284.977 72.648ZM311.185 63C311.185 58.488 310.009 54.912 307.657 52.272C305.305 49.632 302.161 48.312 298.225 48.312C295.729 48.312 293.497 48.912 291.529 50.112C289.561 51.312 288.025 53.016 286.921 55.224C285.865 57.384 285.337 59.976 285.337 63C285.337 65.976 285.889 68.568 286.993 70.776C288.097 72.984 289.609 74.688 291.529 75.888C293.497 77.088 295.753 77.688 298.297 77.688C302.233 77.688 305.353 76.368 307.657 73.728C310.009 71.088 311.185 67.512 311.185 63ZM348.535 45H352.783L332.551 95.4H328.519L334.495 80.64L319.663 45H324.127L336.655 75.816L348.535 45ZM411.554 43.92C411.554 41.136 410.618 38.856 408.746 37.08C406.874 35.304 404.018 34.416 400.178 34.416H385.13V53.352H400.466C404.066 53.352 406.802 52.512 408.674 50.832C410.594 49.104 411.554 46.8 411.554 43.92ZM380.738 81V30.6H400.538C404.09 30.6 406.994 31.2 409.25 32.4C411.506 33.552 413.162 35.088 414.218 37.008C415.322 38.928 415.874 41.064 415.874 43.416C415.874 45.768 415.442 47.736 414.578 49.32C413.714 50.904 412.562 52.152 411.122 53.064C409.73 53.976 408.194 54.6 406.514 54.936V55.368C408.53 55.656 410.33 56.328 411.914 57.384C413.498 58.392 414.746 59.76 415.658 61.488C416.618 63.168 417.098 65.184 417.098 67.536C417.098 70.032 416.474 72.312 415.226 74.376C414.026 76.392 412.226 78 409.826 79.2C407.426 80.4 404.45 81 400.898 81H380.738ZM385.13 77.184H400.61C404.45 77.184 407.426 76.32 409.538 74.592C411.698 72.816 412.778 70.344 412.778 67.176C412.778 64.008 411.65 61.56 409.394 59.832C407.186 58.056 404.186 57.168 400.394 57.168H385.13V77.184ZM428.069 45H432.101V81H428.069V45ZM430.157 36.936C429.245 36.936 428.501 36.648 427.925 36.072C427.349 35.496 427.061 34.776 427.061 33.912C427.061 33 427.349 32.256 427.925 31.68C428.501 31.104 429.245 30.816 430.157 30.816C430.973 30.816 431.669 31.104 432.245 31.68C432.869 32.256 433.181 33 433.181 33.912C433.181 34.776 432.869 35.496 432.245 36.072C431.669 36.648 430.973 36.936 430.157 36.936ZM444.639 45H448.455L448.671 51.408C449.487 49.92 450.591 48.624 451.983 47.52C453.375 46.416 454.959 45.624 456.735 45.144C458.511 44.664 460.455 44.616 462.567 45V49.104C460.503 48.672 458.631 48.696 456.951 49.176C455.271 49.608 453.807 50.4 452.559 51.552C451.359 52.704 450.423 54.144 449.751 55.872C449.079 57.6 448.743 59.568 448.743 61.776V81H444.639V45ZM497.826 53.352L497.466 53.496V29.16H501.57V81H497.754L497.466 73.08C496.458 75.432 494.778 77.424 492.426 79.056C490.122 80.688 487.242 81.504 483.786 81.504C480.474 81.504 477.57 80.76 475.074 79.272C472.578 77.736 470.634 75.576 469.242 72.792C467.898 70.008 467.226 66.744 467.226 63C467.226 59.256 467.898 56.016 469.242 53.28C470.634 50.496 472.578 48.336 475.074 46.8C477.57 45.264 480.474 44.496 483.786 44.496C487.434 44.496 490.434 45.36 492.786 47.088C495.138 48.768 496.818 50.856 497.826 53.352ZM471.618 63C471.618 67.512 472.77 71.088 475.074 73.728C477.426 76.368 480.594 77.688 484.578 77.688C487.074 77.688 489.282 77.088 491.202 75.888C493.17 74.688 494.706 73.008 495.81 70.848C496.914 68.64 497.466 66.024 497.466 63C497.466 59.976 496.914 57.384 495.81 55.224C494.706 53.016 493.17 51.312 491.202 50.112C489.282 48.912 487.074 48.312 484.578 48.312C480.594 48.312 477.426 49.632 475.074 52.272C472.77 54.912 471.618 58.488 471.618 63ZM514.567 70.488C514.903 72.072 515.455 73.392 516.223 74.448C517.039 75.504 518.119 76.296 519.463 76.824C520.807 77.352 522.415 77.616 524.287 77.616C527.263 77.616 529.495 77.04 530.983 75.888C532.519 74.688 533.287 73.2 533.287 71.424C533.287 69.936 532.831 68.76 531.919 67.896C531.055 67.032 529.903 66.336 528.463 65.808C527.023 65.28 525.463 64.824 523.783 64.44C522.631 64.152 521.335 63.816 519.895 63.432C518.455 63.048 517.063 62.52 515.719 61.848C514.423 61.128 513.343 60.216 512.479 59.112C511.663 57.96 511.255 56.448 511.255 54.576C511.255 52.56 511.807 50.808 512.911 49.32C514.015 47.784 515.527 46.608 517.447 45.792C519.415 44.928 521.647 44.496 524.143 44.496C527.119 44.496 529.759 45.144 532.063 46.44C534.367 47.736 535.951 49.8 536.815 52.632L532.999 53.928C532.567 52.392 531.847 51.24 530.839 50.472C529.879 49.656 528.799 49.104 527.599 48.816C526.399 48.528 525.223 48.384 524.071 48.384C521.527 48.384 519.487 48.912 517.951 49.968C516.415 50.976 515.647 52.44 515.647 54.36C515.647 55.464 515.911 56.376 516.439 57.096C516.967 57.816 517.663 58.392 518.527 58.824C519.439 59.256 520.471 59.616 521.623 59.904C522.775 60.192 523.975 60.48 525.223 60.768C526.615 61.104 528.031 61.512 529.471 61.992C530.911 62.472 532.255 63.096 533.503 63.864C534.751 64.632 535.759 65.616 536.527 66.816C537.295 68.016 537.679 69.528 537.679 71.352C537.679 73.416 537.103 75.216 535.951 76.752C534.847 78.288 533.287 79.464 531.271 80.28C529.303 81.096 526.975 81.504 524.287 81.504C520.639 81.504 517.639 80.712 515.287 79.128C512.983 77.496 511.447 75.048 510.679 71.784L514.567 70.488ZM549.323 72.936H554.219L547.019 91.656H543.923L549.323 72.936ZM10.7877 158.904C11.1237 160.248 11.7717 161.592 12.7317 162.936C13.6917 164.28 15.0357 165.408 16.7637 166.32C18.5397 167.184 20.8437 167.616 23.6757 167.616C27.6597 167.616 30.6117 166.704 32.5317 164.88C34.4517 163.056 35.4117 160.8 35.4117 158.112C35.4117 156.048 34.8597 154.344 33.7557 153C32.6997 151.656 31.2357 150.552 29.3637 149.688C27.5397 148.824 25.4757 148.056 23.1717 147.384C21.2037 146.856 19.2837 146.28 17.4117 145.656C15.5877 144.984 13.9317 144.168 12.4437 143.208C10.9557 142.248 9.77972 141.024 8.91572 139.536C8.05172 138 7.61972 136.104 7.61972 133.848C7.61972 131.064 8.26772 128.664 9.56372 126.648C10.8597 124.584 12.6837 122.976 15.0357 121.824C17.4357 120.672 20.2437 120.096 23.4597 120.096C26.2917 120.096 28.7397 120.528 30.8037 121.392C32.8677 122.208 34.5717 123.36 35.9157 124.848C37.2597 126.288 38.2197 127.896 38.7957 129.672L34.9797 131.112C34.5957 130.008 33.8997 128.904 32.8917 127.8C31.9317 126.648 30.6357 125.712 29.0037 124.992C27.4197 124.224 25.5237 123.84 23.3157 123.84C21.2517 123.84 19.3557 124.224 17.6277 124.992C15.8997 125.712 14.5077 126.792 13.4517 128.232C12.4437 129.624 11.9397 131.304 11.9397 133.272C11.9397 135.384 12.5157 137.064 13.6677 138.312C14.8197 139.512 16.3317 140.496 18.2037 141.264C20.1237 141.984 22.2357 142.68 24.5397 143.352C26.5077 143.976 28.4037 144.648 30.2277 145.368C32.0997 146.088 33.7317 146.976 35.1237 148.032C36.5637 149.088 37.6917 150.408 38.5077 151.992C39.3717 153.528 39.8037 155.424 39.8037 157.68C39.8037 160.128 39.2277 162.408 38.0757 164.52C36.9717 166.632 35.2437 168.336 32.8917 169.632C30.5397 170.88 27.4917 171.504 23.7477 171.504C20.5317 171.504 17.7477 171.024 15.3957 170.064C13.0917 169.056 11.2197 167.736 9.77972 166.104C8.33972 164.424 7.35572 162.552 6.82772 160.488L10.7877 158.904ZM78.4283 171H74.6123L74.3963 164.592C73.3883 166.8 71.9003 168.504 69.9323 169.704C67.9643 170.904 65.5163 171.504 62.5883 171.504C59.9003 171.504 57.5003 170.952 55.3883 169.848C53.3243 168.696 51.7163 166.968 50.5643 164.664C49.4123 162.312 48.8363 159.36 48.8363 155.808V135H52.8683V155.448C52.8683 159.528 53.7563 162.6 55.5323 164.664C57.3563 166.68 59.9243 167.688 63.2363 167.688C66.6443 167.688 69.3323 166.584 71.3003 164.376C73.3163 162.168 74.3243 158.808 74.3243 154.296V135H78.4283V171ZM93.586 162.648L93.946 162.504V185.4H89.842V135H93.658L93.946 142.92C94.954 140.568 96.586 138.576 98.842 136.944C101.146 135.312 104.074 134.496 107.626 134.496C110.842 134.496 113.698 135.264 116.194 136.8C118.69 138.288 120.634 140.424 122.026 143.208C123.466 145.944 124.186 149.208 124.186 153C124.186 156.744 123.49 160.008 122.098 162.792C120.754 165.528 118.834 167.664 116.338 169.2C113.89 170.736 110.986 171.504 107.626 171.504C103.978 171.504 100.954 170.664 98.554 168.984C96.202 167.256 94.546 165.144 93.586 162.648ZM119.794 153C119.794 148.488 118.618 144.912 116.266 142.272C113.914 139.632 110.77 138.312 106.834 138.312C104.338 138.312 102.106 138.912 100.138 140.112C98.17 141.312 96.634 143.016 95.53 145.224C94.474 147.384 93.946 149.976 93.946 153C93.946 155.976 94.498 158.568 95.602 160.776C96.706 162.984 98.218 164.688 100.138 165.888C102.106 167.088 104.362 167.688 106.906 167.688C110.842 167.688 113.962 166.368 116.266 163.728C118.618 161.088 119.794 157.512 119.794 153ZM148.055 171.504C144.695 171.504 141.719 170.712 139.127 169.128C136.583 167.496 134.591 165.264 133.151 162.432C131.711 159.6 130.991 156.336 130.991 152.64C130.991 149.136 131.711 146.016 133.151 143.28C134.639 140.544 136.655 138.408 139.199 136.872C141.743 135.288 144.647 134.496 147.911 134.496C151.127 134.496 153.983 135.216 156.479 136.656C159.023 138.048 160.991 139.992 162.383 142.488C163.823 144.936 164.519 147.744 164.471 150.912C164.471 151.392 164.447 151.92 164.399 152.496C164.399 153.024 164.375 153.6 164.327 154.224H135.455C135.503 156.864 136.079 159.192 137.183 161.208C138.287 163.224 139.751 164.808 141.575 165.96C143.447 167.064 145.559 167.616 147.911 167.616C150.887 167.616 153.431 167.016 155.543 165.816C157.703 164.568 159.263 162.816 160.223 160.56L163.751 162C162.407 165.072 160.367 167.424 157.631 169.056C154.895 170.688 151.703 171.504 148.055 171.504ZM160.007 150.624C160.055 148.224 159.575 146.112 158.567 144.288C157.559 142.464 156.119 141.024 154.247 139.968C152.423 138.912 150.263 138.384 147.767 138.384C145.559 138.384 143.567 138.912 141.791 139.968C140.015 141.024 138.551 142.488 137.399 144.36C136.295 146.184 135.647 148.272 135.455 150.624H160.007ZM173.655 135H177.471L177.687 141.408C178.503 139.92 179.607 138.624 180.999 137.52C182.391 136.416 183.975 135.624 185.751 135.144C187.527 134.664 189.471 134.616 191.583 135V139.104C189.519 138.672 187.647 138.696 185.967 139.176C184.287 139.608 182.823 140.4 181.575 141.552C180.375 142.704 179.439 144.144 178.767 145.872C178.095 147.6 177.759 149.568 177.759 151.776V171H173.655V135ZM200.256 135H204.288V171H200.256V135ZM202.344 126.936C201.432 126.936 200.688 126.648 200.112 126.072C199.536 125.496 199.248 124.776 199.248 123.912C199.248 123 199.536 122.256 200.112 121.68C200.688 121.104 201.432 120.816 202.344 120.816C203.16 120.816 203.856 121.104 204.432 121.68C205.056 122.256 205.368 123 205.368 123.912C205.368 124.776 205.056 125.496 204.432 126.072C203.856 126.648 203.16 126.936 202.344 126.936ZM232.09 171.504C228.73 171.504 225.706 170.76 223.018 169.272C220.378 167.784 218.29 165.672 216.754 162.936C215.266 160.152 214.522 156.864 214.522 153.072C214.522 149.232 215.29 145.92 216.826 143.136C218.362 140.352 220.45 138.216 223.09 136.728C225.778 135.24 228.826 134.496 232.234 134.496C235.594 134.496 238.594 135.24 241.234 136.728C243.922 138.216 246.034 140.352 247.57 143.136C249.106 145.872 249.874 149.136 249.874 152.928C249.874 156.768 249.082 160.08 247.498 162.864C245.962 165.648 243.85 167.784 241.162 169.272C238.522 170.76 235.498 171.504 232.09 171.504ZM232.09 167.616C234.394 167.616 236.554 167.112 238.57 166.104C240.634 165.048 242.29 163.44 243.538 161.28C244.834 159.12 245.482 156.36 245.482 153C245.482 149.64 244.834 146.88 243.538 144.72C242.29 142.56 240.658 140.976 238.642 139.968C236.626 138.912 234.466 138.384 232.162 138.384C229.858 138.384 227.698 138.912 225.682 139.968C223.666 140.976 222.034 142.56 220.786 144.72C219.538 146.88 218.914 149.64 218.914 153C218.914 156.36 219.538 159.12 220.786 161.28C222.034 163.44 223.642 165.048 225.61 166.104C227.626 167.112 229.786 167.616 232.09 167.616ZM259.084 135H262.9L263.116 141.408C263.932 139.92 265.036 138.624 266.428 137.52C267.82 136.416 269.404 135.624 271.18 135.144C272.956 134.664 274.9 134.616 277.012 135V139.104C274.948 138.672 273.076 138.696 271.396 139.176C269.716 139.608 268.252 140.4 267.004 141.552C265.804 142.704 264.868 144.144 264.196 145.872C263.524 147.6 263.188 149.568 263.188 151.776V171H259.084V135ZM322.354 146.088C325.33 146.088 327.73 145.632 329.554 144.72C331.426 143.808 332.77 142.536 333.586 140.904C334.45 139.272 334.882 137.4 334.882 135.288C334.882 131.88 333.898 129.216 331.93 127.296C330.01 125.376 326.818 124.416 322.354 124.416H309.826V146.088H322.354ZM339.202 135.288C339.202 137.352 338.866 139.296 338.194 141.12C337.522 142.896 336.49 144.456 335.098 145.8C333.706 147.096 331.954 148.128 329.842 148.896C327.73 149.616 325.234 149.976 322.354 149.976H309.826V171H305.434V120.6H322.354C326.338 120.6 329.554 121.248 332.002 122.544C334.45 123.84 336.25 125.592 337.402 127.8C338.602 130.008 339.202 132.504 339.202 135.288ZM360.329 171.504C356.969 171.504 353.993 170.712 351.401 169.128C348.857 167.496 346.865 165.264 345.425 162.432C343.985 159.6 343.265 156.336 343.265 152.64C343.265 149.136 343.985 146.016 345.425 143.28C346.913 140.544 348.929 138.408 351.473 136.872C354.017 135.288 356.921 134.496 360.185 134.496C363.401 134.496 366.257 135.216 368.753 136.656C371.297 138.048 373.265 139.992 374.657 142.488C376.097 144.936 376.793 147.744 376.745 150.912C376.745 151.392 376.721 151.92 376.673 152.496C376.673 153.024 376.649 153.6 376.601 154.224H347.729C347.777 156.864 348.353 159.192 349.457 161.208C350.561 163.224 352.025 164.808 353.849 165.96C355.721 167.064 357.833 167.616 360.185 167.616C363.161 167.616 365.705 167.016 367.817 165.816C369.977 164.568 371.537 162.816 372.497 160.56L376.025 162C374.681 165.072 372.641 167.424 369.905 169.056C367.169 170.688 363.977 171.504 360.329 171.504ZM372.281 150.624C372.329 148.224 371.849 146.112 370.841 144.288C369.833 142.464 368.393 141.024 366.521 139.968C364.697 138.912 362.537 138.384 360.041 138.384C357.833 138.384 355.841 138.912 354.065 139.968C352.289 141.024 350.825 142.488 349.673 144.36C348.569 146.184 347.921 148.272 347.729 150.624H372.281ZM385.928 135H389.744L389.96 141.408C390.776 139.92 391.88 138.624 393.272 137.52C394.664 136.416 396.248 135.624 398.024 135.144C399.8 134.664 401.744 134.616 403.856 135V139.104C401.792 138.672 399.92 138.696 398.24 139.176C396.56 139.608 395.096 140.4 393.848 141.552C392.648 142.704 391.712 144.144 391.04 145.872C390.368 147.6 390.032 149.568 390.032 151.776V171H385.928V135ZM413.754 130.536C413.754 127.992 414.162 125.832 414.978 124.056C415.794 122.232 417.114 120.912 418.938 120.096C420.81 119.232 423.282 118.92 426.354 119.16V122.904C423.138 122.664 420.906 123.216 419.658 124.56C418.458 125.856 417.858 127.848 417.858 130.536V135H426.57V138.888H417.858V171H413.754V138.888H408.282V135H413.754V130.536ZM449.497 171.504C446.137 171.504 443.113 170.76 440.425 169.272C437.785 167.784 435.697 165.672 434.161 162.936C432.673 160.152 431.929 156.864 431.929 153.072C431.929 149.232 432.697 145.92 434.233 143.136C435.769 140.352 437.857 138.216 440.497 136.728C443.185 135.24 446.233 134.496 449.641 134.496C453.001 134.496 456.001 135.24 458.641 136.728C461.329 138.216 463.441 140.352 464.977 143.136C466.513 145.872 467.281 149.136 467.281 152.928C467.281 156.768 466.489 160.08 464.905 162.864C463.369 165.648 461.257 167.784 458.569 169.272C455.929 170.76 452.905 171.504 449.497 171.504ZM449.497 167.616C451.801 167.616 453.961 167.112 455.977 166.104C458.041 165.048 459.697 163.44 460.945 161.28C462.241 159.12 462.889 156.36 462.889 153C462.889 149.64 462.241 146.88 460.945 144.72C459.697 142.56 458.065 140.976 456.049 139.968C454.033 138.912 451.873 138.384 449.569 138.384C447.265 138.384 445.105 138.912 443.089 139.968C441.073 140.976 439.441 142.56 438.193 144.72C436.945 146.88 436.321 149.64 436.321 153C436.321 156.36 436.945 159.12 438.193 161.28C439.441 163.44 441.049 165.048 443.017 166.104C445.033 167.112 447.193 167.616 449.497 167.616ZM476.49 135H480.306L480.522 141.408C481.338 139.92 482.442 138.624 483.834 137.52C485.226 136.416 486.81 135.624 488.586 135.144C490.362 134.664 492.306 134.616 494.418 135V139.104C492.354 138.672 490.482 138.696 488.802 139.176C487.122 139.608 485.658 140.4 484.41 141.552C483.21 142.704 482.274 144.144 481.602 145.872C480.93 147.6 480.594 149.568 480.594 151.776V171H476.49V135ZM502.084 135H505.9L506.188 141.552C507.1 139.44 508.492 137.736 510.364 136.44C512.236 135.144 514.636 134.496 517.564 134.496C520.252 134.496 522.676 135.192 524.836 136.584C526.996 137.976 528.604 140.088 529.66 142.92C530.668 140.04 532.324 137.928 534.628 136.584C536.932 135.192 539.524 134.496 542.404 134.496C545.044 134.496 547.396 135.096 549.46 136.296C551.524 137.448 553.132 139.2 554.284 141.552C555.436 143.904 556.012 146.856 556.012 150.408V171H551.908V150.84C551.908 146.76 551.02 143.664 549.244 141.552C547.468 139.392 544.972 138.312 541.756 138.312C538.444 138.312 535.804 139.488 533.836 141.84C531.916 144.192 530.956 147.648 530.956 152.208V171H526.78V150.84C526.78 146.76 525.916 143.664 524.188 141.552C522.508 139.392 520.06 138.312 516.844 138.312C513.532 138.312 510.916 139.488 508.996 141.84C507.124 144.192 506.188 147.648 506.188 152.208V171H502.084V135ZM590.096 171L589.808 163.368C588.8 165.96 587.216 167.976 585.056 169.416C582.944 170.808 580.256 171.504 576.992 171.504C574.4 171.504 572.192 171.12 570.368 170.352C568.544 169.536 567.128 168.384 566.12 166.896C565.16 165.408 564.68 163.632 564.68 161.568C564.68 158.544 565.808 156.096 568.064 154.224C570.32 152.304 573.68 151.128 578.144 150.696L589.808 149.4V146.376C589.808 143.88 588.968 141.936 587.288 140.544C585.656 139.104 583.376 138.384 580.448 138.384C577.664 138.384 575.336 139.032 573.464 140.328C571.64 141.624 570.416 143.472 569.792 145.872L566.048 144.576C566.96 141.36 568.664 138.888 571.16 137.16C573.656 135.384 576.776 134.496 580.52 134.496C584.744 134.496 588.032 135.552 590.384 137.664C592.736 139.776 593.912 142.68 593.912 146.376V171H590.096ZM589.808 152.928L578.072 154.296C575 154.632 572.72 155.4 571.232 156.6C569.792 157.752 569.072 159.336 569.072 161.352C569.072 163.368 569.768 164.952 571.16 166.104C572.6 167.256 574.64 167.832 577.28 167.832C580.064 167.832 582.368 167.28 584.192 166.176C586.064 165.024 587.456 163.464 588.368 161.496C589.328 159.48 589.808 157.224 589.808 154.728V152.928ZM604.881 135H608.697L608.913 141.552C609.921 139.344 611.409 137.616 613.377 136.368C615.393 135.12 617.841 134.496 620.721 134.496C623.409 134.496 625.785 135.096 627.849 136.296C629.961 137.448 631.593 139.2 632.745 141.552C633.945 143.856 634.545 146.808 634.545 150.408V171H630.441V150.84C630.441 146.76 629.529 143.64 627.705 141.48C625.881 139.32 623.337 138.24 620.073 138.24C616.617 138.24 613.905 139.392 611.937 141.696C609.969 144 608.985 147.432 608.985 151.992V171H604.881V135ZM660.571 171.504C657.067 171.504 653.995 170.736 651.355 169.2C648.763 167.664 646.747 165.528 645.307 162.792C643.867 160.008 643.147 156.792 643.147 153.144C643.147 149.448 643.867 146.208 645.307 143.424C646.747 140.592 648.763 138.408 651.355 136.872C653.995 135.288 657.067 134.496 660.571 134.496C664.219 134.496 667.411 135.36 670.147 137.088C672.931 138.816 674.923 141.192 676.123 144.216L672.307 145.512C671.539 143.304 670.099 141.576 667.987 140.328C665.923 139.032 663.499 138.384 660.715 138.384C658.075 138.384 655.747 138.984 653.731 140.184C651.763 141.384 650.227 143.088 649.123 145.296C648.067 147.504 647.539 150.096 647.539 153.072C647.539 157.488 648.715 161.016 651.067 163.656C653.467 166.296 656.659 167.616 660.643 167.616C663.331 167.616 665.707 167.016 667.771 165.816C669.835 164.568 671.395 162.84 672.451 160.632L676.195 161.928C674.899 164.952 672.883 167.304 670.147 168.984C667.411 170.664 664.219 171.504 660.571 171.504ZM700.149 171.504C696.789 171.504 693.813 170.712 691.221 169.128C688.677 167.496 686.685 165.264 685.245 162.432C683.805 159.6 683.085 156.336 683.085 152.64C683.085 149.136 683.805 146.016 685.245 143.28C686.733 140.544 688.749 138.408 691.293 136.872C693.837 135.288 696.741 134.496 700.005 134.496C703.221 134.496 706.077 135.216 708.573 136.656C711.117 138.048 713.085 139.992 714.477 142.488C715.917 144.936 716.613 147.744 716.565 150.912C716.565 151.392 716.541 151.92 716.493 152.496C716.493 153.024 716.469 153.6 716.421 154.224H687.549C687.597 156.864 688.173 159.192 689.277 161.208C690.381 163.224 691.845 164.808 693.669 165.96C695.541 167.064 697.653 167.616 700.005 167.616C702.981 167.616 705.525 167.016 707.637 165.816C709.797 164.568 711.357 162.816 712.317 160.56L715.845 162C714.501 165.072 712.461 167.424 709.725 169.056C706.989 170.688 703.797 171.504 700.149 171.504ZM712.101 150.624C712.149 148.224 711.669 146.112 710.661 144.288C709.653 142.464 708.213 141.024 706.341 139.968C704.517 138.912 702.357 138.384 699.861 138.384C697.653 138.384 695.661 138.912 693.885 139.968C692.109 141.024 690.645 142.488 689.493 144.36C688.389 146.184 687.741 148.272 687.549 150.624H712.101Z" fill="#1E140F"/>
<path d="M151 3V19.7619" stroke="url(#paint0_linear_9132_8741)" stroke-width="3" stroke-linecap="round"/>
<path d="M128.141 12.1445L139.858 24.1306" stroke="url(#paint1_linear_9132_8741)" stroke-width="3" stroke-linecap="round"/>
<path d="M119 35L135.762 35" stroke="url(#paint2_linear_9132_8741)" stroke-width="3" stroke-linecap="round"/>
<defs>
<linearGradient id="paint0_linear_9132_8741" x1="151" y1="22.0476" x2="151" y2="7.57143" gradientUnits="userSpaceOnUse">
<stop stop-color="#FF2525"/>
<stop offset="1" stop-color="#FF8743"/>
</linearGradient>
<linearGradient id="paint1_linear_9132_8741" x1="141.456" y1="25.7651" x2="131.22" y2="15.5296" gradientUnits="userSpaceOnUse">
<stop stop-color="#FF2525"/>
<stop offset="1" stop-color="#FF8743"/>
</linearGradient>
<linearGradient id="paint2_linear_9132_8741" x1="138.048" y1="35" x2="123.571" y2="35" gradientUnits="userSpaceOnUse">
<stop stop-color="#FF2525"/>
<stop offset="1" stop-color="#FF8743"/>
</linearGradient>
</defs>
</svg>
