<svg width="110" height="110" viewBox="0 0 110 110" fill="none" xmlns="http://www.w3.org/2000/svg">
<rect width="110" height="110" rx="55" fill="url(#paint0_linear_6278_4653)"/>
<circle cx="55.5" cy="49.5" r="27.5" fill="#FFA979"/>
<circle cx="54.5" cy="49.5" r="23.5" fill="white"/>
<path d="M25.5 81.5L34.5 67L40.5 72L44 74.5L36 89L33 81L25.5 81.5Z" fill="#FFA979"/>
<path d="M83.5 81.5L74.5 67L68.5 72L65 74.5L73 89L76 81L83.5 81.5Z" fill="#FFA979"/>
<path fill-rule="evenodd" clip-rule="evenodd" d="M32.9502 66.8262L23.9252 82.0175C23.6715 82.4437 23.6952 82.98 23.984 83.3838C24.274 83.7875 24.774 83.9813 25.2602 83.8787L32.384 82.365L34.6365 89.2925C34.789 89.76 35.2015 90.095 35.6902 90.1475C36.179 90.2012 36.654 89.9638 36.9027 89.5387L45.0527 75.6875C48.1452 76.8587 51.4977 77.5 55.0002 77.5C58.164 77.5 61.2065 76.9762 64.0452 76.0112L71.8427 89.53C72.089 89.9575 72.564 90.2 73.0552 90.1488C73.5465 90.0975 73.9615 89.7612 74.114 89.2925L76.3665 82.365L83.4902 83.8787C83.9665 83.9787 84.4577 83.795 84.7502 83.4062C85.0415 83.0163 85.0815 82.4938 84.8515 82.065L76.8302 67.1012C80.7652 62.2612 83.1252 56.0913 83.1252 49.375C83.1252 33.8525 70.5227 21.25 55.0002 21.25C39.4777 21.25 26.8752 33.8525 26.8752 49.375C26.8752 55.9662 29.1477 62.03 32.9502 66.8262ZM34.679 68.8112L27.5327 80.84L32.9652 79.6862C33.5915 79.5537 34.2165 79.9137 34.414 80.5225L36.1565 85.8787L42.739 74.69C39.709 73.2188 36.9827 71.2188 34.679 68.8112ZM75.0565 69.0837C72.5902 71.5937 69.6577 73.6425 66.399 75.09L72.604 85.8488L74.3365 80.5225C74.534 79.9137 75.159 79.5537 75.7852 79.6862L81.3765 80.8738L75.0565 69.0837ZM55.0002 23.75C69.1427 23.75 80.6252 35.2325 80.6252 49.375C80.6252 63.5175 69.1427 75 55.0002 75C40.8577 75 29.3752 63.5175 29.3752 49.375C29.3752 35.2325 40.8577 23.75 55.0002 23.75ZM55.0002 25.34C41.7352 25.34 30.9652 36.11 30.9652 49.375C30.9652 62.64 41.7352 73.41 55.0002 73.41C68.2652 73.41 79.0352 62.64 79.0352 49.375C79.0352 36.11 68.2652 25.34 55.0002 25.34ZM55.0002 27.84C66.8865 27.84 76.5352 37.4888 76.5352 49.375C76.5352 61.2612 66.8865 70.91 55.0002 70.91C43.114 70.91 33.4652 61.2612 33.4652 49.375C33.4652 37.4888 43.114 27.84 55.0002 27.84Z" fill="#6A0600"/>
<path d="M52.1002 54.7384L47.3365 50.0472C47.0799 49.7944 46.7317 49.6524 46.3687 49.6524C46.0057 49.6524 45.6576 49.7944 45.4009 50.0472C45.1442 50.3 45 50.6428 45 51.0003C45 51.1773 45.0354 51.3526 45.1042 51.5162C45.173 51.6797 45.2738 51.8283 45.4009 51.9534L51.1392 57.6046C51.6746 58.1318 52.5395 58.1318 53.0749 57.6046L67.5991 43.301C67.8558 43.0482 68 42.7054 68 42.3479C68 41.9904 67.8558 41.6476 67.5991 41.3948C67.3424 41.142 66.9943 41 66.6313 41C66.2683 41 65.9201 41.142 65.6635 41.3948L52.1002 54.7384Z" fill="#6A0600"/>
<defs>
<linearGradient id="paint0_linear_6278_4653" x1="55" y1="0" x2="55" y2="110" gradientUnits="userSpaceOnUse">
<stop stop-color="#FFEBE0"/>
<stop offset="1" stop-color="#FFD0B6"/>
</linearGradient>
</defs>
</svg>
