<svg width="110" height="110" viewBox="0 0 110 110" fill="none" xmlns="http://www.w3.org/2000/svg">
<rect width="110" height="110" rx="55" fill="url(#paint0_linear_6278_4685)"/>
<circle cx="55.4996" cy="60.9996" r="13.6364" fill="white"/>
<path d="M62.5913 32.0898H48.1367V38.3626L50.864 38.908L51.4094 47.908H59.864L60.1367 38.3626H62.5913V32.0898Z" fill="white"/>
<path d="M76.7736 80.6367H35.0463L32.5918 82.2731L33.41 86.6367H78.6827L76.7736 80.6367Z" fill="white"/>
<path d="M46.4998 59.0898L42.6816 61.5444L45.4089 69.9989L53.318 74.3626L61.4998 72.7262L66.9544 68.908L68.8635 61.2717L66.9544 62.0898L64.2271 62.6353H60.1362L55.2271 61.2717L46.4998 59.0898Z" fill="#FFA979"/>
<path d="M75 79H37.5V40H49.5V47.26C46.8262 48.4269 44.5507 50.3482 42.9522 52.7887C41.3537 55.2291 40.5015 58.0827 40.5 61C40.5 64.9782 42.0804 68.7936 44.8934 71.6066C47.7064 74.4196 51.5218 76 55.5 76C59.4782 76 63.2936 74.4196 66.1066 71.6066C68.9196 68.7936 70.5 64.9782 70.5 61C70.4927 58.0878 69.6378 55.2406 68.0396 52.8061C66.4414 50.3716 64.1691 48.4549 61.5 47.29V40H69C69.3978 40 69.7794 39.842 70.0607 39.5607C70.342 39.2794 70.5 38.8978 70.5 38.5C70.5 38.1022 70.342 37.7206 70.0607 37.4393C69.7794 37.158 69.3978 37 69 37H64.5V32.5C64.5 32.1022 64.342 31.7206 64.0607 31.4393C63.7794 31.158 63.3978 31 63 31H48C47.6022 31 47.2206 31.158 46.9393 31.4393C46.658 31.7206 46.5 32.1022 46.5 32.5V37H37.5V26.5C37.5 26.1022 37.342 25.7206 37.0607 25.4393C36.7794 25.158 36.3978 25 36 25C35.6022 25 35.2206 25.158 34.9393 25.4393C34.658 25.7206 34.5 26.1022 34.5 26.5V79.27C33.6247 79.5795 32.8665 80.1521 32.3294 80.9094C31.7923 81.6667 31.5026 82.5716 31.5 83.5V86.5C31.5 86.8978 31.658 87.2794 31.9393 87.5607C32.2206 87.842 32.6022 88 33 88H78C78.3978 88 78.7794 87.842 79.0607 87.5607C79.342 87.2794 79.5 86.8978 79.5 86.5V83.5C79.5 82.3065 79.0259 81.1619 78.182 80.318C77.3381 79.4741 76.1935 79 75 79ZM55.5 73C52.4793 73.01 49.566 71.8804 47.3416 69.8367C45.1172 67.7931 43.7454 64.9857 43.5 61.975C45.2806 61.1174 47.2428 60.7048 49.2181 60.7727C51.1933 60.8407 53.1225 61.3871 54.84 62.365C57.0355 63.5095 59.4604 64.1452 61.935 64.225C63.7395 64.1983 65.5277 63.8791 67.23 63.28C66.7022 66.0075 65.2443 68.4674 63.1052 70.24C60.966 72.0126 58.2781 72.9881 55.5 73ZM55.89 59.5C56.2175 58.9221 56.7275 58.4692 57.3401 58.2123C57.9527 57.9555 58.6333 57.9093 59.275 58.0808C59.9167 58.2524 60.4833 58.6321 60.886 59.1604C61.2887 59.6887 61.5046 60.3358 61.5 61C61.493 61.0748 61.493 61.1502 61.5 61.225C59.6051 61.0464 57.7619 60.5067 56.07 59.635L55.89 59.5ZM67.455 59.995C66.4989 60.4095 65.5106 60.7456 64.5 61C64.4789 59.65 64.003 58.3465 63.1494 57.3004C62.2957 56.2543 61.1142 55.5267 59.7958 55.2353C58.4774 54.9438 57.0993 55.1056 55.8842 55.6944C54.6691 56.2832 53.6882 57.2646 53.1 58.48C50.0324 57.5144 46.7283 57.6148 43.725 58.765C44.2461 55.8914 45.7973 53.3065 48.0879 51.4947C50.3784 49.6829 53.2511 48.7686 56.1675 48.9231C59.0839 49.0777 61.8438 50.2905 63.93 52.3342C66.0162 54.378 67.2855 57.1124 67.5 60.025L67.455 59.995ZM58.5 46H52.5V40H58.5V46ZM49.5 34H61.5V37H49.5V34ZM76.5 85H34.5V83.5C34.5 83.1022 34.658 82.7206 34.9393 82.4393C35.2206 82.158 35.6022 82 36 82H75C75.3978 82 75.7794 82.158 76.0607 82.4393C76.342 82.7206 76.5 83.1022 76.5 83.5V85Z" fill="#6A0600"/>
<path d="M52.5 29.5C52.8978 29.5 53.2794 29.342 53.5607 29.0607C53.842 28.7794 54 28.3978 54 28C54 27.6022 53.842 27.2206 53.5607 26.9393C53.2794 26.658 52.8978 26.5 52.5 26.5C52.1022 26.5 51.7206 26.658 51.4393 26.9393C51.158 27.2206 51 27.6022 51 28C51 28.3978 51.158 28.7794 51.4393 29.0607C51.7206 29.342 52.1022 29.5 52.5 29.5Z" fill="#6A0600"/>
<path d="M58.5 28C60.1569 28 61.5 26.6569 61.5 25C61.5 23.3431 60.1569 22 58.5 22C56.8431 22 55.5 23.3431 55.5 25C55.5 26.6569 56.8431 28 58.5 28Z" fill="#6A0600"/>
<defs>
<linearGradient id="paint0_linear_6278_4685" x1="55" y1="0" x2="55" y2="110" gradientUnits="userSpaceOnUse">
<stop stop-color="#FFEBE0"/>
<stop offset="1" stop-color="#FFD0B6"/>
</linearGradient>
</defs>
</svg>
