<svg width="110" height="110" viewBox="0 0 110 110" fill="none" xmlns="http://www.w3.org/2000/svg">
<rect width="110" height="110" rx="55" fill="url(#paint0_linear_6278_4604)"/>
<path d="M73.5448 55.148C73.5679 51.8076 72.6964 48.5219 71.0209 45.632C69.3453 42.7421 66.9268 40.3534 64.0163 38.7138C61.1059 37.0743 57.8096 36.2437 54.4698 36.3082C51.1299 36.3727 47.8682 37.33 45.0232 39.0808C42.1783 40.8315 39.8538 43.3118 38.2911 46.2643C36.7285 49.2167 35.9845 52.5336 36.1366 55.8706C36.2887 59.2076 37.3312 62.4431 39.1559 65.2412C40.9806 68.0393 43.521 70.2979 46.5134 71.7826V78.0207C46.5134 78.5721 46.7325 79.101 47.1225 79.491C47.5124 79.8809 48.0413 80.1 48.5928 80.1H61.0688C61.6203 80.1 62.1491 79.8809 62.5391 79.491C62.9291 79.101 63.1481 78.5721 63.1481 78.0207V71.7826C66.2566 70.2511 68.8764 67.883 70.713 64.9444C72.5497 62.0058 73.5303 58.6132 73.5448 55.148Z" fill="#FFA979"/>
<path d="M73.5448 55.148C73.5679 51.8076 72.6964 48.5219 71.0209 45.632C69.3453 42.7421 66.9268 40.3534 64.0163 38.7138C61.1059 37.0743 57.8096 36.2437 54.4698 36.3082C51.1299 36.3727 47.8682 37.33 45.0232 39.0808C42.1783 40.8315 39.8538 43.3118 38.2911 46.2643C36.7285 49.2167 35.9845 52.5336 36.1366 55.8706C36.2887 59.2076 37.3312 62.4431 39.1559 65.2412C40.9806 68.0393 43.521 70.2979 46.5134 71.7826V78.0207C46.5134 78.5721 46.7325 79.101 47.1225 79.491C47.5124 79.8809 48.0413 80.1 48.5928 80.1H61.0688C61.6203 80.1 62.1491 79.8809 62.5391 79.491C62.9291 79.101 63.1481 78.5721 63.1481 78.0207V71.7826C66.2566 70.2511 68.8764 67.883 70.713 64.9444C72.5497 62.0058 73.5303 58.6132 73.5448 55.148Z" stroke="#6A0600" stroke-width="2.2" stroke-linecap="round" stroke-linejoin="round"/>
<path d="M47.1172 83.6875L62.5172 83.6875" stroke="#6A0600" stroke-width="2.75" stroke-linecap="round" stroke-linejoin="round"/>
<path d="M47.1172 87.5352L62.5172 87.5352" stroke="#6A0600" stroke-width="2.75" stroke-linecap="round" stroke-linejoin="round"/>
<path d="M58.4668 44.3594C57.4997 44.3594 56.5722 44.7436 55.8883 45.4274C55.2045 46.1113 54.8203 47.0388 54.8203 48.0059V57.9188C54.8217 58.4807 54.9366 59.0366 55.158 59.553C55.3795 60.0695 55.7029 60.5359 56.109 60.9243C56.515 61.3127 56.9953 61.6151 57.5211 61.8134C58.0468 62.0117 58.6072 62.1018 59.1687 62.0782C59.7301 62.0547 60.281 61.918 60.7883 61.6764C61.2956 61.4348 61.7489 61.0933 62.121 60.6723C62.4932 60.2512 62.7764 59.7594 62.9539 59.2262C63.1313 58.6931 63.1993 58.1296 63.1536 57.5695C64.0224 56.6349 64.5693 54.8117 64.5693 53.2872C64.5693 51.2126 63.552 49.1963 62.0919 48.4012C62.1474 47.892 62.095 47.3768 61.9382 46.8892C61.7813 46.4016 61.5235 45.9525 61.1815 45.5712C60.8395 45.1898 60.421 44.8849 59.9532 44.6761C59.4855 44.4673 58.979 44.3594 58.4668 44.3594Z" fill="white"/>
<path d="M51.1724 44.3594C51.6513 44.3594 52.1255 44.4537 52.5679 44.6369C53.0103 44.8202 53.4123 45.0888 53.7509 45.4274C54.0895 45.766 54.3581 46.168 54.5413 46.6104C54.7246 47.0528 54.8189 47.527 54.8189 48.0059V57.9188C54.8175 58.4807 54.7026 59.0366 54.4812 59.553C54.2598 60.0695 53.9363 60.5359 53.5303 60.9243C53.1242 61.3127 52.6439 61.6151 52.1181 61.8134C51.5924 62.0117 51.032 62.1018 50.4706 62.0782C49.9092 62.0547 49.3583 61.918 48.8509 61.6764C48.3436 61.4348 47.8903 61.0933 47.5182 60.6723C47.1461 60.2512 46.8628 59.7594 46.6854 59.2262C46.5079 58.6931 46.44 58.1296 46.4856 57.5695C45.6169 56.6349 45.0684 54.8117 45.0684 53.2872C45.0684 51.2126 46.0872 49.1963 47.5458 48.4012C47.4903 47.8918 47.5427 47.3765 47.6997 46.8888C47.8566 46.4011 48.1146 45.9519 48.4567 45.5706C48.7989 45.1892 49.2176 44.8843 49.6855 44.6756C50.1534 44.4669 50.6601 44.3592 51.1724 44.3594Z" fill="white"/>
<path d="M51.1724 44.3594C51.6513 44.3594 52.1255 44.4537 52.5679 44.6369C53.0103 44.8202 53.4123 45.0888 53.7509 45.4274C54.0895 45.766 54.3581 46.168 54.5413 46.6104C54.7246 47.0528 54.8189 47.527 54.8189 48.0059V57.9188C54.8175 58.4807 54.7026 59.0366 54.4812 59.553C54.2598 60.0695 53.9363 60.5359 53.5303 60.9243C53.1242 61.3127 52.6439 61.6151 52.1181 61.8134C51.5924 62.0117 51.032 62.1018 50.4706 62.0782C49.9092 62.0547 49.3583 61.918 48.8509 61.6764C48.3436 61.4348 47.8903 61.0933 47.5182 60.6723C47.1461 60.2512 46.8628 59.7594 46.6854 59.2262C46.5079 58.6931 46.44 58.1296 46.4856 57.5695C45.6169 56.6349 45.0684 54.8117 45.0684 53.2872C45.0684 51.2126 46.0872 49.1963 47.5458 48.4012C47.4903 47.8918 47.5427 47.3765 47.6997 46.8888C47.8566 46.4011 48.1146 45.9519 48.4567 45.5706C48.7989 45.1892 49.2176 44.8843 49.6855 44.6756C50.1534 44.4669 50.6601 44.3592 51.1724 44.3594Z" stroke="#6A0600" stroke-width="1.65" stroke-linecap="round" stroke-linejoin="round"/>
<path d="M49.4735 50.8823C48.9372 50.7598 47.7253 49.9646 47.543 48.4141" stroke="#6A0600" stroke-width="1.65" stroke-linecap="round" stroke-linejoin="round"/>
<path d="M51.709 54.9683C53.8969 54.7232 54.7625 52.4158 54.8192 51.4766" stroke="#6A0600" stroke-width="1.65" stroke-linecap="round" stroke-linejoin="round"/>
<path d="M47.6044 55.3828C47.0589 55.8118 46.6238 56.7878 46.4844 57.5692" stroke="#6A0600" stroke-width="1.65" stroke-linecap="round" stroke-linejoin="round"/>
<path d="M58.4668 44.3594C57.4997 44.3594 56.5722 44.7436 55.8883 45.4274C55.2045 46.1113 54.8203 47.0388 54.8203 48.0059V57.9188C54.8217 58.4807 54.9366 59.0366 55.158 59.553C55.3795 60.0695 55.7029 60.5359 56.109 60.9243C56.515 61.3127 56.9953 61.6151 57.5211 61.8134C58.0468 62.0117 58.6072 62.1018 59.1687 62.0782C59.7301 62.0547 60.281 61.918 60.7883 61.6764C61.2956 61.4348 61.7489 61.0933 62.121 60.6723C62.4932 60.2512 62.7764 59.7594 62.9539 59.2262C63.1313 58.6931 63.1993 58.1296 63.1536 57.5695C64.0224 56.6349 64.5693 54.8117 64.5693 53.2872C64.5693 51.2126 63.552 49.1963 62.0919 48.4012C62.1474 47.892 62.095 47.3768 61.9382 46.8892C61.7813 46.4016 61.5235 45.9525 61.1815 45.5712C60.8395 45.1898 60.421 44.8849 59.9532 44.6761C59.4855 44.4673 58.979 44.3594 58.4668 44.3594Z" stroke="#6A0600" stroke-width="1.65" stroke-linecap="round" stroke-linejoin="round"/>
<path d="M60.1641 50.8823C60.7003 50.7598 61.9122 49.9646 62.0946 48.4141" stroke="#6A0600" stroke-width="1.65" stroke-linecap="round" stroke-linejoin="round"/>
<path d="M57.9306 54.9683C55.7427 54.7232 54.877 52.4158 54.8203 51.4766" stroke="#6A0600" stroke-width="1.65" stroke-linecap="round" stroke-linejoin="round"/>
<path d="M62.0352 55.3828C62.5806 55.8118 63.0157 56.7878 63.1552 57.5692" stroke="#6A0600" stroke-width="1.65" stroke-linecap="round" stroke-linejoin="round"/>
<path d="M18.5187 55.6328L30.3438 55.6328" stroke="#6A0600" stroke-width="1.65" stroke-linecap="round"/>
<path d="M73.5174 36.4944L81.8789 28.1328" stroke="#6A0600" stroke-width="1.65" stroke-linecap="round"/>
<path d="M35.6799 36.4944L27.3184 28.1328" stroke="#6A0600" stroke-width="1.65" stroke-linecap="round"/>
<path d="M55.0918 31.1531V19.3281" stroke="#6A0600" stroke-width="1.65" stroke-linecap="round"/>
<path d="M80.1184 55.6328L91.9434 55.6328" stroke="#6A0600" stroke-width="1.65" stroke-linecap="round"/>
<defs>
<linearGradient id="paint0_linear_6278_4604" x1="55" y1="0" x2="55" y2="110" gradientUnits="userSpaceOnUse">
<stop stop-color="#FFEBE0"/>
<stop offset="1" stop-color="#FFD0B6"/>
</linearGradient>
</defs>
</svg>
