<svg width="110" height="110" viewBox="0 0 110 110" fill="none" xmlns="http://www.w3.org/2000/svg">
<rect width="110" height="110" rx="55" fill="url(#paint0_linear_6278_4635)"/>
<circle cx="38.0005" cy="70.6392" r="5.44" fill="white"/>
<circle cx="76.0806" cy="70.6392" r="5.44" fill="white"/>
<path d="M63.8528 57.2109H26.1309V70.1873H31.9652L34.5806 66.4654L38.3025 64.5541L41.7226 66.4654L44.0362 70.1873H63.8528V57.2109Z" fill="#FFA979"/>
<path d="M60.1008 57.3819H27.8008V47.8619L31.8808 47.1819V33.9219H45.8208V38.0019H57.3808V47.1819L60.1008 47.8619V57.3819Z" fill="white"/>
<path d="M75.9245 42.125H63.6523V70.5925H70.0902V68.48L74.2145 64.8587L79.3447 65.6635L81.6583 70.5925H84.0725V56.0067L79.3447 44.338L75.9245 42.125Z" fill="#FFA979" stroke="black" stroke-width="0.201183"/>
<path d="M72.2012 46.25L79.2427 45.8477L84.1717 56.0074H72.6036L70.9941 54.398V47.6583L72.2012 46.25Z" fill="white"/>
<path d="M38.0896 67.3906C36.3471 67.3906 34.9297 68.8069 34.9297 70.5494C34.9297 72.2919 36.3471 73.7082 38.0896 73.7082C39.831 73.7082 41.2484 72.2909 41.2484 70.5494C41.2484 68.808 39.831 67.3906 38.0896 67.3906ZM38.0896 71.5822C37.519 71.5822 37.0547 71.1179 37.0547 70.5484C37.0547 69.9789 37.519 69.5146 38.0896 69.5146C38.6591 69.5146 39.1234 69.9789 39.1234 70.5484C39.1234 71.1189 38.6591 71.5822 38.0896 71.5822ZM75.6287 67.3906C73.8873 67.3906 72.4699 68.8069 72.4699 70.5494C72.4699 72.2919 73.8873 73.7082 75.6287 73.7082C77.3702 73.7082 78.7876 72.2909 78.7876 70.5494C78.7876 68.808 77.3702 67.3906 75.6287 67.3906ZM75.6287 71.5822C75.0592 71.5822 74.5949 71.1179 74.5949 70.5484C74.5949 69.9789 75.0592 69.5146 75.6287 69.5146C76.1982 69.5146 76.6626 69.9789 76.6626 70.5484C76.6626 71.1189 76.1982 71.5822 75.6287 71.5822Z" fill="#6A0600"/>
<path d="M85.2625 55.7124L80.0477 44.1715C79.1212 42.1198 76.8676 40.7938 74.3081 40.7938H63.4993C62.9117 40.7938 62.4368 41.2698 62.4368 41.8563V56.2107H60.8855V47.6097C60.8855 47.0232 60.4106 46.5472 59.823 46.5472H58.6128V37.8411C58.6128 37.2546 58.1379 36.7786 57.5503 36.7786H46.7447V33.8047C46.7447 33.2182 46.2698 32.7422 45.6822 32.7422H31.8803C31.2928 32.7422 30.8178 33.2182 30.8178 33.8047V46.5494H27.8407C27.2531 46.5494 26.7782 47.0254 26.7782 47.6119V56.2128H25.7051C25.1175 56.2128 24.6426 56.6888 24.6426 57.2753V70.5619C24.6426 71.1484 25.1175 71.6244 25.7051 71.6244H31.4819C31.993 74.814 34.7576 77.262 38.0896 77.262C41.4216 77.262 44.1841 74.814 44.6962 71.6244C44.6962 71.6244 63.4982 71.6254 63.4993 71.6254H69.0221C69.5343 74.8151 72.2968 77.262 75.6288 77.262C78.9608 77.262 81.7233 74.8151 82.2354 71.6254H84.2956C84.8831 71.6254 85.3581 71.1494 85.3581 70.5629V56.1501C85.357 55.9993 85.3251 55.8505 85.2625 55.7124ZM79.0203 47.0573L82.3629 54.4533H73.236C72.5804 54.4533 72.0471 53.9762 72.0471 53.3908V48.1198C72.0471 47.5343 72.5804 47.0573 73.236 47.0573H79.0203ZM43.9216 67.2788H62.4368V69.4994H44.6951C44.5676 68.7036 44.3041 67.9545 43.9216 67.2788ZM58.7605 56.2118H42.7061V48.6733H47.3971V52.8797C47.3971 53.4662 47.872 53.9422 48.4596 53.9422H52.6703C53.2578 53.9422 53.7328 53.4662 53.7328 52.8797V48.6733H58.7605V56.2118ZM33.6175 48.6733H35.8668V50.9237H33.6175V48.6733ZM49.5221 48.6733H51.6078V51.8172H49.5221V48.6733ZM52.8541 38.9057V40.9914H50.7673V38.9057H52.8541ZM48.6434 38.9057V42.0539C48.6434 42.6404 49.1183 43.1164 49.7059 43.1164H53.9176C54.5052 43.1164 54.9801 42.6404 54.9801 42.0539V38.9057H56.4889V46.5441H46.7458V38.9057H48.6434ZM39.7747 34.8672V36.9529H37.688V34.8672H39.7747ZM32.9428 34.8672H35.563V38.0154C35.563 38.6019 36.0379 39.0779 36.6255 39.0779H40.8372C41.4248 39.0779 41.8997 38.6019 41.8997 38.0154V34.8672H44.6208V37.8432V46.5441H32.9428V34.8672ZM28.9032 48.6733H31.4925V51.9862C31.4925 52.5727 31.9675 53.0487 32.555 53.0487H36.9293C37.5169 53.0487 37.9918 52.5727 37.9918 51.9862V48.6733H40.5811V56.2118H28.9032V48.6733ZM62.4368 58.3368V65.1538H42.0261C40.9201 64.3463 39.5622 63.8639 38.0896 63.8639C36.617 63.8639 35.2601 64.3463 34.153 65.1538H26.7686V58.3368H62.4368ZM26.7686 67.2788H32.2565C31.874 67.9545 31.6105 68.7036 31.483 69.4994H26.7686V67.2788ZM38.0896 75.1359C35.5672 75.1359 33.5145 73.0843 33.5145 70.5619C33.5145 68.0395 35.5672 65.9878 38.0896 65.9878C40.612 65.9878 42.6636 68.0395 42.6636 70.5619C42.6636 73.0843 40.612 75.1359 38.0896 75.1359ZM75.6288 75.1359C73.1064 75.1359 71.0547 73.0843 71.0547 70.5619C71.0547 68.0395 73.1064 65.9878 75.6288 65.9878C78.1511 65.9878 80.2028 68.0395 80.2028 70.5619C80.2028 73.0843 78.1511 75.1359 75.6288 75.1359ZM82.2354 69.5004C81.7243 66.3108 78.9608 63.8639 75.6288 63.8639C72.2968 63.8639 69.5343 66.3108 69.0221 69.5004H64.5618V42.9199H74.3081C75.955 42.9199 77.4329 43.7263 78.047 44.9323H73.235C71.4075 44.9323 69.921 46.3624 69.921 48.1198V53.3908C69.921 55.1482 71.4075 56.5783 73.235 56.5783H83.232V57.8703H78.9236C78.336 57.8703 77.8611 58.3463 77.8611 58.9328V62.5761C77.8611 63.1626 78.336 63.6386 78.9236 63.6386H83.232V69.5004H82.2354ZM83.232 61.5136H79.9861V59.9953H83.232V61.5136Z" fill="#6A0600"/>
<path d="M70.8219 58.6641H67.9043C67.3167 58.6641 66.8418 59.1401 66.8418 59.7266C66.8418 60.3131 67.3167 60.7891 67.9043 60.7891H70.8219C71.4095 60.7891 71.8844 60.3131 71.8844 59.7266C71.8844 59.1401 71.4084 58.6641 70.8219 58.6641Z" fill="#6A0600"/>
<defs>
<linearGradient id="paint0_linear_6278_4635" x1="55" y1="0" x2="55" y2="110" gradientUnits="userSpaceOnUse">
<stop stop-color="#FFEBE0"/>
<stop offset="1" stop-color="#FFD0B6"/>
</linearGradient>
</defs>
</svg>
