<svg width="110" height="110" viewBox="0 0 110 110" fill="none" xmlns="http://www.w3.org/2000/svg">
<rect width="110" height="110" rx="55" fill="url(#paint0_linear_6278_4669)"/>
<g clip-path="url(#clip0_6278_4669)">
<circle cx="45.334" cy="46.3359" r="18.125" fill="#FFA979"/>
<circle cx="45.3327" cy="46.3307" r="13.2917" fill="white"/>
<path d="M70.1048 66.2734L82.1882 78.3568L82.7923 81.3776L78.5632 84.3984L65.2715 71.1068L70.1048 66.2734Z" fill="#FFA979"/>
<path d="M45.334 31.8359C42.4662 31.8359 39.6627 32.6863 37.2782 34.2796C34.8937 35.8729 33.0352 38.1375 31.9377 40.787C30.8403 43.4366 30.5531 46.352 31.1126 49.1647C31.6721 51.9775 33.0531 54.5611 35.0809 56.589C37.1088 58.6168 39.6925 59.9978 42.5052 60.5573C45.3179 61.1168 48.2334 60.8297 50.8829 59.7322C53.5324 58.6347 55.797 56.7762 57.3903 54.3917C58.9836 52.0072 59.834 49.2038 59.834 46.3359C59.834 42.4903 58.3063 38.8022 55.587 36.0829C52.8678 33.3636 49.1796 31.8359 45.334 31.8359ZM45.334 58.4193C42.9441 58.4193 40.6079 57.7106 38.6209 56.3829C36.6338 55.0551 35.085 53.168 34.1704 50.96C33.2559 48.7521 33.0166 46.3225 33.4828 43.9786C33.9491 41.6347 35.0999 39.4816 36.7898 37.7917C38.4797 36.1018 40.6327 34.951 42.9766 34.4848C45.3206 34.0185 47.7501 34.2578 49.9581 35.1724C52.166 36.087 54.0532 37.6357 55.3809 39.6228C56.7086 41.6099 57.4173 43.9461 57.4173 46.3359C57.4173 49.5406 56.1443 52.6141 53.8782 54.8801C51.6121 57.1462 48.5387 58.4193 45.334 58.4193Z" fill="#6A0600"/>
<path d="M58.0208 66.875L53.1875 63.25L58.625 59.0208L61.6458 54.1875L65.875 59.0208L58.0208 66.875Z" fill="white"/>
<path d="M68.8952 66.8724L65.8743 69.8932L61.041 64.4557L64.0618 62.0391L68.8952 66.8724Z" fill="white"/>
<path d="M82.5862 76.7482L71.832 65.9941C71.5313 65.6961 71.1576 65.4823 70.7484 65.3742C70.3391 65.266 69.9086 65.2673 69.4999 65.3778L65.5728 61.4628C66.2517 60.7831 66.633 59.8618 66.633 58.9011C66.633 57.9405 66.2517 57.0192 65.5728 56.3395L63.1562 53.9228C64.9064 49.792 65.1656 45.1812 63.8894 40.8802C62.6131 36.5793 59.8808 32.8562 56.1607 30.3487C52.4406 27.8412 47.9643 26.7055 43.4987 27.1362C39.0332 27.5669 34.8564 29.5372 31.6841 32.7095C28.5118 35.8818 26.5415 40.0585 26.1108 44.5241C25.6801 48.9896 26.8158 53.466 29.3233 57.1861C31.8308 60.9062 35.5539 63.6385 39.8549 64.9147C44.1558 66.191 48.7667 65.9318 52.8974 64.1816L55.3141 66.5982C55.9938 67.2771 56.9151 67.6584 57.8758 67.6584C58.8364 67.6584 59.7577 67.2771 60.4374 66.5982L64.3766 70.5012C64.2661 70.9098 64.2648 71.3403 64.373 71.7496C64.4811 72.1589 64.6949 72.5325 64.9928 72.8332C76.1458 83.9862 76.472 85.0012 79.1666 85.0012C80.1231 85.0019 81.0583 84.7188 81.8538 84.1878C82.6494 83.6568 83.2695 82.9016 83.6356 82.018C84.0017 81.1343 84.0975 80.1619 83.9107 79.2238C83.7238 78.2858 83.2629 77.4242 82.5862 76.7482ZM28.4166 46.3345C28.4166 42.9887 29.4087 39.718 31.2676 36.9361C33.1264 34.1542 35.7684 31.9859 38.8595 30.7055C41.9506 29.4251 45.352 29.0901 48.6335 29.7429C51.9151 30.3956 54.9293 32.0068 57.2951 34.3726C59.661 36.7384 61.2721 39.7527 61.9249 43.0342C62.5776 46.3157 62.2426 49.7171 60.9622 52.8082C59.6818 55.8993 57.5136 58.5414 54.7317 60.4002C51.9497 62.259 48.6791 63.2512 45.3333 63.2512C40.8467 63.2512 36.5439 61.4689 33.3714 58.2964C30.1989 55.1239 28.4166 50.8211 28.4166 46.3345ZM57.042 64.8824L55.1328 62.9732C57.9503 61.3035 60.3023 58.9516 61.972 56.1341L63.8812 58.0432C63.9944 58.1556 64.0843 58.2892 64.1457 58.4365C64.207 58.5837 64.2386 58.7416 64.2386 58.9011C64.2386 59.0607 64.207 59.2186 64.1457 59.3658C64.0843 59.5131 63.9944 59.6467 63.8812 59.7591L58.7578 64.8824C58.6455 64.9957 58.5119 65.0855 58.3646 65.1469C58.2174 65.2082 58.0594 65.2398 57.8999 65.2398C57.7404 65.2398 57.5825 65.2082 57.4352 65.1469C57.288 65.0855 57.1543 64.9957 57.042 64.8824ZM63.8812 63.1666L67.5062 66.7916L65.8749 68.5557L62.2499 64.9307L63.8812 63.1666ZM80.8703 81.8716C80.4176 82.3217 79.805 82.5743 79.1666 82.5743C78.5281 82.5743 77.9156 82.3217 77.4628 81.8716L66.7087 71.1295L70.1283 67.7099L80.8703 78.4641C81.3204 78.9169 81.5731 79.5294 81.5731 80.1678C81.5731 80.8063 81.3204 81.4188 80.8703 81.8716Z" fill="#6A0600"/>
</g>
<defs>
<linearGradient id="paint0_linear_6278_4669" x1="55" y1="0" x2="55" y2="110" gradientUnits="userSpaceOnUse">
<stop stop-color="#FFEBE0"/>
<stop offset="1" stop-color="#FFD0B6"/>
</linearGradient>
<clipPath id="clip0_6278_4669">
<rect width="58" height="58" fill="white" transform="translate(26 27)"/>
</clipPath>
</defs>
</svg>
