<svg width="110" height="110" viewBox="0 0 110 110" fill="none" xmlns="http://www.w3.org/2000/svg">
<rect width="110" height="110" rx="55" fill="url(#paint0_linear_6278_4702)"/>
<path d="M30.5605 35.5601V73.5201H79.4406V35.5601H30.5605Z" fill="white"/>
<path d="M61.2402 83.4001V68.8401L64.8802 70.4001H69.0402L71.6402 68.3201V83.4001L66.4402 79.7601L61.2402 83.4001Z" fill="#FFA979"/>
<path d="M73.2002 63.1201C73.2002 66.8536 69.6536 70.4001 65.9202 70.4001C62.1867 70.4001 59.1602 67.3736 59.1602 63.6401C59.1602 59.9067 62.7067 56.3601 66.4402 56.3601C70.1736 56.3601 73.2002 59.3867 73.2002 63.1201Z" fill="#FFA979"/>
<path d="M30.0391 74.6819H60.1991V84.8385L66.4391 81.0945L72.6791 84.8385V74.6819H79.9591V35.1619H30.0391V74.6819ZM70.8747 67.6244C70.7811 67.7191 70.6812 67.8064 70.5824 67.8948C70.5263 67.9447 70.4743 67.9978 70.416 68.0456C70.3515 68.0997 70.2829 68.1455 70.2163 68.1964C69.3202 68.8851 68.2528 69.3156 67.1296 69.4413L67.0724 69.4496C66.6498 69.4917 66.2241 69.4917 65.8015 69.4496L65.7443 69.4413C64.6212 69.3154 63.5538 68.8849 62.6576 68.1964C62.5911 68.1455 62.5224 68.0987 62.4579 68.0456C62.4007 67.9978 62.3477 67.9447 62.2915 67.8948C62.1927 67.8064 62.0939 67.7191 61.9993 67.6244C60.843 66.459 60.1943 64.8836 60.1949 63.2419C60.1949 59.8005 62.9935 57.0019 66.4349 57.0019C69.8763 57.0019 72.6749 59.8005 72.6749 63.2419C72.6791 64.8835 72.0316 66.4597 70.8747 67.6244ZM70.5991 81.1652L66.4391 78.6692L62.2791 81.1652V70.4491C62.3144 70.4699 62.3539 70.4834 62.3903 70.5031C62.6659 70.6571 62.9499 70.7985 63.2431 70.9212L63.2827 70.9358C65.3047 71.7713 67.5755 71.7713 69.5975 70.9358L69.6371 70.9212C69.9303 70.7985 70.2143 70.6581 70.4899 70.5031C70.5263 70.4834 70.5658 70.4699 70.6011 70.4491V81.1652H70.5991ZM32.1191 37.2419H77.8791V72.6019H72.6791V68.7268C74.0189 67.2138 74.7588 65.2628 74.7591 63.2419C74.7591 58.6544 71.0265 54.9219 66.4391 54.9219C61.8516 54.9219 58.1191 58.6544 58.1191 63.2419C58.1191 65.3437 58.9084 67.2604 60.1991 68.7268V72.6019H32.1191V37.2419Z" fill="#6A0600"/>
<path d="M41.4793 41.4019H68.5193V43.4819H41.4793V41.4019ZM46.6793 47.6419H63.3193V49.7219H46.6793V47.6419ZM36.2793 66.3619H47.7193V68.4419H36.2793V66.3619Z" fill="#6A0600"/>
<defs>
<linearGradient id="paint0_linear_6278_4702" x1="55" y1="0" x2="55" y2="110" gradientUnits="userSpaceOnUse">
<stop stop-color="#FFEBE0"/>
<stop offset="1" stop-color="#FFD0B6"/>
</linearGradient>
</defs>
</svg>
