<svg width="926" height="442" viewBox="0 0 926 442" fill="none" xmlns="http://www.w3.org/2000/svg">
<mask id="path-1-outside-1_6278_4310" maskUnits="userSpaceOnUse" x="7.83594" y="101.879" width="918" height="256" fill="black">
<rect fill="white" x="7.83594" y="101.879" width="918" height="256"/>
<path d="M90.6801 239.192H126.153V325.748H90.6801V239.192ZM108.554 303.014C94.8048 303.014 81.9724 300.64 70.0566 295.892C58.1408 291.144 47.6916 284.479 38.7089 275.896C29.7262 267.131 22.6684 256.814 17.5354 244.944C12.4024 232.892 9.83594 219.653 9.83594 205.227C9.83594 190.801 12.4024 177.653 17.5354 165.783C22.6684 153.731 29.7262 143.414 38.7089 134.831C47.6916 126.066 58.1408 119.309 70.0566 114.562C81.9724 109.814 94.8048 107.44 108.554 107.44C122.12 107.44 134.86 109.814 146.776 114.562C158.875 119.309 169.416 126.066 178.399 134.831C187.382 143.414 194.348 153.731 199.297 165.783C204.43 177.653 206.997 190.801 206.997 205.227C206.997 219.653 204.43 232.892 199.297 244.944C194.164 256.814 187.107 267.131 178.124 275.896C169.141 284.479 158.692 291.144 146.776 295.892C134.86 300.64 122.12 303.014 108.554 303.014ZM108.554 266.857C119.37 266.857 128.902 264.301 137.152 259.188C145.585 253.892 152.092 246.588 156.675 237.275C161.442 227.962 163.825 217.279 163.825 205.227C163.825 192.992 161.442 182.309 156.675 173.179C152.092 163.866 145.585 156.653 137.152 151.54C128.902 146.244 119.37 143.596 108.554 143.596C97.3713 143.596 87.6553 146.244 79.4059 151.54C71.1565 156.653 64.6487 163.866 59.8823 173.179C55.2993 182.309 53.0078 192.992 53.0078 205.227C53.0078 217.279 55.2993 227.962 59.8823 237.275C64.6487 246.588 71.1565 253.892 79.4059 259.188C87.6553 264.301 97.3713 266.857 108.554 266.857Z"/>
<path d="M355.299 301.096H318.727L315.977 286.031C311.394 291.144 305.986 295.253 299.753 298.357C293.704 301.462 287.012 303.014 279.68 303.014C269.414 303.014 260.523 300.731 253.007 296.166C245.49 291.601 239.624 284.935 235.408 276.17C231.191 267.222 229.083 256.54 229.083 244.122V164.14H269.23V239.192C269.23 248.322 271.064 255.262 274.73 260.009C278.58 264.757 284.354 267.131 292.054 267.131C299.387 267.131 305.069 264.666 309.103 259.735C313.136 254.805 315.152 247.775 315.152 238.644V164.14H355.299V301.096Z"/>
<path d="M465.416 301.096L462.666 284.114C457.9 289.957 452.767 294.522 447.267 297.809C441.768 301.096 434.435 302.74 425.269 302.74C416.653 302.74 408.953 301.279 402.17 298.357C395.388 295.253 389.98 290.779 385.947 284.935C382.097 279.092 380.172 272.062 380.172 263.844C380.172 252.522 384.205 243.118 392.271 235.631C400.521 228.144 413.261 223.488 430.493 221.662L462.666 218.101V209.062C462.666 205.957 461.108 202.944 457.991 200.022C455.058 196.918 450.384 195.366 443.967 195.366C438.285 195.366 433.335 196.827 429.119 199.748C425.085 202.67 422.336 206.87 420.869 212.348L386.497 200.022C390.53 187.788 397.587 178.475 407.67 172.083C417.936 165.509 430.585 162.222 445.617 162.222C464.316 162.222 478.523 166.879 488.239 176.192C497.955 185.505 502.813 198.014 502.813 213.718V301.096H465.416ZM462.666 242.753L437.093 245.766C431.96 246.496 428.019 248.14 425.269 250.696C422.702 253.07 421.419 256.083 421.419 259.735C421.419 263.205 422.886 266.127 425.819 268.501C428.752 270.875 432.785 272.062 437.918 272.062C443.051 272.062 447.451 271.057 451.117 269.048C454.783 266.857 457.625 263.844 459.641 260.009C461.658 255.992 462.666 251.062 462.666 245.218V242.753Z"/>
<path d="M531.761 103.879H571.908V301.096H531.761V103.879Z"/>
<path d="M607.611 164.14H647.758V301.096H607.611V164.14ZM627.684 150.17C620.168 150.17 614.027 147.979 609.261 143.596C604.678 139.031 602.386 133.553 602.386 127.162C602.386 120.588 604.678 115.109 609.261 110.727C614.027 106.162 620.168 103.879 627.684 103.879C635.017 103.879 640.975 106.162 645.558 110.727C650.324 115.109 652.708 120.588 652.708 127.162C652.708 133.553 650.324 139.031 645.558 143.596C640.975 147.979 635.017 150.17 627.684 150.17Z"/>
<path d="M693.94 164.14V125.792H734.912V164.14H763.235V199.475H734.912V248.779C734.912 254.988 736.286 259.37 739.036 261.927C741.969 264.483 745.636 265.853 750.035 266.035C754.435 266.035 758.835 265.67 763.235 264.94V299.727C753.885 301.37 744.994 301.827 736.561 301.096C728.129 300.548 720.704 298.357 714.288 294.522C708.055 290.688 703.106 285.027 699.439 277.54C695.773 270.053 693.94 260.466 693.94 248.779V199.475H674.691V164.14H693.94Z"/>
<path d="M880.389 164.14H923.836L842.442 355.879H801.47L828.693 294.796L774.247 164.14H819.068L849.591 246.04L880.389 164.14Z"/>
</mask>
<path d="M90.6801 239.192H126.153V325.748H90.6801V239.192ZM108.554 303.014C94.8048 303.014 81.9724 300.64 70.0566 295.892C58.1408 291.144 47.6916 284.479 38.7089 275.896C29.7262 267.131 22.6684 256.814 17.5354 244.944C12.4024 232.892 9.83594 219.653 9.83594 205.227C9.83594 190.801 12.4024 177.653 17.5354 165.783C22.6684 153.731 29.7262 143.414 38.7089 134.831C47.6916 126.066 58.1408 119.309 70.0566 114.562C81.9724 109.814 94.8048 107.44 108.554 107.44C122.12 107.44 134.86 109.814 146.776 114.562C158.875 119.309 169.416 126.066 178.399 134.831C187.382 143.414 194.348 153.731 199.297 165.783C204.43 177.653 206.997 190.801 206.997 205.227C206.997 219.653 204.43 232.892 199.297 244.944C194.164 256.814 187.107 267.131 178.124 275.896C169.141 284.479 158.692 291.144 146.776 295.892C134.86 300.64 122.12 303.014 108.554 303.014ZM108.554 266.857C119.37 266.857 128.902 264.301 137.152 259.188C145.585 253.892 152.092 246.588 156.675 237.275C161.442 227.962 163.825 217.279 163.825 205.227C163.825 192.992 161.442 182.309 156.675 173.179C152.092 163.866 145.585 156.653 137.152 151.54C128.902 146.244 119.37 143.596 108.554 143.596C97.3713 143.596 87.6553 146.244 79.4059 151.54C71.1565 156.653 64.6487 163.866 59.8823 173.179C55.2993 182.309 53.0078 192.992 53.0078 205.227C53.0078 217.279 55.2993 227.962 59.8823 237.275C64.6487 246.588 71.1565 253.892 79.4059 259.188C87.6553 264.301 97.3713 266.857 108.554 266.857Z" stroke="black" stroke-width="2.04383" mask="url(#path-1-outside-1_6278_4310)"/>
<path d="M355.299 301.096H318.727L315.977 286.031C311.394 291.144 305.986 295.253 299.753 298.357C293.704 301.462 287.012 303.014 279.68 303.014C269.414 303.014 260.523 300.731 253.007 296.166C245.49 291.601 239.624 284.935 235.408 276.17C231.191 267.222 229.083 256.54 229.083 244.122V164.14H269.23V239.192C269.23 248.322 271.064 255.262 274.73 260.009C278.58 264.757 284.354 267.131 292.054 267.131C299.387 267.131 305.069 264.666 309.103 259.735C313.136 254.805 315.152 247.775 315.152 238.644V164.14H355.299V301.096Z" stroke="black" stroke-width="2.04383" mask="url(#path-1-outside-1_6278_4310)"/>
<path d="M465.416 301.096L462.666 284.114C457.9 289.957 452.767 294.522 447.267 297.809C441.768 301.096 434.435 302.74 425.269 302.74C416.653 302.74 408.953 301.279 402.17 298.357C395.388 295.253 389.98 290.779 385.947 284.935C382.097 279.092 380.172 272.062 380.172 263.844C380.172 252.522 384.205 243.118 392.271 235.631C400.521 228.144 413.261 223.488 430.493 221.662L462.666 218.101V209.062C462.666 205.957 461.108 202.944 457.991 200.022C455.058 196.918 450.384 195.366 443.967 195.366C438.285 195.366 433.335 196.827 429.119 199.748C425.085 202.67 422.336 206.87 420.869 212.348L386.497 200.022C390.53 187.788 397.587 178.475 407.67 172.083C417.936 165.509 430.585 162.222 445.617 162.222C464.316 162.222 478.523 166.879 488.239 176.192C497.955 185.505 502.813 198.014 502.813 213.718V301.096H465.416ZM462.666 242.753L437.093 245.766C431.96 246.496 428.019 248.14 425.269 250.696C422.702 253.07 421.419 256.083 421.419 259.735C421.419 263.205 422.886 266.127 425.819 268.501C428.752 270.875 432.785 272.062 437.918 272.062C443.051 272.062 447.451 271.057 451.117 269.048C454.783 266.857 457.625 263.844 459.641 260.009C461.658 255.992 462.666 251.062 462.666 245.218V242.753Z" stroke="black" stroke-width="2.04383" mask="url(#path-1-outside-1_6278_4310)"/>
<path d="M531.761 103.879H571.908V301.096H531.761V103.879Z" stroke="black" stroke-width="2.04383" mask="url(#path-1-outside-1_6278_4310)"/>
<path d="M607.611 164.14H647.758V301.096H607.611V164.14ZM627.684 150.17C620.168 150.17 614.027 147.979 609.261 143.596C604.678 139.031 602.386 133.553 602.386 127.162C602.386 120.588 604.678 115.109 609.261 110.727C614.027 106.162 620.168 103.879 627.684 103.879C635.017 103.879 640.975 106.162 645.558 110.727C650.324 115.109 652.708 120.588 652.708 127.162C652.708 133.553 650.324 139.031 645.558 143.596C640.975 147.979 635.017 150.17 627.684 150.17Z" stroke="black" stroke-width="2.04383" mask="url(#path-1-outside-1_6278_4310)"/>
<path d="M693.94 164.14V125.792H734.912V164.14H763.235V199.475H734.912V248.779C734.912 254.988 736.286 259.37 739.036 261.927C741.969 264.483 745.636 265.853 750.035 266.035C754.435 266.035 758.835 265.67 763.235 264.94V299.727C753.885 301.37 744.994 301.827 736.561 301.096C728.129 300.548 720.704 298.357 714.288 294.522C708.055 290.688 703.106 285.027 699.439 277.54C695.773 270.053 693.94 260.466 693.94 248.779V199.475H674.691V164.14H693.94Z" stroke="black" stroke-width="2.04383" mask="url(#path-1-outside-1_6278_4310)"/>
<path d="M880.389 164.14H923.836L842.442 355.879H801.47L828.693 294.796L774.247 164.14H819.068L849.591 246.04L880.389 164.14Z" stroke="black" stroke-width="2.04383" mask="url(#path-1-outside-1_6278_4310)"/>
<mask id="path-2-outside-2_6278_4310" maskUnits="userSpaceOnUse" x="0" y="97.2422" width="918" height="256" fill="black">
<rect fill="white" y="97.2422" width="918" height="256"/>
<path d="M82.8442 234.555H118.317V321.112H82.8442V234.555ZM100.718 298.377C86.9689 298.377 74.1365 296.003 62.2207 291.255C50.3049 286.507 39.8556 279.842 30.8729 271.26C21.8902 262.494 14.8324 252.177 9.69945 240.307C4.56648 228.255 2 215.016 2 200.59C2 186.164 4.56648 173.016 9.69945 161.147C14.8324 149.094 21.8902 138.777 30.8729 130.194C39.8556 121.429 50.3049 114.673 62.2207 109.925C74.1365 105.177 86.9689 102.803 100.718 102.803C114.284 102.803 127.024 105.177 138.94 109.925C151.039 114.673 161.58 121.429 170.563 130.194C179.546 138.777 186.512 149.094 191.461 161.147C196.594 173.016 199.161 186.164 199.161 200.59C199.161 215.016 196.594 228.255 191.461 240.307C186.328 252.177 179.271 262.494 170.288 271.26C161.305 279.842 150.856 286.507 138.94 291.255C127.024 296.003 114.284 298.377 100.718 298.377ZM100.718 262.22C111.534 262.22 121.066 259.664 129.316 254.551C137.749 249.255 144.256 241.951 148.839 232.638C153.606 223.325 155.989 212.642 155.989 200.59C155.989 188.355 153.606 177.673 148.839 168.542C144.256 159.229 137.749 152.016 129.316 146.903C121.066 141.607 111.534 138.96 100.718 138.96C89.5354 138.96 79.8194 141.607 71.57 146.903C63.3206 152.016 56.8127 159.229 52.0464 168.542C47.4634 177.673 45.1719 188.355 45.1719 200.59C45.1719 212.642 47.4634 223.325 52.0464 232.638C56.8127 241.951 63.3206 249.255 71.57 254.551C79.8194 259.664 89.5354 262.22 100.718 262.22Z"/>
<path d="M347.463 296.46H310.891L308.141 281.394C303.558 286.507 298.15 290.616 291.917 293.72C285.868 296.825 279.177 298.377 271.844 298.377C261.578 298.377 252.687 296.094 245.171 291.529C237.654 286.964 231.788 280.299 227.572 271.533C223.356 262.586 221.247 251.903 221.247 239.486V159.503H261.394V234.555C261.394 243.686 263.228 250.625 266.894 255.373C270.744 260.12 276.518 262.494 284.218 262.494C291.551 262.494 297.234 260.029 301.267 255.099C305.3 250.168 307.316 243.138 307.316 234.007V159.503H347.463V296.46Z"/>
<path d="M457.58 296.46L454.83 279.477C450.064 285.32 444.931 289.886 439.431 293.173C433.932 296.46 426.599 298.103 417.433 298.103C408.817 298.103 401.117 296.642 394.335 293.72C387.552 290.616 382.144 286.142 378.111 280.299C374.261 274.455 372.336 267.425 372.336 259.207C372.336 247.886 376.369 238.481 384.435 230.994C392.685 223.507 405.425 218.851 422.657 217.025L454.83 213.464V204.425C454.83 201.32 453.272 198.307 450.156 195.386C447.222 192.281 442.548 190.729 436.132 190.729C430.449 190.729 425.499 192.19 421.283 195.112C417.25 198.033 414.5 202.233 413.033 207.712L378.661 195.386C382.694 183.151 389.752 173.838 399.834 167.447C410.1 160.873 422.749 157.586 437.781 157.586C456.48 157.586 470.687 162.242 480.403 171.555C490.119 180.868 494.977 193.377 494.977 209.081V296.46H457.58ZM454.83 238.116L429.257 241.129C424.124 241.86 420.183 243.503 417.433 246.06C414.866 248.433 413.583 251.447 413.583 255.099C413.583 258.568 415.05 261.49 417.983 263.864C420.916 266.238 424.949 267.425 430.082 267.425C435.215 267.425 439.615 266.42 443.281 264.412C446.947 262.22 449.789 259.207 451.805 255.373C453.822 251.355 454.83 246.425 454.83 240.581V238.116Z"/>
<path d="M523.925 99.2422H564.073V296.46H523.925V99.2422Z"/>
<path d="M599.775 159.503H639.922V296.46H599.775V159.503ZM619.848 145.533C612.332 145.533 606.191 143.342 601.425 138.96C596.842 134.394 594.55 128.916 594.55 122.525C594.55 115.951 596.842 110.473 601.425 106.09C606.191 101.525 612.332 99.2422 619.848 99.2422C627.181 99.2422 633.139 101.525 637.722 106.09C642.488 110.473 644.872 115.951 644.872 122.525C644.872 128.916 642.488 134.394 637.722 138.96C633.139 143.342 627.181 145.533 619.848 145.533Z"/>
<path d="M686.104 159.503V121.155H727.076V159.503H755.399V194.838H727.076V244.142C727.076 250.351 728.451 254.733 731.2 257.29C734.133 259.847 737.8 261.216 742.2 261.399C746.599 261.399 750.999 261.033 755.399 260.303V295.09C746.049 296.733 737.158 297.19 728.726 296.46C720.293 295.912 712.868 293.72 706.452 289.886C700.219 286.051 695.27 280.39 691.603 272.903C687.937 265.416 686.104 255.829 686.104 244.142V194.838H666.855V159.503H686.104Z"/>
<path d="M872.553 159.503H916L834.606 351.242H793.634L820.857 290.16L766.411 159.503H811.233L841.755 241.403L872.553 159.503Z"/>
</mask>
<path d="M82.8442 234.555H118.317V321.112H82.8442V234.555ZM100.718 298.377C86.9689 298.377 74.1365 296.003 62.2207 291.255C50.3049 286.507 39.8556 279.842 30.8729 271.26C21.8902 262.494 14.8324 252.177 9.69945 240.307C4.56648 228.255 2 215.016 2 200.59C2 186.164 4.56648 173.016 9.69945 161.147C14.8324 149.094 21.8902 138.777 30.8729 130.194C39.8556 121.429 50.3049 114.673 62.2207 109.925C74.1365 105.177 86.9689 102.803 100.718 102.803C114.284 102.803 127.024 105.177 138.94 109.925C151.039 114.673 161.58 121.429 170.563 130.194C179.546 138.777 186.512 149.094 191.461 161.147C196.594 173.016 199.161 186.164 199.161 200.59C199.161 215.016 196.594 228.255 191.461 240.307C186.328 252.177 179.271 262.494 170.288 271.26C161.305 279.842 150.856 286.507 138.94 291.255C127.024 296.003 114.284 298.377 100.718 298.377ZM100.718 262.22C111.534 262.22 121.066 259.664 129.316 254.551C137.749 249.255 144.256 241.951 148.839 232.638C153.606 223.325 155.989 212.642 155.989 200.59C155.989 188.355 153.606 177.673 148.839 168.542C144.256 159.229 137.749 152.016 129.316 146.903C121.066 141.607 111.534 138.96 100.718 138.96C89.5354 138.96 79.8194 141.607 71.57 146.903C63.3206 152.016 56.8127 159.229 52.0464 168.542C47.4634 177.673 45.1719 188.355 45.1719 200.59C45.1719 212.642 47.4634 223.325 52.0464 232.638C56.8127 241.951 63.3206 249.255 71.57 254.551C79.8194 259.664 89.5354 262.22 100.718 262.22Z" fill="black"/>
<path d="M347.463 296.46H310.891L308.141 281.394C303.558 286.507 298.15 290.616 291.917 293.72C285.868 296.825 279.177 298.377 271.844 298.377C261.578 298.377 252.687 296.094 245.171 291.529C237.654 286.964 231.788 280.299 227.572 271.533C223.356 262.586 221.247 251.903 221.247 239.486V159.503H261.394V234.555C261.394 243.686 263.228 250.625 266.894 255.373C270.744 260.12 276.518 262.494 284.218 262.494C291.551 262.494 297.234 260.029 301.267 255.099C305.3 250.168 307.316 243.138 307.316 234.007V159.503H347.463V296.46Z" fill="black"/>
<path d="M457.58 296.46L454.83 279.477C450.064 285.32 444.931 289.886 439.431 293.173C433.932 296.46 426.599 298.103 417.433 298.103C408.817 298.103 401.117 296.642 394.335 293.72C387.552 290.616 382.144 286.142 378.111 280.299C374.261 274.455 372.336 267.425 372.336 259.207C372.336 247.886 376.369 238.481 384.435 230.994C392.685 223.507 405.425 218.851 422.657 217.025L454.83 213.464V204.425C454.83 201.32 453.272 198.307 450.156 195.386C447.222 192.281 442.548 190.729 436.132 190.729C430.449 190.729 425.499 192.19 421.283 195.112C417.25 198.033 414.5 202.233 413.033 207.712L378.661 195.386C382.694 183.151 389.752 173.838 399.834 167.447C410.1 160.873 422.749 157.586 437.781 157.586C456.48 157.586 470.687 162.242 480.403 171.555C490.119 180.868 494.977 193.377 494.977 209.081V296.46H457.58ZM454.83 238.116L429.257 241.129C424.124 241.86 420.183 243.503 417.433 246.06C414.866 248.433 413.583 251.447 413.583 255.099C413.583 258.568 415.05 261.49 417.983 263.864C420.916 266.238 424.949 267.425 430.082 267.425C435.215 267.425 439.615 266.42 443.281 264.412C446.947 262.22 449.789 259.207 451.805 255.373C453.822 251.355 454.83 246.425 454.83 240.581V238.116Z" fill="black"/>
<path d="M523.925 99.2422H564.073V296.46H523.925V99.2422Z" fill="black"/>
<path d="M599.775 159.503H639.922V296.46H599.775V159.503ZM619.848 145.533C612.332 145.533 606.191 143.342 601.425 138.96C596.842 134.394 594.55 128.916 594.55 122.525C594.55 115.951 596.842 110.473 601.425 106.09C606.191 101.525 612.332 99.2422 619.848 99.2422C627.181 99.2422 633.139 101.525 637.722 106.09C642.488 110.473 644.872 115.951 644.872 122.525C644.872 128.916 642.488 134.394 637.722 138.96C633.139 143.342 627.181 145.533 619.848 145.533Z" fill="black"/>
<path d="M686.104 159.503V121.155H727.076V159.503H755.399V194.838H727.076V244.142C727.076 250.351 728.451 254.733 731.2 257.29C734.133 259.847 737.8 261.216 742.2 261.399C746.599 261.399 750.999 261.033 755.399 260.303V295.09C746.049 296.733 737.158 297.19 728.726 296.46C720.293 295.912 712.868 293.72 706.452 289.886C700.219 286.051 695.27 280.39 691.603 272.903C687.937 265.416 686.104 255.829 686.104 244.142V194.838H666.855V159.503H686.104Z" fill="black"/>
<path d="M872.553 159.503H916L834.606 351.242H793.634L820.857 290.16L766.411 159.503H811.233L841.755 241.403L872.553 159.503Z" fill="black"/>
<path d="M82.8442 234.555H118.317V321.112H82.8442V234.555ZM100.718 298.377C86.9689 298.377 74.1365 296.003 62.2207 291.255C50.3049 286.507 39.8556 279.842 30.8729 271.26C21.8902 262.494 14.8324 252.177 9.69945 240.307C4.56648 228.255 2 215.016 2 200.59C2 186.164 4.56648 173.016 9.69945 161.147C14.8324 149.094 21.8902 138.777 30.8729 130.194C39.8556 121.429 50.3049 114.673 62.2207 109.925C74.1365 105.177 86.9689 102.803 100.718 102.803C114.284 102.803 127.024 105.177 138.94 109.925C151.039 114.673 161.58 121.429 170.563 130.194C179.546 138.777 186.512 149.094 191.461 161.147C196.594 173.016 199.161 186.164 199.161 200.59C199.161 215.016 196.594 228.255 191.461 240.307C186.328 252.177 179.271 262.494 170.288 271.26C161.305 279.842 150.856 286.507 138.94 291.255C127.024 296.003 114.284 298.377 100.718 298.377ZM100.718 262.22C111.534 262.22 121.066 259.664 129.316 254.551C137.749 249.255 144.256 241.951 148.839 232.638C153.606 223.325 155.989 212.642 155.989 200.59C155.989 188.355 153.606 177.673 148.839 168.542C144.256 159.229 137.749 152.016 129.316 146.903C121.066 141.607 111.534 138.96 100.718 138.96C89.5354 138.96 79.8194 141.607 71.57 146.903C63.3206 152.016 56.8127 159.229 52.0464 168.542C47.4634 177.673 45.1719 188.355 45.1719 200.59C45.1719 212.642 47.4634 223.325 52.0464 232.638C56.8127 241.951 63.3206 249.255 71.57 254.551C79.8194 259.664 89.5354 262.22 100.718 262.22Z" stroke="white" stroke-width="2.04383" mask="url(#path-2-outside-2_6278_4310)"/>
<path d="M347.463 296.46H310.891L308.141 281.394C303.558 286.507 298.15 290.616 291.917 293.72C285.868 296.825 279.177 298.377 271.844 298.377C261.578 298.377 252.687 296.094 245.171 291.529C237.654 286.964 231.788 280.299 227.572 271.533C223.356 262.586 221.247 251.903 221.247 239.486V159.503H261.394V234.555C261.394 243.686 263.228 250.625 266.894 255.373C270.744 260.12 276.518 262.494 284.218 262.494C291.551 262.494 297.234 260.029 301.267 255.099C305.3 250.168 307.316 243.138 307.316 234.007V159.503H347.463V296.46Z" stroke="white" stroke-width="2.04383" mask="url(#path-2-outside-2_6278_4310)"/>
<path d="M457.58 296.46L454.83 279.477C450.064 285.32 444.931 289.886 439.431 293.173C433.932 296.46 426.599 298.103 417.433 298.103C408.817 298.103 401.117 296.642 394.335 293.72C387.552 290.616 382.144 286.142 378.111 280.299C374.261 274.455 372.336 267.425 372.336 259.207C372.336 247.886 376.369 238.481 384.435 230.994C392.685 223.507 405.425 218.851 422.657 217.025L454.83 213.464V204.425C454.83 201.32 453.272 198.307 450.156 195.386C447.222 192.281 442.548 190.729 436.132 190.729C430.449 190.729 425.499 192.19 421.283 195.112C417.25 198.033 414.5 202.233 413.033 207.712L378.661 195.386C382.694 183.151 389.752 173.838 399.834 167.447C410.1 160.873 422.749 157.586 437.781 157.586C456.48 157.586 470.687 162.242 480.403 171.555C490.119 180.868 494.977 193.377 494.977 209.081V296.46H457.58ZM454.83 238.116L429.257 241.129C424.124 241.86 420.183 243.503 417.433 246.06C414.866 248.433 413.583 251.447 413.583 255.099C413.583 258.568 415.05 261.49 417.983 263.864C420.916 266.238 424.949 267.425 430.082 267.425C435.215 267.425 439.615 266.42 443.281 264.412C446.947 262.22 449.789 259.207 451.805 255.373C453.822 251.355 454.83 246.425 454.83 240.581V238.116Z" stroke="white" stroke-width="2.04383" mask="url(#path-2-outside-2_6278_4310)"/>
<path d="M523.925 99.2422H564.073V296.46H523.925V99.2422Z" stroke="white" stroke-width="2.04383" mask="url(#path-2-outside-2_6278_4310)"/>
<path d="M599.775 159.503H639.922V296.46H599.775V159.503ZM619.848 145.533C612.332 145.533 606.191 143.342 601.425 138.96C596.842 134.394 594.55 128.916 594.55 122.525C594.55 115.951 596.842 110.473 601.425 106.09C606.191 101.525 612.332 99.2422 619.848 99.2422C627.181 99.2422 633.139 101.525 637.722 106.09C642.488 110.473 644.872 115.951 644.872 122.525C644.872 128.916 642.488 134.394 637.722 138.96C633.139 143.342 627.181 145.533 619.848 145.533Z" stroke="white" stroke-width="2.04383" mask="url(#path-2-outside-2_6278_4310)"/>
<path d="M686.104 159.503V121.155H727.076V159.503H755.399V194.838H727.076V244.142C727.076 250.351 728.451 254.733 731.2 257.29C734.133 259.847 737.8 261.216 742.2 261.399C746.599 261.399 750.999 261.033 755.399 260.303V295.09C746.049 296.733 737.158 297.19 728.726 296.46C720.293 295.912 712.868 293.72 706.452 289.886C700.219 286.051 695.27 280.39 691.603 272.903C687.937 265.416 686.104 255.829 686.104 244.142V194.838H666.855V159.503H686.104Z" stroke="white" stroke-width="2.04383" mask="url(#path-2-outside-2_6278_4310)"/>
<path d="M872.553 159.503H916L834.606 351.242H793.634L820.857 290.16L766.411 159.503H811.233L841.755 241.403L872.553 159.503Z" stroke="white" stroke-width="2.04383" mask="url(#path-2-outside-2_6278_4310)"/>
<path d="M276.728 422H272.336V371.6H277.088L296.6 416.024L316.04 371.6H320.792V422H316.4V380.456L298.184 422H294.944L276.728 380.456V422ZM356.046 422L355.758 414.368C354.75 416.96 353.166 418.976 351.006 420.416C348.894 421.808 346.206 422.504 342.942 422.504C340.35 422.504 338.142 422.12 336.318 421.352C334.494 420.536 333.078 419.384 332.07 417.896C331.11 416.408 330.63 414.632 330.63 412.568C330.63 409.544 331.758 407.096 334.014 405.224C336.27 403.304 339.63 402.128 344.094 401.696L355.758 400.4V397.376C355.758 394.88 354.918 392.936 353.238 391.544C351.606 390.104 349.326 389.384 346.398 389.384C343.614 389.384 341.286 390.032 339.414 391.328C337.59 392.624 336.366 394.472 335.742 396.872L331.998 395.576C332.91 392.36 334.614 389.888 337.11 388.16C339.606 386.384 342.726 385.496 346.47 385.496C350.694 385.496 353.982 386.552 356.334 388.664C358.686 390.776 359.862 393.68 359.862 397.376V422H356.046ZM355.758 403.928L344.022 405.296C340.95 405.632 338.67 406.4 337.182 407.6C335.742 408.752 335.022 410.336 335.022 412.352C335.022 414.368 335.718 415.952 337.11 417.104C338.55 418.256 340.59 418.832 343.23 418.832C346.014 418.832 348.318 418.28 350.142 417.176C352.014 416.024 353.406 414.464 354.318 412.496C355.278 410.48 355.758 408.224 355.758 405.728V403.928ZM370.83 386H374.646L374.862 392.552C375.87 390.344 377.358 388.616 379.326 387.368C381.342 386.12 383.79 385.496 386.67 385.496C389.358 385.496 391.734 386.096 393.798 387.296C395.91 388.448 397.542 390.2 398.694 392.552C399.894 394.856 400.494 397.808 400.494 401.408V422H396.39V401.84C396.39 397.76 395.478 394.64 393.654 392.48C391.83 390.32 389.286 389.24 386.022 389.24C382.566 389.24 379.854 390.392 377.886 392.696C375.918 395 374.934 398.432 374.934 402.992V422H370.83V386ZM434.585 422L434.297 414.368C433.289 416.96 431.705 418.976 429.545 420.416C427.433 421.808 424.745 422.504 421.481 422.504C418.889 422.504 416.681 422.12 414.857 421.352C413.033 420.536 411.617 419.384 410.609 417.896C409.649 416.408 409.169 414.632 409.169 412.568C409.169 409.544 410.297 407.096 412.553 405.224C414.809 403.304 418.169 402.128 422.633 401.696L434.297 400.4V397.376C434.297 394.88 433.457 392.936 431.777 391.544C430.145 390.104 427.865 389.384 424.937 389.384C422.153 389.384 419.825 390.032 417.953 391.328C416.129 392.624 414.905 394.472 414.281 396.872L410.537 395.576C411.449 392.36 413.153 389.888 415.649 388.16C418.145 386.384 421.265 385.496 425.009 385.496C429.233 385.496 432.521 386.552 434.873 388.664C437.225 390.776 438.401 393.68 438.401 397.376V422H434.585ZM434.297 403.928L422.561 405.296C419.489 405.632 417.209 406.4 415.721 407.6C414.281 408.752 413.561 410.336 413.561 412.352C413.561 414.368 414.257 415.952 415.649 417.104C417.089 418.256 419.129 418.832 421.769 418.832C424.553 418.832 426.857 418.28 428.681 417.176C430.553 416.024 431.945 414.464 432.857 412.496C433.817 410.48 434.297 408.224 434.297 405.728V403.928ZM477.593 386H481.409V414.8C481.409 419.36 480.425 423.248 478.457 426.464C476.489 429.68 473.633 432.128 469.889 433.808C466.193 435.536 461.657 436.4 456.281 436.4L455.633 432.584C462.689 432.536 468.065 431 471.761 427.976C475.457 424.952 477.305 420.56 477.305 414.8V413.504L477.665 413.648C476.657 416.048 475.001 418.112 472.697 419.84C470.393 421.568 467.369 422.456 463.625 422.504C460.265 422.504 457.337 421.76 454.841 420.272C452.393 418.736 450.473 416.576 449.081 413.792C447.737 411.008 447.065 407.744 447.065 404C447.065 400.256 447.737 397.016 449.081 394.28C450.473 391.496 452.393 389.336 454.841 387.8C457.337 386.264 460.265 385.496 463.625 385.496C466.025 385.496 468.113 385.88 469.889 386.648C471.713 387.416 473.225 388.448 474.425 389.744C475.673 390.992 476.633 392.384 477.305 393.92L477.593 386ZM451.457 404C451.457 408.512 452.609 412.088 454.913 414.728C457.265 417.368 460.457 418.688 464.489 418.688C466.937 418.688 469.121 418.088 471.041 416.888C473.009 415.688 474.545 413.984 475.649 411.776C476.753 409.568 477.305 406.976 477.305 404C477.305 400.976 476.753 398.384 475.649 396.224C474.545 394.016 473.009 392.312 471.041 391.112C469.121 389.912 466.937 389.312 464.489 389.312C460.505 389.312 457.337 390.656 454.985 393.344C452.633 395.984 451.457 399.536 451.457 404ZM492.823 386H496.639L496.927 392.552C497.839 390.44 499.231 388.736 501.103 387.44C502.975 386.144 505.375 385.496 508.303 385.496C510.991 385.496 513.415 386.192 515.575 387.584C517.735 388.976 519.343 391.088 520.399 393.92C521.407 391.04 523.063 388.928 525.367 387.584C527.671 386.192 530.263 385.496 533.143 385.496C535.783 385.496 538.135 386.096 540.199 387.296C542.263 388.448 543.871 390.2 545.023 392.552C546.175 394.904 546.751 397.856 546.751 401.408V422H542.647V401.84C542.647 397.76 541.759 394.664 539.983 392.552C538.207 390.392 535.711 389.312 532.495 389.312C529.183 389.312 526.543 390.488 524.575 392.84C522.655 395.192 521.695 398.648 521.695 403.208V422H517.519V401.84C517.519 397.76 516.655 394.664 514.927 392.552C513.247 390.392 510.799 389.312 507.583 389.312C504.271 389.312 501.655 390.488 499.735 392.84C497.863 395.192 496.927 398.648 496.927 403.208V422H492.823V386ZM572.411 422.504C569.051 422.504 566.075 421.712 563.483 420.128C560.939 418.496 558.947 416.264 557.507 413.432C556.067 410.6 555.347 407.336 555.347 403.64C555.347 400.136 556.067 397.016 557.507 394.28C558.995 391.544 561.011 389.408 563.555 387.872C566.099 386.288 569.003 385.496 572.267 385.496C575.483 385.496 578.339 386.216 580.835 387.656C583.379 389.048 585.347 390.992 586.739 393.488C588.179 395.936 588.875 398.744 588.827 401.912C588.827 402.392 588.803 402.92 588.755 403.496C588.755 404.024 588.731 404.6 588.683 405.224H559.811C559.859 407.864 560.435 410.192 561.539 412.208C562.643 414.224 564.107 415.808 565.931 416.96C567.803 418.064 569.915 418.616 572.267 418.616C575.243 418.616 577.787 418.016 579.899 416.816C582.059 415.568 583.619 413.816 584.579 411.56L588.107 413C586.763 416.072 584.723 418.424 581.987 420.056C579.251 421.688 576.059 422.504 572.411 422.504ZM584.363 401.624C584.411 399.224 583.931 397.112 582.923 395.288C581.915 393.464 580.475 392.024 578.603 390.968C576.779 389.912 574.619 389.384 572.123 389.384C569.915 389.384 567.923 389.912 566.147 390.968C564.371 392.024 562.907 393.488 561.755 395.36C560.651 397.184 560.003 399.272 559.811 401.624H584.363ZM598.01 386H601.826L602.042 392.552C603.05 390.344 604.538 388.616 606.506 387.368C608.522 386.12 610.97 385.496 613.85 385.496C616.538 385.496 618.914 386.096 620.978 387.296C623.09 388.448 624.722 390.2 625.874 392.552C627.074 394.856 627.674 397.808 627.674 401.408V422H623.57V401.84C623.57 397.76 622.658 394.64 620.834 392.48C619.01 390.32 616.466 389.24 613.202 389.24C609.746 389.24 607.034 390.392 605.066 392.696C603.098 395 602.114 398.432 602.114 402.992V422H598.01V386ZM640.956 386V375.92H645.06V386H655.14V389.816H645.06V411.056C645.06 413.168 645.54 414.8 646.5 415.952C647.508 417.104 648.78 417.848 650.316 418.184C651.852 418.472 653.46 418.472 655.14 418.184V421.712C653.412 422.144 651.684 422.264 649.956 422.072C648.276 421.88 646.74 421.352 645.348 420.488C644.004 419.576 642.924 418.352 642.108 416.816C641.34 415.28 640.956 413.36 640.956 411.056V389.816H635.34V386H640.956Z" fill="black"/>
<path d="M26.8248 19.6H37.9128V54.304C37.9128 57.76 37.2168 60.688 35.8248 63.088C34.4328 65.488 32.5128 67.336 30.0648 68.632C27.6168 69.88 24.7848 70.504 21.5688 70.504C17.3928 70.504 13.9128 69.496 11.1288 67.48C8.34481 65.464 6.49681 62.536 5.58481 58.696L15.5208 56.392C15.7608 57.4 16.1448 58.264 16.6728 58.984C17.2488 59.704 17.9208 60.256 18.6888 60.64C19.4568 61.024 20.3208 61.216 21.2808 61.216C22.3848 61.216 23.3448 60.952 24.1608 60.424C25.0248 59.896 25.6728 59.152 26.1048 58.192C26.5848 57.232 26.8248 56.128 26.8248 54.88V19.6ZM71.0204 28.888H68.5004L54.1004 70H42.6524L60.8684 19.6H78.8684L97.0124 70H85.5644L71.0204 28.888ZM54.8204 49.84H84.1964V59.128H54.8204V49.84ZM123.262 42.352C124.99 42.352 126.406 42.088 127.51 41.56C128.614 41.032 129.43 40.264 129.958 39.256C130.534 38.2 130.822 36.976 130.822 35.584C130.822 33.52 130.198 31.888 128.95 30.688C127.75 29.488 125.854 28.888 123.262 28.888H112.966V42.352H123.262ZM142.126 35.584C142.126 37.552 141.766 39.496 141.046 41.416C140.374 43.288 139.294 45.016 137.806 46.6C136.366 48.136 134.47 49.36 132.118 50.272C129.814 51.184 127.054 51.64 123.838 51.64H112.966V70H101.878V19.6H123.838C127.918 19.6 131.302 20.344 133.99 21.832C136.726 23.272 138.766 25.216 140.11 27.664C141.454 30.064 142.126 32.704 142.126 35.584ZM148.917 19.6H185.493V28.888H160.005V40.048H179.085V48.832H160.005V70H148.917V19.6ZM209.606 28.888H207.086L192.686 70H181.238L199.454 19.6H217.454L235.598 70H224.15L209.606 28.888ZM193.406 49.84H222.782V59.128H193.406V49.84Z" fill="#EC691F"/>
</svg>
