<svg width="676" height="371" viewBox="0 0 676 371" fill="none" xmlns="http://www.w3.org/2000/svg">
<mask id="path-1-outside-1_5071_11286" maskUnits="userSpaceOnUse" x="13.2002" y="67" width="663" height="304" fill="black">
<rect fill="white" x="13.2002" y="67" width="663" height="304"/>
<path d="M76.0002 69H110.8V163.6C110.8 173.733 108.8 182.267 104.8 189.2C100.934 196.133 95.4002 201.4 88.2002 205C81.1335 208.6 72.9335 210.4 63.6002 210.4C51.2002 210.4 40.8002 207.4 32.4002 201.4C24.1335 195.267 18.7335 186.333 16.2002 174.6L48.0002 168.4C48.5335 171.2 49.4669 173.6 50.8002 175.6C52.2669 177.467 54.0002 178.867 56.0002 179.8C58.0002 180.733 60.1335 181.2 62.4002 181.2C65.0669 181.2 67.4002 180.6 69.4002 179.4C71.5335 178.2 73.1335 176.4 74.2002 174C75.4002 171.6 76.0002 168.733 76.0002 165.4V69Z"/>
<path d="M204.305 98.2H197.305L158.505 209H122.505L173.705 69H228.905L279.705 209H243.705L204.305 98.2ZM159.905 151.8H241.505V181H159.905V151.8Z"/>
<path d="M353.88 131.2C358.013 131.2 361.413 130.6 364.08 129.4C366.88 128.067 368.947 126.133 370.28 123.6C371.747 121.067 372.48 118.067 372.48 114.6C372.48 109.533 370.947 105.533 367.88 102.6C364.813 99.6667 360.147 98.2 353.88 98.2H326.48V131.2H353.88ZM407.88 114.6C407.88 120.2 406.813 125.733 404.68 131.2C402.68 136.667 399.547 141.6 395.28 146C391.147 150.4 385.813 153.933 379.28 156.6C372.747 159.133 365.013 160.4 356.08 160.4H326.48V209H291.68V69H356.08C367.68 69 377.28 71.1333 384.88 75.4C392.613 79.5333 398.347 85.0667 402.08 92C405.947 98.9333 407.88 106.467 407.88 114.6Z"/>
<path d="M424.492 69H529.492V98.2H459.292V124.4H511.692V151.6H459.292V209H424.492V69Z"/>
<path d="M597.078 98.2H590.078L551.278 209H515.278L566.478 69H621.678L672.478 209H636.478L597.078 98.2ZM552.678 151.8H634.278V181H552.678V151.8Z"/>
<path d="M142 229V369H107L54.8002 284.2V369H20.0002V229H55.0002L107.2 314.4V229H142Z"/>
<path d="M268.946 258.2H198.746V284.4H251.146V311.6H198.746V339.8H268.946V369H163.946V229H268.946V258.2Z"/>
<path d="M391.992 258.2H321.792V284.4H374.192V311.6H321.792V339.8H391.992V369H286.992V229H391.992V258.2Z"/>
<path d="M404.639 229H526.439V258.2H482.839V369H448.039V258.2H404.639V229Z"/>
<path d="M542.852 229H577.652V369H542.852V229Z"/>
</mask>
<path d="M76.0002 69H110.8V163.6C110.8 173.733 108.8 182.267 104.8 189.2C100.934 196.133 95.4002 201.4 88.2002 205C81.1335 208.6 72.9335 210.4 63.6002 210.4C51.2002 210.4 40.8002 207.4 32.4002 201.4C24.1335 195.267 18.7335 186.333 16.2002 174.6L48.0002 168.4C48.5335 171.2 49.4669 173.6 50.8002 175.6C52.2669 177.467 54.0002 178.867 56.0002 179.8C58.0002 180.733 60.1335 181.2 62.4002 181.2C65.0669 181.2 67.4002 180.6 69.4002 179.4C71.5335 178.2 73.1335 176.4 74.2002 174C75.4002 171.6 76.0002 168.733 76.0002 165.4V69Z" stroke="#1E140F" stroke-width="4" mask="url(#path-1-outside-1_5071_11286)"/>
<path d="M204.305 98.2H197.305L158.505 209H122.505L173.705 69H228.905L279.705 209H243.705L204.305 98.2ZM159.905 151.8H241.505V181H159.905V151.8Z" stroke="#1E140F" stroke-width="4" mask="url(#path-1-outside-1_5071_11286)"/>
<path d="M353.88 131.2C358.013 131.2 361.413 130.6 364.08 129.4C366.88 128.067 368.947 126.133 370.28 123.6C371.747 121.067 372.48 118.067 372.48 114.6C372.48 109.533 370.947 105.533 367.88 102.6C364.813 99.6667 360.147 98.2 353.88 98.2H326.48V131.2H353.88ZM407.88 114.6C407.88 120.2 406.813 125.733 404.68 131.2C402.68 136.667 399.547 141.6 395.28 146C391.147 150.4 385.813 153.933 379.28 156.6C372.747 159.133 365.013 160.4 356.08 160.4H326.48V209H291.68V69H356.08C367.68 69 377.28 71.1333 384.88 75.4C392.613 79.5333 398.347 85.0667 402.08 92C405.947 98.9333 407.88 106.467 407.88 114.6Z" stroke="#1E140F" stroke-width="4" mask="url(#path-1-outside-1_5071_11286)"/>
<path d="M424.492 69H529.492V98.2H459.292V124.4H511.692V151.6H459.292V209H424.492V69Z" stroke="#1E140F" stroke-width="4" mask="url(#path-1-outside-1_5071_11286)"/>
<path d="M597.078 98.2H590.078L551.278 209H515.278L566.478 69H621.678L672.478 209H636.478L597.078 98.2ZM552.678 151.8H634.278V181H552.678V151.8Z" stroke="#1E140F" stroke-width="4" mask="url(#path-1-outside-1_5071_11286)"/>
<path d="M142 229V369H107L54.8002 284.2V369H20.0002V229H55.0002L107.2 314.4V229H142Z" stroke="#1E140F" stroke-width="4" mask="url(#path-1-outside-1_5071_11286)"/>
<path d="M268.946 258.2H198.746V284.4H251.146V311.6H198.746V339.8H268.946V369H163.946V229H268.946V258.2Z" stroke="#1E140F" stroke-width="4" mask="url(#path-1-outside-1_5071_11286)"/>
<path d="M391.992 258.2H321.792V284.4H374.192V311.6H321.792V339.8H391.992V369H286.992V229H391.992V258.2Z" stroke="#1E140F" stroke-width="4" mask="url(#path-1-outside-1_5071_11286)"/>
<path d="M404.639 229H526.439V258.2H482.839V369H448.039V258.2H404.639V229Z" stroke="#1E140F" stroke-width="4" mask="url(#path-1-outside-1_5071_11286)"/>
<path d="M542.852 229H577.652V369H542.852V229Z" stroke="#1E140F" stroke-width="4" mask="url(#path-1-outside-1_5071_11286)"/>
<path d="M136 221V361H101L48.8002 276.2V361H14.0002V221H49.0002L101.2 306.4V221H136Z" fill="url(#paint0_linear_5071_11286)"/>
<path d="M262.946 250.2H192.746V276.4H245.146V303.6H192.746V331.8H262.946V361H157.946V221H262.946V250.2Z" fill="url(#paint1_linear_5071_11286)"/>
<path d="M385.992 250.2H315.792V276.4H368.192V303.6H315.792V331.8H385.992V361H280.992V221H385.992V250.2Z" fill="url(#paint2_linear_5071_11286)"/>
<path d="M398.639 221H520.439V250.2H476.839V361H442.039V250.2H398.639V221Z" fill="url(#paint3_linear_5071_11286)"/>
<path d="M536.852 221H571.652V361H536.852V221Z" fill="url(#paint4_linear_5071_11286)"/>
<path d="M70.0002 61H104.8V155.6C104.8 165.733 102.8 174.267 98.8002 181.2C94.9335 188.133 89.4002 193.4 82.2002 197C75.1335 200.6 66.9335 202.4 57.6002 202.4C45.2002 202.4 34.8002 199.4 26.4002 193.4C18.1335 187.267 12.7335 178.333 10.2002 166.6L42.0002 160.4C42.5335 163.2 43.4669 165.6 44.8002 167.6C46.2669 169.467 48.0002 170.867 50.0002 171.8C52.0002 172.733 54.1335 173.2 56.4002 173.2C59.0669 173.2 61.4002 172.6 63.4002 171.4C65.5335 170.2 67.1335 168.4 68.2002 166C69.4002 163.6 70.0002 160.733 70.0002 157.4V61Z" fill="#6A0600"/>
<path d="M198.305 90.2H191.305L152.505 201H116.505L167.705 61H222.905L273.705 201H237.705L198.305 90.2ZM153.905 143.8H235.505V173H153.905V143.8Z" fill="#6A0600"/>
<path d="M347.88 123.2C352.013 123.2 355.413 122.6 358.08 121.4C360.88 120.067 362.947 118.133 364.28 115.6C365.747 113.067 366.48 110.067 366.48 106.6C366.48 101.533 364.947 97.5333 361.88 94.6C358.813 91.6667 354.147 90.2 347.88 90.2H320.48V123.2H347.88ZM401.88 106.6C401.88 112.2 400.813 117.733 398.68 123.2C396.68 128.667 393.547 133.6 389.28 138C385.147 142.4 379.813 145.933 373.28 148.6C366.747 151.133 359.013 152.4 350.08 152.4H320.48V201H285.68V61H350.08C361.68 61 371.28 63.1333 378.88 67.4C386.613 71.5333 392.347 77.0667 396.08 84C399.947 90.9333 401.88 98.4667 401.88 106.6Z" fill="#6A0600"/>
<path d="M418.492 61H523.492V90.2H453.292V116.4H505.692V143.6H453.292V201H418.492V61Z" fill="#6A0600"/>
<path d="M591.078 90.2H584.078L545.278 201H509.278L560.478 61H615.678L666.478 201H630.478L591.078 90.2ZM546.678 143.8H628.278V173H546.678V143.8Z" fill="#6A0600"/>
<path d="M67 3V36.5238" stroke="url(#paint5_linear_5071_11286)" stroke-width="6" stroke-linecap="round"/>
<path d="M21.2861 21.2852L44.7207 45.2574" stroke="url(#paint6_linear_5071_11286)" stroke-width="6" stroke-linecap="round"/>
<path d="M3 67L36.5238 67" stroke="url(#paint7_linear_5071_11286)" stroke-width="6" stroke-linecap="round"/>
<path d="M628 289.679V298.903C628 301.799 630.649 303.97 633.488 303.402C634.768 303.146 636.097 303.448 637.141 304.231L638.815 305.486C640.479 306.734 642.678 307.009 644.598 306.209L645.97 305.637C646.926 305.239 648.017 305.345 648.879 305.919C650.897 307.265 653.608 305.873 653.691 303.449L653.891 297.66C653.96 295.672 654.984 293.819 656.62 292.686C658.9 291.108 661.979 291.21 664.125 292.966C665.331 293.952 666.122 295.356 666.343 296.898L666.795 300.063C666.931 301.019 666.971 301.985 666.915 302.949L665 335.5C665 336.833 663.9 341.5 659.5 349.5C657.598 352.958 654.009 355.232 650.048 356.687C640.805 360.082 630.713 357.619 621 356C615 355 608.5 340.5 607 337.5C606.389 336.279 606.184 334.057 606.174 331.796C606.157 328.043 607.992 324.586 610.717 322.005C614.074 318.825 615.893 314.351 615.714 309.73C615.383 301.19 615 290.82 615 289C615 286 619 282.5 622 282C623.202 281.8 624.454 282.427 625.53 283.292C627.4 284.794 628 287.28 628 289.679Z" fill="url(#paint8_linear_5071_11286)"/>
<path d="M660.732 289.35H659.567C657.653 289.339 655.813 290.088 654.451 291.432C653.088 292.776 652.314 294.605 652.298 296.519V304.574C651.223 303.864 649.963 303.486 648.674 303.489H646.195C644.602 303.487 643.063 304.064 641.864 305.112C641.311 304.019 640.467 303.1 639.425 302.457C638.383 301.814 637.184 301.472 635.959 301.468H633.47C632.185 301.47 630.929 301.847 629.856 302.553V287.159C629.837 285.246 629.061 283.417 627.697 282.075C626.332 280.733 624.491 279.987 622.578 280H621.423C620.472 279.99 619.53 280.167 618.648 280.521C617.766 280.875 616.963 281.4 616.284 282.065C615.605 282.73 615.064 283.522 614.692 284.396C614.32 285.27 614.123 286.209 614.114 287.159V317.03L608.568 321.61C605.054 324.518 603.59 327.664 604.098 331.209C604.098 331.338 604.148 331.468 604.168 331.597C604.903 337.176 606.883 342.519 609.962 347.229C615.379 355.982 625.316 361 636.427 361C638.862 361.007 641.293 360.783 643.686 360.333C649.796 359.275 655.43 356.353 659.816 351.969C666.616 344.909 668 336.645 668 326.41V296.539C667.995 295.59 667.803 294.651 667.435 293.776C667.066 292.901 666.53 292.107 665.855 291.439C665.18 290.771 664.38 290.243 663.501 289.885C662.622 289.527 661.681 289.345 660.732 289.35ZM646.195 306.446H648.674C649.635 306.446 650.557 306.828 651.237 307.508C651.916 308.187 652.298 309.109 652.298 310.07V324.01C652.298 324.971 651.916 325.893 651.237 326.573C650.557 327.252 649.635 327.634 648.674 327.634H646.195C645.234 327.634 644.312 327.252 643.632 326.573C642.952 325.893 642.571 324.971 642.571 324.01V310.07C642.571 309.109 642.952 308.187 643.632 307.508C644.312 306.828 645.234 306.446 646.195 306.446ZM633.47 304.455H635.959C636.921 304.455 637.842 304.836 638.522 305.516C639.202 306.196 639.584 307.118 639.584 308.079V324.01C639.584 324.482 639.489 324.949 639.305 325.384C639.28 325.454 639.246 325.521 639.205 325.583C639.145 325.714 639.075 325.841 638.996 325.962C638.952 326.035 638.902 326.105 638.847 326.171C638.769 326.278 638.686 326.381 638.598 326.479L638.399 326.668C638.306 326.759 638.206 326.842 638.1 326.917L637.881 327.067L637.523 327.266L637.294 327.375L636.865 327.505L636.646 327.565C636.42 327.608 636.19 327.632 635.959 327.634H633.47C632.511 327.632 631.591 327.249 630.914 326.569C630.236 325.89 629.856 324.969 629.856 324.01V323.014L633.53 319.31C633.528 319.284 633.528 319.257 633.53 319.231C634.697 317.927 635.299 316.215 635.206 314.468C635.113 312.721 634.331 311.083 633.032 309.911L632.255 309.234C631.57 308.617 630.758 308.158 629.876 307.89C629.917 306.962 630.312 306.084 630.981 305.44C631.65 304.795 632.541 304.431 633.47 304.425V304.455ZM617.101 287.159C617.109 286.604 617.226 286.055 617.446 285.545C617.666 285.034 617.984 284.572 618.383 284.185C618.781 283.797 619.252 283.492 619.769 283.287C620.285 283.081 620.837 282.98 621.393 282.988H622.578C623.133 282.98 623.685 283.081 624.202 283.287C624.718 283.492 625.189 283.797 625.587 284.185C625.986 284.572 626.304 285.034 626.524 285.545C626.744 286.055 626.861 286.604 626.869 287.159V307.651C625.385 307.876 624.023 308.599 623.006 309.702L617.101 314.531V287.159ZM664.983 326.39C664.983 335.899 663.739 343.535 657.635 349.878C653.681 353.803 648.611 356.411 643.118 357.346C630.453 359.795 618.436 355.195 612.511 345.636C609.136 340.25 608.14 337.054 607.145 331.01C606.856 329.387 606.926 326.897 610.54 323.9L625.027 311.952L625.196 311.783C625.837 311.068 626.733 310.634 627.692 310.576C628.65 310.519 629.592 310.841 630.314 311.474L631.081 312.161C631.798 312.795 632.235 313.688 632.295 314.644C632.354 315.6 632.032 316.541 631.399 317.259L619.312 329.287C619.172 329.425 619.061 329.589 618.985 329.771C618.91 329.952 618.871 330.146 618.871 330.343C618.871 330.539 618.91 330.733 618.985 330.914C619.061 331.096 619.172 331.26 619.312 331.398C619.449 331.538 619.614 331.649 619.795 331.724C619.976 331.8 620.171 331.838 620.367 331.836C620.755 331.852 621.133 331.716 621.423 331.458L626.471 326.41C628.4 327.861 629.973 329.735 631.068 331.886C632.164 334.038 632.754 336.412 632.793 338.826C632.793 339.222 632.95 339.602 633.231 339.882C633.511 340.162 633.891 340.319 634.287 340.319C634.683 340.319 635.063 340.162 635.343 339.882C635.623 339.602 635.78 339.222 635.78 338.826C635.77 335.96 635.088 333.136 633.789 330.582H635.979C636.327 330.569 636.673 330.529 637.015 330.462H637.154C637.491 330.393 637.824 330.303 638.15 330.193L638.309 330.133C638.623 330.017 638.926 329.874 639.215 329.705L639.325 329.636C639.624 329.457 639.91 329.257 640.181 329.038C640.459 328.8 640.719 328.54 640.958 328.262L641.037 328.182C641.657 328.941 642.437 329.553 643.322 329.974C644.207 330.394 645.175 330.612 646.155 330.611H648.634C650.387 330.609 652.067 329.911 653.306 328.672C654.545 327.433 655.243 325.753 655.245 324V296.519C655.252 295.963 655.368 295.414 655.587 294.903C655.805 294.392 656.122 293.93 656.52 293.541C656.918 293.153 657.388 292.847 657.904 292.64C658.42 292.433 658.971 292.33 659.527 292.337H660.692C661.247 292.33 661.799 292.433 662.315 292.64C662.831 292.847 663.301 293.153 663.699 293.541C664.096 293.93 664.413 294.392 664.632 294.903C664.851 295.414 664.967 295.963 664.973 296.519L664.983 326.39Z" fill="#6A0600" stroke="#6A0600"/>
<defs>
<linearGradient id="paint0_linear_5071_11286" x1="292.826" y1="221" x2="292.826" y2="361" gradientUnits="userSpaceOnUse">
<stop stop-color="#FFBA93"/>
<stop offset="1" stop-color="#FF9356"/>
</linearGradient>
<linearGradient id="paint1_linear_5071_11286" x1="292.826" y1="221" x2="292.826" y2="361" gradientUnits="userSpaceOnUse">
<stop stop-color="#FFBA93"/>
<stop offset="1" stop-color="#FF9356"/>
</linearGradient>
<linearGradient id="paint2_linear_5071_11286" x1="292.826" y1="221" x2="292.826" y2="361" gradientUnits="userSpaceOnUse">
<stop stop-color="#FFBA93"/>
<stop offset="1" stop-color="#FF9356"/>
</linearGradient>
<linearGradient id="paint3_linear_5071_11286" x1="292.826" y1="221" x2="292.826" y2="361" gradientUnits="userSpaceOnUse">
<stop stop-color="#FFBA93"/>
<stop offset="1" stop-color="#FF9356"/>
</linearGradient>
<linearGradient id="paint4_linear_5071_11286" x1="292.826" y1="221" x2="292.826" y2="361" gradientUnits="userSpaceOnUse">
<stop stop-color="#FFBA93"/>
<stop offset="1" stop-color="#FF9356"/>
</linearGradient>
<linearGradient id="paint5_linear_5071_11286" x1="67" y1="41.0952" x2="67" y2="12.1429" gradientUnits="userSpaceOnUse">
<stop stop-color="#FF2525"/>
<stop offset="1" stop-color="#FF8743"/>
</linearGradient>
<linearGradient id="paint6_linear_5071_11286" x1="47.9163" y1="48.5263" x2="27.4452" y2="28.0552" gradientUnits="userSpaceOnUse">
<stop stop-color="#FF2525"/>
<stop offset="1" stop-color="#FF8743"/>
</linearGradient>
<linearGradient id="paint7_linear_5071_11286" x1="41.0952" y1="67" x2="12.1429" y2="67" gradientUnits="userSpaceOnUse">
<stop stop-color="#FF2525"/>
<stop offset="1" stop-color="#FF8743"/>
</linearGradient>
<linearGradient id="paint8_linear_5071_11286" x1="636.587" y1="281.963" x2="636.587" y2="359.011" gradientUnits="userSpaceOnUse">
<stop stop-color="#FFEBE0"/>
<stop offset="1" stop-color="#FFD0B6"/>
</linearGradient>
</defs>
</svg>
