<svg width="1392" height="540" viewBox="0 0 1392 540" fill="none" xmlns="http://www.w3.org/2000/svg">
<g clip-path="url(#clip0_250_13384)">
<rect width="1392" height="540" rx="20" fill="url(#paint0_linear_250_13384)"/>
<g opacity="0.4">
<path d="M1258.67 591.106C1231.72 570.116 1214.21 539.279 1209.99 505.378C1205.77 471.477 1215.19 437.288 1236.17 410.332L1439.38 568.625C1418.39 595.561 1387.57 613.061 1353.68 617.277C1319.79 621.492 1285.62 612.079 1258.67 591.106Z" fill="#E88497"/>
<path d="M1526.36 461.922C1539.07 471.685 1549.73 483.856 1557.72 497.741C1565.72 511.625 1570.9 526.95 1572.98 542.839C1575.05 558.728 1573.97 574.869 1569.8 590.34C1565.62 605.811 1558.44 620.307 1548.67 633.001L1355.27 484.225C1365.03 471.517 1377.2 460.859 1391.09 452.859C1404.98 444.86 1420.3 439.676 1436.19 437.605C1452.08 435.533 1468.23 436.615 1483.7 440.788C1499.17 444.96 1513.67 452.142 1526.36 461.922Z" fill="#EF3842"/>
<path d="M1244.77 399.027L1330.8 338.973L1343.95 475.705L1244.77 399.027Z" fill="#F26829"/>
<path d="M1231.38 302.38L1255.83 290.113L1255.24 315.806L1231.38 302.38Z" fill="#F26829"/>
<path d="M1330.01 303.926C1330.99 310.083 1330.12 316.393 1327.52 322.057C1324.91 327.721 1320.68 332.486 1315.37 335.748C1310.06 339.011 1303.9 340.624 1297.67 340.385C1291.44 340.146 1285.42 338.065 1280.37 334.405C1275.32 330.745 1271.48 325.67 1269.31 319.823C1267.15 313.976 1266.77 307.619 1268.22 301.555C1269.67 295.491 1272.89 289.994 1277.46 285.758C1282.03 281.522 1287.76 278.738 1293.92 277.757C1302.17 276.447 1310.61 278.467 1317.38 283.374C1324.14 288.28 1328.69 295.673 1330.01 303.926Z" fill="#E88497"/>
<path d="M1264.98 276.062C1262.47 267.889 1263.29 259.059 1267.24 251.48C1271.2 243.902 1277.98 238.185 1286.11 235.566C1294.25 232.946 1303.09 233.634 1310.72 237.481C1318.36 241.328 1324.17 248.024 1326.91 256.123L1264.98 276.062Z" fill="#EF3842"/>
<path d="M1236.92 354.713C1236.41 351.63 1236.51 348.476 1237.22 345.431C1237.92 342.386 1239.22 339.511 1241.04 336.969C1242.86 334.427 1245.16 332.268 1247.82 330.616C1250.47 328.964 1253.42 327.85 1256.51 327.34L1264.28 374.191C1258.07 375.225 1251.71 373.755 1246.58 370.104C1241.45 366.453 1237.98 360.919 1236.92 354.713Z" fill="#EF3842"/>
</g>
</g>
<defs>
<linearGradient id="paint0_linear_250_13384" x1="696" y1="0" x2="696" y2="540" gradientUnits="userSpaceOnUse">
<stop stop-color="#CE202F"/>
<stop offset="1" stop-color="#75111A"/>
</linearGradient>
<clipPath id="clip0_250_13384">
<rect width="1392" height="540" rx="20" fill="white"/>
</clipPath>
</defs>
</svg>
