<svg width="817" height="266" viewBox="0 0 817 266" fill="none" xmlns="http://www.w3.org/2000/svg">
<path d="M81.4426 5H80.4426V6V124.625C80.4426 128.609 79.727 131.976 78.3372 134.761L78.3271 134.782L78.3179 134.802C77.0882 137.575 75.2642 139.619 72.8459 140.982L72.8337 140.989L72.8217 140.996C70.5422 142.366 67.8599 143.068 64.74 143.068C62.0985 143.068 59.6235 142.524 57.3035 141.439C55.0108 140.367 53.0114 138.758 51.3046 136.59C49.7648 134.265 48.6689 131.453 48.0372 128.13L47.8495 127.143L46.8631 127.335L7.80827 134.965L6.80768 135.16L7.02244 136.157C10.1757 150.79 16.9202 162.012 27.2992 169.728L27.3065 169.733L27.3138 169.738C37.8317 177.266 50.8189 181 66.2137 181C77.805 181 88.0352 178.76 96.8768 174.248C105.893 169.73 112.836 163.111 117.683 154.405C122.701 145.687 125.182 135.006 125.182 122.41V6V5H124.182H81.4426ZM238.312 42.9321L261.011 106.89H208.779L231.131 42.9321H238.312ZM183.714 178.607L195.522 144.822H274.473L286.465 178.612L286.701 179.277H287.407H331.62H333.046L332.56 177.937L270.171 5.6595L269.932 5H269.231H201.437H200.738L200.498 5.65713L137.617 177.934L137.127 179.277H138.557H182.77H183.48L183.714 178.607ZM441.993 72.6878L441.983 72.7053L441.973 72.7231C440.446 75.6306 438.079 77.8625 434.823 79.4182C431.721 80.8148 427.701 81.5403 422.717 81.5403H390.066V42.9321H422.717C430.277 42.9321 435.711 44.7065 439.219 48.0685C442.751 51.4532 444.561 56.0936 444.561 62.1132C444.561 66.236 443.691 69.7485 441.993 72.6878ZM454.274 114.728L454.282 114.725L454.29 114.722C462.422 111.396 469.097 106.975 474.286 101.443C479.613 95.937 483.536 89.7531 486.042 82.8939C488.703 76.0598 490.037 69.1311 490.037 62.1132C490.037 51.9412 487.622 42.5052 482.791 33.8225C478.104 25.1041 470.914 18.1653 461.271 12.9988C451.747 7.64442 439.778 5 425.419 5H346.327H345.327V6V178.277V179.277H346.327H389.066H390.066V178.277V119.472H425.419C436.482 119.472 446.108 117.901 454.274 114.728ZM509.439 5H508.439V6V178.277V179.277H509.439H552.178H553.178V178.277V108.644H616.533H617.533V107.644V74.1726V73.1726H616.533H553.178V42.9321H638.394H639.394V41.9321V6V5H638.394H509.439ZM720.692 42.9321L743.391 106.89H691.159L713.511 42.9321H720.692ZM666.094 178.607L677.901 144.822H756.853L768.845 178.612L769.081 179.277H769.787H814H815.426L814.94 177.937L752.551 5.6595L752.312 5H751.611H683.817H683.118L682.878 5.65713L619.997 177.934L619.507 179.277H620.937H665.15H665.86L666.094 178.607Z" stroke="#1E140F" stroke-width="2"/>
<path d="M73.4426 0H116.182V116.41C116.182 128.88 113.726 139.38 108.813 147.912C104.064 156.444 97.2685 162.925 88.4259 167.355C79.7471 171.785 69.6764 174 58.2137 174C42.9848 174 30.2122 170.308 19.8958 162.925C9.74323 155.378 3.11128 144.385 0 129.946L39.0548 122.317C39.7098 125.762 40.8561 128.716 42.4936 131.177C44.2948 133.474 46.4236 135.197 48.8799 136.345C51.3362 137.494 53.9562 138.068 56.74 138.068C60.015 138.068 62.8807 137.33 65.3369 135.853C67.957 134.376 69.922 132.161 71.232 129.208C72.7058 126.255 73.4426 122.727 73.4426 118.625V0Z" fill="#1E140F"/>
<path d="M231.018 35.9321H222.422L174.77 172.277H130.557L193.437 0H261.231L323.62 172.277H279.407L231.018 35.9321ZM176.489 101.89H276.705V137.822H176.489V101.89Z" fill="#1E140F"/>
<path d="M414.717 76.5403C419.794 76.5403 423.969 75.802 427.244 74.3253C430.683 72.6846 433.221 70.3055 434.859 67.1881C436.66 64.0707 437.561 60.3791 437.561 56.1132C437.561 49.8784 435.677 44.9562 431.911 41.3465C428.145 37.7369 422.414 35.9321 414.717 35.9321H381.066V76.5403H414.717ZM481.037 56.1132C481.037 63.0042 479.727 69.8133 477.107 76.5403C474.65 83.2673 470.802 89.3381 465.562 94.7525C460.486 100.167 453.936 104.515 445.912 107.796C437.888 110.914 428.39 112.472 417.419 112.472H381.066V172.277H338.327V0H417.419C431.666 0 443.456 2.62518 452.789 7.87553C462.287 12.9618 469.328 19.7709 473.913 28.3027C478.662 36.8345 481.037 46.1047 481.037 56.1132Z" fill="#1E140F"/>
<path d="M501.439 0H630.394V35.9321H544.178V68.1726H608.533V101.644H544.178V172.277H501.439V0Z" fill="#1E140F"/>
<path d="M713.398 35.9321H704.801L657.15 172.277H612.937L675.817 0H743.611L806 172.277H761.787L713.398 35.9321ZM658.869 101.89H759.085V137.822H658.869V101.89Z" fill="#1E140F"/>
<path d="M656.831 195.6H667.919V246H656.831V195.6ZM676.368 210H685.872L686.592 213.888C687.792 212.592 689.208 211.536 690.84 210.72C692.472 209.904 694.248 209.496 696.168 209.496C699 209.496 701.376 210.096 703.296 211.296C705.264 212.496 706.752 214.248 707.76 216.552C708.816 218.856 709.344 221.664 709.344 224.976V246H698.832V226.272C698.832 223.872 698.328 222.048 697.32 220.8C696.36 219.552 694.896 218.928 692.928 218.928C690.912 218.928 689.4 219.576 688.392 220.872C687.384 222.12 686.88 223.944 686.88 226.344V246H676.368V210ZM742.642 215.544L741.202 215.616V194.16H751.714V246H742.21L741.562 241.464C740.602 242.856 739.186 244.056 737.314 245.064C735.442 246.024 733.354 246.504 731.05 246.504C728.026 246.504 725.314 245.76 722.914 244.272C720.562 242.736 718.714 240.576 717.37 237.792C716.026 235.008 715.354 231.744 715.354 228C715.354 224.208 716.026 220.944 717.37 218.208C718.714 215.424 720.562 213.288 722.914 211.8C725.266 210.264 727.978 209.496 731.05 209.496C733.786 209.496 736.138 210.096 738.106 211.296C740.074 212.448 741.586 213.864 742.642 215.544ZM726.658 228C726.658 230.64 727.33 232.776 728.674 234.408C730.018 235.992 731.77 236.784 733.93 236.784C735.226 236.784 736.426 236.448 737.53 235.776C738.634 235.104 739.522 234.12 740.194 232.824C740.866 231.528 741.202 229.92 741.202 228C741.202 226.08 740.866 224.472 740.194 223.176C739.522 221.88 738.634 220.896 737.53 220.224C736.426 219.504 735.226 219.144 733.93 219.144C731.722 219.144 729.946 219.96 728.602 221.592C727.306 223.224 726.658 225.36 726.658 228ZM761.056 210H771.568V246H761.056V210ZM766.312 206.328C764.344 206.328 762.736 205.752 761.488 204.6C760.288 203.4 759.688 201.96 759.688 200.28C759.688 198.552 760.288 197.112 761.488 195.96C762.736 194.76 764.344 194.16 766.312 194.16C768.232 194.16 769.792 194.76 770.992 195.96C772.24 197.112 772.864 198.552 772.864 200.28C772.864 201.96 772.24 203.4 770.992 204.6C769.792 205.752 768.232 206.328 766.312 206.328ZM801.66 246L800.94 241.536C799.692 243.072 798.348 244.272 796.908 245.136C795.468 246 793.548 246.432 791.148 246.432C788.892 246.432 786.876 246.048 785.1 245.28C783.324 244.464 781.908 243.288 780.852 241.752C779.844 240.216 779.34 238.368 779.34 236.208C779.34 233.232 780.396 230.76 782.508 228.792C784.668 226.824 788.004 225.6 792.516 225.12L800.94 224.184V221.808C800.94 220.992 800.532 220.2 799.716 219.432C798.948 218.616 797.724 218.208 796.044 218.208C794.556 218.208 793.26 218.592 792.156 219.36C791.1 220.128 790.38 221.232 789.996 222.672L780.996 219.432C782.052 216.216 783.9 213.768 786.54 212.088C789.228 210.36 792.54 209.496 796.476 209.496C801.372 209.496 805.092 210.72 807.636 213.168C810.18 215.616 811.452 218.904 811.452 223.032V246H801.66ZM800.94 230.664L794.244 231.456C792.9 231.648 791.868 232.08 791.148 232.752C790.476 233.376 790.14 234.168 790.14 235.128C790.14 236.04 790.524 236.808 791.292 237.432C792.06 238.056 793.116 238.368 794.46 238.368C795.804 238.368 796.956 238.104 797.916 237.576C798.876 237 799.62 236.208 800.148 235.2C800.676 234.144 800.94 232.848 800.94 231.312V230.664Z" fill="#EC691F"/>
</svg>
