<svg width="1238" height="243" viewBox="0 0 1238 243" fill="none" xmlns="http://www.w3.org/2000/svg">
<mask id="path-1-outside-1_5745_2741" maskUnits="userSpaceOnUse" x="8" y="79" width="1230" height="164" fill="black">
<rect fill="white" x="8" y="79" width="1230" height="164"/>
<path d="M78.1502 239.431L75.6842 225.538C71.649 230.169 67.4643 233.904 63.1302 236.742C58.9456 239.581 53.2664 241 46.0927 241C39.5168 241 33.464 239.805 27.9343 237.415C22.554 234.875 18.2199 231.215 14.9319 226.434C11.644 221.654 10 215.827 10 208.955C10 199.693 13.2879 192.074 19.8638 186.098C26.4397 180.122 36.8267 176.313 51.0246 174.669L75.6842 171.98V165.482C75.6842 163.39 74.638 161.299 72.5457 159.207C70.4534 156.966 67.2402 155.846 62.9061 155.846C59.0203 155.846 55.6576 156.892 52.818 158.983C49.9784 161.075 48.0356 163.988 46.9894 167.723L15.8286 156.518C19.266 146.359 25.0947 138.74 33.3145 133.661C41.5344 128.432 51.8466 125.818 64.2511 125.818C79.9436 125.818 91.8998 129.702 100.12 137.471C108.34 145.239 112.449 155.921 112.449 169.515V239.431H78.1502ZM75.6842 192.597L58.1983 194.613C54.7609 195.062 52.1455 196.182 50.3521 197.975C48.5586 199.768 47.6619 201.934 47.6619 204.473C47.6619 207.013 48.7081 209.105 50.8004 210.748C53.0422 212.391 56.106 213.213 59.9917 213.213C63.1302 213.213 65.8204 212.541 68.0622 211.196C70.4534 209.702 72.3215 207.611 73.6666 204.922C75.0117 202.232 75.6842 198.871 75.6842 194.838V192.597Z"/>
<path d="M236.295 82.5686H275.302V188.563C275.302 199.917 273.06 209.478 268.577 217.246C264.243 225.015 258.04 230.916 249.97 234.95C242.049 238.983 232.858 241 222.396 241C208.497 241 196.84 237.639 187.424 230.916C178.158 224.044 172.105 214.035 169.266 200.888L204.91 193.941C205.508 197.078 206.554 199.767 208.049 202.008C209.692 204.1 211.635 205.669 213.877 206.714C216.119 207.76 218.51 208.283 221.051 208.283C224.04 208.283 226.655 207.611 228.897 206.266C231.288 204.922 233.082 202.905 234.277 200.216C235.622 197.527 236.295 194.315 236.295 190.58V82.5686Z"/>
<path d="M374.058 241C362.849 241 352.387 239.058 342.673 235.174C332.958 231.289 324.365 225.837 316.892 218.815C309.569 211.644 303.815 203.204 299.631 193.493C295.446 183.633 293.354 172.802 293.354 161C293.354 149.198 295.446 138.442 299.631 128.731C303.815 118.871 309.569 110.43 316.892 103.409C324.365 96.2381 332.958 90.7105 342.673 86.8263C352.387 82.9421 362.849 81 374.058 81C385.267 81 395.728 82.9421 405.443 86.8263C415.307 90.7105 423.9 96.2381 431.223 103.409C438.546 110.43 444.3 118.871 448.485 128.731C452.67 138.442 454.762 149.198 454.762 161C454.762 172.802 452.67 183.633 448.485 193.493C444.3 203.204 438.472 211.644 430.999 218.815C423.676 225.837 415.157 231.289 405.443 235.174C395.728 239.058 385.267 241 374.058 241ZM374.058 207.611C382.278 207.611 389.451 205.594 395.579 201.56C401.706 197.527 406.489 191.999 409.926 184.978C413.364 177.956 415.082 169.964 415.082 161C415.082 151.887 413.364 143.894 409.926 137.022C406.489 130.001 401.706 124.473 395.579 120.44C389.451 116.406 382.278 114.389 374.058 114.389C365.688 114.389 358.44 116.406 352.312 120.44C346.185 124.473 341.402 130.001 337.965 137.022C334.677 143.894 333.033 151.887 333.033 161C333.033 169.964 334.677 177.956 337.965 184.978C341.402 191.999 346.185 197.527 352.312 201.56C358.44 205.594 365.688 207.611 374.058 207.611Z"/>
<path d="M472.56 82.5686H511.567V179.375C511.567 185.351 512.762 190.505 515.153 194.838C517.545 199.021 520.907 202.232 525.241 204.473C529.576 206.565 534.657 207.611 540.486 207.611C546.464 207.611 551.694 206.565 556.178 204.473C560.662 202.232 564.099 199.021 566.49 194.838C569.031 190.505 570.301 185.351 570.301 179.375V82.5686H609.308V175.79C609.308 186.696 607.44 196.257 603.704 204.473C599.967 212.541 594.811 219.338 588.235 224.866C581.809 230.244 574.411 234.277 566.042 236.966C557.672 239.655 548.93 241 539.813 241C527.558 241 516.349 238.61 506.186 233.829C496.024 228.899 487.878 221.654 481.751 212.092C475.623 202.382 472.56 190.281 472.56 175.79V82.5686Z"/>
<path d="M723.833 133.661C723.833 127.984 722.115 123.502 718.677 120.216C715.24 116.929 710.009 115.286 702.985 115.286H672.272V152.26H702.985C707.618 152.26 711.429 151.588 714.418 150.244C717.557 148.75 719.873 146.584 721.368 143.745C723.012 140.907 723.833 137.545 723.833 133.661ZM705.451 82.5686C718.453 82.5686 729.214 84.9589 737.733 89.7395C746.401 94.3707 752.827 100.57 757.012 108.339C761.346 116.107 763.513 124.548 763.513 133.661C763.513 139.936 762.317 146.135 759.926 152.26C757.684 158.386 754.172 163.913 749.39 168.843C744.757 173.773 738.779 177.732 731.456 180.72C724.132 183.558 715.464 184.978 705.451 184.978H672.272V239.431H633.266V82.5686H705.451ZM725.179 171.532L766.427 239.431H723.385L684.378 171.532H725.179Z"/>
<path d="M921.729 82.5686V239.431H882.497L823.987 144.417V239.431H784.98V82.5686H824.211L882.722 178.255V82.5686H921.729Z"/>
<path d="M1064.02 115.286H985.334V144.641H1044.07V175.118H985.334V206.714H1064.02V239.431H946.327V82.5686H1064.02V115.286Z"/>
<path d="M1189.39 82.5686H1234L1174.59 187.891V239.431H1135.59V187.891L1075.95 82.5686H1120.57L1155.09 147.331L1189.39 82.5686Z"/>
</mask>
<path d="M78.1502 239.431L75.6842 225.538C71.649 230.169 67.4643 233.904 63.1302 236.742C58.9456 239.581 53.2664 241 46.0927 241C39.5168 241 33.464 239.805 27.9343 237.415C22.554 234.875 18.2199 231.215 14.9319 226.434C11.644 221.654 10 215.827 10 208.955C10 199.693 13.2879 192.074 19.8638 186.098C26.4397 180.122 36.8267 176.313 51.0246 174.669L75.6842 171.98V165.482C75.6842 163.39 74.638 161.299 72.5457 159.207C70.4534 156.966 67.2402 155.846 62.9061 155.846C59.0203 155.846 55.6576 156.892 52.818 158.983C49.9784 161.075 48.0356 163.988 46.9894 167.723L15.8286 156.518C19.266 146.359 25.0947 138.74 33.3145 133.661C41.5344 128.432 51.8466 125.818 64.2511 125.818C79.9436 125.818 91.8998 129.702 100.12 137.471C108.34 145.239 112.449 155.921 112.449 169.515V239.431H78.1502ZM75.6842 192.597L58.1983 194.613C54.7609 195.062 52.1455 196.182 50.3521 197.975C48.5586 199.768 47.6619 201.934 47.6619 204.473C47.6619 207.013 48.7081 209.105 50.8004 210.748C53.0422 212.391 56.106 213.213 59.9917 213.213C63.1302 213.213 65.8204 212.541 68.0622 211.196C70.4534 209.702 72.3215 207.611 73.6666 204.922C75.0117 202.232 75.6842 198.871 75.6842 194.838V192.597Z" stroke="#1E140F" stroke-width="4" mask="url(#path-1-outside-1_5745_2741)"/>
<path d="M236.295 82.5686H275.302V188.563C275.302 199.917 273.06 209.478 268.577 217.246C264.243 225.015 258.04 230.916 249.97 234.95C242.049 238.983 232.858 241 222.396 241C208.497 241 196.84 237.639 187.424 230.916C178.158 224.044 172.105 214.035 169.266 200.888L204.91 193.941C205.508 197.078 206.554 199.767 208.049 202.008C209.692 204.1 211.635 205.669 213.877 206.714C216.119 207.76 218.51 208.283 221.051 208.283C224.04 208.283 226.655 207.611 228.897 206.266C231.288 204.922 233.082 202.905 234.277 200.216C235.622 197.527 236.295 194.315 236.295 190.58V82.5686Z" stroke="#1E140F" stroke-width="4" mask="url(#path-1-outside-1_5745_2741)"/>
<path d="M374.058 241C362.849 241 352.387 239.058 342.673 235.174C332.958 231.289 324.365 225.837 316.892 218.815C309.569 211.644 303.815 203.204 299.631 193.493C295.446 183.633 293.354 172.802 293.354 161C293.354 149.198 295.446 138.442 299.631 128.731C303.815 118.871 309.569 110.43 316.892 103.409C324.365 96.2381 332.958 90.7105 342.673 86.8263C352.387 82.9421 362.849 81 374.058 81C385.267 81 395.728 82.9421 405.443 86.8263C415.307 90.7105 423.9 96.2381 431.223 103.409C438.546 110.43 444.3 118.871 448.485 128.731C452.67 138.442 454.762 149.198 454.762 161C454.762 172.802 452.67 183.633 448.485 193.493C444.3 203.204 438.472 211.644 430.999 218.815C423.676 225.837 415.157 231.289 405.443 235.174C395.728 239.058 385.267 241 374.058 241ZM374.058 207.611C382.278 207.611 389.451 205.594 395.579 201.56C401.706 197.527 406.489 191.999 409.926 184.978C413.364 177.956 415.082 169.964 415.082 161C415.082 151.887 413.364 143.894 409.926 137.022C406.489 130.001 401.706 124.473 395.579 120.44C389.451 116.406 382.278 114.389 374.058 114.389C365.688 114.389 358.44 116.406 352.312 120.44C346.185 124.473 341.402 130.001 337.965 137.022C334.677 143.894 333.033 151.887 333.033 161C333.033 169.964 334.677 177.956 337.965 184.978C341.402 191.999 346.185 197.527 352.312 201.56C358.44 205.594 365.688 207.611 374.058 207.611Z" stroke="#1E140F" stroke-width="4" mask="url(#path-1-outside-1_5745_2741)"/>
<path d="M472.56 82.5686H511.567V179.375C511.567 185.351 512.762 190.505 515.153 194.838C517.545 199.021 520.907 202.232 525.241 204.473C529.576 206.565 534.657 207.611 540.486 207.611C546.464 207.611 551.694 206.565 556.178 204.473C560.662 202.232 564.099 199.021 566.49 194.838C569.031 190.505 570.301 185.351 570.301 179.375V82.5686H609.308V175.79C609.308 186.696 607.44 196.257 603.704 204.473C599.967 212.541 594.811 219.338 588.235 224.866C581.809 230.244 574.411 234.277 566.042 236.966C557.672 239.655 548.93 241 539.813 241C527.558 241 516.349 238.61 506.186 233.829C496.024 228.899 487.878 221.654 481.751 212.092C475.623 202.382 472.56 190.281 472.56 175.79V82.5686Z" stroke="#1E140F" stroke-width="4" mask="url(#path-1-outside-1_5745_2741)"/>
<path d="M723.833 133.661C723.833 127.984 722.115 123.502 718.677 120.216C715.24 116.929 710.009 115.286 702.985 115.286H672.272V152.26H702.985C707.618 152.26 711.429 151.588 714.418 150.244C717.557 148.75 719.873 146.584 721.368 143.745C723.012 140.907 723.833 137.545 723.833 133.661ZM705.451 82.5686C718.453 82.5686 729.214 84.9589 737.733 89.7395C746.401 94.3707 752.827 100.57 757.012 108.339C761.346 116.107 763.513 124.548 763.513 133.661C763.513 139.936 762.317 146.135 759.926 152.26C757.684 158.386 754.172 163.913 749.39 168.843C744.757 173.773 738.779 177.732 731.456 180.72C724.132 183.558 715.464 184.978 705.451 184.978H672.272V239.431H633.266V82.5686H705.451ZM725.179 171.532L766.427 239.431H723.385L684.378 171.532H725.179Z" stroke="#1E140F" stroke-width="4" mask="url(#path-1-outside-1_5745_2741)"/>
<path d="M921.729 82.5686V239.431H882.497L823.987 144.417V239.431H784.98V82.5686H824.211L882.722 178.255V82.5686H921.729Z" stroke="#1E140F" stroke-width="4" mask="url(#path-1-outside-1_5745_2741)"/>
<path d="M1064.02 115.286H985.334V144.641H1044.07V175.118H985.334V206.714H1064.02V239.431H946.327V82.5686H1064.02V115.286Z" stroke="#1E140F" stroke-width="4" mask="url(#path-1-outside-1_5745_2741)"/>
<path d="M1189.39 82.5686H1234L1174.59 187.891V239.431H1135.59V187.891L1075.95 82.5686H1120.57L1155.09 147.331L1189.39 82.5686Z" stroke="#1E140F" stroke-width="4" mask="url(#path-1-outside-1_5745_2741)"/>
<mask id="path-2-outside-2_5745_2741" maskUnits="userSpaceOnUse" x="0" y="73" width="1230" height="164" fill="black">
<rect fill="white" y="73" width="1230" height="164"/>
<path d="M70.1502 233.431L67.6842 219.538C63.649 224.169 59.4643 227.904 55.1302 230.742C50.9456 233.581 45.2664 235 38.0927 235C31.5168 235 25.464 233.805 19.9343 231.415C14.554 228.875 10.2199 225.215 6.93192 220.434C3.64397 215.654 2 209.827 2 202.955C2 193.693 5.28795 186.074 11.8638 180.098C18.4397 174.122 28.8267 170.313 43.0246 168.669L67.6842 165.98V159.482C67.6842 157.39 66.638 155.299 64.5457 153.207C62.4534 150.966 59.2402 149.846 54.9061 149.846C51.0203 149.846 47.6576 150.892 44.818 152.983C41.9784 155.075 40.0356 157.988 38.9894 161.723L7.82863 150.518C11.266 140.359 17.0947 132.74 25.3145 127.661C33.5344 122.432 43.8466 119.818 56.2511 119.818C71.9436 119.818 83.8998 123.702 92.1196 131.471C100.34 139.239 104.449 149.921 104.449 163.515V233.431H70.1502ZM67.6842 186.597L50.1983 188.613C46.7609 189.062 44.1455 190.182 42.3521 191.975C40.5586 193.768 39.6619 195.934 39.6619 198.473C39.6619 201.013 40.7081 203.105 42.8004 204.748C45.0422 206.391 48.106 207.213 51.9917 207.213C55.1302 207.213 57.8204 206.541 60.0622 205.196C62.4534 203.702 64.3215 201.611 65.6666 198.922C67.0117 196.232 67.6842 192.871 67.6842 188.838V186.597Z"/>
<path d="M228.295 76.5686H267.302V182.563C267.302 193.917 265.06 203.478 260.577 211.246C256.243 219.015 250.04 224.916 241.97 228.95C234.049 232.983 224.858 235 214.396 235C200.497 235 188.84 231.639 179.424 224.916C170.158 218.044 164.105 208.035 161.266 194.888L196.91 187.941C197.508 191.078 198.554 193.767 200.049 196.008C201.692 198.1 203.635 199.669 205.877 200.714C208.119 201.76 210.51 202.283 213.051 202.283C216.04 202.283 218.655 201.611 220.897 200.266C223.288 198.922 225.082 196.905 226.277 194.216C227.622 191.527 228.295 188.315 228.295 184.58V76.5686Z"/>
<path d="M366.058 235C354.849 235 344.387 233.058 334.673 229.174C324.958 225.289 316.365 219.837 308.892 212.815C301.569 205.644 295.815 197.204 291.631 187.493C287.446 177.633 285.354 166.802 285.354 155C285.354 143.198 287.446 132.442 291.631 122.731C295.815 112.871 301.569 104.43 308.892 97.409C316.365 90.2381 324.958 84.7105 334.673 80.8263C344.387 76.9421 354.849 75 366.058 75C377.267 75 387.728 76.9421 397.443 80.8263C407.307 84.7105 415.9 90.2381 423.223 97.409C430.546 104.43 436.3 112.871 440.485 122.731C444.67 132.442 446.762 143.198 446.762 155C446.762 166.802 444.67 177.633 440.485 187.493C436.3 197.204 430.472 205.644 422.999 212.815C415.676 219.837 407.157 225.289 397.443 229.174C387.728 233.058 377.267 235 366.058 235ZM366.058 201.611C374.278 201.611 381.451 199.594 387.579 195.56C393.706 191.527 398.489 185.999 401.926 178.978C405.364 171.956 407.082 163.964 407.082 155C407.082 145.887 405.364 137.894 401.926 131.022C398.489 124.001 393.706 118.473 387.579 114.44C381.451 110.406 374.278 108.389 366.058 108.389C357.688 108.389 350.44 110.406 344.312 114.44C338.185 118.473 333.402 124.001 329.965 131.022C326.677 137.894 325.033 145.887 325.033 155C325.033 163.964 326.677 171.956 329.965 178.978C333.402 185.999 338.185 191.527 344.312 195.56C350.44 199.594 357.688 201.611 366.058 201.611Z"/>
<path d="M464.56 76.5686H503.567V173.375C503.567 179.351 504.762 184.505 507.153 188.838C509.545 193.021 512.907 196.232 517.241 198.473C521.576 200.565 526.657 201.611 532.486 201.611C538.464 201.611 543.694 200.565 548.178 198.473C552.662 196.232 556.099 193.021 558.49 188.838C561.031 184.505 562.301 179.351 562.301 173.375V76.5686H601.308V169.79C601.308 180.696 599.44 190.257 595.704 198.473C591.967 206.541 586.811 213.338 580.235 218.866C573.809 224.244 566.411 228.277 558.042 230.966C549.672 233.655 540.93 235 531.813 235C519.558 235 508.349 232.61 498.186 227.829C488.024 222.899 479.878 215.654 473.751 206.092C467.623 196.382 464.56 184.281 464.56 169.79V76.5686Z"/>
<path d="M715.833 127.661C715.833 121.984 714.115 117.502 710.677 114.216C707.24 110.929 702.009 109.286 694.985 109.286H664.272V146.26H694.985C699.618 146.26 703.429 145.588 706.418 144.244C709.557 142.75 711.873 140.584 713.368 137.745C715.012 134.907 715.833 131.545 715.833 127.661ZM697.451 76.5686C710.453 76.5686 721.214 78.9589 729.733 83.7395C738.401 88.3707 744.827 94.5705 749.012 102.339C753.346 110.107 755.513 118.548 755.513 127.661C755.513 133.936 754.317 140.135 751.926 146.26C749.684 152.386 746.172 157.913 741.39 162.843C736.757 167.773 730.779 171.732 723.456 174.72C716.132 177.558 707.464 178.978 697.451 178.978H664.272V233.431H625.266V76.5686H697.451ZM717.179 165.532L758.427 233.431H715.385L676.378 165.532H717.179Z"/>
<path d="M913.729 76.5686V233.431H874.497L815.987 138.417V233.431H776.98V76.5686H816.211L874.722 172.255V76.5686H913.729Z"/>
<path d="M1056.02 109.286H977.334V138.641H1036.07V169.118H977.334V200.714H1056.02V233.431H938.327V76.5686H1056.02V109.286Z"/>
<path d="M1181.39 76.5686H1226L1166.59 181.891V233.431H1127.59V181.891L1067.95 76.5686H1112.57L1147.09 141.331L1181.39 76.5686Z"/>
</mask>
<path d="M70.1502 233.431L67.6842 219.538C63.649 224.169 59.4643 227.904 55.1302 230.742C50.9456 233.581 45.2664 235 38.0927 235C31.5168 235 25.464 233.805 19.9343 231.415C14.554 228.875 10.2199 225.215 6.93192 220.434C3.64397 215.654 2 209.827 2 202.955C2 193.693 5.28795 186.074 11.8638 180.098C18.4397 174.122 28.8267 170.313 43.0246 168.669L67.6842 165.98V159.482C67.6842 157.39 66.638 155.299 64.5457 153.207C62.4534 150.966 59.2402 149.846 54.9061 149.846C51.0203 149.846 47.6576 150.892 44.818 152.983C41.9784 155.075 40.0356 157.988 38.9894 161.723L7.82863 150.518C11.266 140.359 17.0947 132.74 25.3145 127.661C33.5344 122.432 43.8466 119.818 56.2511 119.818C71.9436 119.818 83.8998 123.702 92.1196 131.471C100.34 139.239 104.449 149.921 104.449 163.515V233.431H70.1502ZM67.6842 186.597L50.1983 188.613C46.7609 189.062 44.1455 190.182 42.3521 191.975C40.5586 193.768 39.6619 195.934 39.6619 198.473C39.6619 201.013 40.7081 203.105 42.8004 204.748C45.0422 206.391 48.106 207.213 51.9917 207.213C55.1302 207.213 57.8204 206.541 60.0622 205.196C62.4534 203.702 64.3215 201.611 65.6666 198.922C67.0117 196.232 67.6842 192.871 67.6842 188.838V186.597Z" fill="black"/>
<path d="M228.295 76.5686H267.302V182.563C267.302 193.917 265.06 203.478 260.577 211.246C256.243 219.015 250.04 224.916 241.97 228.95C234.049 232.983 224.858 235 214.396 235C200.497 235 188.84 231.639 179.424 224.916C170.158 218.044 164.105 208.035 161.266 194.888L196.91 187.941C197.508 191.078 198.554 193.767 200.049 196.008C201.692 198.1 203.635 199.669 205.877 200.714C208.119 201.76 210.51 202.283 213.051 202.283C216.04 202.283 218.655 201.611 220.897 200.266C223.288 198.922 225.082 196.905 226.277 194.216C227.622 191.527 228.295 188.315 228.295 184.58V76.5686Z" fill="black"/>
<path d="M366.058 235C354.849 235 344.387 233.058 334.673 229.174C324.958 225.289 316.365 219.837 308.892 212.815C301.569 205.644 295.815 197.204 291.631 187.493C287.446 177.633 285.354 166.802 285.354 155C285.354 143.198 287.446 132.442 291.631 122.731C295.815 112.871 301.569 104.43 308.892 97.409C316.365 90.2381 324.958 84.7105 334.673 80.8263C344.387 76.9421 354.849 75 366.058 75C377.267 75 387.728 76.9421 397.443 80.8263C407.307 84.7105 415.9 90.2381 423.223 97.409C430.546 104.43 436.3 112.871 440.485 122.731C444.67 132.442 446.762 143.198 446.762 155C446.762 166.802 444.67 177.633 440.485 187.493C436.3 197.204 430.472 205.644 422.999 212.815C415.676 219.837 407.157 225.289 397.443 229.174C387.728 233.058 377.267 235 366.058 235ZM366.058 201.611C374.278 201.611 381.451 199.594 387.579 195.56C393.706 191.527 398.489 185.999 401.926 178.978C405.364 171.956 407.082 163.964 407.082 155C407.082 145.887 405.364 137.894 401.926 131.022C398.489 124.001 393.706 118.473 387.579 114.44C381.451 110.406 374.278 108.389 366.058 108.389C357.688 108.389 350.44 110.406 344.312 114.44C338.185 118.473 333.402 124.001 329.965 131.022C326.677 137.894 325.033 145.887 325.033 155C325.033 163.964 326.677 171.956 329.965 178.978C333.402 185.999 338.185 191.527 344.312 195.56C350.44 199.594 357.688 201.611 366.058 201.611Z" fill="black"/>
<path d="M464.56 76.5686H503.567V173.375C503.567 179.351 504.762 184.505 507.153 188.838C509.545 193.021 512.907 196.232 517.241 198.473C521.576 200.565 526.657 201.611 532.486 201.611C538.464 201.611 543.694 200.565 548.178 198.473C552.662 196.232 556.099 193.021 558.49 188.838C561.031 184.505 562.301 179.351 562.301 173.375V76.5686H601.308V169.79C601.308 180.696 599.44 190.257 595.704 198.473C591.967 206.541 586.811 213.338 580.235 218.866C573.809 224.244 566.411 228.277 558.042 230.966C549.672 233.655 540.93 235 531.813 235C519.558 235 508.349 232.61 498.186 227.829C488.024 222.899 479.878 215.654 473.751 206.092C467.623 196.382 464.56 184.281 464.56 169.79V76.5686Z" fill="black"/>
<path d="M715.833 127.661C715.833 121.984 714.115 117.502 710.677 114.216C707.24 110.929 702.009 109.286 694.985 109.286H664.272V146.26H694.985C699.618 146.26 703.429 145.588 706.418 144.244C709.557 142.75 711.873 140.584 713.368 137.745C715.012 134.907 715.833 131.545 715.833 127.661ZM697.451 76.5686C710.453 76.5686 721.214 78.9589 729.733 83.7395C738.401 88.3707 744.827 94.5705 749.012 102.339C753.346 110.107 755.513 118.548 755.513 127.661C755.513 133.936 754.317 140.135 751.926 146.26C749.684 152.386 746.172 157.913 741.39 162.843C736.757 167.773 730.779 171.732 723.456 174.72C716.132 177.558 707.464 178.978 697.451 178.978H664.272V233.431H625.266V76.5686H697.451ZM717.179 165.532L758.427 233.431H715.385L676.378 165.532H717.179Z" fill="black"/>
<path d="M913.729 76.5686V233.431H874.497L815.987 138.417V233.431H776.98V76.5686H816.211L874.722 172.255V76.5686H913.729Z" fill="black"/>
<path d="M1056.02 109.286H977.334V138.641H1036.07V169.118H977.334V200.714H1056.02V233.431H938.327V76.5686H1056.02V109.286Z" fill="black"/>
<path d="M1181.39 76.5686H1226L1166.59 181.891V233.431H1127.59V181.891L1067.95 76.5686H1112.57L1147.09 141.331L1181.39 76.5686Z" fill="black"/>
<path d="M70.1502 233.431L67.6842 219.538C63.649 224.169 59.4643 227.904 55.1302 230.742C50.9456 233.581 45.2664 235 38.0927 235C31.5168 235 25.464 233.805 19.9343 231.415C14.554 228.875 10.2199 225.215 6.93192 220.434C3.64397 215.654 2 209.827 2 202.955C2 193.693 5.28795 186.074 11.8638 180.098C18.4397 174.122 28.8267 170.313 43.0246 168.669L67.6842 165.98V159.482C67.6842 157.39 66.638 155.299 64.5457 153.207C62.4534 150.966 59.2402 149.846 54.9061 149.846C51.0203 149.846 47.6576 150.892 44.818 152.983C41.9784 155.075 40.0356 157.988 38.9894 161.723L7.82863 150.518C11.266 140.359 17.0947 132.74 25.3145 127.661C33.5344 122.432 43.8466 119.818 56.2511 119.818C71.9436 119.818 83.8998 123.702 92.1196 131.471C100.34 139.239 104.449 149.921 104.449 163.515V233.431H70.1502ZM67.6842 186.597L50.1983 188.613C46.7609 189.062 44.1455 190.182 42.3521 191.975C40.5586 193.768 39.6619 195.934 39.6619 198.473C39.6619 201.013 40.7081 203.105 42.8004 204.748C45.0422 206.391 48.106 207.213 51.9917 207.213C55.1302 207.213 57.8204 206.541 60.0622 205.196C62.4534 203.702 64.3215 201.611 65.6666 198.922C67.0117 196.232 67.6842 192.871 67.6842 188.838V186.597Z" stroke="white" stroke-width="4" mask="url(#path-2-outside-2_5745_2741)"/>
<path d="M228.295 76.5686H267.302V182.563C267.302 193.917 265.06 203.478 260.577 211.246C256.243 219.015 250.04 224.916 241.97 228.95C234.049 232.983 224.858 235 214.396 235C200.497 235 188.84 231.639 179.424 224.916C170.158 218.044 164.105 208.035 161.266 194.888L196.91 187.941C197.508 191.078 198.554 193.767 200.049 196.008C201.692 198.1 203.635 199.669 205.877 200.714C208.119 201.76 210.51 202.283 213.051 202.283C216.04 202.283 218.655 201.611 220.897 200.266C223.288 198.922 225.082 196.905 226.277 194.216C227.622 191.527 228.295 188.315 228.295 184.58V76.5686Z" stroke="white" stroke-width="4" mask="url(#path-2-outside-2_5745_2741)"/>
<path d="M366.058 235C354.849 235 344.387 233.058 334.673 229.174C324.958 225.289 316.365 219.837 308.892 212.815C301.569 205.644 295.815 197.204 291.631 187.493C287.446 177.633 285.354 166.802 285.354 155C285.354 143.198 287.446 132.442 291.631 122.731C295.815 112.871 301.569 104.43 308.892 97.409C316.365 90.2381 324.958 84.7105 334.673 80.8263C344.387 76.9421 354.849 75 366.058 75C377.267 75 387.728 76.9421 397.443 80.8263C407.307 84.7105 415.9 90.2381 423.223 97.409C430.546 104.43 436.3 112.871 440.485 122.731C444.67 132.442 446.762 143.198 446.762 155C446.762 166.802 444.67 177.633 440.485 187.493C436.3 197.204 430.472 205.644 422.999 212.815C415.676 219.837 407.157 225.289 397.443 229.174C387.728 233.058 377.267 235 366.058 235ZM366.058 201.611C374.278 201.611 381.451 199.594 387.579 195.56C393.706 191.527 398.489 185.999 401.926 178.978C405.364 171.956 407.082 163.964 407.082 155C407.082 145.887 405.364 137.894 401.926 131.022C398.489 124.001 393.706 118.473 387.579 114.44C381.451 110.406 374.278 108.389 366.058 108.389C357.688 108.389 350.44 110.406 344.312 114.44C338.185 118.473 333.402 124.001 329.965 131.022C326.677 137.894 325.033 145.887 325.033 155C325.033 163.964 326.677 171.956 329.965 178.978C333.402 185.999 338.185 191.527 344.312 195.56C350.44 199.594 357.688 201.611 366.058 201.611Z" stroke="white" stroke-width="4" mask="url(#path-2-outside-2_5745_2741)"/>
<path d="M464.56 76.5686H503.567V173.375C503.567 179.351 504.762 184.505 507.153 188.838C509.545 193.021 512.907 196.232 517.241 198.473C521.576 200.565 526.657 201.611 532.486 201.611C538.464 201.611 543.694 200.565 548.178 198.473C552.662 196.232 556.099 193.021 558.49 188.838C561.031 184.505 562.301 179.351 562.301 173.375V76.5686H601.308V169.79C601.308 180.696 599.44 190.257 595.704 198.473C591.967 206.541 586.811 213.338 580.235 218.866C573.809 224.244 566.411 228.277 558.042 230.966C549.672 233.655 540.93 235 531.813 235C519.558 235 508.349 232.61 498.186 227.829C488.024 222.899 479.878 215.654 473.751 206.092C467.623 196.382 464.56 184.281 464.56 169.79V76.5686Z" stroke="white" stroke-width="4" mask="url(#path-2-outside-2_5745_2741)"/>
<path d="M715.833 127.661C715.833 121.984 714.115 117.502 710.677 114.216C707.24 110.929 702.009 109.286 694.985 109.286H664.272V146.26H694.985C699.618 146.26 703.429 145.588 706.418 144.244C709.557 142.75 711.873 140.584 713.368 137.745C715.012 134.907 715.833 131.545 715.833 127.661ZM697.451 76.5686C710.453 76.5686 721.214 78.9589 729.733 83.7395C738.401 88.3707 744.827 94.5705 749.012 102.339C753.346 110.107 755.513 118.548 755.513 127.661C755.513 133.936 754.317 140.135 751.926 146.26C749.684 152.386 746.172 157.913 741.39 162.843C736.757 167.773 730.779 171.732 723.456 174.72C716.132 177.558 707.464 178.978 697.451 178.978H664.272V233.431H625.266V76.5686H697.451ZM717.179 165.532L758.427 233.431H715.385L676.378 165.532H717.179Z" stroke="white" stroke-width="4" mask="url(#path-2-outside-2_5745_2741)"/>
<path d="M913.729 76.5686V233.431H874.497L815.987 138.417V233.431H776.98V76.5686H816.211L874.722 172.255V76.5686H913.729Z" stroke="white" stroke-width="4" mask="url(#path-2-outside-2_5745_2741)"/>
<path d="M1056.02 109.286H977.334V138.641H1036.07V169.118H977.334V200.714H1056.02V233.431H938.327V76.5686H1056.02V109.286Z" stroke="white" stroke-width="4" mask="url(#path-2-outside-2_5745_2741)"/>
<path d="M1181.39 76.5686H1226L1166.59 181.891V233.431H1127.59V181.891L1067.95 76.5686H1112.57L1147.09 141.331L1181.39 76.5686Z" stroke="white" stroke-width="4" mask="url(#path-2-outside-2_5745_2741)"/>
<path d="M248.966 3.35385C250.839 6.10895 250.64 9.26005 248.514 10.3874C246.391 11.5162 243.153 10.1955 241.276 7.43863C239.402 4.68152 239.602 1.53283 241.725 0.403462C243.851 -0.725704 247.087 0.596728 248.966 3.35385Z" fill="#EC691F"/>
<path d="M268.963 21.15C271.967 10.805 273.652 0.622105 252.999 3.87639C264.258 0.0729395 278.653 1.63801 276.845 15.3934C274.819 33.8494 244.413 55.3275 226.58 50.2413C214.821 48.4677 210.005 28.9297 235.248 12.154C223.153 23.26 218.039 43.9196 234.889 47.7805C245.602 45.8831 255.719 21.8306 231.661 6.57628C241.481 11.7878 257.407 14.845 264.112 12.3329C262.845 15.7434 255.945 18.107 252.28 17.1916C258.31 30.2251 250.949 44.6592 239.37 47.6015C248.863 47.3669 262.241 38.1131 268.963 21.15Z" fill="#EC691F"/>
</svg>
