<svg width="730" height="626" viewBox="0 0 730 626" fill="none" xmlns="http://www.w3.org/2000/svg">
<path d="M115.273 435.997C114.995 436.122 114.871 436.449 114.997 436.727C115.122 437.005 115.449 437.129 115.727 437.003L115.273 435.997ZM145.5 213.5L146.021 213.319L146.01 213.287L145.996 213.257L145.5 213.5ZM146.042 1.3993C145.987 1.09953 145.699 0.901597 145.399 0.957211L140.514 1.86351C140.214 1.91912 140.016 2.20722 140.072 2.50699C140.127 2.80677 140.416 3.0047 140.715 2.94908L145.058 2.14349L145.863 6.4858C145.919 6.78557 146.207 6.9835 146.507 6.92789C146.806 6.87227 147.004 6.58417 146.949 6.2844L146.042 1.3993ZM117.759 436.026C118.031 435.888 118.139 435.556 118.001 435.284C117.863 435.012 117.53 434.904 117.259 435.043L117.759 436.026ZM124.853 430.357C124.607 430.536 124.552 430.882 124.731 431.128C124.91 431.375 125.255 431.43 125.502 431.251L124.853 430.357ZM129.082 428.469C129.316 428.274 129.349 427.926 129.154 427.692C128.959 427.457 128.611 427.425 128.377 427.62L129.082 428.469ZM134.905 421.512C134.694 421.733 134.702 422.082 134.923 422.293C135.143 422.503 135.493 422.495 135.703 422.275L134.905 421.512ZM138.747 418.914C138.946 418.682 138.92 418.334 138.688 418.135C138.457 417.936 138.109 417.963 137.91 418.194L138.747 418.914ZM143.413 411.117C143.237 411.367 143.297 411.711 143.546 411.887C143.795 412.062 144.14 412.003 144.315 411.753L143.413 411.117ZM146.847 407.98C147.012 407.724 146.937 407.382 146.68 407.218C146.423 407.054 146.081 407.129 145.917 407.386L146.847 407.98ZM150.409 399.662C150.267 399.932 150.37 400.266 150.64 400.408C150.909 400.55 151.243 400.447 151.386 400.178L150.409 399.662ZM153.42 396.136C153.552 395.861 153.436 395.531 153.161 395.399C152.886 395.267 152.556 395.383 152.425 395.658L153.42 396.136ZM156.004 387.42C155.893 387.704 156.033 388.024 156.316 388.135C156.6 388.247 156.921 388.107 157.032 387.823L156.004 387.42ZM158.605 383.601C158.707 383.313 158.556 382.998 158.268 382.896C157.981 382.795 157.666 382.945 157.564 383.233L158.605 383.601ZM160.281 374.659C160.199 374.953 160.369 375.258 160.663 375.341C160.956 375.423 161.261 375.253 161.344 374.959L160.281 374.659ZM162.5 370.613C162.574 370.317 162.394 370.017 162.098 369.943C161.803 369.869 161.503 370.049 161.429 370.345L162.5 370.613ZM163.356 361.567C163.299 361.867 163.496 362.156 163.795 362.213C164.095 362.27 164.384 362.073 164.441 361.774L163.356 361.567ZM165.225 357.33C165.274 357.029 165.069 356.746 164.768 356.697C164.467 356.648 164.184 356.852 164.135 357.153L165.225 357.33ZM165.35 348.26C165.316 348.563 165.534 348.836 165.837 348.87C166.141 348.904 166.414 348.686 166.447 348.383L165.35 348.26ZM166.898 343.845C166.924 343.542 166.699 343.274 166.396 343.247C166.092 343.221 165.824 343.446 165.798 343.749L166.898 343.845ZM166.376 334.792C166.363 335.097 166.599 335.354 166.904 335.367C167.208 335.38 167.466 335.144 167.479 334.839L166.376 334.792ZM167.622 330.36C167.628 330.055 167.386 329.802 167.082 329.796C166.777 329.789 166.524 330.031 166.518 330.336L167.622 330.36ZM166.53 321.351C166.536 321.656 166.787 321.898 167.092 321.893C167.397 321.887 167.64 321.635 167.634 321.331L166.53 321.351ZM167.507 316.774C167.496 316.469 167.24 316.231 166.935 316.243C166.631 316.254 166.393 316.51 166.404 316.815L167.507 316.774ZM165.908 307.836C165.93 308.14 166.195 308.368 166.499 308.346C166.803 308.324 167.031 308.06 167.009 307.755L165.908 307.836ZM166.648 303.305C166.62 303.001 166.352 302.777 166.048 302.804C165.745 302.831 165.521 303.1 165.548 303.403L166.648 303.305ZM164.6 294.453C164.637 294.756 164.912 294.971 165.215 294.934C165.518 294.897 165.733 294.622 165.696 294.32L164.6 294.453ZM165.117 289.847C165.075 289.544 164.797 289.333 164.495 289.375C164.193 289.416 163.982 289.695 164.023 289.997L165.117 289.847ZM162.674 281.116C162.724 281.417 163.008 281.62 163.309 281.57C163.61 281.52 163.813 281.236 163.763 280.935L162.674 281.116ZM162.983 276.445C162.929 276.145 162.642 275.946 162.342 276C162.042 276.054 161.843 276.341 161.897 276.641L162.983 276.445ZM160.19 267.847C160.251 268.146 160.544 268.338 160.842 268.276C161.141 268.214 161.333 267.922 161.271 267.623L160.19 267.847ZM160.318 263.171C160.253 262.874 159.958 262.686 159.66 262.751C159.362 262.817 159.174 263.111 159.24 263.409L160.318 263.171ZM157.205 254.673C157.278 254.969 157.577 255.15 157.873 255.078C158.169 255.005 158.35 254.706 158.277 254.41L157.205 254.673ZM157.177 250.029C157.101 249.734 156.8 249.556 156.505 249.632C156.21 249.708 156.032 250.009 156.108 250.304L157.177 250.029ZM153.771 241.61C153.853 241.903 154.158 242.075 154.452 241.993C154.745 241.91 154.917 241.606 154.834 241.312L153.771 241.61ZM153.599 236.988C153.514 236.695 153.207 236.527 152.915 236.612C152.622 236.698 152.454 237.004 152.539 237.297L153.599 236.988ZM149.932 228.667C150.023 228.958 150.333 229.121 150.624 229.03C150.915 228.939 151.077 228.629 150.986 228.338L149.932 228.667ZM149.625 224.055C149.531 223.765 149.22 223.605 148.93 223.699C148.64 223.793 148.48 224.104 148.574 224.394L149.625 224.055ZM145.727 215.848C145.826 216.137 146.14 216.29 146.429 216.191C146.717 216.092 146.871 215.778 146.772 215.49L145.727 215.848ZM145.014 211.243C144.881 210.969 144.55 210.855 144.276 210.988C144.002 211.121 143.887 211.451 144.021 211.725L145.014 211.243ZM140.212 203.743C140.341 204.019 140.67 204.138 140.946 204.008C141.222 203.879 141.341 203.55 141.212 203.274L140.212 203.743ZM139.344 199.247C139.217 198.97 138.889 198.849 138.612 198.976C138.335 199.103 138.213 199.431 138.341 199.708L139.344 199.247ZM134.711 191.63C134.833 191.909 135.159 192.036 135.438 191.913C135.717 191.791 135.844 191.465 135.722 191.186L134.711 191.63ZM133.975 187.16C133.855 186.88 133.53 186.75 133.25 186.87C132.97 186.99 132.84 187.314 132.96 187.595L133.975 187.16ZM129.552 179.417C129.666 179.699 129.988 179.836 130.27 179.721C130.553 179.607 130.689 179.285 130.575 179.003L129.552 179.417ZM128.931 174.875C128.819 174.591 128.499 174.451 128.215 174.563C127.931 174.674 127.791 174.994 127.903 175.278L128.931 174.875ZM124.769 166.994C124.873 167.281 125.19 167.429 125.477 167.324C125.763 167.22 125.911 166.903 125.807 166.617L124.769 166.994ZM124.326 162.465C124.225 162.177 123.91 162.025 123.622 162.126C123.335 162.226 123.183 162.541 123.283 162.829L124.326 162.465ZM120.481 154.414C120.573 154.704 120.883 154.866 121.174 154.774C121.464 154.682 121.625 154.371 121.533 154.081L120.481 154.414ZM120.241 149.88C120.154 149.588 119.846 149.422 119.554 149.509C119.262 149.596 119.096 149.904 119.183 150.196L120.241 149.88ZM116.793 141.654C116.87 141.949 117.171 142.126 117.466 142.049C117.761 141.972 117.938 141.671 117.861 141.376L116.793 141.654ZM116.788 137.086C116.717 136.789 116.419 136.607 116.123 136.678C115.826 136.749 115.644 137.047 115.715 137.343L116.788 137.086ZM113.832 128.695C113.891 128.994 114.181 129.19 114.48 129.131C114.779 129.073 114.975 128.783 114.916 128.484L113.832 128.695ZM114.118 124.126C114.067 123.825 113.782 123.623 113.481 123.674C113.181 123.726 112.979 124.011 113.03 124.312L114.118 124.126ZM111.753 115.548C111.79 115.851 112.064 116.067 112.367 116.031C112.67 115.995 112.886 115.72 112.85 115.417L111.753 115.548ZM112.383 111.019C112.355 110.715 112.086 110.492 111.783 110.52C111.479 110.548 111.256 110.817 111.284 111.12L112.383 111.019ZM110.72 102.272C110.731 102.576 110.986 102.815 111.291 102.804C111.596 102.794 111.834 102.538 111.824 102.234L110.72 102.272ZM111.738 97.8222C111.737 97.5174 111.489 97.2712 111.184 97.2724C110.879 97.2737 110.633 97.5218 110.634 97.8267L111.738 97.8222ZM110.877 88.952C110.859 89.2564 111.091 89.5177 111.396 89.5358C111.7 89.5539 111.961 89.3218 111.979 89.0174L110.877 88.952ZM112.311 84.6273C112.339 84.3237 112.116 84.0549 111.812 84.027C111.509 83.999 111.24 84.2225 111.212 84.5261L112.311 84.6273ZM112.317 75.7125C112.269 76.0136 112.474 76.2965 112.775 76.3444C113.077 76.3923 113.359 76.187 113.407 75.8859L112.317 75.7125ZM114.171 71.5485C114.228 71.2491 114.032 70.9596 113.733 70.9018C113.434 70.8441 113.144 71.0399 113.086 71.3393L114.171 71.5485ZM115.05 62.6806C114.973 62.9757 115.15 63.2772 115.445 63.3541C115.74 63.431 116.041 63.2542 116.118 62.9592L115.05 62.6806ZM117.296 58.7149C117.382 58.4224 117.215 58.1155 116.923 58.0294C116.63 57.9433 116.323 58.1107 116.237 58.4031L117.296 58.7149ZM119 49.9645C118.896 50.2513 119.045 50.5676 119.332 50.6709C119.619 50.7743 119.935 50.6255 120.038 50.3386L119 49.9645ZM121.589 46.2176C121.7 45.9337 121.56 45.6134 121.276 45.5021C120.992 45.3908 120.672 45.5307 120.561 45.8145L121.589 46.2176ZM124.021 37.634C123.895 37.9117 124.018 38.2388 124.296 38.3648C124.574 38.4907 124.901 38.3677 125.027 38.0901L124.021 37.634ZM126.893 34.1054C127.025 33.8309 126.91 33.5008 126.636 33.3683C126.361 33.2357 126.031 33.3508 125.898 33.6254L126.893 34.1054ZM129.939 25.7153C129.795 25.9837 129.895 26.3185 130.163 26.463C130.432 26.6076 130.767 26.5071 130.911 26.2386L129.939 25.7153ZM133.035 22.3872C133.185 22.1216 133.091 21.7849 132.825 21.6351C132.56 21.4852 132.223 21.5791 132.073 21.8446L133.035 22.3872ZM136.577 14.1958C136.418 14.4558 136.5 14.7957 136.76 14.955C137.019 15.1143 137.359 15.0328 137.519 14.7728L136.577 14.1958ZM139.85 11.0388C140.013 10.7815 139.937 10.4403 139.68 10.2768C139.422 10.1133 139.081 10.1893 138.918 10.4467L139.85 11.0388ZM143.784 3.03566C143.613 3.28811 143.679 3.63135 143.932 3.8023C144.184 3.97326 144.527 3.90719 144.698 3.65474L143.784 3.03566ZM115.727 437.003C116.397 436.701 117.075 436.375 117.759 436.026L117.259 435.043C116.589 435.384 115.926 435.702 115.273 435.997L115.727 437.003ZM125.502 431.251C126.689 430.39 127.884 429.463 129.082 428.469L128.377 427.62C127.197 428.599 126.021 429.511 124.853 430.357L125.502 431.251ZM135.703 422.275C136.724 421.206 137.74 420.086 138.747 418.914L137.91 418.194C136.915 419.352 135.912 420.458 134.905 421.512L135.703 422.275ZM144.315 411.753C145.171 410.538 146.016 409.281 146.847 407.98L145.917 407.386C145.095 408.672 144.259 409.916 143.413 411.117L144.315 411.753ZM151.386 400.178C152.079 398.866 152.757 397.518 153.42 396.136L152.425 395.658C151.768 397.028 151.096 398.363 150.409 399.662L151.386 400.178ZM157.032 387.823C157.572 386.446 158.097 385.038 158.605 383.601L157.564 383.233C157.06 384.659 156.54 386.054 156.004 387.42L157.032 387.823ZM161.344 374.959C161.746 373.536 162.131 372.087 162.5 370.613L161.429 370.345C161.063 371.809 160.68 373.247 160.281 374.659L161.344 374.959ZM164.441 361.774C164.718 360.315 164.98 358.834 165.225 357.33L164.135 357.153C163.892 358.647 163.632 360.119 163.356 361.567L164.441 361.774ZM166.447 348.383C166.614 346.891 166.764 345.378 166.898 343.845L165.798 343.749C165.665 345.273 165.515 346.777 165.35 348.26L166.447 348.383ZM167.479 334.839C167.541 333.363 167.589 331.87 167.622 330.36L166.518 330.336C166.486 331.839 166.438 333.324 166.376 334.792L167.479 334.839ZM167.634 321.331C167.607 319.828 167.565 318.309 167.507 316.774L166.404 316.815C166.461 318.343 166.503 319.855 166.53 321.351L167.634 321.331ZM167.009 307.755C166.902 306.286 166.782 304.802 166.648 303.305L165.548 303.403C165.681 304.895 165.801 306.372 165.908 307.836L167.009 307.755ZM165.696 294.32C165.516 292.841 165.323 291.35 165.117 289.847L164.023 289.997C164.229 291.495 164.421 292.98 164.6 294.453L165.696 294.32ZM163.763 280.935C163.516 279.45 163.256 277.954 162.983 276.445L161.897 276.641C162.168 278.145 162.427 279.636 162.674 281.116L163.763 280.935ZM161.271 267.623C160.965 266.15 160.648 264.666 160.318 263.171L159.24 263.409C159.568 264.899 159.885 266.379 160.19 267.847L161.271 267.623ZM158.277 254.41C157.922 252.959 157.555 251.499 157.177 250.029L156.108 250.304C156.485 251.77 156.85 253.226 157.205 254.673L158.277 254.41ZM154.834 241.312C154.433 239.88 154.021 238.438 153.599 236.988L152.539 237.297C152.96 238.743 153.371 240.181 153.771 241.61L154.834 241.312ZM150.986 228.338C150.542 226.918 150.089 225.491 149.625 224.055L148.574 224.394C149.037 225.827 149.49 227.251 149.932 228.667L150.986 228.338ZM146.772 215.49C146.524 214.768 146.274 214.044 146.021 213.319L144.978 213.681C145.231 214.406 145.48 215.128 145.727 215.848L146.772 215.49ZM145.996 213.257C145.666 212.584 145.339 211.912 145.014 211.243L144.021 211.725C144.346 212.396 144.674 213.068 145.004 213.743L145.996 213.257ZM141.212 203.274C140.579 201.923 139.956 200.581 139.344 199.247L138.341 199.708C138.954 201.044 139.578 202.389 140.212 203.743L141.212 203.274ZM135.722 191.186C135.128 189.835 134.546 188.493 133.975 187.16L132.96 187.595C133.532 188.931 134.116 190.276 134.711 191.63L135.722 191.186ZM130.575 179.003C130.014 177.617 129.466 176.241 128.931 174.875L127.903 175.278C128.44 176.648 128.989 178.028 129.552 179.417L130.575 179.003ZM125.807 166.617C125.299 165.223 124.805 163.839 124.326 162.465L123.283 162.829C123.765 164.208 124.26 165.596 124.769 166.994L125.807 166.617ZM121.533 154.081C121.087 152.671 120.657 151.27 120.241 149.88L119.183 150.196C119.6 151.592 120.033 152.998 120.481 154.414L121.533 154.081ZM117.861 141.376C117.486 139.936 117.129 138.506 116.788 137.086L115.715 137.343C116.057 138.77 116.416 140.207 116.793 141.654L117.861 141.376ZM114.916 128.484C114.631 127.021 114.365 125.569 114.118 124.126L113.03 124.312C113.278 125.763 113.546 127.224 113.832 128.695L114.916 128.484ZM112.85 115.417C112.673 113.942 112.518 112.476 112.383 111.019L111.284 111.12C111.419 112.588 111.576 114.063 111.753 115.548L112.85 115.417ZM111.824 102.234C111.773 100.755 111.744 99.285 111.738 97.8222L110.634 97.8267C110.64 99.3007 110.669 100.782 110.72 102.272L111.824 102.234ZM111.979 89.0174C112.067 87.5478 112.177 86.0846 112.311 84.6273L111.212 84.5261C111.077 85.9954 110.965 87.4704 110.877 88.952L111.979 89.0174ZM113.407 75.8859C113.638 74.4358 113.892 72.9902 114.171 71.5485L113.086 71.3393C112.806 72.7929 112.549 74.2504 112.317 75.7125L113.407 75.8859ZM116.118 62.9592C116.488 61.5423 116.881 60.1278 117.296 58.7149L116.237 58.4031C115.818 59.8269 115.422 61.2525 115.05 62.6806L116.118 62.9592ZM120.038 50.3386C120.533 48.9649 121.05 47.5914 121.589 46.2176L120.561 45.8145C120.018 47.1978 119.498 48.5809 119 49.9645L120.038 50.3386ZM125.027 38.0901C125.629 36.7635 126.251 35.4355 126.893 34.1054L125.898 33.6254C125.252 34.9632 124.627 36.2993 124.021 37.634L125.027 38.0901ZM130.911 26.2386C131.601 24.9578 132.309 23.6742 133.035 22.3872L132.073 21.8446C131.343 23.1378 130.632 24.4279 129.939 25.7153L130.911 26.2386ZM137.519 14.7728C138.279 13.5322 139.056 12.2877 139.85 11.0388L138.918 10.4467C138.121 11.7004 137.341 12.95 136.577 14.1958L137.519 14.7728ZM144.698 3.65474C145.113 3.04192 145.532 2.42789 145.955 1.8126L145.045 1.1874C144.621 1.80469 144.2 2.42076 143.784 3.03566L144.698 3.65474ZM115.045 435.494C114.49 435.745 114.243 436.399 114.494 436.954C114.745 437.51 115.399 437.757 115.954 437.506L115.045 435.494ZM145.5 213.5L146.543 213.137L146.521 213.074L146.491 213.015L145.5 213.5ZM146.585 1.2986C146.474 0.699053 145.898 0.303193 145.298 0.414423L135.528 2.22701C134.929 2.33824 134.533 2.91444 134.644 3.51399C134.755 4.11354 135.331 4.5094 135.931 4.39817L144.616 2.78698L146.227 11.4716C146.338 12.0711 146.914 12.467 147.514 12.3558C148.113 12.2445 148.509 11.6683 148.398 11.0688L146.585 1.2986ZM118.01 436.518C118.553 436.242 118.77 435.577 118.493 435.034C118.216 434.49 117.551 434.274 117.008 434.551L118.01 436.518ZM124.529 429.91C124.036 430.268 123.926 430.959 124.284 431.452C124.642 431.946 125.332 432.056 125.826 431.698L124.529 429.91ZM129.434 428.894C129.904 428.504 129.968 427.808 129.579 427.339C129.189 426.87 128.493 426.805 128.024 427.195L129.434 428.894ZM134.506 421.131C134.085 421.572 134.101 422.271 134.542 422.692C134.983 423.113 135.682 423.097 136.103 422.656L134.506 421.131ZM139.166 419.273C139.563 418.811 139.511 418.114 139.048 417.716C138.586 417.319 137.889 417.372 137.491 417.834L139.166 419.273ZM142.961 410.8C142.61 411.298 142.73 411.987 143.228 412.338C143.727 412.689 144.416 412.57 144.767 412.071L142.961 410.8ZM147.313 408.278C147.641 407.764 147.491 407.081 146.977 406.753C146.463 406.424 145.781 406.575 145.452 407.088L147.313 408.278ZM149.921 399.404C149.636 399.943 149.843 400.611 150.382 400.896C150.921 401.181 151.589 400.975 151.874 400.436L149.921 399.404ZM153.918 396.374C154.182 395.824 153.949 395.165 153.4 394.901C152.85 394.638 152.19 394.87 151.927 395.42L153.918 396.374ZM155.49 387.218C155.267 387.786 155.547 388.427 156.115 388.649C156.682 388.872 157.323 388.592 157.546 388.025L155.49 387.218ZM159.125 383.785C159.329 383.21 159.027 382.579 158.452 382.376C157.877 382.173 157.247 382.474 157.043 383.049L159.125 383.785ZM159.75 374.509C159.584 375.096 159.926 375.706 160.513 375.872C161.1 376.038 161.71 375.696 161.875 375.109L159.75 374.509ZM163.036 370.747C163.184 370.155 162.824 369.555 162.232 369.408C161.641 369.26 161.041 369.619 160.893 370.211L163.036 370.747ZM162.814 361.464C162.7 362.063 163.093 362.641 163.692 362.755C164.291 362.869 164.869 362.476 164.983 361.877L162.814 361.464ZM165.769 357.419C165.867 356.817 165.459 356.25 164.857 356.152C164.255 356.054 163.688 356.462 163.59 357.064L165.769 357.419ZM164.801 348.199C164.734 348.805 165.17 349.351 165.776 349.419C166.382 349.486 166.928 349.05 166.996 348.444L164.801 348.199ZM167.448 343.893C167.501 343.286 167.051 342.75 166.444 342.697C165.836 342.644 165.301 343.094 165.248 343.701L167.448 343.893ZM165.824 334.769C165.798 335.378 166.271 335.893 166.88 335.919C167.49 335.945 168.004 335.472 168.03 334.862L165.824 334.769ZM168.174 330.371C168.187 329.762 167.703 329.257 167.094 329.244C166.484 329.231 165.979 329.714 165.966 330.324L168.174 330.371ZM165.978 321.361C165.989 321.97 166.493 322.456 167.102 322.445C167.712 322.433 168.197 321.93 168.186 321.32L165.978 321.361ZM168.059 316.753C168.036 316.144 167.524 315.668 166.915 315.691C166.305 315.714 165.83 316.226 165.852 316.835L168.059 316.753ZM165.357 307.876C165.402 308.484 165.931 308.941 166.539 308.897C167.147 308.852 167.604 308.324 167.56 307.715L165.357 307.876ZM167.197 303.256C167.143 302.648 166.607 302.2 165.999 302.254C165.392 302.309 164.944 302.845 164.998 303.453L167.197 303.256ZM164.052 294.52C164.126 295.125 164.677 295.556 165.282 295.482C165.887 295.409 166.318 294.858 166.244 294.253L164.052 294.52ZM165.664 289.772C165.581 289.167 165.024 288.745 164.42 288.828C163.816 288.911 163.393 289.467 163.476 290.072L165.664 289.772ZM162.129 281.207C162.229 281.808 162.798 282.215 163.4 282.115C164.001 282.014 164.407 281.446 164.307 280.844L162.129 281.207ZM163.527 276.347C163.418 275.747 162.844 275.348 162.244 275.457C161.644 275.565 161.245 276.139 161.354 276.74L163.527 276.347ZM159.649 267.959C159.773 268.556 160.357 268.94 160.954 268.816C161.551 268.692 161.935 268.108 161.811 267.511L159.649 267.959ZM160.857 263.053C160.726 262.457 160.137 262.081 159.541 262.212C158.946 262.343 158.57 262.932 158.701 263.528L160.857 263.053ZM156.669 254.804C156.814 255.397 157.412 255.759 158.004 255.614C158.596 255.469 158.959 254.871 158.814 254.279L156.669 254.804ZM157.712 249.891C157.56 249.301 156.958 248.945 156.367 249.097C155.777 249.249 155.421 249.851 155.573 250.441L157.712 249.891ZM153.24 241.759C153.404 242.346 154.014 242.689 154.601 242.524C155.188 242.36 155.53 241.75 155.366 241.163L153.24 241.759ZM154.129 236.834C153.958 236.248 153.346 235.912 152.76 236.082C152.175 236.253 151.838 236.866 152.009 237.451L154.129 236.834ZM149.406 228.832C149.588 229.414 150.207 229.738 150.789 229.556C151.371 229.374 151.695 228.755 151.513 228.173L149.406 228.832ZM150.15 223.885C149.963 223.305 149.34 222.986 148.76 223.174C148.18 223.361 147.861 223.984 148.049 224.564L150.15 223.885ZM145.205 216.027C145.403 216.604 146.031 216.911 146.608 216.713C147.184 216.516 147.492 215.888 147.294 215.311L145.205 216.027ZM145.51 211.002C145.244 210.454 144.584 210.225 144.035 210.491C143.486 210.757 143.258 211.418 143.524 211.967L145.51 211.002ZM139.712 203.977C139.971 204.529 140.628 204.767 141.18 204.508C141.733 204.25 141.97 203.592 141.712 203.04L139.712 203.977ZM139.846 199.017C139.591 198.463 138.936 198.22 138.382 198.474C137.827 198.729 137.584 199.384 137.839 199.938L139.846 199.017ZM134.205 191.852C134.45 192.41 135.102 192.664 135.66 192.419C136.218 192.174 136.472 191.522 136.227 190.964L134.205 191.852ZM134.482 186.943C134.242 186.382 133.593 186.122 133.033 186.362C132.472 186.603 132.213 187.252 132.453 187.812L134.482 186.943ZM129.04 179.624C129.269 180.189 129.912 180.462 130.478 180.233C131.043 180.004 131.316 179.361 131.087 178.795L129.04 179.624ZM129.445 174.674C129.222 174.106 128.581 173.826 128.014 174.049C127.446 174.271 127.166 174.912 127.389 175.48L129.445 174.674ZM124.25 167.183C124.459 167.756 125.093 168.052 125.666 167.843C126.239 167.634 126.534 167.001 126.325 166.428L124.25 167.183ZM124.847 162.283C124.646 161.707 124.016 161.404 123.44 161.605C122.865 161.806 122.561 162.435 122.762 163.011L124.847 162.283ZM119.954 154.58C120.138 155.162 120.759 155.484 121.34 155.3C121.922 155.116 122.244 154.496 122.06 153.914L119.954 154.58ZM120.77 149.722C120.596 149.138 119.98 148.806 119.396 148.98C118.812 149.155 118.48 149.77 118.654 150.354L120.77 149.722ZM116.258 141.793C116.412 142.383 117.015 142.737 117.605 142.583C118.195 142.43 118.549 141.827 118.395 141.237L116.258 141.793ZM117.325 136.957C117.183 136.364 116.587 135.999 115.994 136.141C115.401 136.283 115.036 136.879 115.178 137.472L117.325 136.957ZM113.291 128.801C113.407 129.399 113.987 129.79 114.586 129.673C115.184 129.557 115.575 128.977 115.458 128.378L113.291 128.801ZM114.662 124.033C114.56 123.432 113.989 123.028 113.388 123.13C112.787 123.233 112.383 123.804 112.486 124.405L114.662 124.033ZM111.205 115.614C111.278 116.22 111.827 116.652 112.433 116.579C113.038 116.507 113.47 115.957 113.398 115.352L111.205 115.614ZM112.933 110.968C112.877 110.361 112.339 109.914 111.732 109.97C111.125 110.026 110.678 110.564 110.734 111.171L112.933 110.968ZM110.168 102.291C110.189 102.9 110.7 103.377 111.31 103.356C111.919 103.335 112.396 102.824 112.375 102.215L110.168 102.291ZM112.29 97.82C112.288 97.2102 111.791 96.7179 111.182 96.7204C110.572 96.7228 110.08 97.2191 110.082 97.8289L112.29 97.82ZM110.326 88.9193C110.29 89.528 110.754 90.0508 111.363 90.0869C111.972 90.123 112.494 89.6588 112.53 89.0501L110.326 88.9193ZM112.861 84.6779C112.917 84.0707 112.47 83.5332 111.863 83.4772C111.256 83.4213 110.718 83.8683 110.662 84.4755L112.861 84.6779ZM111.772 75.6258C111.676 76.228 112.087 76.7938 112.689 76.8896C113.291 76.9854 113.857 76.5748 113.953 75.9726L111.772 75.6258ZM114.713 71.653C114.828 71.0543 114.436 70.4753 113.838 70.3598C113.239 70.2443 112.66 70.636 112.544 71.2347L114.713 71.653ZM114.516 62.5414C114.362 63.1314 114.716 63.7345 115.306 63.8883C115.896 64.0422 116.499 63.6885 116.653 63.0985L114.516 62.5414ZM117.826 58.8708C117.998 58.2858 117.664 57.672 117.079 57.4998C116.494 57.3277 115.88 57.6623 115.708 58.2473L117.826 58.8708ZM118.48 49.7774C118.273 50.3511 118.571 50.9837 119.145 51.1903C119.718 51.397 120.351 51.0994 120.558 50.5257L118.48 49.7774ZM122.103 46.4191C122.325 45.8514 122.045 45.2108 121.478 44.9881C120.91 44.7655 120.269 45.0453 120.047 45.613L122.103 46.4191ZM123.519 37.4059C123.267 37.9613 123.513 38.6156 124.068 38.8675C124.623 39.1194 125.278 38.8734 125.53 38.3181L123.519 37.4059ZM127.39 34.3455C127.655 33.7963 127.425 33.1363 126.876 32.8711C126.327 32.606 125.666 32.8362 125.401 33.3854L127.39 34.3455ZM129.453 25.4536C129.164 25.9905 129.365 26.6601 129.902 26.9491C130.439 27.2382 131.108 27.0372 131.397 26.5003L129.453 25.4536ZM133.516 22.6584C133.815 22.1274 133.628 21.4539 133.096 21.1543C132.565 20.8546 131.892 21.0422 131.592 21.5733L133.516 22.6584ZM136.107 13.9074C135.788 14.4273 135.951 15.107 136.471 15.4257C136.991 15.7443 137.671 15.5812 137.989 15.0613L136.107 13.9074ZM140.316 11.3349C140.643 10.8202 140.49 10.1379 139.976 9.81087C139.461 9.48384 138.779 9.63594 138.452 10.1506L140.316 11.3349ZM143.327 2.72611C142.985 3.23101 143.117 3.91749 143.622 4.2594C144.127 4.60132 144.813 4.46919 145.155 3.96429L143.327 2.72611ZM115.954 437.506C116.632 437.2 117.318 436.871 118.01 436.518L117.008 434.551C116.346 434.888 115.691 435.202 115.045 435.494L115.954 437.506ZM125.826 431.698C127.023 430.83 128.228 429.896 129.434 428.894L128.024 427.195C126.854 428.166 125.687 429.071 124.529 429.91L125.826 431.698ZM136.103 422.656C137.13 421.58 138.152 420.453 139.166 419.273L137.491 417.834C136.502 418.985 135.506 420.083 134.506 421.131L136.103 422.656ZM144.767 412.071C145.627 410.849 146.477 409.585 147.313 408.278L145.452 407.088C144.634 408.368 143.803 409.605 142.961 410.8L144.767 412.071ZM151.874 400.436C152.57 399.117 153.252 397.764 153.918 396.374L151.927 395.42C151.273 396.783 150.604 398.111 149.921 399.404L151.874 400.436ZM157.546 388.025C158.088 386.641 158.615 385.228 159.125 383.785L157.043 383.049C156.542 384.469 156.023 385.859 155.49 387.218L157.546 388.025ZM161.875 375.109C162.278 373.681 162.666 372.227 163.036 370.747L160.893 370.211C160.529 371.67 160.147 373.102 159.75 374.509L161.875 375.109ZM164.983 361.877C165.262 360.414 165.524 358.928 165.769 357.419L163.59 357.064C163.347 358.554 163.089 360.02 162.814 361.464L164.983 361.877ZM166.996 348.444C167.163 346.947 167.313 345.43 167.448 343.893L165.248 343.701C165.115 345.221 164.966 346.72 164.801 348.199L166.996 348.444ZM168.03 334.862C168.093 333.383 168.141 331.886 168.174 330.371L165.966 330.324C165.934 331.823 165.886 333.305 165.824 334.769L168.03 334.862ZM168.186 321.32C168.159 319.814 168.116 318.292 168.059 316.753L165.852 316.835C165.909 318.36 165.951 319.868 165.978 321.361L168.186 321.32ZM167.56 307.715C167.453 306.243 167.332 304.756 167.197 303.256L164.998 303.453C165.131 304.941 165.251 306.415 165.357 307.876L167.56 307.715ZM166.244 294.253C166.064 292.772 165.87 291.278 165.664 289.772L163.476 290.072C163.681 291.567 163.873 293.05 164.052 294.52L166.244 294.253ZM164.307 280.844C164.06 279.357 163.8 277.858 163.527 276.347L161.354 276.74C161.625 278.241 161.883 279.73 162.129 281.207L164.307 280.844ZM161.811 267.511C161.505 266.036 161.187 264.55 160.857 263.053L158.701 263.528C159.029 265.016 159.345 266.493 159.649 267.959L161.811 267.511ZM158.814 254.279C158.457 252.826 158.09 251.364 157.712 249.891L155.573 250.441C155.95 251.906 156.315 253.36 156.669 254.804L158.814 254.279ZM155.366 241.163C154.964 239.729 154.552 238.286 154.129 236.834L152.009 237.451C152.43 238.896 152.84 240.332 153.24 241.759L155.366 241.163ZM151.513 228.173C151.069 226.752 150.614 225.323 150.15 223.885L148.049 224.564C148.511 225.995 148.963 227.418 149.406 228.832L151.513 228.173ZM147.294 215.311C147.046 214.588 146.795 213.864 146.543 213.137L144.457 213.863C144.709 214.586 144.958 215.308 145.205 216.027L147.294 215.311ZM146.491 213.015C146.162 212.342 145.835 211.671 145.51 211.002L143.524 211.967C143.85 212.637 144.178 213.31 144.508 213.985L146.491 213.015ZM141.712 203.04C141.079 201.69 140.457 200.349 139.846 199.017L137.839 199.938C138.453 201.276 139.077 202.622 139.712 203.977L141.712 203.04ZM136.227 190.964C135.634 189.614 135.053 188.274 134.482 186.943L132.453 187.812C133.026 189.15 133.61 190.496 134.205 191.852L136.227 190.964ZM131.087 178.795C130.527 177.412 129.979 176.038 129.445 174.674L127.389 175.48C127.926 176.852 128.477 178.233 129.04 179.624L131.087 178.795ZM126.325 166.428C125.819 165.036 125.326 163.655 124.847 162.283L122.762 163.011C123.244 164.392 123.74 165.783 124.25 167.183L126.325 166.428ZM122.06 153.914C121.615 152.507 121.185 151.11 120.77 149.722L118.654 150.354C119.072 151.753 119.506 153.162 119.954 154.58L122.06 153.914ZM118.395 141.237C118.021 139.8 117.665 138.374 117.325 136.957L115.178 137.472C115.521 138.903 115.881 140.343 116.258 141.793L118.395 141.237ZM115.458 128.378C115.174 126.92 114.908 125.471 114.662 124.033L112.486 124.405C112.735 125.861 113.003 127.326 113.291 128.801L115.458 128.378ZM113.398 115.352C113.222 113.881 113.067 112.42 112.933 110.968L110.734 111.171C110.87 112.643 111.027 114.124 111.205 115.614L113.398 115.352ZM112.375 102.215C112.324 100.742 112.296 99.2771 112.29 97.82L110.082 97.8289C110.088 99.3086 110.117 100.796 110.168 102.291L112.375 102.215ZM112.53 89.0501C112.617 87.5864 112.728 86.1292 112.861 84.6779L110.662 84.4755C110.526 85.9507 110.414 87.4318 110.326 88.9193L112.53 89.0501ZM113.953 75.9726C114.182 74.5285 114.436 73.0889 114.713 71.653L112.544 71.2347C112.263 72.6943 112.005 74.1577 111.772 75.6258L113.953 75.9726ZM116.653 63.0985C117.021 61.6872 117.412 60.2782 117.826 58.8708L115.708 58.2473C115.287 59.6765 114.89 61.1076 114.516 62.5414L116.653 63.0985ZM120.558 50.5257C121.051 49.1569 121.566 47.7882 122.103 46.4191L120.047 45.613C119.502 47.001 118.98 48.3889 118.48 49.7774L120.558 50.5257ZM125.53 38.3181C126.129 36.9957 126.75 35.6717 127.39 34.3455L125.401 33.3854C124.753 34.7271 124.126 36.0671 123.519 37.4059L125.53 38.3181ZM131.397 26.5003C132.085 25.2228 132.791 23.9424 133.516 22.6584L131.592 21.5733C130.861 22.8697 130.148 24.1629 129.453 25.4536L131.397 26.5003ZM137.989 15.0613C138.748 13.8233 139.524 12.5813 140.316 11.3349L138.452 10.1506C137.654 11.4068 136.872 12.6589 136.107 13.9074L137.989 15.0613ZM145.155 3.96429C145.57 3.3525 145.988 2.73949 146.41 2.12521L144.59 0.874792C144.165 1.49309 143.744 2.11018 143.327 2.72611L145.155 3.96429Z" fill="#6A0600"/>
<path d="M713.459 509.193C713.289 508.939 712.946 508.872 712.693 509.041C712.439 509.211 712.372 509.554 712.541 509.807L713.459 509.193ZM712.466 620.14C712.543 620.435 712.845 620.611 713.14 620.534L717.946 619.275C718.241 619.197 718.417 618.896 718.34 618.601C718.263 618.306 717.961 618.129 717.666 618.207L713.394 619.326L712.275 615.054C712.197 614.759 711.896 614.583 711.601 614.66C711.306 614.737 711.129 615.039 711.207 615.334L712.466 620.14ZM713.689 511.595C713.849 511.854 714.189 511.935 714.449 511.775C714.708 511.615 714.789 511.275 714.629 511.015L713.689 511.595ZM718.719 518.632C718.59 518.356 718.261 518.238 717.985 518.368C717.709 518.498 717.591 518.827 717.72 519.103L718.719 518.632ZM719.451 523.011C719.568 523.292 719.891 523.425 720.172 523.308C720.454 523.191 720.587 522.868 720.47 522.587L719.451 523.011ZM723.451 530.701C723.358 530.41 723.047 530.251 722.757 530.344C722.466 530.437 722.307 530.748 722.4 531.039L723.451 530.701ZM723.628 535.132C723.71 535.426 724.014 535.597 724.308 535.515C724.602 535.434 724.773 535.129 724.692 534.835L723.628 535.132ZM726.688 543.246C726.629 542.947 726.339 542.752 726.04 542.811C725.741 542.87 725.546 543.16 725.605 543.46L726.688 543.246ZM726.35 547.667C726.397 547.968 726.679 548.174 726.981 548.127C727.282 548.079 727.488 547.797 727.44 547.495L726.35 547.667ZM728.452 556.075C728.428 555.771 728.162 555.544 727.858 555.568C727.554 555.592 727.327 555.858 727.351 556.162L728.452 556.075ZM727.603 560.434C727.615 560.739 727.872 560.976 728.176 560.964C728.481 560.952 728.718 560.695 728.706 560.391L727.603 560.434ZM728.705 569.033C728.718 568.728 728.48 568.471 728.176 568.459C727.871 568.447 727.614 568.684 727.602 568.989L728.705 569.033ZM727.347 573.255C727.322 573.559 727.549 573.825 727.853 573.85C728.157 573.874 728.423 573.647 728.447 573.343L727.347 573.255ZM727.413 581.918C727.462 581.617 727.258 581.334 726.957 581.285C726.656 581.237 726.372 581.441 726.323 581.742L727.413 581.918ZM725.556 585.948C725.495 586.247 725.688 586.539 725.987 586.599C726.286 586.66 726.577 586.467 726.638 586.168L725.556 585.948ZM724.577 594.559C724.661 594.266 724.492 593.96 724.199 593.876C723.906 593.791 723.6 593.96 723.516 594.253L724.577 594.559ZM722.248 598.338C722.152 598.628 722.308 598.94 722.598 599.036C722.887 599.133 723.199 598.976 723.296 598.687L722.248 598.338ZM720.251 606.773C720.369 606.492 720.238 606.168 719.957 606.05C719.676 605.931 719.352 606.063 719.233 606.344L720.251 606.773ZM717.498 610.248C717.369 610.525 717.489 610.853 717.765 610.982C718.041 611.111 718.37 610.992 718.499 610.716L717.498 610.248ZM714.558 618.391C714.707 618.125 714.612 617.789 714.346 617.64C714.08 617.49 713.744 617.585 713.595 617.851L714.558 618.391ZM712.541 509.807C712.919 510.371 713.302 510.967 713.689 511.595L714.629 511.015C714.235 510.377 713.845 509.769 713.459 509.193L712.541 509.807ZM717.72 519.103C718.305 520.345 718.884 521.649 719.451 523.011L720.47 522.587C719.897 521.209 719.311 519.89 718.719 518.632L717.72 519.103ZM722.4 531.039C722.827 532.366 723.238 533.731 723.628 535.132L724.692 534.835C724.297 533.421 723.883 532.042 723.451 530.701L722.4 531.039ZM725.605 543.46C725.876 544.837 726.125 546.24 726.35 547.667L727.44 547.495C727.214 546.054 726.962 544.637 726.688 543.246L725.605 543.46ZM727.351 556.162C727.462 557.568 727.546 558.993 727.603 560.434L728.706 560.391C728.649 558.935 728.563 557.496 728.452 556.075L727.351 556.162ZM727.602 568.989C727.546 570.399 727.461 571.821 727.347 573.255L728.447 573.343C728.563 571.894 728.649 570.457 728.705 569.033L727.602 568.989ZM726.323 581.742C726.098 583.136 725.843 584.538 725.556 585.948L726.638 586.168C726.928 584.744 727.186 583.327 727.413 581.918L726.323 581.742ZM723.516 594.253C723.124 595.61 722.702 596.972 722.248 598.338L723.296 598.687C723.754 597.306 724.181 595.93 724.577 594.559L723.516 594.253ZM719.233 606.344C718.686 607.643 718.108 608.944 717.498 610.248L718.499 610.716C719.114 609.399 719.698 608.085 720.251 606.773L719.233 606.344ZM713.595 617.851C713.245 618.474 712.888 619.098 712.523 619.721L713.477 620.279C713.845 619.649 714.205 619.02 714.558 618.391L713.595 617.851ZM713.917 508.886C713.578 508.379 712.892 508.243 712.386 508.583C711.879 508.922 711.743 509.608 712.083 510.114L713.917 508.886ZM711.932 620.28C712.087 620.87 712.69 621.223 713.28 621.068L722.892 618.549C723.482 618.395 723.835 617.791 723.68 617.201C723.526 616.612 722.922 616.259 722.333 616.413L713.788 618.652L711.549 610.108C711.395 609.518 710.791 609.165 710.201 609.32C709.612 609.474 709.259 610.078 709.413 610.667L711.932 620.28ZM713.219 511.884C713.539 512.403 714.219 512.565 714.738 512.245C715.258 511.925 715.419 511.244 715.099 510.725L713.219 511.884ZM719.219 518.397C718.959 517.846 718.301 517.609 717.75 517.868C717.198 518.128 716.961 518.786 717.221 519.338L719.219 518.397ZM718.941 523.223C719.175 523.786 719.821 524.052 720.384 523.818C720.947 523.584 721.214 522.937 720.98 522.375L718.941 523.223ZM723.977 530.531C723.79 529.951 723.168 529.632 722.588 529.819C722.007 530.005 721.688 530.627 721.875 531.208L723.977 530.531ZM723.096 535.28C723.26 535.867 723.869 536.211 724.456 536.047C725.044 535.883 725.387 535.275 725.223 534.687L723.096 535.28ZM727.23 543.14C727.112 542.541 726.531 542.152 725.933 542.27C725.335 542.387 724.945 542.968 725.063 543.566L727.23 543.14ZM725.804 547.753C725.899 548.355 726.464 548.767 727.066 548.672C727.669 548.577 728.08 548.012 727.986 547.41L725.804 547.753ZM729.002 556.032C728.954 555.424 728.423 554.97 727.815 555.018C727.207 555.066 726.753 555.597 726.801 556.205L729.002 556.032ZM727.052 560.456C727.076 561.065 727.589 561.54 728.198 561.516C728.808 561.492 729.282 560.978 729.258 560.369L727.052 560.456ZM729.257 569.055C729.281 568.445 728.807 567.932 728.198 567.907C727.588 567.883 727.075 568.357 727.051 568.967L729.257 569.055ZM726.796 573.211C726.748 573.819 727.201 574.351 727.809 574.4C728.417 574.448 728.949 573.995 728.998 573.387L726.796 573.211ZM727.958 582.007C728.056 581.405 727.647 580.838 727.045 580.74C726.443 580.643 725.876 581.052 725.779 581.654L727.958 582.007ZM725.015 585.838C724.894 586.436 725.279 587.019 725.877 587.14C726.475 587.262 727.057 586.876 727.179 586.279L725.015 585.838ZM725.107 594.712C725.276 594.126 724.938 593.514 724.353 593.345C723.767 593.176 723.155 593.514 722.986 594.1L725.107 594.712ZM721.724 598.164C721.532 598.743 721.845 599.368 722.423 599.56C723.002 599.753 723.627 599.439 723.819 598.861L721.724 598.164ZM720.759 606.987C720.996 606.426 720.733 605.778 720.171 605.541C719.609 605.304 718.962 605.568 718.725 606.13L720.759 606.987ZM716.998 610.015C716.74 610.567 716.979 611.224 717.531 611.482C718.084 611.741 718.741 611.502 718.999 610.95L716.998 610.015ZM715.039 618.661C715.337 618.129 715.148 617.456 714.616 617.158C714.084 616.86 713.411 617.049 713.113 617.581L715.039 618.661ZM712.083 510.114C712.456 510.672 712.836 511.263 713.219 511.884L715.099 510.725C714.702 510.081 714.307 509.468 713.917 508.886L712.083 510.114ZM717.221 519.338C717.802 520.572 718.377 521.868 718.941 523.223L720.98 522.375C720.403 520.989 719.814 519.662 719.219 518.397L717.221 519.338ZM721.875 531.208C722.299 532.529 722.708 533.887 723.096 535.28L725.223 534.687C724.827 533.266 724.41 531.88 723.977 530.531L721.875 531.208ZM725.063 543.566C725.333 544.937 725.581 546.333 725.804 547.753L727.986 547.41C727.758 545.961 727.505 544.538 727.23 543.14L725.063 543.566ZM726.801 556.205C726.911 557.605 726.995 559.022 727.052 560.456L729.258 560.369C729.2 558.906 729.114 557.46 729.002 556.032L726.801 556.205ZM727.051 568.967C726.995 570.369 726.911 571.785 726.796 573.211L728.998 573.387C729.114 571.931 729.2 570.486 729.257 569.055L727.051 568.967ZM725.779 581.654C725.554 583.041 725.3 584.436 725.015 585.838L727.179 586.279C727.47 584.846 727.73 583.422 727.958 582.007L725.779 581.654ZM722.986 594.1C722.596 595.449 722.176 596.805 721.724 598.164L723.819 598.861C724.281 597.473 724.709 596.09 725.107 594.712L722.986 594.1ZM718.725 606.13C718.18 607.422 717.605 608.717 716.998 610.015L718.999 610.95C719.617 609.626 720.204 608.306 720.759 606.987L718.725 606.13ZM713.113 617.581C712.765 618.201 712.41 618.822 712.047 619.443L713.953 620.557C714.323 619.925 714.685 619.293 715.039 618.661L713.113 617.581Z" fill="#6A0600"/>
<path d="M344.413 507.367C344.615 507.139 344.595 506.79 344.367 506.587C344.139 506.385 343.79 506.405 343.587 506.633L344.413 507.367ZM182.5 578L182.526 578.551L182.5 578ZM1.44829 624.481C1.43766 624.785 1.67605 625.041 1.98075 625.052L6.94619 625.225C7.25089 625.236 7.50652 624.997 7.51715 624.692C7.52778 624.388 7.28938 624.132 6.98468 624.121L2.57096 623.968L2.72493 619.554C2.73556 619.249 2.49716 618.993 2.19246 618.983C1.88775 618.972 1.63213 619.211 1.6215 619.515L1.44829 624.481ZM4.07321 623.331C4.29743 623.124 4.31171 622.775 4.10511 622.551C3.89851 622.326 3.54927 622.312 3.32505 622.519L4.07321 623.331ZM10.1303 616.425C9.89988 616.624 9.87502 616.973 10.0747 617.204C10.2744 617.434 10.6231 617.459 10.8535 617.259L10.1303 616.425ZM14.3194 614.313C14.5537 614.117 14.5855 613.769 14.3904 613.535C14.1953 613.301 13.8472 613.269 13.6129 613.464L14.3194 614.313ZM20.8036 607.766C20.5597 607.949 20.5101 608.295 20.693 608.539C20.8758 608.783 21.2218 608.833 21.4658 608.65L20.8036 607.766ZM25.1498 605.977C25.3995 605.802 25.46 605.458 25.285 605.208C25.1099 604.959 24.7657 604.898 24.516 605.073L25.1498 605.977ZM32.2153 600.083C31.9532 600.238 31.867 600.577 32.0228 600.839C32.1786 601.101 32.5173 601.188 32.7794 601.032L32.2153 600.083ZM36.7351 598.791C37.0035 598.647 37.1039 598.312 36.9594 598.043C36.8148 597.775 36.48 597.674 36.2115 597.819L36.7351 598.791ZM44.4803 593.825C44.2002 593.945 44.0707 594.27 44.191 594.55C44.3113 594.83 44.636 594.96 44.9161 594.839L44.4803 593.825ZM49.1279 593.138C49.413 593.03 49.5565 592.711 49.4484 592.426C49.3404 592.141 49.0216 591.998 48.7365 592.106L49.1279 593.138ZM57.4402 589.205C57.1475 589.29 56.9792 589.596 57.0644 589.889C57.1496 590.182 57.456 590.35 57.7487 590.265L57.4402 589.205ZM62.1375 589.071C62.433 588.995 62.6117 588.695 62.5366 588.4C62.4616 588.104 62.1612 587.925 61.8656 588L62.1375 589.071ZM70.8188 586.009C70.5195 586.067 70.3239 586.357 70.382 586.656C70.44 586.955 70.7297 587.151 71.029 587.093L70.8188 586.009ZM75.5212 586.277C75.8217 586.226 76.024 585.941 75.9729 585.64C75.9218 585.34 75.6368 585.138 75.3362 585.189L75.5212 586.277ZM84.3761 583.832C84.0739 583.872 83.8613 584.149 83.9012 584.452C83.9412 584.754 84.2187 584.966 84.5209 584.926L84.3761 583.832ZM89.0373 584.363C89.34 584.327 89.5566 584.053 89.521 583.75C89.4854 583.447 89.211 583.231 88.9082 583.266L89.0373 584.363ZM98.0445 582.302C97.741 582.331 97.5182 582.6 97.547 582.904C97.5757 583.207 97.8451 583.43 98.1486 583.401L98.0445 582.302ZM102.663 582.994C102.967 582.968 103.192 582.701 103.166 582.397C103.14 582.093 102.872 581.868 102.568 581.894L102.663 582.994ZM111.714 581.174C111.41 581.196 111.182 581.46 111.204 581.765C111.226 582.069 111.49 582.297 111.794 582.275L111.714 581.174ZM116.316 581.961C116.62 581.94 116.85 581.677 116.83 581.373C116.809 581.069 116.546 580.838 116.242 580.859L116.316 581.961ZM125.389 580.284C125.085 580.302 124.853 580.563 124.871 580.867C124.889 581.172 125.15 581.404 125.454 581.386L125.389 580.284ZM129.983 581.125C130.288 581.107 130.521 580.847 130.504 580.542C130.486 580.238 130.226 580.005 129.921 580.022L129.983 581.125ZM139.047 579.53C138.743 579.546 138.509 579.806 138.525 580.11C138.54 580.415 138.8 580.649 139.105 580.633L139.047 579.53ZM143.711 580.398C144.016 580.383 144.25 580.123 144.235 579.819C144.22 579.514 143.96 579.28 143.656 579.295L143.711 580.398ZM152.785 578.847C152.48 578.862 152.245 579.12 152.26 579.425C152.275 579.729 152.534 579.964 152.838 579.95L152.785 578.847ZM157.355 579.734C157.659 579.719 157.895 579.461 157.88 579.156C157.866 578.852 157.607 578.616 157.302 578.631L157.355 579.734ZM166.43 578.201C166.125 578.215 165.89 578.474 165.904 578.778C165.918 579.083 166.177 579.318 166.481 579.304L166.43 578.201ZM171.094 579.088C171.399 579.074 171.634 578.815 171.62 578.511C171.606 578.206 171.347 577.971 171.043 577.985L171.094 579.088ZM180.144 577.558C179.84 577.573 179.605 577.831 179.619 578.136C179.633 578.44 179.892 578.676 180.196 578.661L180.144 577.558ZM184.714 578.441C185.019 578.425 185.252 578.165 185.236 577.86C185.22 577.556 184.96 577.322 184.655 577.339L184.714 578.441ZM193.27 576.766C192.966 576.79 192.74 577.056 192.764 577.36C192.788 577.664 193.054 577.891 193.358 577.867L193.27 576.766ZM197.671 577.494C197.974 577.466 198.197 577.197 198.169 576.893C198.141 576.59 197.872 576.367 197.568 576.395L197.671 577.494ZM206.146 575.475C205.844 575.512 205.628 575.787 205.665 576.09C205.702 576.392 205.977 576.608 206.279 576.571L206.146 575.475ZM210.588 576.015C210.891 575.974 211.102 575.696 211.061 575.394C211.02 575.091 210.741 574.88 210.439 574.921L210.588 576.015ZM218.973 573.626C218.673 573.676 218.47 573.961 218.52 574.261C218.57 574.562 218.855 574.765 219.156 574.715L218.973 573.626ZM223.403 573.969C223.703 573.914 223.901 573.626 223.846 573.326C223.791 573.026 223.503 572.828 223.203 572.883L223.403 573.969ZM231.677 571.183C231.379 571.248 231.191 571.542 231.255 571.84C231.32 572.138 231.614 572.327 231.912 572.262L231.677 571.183ZM236.131 571.306C236.428 571.236 236.612 570.938 236.542 570.642C236.472 570.345 236.175 570.161 235.878 570.231L236.131 571.306ZM244.237 568.106C243.943 568.186 243.77 568.49 243.85 568.784C243.931 569.078 244.234 569.251 244.528 569.171L244.237 568.106ZM248.708 567.988C249.001 567.902 249.168 567.595 249.083 567.303C248.997 567.01 248.69 566.842 248.398 566.928L248.708 567.988ZM256.617 564.352C256.328 564.448 256.172 564.761 256.268 565.05C256.365 565.34 256.678 565.496 256.967 565.399L256.617 564.352ZM261.077 563.98C261.364 563.877 261.514 563.561 261.412 563.274C261.309 562.987 260.994 562.837 260.706 562.94L261.077 563.98ZM268.764 559.885C268.482 559.999 268.345 560.321 268.458 560.603C268.572 560.886 268.894 561.023 269.177 560.91L268.764 559.885ZM273.184 559.249C273.464 559.129 273.595 558.805 273.475 558.524C273.355 558.244 273.031 558.114 272.751 558.233L273.184 559.249ZM280.616 554.68C280.341 554.811 280.224 555.141 280.356 555.416C280.487 555.691 280.817 555.808 281.092 555.676L280.616 554.68ZM284.974 553.77C285.246 553.632 285.355 553.3 285.218 553.028C285.08 552.756 284.748 552.647 284.476 552.784L284.974 553.77ZM292.097 548.725C291.831 548.874 291.737 549.21 291.886 549.476C292.035 549.742 292.372 549.837 292.638 549.687L292.097 548.725ZM296.396 547.521C296.658 547.366 296.745 547.027 296.59 546.765C296.435 546.502 296.096 546.416 295.834 546.571L296.396 547.521ZM303.146 542.018C302.891 542.185 302.819 542.528 302.986 542.783C303.153 543.038 303.496 543.109 303.751 542.942L303.146 542.018ZM307.346 540.53C307.597 540.357 307.66 540.013 307.488 539.762C307.315 539.511 306.971 539.447 306.72 539.62L307.346 540.53ZM313.718 534.566C313.475 534.75 313.427 535.097 313.611 535.34C313.795 535.583 314.142 535.63 314.385 535.446L313.718 534.566ZM317.813 532.786C318.052 532.597 318.091 532.25 317.902 532.011C317.712 531.772 317.365 531.732 317.126 531.922L317.813 532.786ZM323.757 526.407C323.527 526.607 323.502 526.955 323.703 527.185C323.903 527.415 324.252 527.44 324.482 527.239L323.757 526.407ZM327.72 524.357C327.946 524.151 327.962 523.802 327.757 523.577C327.552 523.351 327.203 523.335 326.977 523.54L327.72 524.357ZM333.228 517.604C333.011 517.818 333.009 518.168 333.224 518.384C333.438 518.601 333.788 518.603 334.004 518.388L333.228 517.604ZM337.049 515.311C337.262 515.093 337.256 514.743 337.038 514.531C336.819 514.318 336.469 514.324 336.257 514.543L337.049 515.311ZM342.159 508.229C341.954 508.456 341.972 508.805 342.199 509.009C342.425 509.213 342.774 509.195 342.978 508.969L342.159 508.229ZM2.37651 624.904C2.94614 624.373 3.51162 623.848 4.07321 623.331L3.32505 622.519C2.76176 623.038 2.19466 623.564 1.62349 624.096L2.37651 624.904ZM10.8535 617.259C12.0215 616.247 13.1759 615.265 14.3194 614.313L13.6129 613.464C12.4634 614.421 11.3034 615.408 10.1303 616.425L10.8535 617.259ZM21.4658 608.65C22.699 607.726 23.9258 606.835 25.1498 605.977L24.516 605.073C23.2819 605.938 22.0457 606.836 20.8036 607.766L21.4658 608.65ZM32.7794 601.032C34.0907 600.252 35.4078 599.506 36.7351 598.791L36.2115 597.819C34.8703 598.541 33.5397 599.295 32.2153 600.083L32.7794 601.032ZM44.9161 594.839C46.2991 594.245 47.7016 593.679 49.1279 593.138L48.7365 592.106C47.2955 592.652 45.8782 593.224 44.4803 593.825L44.9161 594.839ZM57.7487 590.265C59.182 589.848 60.6437 589.45 62.1375 589.071L61.8656 588C60.36 588.383 58.8861 588.784 57.4402 589.205L57.7487 590.265ZM71.029 587.093C72.4939 586.809 73.9904 586.537 75.5212 586.277L75.3362 585.189C73.7975 585.45 72.2926 585.723 70.8188 586.009L71.029 587.093ZM84.5209 584.926C85.9952 584.731 87.5001 584.544 89.0373 584.363L88.9082 583.266C87.3661 583.448 85.856 583.636 84.3761 583.832L84.5209 584.926ZM98.1486 583.401C99.6249 583.262 101.129 583.126 102.663 582.994L102.568 581.894C101.032 582.026 99.5242 582.162 98.0445 582.302L98.1486 583.401ZM111.794 582.275C113.275 582.168 114.782 582.063 116.316 581.961L116.242 580.859C114.707 580.962 113.198 581.067 111.714 581.174L111.794 582.275ZM125.454 581.386C126.941 581.298 128.45 581.211 129.983 581.125L129.921 580.022C128.387 580.108 126.876 580.196 125.389 580.284L125.454 581.386ZM139.105 580.633C140.618 580.555 142.154 580.476 143.711 580.398L143.656 579.295C142.098 579.374 140.562 579.452 139.047 579.53L139.105 580.633ZM152.838 579.95C154.324 579.878 155.83 579.806 157.355 579.734L157.302 578.631C155.777 578.703 154.272 578.775 152.785 578.847L152.838 579.95ZM166.481 579.304C168.001 579.233 169.538 579.161 171.094 579.088L171.043 577.985C169.487 578.058 167.949 578.13 166.43 578.201L166.481 579.304ZM180.196 578.661C180.969 578.625 181.745 578.588 182.526 578.551L182.474 577.449C181.693 577.485 180.917 577.522 180.144 577.558L180.196 578.661ZM182.526 578.551C183.258 578.517 183.988 578.48 184.714 578.441L184.655 577.339C183.931 577.377 183.204 577.414 182.474 577.449L182.526 578.551ZM193.358 577.867C194.808 577.751 196.245 577.627 197.671 577.494L197.568 576.395C196.148 576.527 194.715 576.651 193.27 576.766L193.358 577.867ZM206.279 576.571C207.729 576.395 209.165 576.209 210.588 576.015L210.439 574.921C209.022 575.115 207.591 575.299 206.146 575.475L206.279 576.571ZM219.156 574.715C220.586 574.475 222.001 574.226 223.403 573.969L223.203 572.883C221.808 573.139 220.398 573.387 218.973 573.626L219.156 574.715ZM231.912 572.262C233.334 571.952 234.74 571.634 236.131 571.306L235.878 570.231C234.493 570.557 233.093 570.875 231.677 571.183L231.912 572.262ZM244.528 569.171C245.938 568.786 247.331 568.391 248.708 567.988L248.398 566.928C247.027 567.33 245.641 567.722 244.237 568.106L244.528 569.171ZM256.967 565.399C258.355 564.935 259.725 564.461 261.077 563.98L260.706 562.94C259.361 563.419 257.998 563.89 256.617 564.352L256.967 565.399ZM269.177 560.91C270.531 560.364 271.867 559.811 273.184 559.249L272.751 558.233C271.441 558.792 270.112 559.343 268.764 559.885L269.177 560.91ZM281.092 555.676C282.406 555.048 283.7 554.413 284.974 553.77L284.476 552.784C283.209 553.423 281.923 554.055 280.616 554.68L281.092 555.676ZM292.638 549.687C293.912 548.972 295.165 548.249 296.396 547.521L295.834 546.571C294.61 547.295 293.364 548.013 292.097 548.725L292.638 549.687ZM303.751 542.942C304.972 542.142 306.17 541.338 307.346 540.53L306.72 539.62C305.552 540.424 304.36 541.223 303.146 542.018L303.751 542.942ZM314.385 535.446C315.553 534.561 316.695 533.674 317.813 532.786L317.126 531.922C316.015 532.805 314.879 533.686 313.718 534.566L314.385 535.446ZM324.482 527.239C325.588 526.276 326.668 525.314 327.72 524.357L326.977 523.54C325.93 524.493 324.857 525.449 323.757 526.407L324.482 527.239ZM334.004 518.388C335.049 517.354 336.064 516.327 337.049 515.311L336.257 514.543C335.276 515.553 334.267 516.574 333.228 517.604L334.004 518.388ZM342.978 508.969C343.465 508.43 343.943 507.896 344.413 507.367L343.587 506.633C343.119 507.161 342.643 507.693 342.159 508.229L342.978 508.969ZM344.826 507.733C345.23 507.277 345.189 506.579 344.733 506.175C344.277 505.77 343.579 505.811 343.174 506.267L344.826 507.733ZM182.5 578L182.552 579.103L182.5 578ZM0.89657 624.462C0.875312 625.071 1.3521 625.582 1.96151 625.603L11.8924 625.95C12.5018 625.971 13.013 625.494 13.0343 624.885C13.0556 624.276 12.5788 623.764 11.9694 623.743L3.14192 623.435L3.44986 614.608C3.47111 613.998 2.99432 613.487 2.38492 613.466C1.77551 613.444 1.26425 613.921 1.243 614.531L0.89657 624.462ZM4.44729 623.737C4.89573 623.324 4.9243 622.625 4.5111 622.177C4.0979 621.728 3.3994 621.7 2.95097 622.113L4.44729 623.737ZM9.76866 616.008C9.3079 616.407 9.25817 617.104 9.65759 617.565C10.057 618.026 10.7543 618.076 11.2151 617.676L9.76866 616.008ZM14.6727 614.737C15.1413 614.347 15.2048 613.65 14.8147 613.182C14.4245 612.713 13.7283 612.65 13.2597 613.04L14.6727 614.737ZM20.4726 607.325C19.9846 607.69 19.8855 608.382 20.2512 608.87C20.6169 609.358 21.3089 609.457 21.7969 609.092L20.4726 607.325ZM25.4667 606.429C25.966 606.079 26.087 605.391 25.737 604.891C25.387 604.392 24.6984 604.271 24.1991 604.621L25.4667 606.429ZM31.9332 599.608C31.409 599.92 31.2367 600.597 31.5483 601.121C31.8598 601.646 32.5373 601.818 33.0615 601.506L31.9332 599.608ZM36.9969 599.277C37.5337 598.988 37.7346 598.318 37.4454 597.782C37.1562 597.245 36.4866 597.044 35.9498 597.333L36.9969 599.277ZM44.2625 593.318C43.7022 593.558 43.4431 594.208 43.6837 594.768C43.9244 595.328 44.5737 595.587 45.134 595.347L44.2625 593.318ZM49.3236 593.654C49.8938 593.438 50.1808 592.801 49.9646 592.23C49.7485 591.66 49.111 591.373 48.5408 591.589L49.3236 593.654ZM57.286 588.674C56.7005 588.845 56.364 589.458 56.5344 590.043C56.7047 590.629 57.3175 590.965 57.903 590.795L57.286 588.674ZM62.2734 589.606C62.8644 589.455 63.2218 588.855 63.0717 588.264C62.9215 587.673 62.3207 587.315 61.7297 587.465L62.2734 589.606ZM70.7138 585.467C70.1151 585.583 69.7239 586.162 69.84 586.761C69.9561 587.36 70.5354 587.751 71.1341 587.635L70.7138 585.467ZM75.6136 586.821C76.2148 586.719 76.6193 586.149 76.5172 585.548C76.415 584.947 75.8449 584.542 75.2437 584.644L75.6136 586.821ZM84.3037 583.285C83.6992 583.365 83.274 583.919 83.354 584.524C83.4339 585.128 83.9888 585.554 84.5933 585.474L84.3037 583.285ZM89.1018 584.911C89.7074 584.84 90.1405 584.291 90.0693 583.686C89.998 583.08 89.4493 582.647 88.8437 582.718L89.1018 584.911ZM97.9924 581.753C97.3854 581.81 96.9399 582.349 96.9974 582.956C97.0549 583.563 97.5936 584.009 98.2006 583.951L97.9924 581.753ZM102.71 583.544C103.318 583.492 103.768 582.957 103.716 582.35C103.664 581.742 103.129 581.292 102.521 581.344L102.71 583.544ZM111.675 580.624C111.066 580.668 110.609 581.196 110.653 581.804C110.697 582.413 111.226 582.87 111.834 582.826L111.675 580.624ZM116.353 582.511C116.961 582.471 117.421 581.944 117.38 581.336C117.339 580.727 116.813 580.267 116.205 580.308L116.353 582.511ZM125.356 579.732C124.748 579.768 124.283 580.291 124.319 580.9C124.356 581.509 124.878 581.973 125.487 581.937L125.356 579.732ZM130.014 581.676C130.623 581.642 131.089 581.12 131.055 580.511C131.021 579.903 130.499 579.437 129.89 579.471L130.014 581.676ZM139.019 578.979C138.41 579.011 137.942 579.53 137.973 580.139C138.005 580.748 138.524 581.216 139.133 581.184L139.019 578.979ZM143.739 580.949C144.348 580.919 144.817 580.4 144.786 579.791C144.756 579.182 144.237 578.713 143.628 578.744L143.739 580.949ZM152.758 578.296C152.149 578.325 151.679 578.842 151.709 579.451C151.738 580.061 152.256 580.53 152.865 580.501L152.758 578.296ZM157.381 580.285C157.99 580.256 158.46 579.739 158.432 579.13C158.403 578.521 157.885 578.051 157.276 578.079L157.381 580.285ZM166.404 577.649C165.795 577.678 165.324 578.195 165.353 578.804C165.381 579.413 165.898 579.884 166.507 579.855L166.404 577.649ZM171.12 579.639C171.729 579.611 172.2 579.094 172.171 578.485C172.143 577.876 171.626 577.405 171.017 577.434L171.12 579.639ZM180.118 577.007C179.509 577.036 179.039 577.553 179.067 578.162C179.096 578.771 179.613 579.241 180.222 579.213L180.118 577.007ZM184.744 578.992C185.353 578.96 185.82 578.44 185.787 577.831C185.755 577.222 185.235 576.755 184.626 576.787L184.744 578.992ZM193.227 576.216C192.619 576.264 192.165 576.796 192.214 577.404C192.262 578.012 192.794 578.465 193.402 578.417L193.227 576.216ZM197.722 578.044C198.329 577.987 198.775 577.449 198.719 576.842C198.662 576.235 198.124 575.789 197.517 575.845L197.722 578.044ZM206.08 574.927C205.474 575 205.043 575.551 205.117 576.156C205.19 576.761 205.741 577.193 206.346 577.119L206.08 574.927ZM210.663 576.562C211.267 576.48 211.69 575.923 211.608 575.319C211.525 574.715 210.969 574.292 210.365 574.374L210.663 576.562ZM218.882 573.081C218.281 573.182 217.875 573.751 217.976 574.352C218.076 574.954 218.645 575.36 219.247 575.259L218.882 573.081ZM223.503 574.512C224.102 574.402 224.499 573.826 224.389 573.226C224.279 572.627 223.703 572.23 223.104 572.34L223.503 574.512ZM231.56 570.644C230.964 570.774 230.586 571.362 230.716 571.958C230.846 572.554 231.434 572.931 232.03 572.802L231.56 570.644ZM236.258 571.843C236.851 571.703 237.219 571.109 237.079 570.515C236.939 569.922 236.345 569.554 235.751 569.694L236.258 571.843ZM244.092 567.573C243.504 567.734 243.157 568.341 243.318 568.929C243.479 569.518 244.086 569.864 244.674 569.703L244.092 567.573ZM248.863 568.518C249.449 568.346 249.784 567.733 249.612 567.148C249.441 566.562 248.828 566.227 248.242 566.398L248.863 568.518ZM256.442 563.828C255.863 564.022 255.551 564.647 255.745 565.226C255.938 565.804 256.564 566.116 257.142 565.922L256.442 563.828ZM261.262 564.5C261.837 564.295 262.136 563.663 261.932 563.089C261.727 562.514 261.095 562.215 260.521 562.419L261.262 564.5ZM268.558 559.373C267.993 559.601 267.719 560.244 267.946 560.809C268.174 561.375 268.817 561.649 269.383 561.422L268.558 559.373ZM273.401 559.757C273.961 559.517 274.222 558.869 273.983 558.308C273.744 557.747 273.095 557.486 272.534 557.726L273.401 559.757ZM280.378 554.182C279.827 554.445 279.595 555.104 279.857 555.654C280.12 556.204 280.779 556.437 281.33 556.174L280.378 554.182ZM285.222 554.263C285.767 553.988 285.985 553.324 285.711 552.779C285.436 552.235 284.772 552.016 284.227 552.291L285.222 554.263ZM291.827 548.243C291.295 548.542 291.106 549.215 291.405 549.747C291.703 550.278 292.376 550.467 292.908 550.169L291.827 548.243ZM296.677 547.996C297.202 547.686 297.376 547.009 297.065 546.484C296.755 545.959 296.078 545.785 295.553 546.096L296.677 547.996ZM302.844 541.556C302.333 541.89 302.191 542.575 302.525 543.085C302.859 543.595 303.543 543.738 304.053 543.404L302.844 541.556ZM307.658 540.985C308.161 540.639 308.288 539.952 307.942 539.449C307.597 538.947 306.909 538.82 306.407 539.165L307.658 540.985ZM313.384 534.126C312.898 534.494 312.803 535.187 313.171 535.673C313.539 536.159 314.232 536.254 314.718 535.886L313.384 534.126ZM318.156 533.219C318.634 532.839 318.713 532.145 318.334 531.667C317.955 531.19 317.26 531.11 316.783 531.49L318.156 533.219ZM323.394 525.99C322.934 526.391 322.886 527.088 323.286 527.548C323.687 528.008 324.384 528.056 324.844 527.656L323.394 525.99ZM328.092 524.765C328.543 524.354 328.576 523.656 328.165 523.205C327.755 522.754 327.057 522.721 326.606 523.132L328.092 524.765ZM332.839 517.211C332.406 517.641 332.402 518.34 332.832 518.773C333.261 519.206 333.96 519.21 334.393 518.78L332.839 517.211ZM337.446 515.696C337.87 515.258 337.86 514.559 337.422 514.135C336.984 513.71 336.285 513.72 335.861 514.158L337.446 515.696ZM341.749 507.859C341.34 508.312 341.376 509.01 341.829 509.419C342.281 509.827 342.98 509.792 343.388 509.339L341.749 507.859ZM2.75302 625.307C3.32188 624.777 3.88654 624.253 4.44729 623.737L2.95097 622.113C2.38683 622.633 1.81892 623.159 1.24698 623.693L2.75302 625.307ZM11.2151 617.676C12.3805 616.666 13.5321 615.686 14.6727 614.737L13.2597 613.04C12.1072 614 10.9444 614.988 9.76866 616.008L11.2151 617.676ZM21.7969 609.092C23.0256 608.171 24.2477 607.284 25.4667 606.429L24.1991 604.621C22.96 605.49 21.7191 606.39 20.4726 607.325L21.7969 609.092ZM33.0615 601.506C34.3663 600.731 35.6766 599.988 36.9969 599.277L35.9498 597.333C34.6015 598.059 33.2641 598.817 31.9332 599.608L33.0615 601.506ZM45.134 595.347C46.5096 594.756 47.9046 594.192 49.3236 593.654L48.5408 591.589C47.0924 592.138 45.6678 592.714 44.2625 593.318L45.134 595.347ZM57.903 590.795C59.3299 590.38 60.7855 589.984 62.2734 589.606L61.7297 587.465C60.2182 587.849 58.7382 588.252 57.286 588.674L57.903 590.795ZM71.1341 587.635C72.5946 587.352 74.0869 587.081 75.6136 586.821L75.2437 584.644C73.7011 584.906 72.192 585.18 70.7138 585.467L71.1341 587.635ZM84.5933 585.474C86.0648 585.279 87.567 585.092 89.1018 584.911L88.8437 582.718C87.2991 582.9 85.7864 583.088 84.3037 583.285L84.5933 585.474ZM98.2006 583.951C99.6753 583.811 101.178 583.676 102.71 583.544L102.521 581.344C100.983 581.476 99.4738 581.612 97.9924 581.753L98.2006 583.951ZM111.834 582.826C113.314 582.719 114.82 582.614 116.353 582.511L116.205 580.308C114.669 580.411 113.159 580.516 111.675 580.624L111.834 582.826ZM125.487 581.937C126.973 581.849 128.482 581.762 130.014 581.676L129.89 579.471C128.356 579.557 126.844 579.644 125.356 579.732L125.487 581.937ZM139.133 581.184C140.646 581.106 142.182 581.028 143.739 580.949L143.628 578.744C142.07 578.822 140.533 578.901 139.019 578.979L139.133 581.184ZM152.865 580.501C154.351 580.43 155.856 580.358 157.381 580.285L157.276 578.079C155.751 578.152 154.245 578.224 152.758 578.296L152.865 580.501ZM166.507 579.855C168.027 579.784 169.564 579.712 171.12 579.639L171.017 577.434C169.461 577.506 167.923 577.578 166.404 577.649L166.507 579.855ZM180.222 579.213C180.995 579.176 181.771 579.14 182.552 579.103L182.448 576.897C181.667 576.934 180.891 576.971 180.118 577.007L180.222 579.213ZM182.552 579.103C183.286 579.068 184.016 579.031 184.744 578.992L184.626 576.787C183.903 576.826 183.177 576.863 182.448 576.897L182.552 579.103ZM193.402 578.417C194.854 578.301 196.294 578.177 197.722 578.044L197.517 575.845C196.099 575.977 194.669 576.101 193.227 576.216L193.402 578.417ZM206.346 577.119C207.798 576.942 209.237 576.757 210.663 576.562L210.365 574.374C208.95 574.567 207.521 574.752 206.08 574.927L206.346 577.119ZM219.247 575.259C220.68 575.019 222.098 574.77 223.503 574.512L223.104 572.34C221.711 572.596 220.303 572.843 218.882 573.081L219.247 575.259ZM232.03 572.802C233.455 572.491 234.864 572.172 236.258 571.843L235.751 569.694C234.369 570.019 232.972 570.336 231.56 570.644L232.03 572.802ZM244.674 569.703C246.087 569.317 247.483 568.922 248.863 568.518L248.242 566.398C246.875 566.799 245.492 567.191 244.092 567.573L244.674 569.703ZM257.142 565.922C258.533 565.457 259.907 564.983 261.262 564.5L260.521 562.419C259.179 562.898 257.819 563.367 256.442 563.828L257.142 565.922ZM269.383 561.422C270.741 560.875 272.08 560.32 273.401 559.757L272.534 557.726C271.228 558.283 269.903 558.832 268.558 559.373L269.383 561.422ZM281.33 556.174C282.647 555.545 283.945 554.907 285.222 554.263L284.227 552.291C282.964 552.929 281.681 553.559 280.378 554.182L281.33 556.174ZM292.908 550.169C294.186 549.451 295.442 548.726 296.677 547.996L295.553 546.096C294.332 546.818 293.091 547.534 291.827 548.243L292.908 550.169ZM304.053 543.404C305.278 542.602 306.48 541.795 307.658 540.985L306.407 539.165C305.242 539.966 304.055 540.764 302.844 541.556L304.053 543.404ZM314.718 535.886C315.889 534.999 317.035 534.109 318.156 533.219L316.783 531.49C315.675 532.37 314.542 533.249 313.384 534.126L314.718 535.886ZM324.844 527.656C325.954 526.69 327.036 525.725 328.092 524.765L326.606 523.132C325.562 524.082 324.491 525.035 323.394 525.99L324.844 527.656ZM334.393 518.78C335.44 517.743 336.457 516.714 337.446 515.696L335.861 514.158C334.882 515.166 333.876 516.185 332.839 517.211L334.393 518.78ZM343.388 509.339C343.875 508.799 344.355 508.263 344.826 507.733L343.174 506.267C342.707 506.793 342.232 507.324 341.749 507.859L343.388 509.339Z" fill="#6A0600"/>
</svg>
