<svg width="346" height="121" viewBox="0 0 346 121" fill="none" xmlns="http://www.w3.org/2000/svg">
<path d="M344.413 2.3666C344.615 2.13865 344.595 1.78972 344.367 1.58725C344.139 1.38478 343.79 1.40544 343.587 1.6334L344.413 2.3666ZM182.5 73L182.526 73.5514L182.5 73ZM1.44829 119.481C1.43766 119.785 1.67605 120.041 1.98075 120.052L6.94619 120.225C7.25089 120.236 7.50652 119.997 7.51715 119.692C7.52778 119.388 7.28938 119.132 6.98468 119.121L2.57096 118.968L2.72493 114.554C2.73556 114.249 2.49716 113.993 2.19246 113.983C1.88775 113.972 1.63213 114.211 1.6215 114.515L1.44829 119.481ZM4.07321 118.331C4.29743 118.124 4.31171 117.775 4.10511 117.551C3.89851 117.326 3.54927 117.312 3.32505 117.519L4.07321 118.331ZM10.1303 111.425C9.89988 111.624 9.87502 111.973 10.0747 112.204C10.2744 112.434 10.6231 112.459 10.8535 112.259L10.1303 111.425ZM14.3194 109.313C14.5537 109.117 14.5855 108.769 14.3904 108.535C14.1953 108.301 13.8472 108.269 13.6129 108.464L14.3194 109.313ZM20.8036 102.766C20.5597 102.949 20.5101 103.295 20.693 103.539C20.8758 103.783 21.2218 103.833 21.4658 103.65L20.8036 102.766ZM25.1498 100.977C25.3995 100.802 25.46 100.458 25.285 100.208C25.1099 99.9585 24.7657 99.898 24.516 100.073L25.1498 100.977ZM32.2153 95.0827C31.9532 95.2385 31.867 95.5772 32.0228 95.8393C32.1786 96.1014 32.5173 96.1876 32.7794 96.0318L32.2153 95.0827ZM36.7351 93.7912C37.0035 93.6466 37.1039 93.3118 36.9594 93.0433C36.8148 92.7749 36.48 92.6745 36.2115 92.8191L36.7351 93.7912ZM44.4803 88.8248C44.2002 88.9451 44.0707 89.2698 44.191 89.5499C44.3113 89.8301 44.636 89.9596 44.9161 89.8393L44.4803 88.8248ZM49.1279 88.138C49.413 88.03 49.5565 87.7112 49.4484 87.4261C49.3404 87.141 49.0216 86.9975 48.7365 87.1056L49.1279 88.138ZM57.4402 84.2046C57.1475 84.2898 56.9792 84.5961 57.0644 84.8889C57.1496 85.1816 57.456 85.3499 57.7487 85.2647L57.4402 84.2046ZM62.1375 84.0705C62.433 83.9955 62.6117 83.6951 62.5366 83.3996C62.4616 83.1041 62.1612 82.9254 61.8656 83.0004L62.1375 84.0705ZM70.8188 81.0089C70.5195 81.0669 70.3239 81.3566 70.382 81.6559C70.44 81.9552 70.7297 82.1508 71.029 82.0928L70.8188 81.0089ZM75.5212 81.2771C75.8217 81.226 76.024 80.9409 75.9729 80.6404C75.9218 80.3398 75.6368 80.1375 75.3362 80.1886L75.5212 81.2771ZM84.3761 78.8319C84.0739 78.8719 83.8613 79.1493 83.9012 79.4516C83.9412 79.7538 84.2187 79.9664 84.5209 79.9265L84.3761 78.8319ZM89.0373 79.3629C89.34 79.3273 89.5566 79.053 89.521 78.7502C89.4854 78.4474 89.211 78.2308 88.9082 78.2664L89.0373 79.3629ZM98.0445 77.3023C97.741 77.331 97.5182 77.6004 97.547 77.9039C97.5757 78.2074 97.8451 78.4302 98.1486 78.4015L98.0445 77.3023ZM102.663 77.9942C102.967 77.9681 103.192 77.7007 103.166 77.3969C103.14 77.0931 102.872 76.868 102.568 76.8942L102.663 77.9942ZM111.714 76.1742C111.41 76.1961 111.182 76.4605 111.204 76.7646C111.226 77.0687 111.49 77.2974 111.794 77.2754L111.714 76.1742ZM116.316 76.9605C116.62 76.9401 116.85 76.6769 116.83 76.3727C116.809 76.0685 116.546 75.8385 116.242 75.8589L116.316 76.9605ZM125.389 75.2835C125.085 75.3015 124.853 75.5629 124.871 75.8672C124.889 76.1716 125.15 76.4037 125.454 76.3857L125.389 75.2835ZM129.983 76.1246C130.288 76.1075 130.521 75.8468 130.504 75.5424C130.486 75.238 130.226 75.0051 129.921 75.0222L129.983 76.1246ZM139.047 74.5305C138.743 74.5463 138.509 74.8059 138.525 75.1104C138.54 75.4149 138.8 75.6489 139.105 75.6331L139.047 74.5305ZM143.711 75.398C144.016 75.3827 144.25 75.1235 144.235 74.8189C144.22 74.5144 143.96 74.28 143.656 74.2953L143.711 75.398ZM152.785 73.8469C152.48 73.8616 152.245 74.1203 152.26 74.4249C152.275 74.7294 152.534 74.9644 152.838 74.9497L152.785 73.8469ZM157.355 74.7338C157.659 74.7193 157.895 74.4607 157.88 74.1561C157.866 73.8516 157.607 73.6164 157.302 73.6309L157.355 74.7338ZM166.43 73.2009C166.125 73.2152 165.89 73.4736 165.904 73.7782C165.918 74.0827 166.177 74.3181 166.481 74.3038L166.43 73.2009ZM171.094 74.0879C171.399 74.0737 171.634 73.8152 171.62 73.5107C171.606 73.2061 171.347 72.9708 171.043 72.985L171.094 74.0879ZM180.144 72.5584C179.84 72.5727 179.605 72.8312 179.619 73.1358C179.633 73.4403 179.892 73.6756 180.196 73.6612L180.144 72.5584ZM184.714 73.4412C185.019 73.4249 185.252 73.1648 185.236 72.8604C185.22 72.5559 184.96 72.3223 184.655 72.3387L184.714 73.4412ZM193.27 71.766C192.966 71.7902 192.74 72.0562 192.764 72.3601C192.788 72.6641 193.054 72.8908 193.358 72.8666L193.27 71.766ZM197.671 72.4941C197.974 72.4658 198.197 72.1968 198.169 71.8932C198.141 71.5897 197.872 71.3665 197.568 71.3948L197.671 72.4941ZM206.146 70.4749C205.844 70.5117 205.628 70.7868 205.665 71.0895C205.702 71.3922 205.977 71.6077 206.279 71.5709L206.146 70.4749ZM210.588 71.0152C210.891 70.9739 211.102 70.6956 211.061 70.3935C211.02 70.0914 210.741 69.88 210.439 69.9212L210.588 71.0152ZM218.973 68.6256C218.673 68.676 218.47 68.9606 218.52 69.2613C218.57 69.562 218.855 69.7649 219.156 69.7145L218.973 68.6256ZM223.403 68.9689C223.703 68.9138 223.901 68.6261 223.846 68.3262C223.791 68.0263 223.503 67.8279 223.203 67.8829L223.403 68.9689ZM231.677 66.1834C231.379 66.2483 231.191 66.5424 231.255 66.8403C231.32 67.1382 231.614 67.3271 231.912 67.2622L231.677 66.1834ZM236.131 66.3057C236.428 66.2357 236.612 65.9385 236.542 65.6417C236.472 65.345 236.175 65.1611 235.878 65.231L236.131 66.3057ZM244.237 63.1058C243.943 63.1862 243.77 63.4897 243.85 63.7839C243.931 64.078 244.234 64.2512 244.528 64.1709L244.237 63.1058ZM248.708 62.9877C249.001 62.902 249.168 62.5953 249.083 62.3027C248.997 62.0102 248.69 61.8425 248.398 61.9282L248.708 62.9877ZM256.617 59.3518C256.328 59.4485 256.172 59.7613 256.268 60.0504C256.365 60.3396 256.678 60.4956 256.967 60.3989L256.617 59.3518ZM261.077 58.9795C261.364 58.8772 261.514 58.5614 261.412 58.2742C261.309 57.987 260.994 57.8372 260.706 57.9395L261.077 58.9795ZM268.764 54.8852C268.482 54.999 268.345 55.3206 268.458 55.6034C268.572 55.8863 268.894 56.0233 269.177 55.9095L268.764 54.8852ZM273.184 54.2489C273.464 54.1292 273.595 53.8049 273.475 53.5245C273.355 53.244 273.031 53.1137 272.751 53.2333L273.184 54.2489ZM280.616 49.6799C280.341 49.8114 280.224 50.1409 280.356 50.416C280.487 50.6911 280.817 50.8076 281.092 50.6762L280.616 49.6799ZM284.974 48.7697C285.246 48.6324 285.355 48.3004 285.218 48.0282C285.08 47.756 284.748 47.6467 284.476 47.784L284.974 48.7697ZM292.097 43.7247C291.831 43.874 291.737 44.2105 291.886 44.4763C292.035 44.7422 292.372 44.8367 292.638 44.6874L292.097 43.7247ZM296.396 42.521C296.658 42.3658 296.745 42.0272 296.59 41.7648C296.435 41.5024 296.096 41.4155 295.834 41.5707L296.396 42.521ZM303.146 37.0184C302.891 37.1853 302.819 37.5275 302.986 37.7826C303.153 38.0377 303.496 38.1091 303.751 37.9421L303.146 37.0184ZM307.346 35.5297C307.597 35.3569 307.66 35.0132 307.488 34.762C307.315 34.5108 306.971 34.4472 306.72 34.62L307.346 35.5297ZM313.718 29.5662C313.475 29.7503 313.427 30.0966 313.611 30.3396C313.795 30.5826 314.142 30.6304 314.385 30.4462L313.718 29.5662ZM317.813 27.7864C318.052 27.5968 318.091 27.2495 317.902 27.0108C317.712 26.7721 317.365 26.7322 317.126 26.9219L317.813 27.7864ZM323.757 21.4066C323.527 21.6068 323.502 21.9555 323.703 22.1854C323.903 22.4154 324.252 22.4395 324.482 22.2394L323.757 21.4066ZM327.72 19.3566C327.946 19.1514 327.962 18.8022 327.757 18.5767C327.552 18.3512 327.203 18.3347 326.977 18.5399L327.72 19.3566ZM333.228 12.6037C333.011 12.8182 333.009 13.1678 333.224 13.3844C333.438 13.601 333.788 13.6027 334.004 13.3882L333.228 12.6037ZM337.049 10.3114C337.262 10.0926 337.256 9.74309 337.038 9.53078C336.819 9.31846 336.469 9.32374 336.257 9.54255L337.049 10.3114ZM342.159 3.22933C341.954 3.45568 341.972 3.80476 342.199 4.00902C342.425 4.21328 342.774 4.19537 342.978 3.96901L342.159 3.22933ZM2.37651 119.904C2.94614 119.373 3.51162 118.848 4.07321 118.331L3.32505 117.519C2.76176 118.038 2.19466 118.564 1.62349 119.096L2.37651 119.904ZM10.8535 112.259C12.0215 111.247 13.1759 110.265 14.3194 109.313L13.6129 108.464C12.4634 109.421 11.3034 110.408 10.1303 111.425L10.8535 112.259ZM21.4658 103.65C22.699 102.726 23.9258 101.835 25.1498 100.977L24.516 100.073C23.2819 100.938 22.0457 101.836 20.8036 102.766L21.4658 103.65ZM32.7794 96.0318C34.0907 95.2523 35.4078 94.506 36.7351 93.7912L36.2115 92.8191C34.8703 93.5415 33.5397 94.2955 32.2153 95.0827L32.7794 96.0318ZM44.9161 89.8393C46.2991 89.2452 47.7016 88.6787 49.1279 88.138L48.7365 87.1056C47.2955 87.6519 45.8782 88.2244 44.4803 88.8248L44.9161 89.8393ZM57.7487 85.2647C59.182 84.8476 60.6437 84.4501 62.1375 84.0705L61.8656 83.0004C60.36 83.3829 58.8861 83.7838 57.4402 84.2046L57.7487 85.2647ZM71.029 82.0928C72.4939 81.8088 73.9904 81.5372 75.5212 81.2771L75.3362 80.1886C73.7975 80.4501 72.2926 80.7231 70.8188 81.0089L71.029 82.0928ZM84.5209 79.9265C85.9952 79.7314 87.5001 79.5438 89.0373 79.3629L88.9082 78.2664C87.3661 78.4478 85.856 78.6361 84.3761 78.8319L84.5209 79.9265ZM98.1486 78.4015C99.6249 78.2616 101.129 78.126 102.663 77.9942L102.568 76.8942C101.032 77.0263 99.5242 77.1621 98.0445 77.3023L98.1486 78.4015ZM111.794 77.2754C113.275 77.1683 114.782 77.0635 116.316 76.9605L116.242 75.8589C114.707 75.962 113.198 76.0669 111.714 76.1742L111.794 77.2754ZM125.454 76.3857C126.941 76.2977 128.45 76.2108 129.983 76.1246L129.921 75.0222C128.387 75.1085 126.876 75.1955 125.389 75.2835L125.454 76.3857ZM139.105 75.6331C140.618 75.5546 142.154 75.4763 143.711 75.398L143.656 74.2953C142.098 74.3737 140.562 74.452 139.047 74.5305L139.105 75.6331ZM152.838 74.9497C154.324 74.8782 155.83 74.8062 157.355 74.7338L157.302 73.6309C155.777 73.7034 154.272 73.7753 152.785 73.8469L152.838 74.9497ZM166.481 74.3038C168.001 74.2326 169.538 74.1607 171.094 74.0879L171.043 72.985C169.487 73.0578 167.949 73.1297 166.43 73.2009L166.481 74.3038ZM180.196 73.6612C180.969 73.6249 181.745 73.5883 182.526 73.5514L182.474 72.4486C181.693 72.4854 180.917 72.522 180.144 72.5584L180.196 73.6612ZM182.526 73.5514C183.258 73.5169 183.988 73.4801 184.714 73.4412L184.655 72.3387C183.931 72.3774 183.204 72.4141 182.474 72.4486L182.526 73.5514ZM193.358 72.8666C194.808 72.7512 196.245 72.627 197.671 72.4941L197.568 71.3948C196.148 71.5272 194.715 71.651 193.27 71.766L193.358 72.8666ZM206.279 71.5709C207.729 71.3947 209.165 71.2093 210.588 71.0152L210.439 69.9212C209.022 70.1146 207.591 70.2993 206.146 70.4749L206.279 71.5709ZM219.156 69.7145C220.586 69.475 222.001 69.2264 223.403 68.9689L223.203 67.8829C221.808 68.1394 220.398 68.387 218.973 68.6256L219.156 69.7145ZM231.912 67.2622C233.334 66.9525 234.74 66.6335 236.131 66.3057L235.878 65.231C234.493 65.5574 233.093 65.875 231.677 66.1834L231.912 67.2622ZM244.528 64.1709C245.938 63.7857 247.331 63.3912 248.708 62.9877L248.398 61.9282C247.027 62.3297 245.641 62.7224 244.237 63.1058L244.528 64.1709ZM256.967 60.3989C258.355 59.9347 259.725 59.4614 261.077 58.9795L260.706 57.9395C259.361 58.419 257.998 58.8899 256.617 59.3518L256.967 60.3989ZM269.177 55.9095C270.531 55.3644 271.867 54.8107 273.184 54.2489L272.751 53.2333C271.441 53.7921 270.112 54.3429 268.764 54.8852L269.177 55.9095ZM281.092 50.6762C282.406 50.0483 283.7 49.4126 284.974 48.7697L284.476 47.784C283.209 48.4233 281.923 49.0555 280.616 49.6799L281.092 50.6762ZM292.638 44.6874C293.912 43.9716 295.165 43.2492 296.396 42.521L295.834 41.5707C294.61 42.2948 293.364 43.013 292.097 43.7247L292.638 44.6874ZM303.751 37.9421C304.972 37.1424 306.17 36.338 307.346 35.5297L306.72 34.62C305.552 35.4236 304.36 36.2233 303.146 37.0184L303.751 37.9421ZM314.385 30.4462C315.553 29.5613 316.695 28.6743 317.813 27.7864L317.126 26.9219C316.015 27.8046 314.879 28.6864 313.718 29.5662L314.385 30.4462ZM324.482 22.2394C325.588 21.2759 326.668 20.3145 327.72 19.3566L326.977 18.5399C325.93 19.4926 324.857 20.4486 323.757 21.4066L324.482 22.2394ZM334.004 13.3882C335.049 12.3536 336.064 11.3273 337.049 10.3114L336.257 9.54255C335.276 10.5534 334.267 11.5745 333.228 12.6037L334.004 13.3882ZM342.978 3.96901C343.465 3.43006 343.943 2.8958 344.413 2.3666L343.587 1.6334C343.119 2.16053 342.643 2.69263 342.159 3.22933L342.978 3.96901ZM344.826 2.73321C345.23 2.2773 345.189 1.57944 344.733 1.1745C344.277 0.769563 343.579 0.810883 343.174 1.26679L344.826 2.73321ZM182.5 73L182.552 74.1029L182.5 73ZM0.89657 119.462C0.875312 120.071 1.3521 120.582 1.96151 120.603L11.8924 120.95C12.5018 120.971 13.013 120.494 13.0343 119.885C13.0556 119.276 12.5788 118.764 11.9694 118.743L3.14192 118.435L3.44986 109.608C3.47111 108.998 2.99432 108.487 2.38492 108.466C1.77551 108.444 1.26425 108.921 1.243 109.531L0.89657 119.462ZM4.44729 118.737C4.89573 118.324 4.9243 117.625 4.5111 117.177C4.0979 116.728 3.3994 116.7 2.95097 117.113L4.44729 118.737ZM9.76866 111.008C9.3079 111.407 9.25817 112.104 9.65759 112.565C10.057 113.026 10.7543 113.076 11.2151 112.676L9.76866 111.008ZM14.6727 109.737C15.1413 109.347 15.2048 108.65 14.8147 108.182C14.4245 107.713 13.7283 107.65 13.2597 108.04L14.6727 109.737ZM20.4726 102.325C19.9846 102.69 19.8855 103.382 20.2512 103.87C20.6169 104.358 21.3089 104.457 21.7969 104.092L20.4726 102.325ZM25.4667 101.429C25.966 101.079 26.087 100.391 25.737 99.8913C25.387 99.392 24.6984 99.271 24.1991 99.621L25.4667 101.429ZM31.9332 94.6082C31.409 94.9197 31.2367 95.5972 31.5483 96.1214C31.8598 96.6456 32.5373 96.8179 33.0615 96.5063L31.9332 94.6082ZM36.9969 94.2772C37.5337 93.988 37.7346 93.3184 37.4454 92.7816C37.1562 92.2447 36.4866 92.0439 35.9498 92.333L36.9969 94.2772ZM44.2625 88.3176C43.7022 88.5582 43.4431 89.2075 43.6837 89.7678C43.9244 90.3281 44.5737 90.5872 45.134 90.3465L44.2625 88.3176ZM49.3236 88.6542C49.8938 88.4381 50.1808 87.8006 49.9646 87.2305C49.7485 86.6603 49.111 86.3733 48.5408 86.5894L49.3236 88.6542ZM57.286 83.6745C56.7005 83.8449 56.364 84.4576 56.5344 85.0431C56.7047 85.6286 57.3175 85.9651 57.903 85.7948L57.286 83.6745ZM62.2734 84.6056C62.8644 84.4555 63.2218 83.8546 63.0717 83.2636C62.9215 82.6726 62.3207 82.3152 61.7297 82.4654L62.2734 84.6056ZM70.7138 80.4669C70.1151 80.583 69.7239 81.1624 69.84 81.761C69.9561 82.3596 70.5354 82.7508 71.1341 82.6348L70.7138 80.4669ZM75.6136 81.8213C76.2148 81.7192 76.6193 81.149 76.5172 80.5479C76.415 79.9467 75.8449 79.5422 75.2437 79.6443L75.6136 81.8213ZM84.3037 78.2846C83.6992 78.3646 83.274 78.9195 83.354 79.524C83.4339 80.1285 83.9888 80.5537 84.5933 80.4737L84.3037 78.2846ZM89.1018 79.9112C89.7074 79.84 90.1405 79.2913 90.0693 78.6857C89.998 78.0801 89.4493 77.6469 88.8437 77.7181L89.1018 79.9112ZM97.9924 76.7527C97.3854 76.8102 96.9399 77.3489 96.9974 77.956C97.0549 78.563 97.5936 79.0085 98.2006 78.951L97.9924 76.7527ZM102.71 78.5442C103.318 78.492 103.768 77.9572 103.716 77.3496C103.664 76.7421 103.129 76.2919 102.521 76.3441L102.71 78.5442ZM111.675 75.6235C111.066 75.6675 110.609 76.1962 110.653 76.8044C110.697 77.4126 111.226 77.87 111.834 77.826L111.675 75.6235ZM116.353 77.5113C116.961 77.4705 117.421 76.9442 117.38 76.3358C117.339 75.7274 116.813 75.2673 116.205 75.3081L116.353 77.5113ZM125.356 74.7324C124.748 74.7685 124.283 75.2911 124.319 75.8998C124.356 76.5085 124.878 76.9728 125.487 76.9368L125.356 74.7324ZM130.014 76.6758C130.623 76.6415 131.089 76.1202 131.055 75.5114C131.021 74.9026 130.499 74.4368 129.89 74.471L130.014 76.6758ZM139.019 73.9792C138.41 74.0107 137.942 74.53 137.973 75.139C138.005 75.7479 138.524 76.216 139.133 76.1844L139.019 73.9792ZM143.739 75.9494C144.348 75.9188 144.817 75.4002 144.786 74.7912C144.756 74.1822 144.237 73.7133 143.628 73.744L143.739 75.9494ZM152.758 73.2955C152.149 73.3248 151.679 73.8424 151.709 74.4514C151.738 75.0605 152.256 75.5305 152.865 75.5012L152.758 73.2955ZM157.381 75.2852C157.99 75.2563 158.46 74.739 158.432 74.1299C158.403 73.5209 157.885 73.0505 157.276 73.0795L157.381 75.2852ZM166.404 72.6494C165.795 72.678 165.324 73.1949 165.353 73.804C165.381 74.4131 165.898 74.8838 166.507 74.8552L166.404 72.6494ZM171.12 74.6394C171.729 74.6109 172.2 74.094 172.171 73.4849C172.143 72.8758 171.626 72.4051 171.017 72.4336L171.12 74.6394ZM180.118 72.0069C179.509 72.0356 179.039 72.5526 179.067 73.1617C179.096 73.7708 179.613 74.2413 180.222 74.2127L180.118 72.0069ZM184.744 73.9924C185.353 73.9598 185.82 73.4398 185.787 72.8308C185.755 72.2219 185.235 71.7548 184.626 71.7874L184.744 73.9924ZM193.227 71.2157C192.619 71.2641 192.165 71.7961 192.214 72.404C192.262 73.0118 192.794 73.4653 193.402 73.4169L193.227 71.2157ZM197.722 73.0438C198.329 72.9872 198.775 72.4492 198.719 71.842C198.662 71.2349 198.124 70.7885 197.517 70.8451L197.722 73.0438ZM206.08 69.9269C205.474 70.0004 205.043 70.5508 205.117 71.1561C205.19 71.7615 205.741 72.1925 206.346 72.1189L206.08 69.9269ZM210.663 71.5621C211.267 71.4797 211.69 70.9231 211.608 70.3189C211.525 69.7147 210.969 69.2918 210.365 69.3742L210.663 71.5621ZM218.882 68.0811C218.281 68.1819 217.875 68.7511 217.976 69.3525C218.076 69.9539 218.645 70.3597 219.247 70.259L218.882 68.0811ZM223.503 69.5118C224.102 69.4017 224.499 68.8262 224.389 68.2264C224.279 67.6267 223.703 67.2298 223.104 67.34L223.503 69.5118ZM231.56 65.644C230.964 65.7738 230.586 66.362 230.716 66.9578C230.846 67.5536 231.434 67.9314 232.03 67.8016L231.56 65.644ZM236.258 66.843C236.851 66.7031 237.219 66.1086 237.079 65.5151C236.939 64.9216 236.345 64.5538 235.751 64.6937L236.258 66.843ZM244.092 62.5733C243.504 62.734 243.157 63.3411 243.318 63.9294C243.479 64.5176 244.086 64.8641 244.674 64.7034L244.092 62.5733ZM248.863 63.5175C249.449 63.3461 249.784 62.7327 249.612 62.1475C249.441 61.5623 248.828 61.227 248.242 61.3984L248.863 63.5175ZM256.442 58.8282C255.863 59.0217 255.551 59.6472 255.745 60.2255C255.938 60.8038 256.564 61.1158 257.142 60.9224L256.442 58.8282ZM261.262 59.4996C261.837 59.2949 262.136 58.6633 261.932 58.0889C261.727 57.5145 261.095 57.2148 260.521 57.4195L261.262 59.4996ZM268.558 54.3731C267.993 54.6007 267.719 55.2438 267.946 55.8095C268.174 56.3752 268.817 56.6493 269.383 56.4217L268.558 54.3731ZM273.401 54.7567C273.961 54.5174 274.222 53.8687 273.983 53.3079C273.744 52.747 273.095 52.4863 272.534 52.7256L273.401 54.7567ZM280.378 49.1818C279.827 49.4447 279.595 50.1038 279.857 50.654C280.12 51.2042 280.779 51.4372 281.33 51.1743L280.378 49.1818ZM285.222 49.2626C285.767 48.9879 285.985 48.3238 285.711 47.7795C285.436 47.2351 284.772 47.0165 284.227 47.2912L285.222 49.2626ZM291.827 43.2433C291.295 43.5419 291.106 44.215 291.405 44.7466C291.703 45.2783 292.376 45.4673 292.908 45.1687L291.827 43.2433ZM296.677 42.9962C297.202 42.6857 297.376 42.0086 297.065 41.4838C296.755 40.9589 296.078 40.7851 295.553 41.0956L296.677 42.9962ZM302.844 36.5565C302.333 36.8905 302.191 37.5748 302.525 38.085C302.859 38.5951 303.543 38.738 304.053 38.404L302.844 36.5565ZM307.658 35.9846C308.161 35.639 308.288 34.9516 307.942 34.4492C307.597 33.9468 306.909 33.8196 306.407 34.1652L307.658 35.9846ZM313.384 29.1262C312.898 29.4944 312.803 30.187 313.171 30.673C313.539 31.159 314.232 31.2545 314.718 30.8862L313.384 29.1262ZM318.156 28.2187C318.634 27.8395 318.713 27.1449 318.334 26.6675C317.955 26.19 317.26 26.1103 316.783 26.4896L318.156 28.2187ZM323.394 20.9902C322.934 21.3906 322.886 22.088 323.286 22.5479C323.687 23.0078 324.384 23.0561 324.844 22.6557L323.394 20.9902ZM328.092 19.7649C328.543 19.3545 328.576 18.6562 328.165 18.2052C327.755 17.7542 327.057 17.7212 326.606 18.1316L328.092 19.7649ZM332.839 12.2115C332.406 12.6405 332.402 13.3396 332.832 13.7729C333.261 14.2061 333.96 14.2095 334.393 13.7804L332.839 12.2115ZM337.446 10.6958C337.87 10.2582 337.86 9.5592 337.422 9.13457C336.984 8.70995 336.285 8.72049 335.861 9.15813L337.446 10.6958ZM341.749 2.85949C341.34 3.31219 341.376 4.01035 341.829 4.41887C342.281 4.82739 342.98 4.79156 343.388 4.33885L341.749 2.85949ZM2.75302 120.307C3.32188 119.777 3.88654 119.253 4.44729 118.737L2.95097 117.113C2.38683 117.633 1.81892 118.159 1.24698 118.693L2.75302 120.307ZM11.2151 112.676C12.3805 111.666 13.5321 110.686 14.6727 109.737L13.2597 108.04C12.1072 109 10.9444 109.988 9.76866 111.008L11.2151 112.676ZM21.7969 104.092C23.0256 103.171 24.2477 102.284 25.4667 101.429L24.1991 99.621C22.96 100.49 21.7191 101.39 20.4726 102.325L21.7969 104.092ZM33.0615 96.5063C34.3663 95.7307 35.6766 94.9883 36.9969 94.2772L35.9498 92.333C34.6015 93.0592 33.2641 93.817 31.9332 94.6082L33.0615 96.5063ZM45.134 90.3465C46.5096 89.7557 47.9046 89.1921 49.3236 88.6542L48.5408 86.5894C47.0924 87.1385 45.6678 87.714 44.2625 88.3176L45.134 90.3465ZM57.903 85.7948C59.3299 85.3795 60.7855 84.9836 62.2734 84.6056L61.7297 82.4654C60.2182 82.8494 58.7382 83.2519 57.286 83.6745L57.903 85.7948ZM71.1341 82.6348C72.5946 82.3516 74.0869 82.0808 75.6136 81.8213L75.2437 79.6443C73.7011 79.9065 72.192 80.1803 70.7138 80.4669L71.1341 82.6348ZM84.5933 80.4737C86.0648 80.2791 87.567 80.0918 89.1018 79.9112L88.8437 77.7181C87.2991 77.8999 85.7864 78.0885 84.3037 78.2846L84.5933 80.4737ZM98.2006 78.951C99.6753 78.8114 101.178 78.6759 102.71 78.5442L102.521 76.3441C100.983 76.4764 99.4738 76.6124 97.9924 76.7527L98.2006 78.951ZM111.834 77.826C113.314 77.719 114.82 77.6142 116.353 77.5113L116.205 75.3081C114.669 75.4112 113.159 75.5162 111.675 75.6235L111.834 77.826ZM125.487 76.9368C126.973 76.8489 128.482 76.7619 130.014 76.6758L129.89 74.471C128.356 74.5573 126.844 74.6444 125.356 74.7324L125.487 76.9368ZM139.133 76.1844C140.646 76.106 142.182 76.0277 143.739 75.9494L143.628 73.744C142.07 73.8223 140.533 73.9007 139.019 73.9792L139.133 76.1844ZM152.865 75.5012C154.351 75.4296 155.856 75.3576 157.381 75.2852L157.276 73.0795C155.751 73.1519 154.245 73.2239 152.758 73.2955L152.865 75.5012ZM166.507 74.8552C168.027 74.7841 169.564 74.7122 171.12 74.6394L171.017 72.4336C169.461 72.5064 167.923 72.5783 166.404 72.6494L166.507 74.8552ZM180.222 74.2127C180.995 74.1763 181.771 74.1397 182.552 74.1029L182.448 71.8971C181.667 71.934 180.891 71.9706 180.118 72.0069L180.222 74.2127ZM182.552 74.1029C183.286 74.0682 184.016 74.0314 184.744 73.9924L184.626 71.7874C183.903 71.8261 183.177 71.8627 182.448 71.8971L182.552 74.1029ZM193.402 73.4169C194.854 73.3013 196.294 73.1768 197.722 73.0438L197.517 70.8451C196.099 70.9772 194.669 71.1008 193.227 71.2157L193.402 73.4169ZM206.346 72.1189C207.798 71.9423 209.237 71.7567 210.663 71.5621L210.365 69.3742C208.95 69.5673 207.521 69.7516 206.08 69.9269L206.346 72.1189ZM219.247 70.259C220.68 70.019 222.098 69.7698 223.503 69.5118L223.104 67.34C221.711 67.5959 220.303 67.843 218.882 68.0811L219.247 70.259ZM232.03 67.8016C233.455 67.4912 234.864 67.1716 236.258 66.843L235.751 64.6937C234.369 65.0194 232.972 65.3363 231.56 65.644L232.03 67.8016ZM244.674 64.7034C246.087 64.3173 247.483 63.9219 248.863 63.5175L248.242 61.3984C246.875 61.799 245.492 62.1907 244.092 62.5733L244.674 64.7034ZM257.142 60.9224C258.533 60.4571 259.907 59.9827 261.262 59.4996L260.521 57.4195C259.179 57.8978 257.819 58.3675 256.442 58.8282L257.142 60.9224ZM269.383 56.4217C270.741 55.8751 272.08 55.3199 273.401 54.7567L272.534 52.7256C271.228 53.2829 269.903 53.8322 268.558 54.3731L269.383 56.4217ZM281.33 51.1743C282.647 50.5447 283.945 49.9072 285.222 49.2626L284.227 47.2912C282.964 47.9286 281.681 48.5591 280.378 49.1818L281.33 51.1743ZM292.908 45.1687C294.186 44.4509 295.442 43.7265 296.677 42.9962L295.553 41.0956C294.332 41.8175 293.091 42.5337 291.827 43.2433L292.908 45.1687ZM304.053 38.404C305.278 37.602 306.48 36.7952 307.658 35.9846L306.407 34.1652C305.242 34.9664 304.055 35.7638 302.844 36.5565L304.053 38.404ZM314.718 30.8862C315.889 29.9987 317.035 29.1092 318.156 28.2187L316.783 26.4896C315.675 27.3697 314.542 28.249 313.384 29.1262L314.718 30.8862ZM324.844 22.6557C325.954 21.6896 327.036 20.7255 328.092 19.7649L326.606 18.1316C325.562 19.0816 324.491 20.035 323.394 20.9902L324.844 22.6557ZM334.393 13.7804C335.44 12.7431 336.457 11.7142 337.446 10.6958L335.861 9.15813C334.882 10.1665 333.876 11.1849 332.839 12.2115L334.393 13.7804ZM343.388 4.33885C343.875 3.79878 344.355 3.26344 344.826 2.73321L343.174 1.26679C342.707 1.7929 342.232 2.32392 341.749 2.85949L343.388 4.33885Z" fill="#6A0600"/>
</svg>
