<svg width="21" height="114" viewBox="0 0 21 114" fill="none" xmlns="http://www.w3.org/2000/svg">
<path d="M4.45865 1.19275C4.28896 0.939447 3.94605 0.871663 3.69275 1.04135C3.43945 1.21104 3.37166 1.55395 3.54135 1.80725L4.45865 1.19275ZM3.46598 112.14C3.54326 112.435 3.845 112.611 4.13993 112.534L8.94613 111.275C9.24106 111.197 9.4175 110.896 9.34022 110.601C9.26294 110.306 8.9612 110.129 8.66626 110.207L4.39409 111.326L3.27464 107.054C3.19736 106.759 2.89562 106.583 2.60069 106.66C2.30576 106.737 2.12932 107.039 2.2066 107.334L3.46598 112.14ZM4.68909 3.59455C4.84911 3.85407 5.18922 3.93473 5.44874 3.7747C5.70825 3.61468 5.78891 3.27458 5.62889 3.01506L4.68909 3.59455ZM9.71941 10.6323C9.58956 10.3565 9.26066 10.2381 8.98481 10.368C8.70896 10.4978 8.5906 10.8267 8.72045 11.1026L9.71941 10.6323ZM10.4506 15.0107C10.5677 15.2922 10.8908 15.4254 11.1723 15.3083C11.4538 15.1912 11.5871 14.8681 11.47 14.5866L10.4506 15.0107ZM14.4512 22.7005C14.3578 22.4103 14.0468 22.2507 13.7566 22.3441C13.4663 22.4374 13.3067 22.7484 13.4001 23.0386L14.4512 22.7005ZM14.6281 27.1318C14.7099 27.4255 15.0144 27.5973 15.3081 27.5154C15.6017 27.4335 15.7735 27.1291 15.6916 26.8354L14.6281 27.1318ZM17.688 35.2462C17.6291 34.947 17.3388 34.7523 17.0396 34.8112C16.7405 34.8701 16.5458 35.1604 16.6047 35.4595L17.688 35.2462ZM17.3495 39.6669C17.3969 39.9681 17.6795 40.1739 17.9806 40.1265C18.2818 40.0791 18.4876 39.7966 18.4402 39.4954L17.3495 39.6669ZM19.4516 48.0753C19.4277 47.7714 19.1619 47.5443 18.8579 47.5683C18.554 47.5922 18.327 47.858 18.3509 48.1619L19.4516 48.0753ZM18.6031 52.4342C18.6151 52.7388 18.8718 52.9761 19.1765 52.9641C19.4812 52.9521 19.7184 52.6954 19.7064 52.3907L18.6031 52.4342ZM19.7054 61.0326C19.7175 60.728 19.4804 60.4712 19.1757 60.459C18.8711 60.4469 18.6143 60.684 18.6021 60.9887L19.7054 61.0326ZM18.3468 65.2553C18.3225 65.5592 18.5492 65.8253 18.8531 65.8496C19.157 65.8739 19.4231 65.6472 19.4474 65.3433L18.3468 65.2553ZM18.4134 73.9184C18.4621 73.6174 18.2576 73.334 17.9566 73.2853C17.6556 73.2367 17.3722 73.4412 17.3235 73.7422L18.4134 73.9184ZM16.556 77.9484C16.4953 78.2472 16.6882 78.5387 16.987 78.5994C17.2858 78.6602 17.5772 78.4673 17.638 78.1685L16.556 77.9484ZM15.5767 86.5591C15.6612 86.2661 15.4923 85.9601 15.1994 85.8755C14.9065 85.791 14.6005 85.9599 14.5159 86.2528L15.5767 86.5591ZM13.2478 90.3385C13.1516 90.6278 13.3082 90.9403 13.5975 91.0364C13.8869 91.1326 14.1994 90.976 14.2955 90.6866L13.2478 90.3385ZM11.2508 98.773C11.3692 98.4921 11.2375 98.1683 10.9566 98.0498C10.6756 97.9314 10.3519 98.0631 10.2334 98.344L11.2508 98.773ZM8.49848 102.248C8.3694 102.525 8.48868 102.853 8.7649 102.982C9.04112 103.111 9.36967 102.992 9.49875 102.716L8.49848 102.248ZM5.5576 110.391C5.70672 110.125 5.61203 109.789 5.34609 109.64C5.08016 109.49 4.74369 109.585 4.59457 109.851L5.5576 110.391ZM3.54135 1.80725C3.91917 2.37123 4.30234 2.96732 4.68909 3.59455L5.62889 3.01506C5.2352 2.37657 4.84453 1.76878 4.45865 1.19275L3.54135 1.80725ZM8.72045 11.1026C9.30516 12.3447 9.88386 13.6486 10.4506 15.0107L11.47 14.5866C10.8969 13.2091 10.3113 11.8898 9.71941 10.6323L8.72045 11.1026ZM13.4001 23.0386C13.8272 24.3664 14.2377 25.7315 14.6281 27.1318L15.6916 26.8354C15.2974 25.4209 14.8827 24.0419 14.4512 22.7005L13.4001 23.0386ZM16.6047 35.4595C16.876 36.8371 17.1251 38.2401 17.3495 39.6669L18.4402 39.4954C18.2136 38.0543 17.9619 36.6374 17.688 35.2462L16.6047 35.4595ZM18.3509 48.1619C18.4616 49.5684 18.5464 50.9929 18.6031 52.4342L19.7064 52.3907C19.649 50.9348 19.5634 49.4959 19.4516 48.0753L18.3509 48.1619ZM18.6021 60.9887C18.546 62.3985 18.4615 63.8211 18.3468 65.2553L19.4474 65.3433C19.5632 63.8942 19.6486 62.457 19.7054 61.0326L18.6021 60.9887ZM17.3235 73.7422C17.0982 75.1359 16.8428 76.5383 16.556 77.9484L17.638 78.1685C17.9278 76.7437 18.1858 75.3267 18.4134 73.9184L17.3235 73.7422ZM14.5159 86.2528C14.1243 87.6095 13.702 88.9716 13.2478 90.3385L14.2955 90.6866C14.7544 89.3058 15.181 87.9297 15.5767 86.5591L14.5159 86.2528ZM10.2334 98.344C9.6858 99.6427 9.10784 100.944 8.49848 102.248L9.49875 102.716C10.1141 101.399 10.6977 100.085 11.2508 98.773L10.2334 98.344ZM4.59457 109.851C4.24513 110.474 3.88812 111.098 3.52344 111.721L4.47656 112.279C4.84459 111.649 5.2049 111.02 5.5576 110.391L4.59457 109.851ZM4.9173 0.885501C4.57792 0.378893 3.89211 0.243327 3.3855 0.582705C2.87889 0.922083 2.74333 1.60789 3.0827 2.1145L4.9173 0.885501ZM2.93196 112.28C3.08652 112.87 3.69 113.223 4.27986 113.068L13.8923 110.549C14.4821 110.395 14.835 109.791 14.6804 109.201C14.5259 108.612 13.9224 108.259 13.3325 108.413L4.78818 110.652L2.54929 102.108C2.39473 101.518 1.79125 101.165 1.20138 101.32C0.61152 101.474 0.258639 102.078 0.413202 102.667L2.93196 112.28ZM4.21919 3.88429C4.53923 4.40333 5.21944 4.56465 5.73848 4.24461C6.25752 3.92456 6.41884 3.24435 6.09879 2.72531L4.21919 3.88429ZM10.2189 10.3972C9.95918 9.8455 9.3014 9.60879 8.74969 9.86849C8.19798 10.1282 7.96127 10.786 8.22097 11.3377L10.2189 10.3972ZM9.94087 15.2227C10.1751 15.7857 10.8214 16.0522 11.3844 15.818C11.9474 15.5838 12.2139 14.9375 11.9797 14.3745L9.94087 15.2227ZM14.9767 22.5315C14.79 21.951 14.168 21.6318 13.5875 21.8185C13.007 22.0053 12.6878 22.6272 12.8746 23.2077L14.9767 22.5315ZM14.0963 27.2801C14.26 27.8675 14.8689 28.2109 15.4563 28.0472C16.0437 27.8835 16.3871 27.2746 16.2234 26.6872L14.0963 27.2801ZM18.2296 35.1395C18.1118 34.5412 17.5313 34.1517 16.933 34.2695C16.3347 34.3874 15.9452 34.9679 16.063 35.5662L18.2296 35.1395ZM16.8042 39.7527C16.8989 40.3551 17.464 40.7666 18.0664 40.6719C18.6688 40.5771 19.0803 40.012 18.9856 39.4096L16.8042 39.7527ZM20.0019 48.032C19.9541 47.4241 19.4225 46.9701 18.8146 47.0179C18.2067 47.0658 17.7527 47.5973 17.8005 48.2052L20.0019 48.032ZM18.0515 52.4559C18.0755 53.0652 18.5889 53.5397 19.1982 53.5157C19.8075 53.4917 20.282 52.9783 20.258 52.369L18.0515 52.4559ZM20.257 61.0546C20.2813 60.4453 19.807 59.9317 19.1977 59.9074C18.5884 59.8832 18.0748 60.3574 18.0505 60.9667L20.257 61.0546ZM17.7965 65.2113C17.7479 65.8191 18.2012 66.3512 18.8091 66.3998C19.4169 66.4484 19.9491 65.9951 19.9977 65.3873L17.7965 65.2113ZM18.9584 74.0065C19.0557 73.4045 18.6466 72.8377 18.0447 72.7403C17.4427 72.643 16.8758 73.0521 16.7785 73.6541L18.9584 74.0065ZM16.0151 77.8384C15.8935 78.436 16.2794 79.0189 16.877 79.1404C17.4745 79.2619 18.0574 78.8761 18.179 78.2785L16.0151 77.8384ZM16.1071 86.7122C16.2762 86.1263 15.9384 85.5143 15.3525 85.3452C14.7666 85.176 14.1546 85.5139 13.9855 86.0997L16.1071 86.7122ZM12.7239 90.1644C12.5316 90.743 12.8448 91.368 13.4234 91.5603C14.0021 91.7526 14.6271 91.4394 14.8194 90.8607L12.7239 90.1644ZM11.7594 98.9875C11.9964 98.4256 11.7329 97.7781 11.171 97.5411C10.6092 97.3042 9.96163 97.5677 9.72472 98.1295L11.7594 98.9875ZM7.99834 102.015C7.74019 102.567 7.97875 103.224 8.53118 103.482C9.08362 103.741 9.74073 103.502 9.99889 102.95L7.99834 102.015ZM6.03912 110.661C6.33736 110.129 6.14797 109.456 5.6161 109.158C5.08423 108.86 4.4113 109.049 4.11306 109.581L6.03912 110.661ZM3.0827 2.1145C3.45648 2.67246 3.83591 3.2627 4.21919 3.88429L6.09879 2.72531C5.70163 2.08119 5.30721 1.46755 4.9173 0.885501L3.0827 2.1145ZM8.22097 11.3377C8.80206 12.5722 9.37736 13.8683 9.94087 15.2227L11.9797 14.3745C11.4033 12.9893 10.8144 11.6624 10.2189 10.3972L8.22097 11.3377ZM12.8746 23.2077C13.2995 24.5286 13.7079 25.8868 14.0963 27.2801L16.2234 26.6872C15.8272 25.2657 15.4104 23.8797 14.9767 22.5315L12.8746 23.2077ZM16.063 35.5662C16.333 36.9369 16.5809 38.3329 16.8042 39.7527L18.9856 39.4096C18.7578 37.9615 18.5049 36.5376 18.2296 35.1395L16.063 35.5662ZM17.8005 48.2052C17.9107 49.6046 17.995 51.0219 18.0515 52.4559L20.258 52.369C20.2004 50.9058 20.1143 49.4597 20.0019 48.032L17.8005 48.2052ZM18.0505 60.9667C17.9947 62.3693 17.9106 63.7845 17.7965 65.2113L19.9977 65.3873C20.1141 63.9308 20.2 62.4862 20.257 61.0546L18.0505 60.9667ZM16.7785 73.6541C16.5544 75.0406 16.3004 76.4356 16.0151 77.8384L18.179 78.2785C18.4702 76.8463 18.7296 75.422 18.9584 74.0065L16.7785 73.6541ZM13.9855 86.0997C13.5959 87.4494 13.1758 88.8045 12.7239 90.1644L14.8194 90.8607C15.2806 89.4729 15.7094 88.0898 16.1071 86.7122L13.9855 86.0997ZM9.72472 98.1295C9.17984 99.4218 8.60473 100.717 7.99834 102.015L9.99889 102.95C10.6172 101.626 11.2037 100.306 11.7594 98.9875L9.72472 98.1295ZM4.11306 109.581C3.76524 110.201 3.40989 110.822 3.04689 111.443L4.95311 112.557C5.32282 111.925 5.68479 111.293 6.03912 110.661L4.11306 109.581Z" fill="#6A0600"/>
</svg>
