<svg width="296" height="68" viewBox="0 0 296 68" fill="none" xmlns="http://www.w3.org/2000/svg">
<path d="M2.83325 6.016C2.83325 4.88533 3.01458 3.92533 3.37725 3.136C3.73992 2.32533 4.32658 1.73867 5.13725 1.376C5.96925 0.991999 7.06792 0.853333 8.43325 0.959999V2.624C7.00392 2.51733 6.01192 2.76267 5.45725 3.36C4.92392 3.936 4.65725 4.82133 4.65725 6.016V8H8.52925V9.728H4.65725V24H2.83325V9.728H0.40125V8H2.83325V6.016ZM12.2475 8H13.9435L14.0395 10.848C14.4022 10.1867 14.8928 9.61067 15.5115 9.12C16.1302 8.62933 16.8342 8.27733 17.6235 8.064C18.4128 7.85067 19.2768 7.82933 20.2155 8V9.824C19.2982 9.632 18.4662 9.64267 17.7195 9.856C16.9728 10.048 16.3222 10.4 15.7675 10.912C15.2342 11.424 14.8182 12.064 14.5195 12.832C14.2208 13.6 14.0715 14.4747 14.0715 15.456V24H12.2475V8ZM30.094 24.224C28.6007 24.224 27.2567 23.8933 26.062 23.232C24.8887 22.5707 23.9607 21.632 23.278 20.416C22.6167 19.1787 22.286 17.7173 22.286 16.032C22.286 14.3253 22.6273 12.8533 23.31 11.616C23.9927 10.3787 24.9207 9.42933 26.094 8.768C27.2887 8.10667 28.6433 7.776 30.158 7.776C31.6513 7.776 32.9847 8.10667 34.158 8.768C35.3527 9.42933 36.2913 10.3787 36.974 11.616C37.6567 12.832 37.998 14.2827 37.998 15.968C37.998 17.6747 37.646 19.1467 36.942 20.384C36.2593 21.6213 35.3207 22.5707 34.126 23.232C32.9527 23.8933 31.6087 24.224 30.094 24.224ZM30.094 22.496C31.118 22.496 32.078 22.272 32.974 21.824C33.8913 21.3547 34.6273 20.64 35.182 19.68C35.758 18.72 36.046 17.4933 36.046 16C36.046 14.5067 35.758 13.28 35.182 12.32C34.6273 11.36 33.902 10.656 33.006 10.208C32.11 9.73867 31.15 9.504 30.126 9.504C29.102 9.504 28.142 9.73867 27.246 10.208C26.35 10.656 25.6247 11.36 25.07 12.32C24.5153 13.28 24.238 14.5067 24.238 16C24.238 17.4933 24.5153 18.72 25.07 19.68C25.6247 20.64 26.3393 21.3547 27.214 21.824C28.11 22.272 29.07 22.496 30.094 22.496ZM42.0913 8H43.7873L43.9153 10.912C44.3206 9.97333 44.9393 9.216 45.7713 8.64C46.6033 8.064 47.6699 7.776 48.9713 7.776C50.1659 7.776 51.2433 8.08533 52.2033 8.704C53.1633 9.32267 53.8779 10.2613 54.3473 11.52C54.7953 10.24 55.5313 9.30133 56.5553 8.704C57.5793 8.08533 58.7313 7.776 60.0113 7.776C61.1846 7.776 62.2299 8.04267 63.1473 8.576C64.0646 9.088 64.7793 9.86667 65.2913 10.912C65.8033 11.9573 66.0593 13.2693 66.0593 14.848V24H64.2353V15.04C64.2353 13.2267 63.8406 11.8507 63.0513 10.912C62.2619 9.952 61.1526 9.472 59.7233 9.472C58.2513 9.472 57.0779 9.99467 56.2033 11.04C55.3499 12.0853 54.9233 13.6213 54.9233 15.648V24H53.0673V15.04C53.0673 13.2267 52.6833 11.8507 51.9153 10.912C51.1686 9.952 50.0806 9.472 48.6513 9.472C47.1793 9.472 46.0166 9.99467 45.1633 11.04C44.3313 12.0853 43.9153 13.6213 43.9153 15.648V24H42.0913V8ZM80.8645 6.016C80.8645 4.88533 81.0458 3.92533 81.4085 3.136C81.7712 2.32533 82.3578 1.73867 83.1685 1.376C84.0005 0.991999 85.0992 0.853333 86.4645 0.959999V2.624C85.0352 2.51733 84.0432 2.76267 83.4885 3.36C82.9552 3.936 82.6885 4.82133 82.6885 6.016V8H86.5605V9.728H82.6885V24H80.8645V9.728H78.4325V8H80.8645V6.016ZM96.5263 24.224C95.0329 24.224 93.7103 23.872 92.5583 23.168C91.4276 22.4427 90.5423 21.4507 89.9023 20.192C89.2623 18.9333 88.9423 17.4827 88.9423 15.84C88.9423 14.2827 89.2623 12.896 89.9023 11.68C90.5636 10.464 91.4596 9.51467 92.5903 8.832C93.7209 8.128 95.0116 7.776 96.4623 7.776C97.8916 7.776 99.1609 8.096 100.27 8.736C101.401 9.35467 102.276 10.2187 102.894 11.328C103.534 12.416 103.844 13.664 103.822 15.072C103.822 15.2853 103.812 15.52 103.79 15.776C103.79 16.0107 103.78 16.2667 103.758 16.544H90.9263C90.9476 17.7173 91.2036 18.752 91.6943 19.648C92.1849 20.544 92.8356 21.248 93.6463 21.76C94.4783 22.2507 95.4169 22.496 96.4623 22.496C97.7849 22.496 98.9156 22.2293 99.8543 21.696C100.814 21.1413 101.508 20.3627 101.934 19.36L103.502 20C102.905 21.3653 101.998 22.4107 100.782 23.136C99.5663 23.8613 98.1476 24.224 96.5263 24.224ZM101.838 14.944C101.86 13.8773 101.646 12.9387 101.198 12.128C100.75 11.3173 100.11 10.6773 99.2783 10.208C98.4676 9.73867 97.5076 9.504 96.3983 9.504C95.4169 9.504 94.5316 9.73867 93.7423 10.208C92.9529 10.6773 92.3023 11.328 91.7903 12.16C91.2996 12.9707 91.0116 13.8987 90.9263 14.944H101.838ZM114.464 24.224C112.97 24.224 111.648 23.872 110.496 23.168C109.365 22.4427 108.48 21.4507 107.84 20.192C107.2 18.9333 106.88 17.4827 106.88 15.84C106.88 14.2827 107.2 12.896 107.84 11.68C108.501 10.464 109.397 9.51467 110.528 8.832C111.658 8.128 112.949 7.776 114.4 7.776C115.829 7.776 117.098 8.096 118.208 8.736C119.338 9.35467 120.213 10.2187 120.832 11.328C121.472 12.416 121.781 13.664 121.76 15.072C121.76 15.2853 121.749 15.52 121.728 15.776C121.728 16.0107 121.717 16.2667 121.696 16.544H108.864C108.885 17.7173 109.141 18.752 109.632 19.648C110.122 20.544 110.773 21.248 111.584 21.76C112.416 22.2507 113.354 22.496 114.4 22.496C115.722 22.496 116.853 22.2293 117.792 21.696C118.752 21.1413 119.445 20.3627 119.872 19.36L121.44 20C120.842 21.3653 119.936 22.4107 118.72 23.136C117.504 23.8613 116.085 24.224 114.464 24.224ZM119.776 14.944C119.797 13.8773 119.584 12.9387 119.136 12.128C118.688 11.3173 118.048 10.6773 117.216 10.208C116.405 9.73867 115.445 9.504 114.336 9.504C113.354 9.504 112.469 9.73867 111.68 10.208C110.89 10.6773 110.24 11.328 109.728 12.16C109.237 12.9707 108.949 13.8987 108.864 14.944H119.776ZM138.417 11.712L138.257 11.776V0.959999H140.081V24H138.385L138.257 20.48C137.809 21.5253 137.063 22.4107 136.017 23.136C134.993 23.8613 133.713 24.224 132.177 24.224C130.705 24.224 129.415 23.8933 128.305 23.232C127.196 22.5493 126.332 21.5893 125.713 20.352C125.116 19.1147 124.817 17.664 124.817 16C124.817 14.336 125.116 12.896 125.713 11.68C126.332 10.4427 127.196 9.48267 128.305 8.8C129.415 8.11733 130.705 7.776 132.177 7.776C133.799 7.776 135.132 8.16 136.177 8.928C137.223 9.67467 137.969 10.6027 138.417 11.712ZM126.769 16C126.769 18.0053 127.281 19.5947 128.305 20.768C129.351 21.9413 130.759 22.528 132.529 22.528C133.639 22.528 134.62 22.2613 135.473 21.728C136.348 21.1947 137.031 20.448 137.521 19.488C138.012 18.5067 138.257 17.344 138.257 16C138.257 14.656 138.012 13.504 137.521 12.544C137.031 11.5627 136.348 10.8053 135.473 10.272C134.62 9.73867 133.639 9.472 132.529 9.472C130.759 9.472 129.351 10.0587 128.305 11.232C127.281 12.4053 126.769 13.9947 126.769 16ZM155.179 8V3.52H157.003V8H161.483V9.696H157.003V19.136C157.003 20.0747 157.216 20.8 157.643 21.312C158.091 21.824 158.656 22.1547 159.339 22.304C160.021 22.432 160.736 22.432 161.483 22.304V23.872C160.715 24.064 159.947 24.1173 159.179 24.032C158.432 23.9467 157.749 23.712 157.131 23.328C156.533 22.9227 156.053 22.3787 155.691 21.696C155.349 21.0133 155.179 20.16 155.179 19.136V9.696H152.683V8H155.179ZM172 24.224C170.507 24.224 169.163 23.8933 167.968 23.232C166.795 22.5707 165.867 21.632 165.184 20.416C164.523 19.1787 164.192 17.7173 164.192 16.032C164.192 14.3253 164.534 12.8533 165.216 11.616C165.899 10.3787 166.827 9.42933 168 8.768C169.195 8.10667 170.55 7.776 172.064 7.776C173.558 7.776 174.891 8.10667 176.064 8.768C177.259 9.42933 178.198 10.3787 178.88 11.616C179.563 12.832 179.904 14.2827 179.904 15.968C179.904 17.6747 179.552 19.1467 178.848 20.384C178.166 21.6213 177.227 22.5707 176.032 23.232C174.859 23.8933 173.515 24.224 172 24.224ZM172 22.496C173.024 22.496 173.984 22.272 174.88 21.824C175.798 21.3547 176.534 20.64 177.088 19.68C177.664 18.72 177.952 17.4933 177.952 16C177.952 14.5067 177.664 13.28 177.088 12.32C176.534 11.36 175.808 10.656 174.912 10.208C174.016 9.73867 173.056 9.504 172.032 9.504C171.008 9.504 170.048 9.73867 169.152 10.208C168.256 10.656 167.531 11.36 166.976 12.32C166.422 13.28 166.144 14.5067 166.144 16C166.144 17.4933 166.422 18.72 166.976 19.68C167.531 20.64 168.246 21.3547 169.12 21.824C170.016 22.272 170.976 22.496 172 22.496ZM193.958 6.016C193.958 4.88533 194.14 3.92533 194.502 3.136C194.865 2.32533 195.452 1.73867 196.262 1.376C197.094 0.991999 198.193 0.853333 199.558 0.959999V2.624C198.129 2.51733 197.137 2.76267 196.582 3.36C196.049 3.936 195.782 4.82133 195.782 6.016V8H199.654V9.728H195.782V24H193.958V9.728H191.526V8H193.958V6.016ZM213.677 24L213.549 20.608C213.101 21.76 212.397 22.656 211.437 23.296C210.498 23.9147 209.303 24.224 207.853 24.224C206.701 24.224 205.719 24.0533 204.909 23.712C204.098 23.3493 203.469 22.8373 203.021 22.176C202.594 21.5147 202.381 20.7253 202.381 19.808C202.381 18.464 202.882 17.376 203.885 16.544C204.887 15.6907 206.381 15.168 208.365 14.976L213.549 14.4V13.056C213.549 11.9467 213.175 11.0827 212.429 10.464C211.703 9.824 210.69 9.504 209.389 9.504C208.151 9.504 207.117 9.792 206.285 10.368C205.474 10.944 204.93 11.7653 204.653 12.832L202.989 12.256C203.394 10.8267 204.151 9.728 205.261 8.96C206.37 8.17067 207.757 7.776 209.421 7.776C211.298 7.776 212.759 8.24533 213.805 9.184C214.85 10.1227 215.373 11.4133 215.373 13.056V24H213.677ZM213.549 15.968L208.333 16.576C206.967 16.7253 205.954 17.0667 205.293 17.6C204.653 18.112 204.333 18.816 204.333 19.712C204.333 20.608 204.642 21.312 205.261 21.824C205.901 22.336 206.807 22.592 207.981 22.592C209.218 22.592 210.242 22.3467 211.053 21.856C211.885 21.344 212.503 20.6507 212.909 19.776C213.335 18.88 213.549 17.8773 213.549 16.768V15.968ZM220.248 8H221.944L222.04 10.848C222.402 10.1867 222.893 9.61067 223.512 9.12C224.13 8.62933 224.834 8.27733 225.624 8.064C226.413 7.85067 227.277 7.82933 228.216 8V9.824C227.298 9.632 226.466 9.64267 225.72 9.856C224.973 10.048 224.322 10.4 223.768 10.912C223.234 11.424 222.818 12.064 222.52 12.832C222.221 13.6 222.072 14.4747 222.072 15.456V24H220.248V8ZM231.623 8H233.319L233.447 10.912C233.852 9.97333 234.471 9.216 235.303 8.64C236.135 8.064 237.201 7.776 238.503 7.776C239.697 7.776 240.775 8.08533 241.735 8.704C242.695 9.32267 243.409 10.2613 243.879 11.52C244.327 10.24 245.063 9.30133 246.087 8.704C247.111 8.08533 248.263 7.776 249.543 7.776C250.716 7.776 251.761 8.04267 252.679 8.576C253.596 9.088 254.311 9.86667 254.823 10.912C255.335 11.9573 255.591 13.2693 255.591 14.848V24H253.767V15.04C253.767 13.2267 253.372 11.8507 252.583 10.912C251.793 9.952 250.684 9.472 249.255 9.472C247.783 9.472 246.609 9.99467 245.735 11.04C244.881 12.0853 244.455 13.6213 244.455 15.648V24H242.599V15.04C242.599 13.2267 242.215 11.8507 241.447 10.912C240.7 9.952 239.612 9.472 238.183 9.472C236.711 9.472 235.548 9.99467 234.695 11.04C233.863 12.0853 233.447 13.6213 233.447 15.648V24H231.623V8ZM270.46 8V3.52H272.284V8H276.764V9.696H272.284V19.136C272.284 20.0747 272.497 20.8 272.924 21.312C273.372 21.824 273.937 22.1547 274.62 22.304C275.302 22.432 276.017 22.432 276.764 22.304V23.872C275.996 24.064 275.228 24.1173 274.46 24.032C273.713 23.9467 273.03 23.712 272.412 23.328C271.814 22.9227 271.334 22.3787 270.972 21.696C270.63 21.0133 270.46 20.16 270.46 19.136V9.696H267.964V8H270.46ZM287.282 24.224C285.788 24.224 284.444 23.8933 283.25 23.232C282.076 22.5707 281.148 21.632 280.466 20.416C279.804 19.1787 279.474 17.7173 279.474 16.032C279.474 14.3253 279.815 12.8533 280.498 11.616C281.18 10.3787 282.108 9.42933 283.282 8.768C284.476 8.10667 285.831 7.776 287.345 7.776C288.839 7.776 290.172 8.10667 291.346 8.768C292.54 9.42933 293.479 10.3787 294.162 11.616C294.844 12.832 295.186 14.2827 295.186 15.968C295.186 17.6747 294.834 19.1467 294.13 20.384C293.447 21.6213 292.508 22.5707 291.314 23.232C290.14 23.8933 288.796 24.224 287.282 24.224ZM287.282 22.496C288.306 22.496 289.266 22.272 290.162 21.824C291.079 21.3547 291.815 20.64 292.37 19.68C292.946 18.72 293.234 17.4933 293.234 16C293.234 14.5067 292.946 13.28 292.37 12.32C291.815 11.36 291.09 10.656 290.194 10.208C289.298 9.73867 288.338 9.504 287.314 9.504C286.29 9.504 285.33 9.73867 284.434 10.208C283.538 10.656 282.812 11.36 282.258 12.32C281.703 13.28 281.426 14.5067 281.426 16C281.426 17.4933 281.703 18.72 282.258 19.68C282.812 20.64 283.527 21.3547 284.402 21.824C285.298 22.272 286.258 22.496 287.282 22.496ZM118.068 44.016C118.068 42.8853 118.249 41.9253 118.612 41.136C118.974 40.3253 119.561 39.7387 120.372 39.376C121.204 38.992 122.302 38.8533 123.668 38.96V40.624C122.238 40.5173 121.246 40.7627 120.692 41.36C120.158 41.936 119.892 42.8213 119.892 44.016V46H123.764V47.728H119.892V62H118.068V47.728H115.636V46H118.068V44.016ZM133.953 62.224C132.46 62.224 131.116 61.8933 129.921 61.232C128.748 60.5707 127.82 59.632 127.137 58.416C126.476 57.1787 126.145 55.7173 126.145 54.032C126.145 52.3253 126.487 50.8533 127.169 49.616C127.852 48.3787 128.78 47.4293 129.953 46.768C131.148 46.1067 132.503 45.776 134.017 45.776C135.511 45.776 136.844 46.1067 138.017 46.768C139.212 47.4293 140.151 48.3787 140.833 49.616C141.516 50.832 141.857 52.2827 141.857 53.968C141.857 55.6747 141.505 57.1467 140.801 58.384C140.119 59.6213 139.18 60.5707 137.985 61.232C136.812 61.8933 135.468 62.224 133.953 62.224ZM133.953 60.496C134.977 60.496 135.937 60.272 136.833 59.824C137.751 59.3547 138.487 58.64 139.041 57.68C139.617 56.72 139.905 55.4933 139.905 54C139.905 52.5067 139.617 51.28 139.041 50.32C138.487 49.36 137.761 48.656 136.865 48.208C135.969 47.7387 135.009 47.504 133.985 47.504C132.961 47.504 132.001 47.7387 131.105 48.208C130.209 48.656 129.484 49.36 128.929 50.32C128.375 51.28 128.097 52.5067 128.097 54C128.097 55.4933 128.375 56.72 128.929 57.68C129.484 58.64 130.199 59.3547 131.073 59.824C131.969 60.272 132.929 60.496 133.953 60.496ZM152.735 62.224C151.241 62.224 149.897 61.8933 148.703 61.232C147.529 60.5707 146.601 59.632 145.919 58.416C145.257 57.1787 144.927 55.7173 144.927 54.032C144.927 52.3253 145.268 50.8533 145.951 49.616C146.633 48.3787 147.561 47.4293 148.735 46.768C149.929 46.1067 151.284 45.776 152.799 45.776C154.292 45.776 155.625 46.1067 156.799 46.768C157.993 47.4293 158.932 48.3787 159.615 49.616C160.297 50.832 160.639 52.2827 160.639 53.968C160.639 55.6747 160.287 57.1467 159.583 58.384C158.9 59.6213 157.961 60.5707 156.767 61.232C155.593 61.8933 154.249 62.224 152.735 62.224ZM152.735 60.496C153.759 60.496 154.719 60.272 155.615 59.824C156.532 59.3547 157.268 58.64 157.823 57.68C158.399 56.72 158.687 55.4933 158.687 54C158.687 52.5067 158.399 51.28 157.823 50.32C157.268 49.36 156.543 48.656 155.647 48.208C154.751 47.7387 153.791 47.504 152.767 47.504C151.743 47.504 150.783 47.7387 149.887 48.208C148.991 48.656 148.265 49.36 147.711 50.32C147.156 51.28 146.879 52.5067 146.879 54C146.879 55.4933 147.156 56.72 147.711 57.68C148.265 58.64 148.98 59.3547 149.855 59.824C150.751 60.272 151.711 60.496 152.735 60.496ZM177.308 49.712L177.148 49.776V38.96H178.972V62H177.276L177.148 58.48C176.7 59.5253 175.953 60.4107 174.908 61.136C173.884 61.8613 172.604 62.224 171.068 62.224C169.596 62.224 168.305 61.8933 167.196 61.232C166.087 60.5493 165.223 59.5893 164.604 58.352C164.007 57.1147 163.708 55.664 163.708 54C163.708 52.336 164.007 50.896 164.604 49.68C165.223 48.4427 166.087 47.4827 167.196 46.8C168.305 46.1173 169.596 45.776 171.068 45.776C172.689 45.776 174.023 46.16 175.068 46.928C176.113 47.6747 176.86 48.6027 177.308 49.712ZM165.66 54C165.66 56.0053 166.172 57.5947 167.196 58.768C168.241 59.9413 169.649 60.528 171.42 60.528C172.529 60.528 173.511 60.2613 174.364 59.728C175.239 59.1947 175.921 58.448 176.412 57.488C176.903 56.5067 177.148 55.344 177.148 54C177.148 52.656 176.903 51.504 176.412 50.544C175.921 49.5627 175.239 48.8053 174.364 48.272C173.511 47.7387 172.529 47.472 171.42 47.472C169.649 47.472 168.241 48.0587 167.196 49.232C166.172 50.4053 165.66 51.9947 165.66 54Z" fill="#1E140F"/>
<path d="M77.3125 28H142.609V29.6H77.3125V28ZM190.406 28H257.862V29.6H190.406V28ZM114.516 66H181.5V67.6H114.516V66Z" fill="#1E140F"/>
</svg>
