<svg width="345" height="68" viewBox="0 0 345 68" fill="none" xmlns="http://www.w3.org/2000/svg">
<path fill-rule="evenodd" clip-rule="evenodd" d="M22.6156 66.8366L22.0476 63.6362C21.1396 64.5737 20.2003 65.3626 19.2286 65.9994C17.948 66.8666 16.2553 67.2709 14.2053 67.2709C12.3163 67.2709 10.5651 66.9272 8.95884 66.2329L8.95045 66.2293L8.94218 66.2254C7.36661 65.4816 6.09005 64.4049 5.12293 62.9987C4.13824 61.567 3.66016 59.8396 3.66016 57.8463C3.66016 55.1337 4.63075 52.8732 6.57205 51.1091C8.51608 49.3425 11.5258 48.2659 15.5069 47.8051L15.5106 47.8047L21.8434 47.1141V45.8117C21.8434 45.4314 21.6557 44.9849 21.1368 44.4663L21.13 44.4595L21.1235 44.4526C20.6863 43.9843 19.9709 43.6979 18.8597 43.6979C17.8895 43.6979 17.0766 43.9567 16.3954 44.4585C15.7187 44.9568 15.2465 45.6537 14.9866 46.5814L14.8261 47.1544L5.12876 43.6675L5.30289 43.1528C6.29049 40.2342 7.97819 38.0151 10.3738 36.5337C12.7589 35.0175 15.7229 34.2779 19.232 34.2779C23.6623 34.2779 27.1293 35.375 29.5417 37.655C31.9499 39.9309 33.1283 43.0458 33.1283 46.9283V66.8366H22.6156ZM10.6679 37.0028C8.39244 38.4089 6.77891 40.5181 5.82734 43.3303L14.4535 46.432C14.5045 46.2499 14.5632 46.0749 14.6296 45.907C14.9402 45.1211 15.4194 44.4897 16.067 44.0127C16.8531 43.4337 17.784 43.1442 18.8597 43.1442C20.0595 43.1442 20.949 43.4544 21.5282 44.0747C22.1074 44.6537 22.397 45.2327 22.397 45.8117V47.6107L15.5706 48.3551C11.6402 48.81 8.76479 49.8646 6.9444 51.5188C5.12401 53.1731 4.21381 55.2822 4.21381 57.8463C4.21381 59.7487 4.66891 61.3616 5.57911 62.685C6.4893 64.0084 7.68911 65.0216 9.17852 65.7247C10.7093 66.3864 12.3849 66.7172 14.2053 66.7172C16.1912 66.7172 17.7633 66.3243 18.9217 65.5386C19.9543 64.8624 20.9561 64.0024 21.9273 62.9587C22.0847 62.7896 22.2413 62.6156 22.397 62.4369L23.0797 66.283H32.5747V46.9283C32.5747 43.1649 31.4369 40.2079 29.1614 38.0574C26.886 35.9069 23.5762 34.8316 19.232 34.8316C15.7981 34.8316 12.9434 35.5553 10.6679 37.0028ZM66.3049 22.3053H78.2105V52.2012C78.2105 55.4145 77.5762 58.1615 76.2764 60.4152C75.022 62.6619 73.2233 64.3718 70.8933 65.5367C68.6106 66.6987 65.978 67.2709 63.0109 67.2709C59.0717 67.2709 55.726 66.3169 53.008 64.3763L53.004 64.3734L53 64.3704C50.3094 62.375 48.5713 59.4776 47.7618 55.73L47.6425 55.1777L58.6102 53.0402L58.7142 53.5864C58.8667 54.3866 59.1283 55.053 59.4879 55.5981C59.8904 56.1054 60.3566 56.4769 60.8868 56.7242C61.432 56.9786 62.0139 57.1066 62.6386 57.1066C63.3804 57.1066 64.0031 56.9407 64.5259 56.6271L64.5325 56.6231L64.5393 56.6193C65.0896 56.3099 65.5078 55.846 65.7941 55.202L65.7993 55.1906L65.8049 55.1793C66.1306 54.5282 66.3049 53.7278 66.3049 52.7595V22.3053ZM59.0392 55.9233C58.636 55.3187 58.3506 54.5963 58.1832 53.756C58.1788 53.7341 58.1746 53.7121 58.1704 53.69L48.303 55.6131C48.3423 55.7952 48.3839 55.9751 48.4277 56.1529C49.259 59.5275 50.893 62.1185 53.3298 63.9257C55.9362 65.7867 59.1633 66.7172 63.0109 66.7172C65.907 66.7172 68.4514 66.1589 70.6442 65.0423C72.8783 63.9257 74.5953 62.2921 75.7951 60.1416C77.0362 57.9911 77.6568 55.3443 77.6568 52.2012V22.859H66.8586V52.7595C66.8586 53.7934 66.6724 54.6826 66.3001 55.427C65.9691 56.1714 65.4726 56.7297 64.8106 57.1019C64.19 57.4741 63.466 57.6602 62.6386 57.6602C61.9352 57.6602 61.2733 57.5155 60.6527 57.226C60.0321 56.9365 59.4943 56.5022 59.0392 55.9233ZM88.7869 60.9754L88.7828 60.9714C86.7025 58.9343 85.0692 56.5372 83.8832 53.7851L83.882 53.7823C82.6917 50.9777 82.1003 47.9048 82.1003 44.571C82.1003 41.2382 82.6913 38.1857 83.8822 35.4213C85.0682 32.6269 86.7027 30.227 88.787 28.2285C90.9075 26.1937 93.3469 24.6249 96.1014 23.5236C98.8605 22.4203 101.827 21.8711 104.995 21.8711C108.163 21.8711 111.129 22.4202 113.888 23.5231C116.683 24.6242 119.125 26.1934 121.206 28.2309C123.289 30.2288 124.923 32.628 126.108 35.4213C127.299 38.1857 127.89 41.2382 127.89 44.571C127.89 47.9048 127.299 50.9777 126.108 53.7823L126.107 53.7851C124.92 56.5396 123.265 58.938 121.141 60.9753C119.061 62.9698 116.642 64.5176 113.889 65.6184C111.13 66.7216 108.163 67.2709 104.995 67.2709C101.827 67.2709 98.8605 66.7216 96.1014 65.6184C93.3492 64.518 90.9111 62.9714 88.791 60.9793L88.7869 60.9754ZM125.599 35.638C124.44 32.9085 122.847 30.5719 120.82 28.6282C118.793 26.6431 116.414 25.1129 113.683 24.0376C110.994 22.9624 108.098 22.4247 104.995 22.4247C101.892 22.4247 98.9961 22.9624 96.3069 24.0376C93.6177 25.1129 91.2388 26.6431 89.1702 28.6282C87.1429 30.5719 85.5501 32.9085 84.3916 35.638C83.2332 38.3262 82.654 41.3038 82.654 44.571C82.654 47.8381 83.2332 50.8364 84.3916 53.566C85.5501 56.2541 87.1429 58.5907 89.1702 60.5758C91.2388 62.5196 93.6177 64.0291 96.3069 65.1043C98.9961 66.1796 101.892 66.7172 104.995 66.7172C108.098 66.7172 110.994 66.1796 113.683 65.1043C116.373 64.0291 118.731 62.5196 120.758 60.5758C122.827 58.5907 124.44 56.2541 125.599 53.566C126.757 50.8364 127.336 47.8381 127.336 44.571C127.336 41.3038 126.757 38.3262 125.599 35.638ZM114.428 38.1789L114.427 38.1768C113.516 36.3159 112.256 34.8638 110.648 33.8052C109.053 32.7551 107.176 32.2215 104.995 32.2215C102.771 32.2215 100.874 32.7562 99.2799 33.8052C97.6725 34.8634 96.413 36.3147 95.5021 38.1744C94.6346 39.9885 94.1921 42.1159 94.1921 44.571C94.1921 46.9819 94.6336 49.1109 95.503 50.9695C96.4139 52.8283 97.673 54.279 99.2799 55.3367C100.874 56.3858 102.771 56.9205 104.995 56.9205C107.176 56.9205 109.053 56.3869 110.648 55.3367C112.256 54.2782 113.516 52.8261 114.427 50.9652C115.337 49.1077 115.798 46.9804 115.798 44.571C115.798 42.1184 115.336 39.9934 114.429 38.181L114.428 38.1789ZM95.0037 51.2087C94.0935 49.2649 93.6384 47.0524 93.6384 44.571C93.6384 42.0483 94.0935 39.8357 95.0037 37.9333C95.9553 35.9896 97.2792 34.4594 98.9755 33.3428C100.672 32.2262 102.678 31.6679 104.995 31.6679C107.271 31.6679 109.257 32.2262 110.953 33.3428C112.649 34.4594 113.973 35.9896 114.925 37.9333C115.876 39.8357 116.352 42.0483 116.352 44.571C116.352 47.0524 115.876 49.2649 114.925 51.2087C113.973 53.1524 112.649 54.6826 110.953 55.7992C109.257 56.9158 107.271 57.4741 104.995 57.4741C102.678 57.4741 100.672 56.9158 98.9755 55.7992C97.2792 54.6826 95.9553 53.1524 95.0037 51.2087ZM131.71 22.3053H143.615V49.6578C143.615 51.2361 143.93 52.5657 144.537 53.667C145.144 54.7272 145.993 55.5392 147.095 56.1104C148.204 56.6441 149.523 56.9205 151.067 56.9205C152.655 56.9205 154.018 56.6434 155.17 56.107C156.315 55.5337 157.181 54.7204 157.785 53.6634L157.787 53.6607L157.788 53.6581C158.433 52.5585 158.767 51.2324 158.767 49.6578V22.3053H170.673V48.6652C170.673 51.7472 170.145 54.4749 169.072 56.8348L169.07 56.8383C168.003 59.1426 166.527 61.0903 164.642 62.6746L164.641 62.6753C162.804 64.2123 160.693 65.3625 158.311 66.1277C155.937 66.8904 153.46 67.2709 150.881 67.2709C147.414 67.2709 144.23 66.5943 141.336 65.2331L141.333 65.2317L141.33 65.2303C138.425 63.8207 136.092 61.7457 134.341 59.0135L134.339 59.0103C132.574 56.2132 131.71 52.7542 131.71 48.6652V22.3053ZM155.411 56.6056C154.17 57.1846 152.722 57.4741 151.067 57.4741C149.454 57.4741 148.047 57.1846 146.847 56.6056C145.647 55.9853 144.716 55.0961 144.054 53.9382C143.392 52.7388 143.061 51.312 143.061 49.6578V22.859H132.263V48.6652C132.263 52.6768 133.111 56.0266 134.808 58.7148C136.504 61.3616 138.759 63.3674 141.572 64.7321C144.385 66.0555 147.488 66.7172 150.881 66.7172C153.405 66.7172 155.825 66.345 158.142 65.6006C160.459 64.8562 162.507 63.7396 164.286 62.2508C166.106 60.7206 167.533 58.8389 168.568 56.6056C169.602 54.331 170.119 51.6842 170.119 48.6652V22.859H159.321V49.6578C159.321 51.312 158.969 52.7388 158.266 53.9382C157.604 55.0961 156.652 55.9853 155.411 56.6056ZM200.656 39.5265L200.661 39.5169C201.059 38.8298 201.269 37.9987 201.269 37.0028C201.269 35.5508 200.834 34.4663 200.013 33.6809C199.204 32.9079 197.921 32.4696 196.051 32.4696H188.103V41.598H196.051C197.283 41.598 198.251 41.419 198.984 41.091C199.751 40.7244 200.298 40.2059 200.65 39.5364L200.656 39.5265ZM199.216 41.5933C198.389 41.9655 197.334 42.1516 196.051 42.1516H187.549V31.916H196.051C197.996 31.916 199.444 32.3709 200.396 33.2807C201.347 34.1906 201.823 35.4313 201.823 37.0028C201.823 38.0781 201.595 39.0086 201.14 39.7943C200.727 40.5801 200.085 41.1798 199.216 41.5933ZM187.549 51.2087V66.283H176.751V22.859H196.734C200.333 22.859 203.312 23.5207 205.671 24.8441C208.07 26.1261 209.849 27.8424 211.008 29.9929C212.207 32.1435 212.807 34.4801 212.807 37.0028C212.807 38.7398 212.476 40.456 211.814 42.1516C211.194 43.8473 210.222 45.3774 208.898 46.7422C207.692 48.0247 206.158 49.0698 204.296 49.8775C204.176 49.9293 204.055 49.9801 203.933 50.03C203.881 50.0501 203.829 50.07 203.777 50.0896L213.614 66.283H201.699L193.039 51.2087H187.549ZM192.718 51.7623H188.103V66.8366H176.197V22.3053H196.734C200.396 22.3053 203.473 22.9776 205.937 24.3585C208.417 25.6848 210.278 27.4728 211.493 29.7268C212.739 31.9609 213.361 34.3894 213.361 37.0028C213.361 38.8099 213.017 40.5923 212.332 42.3471C211.684 44.1163 210.67 45.7096 209.298 47.1251C208.049 48.4524 206.474 49.5267 204.586 50.355L214.598 66.8366H201.378L192.718 51.7623ZM257.159 22.3053V66.8366H245.436L230.102 41.9354V66.8366H218.196V22.3053H229.921L245.254 47.3809V22.3053H257.159ZM245.808 49.3476L229.61 22.859H218.75V66.283H229.548V39.9804L245.745 66.283H256.606V22.859H245.808V49.3476ZM296.55 32.4696H274.767V39.4888H291.027V49.0328H274.767V56.6723H296.55V66.8366H262.862V22.3053H296.55V32.4696ZM274.213 57.226V48.4791H290.473V40.0425H274.213V31.916H295.996V22.859H263.415V66.283H295.996V57.226H274.213ZM330.368 22.3053H343.999L327.159 52.1605V66.8366H315.254V52.1609L298.35 22.3053H311.982L321.205 39.6069L330.368 22.3053ZM321.207 40.7869L311.65 22.859H299.3L315.807 52.0151V66.283H326.606V52.0151L343.051 22.859H330.702L321.207 40.7869ZM17.624 54.4257C16.7518 54.54 16.1586 54.8156 15.7758 55.1982C15.3834 55.5905 15.1933 56.0492 15.1933 56.6056C15.1933 57.1268 15.3954 57.5469 15.8432 57.9014C16.3375 58.2606 17.0543 58.4713 18.0529 58.4713C18.8395 58.4713 19.48 58.3039 19.998 57.9944C20.5657 57.6386 21.0142 57.14 21.3433 56.482C21.6663 55.8363 21.8433 54.9973 21.8434 53.939L17.624 54.4257ZM17.5565 53.8761C16.6049 54.0002 15.8809 54.3104 15.3844 54.8066C14.8879 55.3029 14.6397 55.9026 14.6397 56.6056C14.6397 57.3087 14.9293 57.8877 15.5085 58.3426C16.1291 58.7975 16.9772 59.025 18.0529 59.025C18.9217 59.025 19.6665 58.8389 20.287 58.4667C20.949 58.0531 21.4662 57.4741 21.8385 56.7297C22.2109 55.9853 22.397 55.0548 22.397 53.9382V53.3178L17.5565 53.8761Z" fill="#1E140F"/>
<mask id="path-2-outside-1_5071_11543" maskUnits="userSpaceOnUse" x="0" y="18.7617" width="345" height="49" fill="black">
<rect fill="white" y="18.7617" width="345" height="49"/>
<path d="M20.8659 64.6199L20.1832 60.7738C19.0662 62.0559 17.9077 63.0898 16.7079 63.8755C15.5495 64.6613 13.9773 65.0542 11.9915 65.0542C10.1711 65.0542 8.49549 64.7233 6.9647 64.0616C5.47529 63.3586 4.27549 62.3454 3.36529 61.022C2.4551 59.6986 2 58.0857 2 56.1833C2 53.6192 2.9102 51.51 4.73059 49.8558C6.55098 48.2015 9.42637 47.147 13.3568 46.692L20.1832 45.9476V44.1486C20.1832 43.5697 19.8936 42.9907 19.3144 42.4117C18.7352 41.7913 17.8457 41.4812 16.6459 41.4812C15.5702 41.4812 14.6393 41.7707 13.8532 42.3496C13.0672 42.9286 12.5293 43.7351 12.2397 44.769L3.61353 41.6673C4.5651 38.855 6.17863 36.7459 8.45411 35.3398C10.7296 33.8923 13.5843 33.1686 17.0182 33.1686C21.3623 33.1686 24.6721 34.2438 26.9476 36.3944C29.2231 38.5449 30.3609 41.5018 30.3609 45.2653V64.6199H20.8659ZM20.1832 51.6548L15.3426 52.2131C14.3911 52.3372 13.6671 52.6473 13.1706 53.1436C12.6741 53.6399 12.4259 54.2396 12.4259 54.9426C12.4259 55.6457 12.7155 56.2246 13.2947 56.6796C13.9153 57.1345 14.7634 57.3619 15.8391 57.3619C16.7079 57.3619 17.4526 57.1758 18.0732 56.8036C18.7352 56.3901 19.2523 55.8111 19.6247 55.0667C19.997 54.3223 20.1832 53.3917 20.1832 52.2751V51.6548Z"/>
<path d="M64.6448 21.196H75.443V50.5382C75.443 53.6812 74.8224 56.328 73.5812 58.4786C72.3814 60.6291 70.6645 62.2627 68.4304 63.3793C66.2376 64.4959 63.6932 65.0542 60.7971 65.0542C56.9495 65.0542 53.7224 64.1237 51.116 62.2626C48.5509 60.3603 46.8753 57.5894 46.0892 53.9501L55.9565 52.027C56.122 52.8955 56.4116 53.6399 56.8254 54.2602C57.2805 54.8392 57.8183 55.2735 58.4389 55.563C59.0595 55.8524 59.7214 55.9972 60.4248 55.9972C61.2522 55.9972 61.9762 55.8111 62.5968 55.4389C63.2588 55.0667 63.7553 54.5084 64.0862 53.764C64.4586 53.0195 64.6448 52.1304 64.6448 51.0965V21.196Z"/>
<path d="M102.781 65.0542C99.6784 65.0542 96.7823 64.5166 94.0931 63.4413C91.4039 62.366 89.025 60.8565 86.9564 58.9128C84.9291 56.9277 83.3363 54.5911 82.1778 51.9029C81.0194 49.1734 80.4402 46.1751 80.4402 42.908C80.4402 39.6408 81.0194 36.6632 82.1778 33.975C83.3363 31.2455 84.9291 28.9089 86.9564 26.9651C89.025 24.98 91.4039 23.4499 94.0931 22.3746C96.7823 21.2993 99.6784 20.7617 102.781 20.7617C105.884 20.7617 108.78 21.2993 111.47 22.3746C114.2 23.4499 116.579 24.98 118.606 26.9651C120.634 28.9089 122.226 31.2455 123.385 33.975C124.543 36.6632 125.123 39.6408 125.123 42.908C125.123 46.1751 124.543 49.1734 123.385 51.9029C122.226 54.5911 120.613 56.9277 118.544 58.9128C116.517 60.8565 114.159 62.366 111.47 63.4413C108.78 64.5166 105.884 65.0542 102.781 65.0542ZM102.781 55.8111C105.057 55.8111 107.043 55.2528 108.739 54.1362C110.435 53.0195 111.759 51.4894 112.711 49.5456C113.662 47.6019 114.138 45.3893 114.138 42.908C114.138 40.3852 113.662 38.1727 112.711 36.2703C111.759 34.3265 110.435 32.7964 108.739 31.6798C107.043 30.5631 105.057 30.0048 102.781 30.0048C100.464 30.0048 98.4579 30.5631 96.7617 31.6798C95.0654 32.7964 93.7415 34.3265 92.7899 36.2703C91.8797 38.1727 91.4246 40.3852 91.4246 42.908C91.4246 45.3893 91.8797 47.6019 92.7899 49.5456C93.7415 51.4894 95.0654 53.0195 96.7617 54.1362C98.4579 55.2528 100.464 55.8111 102.781 55.8111Z"/>
<path d="M130.049 21.196H140.848V47.9948C140.848 49.649 141.179 51.0758 141.841 52.2751C142.503 53.4331 143.433 54.3223 144.633 54.9426C145.833 55.5216 147.24 55.8111 148.853 55.8111C150.508 55.8111 151.956 55.5216 153.197 54.9426C154.439 54.3223 155.39 53.4331 156.052 52.2751C156.755 51.0758 157.107 49.649 157.107 47.9948V21.196H167.905V47.0022C167.905 50.0212 167.388 52.668 166.354 54.9426C165.319 57.1758 163.892 59.0575 162.072 60.5877C160.293 62.0765 158.245 63.1932 155.928 63.9376C153.611 64.682 151.191 65.0542 148.667 65.0542C145.275 65.0542 142.172 64.3925 139.358 63.0691C136.545 61.7043 134.29 59.6986 132.594 57.0518C130.898 54.3636 130.049 51.0138 130.049 47.0022V21.196Z"/>
<path d="M199.609 35.3398C199.609 33.7682 199.133 32.5276 198.182 31.6177C197.23 30.7079 195.782 30.253 193.838 30.253H185.336V40.4886H193.838C195.12 40.4886 196.175 40.3025 197.003 39.9303C197.871 39.5167 198.513 38.9171 198.926 38.1313C199.382 37.3455 199.609 36.415 199.609 35.3398ZM194.52 21.196C198.12 21.196 201.098 21.8577 203.457 23.1811C205.856 24.4631 207.635 26.1794 208.794 28.3299C209.994 30.4804 210.593 32.817 210.593 35.3398C210.593 37.0767 210.262 38.793 209.601 40.4886C208.98 42.1842 208.008 43.7144 206.684 45.0792C205.401 46.4439 203.746 47.5398 201.719 48.367C199.692 49.1527 197.292 49.5456 194.52 49.5456H185.336V64.6199H174.537V21.196H194.52ZM199.981 45.8236L211.4 64.6199H199.485L188.687 45.8236H199.981Z"/>
<path d="M254.392 21.196V64.6199H243.532L227.334 38.3174V64.6199H216.536V21.196H227.396L243.594 47.6846V21.196H254.392Z"/>
<path d="M293.782 30.253H272V38.3795H288.259V46.8161H272V55.563H293.782V64.6199H261.201V21.196H293.782V30.253Z"/>
<path d="M328.488 21.196H340.837L324.392 50.3521V64.6199H313.594V50.3521L297.086 21.196H309.436L318.993 39.1239L328.488 21.196Z"/>
</mask>
<path d="M20.8659 64.6199L20.1832 60.7738C19.0662 62.0559 17.9077 63.0898 16.7079 63.8755C15.5495 64.6613 13.9773 65.0542 11.9915 65.0542C10.1711 65.0542 8.49549 64.7233 6.9647 64.0616C5.47529 63.3586 4.27549 62.3454 3.36529 61.022C2.4551 59.6986 2 58.0857 2 56.1833C2 53.6192 2.9102 51.51 4.73059 49.8558C6.55098 48.2015 9.42637 47.147 13.3568 46.692L20.1832 45.9476V44.1486C20.1832 43.5697 19.8936 42.9907 19.3144 42.4117C18.7352 41.7913 17.8457 41.4812 16.6459 41.4812C15.5702 41.4812 14.6393 41.7707 13.8532 42.3496C13.0672 42.9286 12.5293 43.7351 12.2397 44.769L3.61353 41.6673C4.5651 38.855 6.17863 36.7459 8.45411 35.3398C10.7296 33.8923 13.5843 33.1686 17.0182 33.1686C21.3623 33.1686 24.6721 34.2438 26.9476 36.3944C29.2231 38.5449 30.3609 41.5018 30.3609 45.2653V64.6199H20.8659ZM20.1832 51.6548L15.3426 52.2131C14.3911 52.3372 13.6671 52.6473 13.1706 53.1436C12.6741 53.6399 12.4259 54.2396 12.4259 54.9426C12.4259 55.6457 12.7155 56.2246 13.2947 56.6796C13.9153 57.1345 14.7634 57.3619 15.8391 57.3619C16.7079 57.3619 17.4526 57.1758 18.0732 56.8036C18.7352 56.3901 19.2523 55.8111 19.6247 55.0667C19.997 54.3223 20.1832 53.3917 20.1832 52.2751V51.6548Z" fill="black"/>
<path d="M64.6448 21.196H75.443V50.5382C75.443 53.6812 74.8224 56.328 73.5812 58.4786C72.3814 60.6291 70.6645 62.2627 68.4304 63.3793C66.2376 64.4959 63.6932 65.0542 60.7971 65.0542C56.9495 65.0542 53.7224 64.1237 51.116 62.2626C48.5509 60.3603 46.8753 57.5894 46.0892 53.9501L55.9565 52.027C56.122 52.8955 56.4116 53.6399 56.8254 54.2602C57.2805 54.8392 57.8183 55.2735 58.4389 55.563C59.0595 55.8524 59.7214 55.9972 60.4248 55.9972C61.2522 55.9972 61.9762 55.8111 62.5968 55.4389C63.2588 55.0667 63.7553 54.5084 64.0862 53.764C64.4586 53.0195 64.6448 52.1304 64.6448 51.0965V21.196Z" fill="black"/>
<path d="M102.781 65.0542C99.6784 65.0542 96.7823 64.5166 94.0931 63.4413C91.4039 62.366 89.025 60.8565 86.9564 58.9128C84.9291 56.9277 83.3363 54.5911 82.1778 51.9029C81.0194 49.1734 80.4402 46.1751 80.4402 42.908C80.4402 39.6408 81.0194 36.6632 82.1778 33.975C83.3363 31.2455 84.9291 28.9089 86.9564 26.9651C89.025 24.98 91.4039 23.4499 94.0931 22.3746C96.7823 21.2993 99.6784 20.7617 102.781 20.7617C105.884 20.7617 108.78 21.2993 111.47 22.3746C114.2 23.4499 116.579 24.98 118.606 26.9651C120.634 28.9089 122.226 31.2455 123.385 33.975C124.543 36.6632 125.123 39.6408 125.123 42.908C125.123 46.1751 124.543 49.1734 123.385 51.9029C122.226 54.5911 120.613 56.9277 118.544 58.9128C116.517 60.8565 114.159 62.366 111.47 63.4413C108.78 64.5166 105.884 65.0542 102.781 65.0542ZM102.781 55.8111C105.057 55.8111 107.043 55.2528 108.739 54.1362C110.435 53.0195 111.759 51.4894 112.711 49.5456C113.662 47.6019 114.138 45.3893 114.138 42.908C114.138 40.3852 113.662 38.1727 112.711 36.2703C111.759 34.3265 110.435 32.7964 108.739 31.6798C107.043 30.5631 105.057 30.0048 102.781 30.0048C100.464 30.0048 98.4579 30.5631 96.7617 31.6798C95.0654 32.7964 93.7415 34.3265 92.7899 36.2703C91.8797 38.1727 91.4246 40.3852 91.4246 42.908C91.4246 45.3893 91.8797 47.6019 92.7899 49.5456C93.7415 51.4894 95.0654 53.0195 96.7617 54.1362C98.4579 55.2528 100.464 55.8111 102.781 55.8111Z" fill="black"/>
<path d="M130.049 21.196H140.848V47.9948C140.848 49.649 141.179 51.0758 141.841 52.2751C142.503 53.4331 143.433 54.3223 144.633 54.9426C145.833 55.5216 147.24 55.8111 148.853 55.8111C150.508 55.8111 151.956 55.5216 153.197 54.9426C154.439 54.3223 155.39 53.4331 156.052 52.2751C156.755 51.0758 157.107 49.649 157.107 47.9948V21.196H167.905V47.0022C167.905 50.0212 167.388 52.668 166.354 54.9426C165.319 57.1758 163.892 59.0575 162.072 60.5877C160.293 62.0765 158.245 63.1932 155.928 63.9376C153.611 64.682 151.191 65.0542 148.667 65.0542C145.275 65.0542 142.172 64.3925 139.358 63.0691C136.545 61.7043 134.29 59.6986 132.594 57.0518C130.898 54.3636 130.049 51.0138 130.049 47.0022V21.196Z" fill="black"/>
<path d="M199.609 35.3398C199.609 33.7682 199.133 32.5276 198.182 31.6177C197.23 30.7079 195.782 30.253 193.838 30.253H185.336V40.4886H193.838C195.12 40.4886 196.175 40.3025 197.003 39.9303C197.871 39.5167 198.513 38.9171 198.926 38.1313C199.382 37.3455 199.609 36.415 199.609 35.3398ZM194.52 21.196C198.12 21.196 201.098 21.8577 203.457 23.1811C205.856 24.4631 207.635 26.1794 208.794 28.3299C209.994 30.4804 210.593 32.817 210.593 35.3398C210.593 37.0767 210.262 38.793 209.601 40.4886C208.98 42.1842 208.008 43.7144 206.684 45.0792C205.401 46.4439 203.746 47.5398 201.719 48.367C199.692 49.1527 197.292 49.5456 194.52 49.5456H185.336V64.6199H174.537V21.196H194.52ZM199.981 45.8236L211.4 64.6199H199.485L188.687 45.8236H199.981Z" fill="black"/>
<path d="M254.392 21.196V64.6199H243.532L227.334 38.3174V64.6199H216.536V21.196H227.396L243.594 47.6846V21.196H254.392Z" fill="black"/>
<path d="M293.782 30.253H272V38.3795H288.259V46.8161H272V55.563H293.782V64.6199H261.201V21.196H293.782V30.253Z" fill="black"/>
<path d="M328.488 21.196H340.837L324.392 50.3521V64.6199H313.594V50.3521L297.086 21.196H309.436L318.993 39.1239L328.488 21.196Z" fill="black"/>
<path d="M20.8659 64.6199L20.1832 60.7738C19.0662 62.0559 17.9077 63.0898 16.7079 63.8755C15.5495 64.6613 13.9773 65.0542 11.9915 65.0542C10.1711 65.0542 8.49549 64.7233 6.9647 64.0616C5.47529 63.3586 4.27549 62.3454 3.36529 61.022C2.4551 59.6986 2 58.0857 2 56.1833C2 53.6192 2.9102 51.51 4.73059 49.8558C6.55098 48.2015 9.42637 47.147 13.3568 46.692L20.1832 45.9476V44.1486C20.1832 43.5697 19.8936 42.9907 19.3144 42.4117C18.7352 41.7913 17.8457 41.4812 16.6459 41.4812C15.5702 41.4812 14.6393 41.7707 13.8532 42.3496C13.0672 42.9286 12.5293 43.7351 12.2397 44.769L3.61353 41.6673C4.5651 38.855 6.17863 36.7459 8.45411 35.3398C10.7296 33.8923 13.5843 33.1686 17.0182 33.1686C21.3623 33.1686 24.6721 34.2438 26.9476 36.3944C29.2231 38.5449 30.3609 41.5018 30.3609 45.2653V64.6199H20.8659ZM20.1832 51.6548L15.3426 52.2131C14.3911 52.3372 13.6671 52.6473 13.1706 53.1436C12.6741 53.6399 12.4259 54.2396 12.4259 54.9426C12.4259 55.6457 12.7155 56.2246 13.2947 56.6796C13.9153 57.1345 14.7634 57.3619 15.8391 57.3619C16.7079 57.3619 17.4526 57.1758 18.0732 56.8036C18.7352 56.3901 19.2523 55.8111 19.6247 55.0667C19.997 54.3223 20.1832 53.3917 20.1832 52.2751V51.6548Z" stroke="white" stroke-width="4" mask="url(#path-2-outside-1_5071_11543)"/>
<path d="M64.6448 21.196H75.443V50.5382C75.443 53.6812 74.8224 56.328 73.5812 58.4786C72.3814 60.6291 70.6645 62.2627 68.4304 63.3793C66.2376 64.4959 63.6932 65.0542 60.7971 65.0542C56.9495 65.0542 53.7224 64.1237 51.116 62.2626C48.5509 60.3603 46.8753 57.5894 46.0892 53.9501L55.9565 52.027C56.122 52.8955 56.4116 53.6399 56.8254 54.2602C57.2805 54.8392 57.8183 55.2735 58.4389 55.563C59.0595 55.8524 59.7214 55.9972 60.4248 55.9972C61.2522 55.9972 61.9762 55.8111 62.5968 55.4389C63.2588 55.0667 63.7553 54.5084 64.0862 53.764C64.4586 53.0195 64.6448 52.1304 64.6448 51.0965V21.196Z" stroke="white" stroke-width="4" mask="url(#path-2-outside-1_5071_11543)"/>
<path d="M102.781 65.0542C99.6784 65.0542 96.7823 64.5166 94.0931 63.4413C91.4039 62.366 89.025 60.8565 86.9564 58.9128C84.9291 56.9277 83.3363 54.5911 82.1778 51.9029C81.0194 49.1734 80.4402 46.1751 80.4402 42.908C80.4402 39.6408 81.0194 36.6632 82.1778 33.975C83.3363 31.2455 84.9291 28.9089 86.9564 26.9651C89.025 24.98 91.4039 23.4499 94.0931 22.3746C96.7823 21.2993 99.6784 20.7617 102.781 20.7617C105.884 20.7617 108.78 21.2993 111.47 22.3746C114.2 23.4499 116.579 24.98 118.606 26.9651C120.634 28.9089 122.226 31.2455 123.385 33.975C124.543 36.6632 125.123 39.6408 125.123 42.908C125.123 46.1751 124.543 49.1734 123.385 51.9029C122.226 54.5911 120.613 56.9277 118.544 58.9128C116.517 60.8565 114.159 62.366 111.47 63.4413C108.78 64.5166 105.884 65.0542 102.781 65.0542ZM102.781 55.8111C105.057 55.8111 107.043 55.2528 108.739 54.1362C110.435 53.0195 111.759 51.4894 112.711 49.5456C113.662 47.6019 114.138 45.3893 114.138 42.908C114.138 40.3852 113.662 38.1727 112.711 36.2703C111.759 34.3265 110.435 32.7964 108.739 31.6798C107.043 30.5631 105.057 30.0048 102.781 30.0048C100.464 30.0048 98.4579 30.5631 96.7617 31.6798C95.0654 32.7964 93.7415 34.3265 92.7899 36.2703C91.8797 38.1727 91.4246 40.3852 91.4246 42.908C91.4246 45.3893 91.8797 47.6019 92.7899 49.5456C93.7415 51.4894 95.0654 53.0195 96.7617 54.1362C98.4579 55.2528 100.464 55.8111 102.781 55.8111Z" stroke="white" stroke-width="4" mask="url(#path-2-outside-1_5071_11543)"/>
<path d="M130.049 21.196H140.848V47.9948C140.848 49.649 141.179 51.0758 141.841 52.2751C142.503 53.4331 143.433 54.3223 144.633 54.9426C145.833 55.5216 147.24 55.8111 148.853 55.8111C150.508 55.8111 151.956 55.5216 153.197 54.9426C154.439 54.3223 155.39 53.4331 156.052 52.2751C156.755 51.0758 157.107 49.649 157.107 47.9948V21.196H167.905V47.0022C167.905 50.0212 167.388 52.668 166.354 54.9426C165.319 57.1758 163.892 59.0575 162.072 60.5877C160.293 62.0765 158.245 63.1932 155.928 63.9376C153.611 64.682 151.191 65.0542 148.667 65.0542C145.275 65.0542 142.172 64.3925 139.358 63.0691C136.545 61.7043 134.29 59.6986 132.594 57.0518C130.898 54.3636 130.049 51.0138 130.049 47.0022V21.196Z" stroke="white" stroke-width="4" mask="url(#path-2-outside-1_5071_11543)"/>
<path d="M199.609 35.3398C199.609 33.7682 199.133 32.5276 198.182 31.6177C197.23 30.7079 195.782 30.253 193.838 30.253H185.336V40.4886H193.838C195.12 40.4886 196.175 40.3025 197.003 39.9303C197.871 39.5167 198.513 38.9171 198.926 38.1313C199.382 37.3455 199.609 36.415 199.609 35.3398ZM194.52 21.196C198.12 21.196 201.098 21.8577 203.457 23.1811C205.856 24.4631 207.635 26.1794 208.794 28.3299C209.994 30.4804 210.593 32.817 210.593 35.3398C210.593 37.0767 210.262 38.793 209.601 40.4886C208.98 42.1842 208.008 43.7144 206.684 45.0792C205.401 46.4439 203.746 47.5398 201.719 48.367C199.692 49.1527 197.292 49.5456 194.52 49.5456H185.336V64.6199H174.537V21.196H194.52ZM199.981 45.8236L211.4 64.6199H199.485L188.687 45.8236H199.981Z" stroke="white" stroke-width="4" mask="url(#path-2-outside-1_5071_11543)"/>
<path d="M254.392 21.196V64.6199H243.532L227.334 38.3174V64.6199H216.536V21.196H227.396L243.594 47.6846V21.196H254.392Z" stroke="white" stroke-width="4" mask="url(#path-2-outside-1_5071_11543)"/>
<path d="M293.782 30.253H272V38.3795H288.259V46.8161H272V55.563H293.782V64.6199H261.201V21.196H293.782V30.253Z" stroke="white" stroke-width="4" mask="url(#path-2-outside-1_5071_11543)"/>
<path d="M328.488 21.196H340.837L324.392 50.3521V64.6199H313.594V50.3521L297.086 21.196H309.436L318.993 39.1239L328.488 21.196Z" stroke="white" stroke-width="4" mask="url(#path-2-outside-1_5071_11543)"/>
<path d="M70.3667 0.928438C70.8853 1.69113 70.83 2.56344 70.2416 2.87552C69.6539 3.188 68.7575 2.82241 68.2379 2.05922C67.7191 1.29597 67.7746 0.42433 68.3622 0.11169C68.9505 -0.200895 69.8466 0.165191 70.3667 0.928438Z" fill="#EC691F"/>
<path d="M75.9023 5.85492C76.734 2.99111 77.2003 0.172216 71.4831 1.07309C74.5998 0.0201917 78.585 0.453447 78.0844 4.26131C77.5234 9.37045 69.1062 15.3162 64.1696 13.9082C60.9143 13.4172 59.581 8.00854 66.5692 3.36456C63.2208 6.43903 61.8051 12.1582 66.4698 13.227C69.4355 12.7017 72.2361 6.04332 65.5763 1.8205C68.2945 3.2632 72.7035 4.10951 74.5596 3.4141C74.2087 4.35822 72.2987 5.01251 71.2841 4.75912C72.9532 8.36715 70.9157 12.3629 67.7102 13.1774C70.3382 13.1125 74.0415 10.5508 75.9023 5.85492Z" fill="#EC691F"/>
</svg>
