<svg width="839" height="66" viewBox="0 0 839 66" fill="none" xmlns="http://www.w3.org/2000/svg">
<path d="M5.992 12.536C5.992 9.992 6.4 7.832 7.216 6.056C8.032 4.232 9.352 2.912 11.176 2.096C13.048 1.232 15.52 0.919998 18.592 1.16V4.904C15.376 4.664 13.144 5.216 11.896 6.56C10.696 7.856 10.096 9.848 10.096 12.536V17H18.808V20.888H10.096V53H5.992V20.888H0.52V17H5.992V12.536ZM27.1741 17H30.9901L31.2061 23.408C32.0221 21.92 33.1261 20.624 34.5181 19.52C35.9101 18.416 37.4941 17.624 39.2701 17.144C41.0461 16.664 42.9901 16.616 45.1021 17V21.104C43.0381 20.672 41.1661 20.696 39.4861 21.176C37.8061 21.608 36.3421 22.4 35.0941 23.552C33.8941 24.704 32.9581 26.144 32.2861 27.872C31.6141 29.6 31.2781 31.568 31.2781 33.776V53H27.1741V17ZM67.3287 53.504C63.9687 53.504 60.9447 52.76 58.2567 51.272C55.6167 49.784 53.5287 47.672 51.9927 44.936C50.5047 42.152 49.7607 38.864 49.7607 35.072C49.7607 31.232 50.5287 27.92 52.0647 25.136C53.6007 22.352 55.6887 20.216 58.3287 18.728C61.0167 17.24 64.0647 16.496 67.4727 16.496C70.8327 16.496 73.8327 17.24 76.4727 18.728C79.1607 20.216 81.2727 22.352 82.8087 25.136C84.3447 27.872 85.1127 31.136 85.1127 34.928C85.1127 38.768 84.3207 42.08 82.7367 44.864C81.2007 47.648 79.0887 49.784 76.4007 51.272C73.7607 52.76 70.7367 53.504 67.3287 53.504ZM67.3287 49.616C69.6327 49.616 71.7927 49.112 73.8087 48.104C75.8727 47.048 77.5287 45.44 78.7767 43.28C80.0727 41.12 80.7207 38.36 80.7207 35C80.7207 31.64 80.0727 28.88 78.7767 26.72C77.5287 24.56 75.8967 22.976 73.8807 21.968C71.8647 20.912 69.7047 20.384 67.4007 20.384C65.0967 20.384 62.9367 20.912 60.9207 21.968C58.9047 22.976 57.2727 24.56 56.0247 26.72C54.7767 28.88 54.1527 31.64 54.1527 35C54.1527 38.36 54.7767 41.12 56.0247 43.28C57.2727 45.44 58.8807 47.048 60.8487 48.104C62.8647 49.112 65.0247 49.616 67.3287 49.616ZM94.3225 17H98.1385L98.4265 23.552C99.3385 21.44 100.731 19.736 102.603 18.44C104.475 17.144 106.875 16.496 109.803 16.496C112.491 16.496 114.915 17.192 117.075 18.584C119.235 19.976 120.843 22.088 121.899 24.92C122.907 22.04 124.563 19.928 126.867 18.584C129.171 17.192 131.763 16.496 134.643 16.496C137.283 16.496 139.635 17.096 141.699 18.296C143.763 19.448 145.371 21.2 146.523 23.552C147.675 25.904 148.251 28.856 148.251 32.408V53H144.147V32.84C144.147 28.76 143.259 25.664 141.483 23.552C139.707 21.392 137.211 20.312 133.995 20.312C130.683 20.312 128.043 21.488 126.075 23.84C124.155 26.192 123.195 29.648 123.195 34.208V53H119.019V32.84C119.019 28.76 118.155 25.664 116.427 23.552C114.747 21.392 112.299 20.312 109.083 20.312C105.771 20.312 103.155 21.488 101.235 23.84C99.3625 26.192 98.4265 29.648 98.4265 34.208V53H94.3225V17ZM181.562 12.536C181.562 9.992 181.97 7.832 182.786 6.056C183.602 4.232 184.922 2.912 186.746 2.096C188.618 1.232 191.09 0.919998 194.162 1.16V4.904C190.946 4.664 188.714 5.216 187.466 6.56C186.266 7.856 185.666 9.848 185.666 12.536V17H194.378V20.888H185.666V53H181.562V20.888H176.09V17H181.562V12.536ZM216.801 53.504C213.441 53.504 210.465 52.712 207.873 51.128C205.329 49.496 203.337 47.264 201.897 44.432C200.457 41.6 199.737 38.336 199.737 34.64C199.737 31.136 200.457 28.016 201.897 25.28C203.385 22.544 205.401 20.408 207.945 18.872C210.489 17.288 213.393 16.496 216.657 16.496C219.873 16.496 222.729 17.216 225.225 18.656C227.769 20.048 229.737 21.992 231.129 24.488C232.569 26.936 233.265 29.744 233.217 32.912C233.217 33.392 233.193 33.92 233.145 34.496C233.145 35.024 233.121 35.6 233.073 36.224H204.201C204.249 38.864 204.825 41.192 205.929 43.208C207.033 45.224 208.497 46.808 210.321 47.96C212.193 49.064 214.305 49.616 216.657 49.616C219.633 49.616 222.177 49.016 224.289 47.816C226.449 46.568 228.009 44.816 228.969 42.56L232.497 44C231.153 47.072 229.113 49.424 226.377 51.056C223.641 52.688 220.449 53.504 216.801 53.504ZM228.753 32.624C228.801 30.224 228.321 28.112 227.313 26.288C226.305 24.464 224.865 23.024 222.993 21.968C221.169 20.912 219.009 20.384 216.513 20.384C214.305 20.384 212.313 20.912 210.537 21.968C208.761 23.024 207.297 24.488 206.145 26.36C205.041 28.184 204.393 30.272 204.201 32.624H228.753ZM257.161 53.504C253.801 53.504 250.825 52.712 248.233 51.128C245.689 49.496 243.697 47.264 242.257 44.432C240.817 41.6 240.097 38.336 240.097 34.64C240.097 31.136 240.817 28.016 242.257 25.28C243.745 22.544 245.761 20.408 248.305 18.872C250.849 17.288 253.753 16.496 257.017 16.496C260.233 16.496 263.089 17.216 265.585 18.656C268.129 20.048 270.097 21.992 271.489 24.488C272.929 26.936 273.625 29.744 273.577 32.912C273.577 33.392 273.553 33.92 273.505 34.496C273.505 35.024 273.481 35.6 273.433 36.224H244.561C244.609 38.864 245.185 41.192 246.289 43.208C247.393 45.224 248.857 46.808 250.681 47.96C252.553 49.064 254.665 49.616 257.017 49.616C259.993 49.616 262.537 49.016 264.649 47.816C266.809 46.568 268.369 44.816 269.329 42.56L272.857 44C271.513 47.072 269.473 49.424 266.737 51.056C264.001 52.688 260.809 53.504 257.161 53.504ZM269.113 32.624C269.161 30.224 268.681 28.112 267.673 26.288C266.665 24.464 265.225 23.024 263.353 21.968C261.529 20.912 259.369 20.384 256.873 20.384C254.665 20.384 252.673 20.912 250.897 21.968C249.121 23.024 247.657 24.488 246.505 26.36C245.401 28.184 244.753 30.272 244.561 32.624H269.113ZM311.056 25.352L310.696 25.496V1.16H314.8V53H310.984L310.696 45.08C309.688 47.432 308.008 49.424 305.656 51.056C303.352 52.688 300.472 53.504 297.016 53.504C293.704 53.504 290.8 52.76 288.304 51.272C285.808 49.736 283.864 47.576 282.472 44.792C281.128 42.008 280.456 38.744 280.456 35C280.456 31.256 281.128 28.016 282.472 25.28C283.864 22.496 285.808 20.336 288.304 18.8C290.8 17.264 293.704 16.496 297.016 16.496C300.664 16.496 303.664 17.36 306.016 19.088C308.368 20.768 310.048 22.856 311.056 25.352ZM284.848 35C284.848 39.512 286 43.088 288.304 45.728C290.656 48.368 293.824 49.688 297.808 49.688C300.304 49.688 302.512 49.088 304.432 47.888C306.4 46.688 307.936 45.008 309.04 42.848C310.144 40.64 310.696 38.024 310.696 35C310.696 31.976 310.144 29.384 309.04 27.224C307.936 25.016 306.4 23.312 304.432 22.112C302.512 20.912 300.304 20.312 297.808 20.312C293.824 20.312 290.656 21.632 288.304 24.272C286 26.912 284.848 30.488 284.848 35ZM348.769 17V6.92H352.873V17H362.953V20.816H352.873V42.056C352.873 44.168 353.353 45.8 354.313 46.952C355.321 48.104 356.593 48.848 358.129 49.184C359.665 49.472 361.273 49.472 362.953 49.184V52.712C361.225 53.144 359.497 53.264 357.769 53.072C356.089 52.88 354.553 52.352 353.161 51.488C351.817 50.576 350.737 49.352 349.921 47.816C349.153 46.28 348.769 44.36 348.769 42.056V20.816H343.153V17H348.769ZM386.618 53.504C383.258 53.504 380.234 52.76 377.546 51.272C374.906 49.784 372.818 47.672 371.282 44.936C369.794 42.152 369.05 38.864 369.05 35.072C369.05 31.232 369.818 27.92 371.354 25.136C372.89 22.352 374.978 20.216 377.618 18.728C380.306 17.24 383.354 16.496 386.762 16.496C390.122 16.496 393.122 17.24 395.762 18.728C398.45 20.216 400.562 22.352 402.098 25.136C403.634 27.872 404.402 31.136 404.402 34.928C404.402 38.768 403.61 42.08 402.026 44.864C400.49 47.648 398.378 49.784 395.69 51.272C393.05 52.76 390.026 53.504 386.618 53.504ZM386.618 49.616C388.922 49.616 391.082 49.112 393.098 48.104C395.162 47.048 396.818 45.44 398.066 43.28C399.362 41.12 400.01 38.36 400.01 35C400.01 31.64 399.362 28.88 398.066 26.72C396.818 24.56 395.186 22.976 393.17 21.968C391.154 20.912 388.994 20.384 386.69 20.384C384.386 20.384 382.226 20.912 380.21 21.968C378.194 22.976 376.562 24.56 375.314 26.72C374.066 28.88 373.442 31.64 373.442 35C373.442 38.36 374.066 41.12 375.314 43.28C376.562 45.44 378.17 47.048 380.138 48.104C382.154 49.112 384.314 49.616 386.618 49.616ZM436.023 12.536C436.023 9.992 436.431 7.832 437.247 6.056C438.063 4.232 439.383 2.912 441.207 2.096C443.079 1.232 445.551 0.919998 448.623 1.16V4.904C445.407 4.664 443.175 5.216 441.927 6.56C440.727 7.856 440.127 9.848 440.127 12.536V17H448.839V20.888H440.127V53H436.023V20.888H430.551V17H436.023V12.536ZM480.389 53L480.101 45.368C479.093 47.96 477.509 49.976 475.349 51.416C473.237 52.808 470.549 53.504 467.285 53.504C464.693 53.504 462.485 53.12 460.661 52.352C458.837 51.536 457.421 50.384 456.413 48.896C455.453 47.408 454.973 45.632 454.973 43.568C454.973 40.544 456.101 38.096 458.357 36.224C460.613 34.304 463.973 33.128 468.437 32.696L480.101 31.4V28.376C480.101 25.88 479.261 23.936 477.581 22.544C475.949 21.104 473.669 20.384 470.741 20.384C467.957 20.384 465.629 21.032 463.757 22.328C461.933 23.624 460.709 25.472 460.085 27.872L456.341 26.576C457.253 23.36 458.957 20.888 461.453 19.16C463.949 17.384 467.069 16.496 470.813 16.496C475.037 16.496 478.325 17.552 480.677 19.664C483.029 21.776 484.205 24.68 484.205 28.376V53H480.389ZM480.101 34.928L468.365 36.296C465.293 36.632 463.013 37.4 461.525 38.6C460.085 39.752 459.365 41.336 459.365 43.352C459.365 45.368 460.061 46.952 461.453 48.104C462.893 49.256 464.933 49.832 467.573 49.832C470.357 49.832 472.661 49.28 474.485 48.176C476.357 47.024 477.749 45.464 478.661 43.496C479.621 41.48 480.101 39.224 480.101 36.728V34.928ZM495.174 17H498.99L499.206 23.408C500.022 21.92 501.126 20.624 502.518 19.52C503.91 18.416 505.494 17.624 507.27 17.144C509.046 16.664 510.99 16.616 513.102 17V21.104C511.038 20.672 509.166 20.696 507.486 21.176C505.806 21.608 504.342 22.4 503.094 23.552C501.894 24.704 500.958 26.144 500.286 27.872C499.614 29.6 499.278 31.568 499.278 33.776V53H495.174V17ZM520.768 17H524.584L524.872 23.552C525.784 21.44 527.176 19.736 529.048 18.44C530.92 17.144 533.32 16.496 536.248 16.496C538.936 16.496 541.36 17.192 543.52 18.584C545.68 19.976 547.288 22.088 548.344 24.92C549.352 22.04 551.008 19.928 553.312 18.584C555.616 17.192 558.208 16.496 561.088 16.496C563.728 16.496 566.08 17.096 568.144 18.296C570.208 19.448 571.816 21.2 572.968 23.552C574.12 25.904 574.696 28.856 574.696 32.408V53H570.592V32.84C570.592 28.76 569.704 25.664 567.928 23.552C566.152 21.392 563.656 20.312 560.44 20.312C557.128 20.312 554.488 21.488 552.52 23.84C550.6 26.192 549.64 29.648 549.64 34.208V53H545.464V32.84C545.464 28.76 544.6 25.664 542.872 23.552C541.192 21.392 538.744 20.312 535.528 20.312C532.216 20.312 529.6 21.488 527.68 23.84C525.808 26.192 524.872 29.648 524.872 34.208V53H520.768V17ZM608.152 17V6.92H612.256V17H622.336V20.816H612.256V42.056C612.256 44.168 612.736 45.8 613.696 46.952C614.704 48.104 615.976 48.848 617.512 49.184C619.048 49.472 620.656 49.472 622.336 49.184V52.712C620.608 53.144 618.88 53.264 617.152 53.072C615.472 52.88 613.936 52.352 612.544 51.488C611.2 50.576 610.12 49.352 609.304 47.816C608.536 46.28 608.152 44.36 608.152 42.056V20.816H602.536V17H608.152ZM646.001 53.504C642.641 53.504 639.617 52.76 636.929 51.272C634.289 49.784 632.201 47.672 630.665 44.936C629.177 42.152 628.433 38.864 628.433 35.072C628.433 31.232 629.201 27.92 630.737 25.136C632.273 22.352 634.361 20.216 637.001 18.728C639.689 17.24 642.737 16.496 646.145 16.496C649.505 16.496 652.505 17.24 655.145 18.728C657.833 20.216 659.945 22.352 661.481 25.136C663.017 27.872 663.785 31.136 663.785 34.928C663.785 38.768 662.993 42.08 661.409 44.864C659.873 47.648 657.761 49.784 655.073 51.272C652.433 52.76 649.409 53.504 646.001 53.504ZM646.001 49.616C648.305 49.616 650.465 49.112 652.481 48.104C654.545 47.048 656.201 45.44 657.449 43.28C658.745 41.12 659.393 38.36 659.393 35C659.393 31.64 658.745 28.88 657.449 26.72C656.201 24.56 654.569 22.976 652.553 21.968C650.537 20.912 648.377 20.384 646.073 20.384C643.769 20.384 641.609 20.912 639.593 21.968C637.577 22.976 635.945 24.56 634.697 26.72C633.449 28.88 632.825 31.64 632.825 35C632.825 38.36 633.449 41.12 634.697 43.28C635.945 45.44 637.553 47.048 639.521 48.104C641.537 49.112 643.697 49.616 646.001 49.616ZM695.406 12.536C695.406 9.992 695.814 7.832 696.63 6.056C697.446 4.232 698.766 2.912 700.59 2.096C702.462 1.232 704.934 0.919998 708.006 1.16V4.904C704.79 4.664 702.558 5.216 701.31 6.56C700.11 7.856 699.51 9.848 699.51 12.536V17H708.222V20.888H699.51V53H695.406V20.888H689.934V17H695.406V12.536ZM731.149 53.504C727.789 53.504 724.765 52.76 722.077 51.272C719.437 49.784 717.349 47.672 715.813 44.936C714.325 42.152 713.581 38.864 713.581 35.072C713.581 31.232 714.349 27.92 715.885 25.136C717.421 22.352 719.509 20.216 722.149 18.728C724.837 17.24 727.885 16.496 731.293 16.496C734.653 16.496 737.653 17.24 740.293 18.728C742.981 20.216 745.093 22.352 746.629 25.136C748.165 27.872 748.933 31.136 748.933 34.928C748.933 38.768 748.141 42.08 746.557 44.864C745.021 47.648 742.909 49.784 740.221 51.272C737.581 52.76 734.557 53.504 731.149 53.504ZM731.149 49.616C733.453 49.616 735.613 49.112 737.629 48.104C739.693 47.048 741.349 45.44 742.597 43.28C743.893 41.12 744.541 38.36 744.541 35C744.541 31.64 743.893 28.88 742.597 26.72C741.349 24.56 739.717 22.976 737.701 21.968C735.685 20.912 733.525 20.384 731.221 20.384C728.917 20.384 726.757 20.912 724.741 21.968C722.725 22.976 721.093 24.56 719.845 26.72C718.597 28.88 717.973 31.64 717.973 35C717.973 38.36 718.597 41.12 719.845 43.28C721.093 45.44 722.701 47.048 724.669 48.104C726.685 49.112 728.845 49.616 731.149 49.616ZM773.407 53.504C770.047 53.504 767.023 52.76 764.335 51.272C761.695 49.784 759.607 47.672 758.071 44.936C756.583 42.152 755.839 38.864 755.839 35.072C755.839 31.232 756.607 27.92 758.143 25.136C759.679 22.352 761.767 20.216 764.407 18.728C767.095 17.24 770.143 16.496 773.551 16.496C776.911 16.496 779.911 17.24 782.551 18.728C785.239 20.216 787.351 22.352 788.887 25.136C790.423 27.872 791.191 31.136 791.191 34.928C791.191 38.768 790.399 42.08 788.815 44.864C787.279 47.648 785.167 49.784 782.479 51.272C779.839 52.76 776.815 53.504 773.407 53.504ZM773.407 49.616C775.711 49.616 777.871 49.112 779.887 48.104C781.951 47.048 783.607 45.44 784.855 43.28C786.151 41.12 786.799 38.36 786.799 35C786.799 31.64 786.151 28.88 784.855 26.72C783.607 24.56 781.975 22.976 779.959 21.968C777.943 20.912 775.783 20.384 773.479 20.384C771.175 20.384 769.015 20.912 766.999 21.968C764.983 22.976 763.351 24.56 762.103 26.72C760.855 28.88 760.231 31.64 760.231 35C760.231 38.36 760.855 41.12 762.103 43.28C763.351 45.44 764.959 47.048 766.927 48.104C768.943 49.112 771.103 49.616 773.407 49.616ZM828.697 25.352L828.337 25.496V1.16H832.441V53H828.625L828.337 45.08C827.329 47.432 825.649 49.424 823.297 51.056C820.993 52.688 818.113 53.504 814.657 53.504C811.345 53.504 808.441 52.76 805.945 51.272C803.449 49.736 801.505 47.576 800.113 44.792C798.769 42.008 798.097 38.744 798.097 35C798.097 31.256 798.769 28.016 800.113 25.28C801.505 22.496 803.449 20.336 805.945 18.8C808.441 17.264 811.345 16.496 814.657 16.496C818.305 16.496 821.305 17.36 823.657 19.088C826.009 20.768 827.689 22.856 828.697 25.352ZM802.489 35C802.489 39.512 803.641 43.088 805.945 45.728C808.297 48.368 811.465 49.688 815.449 49.688C817.945 49.688 820.153 49.088 822.073 47.888C824.041 46.688 825.577 45.008 826.681 42.848C827.785 40.64 828.337 38.024 828.337 35C828.337 31.976 827.785 29.384 826.681 27.224C825.577 25.016 824.041 23.312 822.073 22.112C820.153 20.912 817.945 20.312 815.449 20.312C811.465 20.312 808.297 21.632 805.945 24.272C803.641 26.912 802.489 30.488 802.489 35Z" fill="#1E140F"/>
<path d="M173.57 62H320.488V65.6H173.57V62ZM428.031 62H579.808V65.6H428.031V62ZM687.414 62H838.129V65.6H687.414V62Z" fill="#1E140F"/>
</svg>
