<svg width="804" height="191" viewBox="0 0 804 191" fill="none" xmlns="http://www.w3.org/2000/svg">
<mask id="path-1-outside-1_1_278" maskUnits="userSpaceOnUse" x="13.7422" y="38.6758" width="786" height="145" fill="black">
<rect fill="white" x="13.7422" y="38.6758" width="786" height="145"/>
<path d="M38.3811 42.6607V131.586H86.3477V151.676H14.3978V42.6607H38.3811ZM134.458 152.766C126.463 152.766 119.507 151.105 113.589 147.782C107.671 144.356 103.051 139.58 99.7288 133.455C96.5103 127.329 94.901 120.165 94.901 111.963C94.901 104.384 96.5103 97.6355 99.7288 91.7175C102.947 85.7995 107.464 81.1794 113.278 77.857C119.092 74.4308 125.685 72.7177 133.056 72.7177C140.843 72.7177 147.592 74.327 153.302 77.5456C159.012 80.6603 163.477 85.1247 166.695 90.9388C169.914 96.753 171.523 103.502 171.523 111.184C171.523 112.43 171.471 113.728 171.367 115.078C171.263 116.428 171.108 117.933 170.9 119.594H119.196C119.715 122.397 120.701 124.837 122.155 126.914C123.608 128.886 125.425 130.444 127.606 131.586C129.89 132.624 132.485 133.143 135.392 133.143C138.611 133.143 141.518 132.468 144.114 131.119C146.709 129.769 148.63 127.848 149.876 125.356L170.277 130.963C167.162 137.919 162.49 143.318 156.261 147.159C150.031 150.897 142.764 152.766 134.458 152.766ZM146.761 104.799C146.657 102.204 145.982 99.9196 144.736 97.9469C143.491 95.9743 141.881 94.4169 139.909 93.2749C137.936 92.1328 135.756 91.6137 133.368 91.7175C130.98 91.8213 128.8 92.4443 126.827 93.5863C124.958 94.6246 123.349 96.13 121.999 98.1027C120.649 99.9715 119.819 102.204 119.507 104.799H146.761ZM230.328 151.676L228.771 142.02C226.071 145.343 223.164 147.938 220.049 149.807C216.935 151.676 212.782 152.61 207.59 152.61C202.711 152.61 198.35 151.78 194.509 150.118C190.667 148.353 187.604 145.81 185.32 142.487C183.14 139.165 182.05 135.168 182.05 130.496C182.05 124.059 184.334 118.712 188.902 114.455C193.574 110.198 200.79 107.551 210.549 106.512L228.771 104.488V99.3486C228.771 97.5836 227.888 95.8705 226.123 94.2093C224.462 92.4443 221.814 91.5618 218.18 91.5618C214.962 91.5618 212.159 92.3924 209.771 94.0535C207.487 95.7147 205.929 98.1027 205.099 101.217L185.632 94.2093C187.916 87.2531 191.913 81.9581 197.623 78.3242C203.437 74.5866 210.601 72.7177 219.115 72.7177C229.705 72.7177 237.751 75.3653 243.254 80.6603C248.757 85.9553 251.508 93.0672 251.508 101.996V151.676H230.328ZM228.771 118.504L214.287 120.217C211.38 120.632 209.148 121.567 207.59 123.02C206.137 124.37 205.41 126.083 205.41 128.16C205.41 130.132 206.241 131.794 207.902 133.143C209.563 134.493 211.847 135.168 214.754 135.168C217.661 135.168 220.153 134.597 222.23 133.455C224.306 132.209 225.915 130.496 227.057 128.315C228.199 126.031 228.771 123.228 228.771 119.906V118.504ZM323.5 85.7996L320.386 85.9553V39.546H343.123V151.676H322.566L321.164 141.864C319.088 144.875 316.025 147.471 311.976 149.651C307.927 151.728 303.411 152.766 298.427 152.766C291.886 152.766 286.02 151.157 280.829 147.938C275.741 144.616 271.744 139.944 268.837 133.922C265.93 127.9 264.477 120.84 264.477 112.742C264.477 104.54 265.93 97.4797 268.837 91.5618C271.744 85.54 275.741 80.9198 280.829 77.7013C285.916 74.3789 291.782 72.7177 298.427 72.7177C304.345 72.7177 309.432 74.0155 313.689 76.6111C317.946 79.1029 321.216 82.1657 323.5 85.7996ZM288.927 112.742C288.927 118.452 290.381 123.072 293.288 126.602C296.195 130.029 299.984 131.742 304.656 131.742C307.46 131.742 310.055 131.015 312.443 129.561C314.831 128.108 316.752 125.979 318.205 123.176C319.659 120.373 320.386 116.895 320.386 112.742C320.386 108.589 319.659 105.111 318.205 102.308C316.752 99.5043 314.831 97.3759 312.443 95.9224C310.055 94.365 307.46 93.5863 304.656 93.5863C299.881 93.5863 296.039 95.3513 293.132 98.8814C290.329 102.411 288.927 107.032 288.927 112.742ZM396.502 152.766C388.507 152.766 381.551 151.105 375.633 147.782C369.715 144.356 365.095 139.58 361.773 133.455C358.554 127.329 356.945 120.165 356.945 111.963C356.945 104.384 358.554 97.6355 361.773 91.7175C364.991 85.7995 369.507 81.1794 375.322 77.857C381.136 74.4308 387.728 72.7177 395.1 72.7177C402.887 72.7177 409.635 74.327 415.346 77.5456C421.056 80.6603 425.52 85.1247 428.739 90.9388C431.957 96.753 433.567 103.502 433.567 111.184C433.567 112.43 433.515 113.728 433.411 115.078C433.307 116.428 433.151 117.933 432.944 119.594H381.239C381.759 122.397 382.745 124.837 384.198 126.914C385.652 128.886 387.469 130.444 389.649 131.586C391.933 132.624 394.529 133.143 397.436 133.143C400.655 133.143 403.562 132.468 406.157 131.119C408.753 129.769 410.674 127.848 411.919 125.356L432.321 130.963C429.206 137.919 424.534 143.318 418.305 147.159C412.075 150.897 404.808 152.766 396.502 152.766ZM408.805 104.799C408.701 102.204 408.026 99.9196 406.78 97.9469C405.534 95.9743 403.925 94.4169 401.952 93.2749C399.98 92.1328 397.799 91.6137 395.411 91.7175C393.023 91.8213 390.843 92.4443 388.871 93.5863C387.002 94.6246 385.392 96.13 384.043 98.1027C382.693 99.9715 381.862 102.204 381.551 104.799H408.805ZM447.364 73.8079H468.077L469.634 84.0865C471.607 81.387 473.943 79.1548 476.642 77.3898C479.445 75.521 482.508 74.2751 485.831 73.6522C489.257 73.0292 492.994 73.0811 497.044 73.8079V95.2994C494.344 94.365 491.437 94.1055 488.322 94.5208C485.208 94.8322 482.249 95.8705 479.445 97.6355C476.642 99.2966 474.358 101.788 472.593 105.111C470.932 108.433 470.101 112.638 470.101 117.725V151.676H447.364V73.8079ZM525.633 126.135C526.152 128.212 526.983 129.821 528.125 130.963C529.371 132.105 530.824 132.936 532.486 133.455C534.147 133.974 535.86 134.233 537.625 134.233C540.843 134.233 543.335 133.662 545.1 132.52C546.865 131.378 547.748 129.925 547.748 128.16C547.748 126.395 547.073 125.097 545.723 124.266C544.477 123.332 542.816 122.605 540.74 122.086C538.663 121.463 536.483 120.892 534.199 120.373C531.603 119.75 528.696 119.023 525.478 118.193C522.259 117.258 519.196 116.012 516.289 114.455C513.382 112.794 510.994 110.613 509.125 107.914C507.256 105.111 506.322 101.633 506.322 97.4797C506.322 92.7038 507.62 88.4471 510.215 84.7094C512.811 80.9717 516.497 78.0647 521.273 75.9882C526.049 73.8079 531.707 72.7177 538.248 72.7177C546.242 72.7177 552.783 74.3789 557.871 77.7013C562.958 81.0237 566.592 85.6957 568.772 91.7175L548.994 96.7011C548.475 95.3513 547.696 94.3131 546.658 93.5863C545.619 92.7557 544.322 92.1847 542.764 91.8732C541.311 91.458 539.857 91.2503 538.404 91.2503C535.704 91.2503 533.576 91.7694 532.018 92.8077C530.461 93.8459 529.682 95.1437 529.682 96.7011C529.682 97.7393 529.994 98.6218 530.617 99.3486C531.344 100.075 532.278 100.646 533.42 101.062C534.666 101.477 536.068 101.84 537.625 102.152C539.286 102.463 541.051 102.879 542.92 103.398C546.035 104.124 549.201 105.007 552.42 106.045C555.742 107.083 558.805 108.485 561.608 110.25C564.412 111.911 566.696 114.195 568.461 117.102C570.226 119.906 571.16 123.54 571.264 128.004C571.264 132.572 569.966 136.777 567.37 140.619C564.775 144.356 560.985 147.315 556.002 149.495C551.018 151.676 544.945 152.766 537.781 152.766C529.163 152.766 521.948 151.001 516.133 147.471C510.319 143.941 506.634 138.49 505.076 131.119L525.633 126.135ZM585.001 39.546H607.739V81.9062C610.127 79.2067 613.034 77.0264 616.46 75.3653C619.99 73.6002 623.987 72.7177 628.452 72.7177C634.37 72.7177 639.509 74.0155 643.87 76.6111C648.23 79.2067 651.604 82.9963 653.992 87.9799C656.38 92.9634 657.574 99.0371 657.574 106.201V151.676H633.591V109.004C633.591 103.813 632.501 99.8677 630.321 97.1683C628.244 94.4688 625.077 93.1191 620.821 93.1191C616.46 93.1191 613.19 94.6765 611.009 97.7912C608.829 100.906 607.739 105.111 607.739 110.406V151.676H585.001V39.546ZM676.931 73.8079H699.668V151.676H676.931V73.8079ZM688.299 65.8654C684.043 65.8654 680.564 64.6195 677.865 62.1277C675.269 59.5321 673.972 56.4174 673.972 52.7836C673.972 49.0459 675.269 45.9312 677.865 43.4394C680.564 40.8438 684.043 39.546 688.299 39.546C692.452 39.546 695.827 40.8438 698.422 43.4394C701.122 45.9312 702.471 49.0459 702.471 52.7836C702.471 56.4174 701.122 59.5321 698.422 62.1277C695.827 64.6195 692.452 65.8654 688.299 65.8654ZM739.372 139.684L742.487 139.528V182.823H719.749V73.8079H740.307L741.708 83.6193C743.681 80.6084 746.692 78.0647 750.741 75.9882C754.79 73.8079 759.358 72.7177 764.446 72.7177C770.986 72.7177 776.801 74.3789 781.888 77.7013C786.975 80.9198 790.973 85.54 793.88 91.5618C796.891 97.4797 798.396 104.54 798.396 112.742C798.396 120.84 796.942 127.9 794.035 133.922C791.128 139.944 787.079 144.616 781.888 147.938C776.801 151.157 770.986 152.766 764.446 152.766C758.424 152.766 753.285 151.468 749.028 148.873C744.875 146.277 741.656 143.214 739.372 139.684ZM773.945 112.742C773.945 107.032 772.492 102.463 769.585 99.0371C766.678 95.5071 762.888 93.7421 758.216 93.7421C755.309 93.7421 752.662 94.4688 750.274 95.9224C747.886 97.3759 745.965 99.5043 744.511 102.308C743.162 105.111 742.487 108.589 742.487 112.742C742.487 116.791 743.162 120.269 744.511 123.176C745.965 125.979 747.886 128.16 750.274 129.717C752.662 131.171 755.309 131.897 758.216 131.897C762.888 131.897 766.678 130.132 769.585 126.602C772.492 123.072 773.945 118.452 773.945 112.742Z"/>
</mask>
<path d="M38.3811 42.6607H39.0072V42.0347H38.3811V42.6607ZM38.3811 131.586H37.7551V132.212H38.3811V131.586ZM86.3477 131.586H86.9738V130.96H86.3477V131.586ZM86.3477 151.676V152.302H86.9738V151.676H86.3477ZM14.3978 151.676H13.7718V152.302H14.3978V151.676ZM14.3978 42.6607V42.0347H13.7718V42.6607H14.3978ZM37.7551 42.6607V131.586H39.0072V42.6607H37.7551ZM38.3811 132.212H86.3477V130.96H38.3811V132.212ZM85.7217 131.586V151.676H86.9738V131.586H85.7217ZM86.3477 151.05H14.3978V152.302H86.3477V151.05ZM15.0238 151.676V42.6607H13.7718V151.676H15.0238ZM14.3978 43.2868H38.3811V42.0347H14.3978V43.2868ZM113.589 147.782L113.276 148.324L113.283 148.328L113.589 147.782ZM99.7288 133.455L99.1746 133.746L99.1785 133.753L99.7288 133.455ZM99.7288 91.7175L100.279 92.0166L100.279 92.0166L99.7288 91.7175ZM113.278 77.857L113.588 78.4006L113.596 78.3964L113.278 77.857ZM153.302 77.5456L152.995 78.091L153.002 78.0952L153.302 77.5456ZM166.695 90.9388L167.243 90.6356L167.243 90.6356L166.695 90.9388ZM170.9 119.594V120.22H171.453L171.521 119.672L170.9 119.594ZM119.196 119.594V118.968H118.443L118.58 119.708L119.196 119.594ZM122.155 126.914L121.642 127.273L121.646 127.279L121.651 127.285L122.155 126.914ZM127.606 131.586L127.315 132.14L127.331 132.149L127.346 132.156L127.606 131.586ZM144.114 131.119L144.402 131.674L144.402 131.674L144.114 131.119ZM149.876 125.356L150.042 124.753L149.546 124.617L149.316 125.076L149.876 125.356ZM170.277 130.963L170.849 131.219L171.147 130.553L170.443 130.359L170.277 130.963ZM156.261 147.159L156.583 147.696L156.59 147.692L156.261 147.159ZM146.761 104.799V105.425H147.413L147.387 104.774L146.761 104.799ZM144.736 97.9469L144.207 98.2812L144.207 98.2812L144.736 97.9469ZM139.909 93.2749L140.222 92.7331L140.222 92.7331L139.909 93.2749ZM133.368 91.7175L133.341 91.0921L133.341 91.0921L133.368 91.7175ZM126.827 93.5863L127.131 94.1337L127.141 94.1281L126.827 93.5863ZM121.999 98.1027L122.507 98.4692L122.511 98.4628L122.516 98.4562L121.999 98.1027ZM119.507 104.799L118.886 104.725L118.802 105.425H119.507V104.799ZM134.458 152.14C126.552 152.14 119.705 150.498 113.896 147.236L113.283 148.328C119.31 151.712 126.375 153.392 134.458 153.392V152.14ZM113.903 147.241C108.087 143.873 103.548 139.183 100.279 133.156L99.1785 133.753C102.555 139.978 107.256 144.839 113.276 148.324L113.903 147.241ZM100.283 133.164C97.1197 127.143 95.5271 120.083 95.5271 111.963H94.275C94.275 120.248 95.9009 127.515 99.1746 133.746L100.283 133.164ZM95.5271 111.963C95.5271 104.475 97.1162 97.8318 100.279 92.0166L99.1789 91.4184C95.9044 97.4391 94.275 104.293 94.275 111.963H95.5271ZM100.279 92.0166C103.442 86.2001 107.876 81.6649 113.588 78.4006L112.967 77.3135C107.052 80.6939 102.453 85.399 99.1789 91.4184L100.279 92.0166ZM113.596 78.3964C119.305 75.0321 125.786 73.3438 133.056 73.3438V72.0917C125.584 72.0917 118.879 73.8296 112.96 77.3177L113.596 78.3964ZM133.056 73.3438C140.756 73.3438 147.394 74.9344 152.995 78.0909L153.609 77.0002C147.789 73.7196 140.93 72.0917 133.056 72.0917V73.3438ZM153.002 78.0952C158.606 81.1517 162.985 85.5295 166.148 91.242L167.243 90.6356C163.968 84.7199 159.419 80.1689 153.602 76.996L153.002 78.0952ZM166.148 91.242C169.307 96.9498 170.897 103.591 170.897 111.184H172.149C172.149 103.412 170.52 96.5562 167.243 90.6356L166.148 91.242ZM170.897 111.184C170.897 112.413 170.846 113.695 170.743 115.03L171.991 115.126C172.096 113.762 172.149 112.448 172.149 111.184H170.897ZM170.743 115.03C170.64 116.368 170.486 117.863 170.279 119.517L171.521 119.672C171.73 118.003 171.887 116.487 171.991 115.126L170.743 115.03ZM170.9 118.968H119.196V120.22H170.9V118.968ZM118.58 119.708C119.114 122.589 120.131 125.114 121.642 127.273L122.668 126.555C121.272 124.56 120.316 122.206 119.811 119.48L118.58 119.708ZM121.651 127.285C123.161 129.335 125.051 130.954 127.315 132.14L127.896 131.031C125.799 129.933 124.056 128.438 122.659 126.542L121.651 127.285ZM127.346 132.156C129.724 133.236 132.41 133.769 135.392 133.769V132.517C132.561 132.517 130.055 132.012 127.865 131.016L127.346 132.156ZM135.392 133.769C138.701 133.769 141.709 133.075 144.402 131.674L143.825 130.563C141.327 131.862 138.521 132.517 135.392 132.517V133.769ZM144.402 131.674C147.109 130.267 149.128 128.252 150.436 125.636L149.316 125.076C148.132 127.444 146.309 129.271 143.825 130.563L144.402 131.674ZM149.71 125.96L170.111 131.567L170.443 130.359L150.042 124.753L149.71 125.96ZM169.706 130.707C166.64 137.554 162.05 142.854 155.932 146.627L156.59 147.692C162.93 143.782 167.685 138.285 170.849 131.219L169.706 130.707ZM155.939 146.623C149.82 150.294 142.667 152.14 134.458 152.14V153.392C142.861 153.392 150.243 151.5 156.583 147.696L155.939 146.623ZM147.387 104.774C147.279 102.082 146.577 99.6884 145.266 97.6126L144.207 98.2812C145.388 100.151 146.036 102.326 146.136 104.824L147.387 104.774ZM145.266 97.6126C143.967 95.5565 142.285 93.9271 140.222 92.7331L139.595 93.8167C141.478 94.9068 143.014 96.3921 144.207 98.2812L145.266 97.6126ZM140.222 92.7331C138.141 91.5282 135.842 90.9833 133.341 91.0921L133.395 92.343C135.67 92.2441 137.731 92.7374 139.595 93.8167L140.222 92.7331ZM133.341 91.0921C130.857 91.2001 128.577 91.8494 126.513 93.0445L127.141 94.1281C129.022 93.0391 131.103 92.4426 133.395 92.343L133.341 91.0921ZM126.523 93.0391C124.559 94.1298 122.88 95.7059 121.482 97.7492L122.516 98.4562C123.817 96.5542 125.357 95.1193 127.131 94.1336L126.523 93.0391ZM121.492 97.7361C120.072 99.702 119.208 102.038 118.886 104.725L120.129 104.874C120.429 102.369 121.227 100.241 122.507 98.4692L121.492 97.7361ZM119.507 105.425H146.761V104.173H119.507V105.425ZM230.328 151.676L229.71 151.775L229.795 152.302H230.328V151.676ZM228.771 142.02L229.389 141.92L229.166 140.541L228.285 141.625L228.771 142.02ZM220.049 149.807L220.371 150.344L220.049 149.807ZM194.509 150.118L194.247 150.687L194.26 150.693L194.509 150.118ZM185.32 142.487L184.797 142.831L184.804 142.842L185.32 142.487ZM188.902 114.455L188.48 113.992L188.475 113.997L188.902 114.455ZM210.549 106.512L210.616 107.135L210.619 107.135L210.549 106.512ZM228.771 104.488L228.84 105.11L229.397 105.048V104.488H228.771ZM226.123 94.2093L225.667 94.6383L225.68 94.6522L225.694 94.6652L226.123 94.2093ZM209.771 94.0535L209.413 93.5395L209.403 93.5472L209.771 94.0535ZM205.099 101.217L204.887 101.806L205.528 102.037L205.704 101.379L205.099 101.217ZM185.632 94.2093L185.037 94.014L184.847 94.5922L185.42 94.7983L185.632 94.2093ZM197.623 78.3242L197.959 78.8524L197.962 78.8508L197.623 78.3242ZM251.508 151.676V152.302H252.134V151.676H251.508ZM228.771 118.504H229.397V117.8L228.697 117.882L228.771 118.504ZM214.287 120.217L214.214 119.595L214.206 119.596L214.199 119.597L214.287 120.217ZM207.59 123.02L208.016 123.479L208.018 123.478L207.59 123.02ZM222.23 133.455L222.531 134.003L222.542 133.998L222.552 133.992L222.23 133.455ZM227.057 128.315L227.612 128.606L227.617 128.595L227.057 128.315ZM230.946 151.576L229.389 141.92L228.152 142.12L229.71 151.775L230.946 151.576ZM228.285 141.625C225.623 144.901 222.769 147.445 219.727 149.27L220.371 150.344C223.559 148.431 226.519 145.784 229.256 142.415L228.285 141.625ZM219.727 149.27C216.743 151.061 212.714 151.984 207.59 151.984V153.236C212.849 153.236 217.126 152.291 220.371 150.344L219.727 149.27ZM207.59 151.984C202.782 151.984 198.508 151.166 194.757 149.544L194.26 150.693C198.192 152.393 202.639 153.236 207.59 153.236V151.984ZM194.77 149.55C191.026 147.829 188.053 145.357 185.836 142.133L184.804 142.842C187.156 146.262 190.308 148.878 194.247 150.687L194.77 149.55ZM185.844 142.144C183.741 138.94 182.676 135.068 182.676 130.496H181.424C181.424 135.268 182.539 139.39 184.797 142.831L185.844 142.144ZM182.676 130.496C182.676 124.226 184.892 119.047 189.329 114.913L188.475 113.997C183.776 118.376 181.424 123.891 181.424 130.496H182.676ZM189.324 114.918C193.856 110.788 200.92 108.166 210.616 107.135L210.483 105.89C200.66 106.935 193.292 109.608 188.481 113.992L189.324 114.918ZM210.619 107.135L228.84 105.11L228.701 103.866L210.48 105.89L210.619 107.135ZM229.397 104.488V99.3486H228.144V104.488H229.397ZM229.397 99.3486C229.397 97.3541 228.394 95.4873 226.552 93.7534L225.694 94.6652C227.382 96.2536 228.144 97.813 228.144 99.3486H229.397ZM226.579 93.7802C224.751 91.8383 221.901 90.9357 218.18 90.9357V92.1878C221.728 92.1878 224.172 93.0503 225.667 94.6383L226.579 93.7802ZM218.18 90.9357C214.848 90.9357 211.917 91.7977 209.413 93.5396L210.128 94.5675C212.4 92.987 215.076 92.1878 218.18 92.1878V90.9357ZM209.403 93.5472C206.986 95.3047 205.356 97.8233 204.494 101.056L205.704 101.379C206.503 98.382 207.987 96.1248 210.139 94.5598L209.403 93.5472ZM205.311 100.628L185.844 93.6203L185.42 94.7983L204.887 101.806L205.311 100.628ZM186.226 94.4046C188.469 87.5739 192.382 82.402 197.959 78.8524L197.287 77.7961C191.445 81.5142 187.362 86.9323 185.037 94.014L186.226 94.4046ZM197.962 78.8508C203.654 75.1917 210.693 73.3438 219.115 73.3438V72.0917C210.509 72.0917 203.221 73.9815 197.285 77.7976L197.962 78.8508ZM219.115 73.3438C229.606 73.3438 237.473 75.966 242.82 81.1114L243.688 80.2092C238.03 74.7645 229.803 72.0917 219.115 72.0917V73.3438ZM242.82 81.1114C248.179 86.2683 250.882 93.2062 250.882 101.996H252.134C252.134 92.9283 249.334 85.6423 243.688 80.2092L242.82 81.1114ZM250.882 101.996V151.676H252.134V101.996H250.882ZM251.508 151.05H230.328V152.302H251.508V151.05ZM228.697 117.882L214.214 119.595L214.361 120.839L228.844 119.126L228.697 117.882ZM214.199 119.597C211.211 120.024 208.844 120.994 207.163 122.563L208.018 123.478C209.452 122.139 211.549 121.241 214.376 120.837L214.199 119.597ZM207.164 122.562C205.577 124.036 204.784 125.918 204.784 128.16H206.036C206.036 126.248 206.697 124.704 208.016 123.479L207.164 122.562ZM204.784 128.16C204.784 130.338 205.714 132.172 207.507 133.629L208.297 132.657C206.768 131.415 206.036 129.926 206.036 128.16H204.784ZM207.507 133.629C209.314 135.097 211.755 135.794 214.754 135.794V134.542C211.94 134.542 209.812 133.889 208.297 132.657L207.507 133.629ZM214.754 135.794C217.743 135.794 220.344 135.206 222.531 134.003L221.928 132.906C219.963 133.987 217.58 134.542 214.754 134.542V135.794ZM222.552 133.992C224.729 132.685 226.417 130.886 227.612 128.606L226.503 128.025C225.413 130.105 223.884 131.732 221.908 132.918L222.552 133.992ZM227.617 128.595C228.814 126.202 229.397 123.297 229.397 119.906H228.144C228.144 123.159 227.585 125.86 226.497 128.035L227.617 128.595ZM229.397 119.906V118.504H228.144V119.906H229.397ZM323.5 85.7996L323.532 86.4248L324.599 86.3714L324.03 85.4664L323.5 85.7996ZM320.386 85.9553H319.76V86.6134L320.417 86.5805L320.386 85.9553ZM320.386 39.546V38.92H319.76V39.546H320.386ZM343.123 39.546H343.749V38.92H343.123V39.546ZM343.123 151.676V152.302H343.749V151.676H343.123ZM322.566 151.676L321.946 151.764L322.023 152.302H322.566V151.676ZM321.164 141.864L321.784 141.776L321.558 140.191L320.649 141.509L321.164 141.864ZM311.976 149.651L312.262 150.208L312.273 150.202L311.976 149.651ZM280.829 147.938L280.487 148.462L280.493 148.466L280.499 148.47L280.829 147.938ZM268.837 133.922L269.401 133.65L269.401 133.65L268.837 133.922ZM268.837 91.5618L269.399 91.8378L269.401 91.8339L268.837 91.5618ZM280.829 77.7013L281.164 78.2304L281.171 78.2255L280.829 77.7013ZM313.689 76.6111L313.363 77.1457L313.373 77.1514L313.689 76.6111ZM293.288 126.602L292.804 127L292.81 127.007L293.288 126.602ZM318.205 123.176L317.65 122.888L317.65 122.888L318.205 123.176ZM318.205 102.308L317.65 102.596L317.65 102.596L318.205 102.308ZM312.443 95.9224L312.101 96.4468L312.109 96.4521L312.118 96.4571L312.443 95.9224ZM293.132 98.8814L292.649 98.4833L292.642 98.492L293.132 98.8814ZM323.469 85.1743L320.354 85.33L320.417 86.5805L323.532 86.4248L323.469 85.1743ZM321.012 85.9553V39.546H319.76V85.9553H321.012ZM320.386 40.1721H343.123V38.92H320.386V40.1721ZM342.497 39.546V151.676H343.749V39.546H342.497ZM343.123 151.05H322.566V152.302H343.123V151.05ZM323.186 151.587L321.784 141.776L320.545 141.953L321.946 151.764L323.186 151.587ZM320.649 141.509C318.642 144.42 315.663 146.955 311.679 149.1L312.273 150.202C316.387 147.987 319.534 145.331 321.68 142.22L320.649 141.509ZM311.69 149.094C307.738 151.121 303.321 152.14 298.427 152.14V153.392C303.5 153.392 308.116 152.334 312.262 150.208L311.69 149.094ZM298.427 152.14C291.994 152.14 286.244 150.559 281.159 147.406L280.499 148.47C285.796 151.755 291.778 153.392 298.427 153.392V152.14ZM281.171 147.414C276.189 144.16 272.264 139.58 269.401 133.65L268.273 134.194C271.225 140.308 275.294 145.071 280.487 148.462L281.171 147.414ZM269.401 133.65C266.543 127.729 265.103 120.765 265.103 112.742H263.851C263.851 120.915 265.318 128.071 268.273 134.194L269.401 133.65ZM265.103 112.742C265.103 104.613 266.543 97.6515 269.399 91.8378L268.275 91.2858C265.317 97.308 263.851 104.467 263.851 112.742H265.103ZM269.401 91.8339C272.263 85.9055 276.186 81.3796 281.164 78.2303L280.494 77.1722C275.297 80.4601 271.226 85.1745 268.273 91.2896L269.401 91.8339ZM281.171 78.2255C286.147 74.9758 291.892 73.3438 298.427 73.3438V72.0917C291.673 72.0917 285.685 73.7821 280.487 77.1771L281.171 78.2255ZM298.427 73.3438C304.252 73.3438 309.222 74.6203 313.363 77.1456L314.015 76.0766C309.643 73.4108 304.438 72.0917 298.427 72.0917V73.3438ZM313.373 77.1514C317.556 79.6 320.747 82.596 322.97 86.1327L324.03 85.4664C321.685 81.7354 318.336 78.6059 314.005 76.0709L313.373 77.1514ZM288.301 112.742C288.301 118.56 289.784 123.333 292.804 127L293.771 126.204C290.977 122.812 289.553 118.344 289.553 112.742H288.301ZM292.81 127.007C295.842 130.58 299.809 132.368 304.656 132.368V131.116C300.16 131.116 296.548 129.477 293.765 126.197L292.81 127.007ZM304.656 132.368C307.574 132.368 310.282 131.609 312.769 130.096L312.118 129.027C309.828 130.42 307.345 131.116 304.656 131.116V132.368ZM312.769 130.096C315.267 128.576 317.262 126.356 318.761 123.464L317.65 122.888C316.242 125.603 314.396 127.64 312.118 129.027L312.769 130.096ZM318.761 123.464C320.273 120.548 321.012 116.965 321.012 112.742H319.76C319.76 116.825 319.045 120.197 317.65 122.888L318.761 123.464ZM321.012 112.742C321.012 108.519 320.273 104.935 318.761 102.019L317.65 102.596C319.045 105.286 319.76 108.659 319.76 112.742H321.012ZM318.761 102.019C317.262 99.1279 315.267 96.9082 312.769 95.3876L312.118 96.4571C314.396 97.8437 316.242 99.8807 317.65 102.596L318.761 102.019ZM312.785 95.398C310.297 93.7755 307.583 92.9603 304.656 92.9603V94.2124C307.336 94.2124 309.813 94.9545 312.101 96.4468L312.785 95.398ZM304.656 92.9603C299.703 92.9603 295.681 94.8017 292.649 98.4834L293.615 99.2793C296.397 95.9009 300.058 94.2124 304.656 94.2124V92.9603ZM292.642 98.492C289.729 102.159 288.301 106.929 288.301 112.742H289.553C289.553 107.135 290.928 102.663 293.622 99.2707L292.642 98.492ZM375.633 147.782L375.319 148.324L375.327 148.328L375.633 147.782ZM361.773 133.455L361.218 133.746L361.222 133.753L361.773 133.455ZM361.773 91.7175L362.322 92.0166L362.322 92.0166L361.773 91.7175ZM375.322 77.857L375.632 78.4006L375.639 78.3964L375.322 77.857ZM415.346 77.5456L415.038 78.091L415.046 78.0952L415.346 77.5456ZM428.739 90.9388L429.287 90.6356L429.287 90.6356L428.739 90.9388ZM432.944 119.594V120.22H433.496L433.565 119.672L432.944 119.594ZM381.239 119.594V118.968H380.487L380.624 119.708L381.239 119.594ZM384.198 126.914L383.686 127.273L383.69 127.279L383.694 127.285L384.198 126.914ZM389.649 131.586L389.359 132.14L389.374 132.149L389.39 132.156L389.649 131.586ZM406.157 131.119L406.446 131.674L406.446 131.674L406.157 131.119ZM411.919 125.356L412.085 124.753L411.589 124.617L411.359 125.076L411.919 125.356ZM432.321 130.963L432.892 131.219L433.19 130.553L432.487 130.359L432.321 130.963ZM418.305 147.159L418.627 147.696L418.633 147.692L418.305 147.159ZM408.805 104.799V105.425H409.456L409.43 104.774L408.805 104.799ZM406.78 97.9469L406.251 98.2812L406.251 98.2812L406.78 97.9469ZM401.952 93.2749L402.266 92.7331L402.266 92.7331L401.952 93.2749ZM395.411 91.7175L395.384 91.0921L395.384 91.0921L395.411 91.7175ZM388.871 93.5863L389.175 94.1337L389.184 94.1281L388.871 93.5863ZM384.043 98.1027L384.55 98.4692L384.555 98.4628L384.559 98.4562L384.043 98.1027ZM381.551 104.799L380.929 104.725L380.845 105.425H381.551V104.799ZM396.502 152.14C388.595 152.14 381.748 150.498 375.939 147.236L375.327 148.328C381.354 151.712 388.419 153.392 396.502 153.392V152.14ZM375.947 147.241C370.13 143.873 365.591 139.183 362.323 133.156L361.222 133.753C364.598 139.978 369.3 144.839 375.319 148.324L375.947 147.241ZM362.327 133.164C359.163 127.143 357.571 120.083 357.571 111.963H356.319C356.319 120.248 357.945 127.515 361.218 133.746L362.327 133.164ZM357.571 111.963C357.571 104.475 359.16 97.8318 362.322 92.0166L361.223 91.4184C357.948 97.4391 356.319 104.293 356.319 111.963H357.571ZM362.322 92.0166C365.486 86.2001 369.92 81.6649 375.632 78.4006L375.011 77.3135C369.095 80.6939 364.496 85.399 361.223 91.4184L362.322 92.0166ZM375.639 78.3964C381.348 75.0321 387.83 73.3438 395.1 73.3438V72.0917C387.627 72.0917 380.923 73.8296 375.004 77.3177L375.639 78.3964ZM395.1 73.3438C402.799 73.3438 409.438 74.9344 415.038 78.0909L415.653 77.0002C409.833 73.7196 402.974 72.0917 395.1 72.0917V73.3438ZM415.046 78.0952C420.649 81.1517 425.029 85.5295 428.191 91.242L429.287 90.6356C426.012 84.7199 421.462 80.1689 415.645 76.996L415.046 78.0952ZM428.191 91.242C431.351 96.9498 432.941 103.591 432.941 111.184H434.193C434.193 103.412 432.564 96.5562 429.287 90.6356L428.191 91.242ZM432.941 111.184C432.941 112.413 432.889 113.695 432.787 115.03L434.035 115.126C434.14 113.762 434.193 112.448 434.193 111.184H432.941ZM432.787 115.03C432.684 116.368 432.529 117.863 432.323 119.517L433.565 119.672C433.774 118.003 433.93 116.487 434.035 115.126L432.787 115.03ZM432.944 118.968H381.239V120.22H432.944V118.968ZM380.624 119.708C381.157 122.589 382.175 125.114 383.686 127.273L384.711 126.555C383.315 124.56 382.36 122.206 381.855 119.48L380.624 119.708ZM383.694 127.285C385.205 129.335 387.095 130.954 389.359 132.14L389.94 131.031C387.843 129.933 386.099 128.438 384.702 126.542L383.694 127.285ZM389.39 132.156C391.768 133.236 394.454 133.769 397.436 133.769V132.517C394.604 132.517 392.099 132.012 389.908 131.016L389.39 132.156ZM397.436 133.769C400.745 133.769 403.753 133.075 406.446 131.674L405.868 130.563C403.371 131.862 400.564 132.517 397.436 132.517V133.769ZM406.446 131.674C409.153 130.267 411.171 128.252 412.479 125.636L411.359 125.076C410.176 127.444 408.353 129.271 405.868 130.563L406.446 131.674ZM411.754 125.96L432.155 131.567L432.487 130.359L412.085 124.753L411.754 125.96ZM431.749 130.707C428.684 137.554 424.094 142.854 417.976 146.627L418.633 147.692C424.974 143.782 429.728 138.285 432.892 131.219L431.749 130.707ZM417.983 146.623C411.864 150.294 404.711 152.14 396.502 152.14V153.392C404.904 153.392 412.287 151.5 418.627 147.696L417.983 146.623ZM409.43 104.774C409.323 102.082 408.62 99.6884 407.309 97.6126L406.251 98.2812C407.432 100.151 408.079 102.326 408.179 104.824L409.43 104.774ZM407.309 97.6126C406.011 95.5565 404.328 93.9271 402.266 92.7331L401.639 93.8167C403.522 94.9068 405.058 96.3921 406.251 98.2812L407.309 97.6126ZM402.266 92.7331C400.185 91.5282 397.885 90.9833 395.384 91.0921L395.439 92.343C397.713 92.2441 399.774 92.7374 401.639 93.8167L402.266 92.7331ZM395.384 91.0921C392.901 91.2001 390.621 91.8494 388.557 93.0445L389.184 94.1281C391.065 93.0391 393.146 92.4426 395.439 92.343L395.384 91.0921ZM388.567 93.0391C386.603 94.1298 384.924 95.7059 383.526 97.7492L384.559 98.4562C385.861 96.5542 387.4 95.1193 389.175 94.1336L388.567 93.0391ZM383.535 97.7361C382.115 99.702 381.252 102.038 380.929 104.725L382.173 104.874C382.473 102.369 383.271 100.241 384.55 98.4692L383.535 97.7361ZM381.551 105.425H408.805V104.173H381.551V105.425ZM447.364 73.8079V73.1819H446.738V73.8079H447.364ZM468.077 73.8079L468.696 73.7141L468.615 73.1819H468.077V73.8079ZM469.634 84.0865L469.015 84.1802L469.243 85.683L470.14 84.4558L469.634 84.0865ZM476.642 77.3898L476.985 77.9138L476.989 77.9107L476.642 77.3898ZM485.831 73.6522L485.719 73.0362L485.715 73.0368L485.831 73.6522ZM497.044 73.8079H497.67V73.2842L497.154 73.1917L497.044 73.8079ZM497.044 95.2994L496.839 95.891L497.67 96.1786V95.2994H497.044ZM488.322 94.5208L488.385 95.1437L488.395 95.1427L488.405 95.1413L488.322 94.5208ZM479.445 97.6355L479.765 98.174L479.772 98.1697L479.779 98.1652L479.445 97.6355ZM472.593 105.111L472.04 104.817L472.037 104.824L472.033 104.831L472.593 105.111ZM470.101 151.676V152.302H470.727V151.676H470.101ZM447.364 151.676H446.738V152.302H447.364V151.676ZM447.364 74.4339H468.077V73.1819H447.364V74.4339ZM467.458 73.9017L469.015 84.1802L470.253 83.9927L468.696 73.7141L467.458 73.9017ZM470.14 84.4558C472.069 81.8151 474.351 79.636 476.985 77.9138L476.3 76.8658C473.535 78.6737 471.144 80.959 469.129 83.7171L470.14 84.4558ZM476.989 77.9107C479.722 76.0888 482.706 74.8749 485.946 74.2675L485.715 73.0368C482.31 73.6753 479.169 74.9532 476.295 76.8689L476.989 77.9107ZM485.943 74.2681C489.283 73.6607 492.944 73.7082 496.933 74.4241L497.154 73.1917C493.045 72.4541 489.23 72.3977 485.719 73.0362L485.943 74.2681ZM496.418 73.8079V95.2994H497.67V73.8079H496.418ZM497.248 94.7078C494.448 93.7384 491.441 93.4733 488.24 93.9002L488.405 95.1413C491.433 94.7376 494.241 94.9916 496.839 95.891L497.248 94.7078ZM488.26 93.8978C485.043 94.2195 481.992 95.2922 479.112 97.1057L479.779 98.1652C482.505 96.4488 485.372 95.445 488.385 95.1437L488.26 93.8978ZM479.126 97.0969C476.21 98.8253 473.851 101.409 472.04 104.817L473.146 105.404C474.866 102.168 477.075 99.768 479.765 98.174L479.126 97.0969ZM472.033 104.831C470.315 108.266 469.475 112.575 469.475 117.725H470.727C470.727 112.701 471.548 108.6 473.153 105.391L472.033 104.831ZM469.475 117.725V151.676H470.727V117.725H469.475ZM470.101 151.05H447.364V152.302H470.101V151.05ZM447.99 151.676V73.8079H446.738V151.676H447.99ZM525.633 126.135L526.241 125.983L526.09 125.38L525.486 125.527L525.633 126.135ZM528.125 130.963L527.682 131.406L527.692 131.415L527.702 131.424L528.125 130.963ZM545.1 132.52L544.76 131.995L544.76 131.995L545.1 132.52ZM545.723 124.266L545.348 124.767L545.371 124.784L545.395 124.799L545.723 124.266ZM540.74 122.086L540.56 122.686L540.574 122.69L540.588 122.693L540.74 122.086ZM534.199 120.373L534.053 120.982L534.06 120.983L534.199 120.373ZM525.478 118.193L525.303 118.794L525.312 118.796L525.321 118.799L525.478 118.193ZM516.289 114.455L515.979 114.998L515.986 115.003L515.994 115.007L516.289 114.455ZM509.125 107.914L508.604 108.261L508.611 108.27L509.125 107.914ZM510.215 84.7094L510.73 85.0665L510.73 85.0665L510.215 84.7094ZM521.273 75.9882L521.522 76.5624L521.533 76.5577L521.273 75.9882ZM557.871 77.7013L558.213 77.1771L558.213 77.1771L557.871 77.7013ZM568.772 91.7175L568.925 92.3246L569.596 92.1554L569.361 91.5044L568.772 91.7175ZM548.994 96.7011L548.409 96.9258L548.609 97.4437L549.147 97.3081L548.994 96.7011ZM546.658 93.5863L546.267 94.0752L546.282 94.0877L546.299 94.0992L546.658 93.5863ZM542.764 91.8732L542.592 92.4752L542.617 92.4822L542.641 92.4871L542.764 91.8732ZM532.018 92.8077L532.366 93.3286L532.366 93.3286L532.018 92.8077ZM530.617 99.3486L530.142 99.756L530.157 99.7742L530.174 99.7912L530.617 99.3486ZM533.42 101.062L533.206 101.65L533.214 101.653L533.222 101.656L533.42 101.062ZM537.625 102.152L537.502 102.766L537.51 102.767L537.625 102.152ZM542.92 103.398L542.752 104.001L542.765 104.004L542.778 104.007L542.92 103.398ZM552.42 106.045L552.228 106.641L552.233 106.643L552.42 106.045ZM561.608 110.25L561.275 110.78L561.282 110.784L561.289 110.789L561.608 110.25ZM568.461 117.102L567.925 117.427L567.931 117.436L568.461 117.102ZM571.264 128.004H571.89V127.997L571.89 127.989L571.264 128.004ZM567.37 140.619L567.885 140.976L567.889 140.969L567.37 140.619ZM556.002 149.495L556.253 150.069L556.253 150.069L556.002 149.495ZM516.133 147.471L515.809 148.006L515.809 148.006L516.133 147.471ZM505.076 131.119L504.929 130.51L504.338 130.653L504.464 131.248L505.076 131.119ZM525.026 126.287C525.564 128.439 526.438 130.161 527.682 131.406L528.568 130.52C527.528 129.48 526.741 127.984 526.241 125.983L525.026 126.287ZM527.702 131.424C529.018 132.631 530.553 133.507 532.299 134.052L532.672 132.857C531.096 132.365 529.724 131.579 528.548 130.501L527.702 131.424ZM532.299 134.052C534.021 134.591 535.798 134.859 537.625 134.859V133.607C535.922 133.607 534.272 133.357 532.672 132.857L532.299 134.052ZM537.625 134.859C540.905 134.859 543.534 134.28 545.44 133.046L544.76 131.995C543.137 133.045 540.782 133.607 537.625 133.607V134.859ZM545.44 133.046C547.344 131.814 548.374 130.18 548.374 128.16H547.122C547.122 129.669 546.386 130.942 544.76 131.995L545.44 133.046ZM548.374 128.16C548.374 126.207 547.61 124.692 546.051 123.733L545.395 124.799C546.536 125.501 547.122 126.583 547.122 128.16H548.374ZM546.099 123.765C544.766 122.766 543.021 122.011 540.892 121.479L540.588 122.693C542.612 123.199 544.188 123.898 545.348 124.767L546.099 123.765ZM540.92 121.486C538.828 120.859 536.634 120.284 534.338 119.762L534.06 120.983C536.331 121.5 538.498 122.067 540.56 122.686L540.92 121.486ZM534.345 119.764C531.753 119.142 528.85 118.416 525.634 117.586L525.321 118.799C528.542 119.63 531.453 120.358 534.053 120.982L534.345 119.764ZM525.652 117.591C522.475 116.669 519.453 115.439 516.585 113.903L515.994 115.007C518.94 116.585 522.043 117.847 525.303 118.794L525.652 117.591ZM516.6 113.911C513.772 112.296 511.455 110.179 509.64 107.558L508.611 108.27C510.534 111.048 512.992 113.292 515.979 114.998L516.6 113.911ZM509.646 107.567C507.86 104.888 506.948 101.538 506.948 97.4797H505.696C505.696 101.727 506.653 105.334 508.604 108.261L509.646 107.567ZM506.948 97.4797C506.948 92.8248 508.211 88.6939 510.73 85.0665L509.701 84.3523C507.029 88.2002 505.696 92.5829 505.696 97.4797H506.948ZM510.73 85.0665C513.25 81.4375 516.837 78.5993 521.522 76.5623L521.023 75.4141C516.156 77.5301 512.372 80.506 509.701 84.3523L510.73 85.0665ZM521.533 76.5577C526.209 74.4226 531.775 73.3438 538.248 73.3438V72.0917C531.639 72.0917 525.888 73.1932 521.013 75.4187L521.533 76.5577ZM538.248 73.3438C546.158 73.3438 552.57 74.9876 557.528 78.2255L558.213 77.1771C552.996 73.7703 546.326 72.0917 538.248 72.0917V73.3438ZM557.528 78.2255C562.496 81.4694 566.047 86.0291 568.183 91.9306L569.361 91.5044C567.137 85.3623 563.42 80.5779 558.213 77.1771L557.528 78.2255ZM568.619 91.1104L548.841 96.094L549.147 97.3081L568.925 92.3246L568.619 91.1104ZM549.578 96.4763C549.021 95.0272 548.171 93.8814 547.017 93.0735L546.299 94.0992C547.221 94.7448 547.928 95.6755 548.409 96.9258L549.578 96.4763ZM547.049 93.0975C545.918 92.1933 544.524 91.5867 542.887 91.2594L542.641 92.4871C544.12 92.7828 545.32 93.3182 546.267 94.0752L547.049 93.0975ZM542.936 91.2713C541.429 90.8407 539.918 90.6243 538.404 90.6243V91.8763C539.797 91.8763 541.192 92.0752 542.592 92.4752L542.936 91.2713ZM538.404 90.6243C535.633 90.6243 533.368 91.1559 531.671 92.2868L532.366 93.3286C533.784 92.383 535.776 91.8763 538.404 91.8763V90.6243ZM531.671 92.2868C529.98 93.4142 529.056 94.8901 529.056 96.7011H530.308C530.308 95.3973 530.942 94.2776 532.366 93.3286L531.671 92.2868ZM529.056 96.7011C529.056 97.8751 529.413 98.9058 530.142 99.756L531.092 98.9411C530.575 98.3378 530.308 97.6035 530.308 96.7011H529.056ZM530.174 99.7912C530.976 100.593 531.994 101.209 533.206 101.65L533.634 100.473C532.562 100.084 531.711 99.5572 531.06 98.9059L530.174 99.7912ZM533.222 101.656C534.497 102.081 535.924 102.45 537.502 102.766L537.748 101.538C536.211 101.231 534.835 100.873 533.618 100.468L533.222 101.656ZM537.51 102.767C539.151 103.075 540.898 103.486 542.752 104.001L543.088 102.794C541.204 102.271 539.421 101.852 537.74 101.536L537.51 102.767ZM542.778 104.007C545.875 104.73 549.025 105.608 552.228 106.641L552.612 105.449C549.378 104.406 546.195 103.519 543.062 102.788L542.778 104.007ZM552.233 106.643C555.506 107.666 558.52 109.045 561.275 110.78L561.942 109.72C559.09 107.925 555.978 106.501 552.607 105.448L552.233 106.643ZM561.289 110.789C564 112.395 566.211 114.604 567.926 117.427L568.996 116.778C567.18 113.787 564.823 111.427 561.927 109.711L561.289 110.789ZM567.931 117.436C569.618 120.116 570.536 123.629 570.638 128.018L571.89 127.989C571.784 123.45 570.833 119.696 568.99 116.769L567.931 117.436ZM570.638 128.004C570.638 132.445 569.379 136.528 566.852 140.268L567.889 140.969C570.554 137.026 571.89 132.699 571.89 128.004H570.638ZM566.856 140.261C564.339 143.887 560.649 146.779 555.751 148.922L556.253 150.069C561.321 147.851 565.211 144.826 567.885 140.976L566.856 140.261ZM555.751 148.922C550.867 151.059 544.884 152.14 537.781 152.14V153.392C545.005 153.392 551.169 152.293 556.253 150.069L555.751 148.922ZM537.781 152.14C529.248 152.14 522.152 150.392 516.458 146.936L515.809 148.006C521.744 151.609 529.079 153.392 537.781 153.392V152.14ZM516.458 146.936C510.809 143.506 507.215 138.212 505.689 130.989L504.464 131.248C506.052 138.769 509.83 144.376 515.809 148.006L516.458 146.936ZM505.224 131.727L525.781 126.744L525.486 125.527L504.929 130.51L505.224 131.727ZM585.001 39.546V38.92H584.375V39.546H585.001ZM607.739 39.546H608.365V38.92H607.739V39.546ZM607.739 81.9062H607.113V83.5587L608.208 82.321L607.739 81.9062ZM616.46 75.3653L616.733 75.9286L616.74 75.9252L616.46 75.3653ZM653.992 87.9799L653.428 88.2504L653.428 88.2504L653.992 87.9799ZM657.574 151.676V152.302H658.2V151.676H657.574ZM633.591 151.676H632.965V152.302H633.591V151.676ZM630.321 97.1683L629.824 97.55L629.829 97.5558L629.834 97.5616L630.321 97.1683ZM611.009 97.7912L610.496 97.4322L610.496 97.4322L611.009 97.7912ZM607.739 151.676V152.302H608.365V151.676H607.739ZM585.001 151.676H584.375V152.302H585.001V151.676ZM585.001 40.1721H607.739V38.92H585.001V40.1721ZM607.113 39.546V81.9062H608.365V39.546H607.113ZM608.208 82.321C610.538 79.6869 613.377 77.5557 616.733 75.9286L616.187 74.8019C612.691 76.4971 609.716 78.7265 607.27 81.4914L608.208 82.321ZM616.74 75.9252C620.172 74.2091 624.072 73.3438 628.452 73.3438V72.0917C623.903 72.0917 619.808 72.9914 616.18 74.8053L616.74 75.9252ZM628.452 73.3438C634.276 73.3438 639.301 74.6201 643.549 77.1491L644.19 76.0732C639.717 73.411 634.463 72.0917 628.452 72.0917V73.3438ZM643.549 77.1491C647.795 79.676 651.088 83.3678 653.428 88.2504L654.557 87.7093C652.121 82.6248 648.666 78.7375 644.19 76.0732L643.549 77.1491ZM653.428 88.2504C655.765 93.1283 656.948 99.104 656.948 106.201H658.2C658.2 98.9702 656.996 92.7985 654.557 87.7093L653.428 88.2504ZM656.948 106.201V151.676H658.2V106.201H656.948ZM657.574 151.05H633.591V152.302H657.574V151.05ZM634.217 151.676V109.004H632.965V151.676H634.217ZM634.217 109.004C634.217 103.738 633.113 99.6292 630.808 96.7749L629.834 97.5616C631.889 100.106 632.965 103.888 632.965 109.004H634.217ZM630.817 96.7866C628.593 93.895 625.218 92.4931 620.821 92.4931V93.7452C624.937 93.7452 627.896 95.0426 629.824 97.55L630.817 96.7866ZM620.821 92.4931C616.29 92.4931 612.812 94.1236 610.496 97.4322L611.522 98.1502C613.567 95.2294 616.63 93.7452 620.821 93.7452V92.4931ZM610.496 97.4322C608.219 100.686 607.113 105.031 607.113 110.406H608.365C608.365 105.19 609.439 101.126 611.522 98.1502L610.496 97.4322ZM607.113 110.406V151.676H608.365V110.406H607.113ZM607.739 151.05H585.001V152.302H607.739V151.05ZM585.628 151.676V39.546H584.375V151.676H585.628ZM676.931 73.8079V73.1819H676.305V73.8079H676.931ZM699.668 73.8079H700.294V73.1819H699.668V73.8079ZM699.668 151.676V152.302H700.294V151.676H699.668ZM676.931 151.676H676.305V152.302H676.931V151.676ZM677.865 62.1277L677.422 62.5704L677.431 62.5792L677.44 62.5877L677.865 62.1277ZM677.865 43.4394L678.299 43.891L678.299 43.8907L677.865 43.4394ZM698.422 43.4394L697.979 43.8821L697.988 43.8909L697.998 43.8994L698.422 43.4394ZM698.422 62.1277L698.856 62.5793L698.856 62.579L698.422 62.1277ZM676.931 74.4339H699.668V73.1819H676.931V74.4339ZM699.042 73.8079V151.676H700.294V73.8079H699.042ZM699.668 151.05H676.931V152.302H699.668V151.05ZM677.557 151.676V73.8079H676.305V151.676H677.557ZM688.299 65.2393C684.173 65.2393 680.855 64.0359 678.29 61.6677L677.44 62.5877C680.274 65.2031 683.912 66.4914 688.299 66.4914V65.2393ZM678.308 61.685C675.828 59.2055 674.598 56.2495 674.598 52.7836H673.346C673.346 56.5853 674.711 59.8587 677.422 62.5704L678.308 61.685ZM674.598 52.7836C674.598 49.2089 675.831 46.2597 678.299 43.891L677.431 42.9878C674.708 45.6027 673.346 48.8829 673.346 52.7836H674.598ZM678.299 43.8907C680.866 41.4228 684.18 40.1721 688.299 40.1721V38.92C683.905 38.92 680.263 40.2649 677.431 42.9881L678.299 43.8907ZM688.299 40.1721C692.31 40.1721 695.517 41.4197 697.979 43.8821L698.865 42.9967C696.136 40.2679 692.595 38.92 688.299 38.92V40.1721ZM697.998 43.8994C700.566 46.2704 701.845 49.2172 701.845 52.7836H703.097C703.097 48.8746 701.677 45.592 698.847 42.9794L697.998 43.8994ZM701.845 52.7836C701.845 56.2413 700.569 59.1948 697.988 61.6764L698.856 62.579C701.674 59.8694 703.097 56.5935 703.097 52.7836H701.845ZM697.989 61.6761C695.528 64.0387 692.317 65.2393 688.299 65.2393V66.4914C692.587 66.4914 696.125 65.2003 698.856 62.5793L697.989 61.6761ZM739.372 139.684L739.341 139.059L738.257 139.113L738.847 140.024L739.372 139.684ZM742.487 139.528H743.113V138.87L742.456 138.903L742.487 139.528ZM742.487 182.823V183.449H743.113V182.823H742.487ZM719.749 182.823H719.123V183.449H719.749V182.823ZM719.749 73.8079V73.1819H719.123V73.8079H719.749ZM740.307 73.8079L740.926 73.7194L740.849 73.1819H740.307V73.8079ZM741.708 83.6193L741.088 83.7078L741.323 85.3496L742.232 83.9623L741.708 83.6193ZM750.741 75.9882L751.027 76.5454L751.038 76.5394L750.741 75.9882ZM781.888 77.7013L781.546 78.2255L781.553 78.2303L781.888 77.7013ZM793.88 91.5618L793.316 91.834L793.322 91.8457L793.88 91.5618ZM794.035 133.922L794.599 134.194L794.599 134.194L794.035 133.922ZM781.888 147.938L782.223 148.467L782.225 148.465L781.888 147.938ZM749.028 148.873L748.696 149.403L748.702 149.407L749.028 148.873ZM769.585 99.0371L769.102 99.4351L769.107 99.4421L769.585 99.0371ZM750.274 95.9224L749.948 95.3876L749.948 95.3876L750.274 95.9224ZM744.511 102.308L743.956 102.019L743.951 102.028L743.947 102.036L744.511 102.308ZM744.511 123.176L743.944 123.44L743.949 123.452L743.956 123.464L744.511 123.176ZM750.274 129.717L749.932 130.241L749.94 130.247L749.948 130.252L750.274 129.717ZM769.585 126.602L769.102 126.204L769.102 126.204L769.585 126.602ZM739.403 140.309L742.518 140.154L742.456 138.903L739.341 139.059L739.403 140.309ZM741.861 139.528V182.823H743.113V139.528H741.861ZM742.487 182.197H719.749V183.449H742.487V182.197ZM720.375 182.823V73.8079H719.123V182.823H720.375ZM719.749 74.4339H740.307V73.1819H719.749V74.4339ZM739.687 73.8964L741.088 83.7078L742.328 83.5307L740.926 73.7194L739.687 73.8964ZM742.232 83.9623C744.131 81.0632 747.049 78.5851 751.026 76.5453L750.455 75.4311C746.335 77.5443 743.23 80.1536 741.184 83.2762L742.232 83.9623ZM751.038 76.5394C754.986 74.4133 759.451 73.3438 764.446 73.3438V72.0917C759.266 72.0917 754.594 73.2025 750.444 75.437L751.038 76.5394ZM764.446 73.3438C770.875 73.3438 776.568 74.9747 781.546 78.2255L782.23 77.1771C777.033 73.7832 771.098 72.0917 764.446 72.0917V73.3438ZM781.553 78.2303C786.531 81.3796 790.454 85.9055 793.316 91.8339L794.443 91.2896C791.491 85.1745 787.42 80.4601 782.223 77.1722L781.553 78.2303ZM793.322 91.8457C796.279 97.6574 797.77 104.616 797.77 112.742H799.022C799.022 104.464 797.503 97.3021 794.438 91.2779L793.322 91.8457ZM797.77 112.742C797.77 120.765 796.33 127.729 793.472 133.65L794.599 134.194C797.555 128.071 799.022 120.915 799.022 112.742H797.77ZM793.472 133.65C790.61 139.576 786.636 144.156 781.551 147.411L782.225 148.465C787.522 145.075 791.646 140.311 794.599 134.194L793.472 133.65ZM781.553 147.409C776.575 150.559 770.879 152.14 764.446 152.14V153.392C771.094 153.392 777.027 151.755 782.223 148.467L781.553 147.409ZM764.446 152.14C758.515 152.14 753.494 150.862 749.354 148.338L748.702 149.407C753.075 152.074 758.333 153.392 764.446 153.392V152.14ZM749.36 148.342C745.272 145.787 742.124 142.785 739.898 139.344L738.847 140.024C741.188 143.643 744.478 146.767 748.696 149.403L749.36 148.342ZM774.571 112.742C774.571 106.924 773.089 102.199 770.062 98.6321L769.107 99.4421C771.895 102.727 773.319 107.139 773.319 112.742H774.571ZM770.068 98.6391C767.039 94.9611 763.071 93.116 758.216 93.116V94.3681C762.706 94.3681 766.316 96.053 769.102 99.4351L770.068 98.6391ZM758.216 93.116C755.199 93.116 752.438 93.8719 749.948 95.3876L750.599 96.4571C752.885 95.0658 755.419 94.3681 758.216 94.3681V93.116ZM749.948 95.3876C747.45 96.9082 745.455 99.1279 743.956 102.019L745.067 102.596C746.475 99.8807 748.321 97.8437 750.599 96.4571L749.948 95.3876ZM743.947 102.036C742.546 104.947 741.861 108.525 741.861 112.742H743.113C743.113 108.653 743.778 105.274 745.075 102.579L743.947 102.036ZM741.861 112.742C741.861 116.859 742.547 120.431 743.944 123.44L745.079 122.913C743.777 120.107 743.113 116.723 743.113 112.742H741.861ZM743.956 123.464C745.453 126.353 747.444 128.619 749.932 130.241L750.616 129.193C748.328 127.7 746.476 125.606 745.067 122.888L743.956 123.464ZM749.948 130.252C752.438 131.767 755.199 132.523 758.216 132.523V131.271C755.419 131.271 752.885 130.574 750.599 129.182L749.948 130.252ZM758.216 132.523C763.071 132.523 767.039 130.678 770.068 127L769.102 126.204C766.316 129.586 762.706 131.271 758.216 131.271V132.523ZM770.068 127C773.089 123.333 774.571 118.56 774.571 112.742H773.319C773.319 118.344 771.895 122.812 769.102 126.204L770.068 127Z" fill="black" mask="url(#path-1-outside-1_1_278)"/>
<path d="M33.6389 38.985V127.91H81.6055V148H9.65562V38.985H33.6389ZM129.716 149.09C121.721 149.09 114.765 147.429 108.847 144.107C102.929 140.68 98.309 135.905 94.9866 129.779C91.7681 123.653 90.1588 116.489 90.1588 108.287C90.1588 100.708 91.7681 93.9597 94.9866 88.0417C98.2052 82.1238 102.722 77.5036 108.536 74.1812C114.35 70.7551 120.943 69.042 128.314 69.042C136.101 69.042 142.849 70.6512 148.56 73.8698C154.27 76.9845 158.734 81.4489 161.953 87.263C165.172 93.0772 166.781 99.8257 166.781 107.509C166.781 108.755 166.729 110.052 166.625 111.402C166.521 112.752 166.366 114.257 166.158 115.918H114.454C114.973 118.722 115.959 121.162 117.413 123.238C118.866 125.211 120.683 126.768 122.863 127.91C125.147 128.948 127.743 129.467 130.65 129.467C133.869 129.467 136.776 128.793 139.371 127.443C141.967 126.093 143.888 124.172 145.134 121.681L165.535 127.287C162.42 134.243 157.748 139.642 151.519 143.484C145.289 147.221 138.022 149.09 129.716 149.09ZM142.019 101.124C141.915 98.5279 141.24 96.2438 139.994 94.2712C138.748 92.2985 137.139 90.7411 135.166 89.5991C133.194 88.457 131.014 87.9379 128.626 88.0417C126.238 88.1456 124.057 88.7685 122.085 89.9106C120.216 90.9488 118.607 92.4542 117.257 94.4269C115.907 96.2957 115.077 98.5279 114.765 101.124H142.019ZM225.586 148L224.028 138.344C221.329 141.667 218.422 144.262 215.307 146.131C212.192 148 208.039 148.934 202.848 148.934C197.969 148.934 193.608 148.104 189.766 146.443C185.925 144.678 182.862 142.134 180.578 138.812C178.398 135.489 177.308 131.492 177.308 126.82C177.308 120.383 179.592 115.036 184.16 110.779C188.832 106.522 196.048 103.875 205.807 102.837L224.028 100.812V95.6728C224.028 93.9078 223.146 92.1947 221.381 90.5335C219.72 88.7685 217.072 87.886 213.438 87.886C210.22 87.886 207.417 88.7166 205.029 90.3778C202.744 92.0389 201.187 94.4269 200.356 97.5416L180.89 90.5335C183.174 83.5773 187.171 78.2823 192.881 74.6485C198.695 70.9108 205.859 69.042 214.373 69.042C224.963 69.042 233.009 71.6895 238.512 76.9845C244.014 82.2795 246.766 89.3914 246.766 98.3203V148H225.586ZM224.028 114.828L209.545 116.541C206.638 116.957 204.406 117.891 202.848 119.345C201.395 120.694 200.668 122.407 200.668 124.484C200.668 126.457 201.499 128.118 203.16 129.467C204.821 130.817 207.105 131.492 210.012 131.492C212.919 131.492 215.411 130.921 217.487 129.779C219.564 128.533 221.173 126.82 222.315 124.64C223.457 122.356 224.028 119.552 224.028 116.23V114.828ZM318.758 82.1238L315.644 82.2795V35.8702H338.381V148H317.824L316.422 138.189C314.346 141.2 311.283 143.795 307.234 145.975C303.185 148.052 298.668 149.09 293.685 149.09C287.144 149.09 281.278 147.481 276.087 144.262C270.999 140.94 267.002 136.268 264.095 130.246C261.188 124.224 259.734 117.164 259.734 109.066C259.734 100.864 261.188 93.804 264.095 87.886C267.002 81.8642 270.999 77.244 276.087 74.0255C281.174 70.7031 287.04 69.042 293.685 69.042C299.603 69.042 304.69 70.3398 308.947 72.9354C313.204 75.4271 316.474 78.4899 318.758 82.1238ZM284.185 109.066C284.185 114.776 285.638 119.397 288.546 122.927C291.453 126.353 295.242 128.066 299.914 128.066C302.717 128.066 305.313 127.339 307.701 125.886C310.089 124.432 312.01 122.304 313.463 119.5C314.917 116.697 315.644 113.219 315.644 109.066C315.644 104.913 314.917 101.435 313.463 98.6318C312.01 95.8285 310.089 93.7001 307.701 92.2466C305.313 90.6892 302.717 89.9106 299.914 89.9106C295.138 89.9106 291.297 91.6756 288.39 95.2056C285.587 98.7356 284.185 103.356 284.185 109.066ZM391.759 149.09C383.765 149.09 376.809 147.429 370.891 144.107C364.973 140.68 360.353 135.905 357.03 129.779C353.812 123.653 352.203 116.489 352.203 108.287C352.203 100.708 353.812 93.9597 357.03 88.0417C360.249 82.1238 364.765 77.5036 370.579 74.1812C376.393 70.7551 382.986 69.042 390.358 69.042C398.145 69.042 404.893 70.6512 410.603 73.8698C416.314 76.9845 420.778 81.4489 423.997 87.263C427.215 93.0772 428.825 99.8257 428.825 107.509C428.825 108.755 428.773 110.052 428.669 111.402C428.565 112.752 428.409 114.257 428.202 115.918H376.497C377.016 118.722 378.003 121.162 379.456 123.238C380.91 125.211 382.727 126.768 384.907 127.91C387.191 128.948 389.787 129.467 392.694 129.467C395.912 129.467 398.819 128.793 401.415 127.443C404.011 126.093 405.931 124.172 407.177 121.681L427.579 127.287C424.464 134.243 419.792 139.642 413.562 143.484C407.333 147.221 400.065 149.09 391.759 149.09ZM404.063 101.124C403.959 98.5279 403.284 96.2438 402.038 94.2712C400.792 92.2985 399.183 90.7411 397.21 89.5991C395.238 88.457 393.057 87.9379 390.669 88.0417C388.281 88.1456 386.101 88.7685 384.128 89.9106C382.26 90.9488 380.65 92.4542 379.301 94.4269C377.951 96.2957 377.12 98.5279 376.809 101.124H404.063ZM442.622 70.1321H463.335L464.892 80.4107C466.865 77.7113 469.201 75.479 471.9 73.714C474.703 71.8452 477.766 70.5993 481.088 69.9764C484.515 69.3534 488.252 69.4053 492.301 70.1321V91.6237C489.602 90.6892 486.695 90.4297 483.58 90.845C480.466 91.1564 477.507 92.1947 474.703 93.9597C471.9 95.6209 469.616 98.1126 467.851 101.435C466.19 104.757 465.359 108.962 465.359 114.05V148H442.622V70.1321ZM520.891 122.459C521.41 124.536 522.241 126.145 523.383 127.287C524.629 128.429 526.082 129.26 527.743 129.779C529.405 130.298 531.118 130.558 532.883 130.558C536.101 130.558 538.593 129.987 540.358 128.845C542.123 127.702 543.006 126.249 543.006 124.484C543.006 122.719 542.331 121.421 540.981 120.591C539.735 119.656 538.074 118.929 535.997 118.41C533.921 117.787 531.741 117.216 529.457 116.697C526.861 116.074 523.954 115.347 520.735 114.517C517.517 113.582 514.454 112.337 511.547 110.779C508.64 109.118 506.252 106.938 504.383 104.238C502.514 101.435 501.58 97.9569 501.58 93.804C501.58 89.0281 502.878 84.7713 505.473 81.0336C508.069 77.296 511.755 74.3889 516.531 72.3124C521.306 70.1321 526.965 69.042 533.506 69.042C541.5 69.042 548.041 70.7031 553.128 74.0255C558.216 77.3479 561.85 82.0199 564.03 88.0417L544.251 93.0253C543.732 91.6756 542.954 90.6373 541.915 89.9106C540.877 89.08 539.579 88.5089 538.022 88.1975C536.569 87.7822 535.115 87.5745 533.661 87.5745C530.962 87.5745 528.834 88.0936 527.276 89.1319C525.719 90.1701 524.94 91.4679 524.94 93.0253C524.94 94.0635 525.252 94.946 525.875 95.6728C526.601 96.3995 527.536 96.9706 528.678 97.3859C529.924 97.8012 531.325 98.1646 532.883 98.476C534.544 98.7875 536.309 99.2028 538.178 99.7219C541.292 100.449 544.459 101.331 547.678 102.369C551 103.408 554.063 104.809 556.866 106.574C559.669 108.235 561.953 110.52 563.718 113.427C565.483 116.23 566.418 119.864 566.522 124.328C566.522 128.896 565.224 133.101 562.628 136.943C560.033 140.68 556.243 143.639 551.26 145.82C546.276 148 540.202 149.09 533.039 149.09C524.421 149.09 517.205 147.325 511.391 143.795C505.577 140.265 501.891 134.814 500.334 127.443L520.891 122.459ZM580.259 35.8702H602.997V78.2304C605.385 75.531 608.292 73.3507 611.718 71.6895C615.248 69.9245 619.245 69.042 623.71 69.042C629.628 69.042 634.767 70.3398 639.127 72.9354C643.488 75.531 646.862 79.3205 649.25 84.3041C651.638 89.2876 652.832 95.3613 652.832 102.525V148H628.849V105.328C628.849 100.137 627.759 96.1919 625.578 93.4925C623.502 90.7931 620.335 89.4434 616.079 89.4434C611.718 89.4434 608.447 91.0007 606.267 94.1154C604.087 97.2301 602.997 101.435 602.997 106.73V148H580.259V35.8702ZM672.188 70.1321H694.926V148H672.188V70.1321ZM683.557 62.1896C679.3 62.1896 675.822 60.9437 673.123 58.4519C670.527 55.8563 669.229 52.7416 669.229 49.1078C669.229 45.3701 670.527 42.2554 673.123 39.7636C675.822 37.168 679.3 35.8702 683.557 35.8702C687.71 35.8702 691.084 37.168 693.68 39.7636C696.379 42.2554 697.729 45.3701 697.729 49.1078C697.729 52.7416 696.379 55.8563 693.68 58.4519C691.084 60.9437 687.71 62.1896 683.557 62.1896ZM734.63 136.008L737.745 135.853V179.147H715.007V70.1321H735.564L736.966 79.9435C738.939 76.9326 741.95 74.3889 745.999 72.3124C750.048 70.1321 754.616 69.042 759.703 69.042C766.244 69.042 772.058 70.7031 777.146 74.0255C782.233 77.244 786.23 81.8642 789.137 87.886C792.148 93.804 793.654 100.864 793.654 109.066C793.654 117.164 792.2 124.224 789.293 130.246C786.386 136.268 782.337 140.94 777.146 144.262C772.058 147.481 766.244 149.09 759.703 149.09C753.682 149.09 748.542 147.792 744.286 145.197C740.133 142.601 736.914 139.538 734.63 136.008ZM769.203 109.066C769.203 103.356 767.75 98.7875 764.843 95.3613C761.936 91.8313 758.146 90.0663 753.474 90.0663C750.567 90.0663 747.919 90.7931 745.531 92.2466C743.143 93.7001 741.223 95.8285 739.769 98.6318C738.419 101.435 737.745 104.913 737.745 109.066C737.745 113.115 738.419 116.593 739.769 119.5C741.223 122.304 743.143 124.484 745.531 126.041C747.919 127.495 750.567 128.222 753.474 128.222C758.146 128.222 761.936 126.457 764.843 122.927C767.75 119.397 769.203 114.776 769.203 109.066Z" fill="black"/>
</svg>
