<svg width="643" height="415" viewBox="0 0 643 415" fill="none" xmlns="http://www.w3.org/2000/svg">
<path d="M53.8203 4V30.0959" stroke="url(#paint0_linear_9659_6794)" stroke-width="4.67057" stroke-linecap="round"/>
<path d="M18.2344 18.2324L36.4765 36.8931" stroke="url(#paint1_linear_9659_6794)" stroke-width="4.67057" stroke-linecap="round"/>
<path d="M4 53.8203L30.0959 53.8203" stroke="url(#paint2_linear_9659_6794)" stroke-width="4.67057" stroke-linecap="round"/>
<mask id="path-4-outside-1_9659_6794" maskUnits="userSpaceOnUse" x="50.8672" y="53.8672" width="593" height="119" fill="black">
<rect fill="white" x="50.8672" y="53.8672" width="593" height="119"/>
<path d="M77.7232 55.6672V150.453H128.851V171.867H52.1592V55.6672H77.7232ZM142.616 55.6672H168.18V171.867H142.616V55.6672ZM188.655 55.6672H272.983V77.0812H214.219V102.811H258.209V123.063H214.219V171.867H188.655V55.6672ZM372.032 77.0812H313.268V102.811H357.258V123.063H313.268V150.453H372.032V171.867H287.704V55.6672H372.032V77.0812ZM491.984 77.0812H486.174L452.974 171.867H426.58L468.578 55.6672H510.078L551.91 171.867H525.516L491.984 77.0812ZM454.634 125.387H522.362V146.801H454.634V125.387ZM545.013 55.6672H642.621V77.0812H606.599V171.867H581.035V77.0812H545.013V55.6672Z"/>
</mask>
<path d="M77.7232 55.6672H78.7232V54.6672H77.7232V55.6672ZM77.7232 150.453H76.7232V151.453H77.7232V150.453ZM128.851 150.453H129.851V149.453H128.851V150.453ZM128.851 171.867V172.867H129.851V171.867H128.851ZM52.1592 171.867H51.1592V172.867H52.1592V171.867ZM52.1592 55.6672V54.6672H51.1592V55.6672H52.1592ZM76.7232 55.6672V150.453H78.7232V55.6672H76.7232ZM77.7232 151.453H128.851V149.453H77.7232V151.453ZM127.851 150.453V171.867H129.851V150.453H127.851ZM128.851 170.867H52.1592V172.867H128.851V170.867ZM53.1592 171.867V55.6672H51.1592V171.867H53.1592ZM52.1592 56.6672H77.7232V54.6672H52.1592V56.6672ZM142.616 55.6672V54.6672H141.616V55.6672H142.616ZM168.18 55.6672H169.18V54.6672H168.18V55.6672ZM168.18 171.867V172.867H169.18V171.867H168.18ZM142.616 171.867H141.616V172.867H142.616V171.867ZM142.616 56.6672H168.18V54.6672H142.616V56.6672ZM167.18 55.6672V171.867H169.18V55.6672H167.18ZM168.18 170.867H142.616V172.867H168.18V170.867ZM143.616 171.867V55.6672H141.616V171.867H143.616ZM188.655 55.6672V54.6672H187.655V55.6672H188.655ZM272.983 55.6672H273.983V54.6672H272.983V55.6672ZM272.983 77.0812V78.0812H273.983V77.0812H272.983ZM214.219 77.0812V76.0812H213.219V77.0812H214.219ZM214.219 102.811H213.219V103.811H214.219V102.811ZM258.209 102.811H259.209V101.811H258.209V102.811ZM258.209 123.063V124.063H259.209V123.063H258.209ZM214.219 123.063V122.063H213.219V123.063H214.219ZM214.219 171.867V172.867H215.219V171.867H214.219ZM188.655 171.867H187.655V172.867H188.655V171.867ZM188.655 56.6672H272.983V54.6672H188.655V56.6672ZM271.983 55.6672V77.0812H273.983V55.6672H271.983ZM272.983 76.0812H214.219V78.0812H272.983V76.0812ZM213.219 77.0812V102.811H215.219V77.0812H213.219ZM214.219 103.811H258.209V101.811H214.219V103.811ZM257.209 102.811V123.063H259.209V102.811H257.209ZM258.209 122.063H214.219V124.063H258.209V122.063ZM213.219 123.063V171.867H215.219V123.063H213.219ZM214.219 170.867H188.655V172.867H214.219V170.867ZM189.655 171.867V55.6672H187.655V171.867H189.655ZM372.032 77.0812V78.0812H373.032V77.0812H372.032ZM313.268 77.0812V76.0812H312.268V77.0812H313.268ZM313.268 102.811H312.268V103.811H313.268V102.811ZM357.258 102.811H358.258V101.811H357.258V102.811ZM357.258 123.063V124.063H358.258V123.063H357.258ZM313.268 123.063V122.063H312.268V123.063H313.268ZM313.268 150.453H312.268V151.453H313.268V150.453ZM372.032 150.453H373.032V149.453H372.032V150.453ZM372.032 171.867V172.867H373.032V171.867H372.032ZM287.704 171.867H286.704V172.867H287.704V171.867ZM287.704 55.6672V54.6672H286.704V55.6672H287.704ZM372.032 55.6672H373.032V54.6672H372.032V55.6672ZM372.032 76.0812H313.268V78.0812H372.032V76.0812ZM312.268 77.0812V102.811H314.268V77.0812H312.268ZM313.268 103.811H357.258V101.811H313.268V103.811ZM356.258 102.811V123.063H358.258V102.811H356.258ZM357.258 122.063H313.268V124.063H357.258V122.063ZM312.268 123.063V150.453H314.268V123.063H312.268ZM313.268 151.453H372.032V149.453H313.268V151.453ZM371.032 150.453V171.867H373.032V150.453H371.032ZM372.032 170.867H287.704V172.867H372.032V170.867ZM288.704 171.867V55.6672H286.704V171.867H288.704ZM287.704 56.6672H372.032V54.6672H287.704V56.6672ZM371.032 55.6672V77.0812H373.032V55.6672H371.032ZM491.984 77.0812L492.927 76.7477L492.691 76.0812H491.984V77.0812ZM486.174 77.0812V76.0812H485.465L485.23 76.7506L486.174 77.0812ZM452.974 171.867V172.867H453.683L453.918 172.198L452.974 171.867ZM426.58 171.867L425.639 171.527L425.155 172.867H426.58V171.867ZM468.578 55.6672V54.6672H467.876L467.638 55.3273L468.578 55.6672ZM510.078 55.6672L511.019 55.3285L510.781 54.6672H510.078V55.6672ZM551.91 171.867V172.867H553.333L552.851 171.528L551.91 171.867ZM525.516 171.867L524.573 172.201L524.809 172.867H525.516V171.867ZM454.634 125.387V124.387H453.634V125.387H454.634ZM522.362 125.387H523.362V124.387H522.362V125.387ZM522.362 146.801V147.801H523.362V146.801H522.362ZM454.634 146.801H453.634V147.801H454.634V146.801ZM491.984 76.0812H486.174V78.0812H491.984V76.0812ZM485.23 76.7506L452.03 171.537L453.918 172.198L487.118 77.4118L485.23 76.7506ZM452.974 170.867H426.58V172.867H452.974V170.867ZM427.52 172.207L469.518 56.0071L467.638 55.3273L425.639 171.527L427.52 172.207ZM468.578 56.6672H510.078V54.6672H468.578V56.6672ZM509.137 56.0059L550.969 172.206L552.851 171.528L511.019 55.3285L509.137 56.0059ZM551.91 170.867H525.516V172.867H551.91V170.867ZM526.459 171.534L492.927 76.7477L491.041 77.4147L524.573 172.201L526.459 171.534ZM454.634 126.387H522.362V124.387H454.634V126.387ZM521.362 125.387V146.801H523.362V125.387H521.362ZM522.362 145.801H454.634V147.801H522.362V145.801ZM455.634 146.801V125.387H453.634V146.801H455.634ZM545.013 55.6672V54.6672H544.013V55.6672H545.013ZM642.621 55.6672H643.621V54.6672H642.621V55.6672ZM642.621 77.0812V78.0812H643.621V77.0812H642.621ZM606.599 77.0812V76.0812H605.599V77.0812H606.599ZM606.599 171.867V172.867H607.599V171.867H606.599ZM581.035 171.867H580.035V172.867H581.035V171.867ZM581.035 77.0812H582.035V76.0812H581.035V77.0812ZM545.013 77.0812H544.013V78.0812H545.013V77.0812ZM545.013 56.6672H642.621V54.6672H545.013V56.6672ZM641.621 55.6672V77.0812H643.621V55.6672H641.621ZM642.621 76.0812H606.599V78.0812H642.621V76.0812ZM605.599 77.0812V171.867H607.599V77.0812H605.599ZM606.599 170.867H581.035V172.867H606.599V170.867ZM582.035 171.867V77.0812H580.035V171.867H582.035ZM581.035 76.0812H545.013V78.0812H581.035V76.0812ZM546.013 77.0812V55.6672H544.013V77.0812H546.013Z" fill="black" mask="url(#path-4-outside-1_9659_6794)"/>
<path d="M72.856 51.8V146.586H123.984V168H47.292V51.8H72.856ZM137.749 51.8H163.313V168H137.749V51.8ZM183.788 51.8H268.116V73.214H209.352V98.944H253.342V119.196H209.352V168H183.788V51.8ZM367.165 73.214H308.401V98.944H352.391V119.196H308.401V146.586H367.165V168H282.837V51.8H367.165V73.214ZM487.117 73.214H481.307L448.107 168H421.713L463.711 51.8H505.211L547.043 168H520.649L487.117 73.214ZM449.767 121.52H517.495V142.934H449.767V121.52ZM540.146 51.8H637.754V73.214H601.732V168H576.168V73.214H540.146V51.8Z" fill="#6A0600"/>
<mask id="path-7-outside-2_9659_6794" maskUnits="userSpaceOnUse" x="9.86719" y="209.867" width="534" height="121" fill="black">
<rect fill="white" x="9.86719" y="209.867" width="534" height="121"/>
<path d="M60.6432 211.667H86.2072V291.679C86.2072 299.647 84.6025 306.398 81.3932 311.931C78.1839 317.465 73.7572 321.725 68.1132 324.713C62.4692 327.591 55.9399 329.029 48.5252 329.029C38.8972 329.029 30.8739 326.705 24.4552 322.057C18.0365 317.409 13.7759 310.659 11.6732 301.805L34.5812 296.493C35.1345 298.817 36.0199 300.809 37.2372 302.469C38.5652 304.129 40.1145 305.402 41.8852 306.287C43.6559 307.173 45.6479 307.615 47.8612 307.615C50.4065 307.615 52.6199 307.007 54.5012 305.789C56.4932 304.572 57.9872 302.857 58.9832 300.643C60.0899 298.43 60.6432 295.885 60.6432 293.007V211.667ZM162.539 233.081H156.729L123.529 327.867H97.1347L139.133 211.667H180.633L222.465 327.867H196.071L162.539 233.081ZM125.189 281.387H192.917V302.801H125.189V281.387ZM282.985 264.123C286.969 264.123 290.233 263.515 292.779 262.297C295.324 261.08 297.205 259.309 298.423 256.985C299.751 254.551 300.415 251.729 300.415 248.519C300.415 243.761 298.976 239.998 296.099 237.231C293.332 234.465 288.961 233.081 282.985 233.081H259.247V264.123H282.985ZM326.477 248.519C326.477 253.057 325.647 257.539 323.987 261.965C322.437 266.281 319.947 270.265 316.517 273.917C313.197 277.459 308.825 280.281 303.403 282.383C298.091 284.486 291.727 285.537 284.313 285.537H259.247V327.867H233.683V211.667H284.313C293.719 211.667 301.521 213.383 307.719 216.813C314.027 220.133 318.73 224.615 321.829 230.259C324.927 235.793 326.477 241.879 326.477 248.519ZM342.134 211.667H426.462V233.081H367.698V258.811H411.688V279.063H367.698V327.867H342.134V211.667ZM482.056 233.081H476.246L443.046 327.867H416.652L458.65 211.667H500.15L541.982 327.867H515.588L482.056 233.081ZM444.706 281.387H512.434V302.801H444.706V281.387Z"/>
</mask>
<path d="M60.6432 211.667V210.667H59.6432V211.667H60.6432ZM86.2072 211.667H87.2072V210.667H86.2072V211.667ZM81.3932 311.931L82.2582 312.433L81.3932 311.931ZM68.1132 324.713L68.5674 325.604L68.5743 325.601L68.5811 325.597L68.1132 324.713ZM24.4552 322.057L23.8687 322.867L24.4552 322.057ZM11.6732 301.805L11.4473 300.831L10.4679 301.058L10.7003 302.036L11.6732 301.805ZM34.5812 296.493L35.554 296.262L35.3237 295.294L34.3553 295.519L34.5812 296.493ZM37.2372 302.469L36.4308 303.061L36.4432 303.077L36.4563 303.094L37.2372 302.469ZM41.8852 306.287L41.438 307.182L41.8852 306.287ZM54.5012 305.789L53.9797 304.936L53.9688 304.943L53.9579 304.95L54.5012 305.789ZM58.9832 300.643L58.0888 300.196L58.0796 300.214L58.0713 300.233L58.9832 300.643ZM60.6432 212.667H86.2072V210.667H60.6432V212.667ZM85.2072 211.667V291.679H87.2072V211.667H85.2072ZM85.2072 291.679C85.2072 299.514 83.6298 306.082 80.5282 311.429L82.2582 312.433C85.5752 306.714 87.2072 299.781 87.2072 291.679H85.2072ZM80.5282 311.429C77.4126 316.801 73.1235 320.929 67.6453 323.829L68.5811 325.597C74.3909 322.521 78.9551 318.128 82.2582 312.433L80.5282 311.429ZM67.659 323.822C62.1778 326.617 55.8088 328.029 48.5252 328.029V330.029C56.0709 330.029 62.7606 328.564 68.5674 325.604L67.659 323.822ZM48.5252 328.029C39.0616 328.029 31.2558 325.747 25.0417 321.247L23.8687 322.867C30.4919 327.663 38.7327 330.029 48.5252 330.029V328.029ZM25.0417 321.247C18.8455 316.76 14.7022 310.231 12.6461 301.574L10.7003 302.036C12.8496 311.086 17.2276 318.058 23.8687 322.867L25.0417 321.247ZM11.8991 302.779L34.8071 297.467L34.3553 295.519L11.4473 300.831L11.8991 302.779ZM33.6084 296.725C34.1877 299.158 35.1229 301.277 36.4308 303.061L38.0436 301.878C36.9168 300.341 36.0813 298.476 35.554 296.262L33.6084 296.725ZM36.4563 303.094C37.8679 304.858 39.5285 306.227 41.438 307.182L42.3324 305.393C40.7005 304.577 39.2625 303.4 38.0181 301.844L36.4563 303.094ZM41.438 307.182C43.3632 308.144 45.5111 308.615 47.8612 308.615V306.615C45.7846 306.615 43.9485 306.201 42.3324 305.393L41.438 307.182ZM47.8612 308.615C50.5723 308.615 52.98 307.965 55.0444 306.629L53.9579 304.95C52.2597 306.048 50.2407 306.615 47.8612 306.615V308.615ZM55.0226 306.642C57.1935 305.316 58.82 303.443 59.8951 301.054L58.0713 300.233C57.1544 302.27 55.7929 303.828 53.9797 304.936L55.0226 306.642ZM59.8776 301.09C61.0642 298.717 61.6432 296.015 61.6432 293.007H59.6432C59.6432 295.755 59.1155 298.142 58.0888 300.196L59.8776 301.09ZM61.6432 293.007V211.667H59.6432V293.007H61.6432ZM162.539 233.081L163.481 232.748L163.246 232.081H162.539V233.081ZM156.729 233.081V232.081H156.019L155.785 232.751L156.729 233.081ZM123.529 327.867V328.867H124.238L124.472 328.198L123.529 327.867ZM97.1347 327.867L96.1942 327.527L95.7099 328.867H97.1347V327.867ZM139.133 211.667V210.667H138.431L138.192 211.327L139.133 211.667ZM180.633 211.667L181.574 211.328L181.335 210.667H180.633V211.667ZM222.465 327.867V328.867H223.887L223.406 327.528L222.465 327.867ZM196.071 327.867L195.128 328.201L195.364 328.867H196.071V327.867ZM125.189 281.387V280.387H124.189V281.387H125.189ZM192.917 281.387H193.917V280.387H192.917V281.387ZM192.917 302.801V303.801H193.917V302.801H192.917ZM125.189 302.801H124.189V303.801H125.189V302.801ZM162.539 232.081H156.729V234.081H162.539V232.081ZM155.785 232.751L122.585 327.537L124.472 328.198L157.672 233.412L155.785 232.751ZM123.529 326.867H97.1347V328.867H123.529V326.867ZM98.0751 328.207L140.073 212.007L138.192 211.327L96.1942 327.527L98.0751 328.207ZM139.133 212.667H180.633V210.667H139.133V212.667ZM179.692 212.006L221.524 328.206L223.406 327.528L181.574 211.328L179.692 212.006ZM222.465 326.867H196.071V328.867H222.465V326.867ZM197.013 327.534L163.481 232.748L161.596 233.415L195.128 328.201L197.013 327.534ZM125.189 282.387H192.917V280.387H125.189V282.387ZM191.917 281.387V302.801H193.917V281.387H191.917ZM192.917 301.801H125.189V303.801H192.917V301.801ZM126.189 302.801V281.387H124.189V302.801H126.189ZM298.423 256.985L297.545 256.506L297.541 256.514L297.537 256.521L298.423 256.985ZM296.099 237.231L295.392 237.938L295.398 237.945L295.406 237.952L296.099 237.231ZM259.247 233.081V232.081H258.247V233.081H259.247ZM259.247 264.123H258.247V265.123H259.247V264.123ZM323.987 261.965L323.05 261.614L323.045 261.627L323.987 261.965ZM316.517 273.917L315.788 273.233L315.787 273.233L316.517 273.917ZM303.403 282.383L303.041 281.451L303.035 281.453L303.403 282.383ZM259.247 285.537V284.537H258.247V285.537H259.247ZM259.247 327.867V328.867H260.247V327.867H259.247ZM233.683 327.867H232.683V328.867H233.683V327.867ZM233.683 211.667V210.667H232.683V211.667H233.683ZM307.719 216.813L307.234 217.688L307.244 217.693L307.253 217.698L307.719 216.813ZM321.829 230.259L320.952 230.74L320.956 230.748L321.829 230.259ZM282.985 265.123C287.06 265.123 290.486 264.502 293.21 263.199L292.347 261.395C289.98 262.527 286.877 263.123 282.985 263.123V265.123ZM293.21 263.199C295.935 261.896 297.983 259.979 299.308 257.449L297.537 256.521C296.427 258.639 294.713 260.263 292.347 261.395L293.21 263.199ZM299.301 257.464C300.72 254.861 301.415 251.869 301.415 248.519H299.415C299.415 251.588 298.781 254.24 297.545 256.506L299.301 257.464ZM301.415 248.519C301.415 243.545 299.902 239.501 296.792 236.51L295.406 237.952C298.05 240.494 299.415 243.976 299.415 248.519H301.415ZM296.806 236.524C293.773 233.491 289.089 232.081 282.985 232.081V234.081C288.833 234.081 292.891 235.438 295.392 237.938L296.806 236.524ZM282.985 232.081H259.247V234.081H282.985V232.081ZM258.247 233.081V264.123H260.247V233.081H258.247ZM259.247 265.123H282.985V263.123H259.247V265.123ZM325.477 248.519C325.477 252.932 324.67 257.295 323.05 261.614L324.923 262.316C326.623 257.782 327.477 253.181 327.477 248.519H325.477ZM323.045 261.627C321.547 265.803 319.133 269.671 315.788 273.233L317.245 274.602C320.761 270.859 323.328 266.76 324.928 262.303L323.045 261.627ZM315.787 273.233C312.588 276.646 308.351 279.392 303.041 281.451L303.764 283.316C309.299 281.169 313.805 278.271 317.246 274.601L315.787 273.233ZM303.035 281.453C297.869 283.498 291.637 284.537 284.313 284.537V286.537C291.818 286.537 298.312 285.474 303.771 283.313L303.035 281.453ZM284.313 284.537H259.247V286.537H284.313V284.537ZM258.247 285.537V327.867H260.247V285.537H258.247ZM259.247 326.867H233.683V328.867H259.247V326.867ZM234.683 327.867V211.667H232.683V327.867H234.683ZM233.683 212.667H284.313V210.667H233.683V212.667ZM284.313 212.667C293.603 212.667 301.226 214.362 307.234 217.688L308.203 215.938C301.817 212.403 293.835 210.667 284.313 210.667V212.667ZM307.253 217.698C313.407 220.937 317.958 225.287 320.952 230.74L322.705 229.778C319.502 223.944 314.647 219.329 308.184 215.928L307.253 217.698ZM320.956 230.748C323.967 236.125 325.477 242.042 325.477 248.519H327.477C327.477 241.716 325.887 235.46 322.701 229.771L320.956 230.748ZM342.134 211.667V210.667H341.134V211.667H342.134ZM426.462 211.667H427.462V210.667H426.462V211.667ZM426.462 233.081V234.081H427.462V233.081H426.462ZM367.698 233.081V232.081H366.698V233.081H367.698ZM367.698 258.811H366.698V259.811H367.698V258.811ZM411.688 258.811H412.688V257.811H411.688V258.811ZM411.688 279.063V280.063H412.688V279.063H411.688ZM367.698 279.063V278.063H366.698V279.063H367.698ZM367.698 327.867V328.867H368.698V327.867H367.698ZM342.134 327.867H341.134V328.867H342.134V327.867ZM342.134 212.667H426.462V210.667H342.134V212.667ZM425.462 211.667V233.081H427.462V211.667H425.462ZM426.462 232.081H367.698V234.081H426.462V232.081ZM366.698 233.081V258.811H368.698V233.081H366.698ZM367.698 259.811H411.688V257.811H367.698V259.811ZM410.688 258.811V279.063H412.688V258.811H410.688ZM411.688 278.063H367.698V280.063H411.688V278.063ZM366.698 279.063V327.867H368.698V279.063H366.698ZM367.698 326.867H342.134V328.867H367.698V326.867ZM343.134 327.867V211.667H341.134V327.867H343.134ZM482.056 233.081L482.999 232.748L482.763 232.081H482.056V233.081ZM476.246 233.081V232.081H475.537L475.302 232.751L476.246 233.081ZM443.046 327.867V328.867H443.756L443.99 328.198L443.046 327.867ZM416.652 327.867L415.712 327.527L415.228 328.867H416.652V327.867ZM458.65 211.667V210.667H457.948L457.71 211.327L458.65 211.667ZM500.15 211.667L501.091 211.328L500.853 210.667H500.15V211.667ZM541.982 327.867V328.867H543.405L542.923 327.528L541.982 327.867ZM515.588 327.867L514.646 328.201L514.881 328.867H515.588V327.867ZM444.706 281.387V280.387H443.706V281.387H444.706ZM512.434 281.387H513.434V280.387H512.434V281.387ZM512.434 302.801V303.801H513.434V302.801H512.434ZM444.706 302.801H443.706V303.801H444.706V302.801ZM482.056 232.081H476.246V234.081H482.056V232.081ZM475.302 232.751L442.102 327.537L443.99 328.198L477.19 233.412L475.302 232.751ZM443.046 326.867H416.652V328.867H443.046V326.867ZM417.593 328.207L459.591 212.007L457.71 211.327L415.712 327.527L417.593 328.207ZM458.65 212.667H500.15V210.667H458.65V212.667ZM499.209 212.006L541.041 328.206L542.923 327.528L501.091 211.328L499.209 212.006ZM541.982 326.867H515.588V328.867H541.982V326.867ZM516.531 327.534L482.999 232.748L481.113 233.415L514.646 328.201L516.531 327.534ZM444.706 282.387H512.434V280.387H444.706V282.387ZM511.434 281.387V302.801H513.434V281.387H511.434ZM512.434 301.801H444.706V303.801H512.434V301.801ZM445.706 302.801V281.387H443.706V302.801H445.706Z" fill="black" mask="url(#path-7-outside-2_9659_6794)"/>
<path d="M55.776 207.8H81.34V287.812C81.34 295.78 79.7353 302.531 76.526 308.064C73.3167 313.597 68.89 317.858 63.246 320.846C57.602 323.723 51.0727 325.162 43.658 325.162C34.03 325.162 26.0067 322.838 19.588 318.19C13.1693 313.542 8.90867 306.791 6.806 297.938L29.714 292.626C30.2673 294.95 31.1527 296.942 32.37 298.602C33.698 300.262 35.2473 301.535 37.018 302.42C38.7887 303.305 40.7807 303.748 42.994 303.748C45.5393 303.748 47.7527 303.139 49.634 301.922C51.626 300.705 53.12 298.989 54.116 296.776C55.2227 294.563 55.776 292.017 55.776 289.14V207.8ZM157.671 229.214H151.861L118.661 324H92.2675L134.265 207.8H175.765L217.597 324H191.203L157.671 229.214ZM120.321 277.52H188.049V298.934H120.321V277.52ZM278.117 260.256C282.101 260.256 285.366 259.647 287.911 258.43C290.457 257.213 292.338 255.442 293.555 253.118C294.883 250.683 295.547 247.861 295.547 244.652C295.547 239.893 294.109 236.131 291.231 233.364C288.465 230.597 284.093 229.214 278.117 229.214H254.379V260.256H278.117ZM321.609 244.652C321.609 249.189 320.779 253.671 319.119 258.098C317.57 262.414 315.08 266.398 311.649 270.05C308.329 273.591 303.958 276.413 298.535 278.516C293.223 280.619 286.86 281.67 279.445 281.67H254.379V324H228.815V207.8H279.445C288.852 207.8 296.654 209.515 302.851 212.946C309.159 216.266 313.863 220.748 316.961 226.392C320.06 231.925 321.609 238.012 321.609 244.652ZM337.267 207.8H421.595V229.214H362.831V254.944H406.821V275.196H362.831V324H337.267V207.8ZM477.189 229.214H471.379L438.179 324H411.785L453.783 207.8H495.283L537.115 324H510.721L477.189 229.214ZM439.839 277.52H507.567V298.934H439.839V277.52Z" fill="url(#paint3_linear_9659_6794)"/>
<path d="M577.501 261.074V269.721C577.501 272.436 579.985 274.472 582.646 273.939C583.846 273.699 585.092 273.982 586.071 274.716L587.64 275.893C589.2 277.063 591.262 277.321 593.062 276.571L594.348 276.035C595.244 275.661 596.267 275.761 597.075 276.299C598.967 277.56 601.508 276.256 601.587 273.984L601.774 268.556C601.838 266.692 602.798 264.955 604.332 263.893C606.47 262.413 609.356 262.509 611.368 264.155C612.499 265.08 613.241 266.396 613.447 267.842L613.871 270.809C613.999 271.705 614.037 272.611 613.984 273.514L612.189 304.031C612.189 305.281 611.157 309.656 607.032 317.156C605.249 320.398 601.884 322.53 598.171 323.894C589.505 327.077 580.045 324.767 570.939 323.25C565.314 322.312 559.22 308.718 557.814 305.906C557.241 304.761 557.049 302.679 557.039 300.559C557.024 297.04 558.744 293.799 561.298 291.38C564.445 288.398 566.151 284.204 565.983 279.871C565.673 271.865 565.314 262.143 565.314 260.437C565.314 257.625 569.064 254.344 571.876 253.875C573.003 253.687 574.176 254.275 575.185 255.086C576.938 256.494 577.501 258.825 577.501 261.074Z" fill="url(#paint4_linear_9659_6794)"/>
<path d="M608.186 260.766H607.094C605.3 260.756 603.575 261.458 602.297 262.717C601.02 263.977 600.294 265.692 600.28 267.487V275.038C599.272 274.372 598.09 274.018 596.882 274.021H594.558C593.065 274.019 591.622 274.56 590.497 275.542C589.979 274.518 589.188 273.657 588.211 273.054C587.234 272.451 586.11 272.13 584.962 272.126H582.628C581.424 272.128 580.246 272.482 579.24 273.143V258.712C579.223 256.918 578.495 255.204 577.216 253.946C575.936 252.688 574.211 251.988 572.416 252H571.334C570.443 251.991 569.559 252.156 568.732 252.488C567.906 252.821 567.153 253.312 566.516 253.936C565.88 254.559 565.373 255.302 565.024 256.121C564.675 256.941 564.491 257.821 564.482 258.712V286.716L559.283 291.01C555.988 293.735 554.616 296.685 555.092 300.008C555.092 300.13 555.138 300.251 555.157 300.372C555.846 305.603 557.703 310.612 560.59 315.028C565.668 323.233 574.983 327.937 585.401 327.937C587.684 327.944 589.962 327.734 592.205 327.312C597.934 326.32 603.216 323.581 607.327 319.471C613.703 312.853 615 305.105 615 295.509V267.505C614.995 266.615 614.815 265.735 614.47 264.915C614.125 264.094 613.621 263.35 612.989 262.724C612.356 262.098 611.606 261.603 610.782 261.267C609.958 260.931 609.076 260.761 608.186 260.766ZM594.558 276.793H596.882C597.783 276.793 598.647 277.151 599.284 277.788C599.922 278.426 600.28 279.29 600.28 280.191V293.259C600.28 294.16 599.922 295.025 599.284 295.662C598.647 296.299 597.783 296.657 596.882 296.657H594.558C593.657 296.657 592.792 296.299 592.155 295.662C591.518 295.025 591.16 294.16 591.16 293.259V280.191C591.16 279.29 591.518 278.426 592.155 277.788C592.792 277.151 593.657 276.793 594.558 276.793ZM582.628 274.926H584.962C585.863 274.926 586.727 275.284 587.364 275.921C588.002 276.559 588.36 277.423 588.36 278.324V293.259C588.36 293.702 588.271 294.14 588.098 294.548C588.075 294.613 588.043 294.676 588.005 294.734C587.949 294.857 587.883 294.976 587.809 295.089C587.768 295.158 587.721 295.224 587.669 295.285C587.596 295.385 587.518 295.482 587.436 295.574L587.249 295.752C587.162 295.837 587.068 295.915 586.969 295.985L586.763 296.125L586.427 296.312L586.213 296.414L585.811 296.536L585.606 296.592C585.394 296.633 585.178 296.655 584.962 296.657H582.628C581.729 296.655 580.867 296.296 580.232 295.659C579.597 295.022 579.24 294.159 579.24 293.259V292.326L582.684 288.853C582.683 288.829 582.683 288.804 582.684 288.779C583.778 287.557 584.343 285.951 584.256 284.314C584.168 282.676 583.435 281.14 582.218 280.042L581.489 279.407C580.847 278.828 580.086 278.398 579.259 278.147C579.297 277.276 579.668 276.454 580.295 275.85C580.922 275.245 581.757 274.905 582.628 274.898V274.926ZM567.283 258.712C567.29 258.191 567.4 257.677 567.606 257.198C567.812 256.719 568.11 256.286 568.484 255.923C568.858 255.56 569.299 255.274 569.783 255.081C570.267 254.889 570.785 254.793 571.306 254.801H572.416C572.937 254.793 573.455 254.889 573.939 255.081C574.423 255.274 574.865 255.56 575.238 255.923C575.612 256.286 575.91 256.719 576.116 257.198C576.322 257.677 576.432 258.191 576.44 258.712V277.923C575.049 278.133 573.771 278.812 572.818 279.846L567.283 284.373V258.712ZM612.172 295.49C612.172 304.405 611.005 311.564 605.283 317.511C601.576 321.191 596.823 323.636 591.673 324.512C579.8 326.808 568.533 322.495 562.979 313.534C559.815 308.484 558.882 305.488 557.948 299.822C557.677 298.3 557.743 295.966 561.131 293.157L574.713 281.955L574.871 281.796C575.472 281.126 576.312 280.719 577.211 280.665C578.109 280.611 578.993 280.914 579.669 281.507L580.388 282.151C581.061 282.746 581.47 283.583 581.526 284.479C581.582 285.375 581.28 286.257 580.687 286.93L569.355 298.207C569.224 298.336 569.12 298.49 569.049 298.66C568.978 298.83 568.941 299.012 568.941 299.196C568.941 299.38 568.978 299.562 569.049 299.732C569.12 299.902 569.224 300.056 569.355 300.186C569.484 300.317 569.638 300.421 569.808 300.492C569.978 300.562 570.16 300.598 570.344 300.596C570.708 300.611 571.062 300.484 571.334 300.242L576.066 295.509C577.875 296.87 579.349 298.626 580.376 300.643C581.404 302.661 581.957 304.886 581.994 307.149C581.994 307.521 582.141 307.877 582.404 308.139C582.666 308.402 583.022 308.549 583.394 308.549C583.765 308.549 584.121 308.402 584.384 308.139C584.646 307.877 584.794 307.521 584.794 307.149C584.785 304.462 584.145 301.815 582.927 299.42H584.981C585.307 299.408 585.631 299.371 585.951 299.308H586.082C586.398 299.244 586.71 299.159 587.015 299.056L587.165 299C587.459 298.891 587.743 298.757 588.014 298.599L588.117 298.533C588.398 298.366 588.666 298.179 588.92 297.973C589.181 297.75 589.424 297.506 589.648 297.245L589.722 297.171C590.303 297.882 591.035 298.456 591.865 298.85C592.695 299.244 593.602 299.448 594.52 299.448H596.845C598.488 299.446 600.063 298.792 601.225 297.63C602.386 296.468 603.04 294.893 603.043 293.25V267.487C603.049 266.966 603.157 266.451 603.362 265.972C603.567 265.493 603.865 265.059 604.237 264.695C604.61 264.331 605.051 264.044 605.535 263.85C606.018 263.656 606.535 263.56 607.056 263.566H608.149C608.67 263.56 609.187 263.656 609.67 263.85C610.154 264.044 610.595 264.331 610.967 264.695C611.34 265.059 611.638 265.493 611.843 265.972C612.048 266.451 612.156 266.966 612.162 267.487L612.172 295.49Z" fill="#6A0600" stroke="#6A0600" stroke-width="0.9375"/>
<path d="M31.32 387.267C30.3067 385.267 28.96 383.801 27.28 382.867C25.6 381.907 23.7333 381.427 21.68 381.427C19.6533 381.427 17.8267 381.894 16.2 382.827C14.5733 383.761 13.2933 385.081 12.36 386.787C11.4267 388.494 10.96 390.521 10.96 392.867C10.96 395.187 11.4267 397.201 12.36 398.907C13.2933 400.614 14.5733 401.934 16.2 402.867C17.8267 403.801 19.6533 404.267 21.68 404.267C23.2 404.267 24.6133 404.014 25.92 403.507C27.2267 402.974 28.36 402.227 29.32 401.267C30.28 400.281 31.0133 399.107 31.52 397.747V394.507H21.92V391.907H34.76V397.907C34.1467 399.694 33.2133 401.281 31.96 402.667C30.7067 404.054 29.2 405.147 27.44 405.947C25.68 406.747 23.76 407.147 21.68 407.147C19.7067 407.147 17.8667 406.801 16.16 406.107C14.48 405.414 13 404.441 11.72 403.187C10.4667 401.907 9.48 400.401 8.76 398.667C8.06667 396.907 7.72 394.974 7.72 392.867C7.72 390.761 8.06667 388.841 8.76 387.107C9.48 385.347 10.4667 383.841 11.72 382.587C13 381.307 14.48 380.321 16.16 379.627C17.8667 378.934 19.7067 378.587 21.68 378.587C23.52 378.587 25.24 378.894 26.84 379.507C28.4667 380.094 29.9067 380.961 31.16 382.107C32.4133 383.227 33.4 384.601 34.12 386.227L31.32 387.267ZM39.8613 386.867H42.6213L42.7813 389.787C43.3146 389.067 43.9546 388.454 44.7013 387.947C45.4746 387.441 46.3146 387.094 47.2213 386.907C48.1546 386.694 49.1413 386.681 50.1813 386.867V389.867C49.0613 389.654 48.0479 389.654 47.1413 389.867C46.2613 390.081 45.5013 390.481 44.8613 391.067C44.2213 391.654 43.7279 392.401 43.3813 393.307C43.0346 394.187 42.8613 395.214 42.8613 396.387V406.867H39.8613V386.867ZM62.5247 407.147C60.6314 407.147 58.938 406.734 57.4447 405.907C55.9514 405.081 54.778 403.907 53.9247 402.387C53.0714 400.841 52.6447 399.014 52.6447 396.907C52.6447 394.774 53.0714 392.934 53.9247 391.387C54.8047 389.841 55.9914 388.654 57.4847 387.827C59.0047 387.001 60.7114 386.587 62.6047 386.587C64.498 386.587 66.1914 387.001 67.6847 387.827C69.2047 388.654 70.3914 389.841 71.2447 391.387C72.1247 392.907 72.5647 394.721 72.5647 396.827C72.5647 398.961 72.1247 400.801 71.2447 402.347C70.3647 403.894 69.1647 405.081 67.6447 405.907C66.1247 406.734 64.418 407.147 62.5247 407.147ZM62.4847 404.307C63.658 404.307 64.7647 404.054 65.8047 403.547C66.8447 403.014 67.6847 402.201 68.3247 401.107C68.9914 399.987 69.3247 398.574 69.3247 396.867C69.3247 395.134 69.0047 393.721 68.3647 392.627C67.7247 391.534 66.8847 390.734 65.8447 390.227C64.8314 389.694 63.738 389.427 62.5647 389.427C61.3914 389.427 60.298 389.694 59.2847 390.227C58.2714 390.734 57.4447 391.547 56.8047 392.667C56.1914 393.761 55.8847 395.161 55.8847 396.867C55.8847 398.601 56.1914 400.014 56.8047 401.107C57.418 402.201 58.218 403.014 59.2047 403.547C60.218 404.054 61.3114 404.307 62.4847 404.307ZM84.0478 406.867H81.3278L75.0478 386.867H78.0878L82.6878 403.147L87.8478 386.867H90.5678L95.6478 403.107L100.208 386.867H103.168L96.9278 406.867H94.1678L89.1278 391.347L84.0478 406.867ZM107.844 386.867H110.804V406.867H107.844V386.867ZM109.364 382.867C108.751 382.867 108.244 382.667 107.844 382.267C107.444 381.867 107.244 381.374 107.244 380.787C107.244 380.174 107.444 379.667 107.844 379.267C108.244 378.867 108.751 378.667 109.364 378.667C109.924 378.667 110.404 378.867 110.804 379.267C111.231 379.667 111.444 380.174 111.444 380.787C111.444 381.374 111.231 381.867 110.804 382.267C110.404 382.667 109.924 382.867 109.364 382.867ZM117.557 386.867H120.317L120.477 389.707C121.117 388.721 121.957 387.961 122.997 387.427C124.037 386.867 125.25 386.587 126.637 386.587C128.157 386.587 129.49 386.921 130.637 387.587C131.783 388.227 132.677 389.201 133.317 390.507C133.957 391.787 134.277 393.401 134.277 395.347V406.867H131.277V395.707C131.277 393.627 130.823 392.054 129.917 390.987C129.037 389.894 127.757 389.347 126.077 389.347C124.343 389.347 122.983 389.921 121.997 391.067C121.037 392.214 120.557 393.907 120.557 396.147V406.867H117.557V386.867ZM155.456 386.867H158.216V403.187C158.216 405.641 157.669 407.734 156.576 409.467C155.482 411.227 153.896 412.561 151.816 413.467C149.736 414.401 147.202 414.867 144.216 414.867L143.736 412.107C147.496 412.054 150.349 411.267 152.296 409.747C154.242 408.254 155.216 406.067 155.216 403.187V402.747L155.536 402.827C154.922 404.001 154.002 405.014 152.776 405.867C151.549 406.694 149.962 407.121 148.016 407.147C146.176 407.147 144.562 406.734 143.176 405.907C141.816 405.054 140.749 403.854 139.976 402.307C139.229 400.761 138.856 398.947 138.856 396.867C138.856 394.787 139.229 392.987 139.976 391.467C140.749 389.921 141.816 388.721 143.176 387.867C144.562 387.014 146.176 386.587 148.016 386.587C149.216 386.587 150.282 386.774 151.216 387.147C152.149 387.494 152.949 387.974 153.616 388.587C154.282 389.174 154.829 389.841 155.256 390.587L155.456 386.867ZM142.096 396.867C142.096 399.161 142.682 400.987 143.856 402.347C145.056 403.681 146.669 404.347 148.696 404.347C149.922 404.347 151.029 404.054 152.016 403.467C153.002 402.881 153.776 402.027 154.336 400.907C154.922 399.787 155.216 398.441 155.216 396.867C155.216 395.294 154.922 393.961 154.336 392.867C153.776 391.747 153.002 390.894 152.016 390.307C151.029 389.694 149.922 389.387 148.696 389.387C146.696 389.387 145.096 390.067 143.896 391.427C142.696 392.787 142.096 394.601 142.096 396.867ZM176.844 386.867V381.267H179.844V386.867H185.164V389.667H179.844V400.427C179.844 401.654 180.098 402.547 180.604 403.107C181.138 403.667 181.804 404.001 182.604 404.107C183.431 404.214 184.284 404.214 185.164 404.107V406.707C184.124 406.947 183.098 407.014 182.084 406.907C181.098 406.801 180.204 406.507 179.404 406.027C178.631 405.521 178.004 404.814 177.524 403.907C177.071 403.001 176.844 401.841 176.844 400.427V389.667H173.844V386.867H176.844ZM189.627 378.067H192.627V389.587C193.267 388.627 194.134 387.894 195.227 387.387C196.32 386.854 197.547 386.587 198.907 386.587C200.374 386.587 201.68 386.921 202.827 387.587C203.974 388.254 204.867 389.241 205.507 390.547C206.174 391.854 206.507 393.481 206.507 395.427V406.867H203.307V395.787C203.307 393.707 202.867 392.121 201.987 391.027C201.107 389.907 199.827 389.347 198.147 389.347C196.414 389.347 195.054 389.934 194.067 391.107C193.107 392.281 192.627 393.987 192.627 396.227V406.867H189.627V378.067ZM220.722 407.147C218.856 407.147 217.189 406.694 215.722 405.787C214.282 404.881 213.149 403.641 212.322 402.067C211.496 400.494 211.082 398.694 211.082 396.667C211.082 394.721 211.496 392.987 212.322 391.467C213.149 389.947 214.282 388.761 215.722 387.907C217.162 387.027 218.802 386.587 220.642 386.587C222.456 386.587 224.069 386.987 225.482 387.787C226.922 388.587 228.042 389.694 228.842 391.107C229.642 392.521 230.016 394.134 229.962 395.947C229.962 396.241 229.949 396.547 229.922 396.867C229.896 397.187 229.869 397.534 229.842 397.907H214.362C214.416 399.161 214.722 400.267 215.282 401.227C215.842 402.187 216.576 402.947 217.482 403.507C218.416 404.041 219.469 404.307 220.642 404.307C222.189 404.307 223.496 404.014 224.562 403.427C225.656 402.841 226.442 402.001 226.922 400.907L229.522 401.947C228.722 403.627 227.562 404.921 226.042 405.827C224.522 406.707 222.749 407.147 220.722 407.147ZM226.682 395.307C226.709 394.161 226.456 393.147 225.922 392.267C225.416 391.387 224.696 390.694 223.762 390.187C222.829 389.681 221.749 389.427 220.522 389.427C219.456 389.427 218.482 389.681 217.602 390.187C216.722 390.694 215.989 391.401 215.402 392.307C214.842 393.187 214.509 394.187 214.402 395.307H226.682ZM256.911 378.867H260.111V399.547C260.111 401.014 259.791 402.321 259.151 403.467C258.511 404.614 257.618 405.521 256.471 406.187C255.351 406.827 254.031 407.147 252.511 407.147C250.591 407.147 249.018 406.667 247.791 405.707C246.565 404.721 245.725 403.374 245.271 401.667L248.031 400.667C248.218 401.361 248.485 401.987 248.831 402.547C249.205 403.107 249.685 403.547 250.271 403.867C250.885 404.187 251.631 404.347 252.511 404.347C253.551 404.347 254.391 404.107 255.031 403.627C255.671 403.147 256.138 402.547 256.431 401.827C256.751 401.081 256.911 400.321 256.911 399.547V378.867ZM278.944 406.867L278.704 403.267C278.144 404.494 277.317 405.454 276.224 406.147C275.13 406.814 273.744 407.147 272.064 407.147C270.624 407.147 269.397 406.921 268.384 406.467C267.37 406.014 266.584 405.374 266.024 404.547C265.49 403.694 265.224 402.694 265.224 401.547C265.224 399.867 265.85 398.494 267.104 397.427C268.357 396.334 270.17 395.667 272.544 395.427L278.704 394.747V393.147C278.704 392.027 278.29 391.134 277.464 390.467C276.637 389.774 275.517 389.427 274.104 389.427C272.717 389.427 271.557 389.747 270.624 390.387C269.717 391.027 269.09 391.947 268.744 393.147L266.024 392.187C266.557 390.427 267.53 389.054 268.944 388.067C270.384 387.081 272.13 386.587 274.184 386.587C276.557 386.587 278.397 387.201 279.704 388.427C281.037 389.627 281.704 391.267 281.704 393.347V406.867H278.944ZM278.704 397.307L272.504 398.027C271.17 398.187 270.157 398.561 269.464 399.147C268.77 399.707 268.424 400.454 268.424 401.387C268.424 402.321 268.757 403.067 269.424 403.627C270.117 404.187 271.104 404.467 272.384 404.467C273.85 404.467 275.05 404.174 275.984 403.587C276.917 403.001 277.597 402.214 278.024 401.227C278.477 400.214 278.704 399.121 278.704 397.947V397.307ZM290.237 402.827L290.557 402.787V414.867H287.557V386.867H290.317L290.517 390.587C291.13 389.467 292.037 388.521 293.237 387.747C294.437 386.974 295.943 386.587 297.757 386.587C299.49 386.587 301.05 387.014 302.437 387.867C303.823 388.694 304.917 389.881 305.717 391.427C306.517 392.947 306.917 394.761 306.917 396.867C306.917 398.947 306.53 400.761 305.757 402.307C305.01 403.827 303.943 405.014 302.557 405.867C301.197 406.721 299.597 407.147 297.757 407.147C295.837 407.147 294.25 406.734 292.997 405.907C291.743 405.081 290.823 404.054 290.237 402.827ZM303.677 396.867C303.677 394.574 303.077 392.761 301.877 391.427C300.703 390.067 299.117 389.387 297.117 389.387C295.863 389.387 294.73 389.681 293.717 390.267C292.73 390.854 291.957 391.707 291.397 392.827C290.837 393.947 290.557 395.294 290.557 396.867C290.557 398.414 290.837 399.747 291.397 400.867C291.957 401.987 292.73 402.854 293.717 403.467C294.73 404.054 295.863 404.347 297.117 404.347C299.117 404.347 300.703 403.681 301.877 402.347C303.077 400.987 303.677 399.161 303.677 396.867ZM312.894 384.507C312.894 383.041 313.134 381.801 313.614 380.787C314.094 379.774 314.854 379.041 315.894 378.587C316.961 378.107 318.374 377.934 320.134 378.067V380.747C318.534 380.614 317.428 380.881 316.814 381.547C316.201 382.187 315.894 383.174 315.894 384.507V386.867H320.294V389.667H315.894V406.867H312.894V389.667H310.094V386.867H312.894V384.507ZM337.303 406.867L337.063 403.267C336.503 404.494 335.676 405.454 334.583 406.147C333.49 406.814 332.103 407.147 330.423 407.147C328.983 407.147 327.756 406.921 326.743 406.467C325.73 406.014 324.943 405.374 324.383 404.547C323.85 403.694 323.583 402.694 323.583 401.547C323.583 399.867 324.21 398.494 325.463 397.427C326.716 396.334 328.53 395.667 330.903 395.427L337.063 394.747V393.147C337.063 392.027 336.65 391.134 335.823 390.467C334.996 389.774 333.876 389.427 332.463 389.427C331.076 389.427 329.916 389.747 328.983 390.387C328.076 391.027 327.45 391.947 327.103 393.147L324.383 392.187C324.916 390.427 325.89 389.054 327.303 388.067C328.743 387.081 330.49 386.587 332.543 386.587C334.916 386.587 336.756 387.201 338.063 388.427C339.396 389.627 340.063 391.267 340.063 393.347V406.867H337.303ZM337.063 397.307L330.863 398.027C329.53 398.187 328.516 398.561 327.823 399.147C327.13 399.707 326.783 400.454 326.783 401.387C326.783 402.321 327.116 403.067 327.783 403.627C328.476 404.187 329.463 404.467 330.743 404.467C332.21 404.467 333.41 404.174 334.343 403.587C335.276 403.001 335.956 402.214 336.383 401.227C336.836 400.214 337.063 399.121 337.063 397.947V397.307ZM364.087 406.867H361.367L355.087 386.867H358.127L362.727 403.147L367.887 386.867H370.607L375.687 403.107L380.247 386.867H383.207L376.967 406.867H374.207L369.167 391.347L364.087 406.867ZM399.413 406.867L399.173 403.267C398.613 404.494 397.786 405.454 396.693 406.147C395.599 406.814 394.213 407.147 392.533 407.147C391.093 407.147 389.866 406.921 388.853 406.467C387.839 406.014 387.053 405.374 386.493 404.547C385.959 403.694 385.693 402.694 385.693 401.547C385.693 399.867 386.319 398.494 387.573 397.427C388.826 396.334 390.639 395.667 393.013 395.427L399.173 394.747V393.147C399.173 392.027 398.759 391.134 397.933 390.467C397.106 389.774 395.986 389.427 394.573 389.427C393.186 389.427 392.026 389.747 391.093 390.387C390.186 391.027 389.559 391.947 389.213 393.147L386.493 392.187C387.026 390.427 387.999 389.054 389.413 388.067C390.853 387.081 392.599 386.587 394.653 386.587C397.026 386.587 398.866 387.201 400.173 388.427C401.506 389.627 402.173 391.267 402.173 393.347V406.867H399.413ZM399.173 397.307L392.973 398.027C391.639 398.187 390.626 398.561 389.933 399.147C389.239 399.707 388.893 400.454 388.893 401.387C388.893 402.321 389.226 403.067 389.893 403.627C390.586 404.187 391.573 404.467 392.853 404.467C394.319 404.467 395.519 404.174 396.453 403.587C397.386 403.001 398.066 402.214 398.493 401.227C398.946 400.214 399.173 399.121 399.173 397.947V397.307ZM421.117 386.867H424.237L412.797 414.867H409.917L413.317 406.587L405.237 386.867H408.517L414.917 403.027L421.117 386.867Z" fill="black"/>
<defs>
<linearGradient id="paint0_linear_9659_6794" x1="53.8203" y1="33.6544" x2="53.8203" y2="11.1171" gradientUnits="userSpaceOnUse">
<stop stop-color="#FF2525"/>
<stop offset="1" stop-color="#FF8743"/>
</linearGradient>
<linearGradient id="paint1_linear_9659_6794" x1="38.9641" y1="39.4377" x2="23.0288" y2="23.5024" gradientUnits="userSpaceOnUse">
<stop stop-color="#FF2525"/>
<stop offset="1" stop-color="#FF8743"/>
</linearGradient>
<linearGradient id="paint2_linear_9659_6794" x1="33.6544" y1="53.8203" x2="11.1171" y2="53.8203" gradientUnits="userSpaceOnUse">
<stop stop-color="#FF2525"/>
<stop offset="1" stop-color="#FF8743"/>
</linearGradient>
<linearGradient id="paint3_linear_9659_6794" x1="269.5" y1="166" x2="269.5" y2="365" gradientUnits="userSpaceOnUse">
<stop stop-color="#FFBA93"/>
<stop offset="1" stop-color="#FF9356"/>
</linearGradient>
<linearGradient id="paint4_linear_9659_6794" x1="585.551" y1="253.84" x2="585.551" y2="326.072" gradientUnits="userSpaceOnUse">
<stop stop-color="#FFEBE0"/>
<stop offset="1" stop-color="#FFD0B6"/>
</linearGradient>
</defs>
</svg>
