<svg width="94" height="62" viewBox="0 0 94 62" fill="none" xmlns="http://www.w3.org/2000/svg">
<path d="M21.6896 2.27699C22.9606 4.14748 22.8251 6.28683 21.3831 7.05221C19.9424 7.81854 17.7454 6.92195 16.4717 5.05023C15.2003 3.17837 15.3362 1.04067 16.7765 0.273918C18.2185 -0.492694 20.4147 0.40513 21.6896 2.27699Z" fill="#EC691F"/>
<path d="M35.2575 14.3592C37.2962 7.33569 38.4392 0.422359 24.4259 2.63176C32.0651 0.04952 41.833 1.11208 40.6059 10.4508C39.2309 22.981 18.6002 37.5629 6.50019 34.1098C-1.47864 32.9056 -4.74654 19.6409 12.3817 8.25157C4.17466 15.7917 0.704837 29.8178 12.1382 32.4391C19.4072 31.1509 26.2715 14.8212 9.948 4.46476C16.6105 8.00297 27.4172 10.0786 31.9667 8.37307C31.1064 10.6885 26.425 12.2932 23.9382 11.6717C28.0293 20.5204 23.0353 30.32 15.1783 32.3176C21.6196 32.1583 30.6966 25.8757 35.2575 14.3592Z" fill="#EC691F"/>
<path d="M45.8787 62.0001H45.4178V55.011H45.8787V62.0001Z" fill="white"/>
<path fill-rule="evenodd" clip-rule="evenodd" d="M81.593 59.3024C81.669 59.0564 81.7063 58.78 81.7063 58.4635C81.7063 58.1383 81.6721 57.8526 81.5995 57.6169C81.523 57.3729 81.4139 57.1757 81.2666 57.0165C81.121 56.8645 80.9395 56.7457 80.7213 56.6665C80.5031 56.5952 80.2525 56.5547 79.9666 56.5547C79.6714 56.5547 79.4085 56.6026 79.1816 56.6899C78.9578 56.7848 78.7673 56.9139 78.6174 57.0842C78.4634 57.258 78.3479 57.464 78.2708 57.707C78.1916 57.9522 78.1531 58.2285 78.1531 58.5304C78.1531 58.8622 78.1916 59.1479 78.2629 59.3917C78.3356 59.6333 78.4458 59.8349 78.5884 59.9947C78.7353 60.1479 78.9142 60.2663 79.1345 60.3451C79.354 60.422 79.6069 60.4577 79.8984 60.4577C80.1944 60.4577 80.453 60.4138 80.679 60.3231C80.9038 60.2349 81.0941 60.1047 81.2468 59.9309C81.4003 59.7614 81.5152 59.551 81.593 59.3024ZM80.8593 57.9636C80.8915 58.1246 80.9081 58.3086 80.9081 58.5062C80.9081 58.6831 80.8915 58.8547 80.8593 59.0155C80.8282 59.1765 80.775 59.3178 80.6931 59.4362C80.6175 59.5599 80.5177 59.6558 80.3919 59.7258C80.2661 59.7971 80.1078 59.8275 79.9217 59.8275C79.7313 59.8275 79.5813 59.8005 79.453 59.7316C79.3307 59.6782 79.233 59.5859 79.1583 59.4675C79.0814 59.353 79.0313 59.2144 78.9991 59.0488C78.9691 58.886 78.9512 58.7012 78.9512 58.4948C78.9512 58.3152 78.9701 58.1458 79.0034 57.9913C79.0369 57.8329 79.0915 57.6938 79.1649 57.5736C79.2454 57.4566 79.3465 57.3606 79.4702 57.2907C79.5946 57.2193 79.7525 57.1849 79.9429 57.1849C80.1281 57.1849 80.2838 57.2172 80.4042 57.2822C80.5286 57.3431 80.6288 57.4319 80.7036 57.5482C80.777 57.6626 80.8304 57.802 80.8593 57.9636Z" fill="white"/>
<path fill-rule="evenodd" clip-rule="evenodd" d="M56.4711 60.2717L56.4253 60.1071L55.263 56.7622L55.223 56.6755L55.1386 56.6288L54.9824 56.6077C54.9179 56.6055 54.8255 56.6056 54.7112 56.6056C54.613 56.6056 54.5317 56.6055 54.4728 56.6077L54.3313 56.6288L54.2599 56.6755L54.2178 56.7539L53.0598 60.1L53.0146 60.262L53.0364 60.3567L53.139 60.3989C53.1913 60.4067 53.2616 60.4067 53.3483 60.4067C53.4306 60.4067 53.4982 60.4067 53.5497 60.4047L53.6689 60.3809L53.7313 60.3364L53.7621 60.2695L53.9982 59.5279H55.4086L55.6605 60.2898L55.6905 60.3513L55.753 60.3879L55.8787 60.4047C55.9327 60.4067 56.0103 60.4067 56.1079 60.4067C56.2037 60.4067 56.2785 60.4067 56.3317 60.3989L56.4464 60.3632L56.4711 60.2717ZM54.7005 57.341H54.7023L55.233 58.9425H54.1666L54.7005 57.341Z" fill="white"/>
<path d="M30.0081 57.0761L30.0147 56.9248L30.0081 56.7778L29.9834 56.6792L29.9492 56.6295L29.9012 56.6115H28.1334L27.9719 56.6659C27.9284 56.7066 27.9072 56.7694 27.9072 56.8535V60.2728L27.9284 60.3269L27.9895 60.3693L28.107 60.3929C28.1601 60.3999 28.2169 60.3999 28.2889 60.3999C28.3669 60.3999 28.4302 60.3999 28.4772 60.3929L28.5942 60.3693L28.6589 60.3269L28.6742 60.2728V58.8689H29.8251L29.8744 58.8521L29.9087 58.7976L29.9333 58.7016L29.9381 58.5532L29.9333 58.4098L29.9087 58.3165L29.8744 58.2663L29.8251 58.2496H28.6742V57.2377H29.9012L29.9492 57.221L29.9834 57.1709L30.0081 57.0761Z" fill="white"/>
<path d="M33.2447 60.226L33.2548 60.0835L33.2447 59.9409L33.2248 59.8488L33.1893 59.7991L33.1413 59.7859H31.7891V58.7187H32.9233L32.9707 58.7055L33.0054 58.6545L33.03 58.5677L33.0354 58.4246L33.03 58.2892L33.0054 58.1997L32.9707 58.1518L32.9233 58.1372H31.7891V57.209H33.1276L33.176 57.198L33.2104 57.147L33.2315 57.0563L33.2403 56.9181L33.2315 56.7694L33.2104 56.6766L33.176 56.6286L33.1276 56.6119H31.2546L31.0951 56.6663C31.0485 56.7064 31.0295 56.7694 31.0295 56.8525V60.1393C31.0295 60.226 31.0485 60.2899 31.0951 60.3243L31.2546 60.3835H33.1413L33.1893 60.37L33.2248 60.3163L33.2447 60.226Z" fill="white"/>
<path d="M36.5464 60.0835L36.5377 60.226L36.5187 60.3163L36.481 60.37L36.4343 60.3835H34.5471L34.3858 60.3243C34.3422 60.2899 34.3189 60.226 34.3189 60.1393V56.8525C34.3189 56.7694 34.3422 56.7064 34.3858 56.6663L34.5471 56.6119H36.4229L36.4665 56.6286L36.502 56.6766L36.5266 56.7694L36.531 56.9181L36.5266 57.0563L36.502 57.147L36.4665 57.198L36.4229 57.209H35.0784V58.1372H36.2135L36.2624 58.1518L36.3001 58.1997L36.3203 58.2892L36.3283 58.4246L36.3203 58.5677L36.3001 58.6545L36.2624 58.7055L36.2135 58.7187H35.0784V59.7859H36.4343L36.481 59.7991L36.5187 59.8488L36.5377 59.9409L36.5464 60.0835Z" fill="white"/>
<path fill-rule="evenodd" clip-rule="evenodd" d="M40.5979 59.3306C40.6859 59.0841 40.7303 58.7887 40.7303 58.4459C40.7303 58.1449 40.6894 57.883 40.6081 57.6523C40.5232 57.4283 40.4031 57.2335 40.243 57.0798C40.0861 56.925 39.8885 56.8039 39.6528 56.7304C39.4201 56.652 39.1361 56.612 38.8001 56.612H37.8405L37.6757 56.6665C37.6356 56.7074 37.6122 56.7686 37.6122 56.8535V60.1395C37.6122 60.2262 37.6356 60.2891 37.6757 60.3243L37.8405 60.3829H38.7355C39.0697 60.3829 39.3556 60.3485 39.5961 60.2729C39.8367 60.2016 40.0417 60.087 40.2083 59.9374C40.3776 59.7791 40.5079 59.5762 40.5979 59.3306ZM39.878 57.9697C39.922 58.125 39.9423 58.29 39.9423 58.4679C39.9423 58.6867 39.9198 58.8803 39.871 59.0383C39.823 59.2061 39.7509 59.3389 39.655 59.4463C39.5614 59.5595 39.4387 59.6435 39.2975 59.6959C39.1555 59.7513 38.9791 59.7791 38.7698 59.7791H38.3704V57.2087H38.7579C38.9936 57.2087 39.1819 57.247 39.3257 57.309C39.469 57.3685 39.5869 57.4577 39.677 57.5688C39.7711 57.6828 39.8367 57.8148 39.878 57.9697Z" fill="white"/>
<path d="M52.6732 56.9347L52.6665 57.084L52.641 57.1777L52.6089 57.2291L52.5587 57.2468H51.3317V58.2582H52.4867L52.5311 58.274L52.5698 58.3251L52.5887 58.4176L52.5958 58.5623L52.5887 58.7093L52.5698 58.8052L52.5311 58.862L52.4867 58.8758H51.3317V60.2805L51.3164 60.3368L51.2509 60.3773L51.1325 60.3997C51.086 60.4064 51.0236 60.4064 50.9466 60.4064C50.8744 60.4064 50.8141 60.4064 50.7619 60.3997L50.6483 60.3773L50.5843 60.3368L50.5657 60.2805V56.8598C50.5657 56.778 50.5843 56.7143 50.6272 56.6764L50.7909 56.6196H52.5587L52.6089 56.6359L52.641 56.6866L52.6665 56.7842L52.6732 56.9347Z" fill="white"/>
<path fill-rule="evenodd" clip-rule="evenodd" d="M60.1277 60.289L60.1168 60.3479L60.061 60.3835L59.9342 60.4038C59.8785 60.4073 59.8027 60.4073 59.7069 60.4073C59.6225 60.4073 59.5609 60.4073 59.5097 60.4038L59.3942 60.3799L59.3353 60.34L59.3075 60.2809L58.9689 59.4386C58.9298 59.3417 58.8919 59.2603 58.8506 59.1833L58.7209 58.9972L58.5604 58.8863C58.4949 58.8615 58.4245 58.8475 58.3418 58.8475H58.1061V60.2846L58.085 60.3377L58.0234 60.3769L57.9078 60.3981C57.8612 60.4073 57.8001 60.4073 57.724 60.4073C57.6482 60.4073 57.5863 60.4073 57.5397 60.3981L57.4205 60.3769L57.3589 60.3377L57.3413 60.2846V56.8599C57.3413 56.7772 57.3647 56.7134 57.4076 56.6756L57.5696 56.6193H58.5437C58.597 56.6193 58.6453 56.6208 58.6887 56.6223C58.7241 56.6234 58.7563 56.6245 58.7852 56.6245L58.9567 56.6403C59.1101 56.6614 59.2447 56.7005 59.3666 56.7491C59.4866 56.804 59.5899 56.874 59.6748 56.9556C59.7583 57.04 59.8194 57.143 59.8696 57.256C59.9118 57.3719 59.9342 57.507 59.9342 57.6529C59.9342 57.7788 59.9172 57.8999 59.8876 57.9972C59.856 58.1032 59.8102 58.1989 59.746 58.2793C59.6805 58.3629 59.6065 58.428 59.5143 58.4919C59.4254 58.5523 59.3216 58.6033 59.2046 58.6389L59.3629 58.7384L59.5019 58.8809C59.5464 58.9315 59.5868 58.9954 59.6242 59.0666C59.666 59.1366 59.7047 59.2159 59.7402 59.3074L60.0578 60.0517C60.0864 60.1252 60.1045 60.1788 60.1133 60.2097L60.1277 60.289ZM59.1448 57.7376C59.1448 57.6081 59.1159 57.5026 59.0604 57.4198C59.0032 57.3352 58.9117 57.2727 58.7852 57.2371L58.6536 57.2173C58.6048 57.2094 58.535 57.2064 58.4479 57.2064H58.1061V58.2737H58.4949C58.6026 58.2737 58.6977 58.2625 58.78 58.2344C58.8586 58.2076 58.9298 58.1741 58.9856 58.1254C59.0349 58.0791 59.0736 58.0258 59.1026 57.9545C59.128 57.8917 59.1448 57.8145 59.1448 57.7376Z" fill="white"/>
<path d="M65.441 60.3375L65.46 60.2841V56.9252L65.441 56.7981L65.3844 56.7012L65.2908 56.6409L65.1584 56.6184H64.6403C64.5682 56.6184 64.507 56.6285 64.4546 56.6409L64.3145 56.7135L64.2076 56.8525C64.1776 56.9085 64.1504 56.9806 64.1249 57.0586L63.2813 59.2983H63.2735L62.4586 57.0562C62.4362 56.9684 62.4098 56.9041 62.3786 56.8503L62.2647 56.7135L62.0966 56.6409C62.0368 56.6285 61.9568 56.6184 61.8662 56.6184H61.3702C61.2809 56.6184 61.2105 56.6466 61.1595 56.6998C61.1093 56.7491 61.0838 56.8249 61.0838 56.9252V60.2841L61.0984 60.3375L61.1572 60.3766L61.2651 60.3991L61.4436 60.4073C61.5135 60.4073 61.5702 60.4073 61.6181 60.3991L61.7295 60.3766L61.7862 60.3375L61.8029 60.2841V57.2178H61.8108L62.8627 60.2807L62.8948 60.3375L62.9666 60.3801L63.0787 60.3991L63.2493 60.4073L63.417 60.4043L63.5317 60.3836L63.6043 60.3485L63.6429 60.2807L64.7296 57.2178H64.7361V60.2841L64.752 60.3375L64.8078 60.3766L64.921 60.3991L65.0928 60.4073C65.166 60.4073 65.2261 60.4073 65.2727 60.3991L65.3844 60.3766L65.441 60.3375Z" fill="white"/>
<path d="M77.3622 56.9352L77.3531 57.0849L77.3333 57.1808L77.2942 57.2313L77.2475 57.2472H76.0197V58.2611H77.1706L77.2184 58.2772L77.2527 58.3282L77.2788 58.4193L77.2854 58.5663L77.2788 58.7102L77.2527 58.8071L77.2184 58.8629L77.1706 58.8796H76.0197V60.2823L76.0017 60.3386L75.9405 60.38L75.8235 60.4016C75.7747 60.4103 75.7128 60.4103 75.6376 60.4103C75.5653 60.4103 75.5021 60.4103 75.4527 60.4016L75.3337 60.38L75.2725 60.3386L75.2549 60.2823V56.8652C75.2549 56.7802 75.276 56.7146 75.3192 56.6767L75.4809 56.6209H77.2475L77.2942 56.6376L77.3333 56.6887L77.3531 56.7883L77.3622 56.9352Z" fill="white"/>
<path fill-rule="evenodd" clip-rule="evenodd" d="M86.1196 58.4635C86.1196 58.78 86.0825 59.0564 86.0022 59.3024C85.9246 59.551 85.8121 59.7614 85.6587 59.9309C85.507 60.1047 85.3187 60.2349 85.0896 60.3231C84.8648 60.4138 84.6041 60.4577 84.3089 60.4577C84.0151 60.4577 83.7623 60.422 83.5465 60.3451C83.3273 60.2663 83.1458 60.1479 83.0003 59.9947C82.8555 59.8349 82.7474 59.6333 82.6761 59.3917C82.6022 59.1479 82.5657 58.8622 82.5657 58.5304C82.5657 58.2285 82.6061 57.9522 82.6827 57.707C82.7606 57.464 82.8745 57.258 83.0279 57.0842C83.1801 56.9139 83.3674 56.7848 83.5913 56.6899C83.8195 56.6026 84.0808 56.5547 84.3802 56.5547C84.663 56.5547 84.9149 56.5952 85.1331 56.6665C85.3491 56.7457 85.5302 56.8645 85.6798 57.0165C85.8222 57.1757 85.9335 57.3729 86.0113 57.6169C86.0825 57.8526 86.1196 58.1383 86.1196 58.4635ZM85.3187 58.5062C85.3187 58.3086 85.3033 58.1246 85.2721 57.9636C85.2422 57.802 85.1884 57.6626 85.113 57.5482C85.0386 57.4319 84.9404 57.3431 84.817 57.2822C84.6932 57.2172 84.5386 57.1849 84.3512 57.1849C84.167 57.1849 84.0094 57.2193 83.8842 57.2907C83.758 57.3606 83.6558 57.4566 83.5781 57.5736C83.502 57.6938 83.4461 57.8329 83.414 57.9913C83.3827 58.1458 83.3674 58.3152 83.3674 58.4948C83.3674 58.7012 83.3806 58.886 83.414 59.0488C83.4452 59.2144 83.4979 59.353 83.5715 59.4675C83.6414 59.5859 83.7403 59.6782 83.8653 59.7316C83.9897 59.8005 84.1432 59.8275 84.3314 59.8275C84.521 59.8275 84.6753 59.7971 84.8023 59.7258C84.9268 59.6558 85.0301 59.5599 85.1098 59.4362C85.1854 59.3178 85.2387 59.1765 85.2707 59.0155C85.3023 58.8547 85.3187 58.6831 85.3187 58.5062Z" fill="white"/>
<path fill-rule="evenodd" clip-rule="evenodd" d="M90.1825 59.3421C90.2706 59.0961 90.3162 58.7983 90.3162 58.4546C90.3162 58.153 90.2714 57.8907 90.1914 57.6632C90.1069 57.437 89.9879 57.2407 89.8286 57.0884C89.6658 56.9349 89.4709 56.8164 89.2374 56.7407C89.0049 56.6627 88.7198 56.6206 88.3883 56.6206H87.4225L87.2616 56.6774C87.218 56.7151 87.1956 56.7808 87.1956 56.8658V60.149C87.1956 60.2347 87.218 60.2978 87.2616 60.3346L87.4225 60.3928H88.318C88.6526 60.3928 88.939 60.3584 89.1795 60.2822C89.4191 60.2111 89.6249 60.0957 89.7929 59.9474C89.9622 59.788 90.0903 59.5861 90.1825 59.3421ZM89.4657 57.9784C89.5046 58.1336 89.5256 58.2991 89.5256 58.4778C89.5256 58.6962 89.5001 58.889 89.4578 59.0482C89.4068 59.2146 89.3356 59.3475 89.2406 59.4557C89.1438 59.5706 89.0281 59.6556 88.8822 59.7031C88.7388 59.7612 88.5615 59.788 88.3522 59.788H87.9574V57.2196H88.3422C88.574 57.2196 88.7656 57.2539 88.9077 57.3189C89.0537 57.3767 89.1749 57.4696 89.2653 57.5788C89.354 57.6936 89.4223 57.8234 89.4657 57.9784Z" fill="white"/>
<path d="M70.1411 62.0001H70.6019V55.011H70.1411V62.0001Z" fill="white"/>
<path fill-rule="evenodd" clip-rule="evenodd" d="M90.317 52.6123H27.9082V45.3658H90.317V52.6123Z" fill="#EC691F"/>
<path d="M49.1896 50.7904C49.0158 50.8615 48.8422 50.8992 48.6676 50.8992C48.3871 50.8992 48.1387 50.8495 47.9116 50.7543C47.6922 50.654 47.5031 50.5206 47.3539 50.3499C47.1992 50.1805 47.0823 49.9825 47 49.7505C46.9196 49.5199 46.8799 49.2738 46.8799 49.0077C46.8799 48.7369 46.9196 48.4808 47 48.2502C47.0823 48.0115 47.1992 47.8131 47.3539 47.637C47.5031 47.4624 47.6922 47.3227 47.9116 47.2303C48.1387 47.1305 48.3871 47.0798 48.6676 47.0798C48.8523 47.0798 49.0318 47.1103 49.2063 47.1626C49.3818 47.2229 49.5423 47.306 49.6861 47.4108C49.8229 47.5235 49.9377 47.6546 50.0278 47.8179C50.1202 47.9751 50.1804 48.1599 50.2003 48.3694H49.4332C49.3866 48.1652 49.2916 48.0094 49.1583 47.9069C49.0238 47.8057 48.8581 47.7542 48.6676 47.7542C48.4861 47.7542 48.3355 47.791 48.2089 47.8589C48.0818 47.9288 47.9806 48.0227 47.9038 48.1431C47.8237 48.2598 47.7683 48.3906 47.7336 48.5433C47.6943 48.692 47.6777 48.8461 47.6777 49.0077C47.6777 49.1603 47.6943 49.3087 47.7336 49.4542C47.7683 49.5991 47.8237 49.7284 47.9038 49.8447C47.9806 49.9613 48.0818 50.0523 48.2089 50.1223C48.3355 50.1958 48.4861 50.2297 48.6676 50.2297C48.9303 50.2297 49.1364 50.1602 49.2797 50.0294C49.4237 49.8934 49.5058 49.6994 49.5322 49.4433H48.7265V48.8437H50.2547V50.816H49.7473L49.6641 50.4023C49.5213 50.5877 49.3625 50.7152 49.1896 50.7904Z" fill="white"/>
<path d="M31.9585 49.6768L31.1067 47.1664H29.9844V50.8154H30.7315V48.2574H30.7403L31.6308 50.8154H32.2478L33.1384 48.2306H33.1495V50.8154H33.8962V47.1664H32.7712L31.9673 49.6768H31.9585Z" fill="white"/>
<path fill-rule="evenodd" clip-rule="evenodd" d="M37.8832 50.8154L36.5257 47.1664H35.7059L34.3313 50.8154H35.1338L35.4188 50.0033H36.7794L37.0543 50.8154H37.8832ZM36.1136 48.0668L36.5687 49.4062H35.6259L36.1013 48.0668H36.1136Z" fill="white"/>
<path d="M39.1104 47.1664V48.6813L40.5309 47.1664H41.5306L40.1078 48.6069L41.6651 50.8154H40.6632L39.5699 49.1773L39.1104 49.6412V50.8154H38.3123V47.1664H39.1104Z" fill="white"/>
<path d="M44.8208 47.8428V47.1664H42.0977V50.8154H44.8595V50.1402H42.8982V49.2468H44.6581V48.6227H42.8982V47.8428H44.8208Z" fill="white"/>
<path fill-rule="evenodd" clip-rule="evenodd" d="M51.3264 47.6369C51.1744 47.8134 51.0583 48.0114 50.976 48.2499C50.8937 48.4807 50.8536 48.7368 50.8536 49.0079C50.8536 49.2736 50.8937 49.5201 50.976 49.7503C51.0583 49.9827 51.1744 50.1807 51.3264 50.3498C51.48 50.5206 51.666 50.6543 51.8899 50.7543C52.1136 50.8492 52.3631 50.8994 52.6393 50.8994C52.9255 50.8994 53.1767 50.8492 53.396 50.7543C53.6147 50.6543 53.8011 50.5206 53.9573 50.3498C54.1062 50.1807 54.2246 49.9827 54.3047 49.7503C54.3882 49.5201 54.4305 49.2736 54.4305 49.0079C54.4305 48.7368 54.3882 48.4807 54.3047 48.2499C54.2246 48.0114 54.1062 47.8134 53.9573 47.6369C53.8011 47.4621 53.6147 47.3231 53.396 47.2307C53.1767 47.1303 52.9255 47.0801 52.6393 47.0801C52.3631 47.0801 52.1136 47.1303 51.8899 47.2307C51.666 47.3231 51.48 47.4621 51.3264 47.6369ZM51.8776 49.8444C51.7989 49.7284 51.7421 49.5988 51.7078 49.4542C51.6727 49.3083 51.6541 49.16 51.6541 49.0079C51.6541 48.8457 51.6727 48.6922 51.7078 48.5431C51.7421 48.3903 51.7989 48.2596 51.8776 48.1434C51.9558 48.0224 52.0568 47.929 52.1828 47.8587C52.3085 47.791 52.4611 47.7539 52.6393 47.7539C52.8226 47.7539 52.9734 47.791 53.1015 47.8587C53.2259 47.929 53.3239 48.0224 53.404 48.1434C53.4846 48.2596 53.5376 48.3903 53.5755 48.5431C53.6103 48.6922 53.63 48.8457 53.63 49.0079C53.63 49.16 53.6103 49.3083 53.5755 49.4542C53.5376 49.5988 53.4846 49.7284 53.404 49.8444C53.3239 49.9617 53.2259 50.0526 53.1015 50.1227C52.9734 50.1962 52.8226 50.2297 52.6393 50.2297C52.4611 50.2297 52.3085 50.1962 52.1828 50.1227C52.0568 50.0526 51.9558 49.9617 51.8776 49.8444Z" fill="white"/>
<path fill-rule="evenodd" clip-rule="evenodd" d="M55.0507 48.2499C55.1308 48.0114 55.2477 47.8134 55.4039 47.6369C55.5548 47.4621 55.7385 47.3231 55.9637 47.2307C56.1841 47.1303 56.4333 47.0801 56.714 47.0801C56.9955 47.0801 57.2473 47.1303 57.4669 47.2307C57.6881 47.3231 57.8763 47.4621 58.028 47.6369C58.1809 47.8134 58.2967 48.0114 58.3803 48.2499C58.4603 48.4807 58.5007 48.7368 58.5007 49.0079C58.5007 49.2736 58.4603 49.5201 58.3803 49.7503C58.2967 49.9827 58.1809 50.1807 58.028 50.3498C57.8763 50.5206 57.6881 50.6543 57.4669 50.7543C57.2473 50.8492 56.9955 50.8994 56.714 50.8994C56.4333 50.8994 56.1841 50.8492 55.9637 50.7543C55.7385 50.6543 55.5548 50.5206 55.4039 50.3498C55.2477 50.1807 55.1308 49.9827 55.0507 49.7503C54.9694 49.5201 54.9281 49.2736 54.9281 49.0079C54.9281 48.7368 54.9694 48.4807 55.0507 48.2499ZM55.7798 49.4542C55.8133 49.5988 55.87 49.7284 55.95 49.8444C56.0262 49.9617 56.1317 50.0526 56.2531 50.1227C56.3797 50.1962 56.5349 50.2297 56.714 50.2297C56.893 50.2297 57.0469 50.1962 57.1713 50.1227C57.2983 50.0526 57.3983 49.9617 57.4756 49.8444C57.5542 49.7284 57.6147 49.5988 57.649 49.4542C57.681 49.3083 57.7022 49.16 57.7022 49.0079C57.7022 48.8457 57.681 48.6922 57.649 48.5431C57.6147 48.3903 57.5542 48.2596 57.4756 48.1434C57.3983 48.0224 57.2983 47.929 57.1713 47.8587C57.0469 47.791 56.893 47.7539 56.714 47.7539C56.5349 47.7539 56.3797 47.791 56.2531 47.8587C56.1317 47.929 56.0262 48.0224 55.95 48.1434C55.87 48.2596 55.8133 48.3903 55.7798 48.5431C55.7433 48.6922 55.7275 48.8457 55.7275 49.0079C55.7275 49.16 55.7433 49.3083 55.7798 49.4542Z" fill="white"/>
<path fill-rule="evenodd" clip-rule="evenodd" d="M61.3786 47.279C61.1758 47.2042 60.9591 47.1664 60.7229 47.1664H59.157V50.8154H60.7229C61.0049 50.8154 61.2449 50.7714 61.4498 50.6759C61.6583 50.5804 61.8275 50.4559 61.9644 50.2894C62.1025 50.1287 62.2037 49.9303 62.2727 49.7066C62.3395 49.4791 62.3751 49.2376 62.3751 48.9718C62.3751 48.6658 62.3352 48.4045 62.2479 48.177C62.1658 47.9552 62.0497 47.7654 61.9042 47.6157C61.756 47.4688 61.5813 47.3504 61.3786 47.279ZM61.0079 50.0852C60.8971 50.1223 60.7854 50.1402 60.6685 50.1402H59.9537V47.8428H60.5259C60.7229 47.8428 60.8878 47.8698 61.0223 47.9256C61.1583 47.9801 61.2629 48.0611 61.3466 48.1703C61.4287 48.2773 61.4855 48.4031 61.5225 48.5491C61.5549 48.7015 61.5756 48.8652 61.5756 49.0492C61.5756 49.2486 61.5527 49.4203 61.5001 49.5593C61.4486 49.6988 61.3786 49.8101 61.2954 49.9017C61.2115 49.9862 61.1127 50.0487 61.0079 50.0852Z" fill="white"/>
<path d="M63.792 50.8151H62.9943V50.0296H63.792V50.8151Z" fill="white"/>
<path fill-rule="evenodd" clip-rule="evenodd" d="M69.2684 50.8154L67.9098 47.1664H67.0883L65.7138 50.8154H66.5183L66.8056 50.0033H68.1606L68.4367 50.8154H69.2684ZM67.4948 48.0668L67.9547 49.4062H67.0105L67.4859 48.0668H67.4948Z" fill="white"/>
<path d="M70.4956 47.1664V50.1402H72.2636V50.8154H69.6953V47.1664H70.4956Z" fill="white"/>
<path d="M74.5975 48.3314L75.2131 50.8154H76.0091L76.9867 47.1664H76.2017L75.6059 49.6786H75.5935L74.9711 47.1664H74.2267L73.5957 49.6508H73.5842L73.0112 47.1664H72.2095L73.1735 50.8154H73.9809L74.5864 48.3314H74.5975Z" fill="white"/>
<path fill-rule="evenodd" clip-rule="evenodd" d="M79.1546 47.1664L80.5138 50.8154H79.6815L79.4096 50.0033H78.048L77.7609 50.8154H76.9595L78.3339 47.1664H79.1546ZM79.2003 49.4062L78.7408 48.0668H78.7305L78.2595 49.4062H79.2003Z" fill="white"/>
<path d="M81.0654 47.1664H80.1713L81.5073 49.3943V50.8154H82.302V49.4158L83.6512 47.1664H82.7629L81.9169 48.6069L81.0654 47.1664Z" fill="white"/>
<path d="M84.682 49.9185C84.7254 50.0029 84.7845 50.0702 84.8579 50.1222C84.9283 50.1746 85.0162 50.2137 85.1138 50.2393C85.211 50.2661 85.3158 50.2794 85.4198 50.2794C85.4916 50.2794 85.5673 50.2737 85.6495 50.2604C85.733 50.2481 85.809 50.2284 85.8777 50.197C85.9503 50.1579 86.0078 50.1107 86.0558 50.0523C86.1024 49.9941 86.1275 49.9185 86.1275 49.8246C86.1275 49.7277 86.0968 49.6443 86.0348 49.5839C85.9701 49.525 85.8878 49.4712 85.7876 49.4317C85.6816 49.3881 85.5717 49.3538 85.4424 49.3229C85.31 49.2935 85.1795 49.2635 85.0496 49.2222C84.9137 49.1865 84.7801 49.146 84.6543 49.0963C84.5228 49.0461 84.407 48.9849 84.3068 48.9043C84.2044 48.8273 84.1187 48.731 84.0576 48.6073C83.9941 48.4911 83.9634 48.3508 83.9634 48.1852C83.9634 47.9956 84.0021 47.8328 84.0844 47.6954C84.1657 47.5576 84.2699 47.4427 84.397 47.3468C84.5272 47.261 84.6724 47.1909 84.8332 47.146C84.9994 47.1008 85.1609 47.0811 85.3232 47.0811C85.5126 47.0811 85.6987 47.0987 85.8702 47.1417C86.0469 47.1852 86.2018 47.258 86.3351 47.3468C86.4687 47.445 86.5815 47.5699 86.6593 47.7182C86.7397 47.8639 86.7784 48.043 86.7784 48.2573H86.0078C85.9978 48.147 85.9745 48.0559 85.9381 47.9863C85.8987 47.912 85.8457 47.856 85.7796 47.8174C85.7151 47.7736 85.6451 47.7446 85.5594 47.7288C85.4771 47.7134 85.3855 47.7025 85.2867 47.7025L85.0942 47.7226L84.9159 47.794L84.7889 47.9216C84.7567 47.9744 84.7401 48.0396 84.7401 48.1171C84.7401 48.187 84.7524 48.2481 84.7801 48.2908C84.8056 48.3341 84.8623 48.3821 84.9402 48.4155C85.0206 48.4524 85.1305 48.489 85.2668 48.5281C85.3706 48.5551 85.4975 48.587 85.6466 48.6246L85.6474 48.6248C85.7022 48.6386 85.7599 48.6531 85.8205 48.6685C85.8754 48.6794 85.9445 48.6987 86.0269 48.7218L86.0272 48.7219C86.0511 48.7286 86.0762 48.7357 86.1024 48.7429C86.2251 48.7798 86.3466 48.8388 86.4643 48.9136C86.5835 48.9923 86.6835 49.0963 86.7718 49.2257C86.8575 49.36 86.9028 49.5272 86.9028 49.7309C86.9028 49.903 86.8676 50.0557 86.8051 50.1992C86.7436 50.3396 86.6434 50.4629 86.5167 50.5699C86.3909 50.6702 86.2308 50.7546 86.0449 50.8105C85.8544 50.8709 85.635 50.8995 85.3912 50.8995C85.1886 50.8995 84.996 50.8722 84.8056 50.8233C84.6183 50.7726 84.4515 50.6962 84.3082 50.5923C84.1657 50.4865 84.0487 50.3505 83.9634 50.1865C83.8794 50.0253 83.838 49.8282 83.8416 49.6064H84.6157C84.6157 49.7277 84.6363 49.8304 84.682 49.9185Z" fill="white"/>
<path d="M87.44 50.8151H88.2383V50.0296H87.44V50.8151Z" fill="white"/>
<path fill-rule="evenodd" clip-rule="evenodd" d="M91.1434 25.0978V26.9713H91.5228V26.202H91.6219C91.7273 26.202 91.8153 26.2284 91.8848 26.2808C91.9534 26.334 92.0413 26.4638 92.1474 26.6671L92.3044 26.9713H92.7741L92.5525 26.5937C92.4746 26.4603 92.4274 26.3834 92.4147 26.3653C92.3611 26.294 92.3189 26.2464 92.2877 26.2218C92.2578 26.1958 92.2129 26.1729 92.1562 26.1505C92.3167 26.1281 92.4403 26.0677 92.5282 25.9722C92.617 25.8763 92.6607 25.7606 92.6607 25.6246C92.6607 25.5265 92.6373 25.4375 92.5902 25.3561C92.5436 25.2759 92.4859 25.2157 92.4157 25.1765C92.3453 25.1378 92.2476 25.1122 92.1219 25.1022C92.0784 25.0986 91.8792 25.0978 91.5228 25.0978H91.1434ZM91.6777 25.9063H91.5228V25.3948H91.6777C91.8935 25.3948 92.029 25.4028 92.085 25.4207C92.1407 25.4383 92.183 25.4675 92.2129 25.5088C92.2429 25.5501 92.2578 25.5956 92.2578 25.648C92.2578 25.7024 92.2419 25.7504 92.212 25.7927C92.1808 25.835 92.1394 25.8644 92.0862 25.8811C92.0326 25.8974 91.8967 25.9063 91.6777 25.9063Z" fill="white"/>
<path fill-rule="evenodd" clip-rule="evenodd" d="M92.8109 24.4873C92.5326 24.336 92.2419 24.2598 91.9402 24.2598C91.6376 24.2598 91.347 24.336 91.0686 24.4873C90.7911 24.6384 90.5721 24.8556 90.4129 25.1387C90.2546 25.4222 90.1745 25.7175 90.1745 26.0268C90.1745 26.334 90.2523 26.6272 90.4085 26.9058C90.5643 27.1852 90.7822 27.4031 91.0607 27.5584C91.3392 27.7147 91.6328 27.7921 91.9402 27.7921C92.2476 27.7921 92.5406 27.7147 92.819 27.5584C93.0981 27.4031 93.315 27.1852 93.4706 26.9058C93.6268 26.6272 93.705 26.334 93.705 26.0268C93.705 25.7175 93.6259 25.4222 93.4667 25.1387C93.307 24.8556 93.0888 24.6384 92.8109 24.4873ZM92.6417 24.7879C92.4178 24.6664 92.1852 24.6062 91.9425 24.6062C91.6997 24.6062 91.467 24.6664 91.244 24.7879C91.0206 24.9094 90.8456 25.0841 90.7182 25.3117C90.5887 25.5388 90.525 25.7768 90.525 26.0268C90.525 26.2742 90.5874 26.5101 90.7125 26.7341C90.8381 26.9594 91.0128 27.1341 91.2366 27.26C91.4613 27.3864 91.6967 27.4498 91.9425 27.4498C92.1895 27.4498 92.4244 27.3864 92.6483 27.26C92.872 27.1341 93.0471 26.9594 93.1725 26.7341C93.2983 26.5101 93.3615 26.2742 93.3615 26.0268C93.3615 25.7768 93.2969 25.5388 93.1694 25.3117C93.041 25.0841 92.8656 24.9094 92.6417 24.7879Z" fill="white"/>
<path d="M32.5142 35.7522L32.5143 35.7505C32.5251 33.4115 32.5362 31.0328 32.5493 28.725C33.6293 28.8324 34.731 28.8403 35.8475 28.7095C35.8399 30.4015 35.8314 32.1244 35.823 33.8422L35.823 33.8444L35.823 33.8451L35.8229 33.8588C35.8169 35.0757 35.811 36.29 35.8053 37.489C35.6259 41.2512 31.5673 43.1775 27.9092 41.2512C27.9312 41.1184 27.9644 40.985 27.9976 40.8517C28.0315 40.7159 28.0653 40.5801 28.0873 40.4449C30.8592 41.3316 32.3686 41.0417 32.5049 37.7562C32.508 37.0932 32.5111 36.4244 32.5142 35.7522Z" fill="white"/>
<path fill-rule="evenodd" clip-rule="evenodd" d="M44.4334 28.7631L44.4537 28.7142C44.9313 28.8312 45.4335 28.8242 45.9555 28.7142C47.789 32.9956 49.6203 37.2784 51.4513 41.5608C50.3215 41.316 49.1904 41.3306 48.0606 41.5608L46.73 37.7239L42.0512 37.6815C41.9439 37.9679 41.8366 38.2544 41.7292 38.5408L41.7229 38.5578C41.3588 39.5293 40.9947 40.5009 40.6329 41.4741C40.0687 41.3737 39.4895 41.3359 38.873 41.4741L44.4334 28.7631ZM42.6511 36.6024L46.2137 36.5166L44.4537 32.3341L44.4334 32.3865L42.6511 36.6024Z" fill="white"/>
<path d="M71.1229 34.2956L70.987 30.1621L75.6436 30.4353C75.4954 29.9064 75.4954 29.2532 75.6436 28.7242H68.048L68.0923 41.6042C69.0765 41.3427 70.0673 41.289 71.0771 41.6042V35.3844L75.6627 35.5367C75.4911 35.0078 75.4432 34.4928 75.6661 34.0139C74.1519 34.1072 72.637 34.2011 71.1229 34.2956Z" fill="white"/>
<path fill-rule="evenodd" clip-rule="evenodd" d="M61.1292 28.724C62.6785 28.9525 64.1882 29.4618 64.5199 31.8889C64.7248 34.5447 62.8544 35.6203 60.0438 35.9746L58.4157 36.0666C58.3714 37.9133 58.327 39.7583 58.2803 41.6058C57.2723 41.281 56.2987 41.3356 55.3422 41.5597L55.4323 28.724H61.1292ZM58.3714 35.0679C58.9414 35.0634 59.4625 34.9931 59.9067 34.8259C60.7461 34.51 61.3183 33.851 61.445 32.66C61.4308 30.9956 60.933 30.0563 59.9545 29.846L59.9067 29.8468L58.3714 29.8917C58.3793 30.7553 58.3754 31.6199 58.3715 32.485V32.4864C58.3676 33.3467 58.3637 34.2074 58.3714 35.0679Z" fill="white"/>
<path fill-rule="evenodd" clip-rule="evenodd" d="M84.8209 28.7142C84.32 28.8111 83.8205 28.8031 83.3191 28.7353L83.2979 28.7841C82.3509 30.9405 81.4047 33.1025 80.4584 35.2646L80.4571 35.2675C79.5509 37.3383 78.6445 39.4091 77.7375 41.475C78.3844 41.3345 78.9689 41.3393 79.4975 41.475C79.6427 41.0864 79.788 40.698 79.9332 40.3098C80.2612 39.4329 80.5888 38.5571 80.9135 37.6815L85.5935 37.7239L86.9261 41.5608C88.0163 41.2981 89.1504 41.3301 90.3158 41.5608C89.8745 40.5287 89.4332 39.4966 88.9919 38.4644C87.6023 35.2141 86.2127 31.9638 84.8209 28.7142ZM81.5156 36.6032L83.2979 32.3851L83.3191 32.336L85.0782 36.517L81.5156 36.6032Z" fill="white"/>
</svg>
