<svg width="26" height="34" viewBox="0 0 26 34" fill="none" xmlns="http://www.w3.org/2000/svg">
<path d="M12.8484 0.726562C5.95998 0.726562 0.453125 6.23342 0.453125 13.1218C0.453125 15.5041 1.16327 17.344 2.39634 19.2097L11.5443 33.0898C11.8219 33.5095 12.2996 33.7806 12.8484 33.7806C13.3971 33.7806 13.8813 33.503 14.1525 33.0898L23.3005 19.2097C24.5335 17.344 25.2437 15.5041 25.2437 13.1218C25.2437 6.23342 19.7368 0.726562 12.8484 0.726562ZM12.8484 20.0038C9.04589 20.0038 5.95998 16.9179 5.95998 13.1089C5.95998 9.29996 9.04589 6.21405 12.8484 6.21405C16.6509 6.21405 19.7368 9.29996 19.7368 13.1089C19.7368 16.9179 16.6509 20.0038 12.8484 20.0038ZM12.8484 8.99008C10.563 8.99008 8.71664 10.8365 8.71664 13.1218C8.71664 15.4072 10.563 17.2536 12.8484 17.2536C15.1338 17.2536 16.9802 15.4072 16.9802 13.1218C16.9802 10.8365 15.1338 8.99008 12.8484 8.99008Z" fill="#822F00"/>
</svg>
