<svg width="887" height="482" viewBox="0 0 887 482" fill="none" xmlns="http://www.w3.org/2000/svg">
<g opacity="0.6" filter="url(#filter0_f_9494_9993)">
<ellipse cx="657" cy="345.499" rx="285" ry="275.927" fill="#EC691F"/>
</g>
<g clip-path="url(#clip0_9494_9993)">
<circle opacity="0.6" cx="664.473" cy="389.797" r="231.368" stroke="url(#paint0_linear_9494_9993)" stroke-width="0.521511" stroke-linecap="round" stroke-dasharray="2.09 3.13"/>
</g>
<g clip-path="url(#clip1_9494_9993)">
<circle cx="664.371" cy="397.371" r="148.11" fill="#301F17" fill-opacity="0.1" stroke="url(#paint1_linear_9494_9993)" stroke-width="0.521511" stroke-linecap="round" stroke-dasharray="2.09 3.13"/>
<g opacity="0.2">
<path d="M663.999 456.292C702.046 417.864 701.928 355.87 663.646 317.588L662.767 316.709C624.721 355.137 624.838 417.131 663.12 455.413L663.999 456.292Z" fill="url(#paint2_linear_9494_9993)"/>
<path d="M663.999 456.292C702.046 417.864 701.928 355.87 663.646 317.588L662.767 316.709C624.721 355.137 624.838 417.131 663.12 455.413L663.999 456.292Z" stroke="url(#paint3_linear_9494_9993)"/>
</g>
<g opacity="0.2">
<path d="M594.167 338.124C571.494 377.934 585.069 428.596 624.609 451.735C647.283 411.926 633.708 361.264 594.167 338.124Z" fill="url(#paint4_linear_9494_9993)"/>
<path d="M594.167 338.124C571.494 377.934 585.069 428.596 624.609 451.735C647.283 411.926 633.708 361.264 594.167 338.124Z" stroke="url(#paint5_linear_9494_9993)"/>
</g>
<g opacity="0.2">
<path d="M732.61 338.124C755.284 377.934 741.709 428.596 702.168 451.735C679.494 411.926 693.069 361.264 732.61 338.124Z" fill="url(#paint6_linear_9494_9993)"/>
<path d="M732.61 338.124C755.284 377.934 741.709 428.596 702.168 451.735C679.494 411.926 693.069 361.264 732.61 338.124Z" stroke="url(#paint7_linear_9494_9993)"/>
</g>
<g opacity="0.2">
<path d="M784.95 345.306C794.638 390.084 766.49 434.341 721.829 444.553C712.142 399.775 740.289 355.518 784.95 345.306Z" fill="url(#paint8_linear_9494_9993)"/>
<path d="M784.95 345.306C794.638 390.084 766.49 434.341 721.829 444.553C712.142 399.775 740.289 355.518 784.95 345.306Z" stroke="url(#paint9_linear_9494_9993)"/>
</g>
<g opacity="0.2">
<path d="M552.561 345.306C542.874 390.084 571.021 434.341 615.682 444.553C625.37 399.775 597.222 355.518 552.561 345.306Z" fill="url(#paint10_linear_9494_9993)"/>
<path d="M552.561 345.306C542.874 390.084 571.021 434.341 615.682 444.553C625.37 399.775 597.222 355.518 552.561 345.306Z" stroke="url(#paint11_linear_9494_9993)"/>
</g>
</g>
<path d="M452.08 362.88C428.631 334.654 408.911 317.16 401.338 311.423C400.926 311.112 400.453 310.818 399.995 310.579C367.715 293.71 400.729 334.983 401.837 337.2C402.73 338.986 420.073 365.857 428.633 379.069C442.924 406.311 465.478 426.892 474.968 433.777C502.143 455.693 541.219 461.835 558.317 462.232C558.958 462.247 559.59 462.311 560.219 462.434C605.393 471.305 630.968 485.434 630.017 507.731C629.942 509.496 630.08 511.3 630.821 512.903C640.646 534.169 664.215 531.038 664.215 549.335V468.389C654.39 376.389 583.083 353.761 548.657 353.948C510.696 355.287 492.274 348.551 487.808 345.016C481.297 339.048 475.968 336.348 472.244 335.314C469.101 334.442 466.314 336.723 465.782 339.942C463.467 353.96 474.218 366.029 480.55 370.695C494.395 384.093 521.675 385.954 533.584 385.21C553.431 384.813 560.342 389.678 561.764 392.986C562.079 393.719 562.026 394.553 561.737 395.296C558.941 402.483 542.075 405.334 533.584 405.865C506.788 409.438 468.083 378.697 452.08 362.88Z" fill="url(#paint12_linear_9494_9993)"/>
<path d="M874.475 362.88C897.924 334.654 917.643 317.16 925.217 311.423C925.629 311.112 926.102 310.818 926.56 310.579C958.84 293.71 925.826 334.983 924.718 337.2C923.824 338.986 906.481 365.857 897.921 379.069C883.63 406.311 861.077 426.892 851.587 433.777C824.412 455.693 785.335 461.835 768.238 462.232C767.597 462.247 766.965 462.311 766.336 462.434C721.161 471.305 695.587 485.434 696.537 507.731C696.613 509.496 696.474 511.3 695.734 512.903C685.909 534.169 662.34 531.038 662.34 549.335V468.389C672.165 376.389 743.472 353.761 777.898 353.948C815.859 355.287 834.281 348.551 838.747 345.016C845.257 339.048 850.587 336.348 854.31 335.314C857.454 334.442 860.241 336.723 860.773 339.942C863.087 353.96 852.337 366.029 846.004 370.695C832.16 384.093 804.88 385.954 792.97 385.21C773.124 384.813 766.213 389.678 764.79 392.986C764.475 393.719 764.529 394.553 764.818 395.296C767.614 402.483 784.479 405.334 792.97 405.865C819.766 409.438 858.472 378.697 874.475 362.88Z" fill="url(#paint13_linear_9494_9993)"/>
<path d="M534.892 192.832C525.674 179.361 514.507 183.674 510.076 187.514L508.304 189.284C504.05 185.739 505.349 180.127 506.531 177.764C512.936 164.953 525.438 173.039 527.802 179.539C538.437 178.121 536.96 187.81 534.892 192.832Z" fill="url(#paint14_linear_9494_9993)"/>
<path fill-rule="evenodd" clip-rule="evenodd" d="M509.248 198.706C509.969 194.803 513.326 188.098 521.601 190.167C527.232 191.574 533.432 201.6 538.095 211.303C542.178 219.801 541.609 229.556 540.601 238.93C538.991 253.883 542.25 272.403 561.483 279.68C571.232 282.339 594.452 283.934 609.341 269.045C614.659 263.432 625.294 251.851 625.294 250.433C625.294 249.908 623.813 251.174 621.291 253.332C615.307 258.452 603.462 268.586 591.616 271.704C575.663 276.43 544.466 275.603 547.302 234.48C553.211 248.956 571.586 273.299 597.82 254.865C588.366 257.523 566.623 257.523 555.279 236.253C572.118 243.639 611.291 249.547 633.27 214.096C635.049 210.184 640.105 210.314 640.858 214.545C642.18 221.97 642.146 231.794 637.702 241.571C646.269 239.207 659.859 239.266 645.678 258.41L633.27 275.249C625.294 272.59 607.569 271.172 600.479 286.77C588.071 284.407 561.66 285.529 555.279 308.927C536.372 302.428 502.457 277.73 518.056 230.935C513.325 231.987 505.928 231.027 509.846 220.317C509.959 220.008 510.08 219.69 510.202 219.368C511.283 216.523 512.514 213.285 510.108 211.656C508.44 210.527 505.443 209.869 500.328 210.551C500.328 208.264 501.508 203.88 505.898 202.246C507.312 201.72 508.611 200.773 509.089 199.342C509.158 199.134 509.208 198.921 509.248 198.706ZM519.827 203.46C521.295 203.46 522.486 202.27 522.486 200.801C522.486 199.333 521.295 198.143 519.827 198.143C518.358 198.143 517.168 199.333 517.168 200.801C517.168 202.27 518.358 203.46 519.827 203.46Z" fill="url(#paint15_linear_9494_9993)"/>
<path d="M516.858 289.754C527.057 299.233 530.005 312.642 523.442 319.703C516.879 326.764 503.291 324.803 493.091 315.324C482.892 305.844 479.944 292.435 486.507 285.374C493.07 278.313 506.658 280.274 516.858 289.754Z" fill="url(#paint16_linear_9494_9993)"/>
<path d="M610.23 316.902C600.304 310.521 599.004 298.29 599.595 292.972C595.341 291.554 585.413 292.382 580.981 292.972C562.547 296.517 561.483 306.857 563.256 311.584C568.906 326.65 600.185 323.696 610.23 316.902Z" fill="url(#paint17_linear_9494_9993)"/>
<path d="M620.645 315.386C608.524 308.534 602.543 296.176 607.288 287.784C612.032 279.392 625.704 278.145 637.826 284.998C649.947 291.85 655.927 304.209 651.183 312.6C646.439 320.992 632.766 322.239 620.645 315.386Z" fill="url(#paint18_linear_9494_9993)"/>
<path d="M761.838 212.143C766.309 209.198 772.047 209.709 775.877 210.261L778.118 210.849C780.606 208.681 779.277 204.188 778.542 202.795C774.558 195.245 767.214 200.226 765.89 204.13C759.534 203.423 760.541 209.178 761.838 212.143Z" fill="url(#paint19_linear_9494_9993)"/>
<path d="M788.49 234.561C788.744 232.27 788.384 227.244 788.172 225.018C795.488 225.654 797.715 232.334 797.079 232.97C796.57 233.479 791.141 234.243 788.49 234.561Z" fill="url(#paint20_linear_9494_9993)"/>
<path fill-rule="evenodd" clip-rule="evenodd" d="M719.141 225.335C714.306 217.955 710.976 223.532 709.916 227.243C705.335 240.476 711.189 255.66 714.688 261.599C729.193 286.283 754.026 285.456 764.63 281.957C785.243 274.577 787.639 255.343 786.261 246.648C785.601 243.746 785.843 240.861 786.116 237.604C786.37 234.577 786.651 231.227 786.261 227.243C784.988 214.265 779.263 212.229 770.356 211.975C762.699 211.756 759.744 216.145 754.013 224.656C753.077 226.045 752.068 227.545 750.951 229.152C734.664 246.711 722.958 233.923 719.141 225.335ZM780.537 225.972C780.537 227.904 778.971 229.471 777.038 229.471C775.106 229.471 773.539 227.904 773.539 225.972C773.539 224.039 775.106 222.473 777.038 222.473C778.971 222.473 780.537 224.039 780.537 225.972ZM755.105 243.87C755.865 243.417 756.114 242.434 755.661 241.675C755.209 240.915 754.226 240.666 753.466 241.119C751.389 242.356 747.948 243.992 744.043 245.116C740.123 246.245 735.878 246.818 732.125 246.081C730.915 245.843 729.785 246.353 729.118 247.158C728.425 247.995 728.127 249.322 728.927 250.509C733.439 257.194 743.383 265.999 757.843 262.5C758.703 262.292 759.231 261.427 759.023 260.568C758.815 259.708 757.95 259.18 757.09 259.388C744.889 262.34 736.291 255.332 731.995 249.312C736.307 250.045 740.912 249.35 744.929 248.193C749.114 246.988 752.806 245.239 755.105 243.87Z" fill="url(#paint21_linear_9494_9993)"/>
<defs>
<filter id="filter0_f_9494_9993" x="0.539337" y="-301.888" width="1312.92" height="1294.77" filterUnits="userSpaceOnUse" color-interpolation-filters="sRGB">
<feFlood flood-opacity="0" result="BackgroundImageFix"/>
<feBlend mode="normal" in="SourceGraphic" in2="BackgroundImageFix" result="shape"/>
<feGaussianBlur stdDeviation="185.73" result="effect1_foregroundBlur_9494_9993"/>
</filter>
<linearGradient id="paint0_linear_9494_9993" x1="896.161" y1="621.426" x2="432.902" y2="158.109" gradientUnits="userSpaceOnUse">
<stop stop-color="#FF2525"/>
<stop offset="1" stop-color="#FF8743"/>
</linearGradient>
<linearGradient id="paint1_linear_9494_9993" x1="812.779" y1="545.742" x2="516.038" y2="248.962" gradientUnits="userSpaceOnUse">
<stop stop-color="#FF2525"/>
<stop offset="1" stop-color="#FF8743"/>
</linearGradient>
<linearGradient id="paint2_linear_9494_9993" x1="663" y1="316" x2="663" y2="463.5" gradientUnits="userSpaceOnUse">
<stop stop-color="white" stop-opacity="0.24"/>
<stop offset="1" stop-color="white" stop-opacity="0"/>
</linearGradient>
<linearGradient id="paint3_linear_9494_9993" x1="663.112" y1="316.006" x2="661.781" y2="468.159" gradientUnits="userSpaceOnUse">
<stop stop-color="#FFBA93"/>
<stop offset="1" stop-color="#FFBA93" stop-opacity="0"/>
</linearGradient>
<linearGradient id="paint4_linear_9494_9993" x1="630.431" y1="358.482" x2="588.345" y2="431.377" gradientUnits="userSpaceOnUse">
<stop stop-color="white" stop-opacity="0.14"/>
<stop offset="1" stop-color="white" stop-opacity="0"/>
</linearGradient>
<linearGradient id="paint5_linear_9494_9993" x1="594.266" y1="337.366" x2="627.518" y2="461.461" gradientUnits="userSpaceOnUse">
<stop stop-color="#FFBA93"/>
<stop offset="1" stop-color="#FFBA93" stop-opacity="0"/>
</linearGradient>
<linearGradient id="paint6_linear_9494_9993" x1="696.346" y1="358.482" x2="738.432" y2="431.377" gradientUnits="userSpaceOnUse">
<stop stop-color="white" stop-opacity="0.14"/>
<stop offset="1" stop-color="white" stop-opacity="0"/>
</linearGradient>
<linearGradient id="paint7_linear_9494_9993" x1="732.511" y1="337.366" x2="699.26" y2="461.461" gradientUnits="userSpaceOnUse">
<stop stop-color="#FFBA93"/>
<stop offset="1" stop-color="#FFBA93" stop-opacity="0"/>
</linearGradient>
<linearGradient id="paint8_linear_9494_9993" x1="744.249" y1="353.848" x2="762.53" y2="436.011" gradientUnits="userSpaceOnUse">
<stop stop-color="white" stop-opacity="0.14"/>
<stop offset="1" stop-color="white" stop-opacity="0"/>
</linearGradient>
<linearGradient id="paint9_linear_9494_9993" x1="785.083" y1="344.553" x2="716.137" y2="452.958" gradientUnits="userSpaceOnUse">
<stop stop-color="#FFBA93"/>
<stop offset="1" stop-color="#FFBA93" stop-opacity="0"/>
</linearGradient>
<linearGradient id="paint10_linear_9494_9993" x1="593.262" y1="353.848" x2="574.982" y2="436.011" gradientUnits="userSpaceOnUse">
<stop stop-color="white" stop-opacity="0.14"/>
<stop offset="1" stop-color="white" stop-opacity="0"/>
</linearGradient>
<linearGradient id="paint11_linear_9494_9993" x1="552.428" y1="344.553" x2="621.374" y2="452.958" gradientUnits="userSpaceOnUse">
<stop stop-color="#FFBA93"/>
<stop offset="1" stop-color="#FFBA93" stop-opacity="0"/>
</linearGradient>
<linearGradient id="paint12_linear_9494_9993" x1="525.045" y1="306.539" x2="525.045" y2="549.335" gradientUnits="userSpaceOnUse">
<stop stop-color="#FFBA93"/>
<stop offset="1" stop-color="#FF9356"/>
</linearGradient>
<linearGradient id="paint13_linear_9494_9993" x1="801.51" y1="306.539" x2="801.51" y2="549.335" gradientUnits="userSpaceOnUse">
<stop stop-color="#FFBA93"/>
<stop offset="1" stop-color="#FF9356"/>
</linearGradient>
<linearGradient id="paint14_linear_9494_9993" x1="520.868" y1="170.977" x2="520.868" y2="192.832" gradientUnits="userSpaceOnUse">
<stop stop-color="#FFEBE0"/>
<stop offset="1" stop-color="#FFD0B6"/>
</linearGradient>
<linearGradient id="paint15_linear_9494_9993" x1="576.083" y1="189.779" x2="576.083" y2="308.927" gradientUnits="userSpaceOnUse">
<stop stop-color="#FFEBE0"/>
<stop offset="1" stop-color="#FFD0B6"/>
</linearGradient>
<linearGradient id="paint16_linear_9494_9993" x1="504.975" y1="281.135" x2="504.975" y2="323.943" gradientUnits="userSpaceOnUse">
<stop stop-color="#FFEBE0"/>
<stop offset="1" stop-color="#FFD0B6"/>
</linearGradient>
<linearGradient id="paint17_linear_9494_9993" x1="586.439" y1="292.189" x2="586.439" y2="322.465" gradientUnits="userSpaceOnUse">
<stop stop-color="#FFEBE0"/>
<stop offset="1" stop-color="#FFD0B6"/>
</linearGradient>
<linearGradient id="paint18_linear_9494_9993" x1="629.235" y1="280.574" x2="629.235" y2="319.81" gradientUnits="userSpaceOnUse">
<stop stop-color="#FFEBE0"/>
<stop offset="1" stop-color="#FFD0B6"/>
</linearGradient>
<linearGradient id="paint19_linear_9494_9993" x1="770.028" y1="198.935" x2="770.313" y2="211.958" gradientUnits="userSpaceOnUse">
<stop stop-color="#FFEBE0"/>
<stop offset="1" stop-color="#FFD0B6"/>
</linearGradient>
<linearGradient id="paint20_linear_9494_9993" x1="792.677" y1="225.018" x2="792.677" y2="234.561" gradientUnits="userSpaceOnUse">
<stop stop-color="#FFEBE0"/>
<stop offset="1" stop-color="#FFD0B6"/>
</linearGradient>
<linearGradient id="paint21_linear_9494_9993" x1="747.406" y1="211.967" x2="747.406" y2="283.77" gradientUnits="userSpaceOnUse">
<stop stop-color="#FFEBE0"/>
<stop offset="1" stop-color="#FFD0B6"/>
</linearGradient>
<clipPath id="clip0_9494_9993">
<rect width="463.258" height="225.225" fill="white" transform="translate(432.844 158.168)"/>
</clipPath>
<clipPath id="clip1_9494_9993">
<rect width="297" height="220" fill="white" transform="translate(516 241)"/>
</clipPath>
</defs>
</svg>
