<svg width="116" height="116" viewBox="0 0 116 116" fill="none" xmlns="http://www.w3.org/2000/svg">
<rect width="116" height="116" rx="58" fill="url(#paint0_linear_9494_9910)"/>
<g clip-path="url(#clip0_9494_9910)">
<path d="M47.8477 80.4231L35.5784 69L26.6938 77.8846L25.8477 82.1154L33.463 90.1538L36.8477 90.5769L47.8477 80.4231Z" fill="#FFA979"/>
<path d="M46.1523 42.7688V29.2303L48.6908 25.8457H59.2677L62.6523 28.3842V42.7688H46.1523Z" fill="#FFA979"/>
<path d="M80.3334 69.3334L88.8667 77.8667L89.2563 81.7437L81.9907 89.0093L78.0658 89.7343L68.9991 80.6676L80.3334 69.3334Z" fill="#FFA979"/>
<path d="M62.655 42.7695H46.155L45.3089 59.6926L43.6166 60.5388L42.3474 53.7695L40.232 52.5003L39.3858 53.7695L35.5781 68.5772L48.2704 80.0003L57.5781 69.4234L67.3089 80.0003L80.0012 68.5772L77.8858 55.4618L75.7704 53.3465L73.232 54.6157L72.3858 60.5388L69.4243 56.7311L70.6935 53.7695L62.655 42.7695Z" fill="white"/>
<path d="M89.3242 76.645L83.4894 70.8102L80.7876 68.1063C80.5304 66.8866 80.2802 65.6759 80.0368 64.4742L79.3954 61.2794C79.0612 59.5984 78.7251 57.9113 78.4384 56.2097C78.3078 55.2988 77.9859 54.4258 77.4937 53.6481C77.2356 53.2983 76.9072 53.0063 76.5297 52.7907C76.1522 52.5751 75.7338 52.4407 75.3013 52.3962C74.8923 52.3547 74.4791 52.3994 74.0883 52.5273C73.6976 52.6552 73.3379 52.8634 73.0326 53.1387C72.6248 53.5776 72.3121 54.0959 72.1141 54.6613C71.9161 55.2267 71.8369 55.8269 71.8817 56.4242C71.826 57.2946 71.7786 58.1691 71.727 59.0436L70.1801 57.4967C70.3349 57.3873 70.4786 57.263 70.6091 57.1255C70.8662 56.7915 71.052 56.4083 71.1549 55.9996C71.2577 55.5909 71.2756 55.1654 71.2072 54.7495C71.0145 53.8492 70.6227 53.0036 70.0605 52.2745C68.9901 50.773 67.9712 49.2344 66.9523 47.6978L63.3202 42.2198V30.1562C63.3202 28.7887 62.777 27.4772 61.81 26.5102C60.843 25.5432 59.5315 25 58.164 25H49.914C48.5465 25 47.235 25.5432 46.268 26.5102C45.301 27.4772 44.7577 28.7887 44.7577 30.1562V58.5631L44.2731 59.0477L44.1184 56.2964C44.1495 55.7231 44.064 55.1494 43.8669 54.6102C43.6697 54.0709 43.3652 53.5773 42.9716 53.1593C42.6633 52.879 42.2993 52.667 41.9033 52.5372C41.5073 52.4075 41.0884 52.3629 40.674 52.4065C40.2426 52.4535 39.826 52.5907 39.4511 52.8093C39.0762 53.0278 38.7515 53.3227 38.4981 53.6749C37.9994 54.4471 37.6795 55.3209 37.5617 56.2324C37.2544 58.0701 36.8831 59.8975 36.5119 61.7249L35.2084 68.1186L32.5271 70.7999L26.6737 76.645C25.7071 77.6119 25.1641 78.9232 25.1641 80.2905C25.1641 81.6577 25.7071 82.969 26.6737 83.9359L32.5086 89.7625C33.4755 90.7291 34.7868 91.2722 36.154 91.2722C37.5213 91.2722 38.8326 90.7291 39.7995 89.7625L45.624 83.9442L48.5424 81.0257L55.8334 73.7348L55.8499 73.7101L57.5205 72.0394C57.7262 71.9471 57.9206 71.8316 58.1001 71.695L60.1461 73.7266L67.4287 81.0299L70.341 83.9174L70.3534 83.9359L76.1985 89.7625C77.1654 90.7291 78.4767 91.2722 79.844 91.2722C81.2112 91.2722 82.5225 90.7291 83.4894 89.7625L89.3242 83.9277C90.2909 82.9607 90.8339 81.6495 90.8339 80.2822C90.8339 78.915 90.2909 77.6037 89.3242 76.6367V76.645ZM46.8202 30.1562C46.8202 29.3357 47.1462 28.5488 47.7264 27.9686C48.3066 27.3884 49.0935 27.0625 49.914 27.0625H58.164C58.9845 27.0625 59.7714 27.3884 60.3516 27.9686C60.9318 28.5488 61.2577 29.3357 61.2577 30.1562V37.375H46.8202V30.1562ZM61.2577 39.4375V41.5H46.8202V39.4375H61.2577ZM38.3413 88.3188C37.752 88.8812 36.9687 89.195 36.154 89.195C35.3394 89.195 34.5561 88.8812 33.9667 88.3188L28.1319 82.4777C27.5519 81.8976 27.2261 81.1108 27.2261 80.2905C27.2261 79.4701 27.5519 78.6833 28.1319 78.1032L33.2366 72.9985L43.446 83.2079L38.3413 88.3188ZM44.9062 81.7579L34.6927 71.5424L36.1509 70.0842L41.2556 75.1889L46.3603 80.2936L44.9062 81.7579ZM54.3814 72.2704L54.3649 72.2952L47.8226 78.8312L37.2771 68.2878L38.5311 62.1374C38.9064 60.2811 39.2818 58.4373 39.5912 56.5851C39.6635 55.9834 39.8602 55.4032 40.1687 54.8815C40.2521 54.7652 40.3588 54.6676 40.482 54.5948C40.6053 54.522 40.7423 54.4756 40.8844 54.4587C41.014 54.4453 41.145 54.4599 41.2684 54.5015C41.3919 54.5432 41.505 54.6109 41.6001 54.7C41.9734 55.0279 42.0126 55.7065 42.0682 56.5562L42.3446 61.4712C42.3651 61.6687 42.4422 61.8561 42.5666 62.0108C42.691 62.1656 42.8574 62.2811 43.0459 62.3436C43.1253 62.3539 43.2057 62.3539 43.2851 62.3436C43.3358 62.3578 43.3875 62.3682 43.4398 62.3746C43.4749 62.3746 43.5079 62.3581 43.5429 62.3539C43.603 62.3475 43.6623 62.3357 43.7203 62.3189C43.8891 62.2767 44.044 62.1914 44.1699 62.0714L44.7619 61.4794V63.1562C44.7619 63.9768 45.0878 64.7637 45.668 65.3439C46.2482 65.924 47.0351 66.25 47.8556 66.25C48.2077 66.2466 48.5566 66.1824 48.8869 66.0603V67.2812C48.8848 67.7874 49.0074 68.2863 49.2439 68.7338C49.4805 69.1813 49.8236 69.5636 50.243 69.847C50.6624 70.1304 51.1451 70.3062 51.6485 70.3587C52.152 70.4112 52.6606 70.3389 53.1294 70.1481C53.1707 70.313 53.2302 70.4728 53.3068 70.6246C53.5791 71.224 54.0406 71.7175 54.6206 72.0291L54.3814 72.2704ZM58.164 58.0392C57.8873 58.0462 57.6244 58.1613 57.4317 58.3599C57.2389 58.5584 57.1316 58.8246 57.1327 59.1014V69.3438C57.1296 69.4528 57.1094 69.5606 57.0729 69.6634L57.0544 69.715L57.0379 69.7604C57.0379 69.7872 57.0172 69.8119 57.009 69.8367L56.976 69.8965C56.8517 70.094 56.6607 70.2403 56.4377 70.309C56.1898 70.4002 55.9159 70.3901 55.6754 70.2808C55.4349 70.1716 55.2471 69.972 55.1527 69.7253C55.0937 69.6093 55.0653 69.4801 55.0702 69.3499V56.9749C55.0697 56.8411 55.0425 56.7087 54.9901 56.5855C54.9377 56.4624 54.8612 56.3509 54.7652 56.2577C54.6691 56.1645 54.5554 56.0915 54.4307 56.0429C54.306 55.9943 54.1728 55.9711 54.039 55.9746C53.7623 55.9816 53.4994 56.0968 53.3067 56.2953C53.1139 56.4939 53.0066 56.7601 53.0077 57.0368V67.2812C53.0077 67.5548 52.8991 67.8171 52.7057 68.0105C52.5123 68.2038 52.25 68.3125 51.9765 68.3125C51.703 68.3125 51.4407 68.2038 51.2473 68.0105C51.0539 67.8171 50.9452 67.5548 50.9452 67.2812V54.9062C50.9452 54.6327 50.8366 54.3704 50.6432 54.177C50.4498 53.9836 50.1875 53.875 49.914 53.875C49.6405 53.875 49.3782 53.9836 49.1848 54.177C48.9914 54.3704 48.8827 54.6327 48.8827 54.9062V63.1562C48.8827 63.4298 48.7741 63.6921 48.5807 63.8855C48.3873 64.0788 48.125 64.1875 47.8515 64.1875C47.578 64.1875 47.3157 64.0788 47.1223 63.8855C46.9289 63.6921 46.8202 63.4298 46.8202 63.1562V43.5625H61.7342L65.2404 48.8487C66.2717 50.4059 67.3029 51.9631 68.3816 53.4749C68.7574 53.9521 69.0287 54.503 69.1777 55.0919C69.2008 55.2274 69.1956 55.3662 69.1626 55.4996C69.1296 55.633 69.0695 55.7582 68.9859 55.8674C68.9125 55.9646 68.8195 56.0453 68.7129 56.1042C68.6063 56.1632 68.4885 56.1992 68.3672 56.2097C68.3228 56.2136 68.2787 56.2205 68.2352 56.2304C67.7567 56.2304 67.2617 55.789 66.6532 55.2528L62.982 51.9734C62.8336 51.8404 62.6498 51.7532 62.4528 51.7225C62.2559 51.6917 62.0543 51.7187 61.8724 51.8001C61.7477 51.8615 61.6372 51.9482 61.5481 52.0548C61.4589 52.1613 61.3931 52.2853 61.3547 52.4189C61.3434 52.4521 61.3337 52.4858 61.3258 52.5199C61.296 52.5901 61.2746 52.6634 61.2619 52.7386V67.2812C61.2592 67.4126 61.2333 67.5425 61.1856 67.6649C61.1483 67.7128 61.1152 67.7639 61.0866 67.8175C61.0178 67.9347 60.9258 68.0367 60.8163 68.1172C60.7068 68.1977 60.5821 68.2551 60.4496 68.2858C60.3172 68.3165 60.18 68.3198 60.0462 68.2957C59.9125 68.2716 59.785 68.2205 59.6717 68.1454C59.5267 68.0525 59.4074 67.9247 59.3245 67.7737C59.2417 67.6227 59.1979 67.4534 59.1973 67.2812V59.0312C59.1968 58.8972 59.1695 58.7647 59.117 58.6414C59.0645 58.5181 58.9878 58.4065 58.8915 58.3133C58.7952 58.2201 58.6812 58.1471 58.5563 58.0986C58.4313 58.0501 58.298 58.0271 58.164 58.0309V58.0392ZM61.6187 72.2704L59.6428 70.3069C59.8341 70.3521 60.03 70.3749 60.2265 70.375C60.7575 70.38 61.2803 70.2442 61.7419 69.9816C62.2034 69.7189 62.5872 69.3387 62.8541 68.8797C62.9497 68.7601 63.025 68.6257 63.0769 68.4816C63.2368 68.1016 63.3195 67.6936 63.3202 67.2812V55.0444L65.3827 56.8801C66.0876 57.6278 67.0231 58.1173 68.0392 58.2702L71.8384 62.0693C71.8507 62.0817 71.8672 62.0858 71.8796 62.0982C71.892 62.1106 71.8796 62.1229 71.8982 62.1312C71.9456 62.1786 72.0157 62.1869 72.0714 62.224C72.1173 62.254 72.1656 62.2802 72.2158 62.3024C72.3352 62.366 72.4664 62.4044 72.6012 62.415C72.7361 62.4257 72.8717 62.4084 72.9996 62.3643C73.1857 62.2927 73.3472 62.1687 73.4643 62.0073C73.5815 61.8458 73.6493 61.6539 73.6596 61.4547C73.7421 59.8294 73.8452 58.1836 73.9504 56.5191C73.9834 55.789 74.0184 55.0321 74.4165 54.6794C74.5093 54.5959 74.6185 54.5326 74.7371 54.4936C74.8557 54.4545 74.9811 54.4405 75.1054 54.4525C75.2477 54.4674 75.3854 54.5118 75.5097 54.5828C75.634 54.6538 75.7421 54.7499 75.8272 54.865C76.1355 55.3955 76.3366 55.9813 76.4192 56.5893C76.7038 58.2846 77.0379 59.9903 77.3824 61.6919L78.0259 64.897C78.2555 66.0204 78.4892 67.152 78.7271 68.2919L75.0146 72.0044L68.1671 78.8312L61.6187 72.2704ZM71.0938 81.7579L69.6294 80.3018L74.7465 75.1848L79.8409 70.0883L81.3011 71.5486L71.694 81.1557L71.0938 81.7579ZM87.8661 82.4881L82.0312 88.3188C81.4419 88.8812 80.6586 89.195 79.844 89.195C79.0293 89.195 78.246 88.8812 77.6567 88.3188L72.552 83.2141L72.9913 82.7747L82.7696 73.0129L87.8661 78.1094C88.446 78.6895 88.7719 79.4763 88.7719 80.2967C88.7719 81.117 88.446 81.9038 87.8661 82.4839V82.4881Z" fill="#6A0600"/>
</g>
<defs>
<linearGradient id="paint0_linear_9494_9910" x1="58" y1="0" x2="58" y2="116" gradientUnits="userSpaceOnUse">
<stop stop-color="#FFEBE0"/>
<stop offset="1" stop-color="#FFD0B6"/>
</linearGradient>
<clipPath id="clip0_9494_9910">
<rect width="66" height="66" fill="white" transform="translate(25 25)"/>
</clipPath>
</defs>
</svg>
