<svg width="116" height="116" viewBox="0 0 116 116" fill="none" xmlns="http://www.w3.org/2000/svg">
<rect width="116" height="116" rx="58" fill="url(#paint0_linear_9494_9957)"/>
<path d="M33.5 50L31 48.5L28.5 51L29 68L37 76.5L36.5 79H50L50.5 73L37 59.5L34 61L33.5 50Z" fill="white"/>
<path d="M83 50L85.5 48.5L88 51L87.5 68L79.5 76.5L80 79H66.5L66 73L79.5 59.5L82.5 61L83 50Z" fill="white"/>
<path d="M31.86 48.0209C31.3738 47.9759 30.8835 48.0321 30.4201 48.1859C29.9566 48.3398 29.5301 48.5881 29.1674 48.9151C28.8047 49.2421 28.5138 49.6407 28.3128 50.0857C28.1119 50.5308 28.0054 51.0127 28 51.5009V66.9209C27.9985 67.578 28.1267 68.229 28.3772 68.8364C28.6278 69.4439 28.9957 69.996 29.46 70.4609L36 76.9909V78.0009C35.4701 78.0025 34.9623 78.2138 34.5875 78.5885C34.2128 78.9632 34.0016 79.471 34 80.0009V86.0009C34.0016 86.5309 34.2128 87.0387 34.5875 87.4134C34.9623 87.7881 35.4701 87.9994 36 88.0009H51C51.53 87.9994 52.0377 87.7881 52.4125 87.4134C52.7872 87.0387 52.9984 86.5309 53 86.0009V80.0009C52.9984 79.471 52.7872 78.9632 52.4125 78.5885C52.0377 78.2138 51.53 78.0025 51 78.0009V74.6209C51.0015 73.9653 50.8733 73.3159 50.6227 72.7101C50.3721 72.1042 50.0042 71.554 49.54 71.0909L38.35 59.9009C37.9213 59.4673 37.3861 59.1541 36.7981 58.9926C36.2102 58.8311 35.59 58.8271 35 58.9809V51.6409C35.008 50.7585 34.6933 49.9035 34.115 49.2368C33.5367 48.5701 32.7348 48.1377 31.86 48.0209ZM36.94 61.3209L48.12 72.5009C48.6814 73.0639 48.9977 73.8259 49 74.6209V78.0009H38V76.5809C37.998 76.3158 37.8942 76.0616 37.71 75.8709L30.88 69.0409C30.5994 68.7641 30.377 68.4339 30.2258 68.0699C30.0747 67.7058 29.9979 67.3151 30 66.9209V51.5009C30.0013 51.2909 30.0465 51.0835 30.1326 50.8919C30.2188 50.7004 30.344 50.529 30.5003 50.3887C30.6567 50.2484 30.8406 50.1423 31.0403 50.0773C31.24 50.0122 31.4511 49.9896 31.66 50.0109C32.0431 50.0738 32.3903 50.2739 32.6368 50.5737C32.8833 50.8736 33.0124 51.2529 33 51.6409V60.4109C32.519 61.0719 32.2935 61.8847 32.3651 62.699C32.4368 63.5133 32.8009 64.2742 33.39 64.8409L37.54 68.9909C37.7274 69.1772 37.9808 69.2817 38.245 69.2817C38.5092 69.2817 38.7627 69.1772 38.95 68.9909C39.1374 68.8021 39.2425 68.5469 39.2425 68.2809C39.2425 68.015 39.1374 67.7598 38.95 67.5709L34.83 63.4509C34.6809 63.3176 34.5615 63.1542 34.4798 62.9715C34.3981 62.7889 34.3559 62.591 34.3559 62.3909C34.3559 62.1908 34.3981 61.993 34.4798 61.8103C34.5615 61.6277 34.6809 61.4643 34.83 61.3309C34.9664 61.1891 35.1298 61.076 35.3107 60.9985C35.4915 60.921 35.6861 60.8805 35.8829 60.8796C36.0797 60.8787 36.2746 60.9172 36.4562 60.9931C36.6378 61.0689 36.8023 61.1804 36.94 61.3209ZM84.14 48.0209C83.2652 48.1377 82.4633 48.5701 81.885 49.2368C81.3067 49.9035 80.992 50.7585 81 51.6409V58.9809C80.41 58.8271 79.7899 58.8311 79.2019 58.9926C78.6139 59.1541 78.0787 59.4673 77.65 59.9009L66.46 71.0909C65.9959 71.554 65.6279 72.1042 65.3773 72.7101C65.1267 73.3159 64.9985 73.9653 65 74.6209V78.0009C64.4701 78.0025 63.9623 78.2138 63.5875 78.5885C63.2128 78.9632 63.0016 79.471 63 80.0009V86.0009C63.0016 86.5309 63.2128 87.0387 63.5875 87.4134C63.9623 87.7881 64.4701 87.9994 65 88.0009H80C80.53 87.9994 81.0377 87.7881 81.4125 87.4134C81.7872 87.0387 81.9984 86.5309 82 86.0009V80.0009C81.9984 79.471 81.7872 78.9632 81.4125 78.5885C81.0377 78.2138 80.53 78.0025 80 78.0009V76.9909L86.54 70.4609C87.0043 69.996 87.3723 69.4439 87.6228 68.8364C87.8733 68.229 88.0015 67.578 88 66.9209V51.5009C87.9946 51.0127 87.8881 50.5308 87.6872 50.0857C87.4863 49.6407 87.1953 49.2421 86.8326 48.9151C86.4699 48.5881 86.0434 48.3398 85.58 48.1859C85.1165 48.0321 84.6262 47.9759 84.14 48.0209ZM86 66.9209C86.0021 67.3151 85.9253 67.7058 85.7742 68.0699C85.6231 68.4339 85.4006 68.7641 85.12 69.0409L78.29 75.8709C78.1058 76.0616 78.002 76.3158 78 76.5809V78.0009H67V74.6209C67.0023 73.8259 67.3186 73.0639 67.88 72.5009L79.06 61.3209C79.1977 61.1804 79.3622 61.0689 79.5438 60.9931C79.7254 60.9172 79.9204 60.8787 80.1171 60.8796C80.3139 60.8805 80.5085 60.921 80.6893 60.9985C80.8702 61.076 81.0337 61.1891 81.17 61.3309C81.3192 61.4643 81.4385 61.6277 81.5202 61.8103C81.6019 61.993 81.6441 62.1908 81.6441 62.3909C81.6441 62.591 81.6019 62.7889 81.5202 62.9715C81.4385 63.1542 81.3192 63.3176 81.17 63.4509L77.05 67.5709C76.8627 67.7598 76.7575 68.015 76.7575 68.2809C76.7575 68.5469 76.8627 68.8021 77.05 68.9909C77.2374 69.1772 77.4908 69.2817 77.755 69.2817C78.0192 69.2817 78.2726 69.1772 78.46 68.9909L82.61 64.8409C83.1991 64.2742 83.5632 63.5133 83.6349 62.699C83.7066 61.8847 83.4811 61.0719 83 60.4109V51.6409C82.9876 51.2529 83.1167 50.8736 83.3632 50.5737C83.6098 50.2739 83.9569 50.0738 84.34 50.0109C84.549 49.9896 84.7601 50.0122 84.9598 50.0773C85.1595 50.1423 85.3434 50.2484 85.4997 50.3887C85.656 50.529 85.7812 50.7004 85.8674 50.8919C85.9536 51.0835 85.9987 51.2909 86 51.5009V66.9209Z" fill="#6A0600"/>
<rect x="36" y="80" width="15" height="6" rx="1" fill="#FFA979"/>
<rect x="65" y="80" width="15" height="6" rx="1" fill="#FFA979"/>
<path d="M67.6289 50.1875L50.8633 49.6094L47.3945 51.9219L45.082 55.3906V58.8594L47.3945 61.75H69.3633L71.6758 59.4375V53.6562L67.6289 50.1875Z" fill="#FFA979"/>
<circle cx="58.3789" cy="40.3594" r="6.35938" fill="#FFA979"/>
<path d="M45 57.786C45 55.6832 45.7048 53.6665 46.9594 52.1796C48.2139 50.6928 49.9155 49.8574 51.6897 49.8574H65.0692C66.8434 49.8574 68.545 50.6928 69.7995 52.1796C71.0541 53.6665 71.7589 55.6832 71.7589 57.786C71.7589 58.8374 71.4065 59.8457 70.7792 60.5892C70.152 61.3326 69.3012 61.7503 68.4141 61.7503H48.3449C47.4578 61.7503 46.607 61.3326 45.9797 60.5892C45.3524 59.8457 45 58.8374 45 57.786Z" stroke="#6A0600" stroke-width="2.3125" stroke-linejoin="round"/>
<path d="M58.8722 45.8929C62.1563 45.8929 64.8186 43.2305 64.8186 39.9464C64.8186 36.6623 62.1563 34 58.8722 34C55.5881 34 52.9258 36.6623 52.9258 39.9464C52.9258 43.2305 55.5881 45.8929 58.8722 45.8929Z" stroke="#6A0600" stroke-width="2.3125"/>
<defs>
<linearGradient id="paint0_linear_9494_9957" x1="58" y1="0" x2="58" y2="116" gradientUnits="userSpaceOnUse">
<stop stop-color="#FFEBE0"/>
<stop offset="1" stop-color="#FFD0B6"/>
</linearGradient>
</defs>
</svg>
