<svg width="110" height="110" viewBox="0 0 110 110" fill="none" xmlns="http://www.w3.org/2000/svg">
<rect width="110" height="110" rx="55" fill="url(#paint0_linear_9494_9976)"/>
<path d="M55.7773 49.5039L60.9851 45.7706L65.7194 44.1113L78.502 44.5261L83.2363 45.7706L86.0769 47.4298L88.444 50.7484V69.0002H55.7773V56.9706V49.5039Z" fill="white"/>
<path d="M22.332 49.5039L27.4158 45.7706L32.0373 44.1113L44.5156 44.5261L49.1372 45.7706L51.9101 47.4298L54.2209 50.7484V69.0002H22.332V56.9706V49.5039Z" fill="white"/>
<circle cx="55" cy="53.4434" r="7" fill="#FFA979"/>
<circle cx="72" cy="35" r="8" fill="#FFA979"/>
<circle cx="38" cy="35" r="8" fill="#FFA979"/>
<path d="M41.7773 64.7216L46.0551 61.2216L49.944 59.666L60.444 60.0549L64.3329 61.2216L66.6662 62.7771L68.6107 65.8882V82.9993H41.7773V71.7216V64.7216Z" fill="white"/>
<path d="M63.3318 60.0879C62.7671 60.848 62.1018 61.5279 61.3541 62.1089H61.6992C63.2579 62.1107 64.7522 62.7306 65.8543 63.8327C66.9565 64.9349 67.5764 66.4292 67.5781 67.9878V81.7964H42.4219V67.9878C42.4236 66.4292 43.0436 64.9349 44.1457 63.8327C45.2478 62.7306 46.7421 62.1107 48.3008 62.1089H48.6459C47.8982 61.5279 47.2329 60.848 46.6682 60.0879C44.8518 60.4659 43.2208 61.4574 42.0492 62.896C40.8776 64.3346 40.2368 66.1325 40.2344 67.9878V82.193C40.2349 82.6678 40.4238 83.123 40.7596 83.4588C41.0953 83.7945 41.5505 83.9834 42.0253 83.9839H67.9747C68.4495 83.9834 68.9047 83.7945 69.2404 83.4588C69.5762 83.123 69.7651 82.6678 69.7656 82.193V67.9878C69.7632 66.1325 69.1224 64.3346 67.9508 62.896C66.7792 61.4574 65.1482 60.4659 63.3318 60.0879Z" fill="#6A0600"/>
<path d="M46.7969 53.9063C46.7969 55.5287 47.278 57.1147 48.1793 58.4637C49.0807 59.8127 50.3619 60.8641 51.8608 61.485C53.3597 62.1058 55.0091 62.2683 56.6003 61.9518C58.1916 61.6352 59.6533 60.854 60.8005 59.7067C61.9477 58.5595 62.729 57.0979 63.0455 55.5066C63.362 53.9154 63.1996 52.266 62.5787 50.7671C61.9578 49.2681 60.9064 47.987 59.5574 47.0856C58.2084 46.1842 56.6224 45.7031 55 45.7031C52.8251 45.7056 50.7401 46.5706 49.2022 48.1085C47.6644 49.6463 46.7993 51.7314 46.7969 53.9063ZM55 47.8906C56.1898 47.8906 57.3528 48.2434 58.3421 48.9044C59.3314 49.5655 60.1024 50.505 60.5577 51.6042C61.013 52.7034 61.1321 53.9129 60.9 55.0798C60.6679 56.2468 60.095 57.3186 59.2537 58.1599C58.4124 59.0012 57.3405 59.5742 56.1736 59.8063C55.0067 60.0384 53.7971 59.9193 52.6979 59.464C51.5987 59.0087 50.6592 58.2376 49.9982 57.2484C49.3372 56.2591 48.9844 55.096 48.9844 53.9063C48.9862 52.3114 49.6205 50.7823 50.7483 49.6546C51.8761 48.5268 53.4051 47.8924 55 47.8906ZM22.1875 55.5469C22.1904 52.9371 23.2285 50.435 25.0739 48.5895C26.9193 46.7441 29.4214 45.7061 32.0312 45.7031H33.1874C32.0834 45.1849 31.0688 44.4947 30.1815 43.6581C27.3468 44.103 24.764 45.5449 22.8976 47.7242C21.0311 49.9036 20.0037 52.6775 20 55.5469V68.6719C20.0007 69.2518 20.2313 69.8078 20.6414 70.2179C21.0515 70.628 21.6075 70.8587 22.1875 70.8594H38.0469V68.6719H22.1875V55.5469ZM42.9064 45.7031H44.0625C45.3412 45.7031 46.6075 45.9538 47.7898 46.441C48.384 45.8684 49.0441 45.3683 49.7561 44.9511C48.5559 44.3053 47.2541 43.8696 45.907 43.6628C45.0209 44.4973 44.0081 45.1859 42.9064 45.7031ZM47.3438 35.3125C47.3438 33.4738 46.7985 31.6763 45.7769 30.1474C44.7554 28.6186 43.3034 27.427 41.6046 26.7233C39.9059 26.0197 38.0366 25.8355 36.2331 26.1943C34.4297 26.553 32.7732 27.4384 31.473 28.7386C30.1728 30.0388 29.2874 31.6954 28.9286 33.4988C28.5699 35.3022 28.754 37.1715 29.4577 38.8703C30.1613 40.569 31.3529 42.021 32.8818 43.0426C34.4107 44.0641 36.2081 44.6094 38.0469 44.6094C40.5117 44.6066 42.8748 43.6263 44.6177 41.8834C46.3606 40.1404 47.341 37.7773 47.3438 35.3125ZM38.0469 42.4219C36.6408 42.4219 35.2662 42.0049 34.0971 41.2237C32.928 40.4425 32.0168 39.3322 31.4787 38.0331C30.9406 36.7341 30.7998 35.3046 31.0741 33.9255C31.3484 32.5464 32.0255 31.2797 33.0198 30.2854C34.0141 29.2912 35.2808 28.6141 36.6599 28.3397C38.039 28.0654 39.4684 28.2062 40.7675 28.7443C42.0666 29.2824 43.1769 30.1936 43.9581 31.3627C44.7393 32.5319 45.1562 33.9064 45.1562 35.3125C45.1542 37.1974 44.4045 39.0045 43.0717 40.3373C41.7388 41.6701 39.9318 42.4198 38.0469 42.4219ZM65.9375 45.7031H67.0936C65.9918 45.1859 64.979 44.4973 64.093 43.6628C62.7459 43.8696 61.4441 44.3053 60.2439 44.9511C60.9559 45.3683 61.616 45.8684 62.2102 46.441C63.3925 45.9538 64.6588 45.7031 65.9375 45.7031ZM79.8185 43.6581C78.9312 44.4947 77.9166 45.1849 76.8126 45.7031H77.9688C80.5786 45.7061 83.0807 46.7441 84.9261 48.5895C86.7715 50.435 87.8096 52.9371 87.8125 55.5469L87.8138 68.6719H71.9531V70.8594H87.8125C88.3925 70.8587 88.9485 70.628 89.3586 70.2179C89.7687 69.8078 89.9993 69.2518 90 68.6719V55.5469C89.9963 52.6775 88.9688 49.9036 87.1024 47.7242C85.236 45.5449 82.6532 44.103 79.8185 43.6581ZM71.9531 44.6094C73.7919 44.6094 75.5893 44.0641 77.1182 43.0426C78.6471 42.021 79.8387 40.569 80.5423 38.8703C81.246 37.1715 81.4301 35.3022 81.0714 33.4988C80.7126 31.6954 79.8272 30.0388 78.527 28.7386C77.2268 27.4384 75.5703 26.553 73.7669 26.1943C71.9634 25.8355 70.0941 26.0197 68.3954 26.7233C66.6966 27.427 65.2446 28.6186 64.2231 30.1474C63.2015 31.6763 62.6562 33.4738 62.6562 35.3125C62.659 37.7773 63.6394 40.1404 65.3823 41.8834C67.1252 43.6263 69.4883 44.6066 71.9531 44.6094ZM71.9531 28.2031C73.3592 28.2031 74.7337 28.6201 75.9029 29.4013C77.072 30.1825 77.9832 31.2928 78.5213 32.5919C79.0594 33.8909 79.2002 35.3204 78.9259 36.6995C78.6516 38.0786 77.9745 39.3453 76.9802 40.3396C75.986 41.3339 74.7192 42.011 73.3401 42.2853C71.961 42.5596 70.5316 42.4188 69.2325 41.8807C67.9334 41.3426 66.8231 40.4314 66.0419 39.2623C65.2607 38.0931 64.8438 36.7186 64.8438 35.3125C64.8458 33.4276 65.5955 31.6205 66.9283 30.2877C68.2612 28.9549 70.0682 28.2052 71.9531 28.2031Z" fill="#6A0600"/>
<defs>
<linearGradient id="paint0_linear_9494_9976" x1="55" y1="0" x2="55" y2="110" gradientUnits="userSpaceOnUse">
<stop stop-color="#FFEBE0"/>
<stop offset="1" stop-color="#FFD0B6"/>
</linearGradient>
</defs>
</svg>
