<svg width="116" height="116" viewBox="0 0 116 116" fill="none" xmlns="http://www.w3.org/2000/svg">
<rect width="116" height="116" rx="58" fill="url(#paint0_linear_9494_9895)"/>
<path d="M35.25 65.5L24.75 65V88H34.75L35.25 65.5Z" fill="white"/>
<path d="M44.75 66.5L36.25 69L34.75 71V85.5L40.25 83.5L52.25 86.5L60.25 88H67.75L92.25 72L88.25 69L79.75 73L73.75 76L69.75 71H66.75L58.25 70L52.25 69L44.75 66.5Z" fill="white"/>
<path d="M84.571 68.6585L74.2943 73.5148C73.9435 72.8644 73.5085 72.2631 73.0005 71.7265C72.2467 70.9255 71.3415 70.2821 70.3373 69.8334C69.3331 69.3846 68.2499 69.1396 67.1504 69.1123L57.659 68.8506C56.1557 68.8074 54.6814 68.4265 53.3452 67.7363L52.3795 67.2363C49.9431 65.9663 47.2356 65.3045 44.488 65.3074C41.7405 65.3102 39.0344 65.9776 36.6006 67.2527L36.6608 65.0646C36.6704 64.7166 36.5414 64.3791 36.3021 64.1263C36.0629 63.8735 35.733 63.7261 35.3851 63.7165L24.9771 63.43C24.6295 63.4224 24.2927 63.5512 24.0388 63.7888C23.9136 63.9073 23.8129 64.0493 23.7425 64.2066C23.6721 64.364 23.6335 64.5337 23.6287 64.7061L23.0005 87.5456C22.991 87.8935 23.12 88.231 23.3593 88.4838C23.5986 88.7365 23.9285 88.8839 24.2764 88.8935L34.6842 89.1799H34.721C35.0627 89.1798 35.3909 89.0463 35.6358 88.808C35.8806 88.5696 36.0229 88.2451 36.0323 87.9035L36.0623 86.8109L38.7662 85.363C39.8272 84.7921 41.0686 84.6562 42.228 84.984L58.3735 89.5161C58.4017 89.5241 58.4301 89.531 58.4588 89.5371C59.6259 89.7811 60.8151 89.9037 62.0073 89.9031C64.5325 89.9047 67.0281 89.3602 69.323 88.307C69.3794 88.2809 69.4339 88.2509 69.486 88.2171L92.8959 73.0741C93.1768 72.8924 93.3777 72.6104 93.4576 72.2855C93.5376 71.9607 93.4904 71.6176 93.3259 71.3263C92.4892 69.8416 91.1129 68.7361 89.4827 68.2393C87.8524 67.7425 86.0935 67.8927 84.571 68.6585ZM25.6606 86.3056L26.2169 66.0901L34.0007 66.3045L33.4444 86.5202L25.6606 86.3056ZM68.1408 85.9624C65.2893 87.2487 62.105 87.604 59.0401 86.9777L42.9379 82.4578C41.1259 81.9458 39.1859 82.1581 37.5276 83.0497L36.1462 83.7895L36.516 70.3484C38.6656 68.9187 41.1595 68.092 43.7375 67.9546C46.3155 67.8172 48.8832 68.3741 51.1726 69.5671L52.1382 70.0673C53.8261 70.9389 55.6884 71.4199 57.5873 71.4748L67.0785 71.7358C68.3741 71.7721 69.6195 72.2448 70.6129 73.0773C71.6063 73.9097 72.2895 75.0533 72.5518 76.3225L58.4119 75.9327C58.0638 75.9231 57.7262 76.0522 57.4732 76.2916C57.2203 76.5309 57.0728 76.8609 57.0632 77.209C57.0536 77.5571 57.1827 77.8948 57.4221 78.1477C57.6614 78.4006 57.9915 78.5481 58.3396 78.5577L73.9419 78.9871H73.9786C74.3204 78.9869 74.6486 78.8535 74.8935 78.6151C75.1383 78.3767 75.2806 78.0523 75.29 77.7107C75.3056 77.1401 75.2635 76.5693 75.1642 76.0072L85.7085 71.0253L85.7393 71.0104C86.4696 70.6405 87.2956 70.503 88.1063 70.6166C88.917 70.7301 89.6734 71.0892 90.274 71.6454L68.1408 85.9624Z" fill="#6A0600"/>
<mask id="path-5-inside-1_9494_9895" fill="white">
<path d="M83.25 44.5C83.8023 44.5 84.2528 44.0519 84.223 43.5005C84.044 40.1925 82.9794 36.9866 81.1322 34.222C79.0994 31.1796 76.2101 28.8084 72.8296 27.4082C69.4492 26.008 65.7295 25.6416 62.1408 26.3555C58.5522 27.0693 55.2558 28.8313 52.6685 31.4185C50.0813 34.0058 48.3193 37.3022 47.6055 40.8908C46.8916 44.4795 47.258 48.1992 48.6582 51.5796C50.0584 54.9601 52.4296 57.8494 55.472 59.8822C58.2366 61.7294 61.4425 62.794 64.7505 62.973C65.3019 63.0028 65.75 62.5523 65.75 62V45.5C65.75 44.9477 66.1977 44.5 66.75 44.5H83.25Z"/>
</mask>
<path d="M83.25 44.5C83.8023 44.5 84.2528 44.0519 84.223 43.5005C84.044 40.1925 82.9794 36.9866 81.1322 34.222C79.0994 31.1796 76.2101 28.8084 72.8296 27.4082C69.4492 26.008 65.7295 25.6416 62.1408 26.3555C58.5522 27.0693 55.2558 28.8313 52.6685 31.4185C50.0813 34.0058 48.3193 37.3022 47.6055 40.8908C46.8916 44.4795 47.258 48.1992 48.6582 51.5796C50.0584 54.9601 52.4296 57.8494 55.472 59.8822C58.2366 61.7294 61.4425 62.794 64.7505 62.973C65.3019 63.0028 65.75 62.5523 65.75 62V45.5C65.75 44.9477 66.1977 44.5 66.75 44.5H83.25Z" fill="#FFA979" stroke="#6A0600" stroke-width="4" mask="url(#path-5-inside-1_9494_9895)"/>
<mask id="path-6-inside-2_9494_9895" fill="white">
<path d="M68.75 62C68.75 62.5523 69.1982 63.0034 69.7493 62.9678C71.4429 62.8583 73.1094 62.4713 74.6816 61.8201C76.5621 61.0412 78.2708 59.8995 79.7102 58.4602C81.1495 57.0208 82.2912 55.3121 83.0701 53.4316C83.7213 51.8594 84.1083 50.1929 84.2178 48.4993C84.2534 47.9482 83.8023 47.5 83.25 47.5L69.75 47.5C69.1977 47.5 68.75 47.9477 68.75 48.5L68.75 62Z"/>
</mask>
<path d="M68.75 62C68.75 62.5523 69.1982 63.0034 69.7493 62.9678C71.4429 62.8583 73.1094 62.4713 74.6816 61.8201C76.5621 61.0412 78.2708 59.8995 79.7102 58.4602C81.1495 57.0208 82.2912 55.3121 83.0701 53.4316C83.7213 51.8594 84.1083 50.1929 84.2178 48.4993C84.2534 47.9482 83.8023 47.5 83.25 47.5L69.75 47.5C69.1977 47.5 68.75 47.9477 68.75 48.5L68.75 62Z" fill="#FFA979" stroke="#6A0600" stroke-width="4" mask="url(#path-6-inside-2_9494_9895)"/>
<defs>
<linearGradient id="paint0_linear_9494_9895" x1="58" y1="0" x2="58" y2="116" gradientUnits="userSpaceOnUse">
<stop stop-color="#FFEBE0"/>
<stop offset="1" stop-color="#FFD0B6"/>
</linearGradient>
</defs>
</svg>
