<svg width="116" height="116" viewBox="0 0 116 116" fill="none" xmlns="http://www.w3.org/2000/svg">
<rect width="116" height="116" rx="58" fill="url(#paint0_linear_307_185)"/>
<path d="M67.8281 60.3125L51.0625 59.7344L47.5938 62.0469L45.2812 65.5156V68.9844L47.5938 71.875H69.5625L71.875 69.5625V63.7812L67.8281 60.3125Z" fill="#FFA979"/>
<circle cx="58.5781" cy="50.4844" r="6.35938" fill="#FFA979"/>
<path d="M45.1992 67.911C45.1992 65.8082 45.904 63.7915 47.1586 62.3046C48.4132 60.8178 50.1147 59.9824 51.889 59.9824H65.2684C67.0426 59.9824 68.7442 60.8178 69.9988 62.3046C71.2533 63.7915 71.9581 65.8082 71.9581 67.911C71.9581 68.9624 71.6057 69.9707 70.9785 70.7142C70.3512 71.4576 69.5004 71.8753 68.6133 71.8753H48.5441C47.657 71.8753 46.8062 71.4576 46.1789 70.7142C45.5516 69.9707 45.1992 68.9624 45.1992 67.911Z" stroke="#6A0600" stroke-width="2.3125" stroke-linejoin="round"/>
<path d="M59.0714 56.0179C62.3555 56.0179 65.0179 53.3555 65.0179 50.0714C65.0179 46.7873 62.3555 44.125 59.0714 44.125C55.7873 44.125 53.125 46.7873 53.125 50.0714C53.125 53.3555 55.7873 56.0179 59.0714 56.0179Z" stroke="#6A0600" stroke-width="2.3125"/>
<circle cx="58" cy="58" r="28.9062" stroke="#6A0600" stroke-width="2.3125"/>
<path d="M59.6625 21.9688H56.3375C55.547 21.9688 54.9062 22.6095 54.9062 23.4V34.1781C54.9062 34.5577 55.057 34.9217 55.3255 35.1901L56.988 36.8526C57.5469 37.4115 58.4531 37.4115 59.012 36.8526L60.6745 35.1901C60.943 34.9217 61.0938 34.5577 61.0938 34.1781V23.4C61.0938 22.6095 60.453 21.9688 59.6625 21.9688Z" fill="white" stroke="#6A0600" stroke-width="2.0625"/>
<path d="M59.6625 94.0312H56.3375C55.547 94.0312 54.9062 93.3905 54.9062 92.6V81.8219C54.9062 81.4423 55.057 81.0783 55.3255 80.8099L56.988 79.1474C57.5469 78.5885 58.4531 78.5885 59.012 79.1474L60.6745 80.8099C60.943 81.0783 61.0938 81.4423 61.0938 81.8219V92.6C61.0938 93.3905 60.453 94.0312 59.6625 94.0312Z" fill="white" stroke="#6A0600" stroke-width="2.0625"/>
<path d="M94.0312 59.6625L94.0312 56.3375C94.0313 55.547 93.3905 54.9063 92.6 54.9062L81.8219 54.9062C81.4423 54.9062 81.0783 55.057 80.8099 55.3255L79.1474 56.988C78.5885 57.5469 78.5885 58.4531 79.1474 59.012L80.8099 60.6745C81.0783 60.943 81.4423 61.0937 81.8219 61.0937L92.6 61.0937C93.3905 61.0938 94.0312 60.453 94.0312 59.6625Z" fill="white" stroke="#6A0600" stroke-width="2.0625"/>
<path d="M21.9687 59.6625L21.9687 56.3375C21.9688 55.547 22.6095 54.9062 23.4 54.9063L34.1781 54.9063C34.5577 54.9063 34.9217 55.057 35.1901 55.3255L36.8526 56.988C37.4115 57.5469 37.4115 58.4531 36.8526 59.012L35.1901 60.6745C34.9217 60.943 34.5577 61.0938 34.1781 61.0938L23.4 61.0938C22.6095 61.0937 21.9687 60.453 21.9687 59.6625Z" fill="white" stroke="#6A0600" stroke-width="2.0625"/>
<defs>
<linearGradient id="paint0_linear_307_185" x1="58" y1="0" x2="58" y2="116" gradientUnits="userSpaceOnUse">
<stop stop-color="#FFEBE0"/>
<stop offset="1" stop-color="#FFD0B6"/>
</linearGradient>
</defs>
</svg>
