<svg width="110" height="110" viewBox="0 0 110 110" fill="none" xmlns="http://www.w3.org/2000/svg">
<rect width="110" height="110" rx="55" fill="url(#paint0_linear_9494_9942)"/>
<path d="M70.332 37.666H40.332L44.332 29.666H65.6654L70.332 37.666Z" fill="white"/>
<path d="M45.668 68.3327H29.668L31.8013 65.666H43.1791L45.668 68.3327Z" fill="white"/>
<path d="M80.332 68.3327H64.332L66.4654 65.666H77.8431L80.332 68.3327Z" fill="white"/>
<path d="M70.332 37H40.332V56.3333H70.332V37Z" fill="#FFA979"/>
<path d="M45.668 68.334H29.668V80.334H45.668V68.334Z" fill="#FFA979"/>
<path d="M80.332 68.334H64.332V80.334H80.332V68.334Z" fill="#FFA979"/>
<path fill-rule="evenodd" clip-rule="evenodd" d="M28.5187 68.9873C28.3987 69.1873 28.332 69.4273 28.332 69.6673V80.334C28.332 81.0673 28.932 81.6673 29.6654 81.6673H45.6654C46.3987 81.6673 46.9987 81.0673 46.9987 80.334V69.6673C46.9987 69.414 46.932 69.1873 46.812 68.9873L44.532 65.014C44.292 64.6007 43.852 64.3473 43.372 64.3473H31.9454C31.4654 64.3473 31.0254 64.6007 30.7854 65.014L28.5054 68.9873H28.5187ZM63.1854 68.9873C63.0654 69.1873 62.9987 69.4273 62.9987 69.6673V80.334C62.9987 81.0673 63.5987 81.6673 64.332 81.6673H80.332C81.0654 81.6673 81.6654 81.0673 81.6654 80.334V69.6673C81.6654 69.414 81.5987 69.1873 81.4787 68.9873L79.1987 65.014C78.9587 64.6007 78.5187 64.3473 78.0387 64.3473H66.612C66.132 64.3473 65.692 64.6007 65.452 65.014L63.172 68.9873H63.1854ZM44.332 71.0006V79.0006H30.9987V71.0006H44.332ZM78.9987 71.0006V79.0006H65.6654V71.0006H78.9987ZM38.9987 77.6673H41.6654C42.3987 77.6673 42.9987 77.0673 42.9987 76.334C42.9987 75.6006 42.3987 75.0006 41.6654 75.0006H38.9987C38.2654 75.0006 37.6654 75.6006 37.6654 76.334C37.6654 77.0673 38.2654 77.6673 38.9987 77.6673ZM73.6654 77.6673H76.332C77.0654 77.6673 77.6654 77.0673 77.6654 76.334C77.6654 75.6006 77.0654 75.0006 76.332 75.0006H73.6654C72.932 75.0006 72.332 75.6006 72.332 76.334C72.332 77.0673 72.932 77.6673 73.6654 77.6673ZM67.3854 67.0006L66.6254 68.334H70.9987V67.0006H67.3854ZM73.6654 67.0006V68.334H78.0387L77.2787 67.0006H73.6654ZM32.7187 67.0006L31.9587 68.334H36.332V67.0006H32.7187ZM38.9987 67.0006V68.334H43.372L42.612 67.0006H38.9987ZM49.5854 61.2006C49.3987 60.694 48.9054 60.334 48.332 60.334C47.5987 60.334 46.9987 60.934 46.9987 61.6673V64.334C46.9987 65.0673 47.5987 65.6673 48.332 65.6673H50.9987C51.732 65.6673 52.332 65.0673 52.332 64.334C52.332 63.7607 51.972 63.2806 51.4654 63.0806L53.2787 61.2673C53.7987 60.7473 53.7987 59.9073 53.2787 59.374C52.7587 58.854 51.9187 58.854 51.3854 59.374L49.572 61.1873L49.5854 61.2006ZM58.532 63.0806C58.0254 63.2673 57.6654 63.7607 57.6654 64.334C57.6654 65.0673 58.2654 65.6673 58.9987 65.6673H61.6654C62.3987 65.6673 62.9987 65.0673 62.9987 64.334V61.6673C62.9987 60.934 62.3987 60.334 61.6654 60.334C61.092 60.334 60.612 60.694 60.412 61.2006L58.5987 59.3873C58.0787 58.8673 57.2387 58.8673 56.7054 59.3873C56.1854 59.9073 56.1854 60.7473 56.7054 61.2806L58.5187 63.094L58.532 63.0806ZM39.1454 37.0407C39.052 37.2273 38.9987 37.4407 38.9987 37.6673V56.334C38.9987 57.0673 39.5987 57.6673 40.332 57.6673H69.6654C70.3987 57.6673 70.9987 57.0673 70.9987 56.334V37.6673C70.9987 37.4407 70.9454 37.2273 70.852 37.0407L66.8654 29.0673C66.6387 28.614 66.172 28.334 65.6787 28.334H44.332C43.8254 28.334 43.3587 28.614 43.1454 29.0673L39.1587 37.0407H39.1454ZM41.6654 39.0007H68.332V55.0006H41.6654V39.0007ZM44.332 53.6673H48.332C49.0654 53.6673 49.6654 53.0673 49.6654 52.334C49.6654 51.6006 49.0654 51.0007 48.332 51.0007H44.332C43.5987 51.0007 42.9987 51.6006 42.9987 52.334C42.9987 53.0673 43.5987 53.6673 44.332 53.6673ZM66.9987 48.334C66.9987 47.6007 66.3987 47.0007 65.6654 47.0007H58.9987C58.2654 47.0007 57.6654 47.6007 57.6654 48.334V52.334C57.6654 53.0673 58.2654 53.6673 58.9987 53.6673H65.6654C66.3987 53.6673 66.9987 53.0673 66.9987 52.334V48.334ZM64.332 49.6673V51.0007H60.332V49.6673H64.332ZM44.332 49.6673H46.9987C47.732 49.6673 48.332 49.0673 48.332 48.334C48.332 47.6007 47.732 47.0007 46.9987 47.0007H44.332C43.5987 47.0007 42.9987 47.6007 42.9987 48.334C42.9987 49.0673 43.5987 49.6673 44.332 49.6673ZM56.332 31.0007V36.334H67.5054L64.8387 31.0007H56.332ZM42.492 36.334H53.6654V31.0007H45.1587L42.492 36.334Z" fill="#6A0600"/>
<defs>
<linearGradient id="paint0_linear_9494_9942" x1="55" y1="0" x2="55" y2="110" gradientUnits="userSpaceOnUse">
<stop stop-color="#FFEBE0"/>
<stop offset="1" stop-color="#FFD0B6"/>
</linearGradient>
</defs>
</svg>
