<svg width="365" height="341" viewBox="0 0 365 341" fill="none" xmlns="http://www.w3.org/2000/svg">
<g opacity="0.72">
<path d="M218.09 278.788H152.142C133.785 272.002 109.31 263.859 115.429 248.25C121.548 232.641 152.142 253.678 160.301 238.749C168.459 223.819 102.511 221.782 109.31 202.782C116.109 183.779 157.581 208.21 152.142 189.888C146.703 171.563 100.471 178.349 102.511 159.349C104.551 140.347 139.224 171.563 143.304 149.848C147.382 128.131 109.99 89.4486 139.224 82.6626C168.459 75.8765 160.301 146.455 170.499 149.848C180.696 153.241 190.215 116.594 204.493 132.881C218.77 149.168 194.294 185.815 204.493 202.782C214.691 219.747 228.968 156.634 245.286 185.815C258.339 209.161 232.593 257.525 218.09 278.788Z" fill="white"/>
<path d="M276.663 110.671L279.375 124.906L276.663 139.819C269.659 140.723 255.378 142.531 254.294 142.531C253.209 142.531 245.255 135.753 241.413 132.363L245.481 110.671C234.092 106.874 230.342 90.1082 229.89 82.1997C227.178 49.6617 248.87 45.5938 252.938 45.5938C257.004 45.5938 282.764 45.5937 286.154 72.7092C288.866 94.4022 280.957 107.055 276.663 110.671Z" fill="#EFCB96"/>
<path d="M258.571 110.672C252.258 112.775 246.953 111.549 244.761 110.672L243.445 118.562C251.863 117.511 256.817 113.083 258.571 110.672Z" fill="#C1A489"/>
<path d="M260.392 133.718C273.949 133.718 279.599 125.584 281.407 121.516L286.151 122.872L256.324 277.429H251.579H179.047L224.464 131.006L240.055 121.516H242.089C242.993 125.584 246.835 133.718 260.392 133.718Z" fill="white"/>
<path fill-rule="evenodd" clip-rule="evenodd" d="M280.647 119.891L280.168 120.968C278.509 124.701 273.262 132.364 260.393 132.364C253.907 132.364 249.899 130.428 247.413 128.146C244.903 125.84 243.823 123.067 243.414 121.224L243.178 120.162H239.676L223.323 130.118L177.207 278.787H257.445L287.72 121.911L280.647 119.891ZM241.044 122.874C241.685 125.016 243.005 127.778 245.58 130.143C248.631 132.946 253.322 135.076 260.393 135.076C273.561 135.076 279.728 127.722 282.13 123.134L284.586 123.837L255.207 276.075H180.888L225.609 131.9L240.437 122.874H241.044Z" fill="#C1A489"/>
<path d="M259.036 202.19C262.832 177.787 275.983 137.791 282.083 120.844C293.608 122.878 319.231 130.741 329.536 145.925C339.84 161.111 353.713 211.455 359.361 234.728C365.463 255.742 365.463 278.791 342.414 278.791H238.022C227.176 257.776 230.566 247.607 233.954 243.541C236.666 240.286 248.695 237.666 254.371 236.762C255.846 224.62 257.469 212.268 259.036 202.19ZM214.975 202.19C219.312 175.075 233.954 136.662 240.734 120.844C232.824 121.296 214.295 125.047 203.45 136.436C189.892 150.671 168.2 203.546 164.132 208.969C155.998 218.459 93.5839 243.729 92.2777 248.285C86.8537 255.742 92.9557 275.401 99.7342 278.791H206.162C207.291 264.102 210.635 229.306 214.975 202.19Z" fill="#FFE5D5"/>
<path d="M296.998 226.588L286.83 185.237L289.542 225.91L239.188 238.65C235.4 239.608 231.934 241.965 230.833 245.713C227.428 257.312 232.596 270.743 236.667 275.395C232.514 270.65 232.599 247.601 237.345 244.213C241.14 241.501 288.186 232.688 311.233 228.622L296.998 226.588ZM195.994 174.391L170.913 278.785H160.066L195.994 174.391Z" fill="#C1A489"/>
<path d="M189.215 278.794C189.215 260.356 216.556 254.843 229.889 254.391C229.889 263.61 234.633 272.692 238.701 278.794H189.215ZM57.707 278.794C57.707 262.405 79.235 256.825 90.923 256.423C90.923 264.618 96.2837 274.978 99.0575 278.794H57.707Z" fill="#EFCB96"/>
<path d="M280.729 76.1054C283.44 83.6975 275.983 88.3063 271.917 89.6623L278.695 124.234L280.051 121.522C295.642 122.878 310.103 129.657 315.978 133.725C319.368 112.71 306.489 103.897 299.031 87.6283C291.574 71.3594 297.676 33.3984 259.714 33.3984C229.346 33.3984 224.916 60.5144 226.498 74.0714C240.055 70.2746 247.965 56.2204 250.224 49.6679C251.58 53.0564 263.104 83.5619 267.171 76.1054C271.239 68.6489 277.339 66.6149 280.729 76.1054ZM217.008 127.624C226.227 118.405 229.888 97.1188 230.566 87.6283C232.734 103.355 241.411 109.547 245.479 110.677L243.445 121.522C231.514 120.98 220.85 125.364 217.008 127.624ZM332.925 278.791C336.179 257.098 352.584 243.315 360.718 239.473C365.113 257.198 364.108 278.791 345.127 278.791H332.925Z" fill="#C1A489"/>
<path d="M128.714 175.577L166.56 261.519C168.46 265.834 165.3 270.678 160.586 270.678H45.1014C42.449 270.678 40.0604 269.074 39.058 266.618L3.97133 180.674C2.21833 176.382 5.37675 171.68 10.0147 171.68H122.74C125.329 171.68 127.671 173.209 128.714 175.577Z" fill="white"/>
<path fill-rule="evenodd" clip-rule="evenodd" d="M122.738 173.039C124.788 173.039 126.645 174.25 127.472 176.126L165.318 262.069C166.823 265.488 164.319 269.325 160.584 269.325H45.0991C42.9976 269.325 41.1051 268.054 40.3109 266.108L5.22428 180.165C3.83528 176.763 6.33785 173.039 10.0125 173.039H122.738ZM129.953 175.033C128.694 172.174 125.863 170.328 122.738 170.328H10.0125C4.41128 170.328 0.596853 176.005 2.71387 181.191L37.8005 267.133C39.0113 270.098 41.8959 272.037 45.0991 272.037H160.584C166.277 272.037 170.094 266.187 167.799 260.977L129.953 175.033Z" fill="#C1A489"/>
<path d="M93.4353 214.306C91.3124 209.383 86.4655 206.195 81.1058 206.195C71.4532 206.195 64.9539 216.076 68.7763 224.94L69.7289 227.149C71.8515 232.071 76.6983 235.259 82.0585 235.259C91.7117 235.259 98.2099 225.378 94.3875 216.514L93.4353 214.306Z" fill="#FFE5D5"/>
<path d="M46.9098 278.853H247.335C250.596 278.853 253.24 276.21 253.24 272.95C253.24 269.69 250.596 267.047 247.335 267.047H46.9099C42.6795 267.047 39.8221 271.365 41.4764 275.258C42.4024 277.438 44.5416 278.853 46.9098 278.853Z" fill="#C1A489"/>
<rect x="46.4102" y="14.1406" width="126.711" height="92.9213" rx="2.41354" fill="#FFE5D5"/>
<rect x="52.8359" y="20.5703" width="53.5962" height="35.5366" fill="white"/>
<rect x="111.578" y="20.1719" width="55.5115" height="2.41354" fill="white"/>
<rect x="111.578" y="26.2031" width="55.5115" height="2.41354" fill="white"/>
<rect x="111.578" y="32.2422" width="55.5115" height="2.41354" fill="white"/>
<rect x="111.578" y="38.2812" width="55.5115" height="2.41354" fill="white"/>
<rect x="111.578" y="44.3125" width="55.5115" height="2.41354" fill="white"/>
<rect x="51.8398" y="70.2578" width="115.247" height="2.41354" fill="white"/>
<rect x="51.8398" y="76.2891" width="115.247" height="2.41354" fill="white"/>
<rect x="51.8398" y="82.3203" width="115.247" height="2.41354" fill="white"/>
<rect x="51.8398" y="88.3516" width="115.247" height="2.41354" fill="white"/>
<rect x="111.578" y="50.3438" width="29.5659" height="2.41354" fill="white"/>
</g>
<path d="M15.744 317.052V333.852H12L5.184 322.932V333.852H1.488V317.052H5.232L12.024 328.02V317.052H15.744ZM24.1151 334.02C22.9471 334.02 21.8991 333.772 20.9711 333.276C20.0431 332.78 19.3151 332.068 18.7871 331.14C18.2751 330.212 18.0191 329.116 18.0191 327.852C18.0191 326.588 18.2831 325.5 18.8111 324.588C19.3551 323.66 20.0911 322.948 21.0191 322.452C21.9631 321.94 23.0111 321.684 24.1631 321.684C25.3471 321.684 26.4031 321.94 27.3311 322.452C28.2751 322.948 29.0191 323.66 29.5631 324.588C30.1071 325.5 30.3791 326.58 30.3791 327.828C30.3791 329.108 30.0991 330.212 29.5391 331.14C28.9951 332.068 28.2431 332.78 27.2831 333.276C26.3391 333.772 25.2831 334.02 24.1151 334.02ZM24.1151 330.852C24.5311 330.852 24.9311 330.74 25.3151 330.516C25.6991 330.292 26.0111 329.964 26.2511 329.532C26.4911 329.084 26.6111 328.524 26.6111 327.852C26.6111 327.18 26.4911 326.628 26.2511 326.196C26.0111 325.748 25.7071 325.412 25.3391 325.188C24.9711 324.964 24.5791 324.852 24.1631 324.852C23.7151 324.852 23.3151 324.964 22.9631 325.188C22.6111 325.412 22.3231 325.748 22.0991 326.196C21.8911 326.628 21.7871 327.18 21.7871 327.852C21.7871 328.524 21.8911 329.084 22.0991 329.532C22.3071 329.964 22.5871 330.292 22.9391 330.516C23.2911 330.74 23.6831 330.852 24.1151 330.852ZM46.155 333.852L45.915 332.364C45.499 332.876 45.051 333.276 44.571 333.564C44.091 333.852 43.451 333.996 42.651 333.996C41.899 333.996 41.227 333.868 40.635 333.612C40.043 333.34 39.571 332.948 39.219 332.436C38.883 331.924 38.715 331.308 38.715 330.588C38.715 329.596 39.067 328.772 39.771 328.116C40.491 327.46 41.603 327.052 43.107 326.892L45.915 326.58V325.788C45.915 325.516 45.779 325.252 45.507 324.996C45.251 324.724 44.843 324.588 44.283 324.588C43.787 324.588 43.355 324.716 42.987 324.972C42.635 325.228 42.395 325.596 42.267 326.076L39.267 324.996C39.619 323.924 40.235 323.108 41.115 322.548C42.011 321.972 43.115 321.684 44.427 321.684C46.059 321.684 47.299 322.092 48.147 322.908C48.995 323.724 49.419 324.82 49.419 326.196V333.852H46.155ZM45.915 328.74L43.683 329.004C43.235 329.068 42.891 329.212 42.651 329.436C42.427 329.644 42.315 329.908 42.315 330.228C42.315 330.532 42.443 330.788 42.699 330.996C42.955 331.204 43.307 331.308 43.755 331.308C44.203 331.308 44.587 331.22 44.907 331.044C45.227 330.852 45.475 330.588 45.651 330.252C45.827 329.9 45.915 329.468 45.915 328.956V328.74ZM51.9456 321.852H55.1376L55.3776 323.436C55.6816 323.02 56.0416 322.676 56.4576 322.404C56.8896 322.116 57.3616 321.924 57.8736 321.828C58.4016 321.732 58.9776 321.74 59.6016 321.852V325.164C59.1856 325.02 58.7376 324.98 58.2576 325.044C57.7776 325.092 57.3216 325.252 56.8896 325.524C56.4576 325.78 56.1056 326.164 55.8336 326.676C55.5776 327.188 55.4496 327.836 55.4496 328.62V333.852H51.9456V321.852ZM62.3034 321.852V318.492H65.8794V321.852H68.3514V324.948H65.8794V329.268C65.8794 329.812 65.9994 330.196 66.2394 330.42C66.4954 330.644 66.8154 330.764 67.1994 330.78C67.5834 330.78 67.9674 330.748 68.3514 330.684V333.732C67.5354 333.876 66.7594 333.916 66.0234 333.852C65.2874 333.804 64.6394 333.612 64.0794 333.276C63.5354 332.94 63.1034 332.444 62.7834 331.788C62.4634 331.132 62.3034 330.292 62.3034 329.268V324.948H60.6234V321.852H62.3034ZM70.7766 321.852H74.2806V333.852H70.7766V321.852ZM72.5286 320.628C71.8726 320.628 71.3366 320.436 70.9206 320.052C70.5206 319.652 70.3206 319.172 70.3206 318.612C70.3206 318.036 70.5206 317.556 70.9206 317.172C71.3366 316.772 71.8726 316.572 72.5286 316.572C73.1686 316.572 73.6886 316.772 74.0886 317.172C74.5046 317.556 74.7126 318.036 74.7126 318.612C74.7126 319.172 74.5046 319.652 74.0886 320.052C73.6886 320.436 73.1686 320.628 72.5286 320.628ZM82.7753 334.02C81.6073 334.036 80.5753 333.788 79.6793 333.276C78.7833 332.748 78.0873 332.028 77.5913 331.116C77.0953 330.188 76.8473 329.108 76.8473 327.876C76.8473 326.66 77.0953 325.588 77.5913 324.66C78.0873 323.716 78.7833 322.988 79.6793 322.476C80.5753 321.948 81.6073 321.684 82.7753 321.684C84.1033 321.684 85.2633 322.02 86.2553 322.692C87.2633 323.348 87.9673 324.252 88.3672 325.404L85.0553 326.22C84.8953 325.788 84.6313 325.452 84.2633 325.212C83.8953 324.972 83.4713 324.852 82.9913 324.852C82.5113 324.852 82.0873 324.98 81.7193 325.236C81.3513 325.492 81.0633 325.852 80.8553 326.316C80.6633 326.764 80.5673 327.284 80.5673 327.876C80.5673 328.772 80.7913 329.492 81.2393 330.036C81.6873 330.58 82.2713 330.852 82.9913 330.852C83.4553 330.852 83.8713 330.74 84.2393 330.516C84.6073 330.276 84.8953 329.94 85.1033 329.508L88.3913 330.348C87.9913 331.452 87.2793 332.34 86.2553 333.012C85.2473 333.668 84.0873 334.004 82.7753 334.02ZM90.5237 316.572H94.0277V333.852H90.5237V316.572ZM102.256 334.02C101.024 334.02 99.9518 333.764 99.0398 333.252C98.1278 332.724 97.4158 331.988 96.9038 331.044C96.4078 330.1 96.1598 328.996 96.1598 327.732C96.1598 326.564 96.4078 325.524 96.9038 324.612C97.3998 323.7 98.0958 322.988 98.9918 322.476C99.8878 321.948 100.904 321.684 102.04 321.684C103.24 321.684 104.28 321.932 105.16 322.428C106.04 322.908 106.728 323.596 107.224 324.492C107.72 325.388 107.968 326.428 107.968 327.612C107.968 327.804 107.96 328.004 107.944 328.212C107.928 328.42 107.904 328.652 107.872 328.908H99.9038C99.9838 329.34 100.136 329.716 100.36 330.036C100.584 330.34 100.864 330.58 101.2 330.756C101.552 330.916 101.952 330.996 102.4 330.996C102.896 330.996 103.344 330.892 103.744 330.684C104.144 330.476 104.44 330.18 104.632 329.796L107.776 330.66C107.296 331.732 106.576 332.564 105.616 333.156C104.656 333.732 103.536 334.02 102.256 334.02ZM104.152 326.628C104.136 326.228 104.032 325.876 103.84 325.572C103.648 325.268 103.4 325.028 103.096 324.852C102.792 324.676 102.456 324.596 102.088 324.612C101.72 324.628 101.384 324.724 101.08 324.9C100.792 325.06 100.544 325.292 100.336 325.596C100.128 325.884 99.9998 326.228 99.9518 326.628H104.152ZM112.734 329.916C112.814 330.236 112.942 330.484 113.118 330.66C113.31 330.836 113.534 330.964 113.79 331.044C114.046 331.124 114.31 331.164 114.582 331.164C115.078 331.164 115.462 331.076 115.734 330.9C116.006 330.724 116.142 330.5 116.142 330.228C116.142 329.956 116.038 329.756 115.83 329.628C115.638 329.484 115.382 329.372 115.062 329.292C114.742 329.196 114.406 329.108 114.054 329.028C113.654 328.932 113.206 328.82 112.71 328.692C112.214 328.548 111.742 328.356 111.294 328.116C110.846 327.86 110.478 327.524 110.19 327.108C109.902 326.676 109.758 326.14 109.758 325.5C109.758 324.764 109.958 324.108 110.358 323.532C110.758 322.956 111.326 322.508 112.062 322.188C112.798 321.852 113.67 321.684 114.678 321.684C115.91 321.684 116.918 321.94 117.702 322.452C118.486 322.964 119.046 323.684 119.382 324.612L116.334 325.38C116.254 325.172 116.134 325.012 115.974 324.9C115.814 324.772 115.614 324.684 115.374 324.636C115.15 324.572 114.926 324.54 114.702 324.54C114.286 324.54 113.958 324.62 113.718 324.78C113.478 324.94 113.358 325.14 113.358 325.38C113.358 325.54 113.406 325.676 113.502 325.788C113.614 325.9 113.758 325.988 113.934 326.052C114.126 326.116 114.342 326.172 114.582 326.22C114.838 326.268 115.11 326.332 115.398 326.412C115.878 326.524 116.366 326.66 116.862 326.82C117.374 326.98 117.846 327.196 118.278 327.468C118.71 327.724 119.062 328.076 119.334 328.524C119.606 328.956 119.75 329.516 119.766 330.204C119.766 330.908 119.566 331.556 119.166 332.148C118.766 332.724 118.182 333.18 117.414 333.516C116.646 333.852 115.71 334.02 114.606 334.02C113.278 334.02 112.166 333.748 111.27 333.204C110.374 332.66 109.806 331.82 109.566 330.684L112.734 329.916ZM129.234 320.964C129.234 319.828 129.442 318.916 129.858 318.228C130.29 317.54 130.906 317.06 131.706 316.788C132.506 316.516 133.482 316.444 134.634 316.572V319.692C133.994 319.596 133.514 319.684 133.194 319.956C132.89 320.212 132.738 320.636 132.738 321.228V321.852H134.73V324.948H132.738V333.852H129.234V324.948H127.866V321.852H129.234V320.964ZM142.029 334.02C140.861 334.02 139.813 333.772 138.885 333.276C137.957 332.78 137.229 332.068 136.701 331.14C136.189 330.212 135.933 329.116 135.933 327.852C135.933 326.588 136.197 325.5 136.725 324.588C137.269 323.66 138.005 322.948 138.933 322.452C139.877 321.94 140.925 321.684 142.077 321.684C143.261 321.684 144.317 321.94 145.245 322.452C146.189 322.948 146.933 323.66 147.477 324.588C148.021 325.5 148.293 326.58 148.293 327.828C148.293 329.108 148.013 330.212 147.453 331.14C146.909 332.068 146.157 332.78 145.197 333.276C144.253 333.772 143.197 334.02 142.029 334.02ZM142.029 330.852C142.445 330.852 142.845 330.74 143.229 330.516C143.613 330.292 143.925 329.964 144.165 329.532C144.405 329.084 144.525 328.524 144.525 327.852C144.525 327.18 144.405 326.628 144.165 326.196C143.925 325.748 143.621 325.412 143.253 325.188C142.885 324.964 142.493 324.852 142.077 324.852C141.629 324.852 141.229 324.964 140.877 325.188C140.525 325.412 140.237 325.748 140.013 326.196C139.805 326.628 139.701 327.18 139.701 327.852C139.701 328.524 139.805 329.084 140.013 329.532C140.221 329.964 140.501 330.292 140.853 330.516C141.205 330.74 141.597 330.852 142.029 330.852ZM150.407 321.852H153.599L153.839 323.436C154.143 323.02 154.503 322.676 154.919 322.404C155.351 322.116 155.823 321.924 156.335 321.828C156.863 321.732 157.439 321.74 158.063 321.852V325.164C157.647 325.02 157.199 324.98 156.719 325.044C156.239 325.092 155.783 325.252 155.351 325.524C154.919 325.78 154.567 326.164 154.295 326.676C154.039 327.188 153.911 327.836 153.911 328.62V333.852H150.407V321.852ZM167.491 321.852V318.492H171.067V321.852H173.539V324.948H171.067V329.268C171.067 329.812 171.187 330.196 171.427 330.42C171.683 330.644 172.003 330.764 172.387 330.78C172.771 330.78 173.155 330.748 173.539 330.684V333.732C172.723 333.876 171.947 333.916 171.211 333.852C170.475 333.804 169.827 333.612 169.267 333.276C168.723 332.94 168.291 332.444 167.971 331.788C167.651 331.132 167.491 330.292 167.491 329.268V324.948H165.811V321.852H167.491ZM175.508 316.572H179.012V323.1C179.38 322.684 179.828 322.348 180.356 322.092C180.9 321.82 181.516 321.684 182.204 321.684C183.116 321.684 183.908 321.884 184.58 322.284C185.252 322.684 185.772 323.268 186.14 324.036C186.508 324.804 186.692 325.74 186.692 326.844V333.852H182.996V327.276C182.996 326.476 182.828 325.868 182.492 325.452C182.172 325.036 181.684 324.828 181.028 324.828C180.356 324.828 179.852 325.068 179.516 325.548C179.18 326.028 179.012 326.676 179.012 327.492V333.852H175.508V316.572ZM194.787 334.02C193.555 334.02 192.483 333.764 191.571 333.252C190.659 332.724 189.947 331.988 189.435 331.044C188.939 330.1 188.691 328.996 188.691 327.732C188.691 326.564 188.939 325.524 189.435 324.612C189.931 323.7 190.627 322.988 191.523 322.476C192.419 321.948 193.435 321.684 194.571 321.684C195.771 321.684 196.811 321.932 197.691 322.428C198.571 322.908 199.259 323.596 199.755 324.492C200.251 325.388 200.499 326.428 200.499 327.612C200.499 327.804 200.491 328.004 200.475 328.212C200.459 328.42 200.435 328.652 200.403 328.908H192.435C192.515 329.34 192.667 329.716 192.891 330.036C193.115 330.34 193.395 330.58 193.731 330.756C194.083 330.916 194.483 330.996 194.931 330.996C195.427 330.996 195.875 330.892 196.275 330.684C196.675 330.476 196.971 330.18 197.163 329.796L200.307 330.66C199.827 331.732 199.107 332.564 198.147 333.156C197.187 333.732 196.067 334.02 194.787 334.02ZM196.683 326.628C196.667 326.228 196.563 325.876 196.371 325.572C196.179 325.268 195.931 325.028 195.627 324.852C195.323 324.676 194.987 324.596 194.619 324.612C194.251 324.628 193.915 324.724 193.611 324.9C193.323 325.06 193.075 325.292 192.867 325.596C192.659 325.884 192.531 326.228 192.483 326.628H196.683ZM211.992 329.916C212.072 330.236 212.2 330.484 212.376 330.66C212.568 330.836 212.792 330.964 213.048 331.044C213.304 331.124 213.568 331.164 213.84 331.164C214.336 331.164 214.72 331.076 214.992 330.9C215.264 330.724 215.4 330.5 215.4 330.228C215.4 329.956 215.296 329.756 215.088 329.628C214.896 329.484 214.64 329.372 214.32 329.292C214 329.196 213.664 329.108 213.312 329.028C212.912 328.932 212.464 328.82 211.968 328.692C211.472 328.548 211 328.356 210.552 328.116C210.104 327.86 209.736 327.524 209.448 327.108C209.16 326.676 209.016 326.14 209.016 325.5C209.016 324.764 209.216 324.108 209.616 323.532C210.016 322.956 210.584 322.508 211.32 322.188C212.056 321.852 212.928 321.684 213.936 321.684C215.168 321.684 216.176 321.94 216.96 322.452C217.744 322.964 218.304 323.684 218.64 324.612L215.592 325.38C215.512 325.172 215.392 325.012 215.232 324.9C215.072 324.772 214.872 324.684 214.632 324.636C214.408 324.572 214.184 324.54 213.96 324.54C213.544 324.54 213.216 324.62 212.976 324.78C212.736 324.94 212.616 325.14 212.616 325.38C212.616 325.54 212.664 325.676 212.76 325.788C212.872 325.9 213.016 325.988 213.192 326.052C213.384 326.116 213.6 326.172 213.84 326.22C214.096 326.268 214.368 326.332 214.656 326.412C215.136 326.524 215.624 326.66 216.12 326.82C216.632 326.98 217.104 327.196 217.536 327.468C217.968 327.724 218.32 328.076 218.592 328.524C218.864 328.956 219.008 329.516 219.024 330.204C219.024 330.908 218.824 331.556 218.424 332.148C218.024 332.724 217.44 333.18 216.672 333.516C215.904 333.852 214.968 334.02 213.864 334.02C212.536 334.02 211.424 333.748 210.528 333.204C209.632 332.66 209.064 331.82 208.824 330.684L211.992 329.916ZM226.709 334.02C225.477 334.02 224.405 333.764 223.493 333.252C222.581 332.724 221.869 331.988 221.357 331.044C220.861 330.1 220.613 328.996 220.613 327.732C220.613 326.564 220.861 325.524 221.357 324.612C221.853 323.7 222.549 322.988 223.445 322.476C224.341 321.948 225.357 321.684 226.493 321.684C227.693 321.684 228.733 321.932 229.613 322.428C230.493 322.908 231.181 323.596 231.677 324.492C232.173 325.388 232.421 326.428 232.421 327.612C232.421 327.804 232.413 328.004 232.397 328.212C232.381 328.42 232.357 328.652 232.325 328.908H224.357C224.437 329.34 224.589 329.716 224.813 330.036C225.037 330.34 225.317 330.58 225.653 330.756C226.005 330.916 226.405 330.996 226.853 330.996C227.349 330.996 227.797 330.892 228.197 330.684C228.597 330.476 228.893 330.18 229.085 329.796L232.229 330.66C231.749 331.732 231.029 332.564 230.069 333.156C229.109 333.732 227.989 334.02 226.709 334.02ZM228.605 326.628C228.589 326.228 228.485 325.876 228.293 325.572C228.101 325.268 227.853 325.028 227.549 324.852C227.245 324.676 226.909 324.596 226.541 324.612C226.173 324.628 225.837 324.724 225.533 324.9C225.245 325.06 224.997 325.292 224.789 325.596C224.581 325.884 224.453 326.228 224.405 326.628H228.605ZM234.547 316.572H238.051V333.852H234.547V316.572ZM246.279 334.02C245.047 334.02 243.975 333.764 243.063 333.252C242.151 332.724 241.439 331.988 240.927 331.044C240.431 330.1 240.183 328.996 240.183 327.732C240.183 326.564 240.431 325.524 240.927 324.612C241.423 323.7 242.119 322.988 243.015 322.476C243.911 321.948 244.927 321.684 246.063 321.684C247.263 321.684 248.303 321.932 249.183 322.428C250.063 322.908 250.751 323.596 251.247 324.492C251.743 325.388 251.991 326.428 251.991 327.612C251.991 327.804 251.983 328.004 251.967 328.212C251.951 328.42 251.927 328.652 251.895 328.908H243.927C244.007 329.34 244.159 329.716 244.383 330.036C244.607 330.34 244.887 330.58 245.223 330.756C245.575 330.916 245.975 330.996 246.423 330.996C246.919 330.996 247.367 330.892 247.767 330.684C248.167 330.476 248.463 330.18 248.655 329.796L251.799 330.66C251.319 331.732 250.599 332.564 249.639 333.156C248.679 333.732 247.559 334.02 246.279 334.02ZM248.175 326.628C248.159 326.228 248.055 325.876 247.863 325.572C247.671 325.268 247.423 325.028 247.119 324.852C246.815 324.676 246.479 324.596 246.111 324.612C245.743 324.628 245.407 324.724 245.103 324.9C244.815 325.06 244.567 325.292 244.359 325.596C244.151 325.884 244.023 326.228 243.975 326.628H248.175ZM259.517 334.02C258.349 334.036 257.317 333.788 256.421 333.276C255.525 332.748 254.829 332.028 254.333 331.116C253.837 330.188 253.589 329.108 253.589 327.876C253.589 326.66 253.837 325.588 254.333 324.66C254.829 323.716 255.525 322.988 256.421 322.476C257.317 321.948 258.349 321.684 259.517 321.684C260.845 321.684 262.005 322.02 262.997 322.692C264.005 323.348 264.709 324.252 265.109 325.404L261.797 326.22C261.637 325.788 261.373 325.452 261.005 325.212C260.637 324.972 260.213 324.852 259.733 324.852C259.253 324.852 258.829 324.98 258.461 325.236C258.093 325.492 257.805 325.852 257.597 326.316C257.405 326.764 257.309 327.284 257.309 327.876C257.309 328.772 257.533 329.492 257.981 330.036C258.429 330.58 259.013 330.852 259.733 330.852C260.197 330.852 260.613 330.74 260.981 330.516C261.349 330.276 261.637 329.94 261.845 329.508L265.133 330.348C264.733 331.452 264.021 332.34 262.997 333.012C261.989 333.668 260.829 334.004 259.517 334.02ZM268.014 321.852V318.492H271.59V321.852H274.062V324.948H271.59V329.268C271.59 329.812 271.71 330.196 271.95 330.42C272.206 330.644 272.526 330.764 272.91 330.78C273.294 330.78 273.678 330.748 274.062 330.684V333.732C273.246 333.876 272.47 333.916 271.734 333.852C270.998 333.804 270.35 333.612 269.79 333.276C269.246 332.94 268.814 332.444 268.494 331.788C268.174 331.132 268.014 330.292 268.014 329.268V324.948H266.334V321.852H268.014ZM281.6 334.02C280.368 334.02 279.296 333.764 278.384 333.252C277.472 332.724 276.76 331.988 276.248 331.044C275.752 330.1 275.504 328.996 275.504 327.732C275.504 326.564 275.752 325.524 276.248 324.612C276.744 323.7 277.44 322.988 278.336 322.476C279.232 321.948 280.248 321.684 281.384 321.684C282.584 321.684 283.624 321.932 284.504 322.428C285.384 322.908 286.072 323.596 286.568 324.492C287.064 325.388 287.312 326.428 287.312 327.612C287.312 327.804 287.304 328.004 287.288 328.212C287.272 328.42 287.248 328.652 287.216 328.908H279.248C279.328 329.34 279.48 329.716 279.704 330.036C279.928 330.34 280.208 330.58 280.544 330.756C280.896 330.916 281.296 330.996 281.743 330.996C282.24 330.996 282.688 330.892 283.088 330.684C283.488 330.476 283.784 330.18 283.976 329.796L287.12 330.66C286.64 331.732 285.92 332.564 284.96 333.156C284 333.732 282.88 334.02 281.6 334.02ZM283.496 326.628C283.48 326.228 283.376 325.876 283.184 325.572C282.992 325.268 282.744 325.028 282.44 324.852C282.136 324.676 281.8 324.596 281.432 324.612C281.064 324.628 280.728 324.724 280.424 324.9C280.136 325.06 279.888 325.292 279.68 325.596C279.472 325.884 279.344 326.228 279.296 326.628H283.496ZM298.006 323.7L297.526 323.724V316.572H301.03V333.852H297.862L297.646 332.34C297.326 332.804 296.854 333.204 296.23 333.54C295.606 333.86 294.91 334.02 294.142 334.02C293.134 334.02 292.23 333.772 291.43 333.276C290.646 332.764 290.03 332.044 289.582 331.116C289.134 330.188 288.91 329.1 288.91 327.852C288.91 326.588 289.134 325.5 289.582 324.588C290.03 323.66 290.646 322.948 291.43 322.452C292.214 321.94 293.118 321.684 294.142 321.684C295.054 321.684 295.838 321.884 296.494 322.284C297.15 322.668 297.654 323.14 298.006 323.7ZM292.678 327.852C292.678 328.732 292.902 329.444 293.35 329.988C293.798 330.516 294.382 330.78 295.102 330.78C295.534 330.78 295.934 330.668 296.302 330.444C296.67 330.22 296.966 329.892 297.19 329.46C297.414 329.028 297.526 328.492 297.526 327.852C297.526 327.212 297.414 326.676 297.19 326.244C296.966 325.812 296.67 325.484 296.302 325.26C295.934 325.02 295.534 324.9 295.102 324.9C294.366 324.9 293.774 325.172 293.326 325.716C292.894 326.26 292.678 326.972 292.678 327.852ZM318.67 321.852H322.462L315.358 338.652H311.782L314.158 333.3L309.406 321.852H313.318L315.982 329.028L318.67 321.852ZM329.342 334.02C328.11 334.02 327.038 333.764 326.126 333.252C325.214 332.724 324.502 331.988 323.99 331.044C323.494 330.1 323.246 328.996 323.246 327.732C323.246 326.564 323.494 325.524 323.99 324.612C324.486 323.7 325.182 322.988 326.078 322.476C326.974 321.948 327.99 321.684 329.126 321.684C330.326 321.684 331.366 321.932 332.246 322.428C333.126 322.908 333.814 323.596 334.31 324.492C334.806 325.388 335.054 326.428 335.054 327.612C335.054 327.804 335.046 328.004 335.03 328.212C335.014 328.42 334.99 328.652 334.958 328.908H326.99C327.07 329.34 327.222 329.716 327.446 330.036C327.67 330.34 327.95 330.58 328.286 330.756C328.638 330.916 329.038 330.996 329.486 330.996C329.982 330.996 330.43 330.892 330.83 330.684C331.23 330.476 331.526 330.18 331.718 329.796L334.862 330.66C334.382 331.732 333.662 332.564 332.702 333.156C331.742 333.732 330.622 334.02 329.342 334.02ZM331.238 326.628C331.222 326.228 331.118 325.876 330.926 325.572C330.734 325.268 330.486 325.028 330.182 324.852C329.878 324.676 329.542 324.596 329.174 324.612C328.806 324.628 328.47 324.724 328.166 324.9C327.878 325.06 327.63 325.292 327.422 325.596C327.214 325.884 327.086 326.228 327.038 326.628H331.238ZM344.116 333.852L343.876 332.364C343.46 332.876 343.012 333.276 342.532 333.564C342.052 333.852 341.412 333.996 340.612 333.996C339.86 333.996 339.188 333.868 338.596 333.612C338.004 333.34 337.532 332.948 337.18 332.436C336.844 331.924 336.676 331.308 336.676 330.588C336.676 329.596 337.028 328.772 337.732 328.116C338.452 327.46 339.564 327.052 341.068 326.892L343.876 326.58V325.788C343.876 325.516 343.74 325.252 343.468 324.996C343.212 324.724 342.804 324.588 342.244 324.588C341.748 324.588 341.316 324.716 340.948 324.972C340.596 325.228 340.356 325.596 340.228 326.076L337.228 324.996C337.58 323.924 338.196 323.108 339.076 322.548C339.972 321.972 341.076 321.684 342.388 321.684C344.02 321.684 345.26 322.092 346.108 322.908C346.956 323.724 347.38 324.82 347.38 326.196V333.852H344.116ZM343.876 328.74L341.644 329.004C341.196 329.068 340.852 329.212 340.612 329.436C340.388 329.644 340.276 329.908 340.276 330.228C340.276 330.532 340.404 330.788 340.66 330.996C340.916 331.204 341.268 331.308 341.716 331.308C342.164 331.308 342.548 331.22 342.868 331.044C343.188 330.852 343.436 330.588 343.612 330.252C343.788 329.9 343.876 329.468 343.876 328.956V328.74ZM349.907 321.852H353.099L353.339 323.436C353.643 323.02 354.003 322.676 354.419 322.404C354.851 322.116 355.323 321.924 355.835 321.828C356.363 321.732 356.939 321.74 357.563 321.852V325.164C357.147 325.02 356.699 324.98 356.219 325.044C355.739 325.092 355.283 325.252 354.851 325.524C354.419 325.78 354.067 326.164 353.795 326.676C353.539 327.188 353.411 327.836 353.411 328.62V333.852H349.907V321.852ZM361.344 334.044C360.672 334.044 360.128 333.844 359.712 333.444C359.296 333.028 359.088 332.532 359.088 331.956C359.088 331.364 359.296 330.868 359.712 330.468C360.128 330.052 360.672 329.844 361.344 329.844C362 329.844 362.536 330.052 362.952 330.468C363.368 330.868 363.576 331.364 363.576 331.956C363.576 332.532 363.368 333.028 362.952 333.444C362.536 333.844 362 334.044 361.344 334.044Z" fill="#7F7061"/>
</svg>
