<svg xmlns="http://www.w3.org/2000/svg" width="60" height="60" viewBox="0 0 60 60" fill="none">
  <path d="M49.375 19.375H38.125C37.462 19.375 36.8261 19.1116 36.3572 18.6428C35.8884 18.1739 35.625 17.538 35.625 16.875V5.625M49.375 19.375V51.875C49.375 52.538 49.1116 53.1739 48.6428 53.6428C48.1739 54.1116 47.538 54.375 46.875 54.375H13.125C12.462 54.375 11.8261 54.1116 11.3572 53.6428C10.8884 53.1739 10.625 52.538 10.625 51.875V8.125C10.625 7.46196 10.8884 6.82607 11.3572 6.35723C11.8261 5.88839 12.462 5.625 13.125 5.625H35.625M49.375 19.375L35.625 5.625" stroke="url(#paint0_linear_10080_89465)" stroke-width="2" stroke-linecap="round" stroke-linejoin="round"/>
  <path d="M43.0423 30.6687H37.4273V41.875M37.4273 36.2713H41.0911M16.9661 41.8538V30.6463H20.7373C21.7349 30.6459 22.6917 31.0419 23.3973 31.747C24.1029 32.4521 24.4995 33.4087 24.4998 34.4062C24.5002 35.4038 24.1042 36.3606 23.3991 37.0662C22.6939 37.7718 21.7374 38.1684 20.7398 38.1687H16.9648M27.1961 41.875V30.625H29.1036C30.5954 30.625 32.0262 31.2176 33.0811 32.2725C34.136 33.3274 34.7286 34.7582 34.7286 36.25C34.7286 37.7418 34.136 39.1726 33.0811 40.2275C32.0262 41.2824 30.5954 41.875 29.1036 41.875H27.1961Z" stroke="url(#paint1_linear_10080_89465)" stroke-width="2" stroke-linecap="round" stroke-linejoin="round"/>
  <defs>
    <linearGradient id="paint0_linear_10080_89465" x1="49.3799" y1="54.375" x2="1.8856" y2="16.6183" gradientUnits="userSpaceOnUse">
      <stop stop-color="#FF2525"/>
      <stop offset="1" stop-color="#FF8743"/>
    </linearGradient>
    <linearGradient id="paint1_linear_10080_89465" x1="43.0456" y1="41.875" x2="34.8628" y2="22.9047" gradientUnits="userSpaceOnUse">
      <stop stop-color="#FF2525"/>
      <stop offset="1" stop-color="#FF8743"/>
    </linearGradient>
  </defs>
</svg>