<svg width="981" height="199" viewBox="0 0 981 199" fill="none" xmlns="http://www.w3.org/2000/svg">
<path d="M10.504 61.648L10.864 61.504V84.4H6.76V34H10.576L10.864 41.92C11.872 39.568 13.504 37.576 15.76 35.944C18.064 34.312 20.992 33.496 24.544 33.496C27.76 33.496 30.616 34.264 33.112 35.8C35.608 37.288 37.552 39.424 38.944 42.208C40.384 44.944 41.104 48.208 41.104 52C41.104 55.744 40.408 59.008 39.016 61.792C37.672 64.528 35.752 66.664 33.256 68.2C30.808 69.736 27.904 70.504 24.544 70.504C20.896 70.504 17.872 69.664 15.472 67.984C13.12 66.256 11.464 64.144 10.504 61.648ZM36.712 52C36.712 47.488 35.536 43.912 33.184 41.272C30.832 38.632 27.688 37.312 23.752 37.312C21.256 37.312 19.024 37.912 17.056 39.112C15.088 40.312 13.552 42.016 12.448 44.224C11.392 46.384 10.864 48.976 10.864 52C10.864 54.976 11.416 57.568 12.52 59.776C13.624 61.984 15.136 63.688 17.056 64.888C19.024 66.088 21.28 66.688 23.824 66.688C27.76 66.688 30.88 65.368 33.184 62.728C35.536 60.088 36.712 56.512 36.712 52ZM50.2131 18.376H54.3171V70H50.2131V18.376ZM88.9362 70L88.6482 62.368C87.6402 64.96 86.0562 66.976 83.8962 68.416C81.7842 69.808 79.0962 70.504 75.8322 70.504C73.2402 70.504 71.0322 70.12 69.2082 69.352C67.3842 68.536 65.9682 67.384 64.9602 65.896C64.0002 64.408 63.5202 62.632 63.5202 60.568C63.5202 57.544 64.6482 55.096 66.9042 53.224C69.1602 51.304 72.5202 50.128 76.9842 49.696L88.6482 48.4V45.376C88.6482 42.88 87.8082 40.936 86.1282 39.544C84.4962 38.104 82.2162 37.384 79.2882 37.384C76.5042 37.384 74.1762 38.032 72.3042 39.328C70.4802 40.624 69.2562 42.472 68.6322 44.872L64.8882 43.576C65.8002 40.36 67.5042 37.888 70.0002 36.16C72.4962 34.384 75.6162 33.496 79.3602 33.496C83.5842 33.496 86.8722 34.552 89.2242 36.664C91.5762 38.776 92.7522 41.68 92.7522 45.376V70H88.9362ZM88.6482 51.928L76.9122 53.296C73.8402 53.632 71.5602 54.4 70.0722 55.6C68.6322 56.752 67.9122 58.336 67.9122 60.352C67.9122 62.368 68.6082 63.952 70.0002 65.104C71.4402 66.256 73.4802 66.832 76.1202 66.832C78.9042 66.832 81.2082 66.28 83.0322 65.176C84.9042 64.024 86.2962 62.464 87.2082 60.496C88.1682 58.48 88.6482 56.224 88.6482 53.728V51.928ZM103.721 34H107.537L107.753 40.552C108.761 38.344 110.249 36.616 112.217 35.368C114.233 34.12 116.681 33.496 119.561 33.496C122.249 33.496 124.625 34.096 126.689 35.296C128.801 36.448 130.433 38.2 131.585 40.552C132.785 42.856 133.385 45.808 133.385 49.408V70H129.281V49.84C129.281 45.76 128.369 42.64 126.545 40.48C124.721 38.32 122.177 37.24 118.913 37.24C115.457 37.24 112.745 38.392 110.777 40.696C108.809 43 107.825 46.432 107.825 50.992V70H103.721V34ZM159.051 70.504C155.691 70.504 152.715 69.712 150.123 68.128C147.579 66.496 145.587 64.264 144.147 61.432C142.707 58.6 141.987 55.336 141.987 51.64C141.987 48.136 142.707 45.016 144.147 42.28C145.635 39.544 147.651 37.408 150.195 35.872C152.739 34.288 155.643 33.496 158.907 33.496C162.123 33.496 164.979 34.216 167.475 35.656C170.019 37.048 171.987 38.992 173.379 41.488C174.819 43.936 175.515 46.744 175.467 49.912C175.467 50.392 175.443 50.92 175.395 51.496C175.395 52.024 175.371 52.6 175.323 53.224H146.451C146.499 55.864 147.075 58.192 148.179 60.208C149.283 62.224 150.747 63.808 152.571 64.96C154.443 66.064 156.555 66.616 158.907 66.616C161.883 66.616 164.427 66.016 166.539 64.816C168.699 63.568 170.259 61.816 171.219 59.56L174.747 61C173.403 64.072 171.363 66.424 168.627 68.056C165.891 69.688 162.699 70.504 159.051 70.504ZM171.003 49.624C171.051 47.224 170.571 45.112 169.563 43.288C168.555 41.464 167.115 40.024 165.243 38.968C163.419 37.912 161.259 37.384 158.763 37.384C156.555 37.384 154.563 37.912 152.787 38.968C151.011 40.024 149.547 41.488 148.395 43.36C147.291 45.184 146.643 47.272 146.451 49.624H171.003ZM185.62 34V23.92H189.724V34H199.804V37.816H189.724V59.056C189.724 61.168 190.204 62.8 191.164 63.952C192.172 65.104 193.444 65.848 194.98 66.184C196.516 66.472 198.124 66.472 199.804 66.184V69.712C198.076 70.144 196.348 70.264 194.62 70.072C192.94 69.88 191.404 69.352 190.012 68.488C188.668 67.576 187.588 66.352 186.772 64.816C186.004 63.28 185.62 61.36 185.62 59.056V37.816H180.004V34H185.62Z" fill="#1E140F"/>
<path d="M761.504 170.648L761.864 170.504V193.4H757.76V143H761.576L761.864 150.92C762.872 148.568 764.504 146.576 766.76 144.944C769.064 143.312 771.992 142.496 775.544 142.496C778.76 142.496 781.616 143.264 784.112 144.8C786.608 146.288 788.552 148.424 789.944 151.208C791.384 153.944 792.104 157.208 792.104 161C792.104 164.744 791.408 168.008 790.016 170.792C788.672 173.528 786.752 175.664 784.256 177.2C781.808 178.736 778.904 179.504 775.544 179.504C771.896 179.504 768.872 178.664 766.472 176.984C764.12 175.256 762.464 173.144 761.504 170.648ZM787.712 161C787.712 156.488 786.536 152.912 784.184 150.272C781.832 147.632 778.688 146.312 774.752 146.312C772.256 146.312 770.024 146.912 768.056 148.112C766.088 149.312 764.552 151.016 763.448 153.224C762.392 155.384 761.864 157.976 761.864 161C761.864 163.976 762.416 166.568 763.52 168.776C764.624 170.984 766.136 172.688 768.056 173.888C770.024 175.088 772.28 175.688 774.824 175.688C778.76 175.688 781.88 174.368 784.184 171.728C786.536 169.088 787.712 165.512 787.712 161ZM815.973 179.504C812.613 179.504 809.637 178.712 807.045 177.128C804.501 175.496 802.509 173.264 801.069 170.432C799.629 167.6 798.909 164.336 798.909 160.64C798.909 157.136 799.629 154.016 801.069 151.28C802.557 148.544 804.573 146.408 807.117 144.872C809.661 143.288 812.565 142.496 815.829 142.496C819.045 142.496 821.901 143.216 824.397 144.656C826.941 146.048 828.909 147.992 830.301 150.488C831.741 152.936 832.437 155.744 832.389 158.912C832.389 159.392 832.365 159.92 832.317 160.496C832.317 161.024 832.293 161.6 832.245 162.224H803.373C803.421 164.864 803.997 167.192 805.101 169.208C806.205 171.224 807.669 172.808 809.493 173.96C811.365 175.064 813.477 175.616 815.829 175.616C818.805 175.616 821.349 175.016 823.461 173.816C825.621 172.568 827.181 170.816 828.141 168.56L831.669 170C830.325 173.072 828.285 175.424 825.549 177.056C822.813 178.688 819.621 179.504 815.973 179.504ZM827.925 158.624C827.973 156.224 827.493 154.112 826.485 152.288C825.477 150.464 824.037 149.024 822.165 147.968C820.341 146.912 818.181 146.384 815.685 146.384C813.477 146.384 811.485 146.912 809.709 147.968C807.933 149.024 806.469 150.488 805.317 152.36C804.213 154.184 803.565 156.272 803.373 158.624H827.925ZM856.837 179.504C853.477 179.504 850.453 178.76 847.765 177.272C845.125 175.784 843.037 173.672 841.501 170.936C840.013 168.152 839.269 164.864 839.269 161.072C839.269 157.232 840.037 153.92 841.573 151.136C843.109 148.352 845.197 146.216 847.837 144.728C850.525 143.24 853.573 142.496 856.98 142.496C860.341 142.496 863.341 143.24 865.981 144.728C868.669 146.216 870.781 148.352 872.317 151.136C873.853 153.872 874.621 157.136 874.621 160.928C874.621 164.768 873.829 168.08 872.245 170.864C870.709 173.648 868.597 175.784 865.909 177.272C863.269 178.76 860.245 179.504 856.837 179.504ZM856.837 175.616C859.141 175.616 861.301 175.112 863.317 174.104C865.381 173.048 867.037 171.44 868.285 169.28C869.581 167.12 870.229 164.36 870.229 161C870.229 157.64 869.581 154.88 868.285 152.72C867.037 150.56 865.405 148.976 863.389 147.968C861.373 146.912 859.213 146.384 856.909 146.384C854.605 146.384 852.445 146.912 850.429 147.968C848.413 148.976 846.781 150.56 845.533 152.72C844.285 154.88 843.661 157.64 843.661 161C843.661 164.36 844.285 167.12 845.533 169.28C846.781 171.44 848.389 173.048 850.357 174.104C852.373 175.112 854.533 175.616 856.837 175.616ZM887.574 170.648L887.934 170.504V193.4H883.83V143H887.646L887.934 150.92C888.942 148.568 890.574 146.576 892.83 144.944C895.134 143.312 898.062 142.496 901.614 142.496C904.83 142.496 907.686 143.264 910.182 144.8C912.678 146.288 914.622 148.424 916.014 151.208C917.454 153.944 918.174 157.208 918.174 161C918.174 164.744 917.478 168.008 916.086 170.792C914.742 173.528 912.822 175.664 910.326 177.2C907.878 178.736 904.974 179.504 901.614 179.504C897.966 179.504 894.942 178.664 892.542 176.984C890.19 175.256 888.534 173.144 887.574 170.648ZM913.782 161C913.782 156.488 912.606 152.912 910.254 150.272C907.902 147.632 904.758 146.312 900.822 146.312C898.326 146.312 896.094 146.912 894.126 148.112C892.158 149.312 890.622 151.016 889.518 153.224C888.462 155.384 887.934 157.976 887.934 161C887.934 163.976 888.486 166.568 889.59 168.776C890.694 170.984 892.206 172.688 894.126 173.888C896.094 175.088 898.35 175.688 900.894 175.688C904.83 175.688 907.95 174.368 910.254 171.728C912.606 169.088 913.782 165.512 913.782 161ZM927.283 127.376H931.387V179H927.283V127.376ZM957.583 179.504C954.223 179.504 951.247 178.712 948.655 177.128C946.111 175.496 944.119 173.264 942.679 170.432C941.239 167.6 940.519 164.336 940.519 160.64C940.519 157.136 941.239 154.016 942.679 151.28C944.167 148.544 946.183 146.408 948.727 144.872C951.271 143.288 954.175 142.496 957.439 142.496C960.655 142.496 963.511 143.216 966.007 144.656C968.551 146.048 970.519 147.992 971.911 150.488C973.351 152.936 974.047 155.744 973.999 158.912C973.999 159.392 973.975 159.92 973.927 160.496C973.927 161.024 973.903 161.6 973.855 162.224H944.983C945.031 164.864 945.607 167.192 946.711 169.208C947.815 171.224 949.279 172.808 951.103 173.96C952.975 175.064 955.087 175.616 957.439 175.616C960.415 175.616 962.959 175.016 965.071 173.816C967.231 172.568 968.791 170.816 969.751 168.56L973.279 170C971.935 173.072 969.895 175.424 967.159 177.056C964.423 178.688 961.231 179.504 957.583 179.504ZM969.535 158.624C969.583 156.224 969.103 154.112 968.095 152.288C967.087 150.464 965.647 149.024 963.775 147.968C961.951 146.912 959.791 146.384 957.295 146.384C955.087 146.384 953.095 146.912 951.319 147.968C949.543 149.024 948.079 150.488 946.927 152.36C945.823 154.184 945.175 156.272 944.983 158.624H969.535Z" fill="#1E140F"/>
<path d="M275.791 171.529L275.799 171.536L275.806 171.543C283.357 178.652 292.04 184.172 301.849 188.102C311.67 192.037 322.238 194 333.543 194C344.847 194 355.415 192.037 365.237 188.102C375.047 184.171 383.659 178.649 391.063 171.536L391.063 171.536C398.619 164.271 404.511 155.718 408.739 145.888L408.741 145.883C412.975 135.888 415.085 124.922 415.085 113C415.085 101.079 412.976 90.1875 408.741 80.3392C404.515 70.364 398.699 61.8104 391.29 54.6909C383.884 47.4258 375.195 41.8278 365.234 37.897C355.413 33.9628 344.846 32 333.543 32C322.238 32 311.67 33.9632 301.849 37.8981C292.035 41.8296 283.35 47.4271 275.799 54.6878C268.388 61.8077 262.571 70.3621 258.345 80.3385C254.11 90.187 252 101.079 252 113C252 124.922 254.11 135.888 258.344 145.883L258.346 145.888C262.572 155.714 268.387 164.264 275.791 171.529ZM368.441 89.4614L368.445 89.469C371.794 96.1788 373.485 104.013 373.485 113C373.485 121.834 371.795 129.673 368.441 136.539C365.083 143.411 360.426 148.797 354.47 152.725C348.537 156.639 341.574 158.611 333.543 158.611C325.357 158.611 318.321 156.637 312.391 152.725C306.438 148.798 301.782 143.415 298.424 136.546C295.216 129.679 293.6 121.837 293.6 113C293.6 104.009 295.218 96.1701 298.423 89.4573C301.78 82.5873 306.437 77.2023 312.391 73.2745C318.321 69.3633 325.357 67.3894 333.543 67.3894C341.574 67.3894 348.537 69.3613 354.47 73.2745C360.426 77.2031 365.083 82.5894 368.441 89.4614ZM569.993 34.5686V33.5686H568.993H530.064H529.064V34.5686V126.697L472.524 34.0477L472.232 33.5686H471.671H432.518H431.518V34.5686V191.431V192.431H432.518H471.447H472.447V191.431V99.9544L528.989 191.955L529.281 192.431H529.84H568.993H569.993V191.431V34.5686ZM711 68.2857H712V67.2857V34.5686V33.5686H711H593.542H592.542V34.5686V191.431V192.431H593.542H711H712V191.431V158.714V157.714H711H633.471V128.118H691.088H692.088V127.118V96.6415V95.6415H691.088H633.471V68.2857H711Z" stroke="#1E140F" stroke-width="2"/>
<path d="M325.543 185C314.356 185 303.915 183.058 294.22 179.174C284.526 175.289 275.949 169.837 268.492 162.815C261.183 155.644 255.441 147.204 251.264 137.493C247.088 127.633 245 116.802 245 105C245 93.1979 247.088 82.4416 251.264 72.7311C255.441 62.8712 261.183 54.4304 268.492 47.409C275.949 40.2381 284.526 34.7105 294.22 30.8263C303.915 26.9421 314.356 25 325.543 25C336.729 25 347.17 26.9421 356.865 30.8263C366.709 34.7105 375.285 40.2381 382.593 47.409C389.902 54.4304 395.644 62.8712 399.821 72.7311C403.997 82.4416 406.085 93.1979 406.085 105C406.085 116.802 403.997 127.633 399.821 137.493C395.644 147.204 389.827 155.644 382.37 162.815C375.061 169.837 366.56 175.289 356.865 179.174C347.17 183.058 336.729 185 325.543 185ZM325.543 151.611C333.746 151.611 340.905 149.594 347.021 145.56C353.136 141.527 357.909 135.999 361.339 128.978C364.77 121.956 366.485 113.964 366.485 105C366.485 95.887 364.77 87.8945 361.339 81.0224C357.909 74.0009 353.136 68.4734 347.021 64.4398C340.905 60.4062 333.746 58.3894 325.543 58.3894C317.19 58.3894 309.956 60.4062 303.841 64.4398C297.726 68.4734 292.953 74.0009 289.522 81.0224C286.241 87.8945 284.6 95.887 284.6 105C284.6 113.964 286.241 121.956 289.522 128.978C292.953 135.999 297.726 141.527 303.841 145.56C309.956 149.594 317.19 151.611 325.543 151.611Z" fill="black"/>
<path d="M560.993 26.5686V183.431H521.84L463.447 88.4174V183.431H424.518V26.5686H463.671L522.064 122.255V26.5686H560.993Z" fill="black"/>
<path d="M703 59.2857H624.471V88.6415H683.088V119.118H624.471V150.714H703V183.431H585.542V26.5686H703V59.2857Z" fill="black"/>
<path d="M0.292893 108.293C-0.0976311 108.683 -0.0976311 109.317 0.292893 109.707L6.65685 116.071C7.04738 116.462 7.68054 116.462 8.07107 116.071C8.46159 115.681 8.46159 115.047 8.07107 114.657L2.41421 109L8.07107 103.343C8.46159 102.953 8.46159 102.319 8.07107 101.929C7.68054 101.538 7.04738 101.538 6.65685 101.929L0.292893 108.293ZM245 110C245.552 110 246 109.552 246 109C246 108.448 245.552 108 245 108V110ZM1 110H245V108H1V110Z" fill="url(#paint0_linear_5071_11223)"/>
<path d="M694 108C693.448 108 693 108.448 693 109C693 109.552 693.448 110 694 110V108ZM980.707 109.707C981.098 109.317 981.098 108.683 980.707 108.293L974.343 101.929C973.953 101.538 973.319 101.538 972.929 101.929C972.538 102.319 972.538 102.953 972.929 103.343L978.586 109L972.929 114.657C972.538 115.047 972.538 115.681 972.929 116.071C973.319 116.462 973.953 116.462 974.343 116.071L980.707 109.707ZM694 110H980V108H694V110Z" fill="url(#paint1_linear_5071_11223)"/>
<defs>
<linearGradient id="paint0_linear_5071_11223" x1="245" y1="109" x2="1" y2="109" gradientUnits="userSpaceOnUse">
<stop stop-color="#FF2525"/>
<stop offset="1" stop-color="#FF8743"/>
</linearGradient>
<linearGradient id="paint1_linear_5071_11223" x1="980" y1="109" x2="694" y2="109" gradientUnits="userSpaceOnUse">
<stop stop-color="#FF2525"/>
<stop offset="1" stop-color="#FF8743"/>
</linearGradient>
</defs>
</svg>
