<svg width="36" height="36" viewBox="0 0 36 36" fill="none" xmlns="http://www.w3.org/2000/svg">
<path d="M36 18C36 17.7348 35.9175 17.4804 35.7708 17.2929C35.624 17.1054 35.425 17 35.2174 17H0.782609C0.575048 17 0.375989 17.1054 0.229221 17.2929C0.0824533 17.4804 0 17.7348 0 18C0 18.2652 0.0824533 18.5196 0.229221 18.7071C0.375989 18.8946 0.575048 19 0.782609 19H35.2174C35.425 19 35.624 18.8946 35.7708 18.7071C35.9175 18.5196 36 18.2652 36 18Z" fill="black"/>
<path d="M18 36C18.2652 36 18.5196 35.9175 18.7071 35.7708C18.8946 35.624 19 35.425 19 35.2174L19 0.782609C19 0.575048 18.8946 0.375989 18.7071 0.229221C18.5196 0.0824534 18.2652 5.53044e-08 18 4.37114e-08C17.7348 3.21184e-08 17.4804 0.0824534 17.2929 0.229221C17.1054 0.375989 17 0.575048 17 0.782609L17 35.2174C17 35.425 17.1054 35.624 17.2929 35.7708C17.4804 35.9175 17.7348 36 18 36Z" fill="black"/>
</svg>
