<svg width="60" height="60" viewBox="0 0 60 60" fill="none" xmlns="http://www.w3.org/2000/svg">
<g id="Frame 5567">
<rect width="60" height="60" rx="30" fill="white" fill-opacity="0.04"/>
<path id="Vector 13 (Stroke)" opacity="0.2" fill-rule="evenodd" clip-rule="evenodd" d="M26.9897 37.6818L20.3075 30.7682C19.8975 30.3439 19.8975 29.6561 20.3075 29.2318L26.9897 22.3182C27.3997 21.8939 28.0646 21.8939 28.4746 22.3182C28.8847 22.7424 28.8847 23.4303 28.4746 23.8546L23.5849 28.9136L38.95 28.9136C39.5299 28.9136 40 29.4 40 30C40 30.6 39.5299 31.0864 38.95 31.0864L23.5849 31.0864L28.4746 36.1454C28.8847 36.5697 28.8847 37.2576 28.4746 37.6818C28.0646 38.1061 27.3997 38.1061 26.9897 37.6818Z" fill="white"/>
</g>
</svg>
