<svg width="288" height="150" viewBox="0 0 288 150" fill="none" xmlns="http://www.w3.org/2000/svg">
<mask id="path-1-inside-1_10385_10493" fill="white">
<path d="M0 8C0 3.58172 3.58172 0 8 0H280C284.418 0 288 3.58172 288 8V142C288 146.418 284.418 150 280 150H8C3.58173 150 0 146.418 0 142V8Z"/>
</mask>
<path d="M0 8C0 3.58172 3.58172 0 8 0H280C284.418 0 288 3.58172 288 8V142C288 146.418 284.418 150 280 150H8C3.58173 150 0 146.418 0 142V8Z" fill="white" fill-opacity="0.2"/>
<path d="M0 0H288H0ZM288 150H0H288ZM8 150C1.37258 150 -4 144.627 -4 138V12C-4 5.37258 1.37258 0 8 0C5.79086 0 4 3.58172 4 8V142C4 146.418 5.79086 150 8 150ZM288 0V150V0Z" fill="#F26829" mask="url(#path-1-inside-1_10385_10493)"/>
<path d="M24.32 38.056C24.416 38.52 24.592 38.904 24.848 39.208C25.104 39.512 25.432 39.744 25.832 39.904C26.232 40.048 26.688 40.12 27.2 40.12C28.048 40.12 28.688 39.936 29.12 39.568C29.552 39.2 29.768 38.744 29.768 38.2C29.768 37.752 29.632 37.392 29.36 37.12C29.104 36.832 28.728 36.592 28.232 36.4C27.752 36.208 27.2 36.016 26.576 35.824C25.936 35.648 25.296 35.448 24.656 35.224C24.016 34.984 23.424 34.688 22.88 34.336C22.352 33.984 21.928 33.536 21.608 32.992C21.288 32.432 21.136 31.736 21.152 30.904C21.152 29.864 21.408 28.984 21.92 28.264C22.448 27.528 23.16 26.976 24.056 26.608C24.968 26.224 26.016 26.032 27.2 26.032C28.24 26.032 29.168 26.184 29.984 26.488C30.8 26.776 31.48 27.216 32.024 27.808C32.568 28.384 32.952 29.096 33.176 29.944L29.768 30.688C29.704 30.336 29.544 30.04 29.288 29.8C29.048 29.544 28.752 29.36 28.4 29.248C28.048 29.12 27.688 29.048 27.32 29.032C26.872 29.032 26.464 29.104 26.096 29.248C25.744 29.392 25.456 29.6 25.232 29.872C25.024 30.144 24.92 30.456 24.92 30.808C24.92 31.208 25.04 31.536 25.28 31.792C25.536 32.032 25.88 32.24 26.312 32.416C26.744 32.592 27.216 32.768 27.728 32.944C28.384 33.152 29.048 33.376 29.72 33.616C30.408 33.856 31.04 34.168 31.616 34.552C32.192 34.92 32.656 35.4 33.008 35.992C33.36 36.568 33.536 37.288 33.536 38.152C33.536 39.096 33.312 39.944 32.864 40.696C32.416 41.448 31.736 42.048 30.824 42.496C29.928 42.944 28.792 43.168 27.416 43.168C26.264 43.168 25.232 43 24.32 42.664C23.408 42.328 22.656 41.84 22.064 41.2C21.472 40.56 21.08 39.784 20.888 38.872L24.32 38.056ZM36.6941 31V27.64H40.2701V31H42.7421V34.096H40.2701V38.416C40.2701 38.96 40.3901 39.344 40.6301 39.568C40.8861 39.792 41.2061 39.912 41.5901 39.928C41.9741 39.928 42.3581 39.896 42.7421 39.832V42.88C41.9261 43.024 41.1501 43.064 40.4141 43C39.6781 42.952 39.0301 42.76 38.4701 42.424C37.9261 42.088 37.4941 41.592 37.1741 40.936C36.8541 40.28 36.6941 39.44 36.6941 38.416V34.096H35.0141V31H36.6941ZM51.6472 43L51.4072 41.512C50.9912 42.024 50.5432 42.424 50.0632 42.712C49.5832 43 48.9432 43.144 48.1432 43.144C47.3912 43.144 46.7192 43.016 46.1272 42.76C45.5352 42.488 45.0632 42.096 44.7112 41.584C44.3752 41.072 44.2072 40.456 44.2072 39.736C44.2072 38.744 44.5592 37.92 45.2632 37.264C45.9832 36.608 47.0952 36.2 48.5992 36.04L51.4072 35.728V34.936C51.4072 34.664 51.2712 34.4 50.9992 34.144C50.7432 33.872 50.3352 33.736 49.7752 33.736C49.2792 33.736 48.8472 33.864 48.4792 34.12C48.1272 34.376 47.8872 34.744 47.7592 35.224L44.7592 34.144C45.1112 33.072 45.7272 32.256 46.6072 31.696C47.5032 31.12 48.6072 30.832 49.9192 30.832C51.5512 30.832 52.7912 31.24 53.6392 32.056C54.4872 32.872 54.9112 33.968 54.9112 35.344V43H51.6472ZM51.4072 37.888L49.1752 38.152C48.7272 38.216 48.3832 38.36 48.1432 38.584C47.9192 38.792 47.8072 39.056 47.8072 39.376C47.8072 39.68 47.9352 39.936 48.1912 40.144C48.4472 40.352 48.7992 40.456 49.2472 40.456C49.6952 40.456 50.0792 40.368 50.3992 40.192C50.7192 40 50.9672 39.736 51.1432 39.4C51.3192 39.048 51.4072 38.616 51.4072 38.104V37.888ZM58.3738 31V27.64H61.9498V31H64.4218V34.096H61.9498V38.416C61.9498 38.96 62.0698 39.344 62.3098 39.568C62.5658 39.792 62.8858 39.912 63.2698 39.928C63.6538 39.928 64.0378 39.896 64.4218 39.832V42.88C63.6058 43.024 62.8298 43.064 62.0938 43C61.3578 42.952 60.7098 42.76 60.1498 42.424C59.6058 42.088 59.1738 41.592 58.8538 40.936C58.5338 40.28 58.3738 39.44 58.3738 38.416V34.096H56.6938V31H58.3738ZM71.9589 43.168C70.7269 43.168 69.6549 42.912 68.7429 42.4C67.8309 41.872 67.1189 41.136 66.6069 40.192C66.1109 39.248 65.8629 38.144 65.8629 36.88C65.8629 35.712 66.1109 34.672 66.6069 33.76C67.1029 32.848 67.7989 32.136 68.6949 31.624C69.5909 31.096 70.6069 30.832 71.7429 30.832C72.9429 30.832 73.9829 31.08 74.8629 31.576C75.7429 32.056 76.4309 32.744 76.9269 33.64C77.4229 34.536 77.6709 35.576 77.6709 36.76C77.6709 36.952 77.6629 37.152 77.6469 37.36C77.6309 37.568 77.6069 37.8 77.5749 38.056H69.6069C69.6869 38.488 69.8389 38.864 70.0629 39.184C70.2869 39.488 70.5669 39.728 70.9029 39.904C71.2549 40.064 71.6549 40.144 72.1029 40.144C72.5989 40.144 73.0469 40.04 73.4469 39.832C73.8469 39.624 74.1429 39.328 74.3349 38.944L77.4789 39.808C76.9989 40.88 76.2789 41.712 75.3189 42.304C74.3589 42.88 73.2389 43.168 71.9589 43.168ZM73.8549 35.776C73.8389 35.376 73.7349 35.024 73.5429 34.72C73.3509 34.416 73.1029 34.176 72.7989 34C72.4949 33.824 72.1589 33.744 71.7909 33.76C71.4229 33.776 71.0869 33.872 70.7829 34.048C70.4949 34.208 70.2469 34.44 70.0389 34.744C69.8309 35.032 69.7029 35.376 69.6549 35.776H73.8549ZM79.5571 34.72H89.9251V37.84H79.5571V34.72ZM97.9745 43.168C96.8065 43.168 95.7585 42.92 94.8305 42.424C93.9025 41.928 93.1745 41.216 92.6465 40.288C92.1345 39.36 91.8785 38.264 91.8785 37C91.8785 35.736 92.1425 34.648 92.6705 33.736C93.2145 32.808 93.9505 32.096 94.8785 31.6C95.8225 31.088 96.8705 30.832 98.0225 30.832C99.2065 30.832 100.263 31.088 101.191 31.6C102.135 32.096 102.879 32.808 103.423 33.736C103.967 34.648 104.239 35.728 104.239 36.976C104.239 38.256 103.959 39.36 103.398 40.288C102.855 41.216 102.103 41.928 101.143 42.424C100.199 42.92 99.1425 43.168 97.9745 43.168ZM97.9745 40C98.3905 40 98.7905 39.888 99.1745 39.664C99.5585 39.44 99.8705 39.112 100.111 38.68C100.351 38.232 100.471 37.672 100.471 37C100.471 36.328 100.351 35.776 100.111 35.344C99.8705 34.896 99.5665 34.56 99.1985 34.336C98.8305 34.112 98.4385 34 98.0225 34C97.5745 34 97.1745 34.112 96.8225 34.336C96.4705 34.56 96.1825 34.896 95.9585 35.344C95.7505 35.776 95.6465 36.328 95.6465 37C95.6465 37.672 95.7505 38.232 95.9585 38.68C96.1665 39.112 96.4465 39.44 96.7985 39.664C97.1505 39.888 97.5425 40 97.9745 40ZM106.976 30.112C106.976 28.976 107.184 28.064 107.6 27.376C108.032 26.688 108.648 26.208 109.448 25.936C110.248 25.664 111.224 25.592 112.376 25.72V28.84C111.736 28.744 111.256 28.832 110.936 29.104C110.632 29.36 110.48 29.784 110.48 30.376V31H112.472V34.096H110.48V43H106.976V34.096H105.608V31H106.976V30.112ZM114.198 34.72H124.566V37.84H114.198V34.72ZM127.983 31V27.64H131.559V31H134.031V34.096H131.559V38.416C131.559 38.96 131.679 39.344 131.919 39.568C132.175 39.792 132.495 39.912 132.879 39.928C133.263 39.928 133.647 39.896 134.031 39.832V42.88C133.215 43.024 132.439 43.064 131.703 43C130.967 42.952 130.319 42.76 129.759 42.424C129.215 42.088 128.783 41.592 128.463 40.936C128.143 40.28 127.983 39.44 127.983 38.416V34.096H126.303V31H127.983ZM136 25.72H139.504V32.248C139.872 31.832 140.32 31.496 140.848 31.24C141.392 30.968 142.008 30.832 142.696 30.832C143.608 30.832 144.4 31.032 145.072 31.432C145.744 31.832 146.264 32.416 146.632 33.184C147 33.952 147.184 34.888 147.184 35.992V43H143.488V36.424C143.488 35.624 143.32 35.016 142.984 34.6C142.664 34.184 142.176 33.976 141.52 33.976C140.848 33.976 140.344 34.216 140.008 34.696C139.672 35.176 139.504 35.824 139.504 36.64V43H136V25.72ZM155.279 43.168C154.047 43.168 152.975 42.912 152.063 42.4C151.151 41.872 150.439 41.136 149.927 40.192C149.431 39.248 149.183 38.144 149.183 36.88C149.183 35.712 149.431 34.672 149.927 33.76C150.423 32.848 151.119 32.136 152.015 31.624C152.911 31.096 153.927 30.832 155.063 30.832C156.263 30.832 157.303 31.08 158.183 31.576C159.063 32.056 159.751 32.744 160.247 33.64C160.743 34.536 160.991 35.576 160.991 36.76C160.991 36.952 160.983 37.152 160.967 37.36C160.951 37.568 160.927 37.8 160.895 38.056H152.927C153.007 38.488 153.159 38.864 153.383 39.184C153.607 39.488 153.887 39.728 154.223 39.904C154.575 40.064 154.975 40.144 155.423 40.144C155.919 40.144 156.367 40.04 156.767 39.832C157.167 39.624 157.463 39.328 157.655 38.944L160.799 39.808C160.319 40.88 159.599 41.712 158.639 42.304C157.679 42.88 156.559 43.168 155.279 43.168ZM157.175 35.776C157.159 35.376 157.055 35.024 156.863 34.72C156.671 34.416 156.423 34.176 156.119 34C155.815 33.824 155.479 33.744 155.111 33.76C154.743 33.776 154.407 33.872 154.103 34.048C153.815 34.208 153.567 34.44 153.359 34.744C153.151 35.032 153.023 35.376 152.975 35.776H157.175ZM162.877 34.72H173.245V37.84H162.877V34.72ZM182.663 43L182.423 41.512C182.007 42.024 181.559 42.424 181.079 42.712C180.599 43 179.959 43.144 179.159 43.144C178.407 43.144 177.735 43.016 177.143 42.76C176.551 42.488 176.079 42.096 175.727 41.584C175.391 41.072 175.223 40.456 175.223 39.736C175.223 38.744 175.575 37.92 176.279 37.264C176.999 36.608 178.111 36.2 179.615 36.04L182.423 35.728V34.936C182.423 34.664 182.287 34.4 182.015 34.144C181.759 33.872 181.351 33.736 180.791 33.736C180.295 33.736 179.863 33.864 179.495 34.12C179.143 34.376 178.903 34.744 178.775 35.224L175.775 34.144C176.127 33.072 176.743 32.256 177.623 31.696C178.519 31.12 179.623 30.832 180.935 30.832C182.567 30.832 183.807 31.24 184.655 32.056C185.503 32.872 185.927 33.968 185.927 35.344V43H182.663ZM182.423 37.888L180.191 38.152C179.743 38.216 179.399 38.36 179.159 38.584C178.935 38.792 178.823 39.056 178.823 39.376C178.823 39.68 178.951 39.936 179.207 40.144C179.463 40.352 179.815 40.456 180.263 40.456C180.711 40.456 181.095 40.368 181.415 40.192C181.735 40 181.983 39.736 182.159 39.4C182.335 39.048 182.423 38.616 182.423 38.104V37.888ZM188.453 31H191.645L191.885 32.584C192.189 32.168 192.549 31.824 192.965 31.552C193.397 31.264 193.869 31.072 194.381 30.976C194.909 30.88 195.485 30.888 196.109 31V34.312C195.693 34.168 195.245 34.128 194.765 34.192C194.285 34.24 193.829 34.4 193.397 34.672C192.965 34.928 192.613 35.312 192.341 35.824C192.085 36.336 191.957 36.984 191.957 37.768V43H188.453V31ZM198.811 31V27.64H202.387V31H204.859V34.096H202.387V38.416C202.387 38.96 202.507 39.344 202.747 39.568C203.003 39.792 203.323 39.912 203.707 39.928C204.091 39.928 204.475 39.896 204.859 39.832V42.88C204.043 43.024 203.267 43.064 202.531 43C201.795 42.952 201.147 42.76 200.587 42.424C200.043 42.088 199.611 41.592 199.291 40.936C198.971 40.28 198.811 39.44 198.811 38.416V34.096H197.131V31H198.811ZM28.616 63.784C29.192 63.784 29.664 63.696 30.032 63.52C30.4 63.344 30.672 63.088 30.848 62.752C31.04 62.4 31.136 61.992 31.136 61.528C31.136 60.84 30.928 60.296 30.512 59.896C30.112 59.496 29.48 59.296 28.616 59.296H25.184V63.784H28.616ZM34.904 61.528C34.904 62.184 34.784 62.832 34.544 63.472C34.32 64.096 33.96 64.672 33.464 65.2C32.984 65.712 32.352 66.12 31.568 66.424C30.8 66.728 29.88 66.88 28.808 66.88H25.184V73H21.488V56.2H28.808C30.168 56.2 31.296 56.448 32.192 56.944C33.104 57.424 33.784 58.072 34.232 58.888C34.68 59.688 34.904 60.568 34.904 61.528ZM37.0237 61H40.2157L40.4557 62.584C40.7597 62.168 41.1197 61.824 41.5357 61.552C41.9677 61.264 42.4397 61.072 42.9517 60.976C43.4797 60.88 44.0557 60.888 44.6797 61V64.312C44.2637 64.168 43.8157 64.128 43.3357 64.192C42.8557 64.24 42.3997 64.4 41.9677 64.672C41.5357 64.928 41.1837 65.312 40.9117 65.824C40.6557 66.336 40.5277 66.984 40.5277 67.768V73H37.0237V61ZM51.7792 73.168C50.6112 73.168 49.5632 72.92 48.6352 72.424C47.7072 71.928 46.9792 71.216 46.4512 70.288C45.9392 69.36 45.6832 68.264 45.6832 67C45.6832 65.736 45.9472 64.648 46.4752 63.736C47.0192 62.808 47.7552 62.096 48.6832 61.6C49.6272 61.088 50.6752 60.832 51.8272 60.832C53.0112 60.832 54.0672 61.088 54.9952 61.6C55.9392 62.096 56.6832 62.808 57.2272 63.736C57.7712 64.648 58.0432 65.728 58.0432 66.976C58.0432 68.256 57.7632 69.36 57.2032 70.288C56.6592 71.216 55.9072 71.928 54.9472 72.424C54.0032 72.92 52.9472 73.168 51.7792 73.168ZM51.7792 70C52.1952 70 52.5952 69.888 52.9792 69.664C53.3632 69.44 53.6752 69.112 53.9152 68.68C54.1552 68.232 54.2752 67.672 54.2752 67C54.2752 66.328 54.1552 65.776 53.9152 65.344C53.6752 64.896 53.3712 64.56 53.0032 64.336C52.6352 64.112 52.2432 64 51.8272 64C51.3792 64 50.9792 64.112 50.6272 64.336C50.2752 64.56 49.9872 64.896 49.7632 65.344C49.5552 65.776 49.4512 66.328 49.4512 67C49.4512 67.672 49.5552 68.232 49.7632 68.68C49.9712 69.112 50.2512 69.44 50.6032 69.664C50.9552 69.888 51.3472 70 51.7792 70ZM65.5565 73.168C64.3885 73.184 63.3565 72.936 62.4605 72.424C61.5645 71.896 60.8685 71.176 60.3725 70.264C59.8765 69.336 59.6285 68.256 59.6285 67.024C59.6285 65.808 59.8765 64.736 60.3725 63.808C60.8685 62.864 61.5645 62.136 62.4605 61.624C63.3565 61.096 64.3885 60.832 65.5565 60.832C66.8845 60.832 68.0445 61.168 69.0365 61.84C70.0445 62.496 70.7485 63.4 71.1485 64.552L67.8365 65.368C67.6765 64.936 67.4125 64.6 67.0445 64.36C66.6765 64.12 66.2525 64 65.7725 64C65.2925 64 64.8685 64.128 64.5005 64.384C64.1325 64.64 63.8445 65 63.6365 65.464C63.4445 65.912 63.3485 66.432 63.3485 67.024C63.3485 67.92 63.5725 68.64 64.0205 69.184C64.4685 69.728 65.0525 70 65.7725 70C66.2365 70 66.6525 69.888 67.0205 69.664C67.3885 69.424 67.6765 69.088 67.8845 68.656L71.1725 69.496C70.7725 70.6 70.0605 71.488 69.0365 72.16C68.0285 72.816 66.8685 73.152 65.5565 73.168ZM78.8729 73.168C77.6409 73.168 76.5689 72.912 75.6569 72.4C74.7449 71.872 74.0329 71.136 73.5209 70.192C73.0249 69.248 72.7769 68.144 72.7769 66.88C72.7769 65.712 73.0249 64.672 73.5209 63.76C74.0169 62.848 74.7129 62.136 75.6089 61.624C76.5049 61.096 77.5209 60.832 78.6569 60.832C79.8569 60.832 80.8969 61.08 81.7769 61.576C82.6569 62.056 83.3449 62.744 83.8409 63.64C84.3369 64.536 84.5849 65.576 84.5849 66.76C84.5849 66.952 84.5769 67.152 84.5609 67.36C84.5449 67.568 84.5209 67.8 84.4889 68.056H76.5209C76.6009 68.488 76.7529 68.864 76.9769 69.184C77.2009 69.488 77.4809 69.728 77.8169 69.904C78.1689 70.064 78.5689 70.144 79.0169 70.144C79.5129 70.144 79.9609 70.04 80.3609 69.832C80.7609 69.624 81.0569 69.328 81.2489 68.944L84.3929 69.808C83.9129 70.88 83.1929 71.712 82.2329 72.304C81.2729 72.88 80.1529 73.168 78.8729 73.168ZM80.7689 65.776C80.7529 65.376 80.6489 65.024 80.4569 64.72C80.2649 64.416 80.0169 64.176 79.7129 64C79.4089 63.824 79.0729 63.744 78.7049 63.76C78.3369 63.776 78.0009 63.872 77.6969 64.048C77.4089 64.208 77.1609 64.44 76.9529 64.744C76.7449 65.032 76.6169 65.376 76.5689 65.776H80.7689ZM89.3512 69.064C89.4312 69.384 89.5592 69.632 89.7352 69.808C89.9272 69.984 90.1512 70.112 90.4072 70.192C90.6632 70.272 90.9272 70.312 91.1992 70.312C91.6952 70.312 92.0792 70.224 92.3512 70.048C92.6232 69.872 92.7592 69.648 92.7592 69.376C92.7592 69.104 92.6552 68.904 92.4472 68.776C92.2552 68.632 91.9992 68.52 91.6792 68.44C91.3592 68.344 91.0232 68.256 90.6712 68.176C90.2712 68.08 89.8232 67.968 89.3272 67.84C88.8312 67.696 88.3592 67.504 87.9112 67.264C87.4632 67.008 87.0952 66.672 86.8072 66.256C86.5192 65.824 86.3752 65.288 86.3752 64.648C86.3752 63.912 86.5752 63.256 86.9752 62.68C87.3752 62.104 87.9432 61.656 88.6792 61.336C89.4152 61 90.2872 60.832 91.2952 60.832C92.5272 60.832 93.5352 61.088 94.3192 61.6C95.1032 62.112 95.6632 62.832 95.9992 63.76L92.9512 64.528C92.8712 64.32 92.7512 64.16 92.5912 64.048C92.4312 63.92 92.2312 63.832 91.9912 63.784C91.7672 63.72 91.5432 63.688 91.3192 63.688C90.9032 63.688 90.5752 63.768 90.3352 63.928C90.0952 64.088 89.9752 64.288 89.9752 64.528C89.9752 64.688 90.0232 64.824 90.1192 64.936C90.2312 65.048 90.3752 65.136 90.5512 65.2C90.7432 65.264 90.9592 65.32 91.1992 65.368C91.4552 65.416 91.7272 65.48 92.0152 65.56C92.4952 65.672 92.9832 65.808 93.4792 65.968C93.9912 66.128 94.4632 66.344 94.8952 66.616C95.3272 66.872 95.6792 67.224 95.9512 67.672C96.2232 68.104 96.3672 68.664 96.3832 69.352C96.3832 70.056 96.1832 70.704 95.7832 71.296C95.3832 71.872 94.7992 72.328 94.0312 72.664C93.2632 73 92.3272 73.168 91.2232 73.168C89.8952 73.168 88.7832 72.896 87.8872 72.352C86.9912 71.808 86.4232 70.968 86.1832 69.832L89.3512 69.064ZM101.14 69.064C101.22 69.384 101.348 69.632 101.524 69.808C101.716 69.984 101.94 70.112 102.196 70.192C102.452 70.272 102.716 70.312 102.988 70.312C103.484 70.312 103.868 70.224 104.14 70.048C104.412 69.872 104.548 69.648 104.548 69.376C104.548 69.104 104.444 68.904 104.236 68.776C104.044 68.632 103.788 68.52 103.468 68.44C103.148 68.344 102.812 68.256 102.46 68.176C102.06 68.08 101.612 67.968 101.116 67.84C100.62 67.696 100.148 67.504 99.7003 67.264C99.2523 67.008 98.8843 66.672 98.5963 66.256C98.3083 65.824 98.1643 65.288 98.1643 64.648C98.1643 63.912 98.3643 63.256 98.7643 62.68C99.1643 62.104 99.7323 61.656 100.468 61.336C101.204 61 102.076 60.832 103.084 60.832C104.316 60.832 105.324 61.088 106.108 61.6C106.892 62.112 107.452 62.832 107.788 63.76L104.74 64.528C104.66 64.32 104.54 64.16 104.38 64.048C104.22 63.92 104.02 63.832 103.78 63.784C103.556 63.72 103.332 63.688 103.108 63.688C102.692 63.688 102.364 63.768 102.124 63.928C101.884 64.088 101.764 64.288 101.764 64.528C101.764 64.688 101.812 64.824 101.908 64.936C102.02 65.048 102.164 65.136 102.34 65.2C102.532 65.264 102.748 65.32 102.988 65.368C103.244 65.416 103.516 65.48 103.804 65.56C104.284 65.672 104.772 65.808 105.268 65.968C105.78 66.128 106.252 66.344 106.684 66.616C107.116 66.872 107.468 67.224 107.74 67.672C108.012 68.104 108.156 68.664 108.172 69.352C108.172 70.056 107.972 70.704 107.572 71.296C107.172 71.872 106.588 72.328 105.82 72.664C105.052 73 104.116 73.168 103.012 73.168C101.684 73.168 100.572 72.896 99.6763 72.352C98.7803 71.808 98.2123 70.968 97.9723 69.832L101.14 69.064ZM110.745 61H114.249V73H110.745V61ZM112.497 59.776C111.841 59.776 111.305 59.584 110.889 59.2C110.489 58.8 110.289 58.32 110.289 57.76C110.289 57.184 110.489 56.704 110.889 56.32C111.305 55.92 111.841 55.72 112.497 55.72C113.137 55.72 113.657 55.92 114.057 56.32C114.473 56.704 114.681 57.184 114.681 57.76C114.681 58.32 114.473 58.8 114.057 59.2C113.657 59.584 113.137 59.776 112.497 59.776ZM117.344 61H120.512L120.752 62.296C121.152 61.864 121.624 61.512 122.168 61.24C122.712 60.968 123.304 60.832 123.944 60.832C124.888 60.832 125.68 61.032 126.32 61.432C126.976 61.832 127.472 62.416 127.808 63.184C128.16 63.952 128.336 64.888 128.336 65.992V73H124.832V66.424C124.832 65.624 124.664 65.016 124.328 64.6C124.008 64.184 123.52 63.976 122.864 63.976C122.192 63.976 121.688 64.192 121.352 64.624C121.016 65.04 120.848 65.648 120.848 66.448V73H117.344V61ZM139.291 61H142.459V71.272C142.459 72.632 142.123 73.792 141.451 74.752C140.779 75.728 139.811 76.48 138.547 77.008C137.283 77.536 135.739 77.8 133.915 77.8L133.411 74.896C135.219 74.88 136.595 74.576 137.539 73.984C138.483 73.408 138.955 72.568 138.955 71.464V71.416L139.459 71.128C139.107 71.672 138.603 72.152 137.947 72.568C137.291 72.968 136.507 73.168 135.595 73.168C134.571 73.168 133.659 72.92 132.859 72.424C132.075 71.912 131.459 71.192 131.011 70.264C130.563 69.336 130.339 68.248 130.339 67C130.339 65.736 130.563 64.648 131.011 63.736C131.459 62.808 132.075 62.096 132.859 61.6C133.659 61.088 134.571 60.832 135.595 60.832C136.107 60.832 136.587 60.912 137.035 61.072C137.483 61.216 137.883 61.416 138.235 61.672C138.587 61.912 138.867 62.192 139.075 62.512L139.291 61ZM134.107 67C134.107 67.88 134.331 68.592 134.779 69.136C135.227 69.68 135.811 69.952 136.531 69.952C136.963 69.952 137.363 69.832 137.731 69.592C138.099 69.352 138.395 69.016 138.619 68.584C138.843 68.136 138.955 67.608 138.955 67C138.955 66.36 138.843 65.824 138.619 65.392C138.395 64.96 138.099 64.632 137.731 64.408C137.363 64.184 136.971 64.072 136.555 64.072C135.819 64.072 135.227 64.344 134.779 64.888C134.331 65.416 134.107 66.12 134.107 67Z" fill="white"/>
<path d="M21.36 88.8H28.704V89.92H22.64V93.744H27.2V94.864H22.64V100H21.36V88.8ZM30.6226 92H31.7266L31.7906 93.168C32.004 92.88 32.26 92.6347 32.5586 92.432C32.868 92.2293 33.204 92.0907 33.5666 92.016C33.94 91.9307 34.3346 91.9253 34.7506 92V93.2C34.3026 93.1147 33.8973 93.1147 33.5346 93.2C33.1826 93.2853 32.8786 93.4453 32.6226 93.68C32.3666 93.9147 32.1693 94.2133 32.0306 94.576C31.892 94.928 31.8226 95.3387 31.8226 95.808V100H30.6226V92ZM39.592 100.112C38.8453 100.112 38.1787 99.9307 37.592 99.568C37.016 99.2053 36.5627 98.7093 36.232 98.08C35.9013 97.4507 35.736 96.7307 35.736 95.92C35.736 95.1413 35.9013 94.448 36.232 93.84C36.5627 93.232 37.016 92.7573 37.592 92.416C38.168 92.064 38.824 91.888 39.56 91.888C40.2853 91.888 40.9307 92.048 41.496 92.368C42.072 92.688 42.52 93.1307 42.84 93.696C43.16 94.2613 43.3093 94.9067 43.288 95.632C43.288 95.7493 43.2827 95.872 43.272 96C43.2613 96.128 43.2507 96.2667 43.24 96.416H37.048C37.0693 96.9173 37.192 97.36 37.416 97.744C37.64 98.128 37.9333 98.432 38.296 98.656C38.6693 98.8693 39.0907 98.976 39.56 98.976C40.1787 98.976 40.7013 98.8587 41.128 98.624C41.5653 98.3893 41.88 98.0533 42.072 97.616L43.112 98.032C42.792 98.704 42.328 99.2213 41.72 99.584C41.112 99.936 40.4027 100.112 39.592 100.112ZM41.976 95.376C41.9867 94.9173 41.8853 94.512 41.672 94.16C41.4693 93.808 41.1813 93.5307 40.808 93.328C40.4347 93.1253 40.0027 93.024 39.512 93.024C39.0853 93.024 38.696 93.1253 38.344 93.328C37.992 93.5307 37.6987 93.8133 37.464 94.176C37.24 94.528 37.1067 94.928 37.064 95.376H41.976ZM45.9193 97.552C45.9833 97.872 46.1006 98.1387 46.2713 98.352C46.4419 98.5547 46.6606 98.7093 46.9273 98.816C47.2046 98.9227 47.5246 98.976 47.8873 98.976C48.4526 98.976 48.8793 98.8693 49.1673 98.656C49.4659 98.432 49.6153 98.1547 49.6153 97.824C49.6153 97.5467 49.5246 97.3227 49.3433 97.152C49.1726 96.9813 48.9433 96.8427 48.6553 96.736C48.3673 96.6187 48.0473 96.5173 47.6953 96.432C47.4179 96.368 47.1193 96.2933 46.7993 96.208C46.4793 96.112 46.1753 95.984 45.8873 95.824C45.5993 95.664 45.3646 95.456 45.1833 95.2C45.0019 94.944 44.9113 94.608 44.9113 94.192C44.9113 93.7333 45.0339 93.3333 45.2793 92.992C45.5353 92.64 45.8819 92.368 46.3193 92.176C46.7673 91.984 47.2793 91.888 47.8553 91.888C48.5166 91.888 49.1033 92.032 49.6153 92.32C50.1379 92.608 50.5006 93.056 50.7033 93.664L49.5833 94.048C49.5086 93.7707 49.3699 93.5573 49.1673 93.408C48.9753 93.2587 48.7566 93.1573 48.5113 93.104C48.2766 93.0507 48.0419 93.024 47.8073 93.024C47.3273 93.024 46.9379 93.12 46.6393 93.312C46.3513 93.4933 46.2073 93.7707 46.2073 94.144C46.2073 94.3467 46.2553 94.5173 46.3513 94.656C46.4473 94.784 46.5806 94.8907 46.7513 94.976C46.9219 95.0613 47.1246 95.136 47.3593 95.2C47.5939 95.2533 47.8499 95.3173 48.1273 95.392C48.4366 95.4667 48.7513 95.5627 49.0713 95.68C49.3913 95.7867 49.6899 95.9307 49.9673 96.112C50.2446 96.2827 50.4686 96.5067 50.6393 96.784C50.8206 97.0507 50.9113 97.3867 50.9113 97.792C50.9113 98.2613 50.7833 98.672 50.5273 99.024C50.2713 99.3653 49.9139 99.632 49.4553 99.824C49.0073 100.016 48.4846 100.112 47.8873 100.112C47.0659 100.112 46.3833 99.9307 45.8393 99.568C45.3059 99.1947 44.9486 98.6507 44.7673 97.936L45.9193 97.552ZM52.857 88.48H54.057V93.088C54.313 92.704 54.6597 92.4107 55.097 92.208C55.5343 91.9947 56.025 91.888 56.569 91.888C57.1557 91.888 57.6783 92.0213 58.137 92.288C58.5957 92.5547 58.953 92.9493 59.209 93.472C59.4757 93.9947 59.609 94.6453 59.609 95.424V100H58.329V95.568C58.329 94.736 58.153 94.1013 57.801 93.664C57.449 93.216 56.937 92.992 56.265 92.992C55.5717 92.992 55.0277 93.2267 54.633 93.696C54.249 94.1653 54.057 94.848 54.057 95.744V100H52.857V88.48ZM67.4915 98.384L67.6195 98.368V103.2H66.4195V92H67.5235L67.6035 93.488C67.8488 93.04 68.2115 92.6613 68.6915 92.352C69.1715 92.0427 69.7742 91.888 70.4995 91.888C71.1928 91.888 71.8168 92.0587 72.3715 92.4C72.9262 92.7307 73.3635 93.2053 73.6835 93.824C74.0035 94.432 74.1635 95.1573 74.1635 96C74.1635 96.832 74.0088 97.5573 73.6995 98.176C73.4008 98.784 72.9742 99.2587 72.4195 99.6C71.8755 99.9413 71.2355 100.112 70.4995 100.112C69.7315 100.112 69.0968 99.9467 68.5955 99.616C68.0942 99.2853 67.7262 98.8747 67.4915 98.384ZM72.8675 96C72.8675 95.0827 72.6275 94.3573 72.1475 93.824C71.6782 93.28 71.0435 93.008 70.2435 93.008C69.7422 93.008 69.2888 93.1253 68.8835 93.36C68.4888 93.5947 68.1795 93.936 67.9555 94.384C67.7315 94.832 67.6195 95.3707 67.6195 96C67.6195 96.6187 67.7315 97.152 67.9555 97.6C68.1795 98.048 68.4888 98.3947 68.8835 98.64C69.2888 98.8747 69.7422 98.992 70.2435 98.992C71.0435 98.992 71.6782 98.7253 72.1475 98.192C72.6275 97.648 72.8675 96.9173 72.8675 96ZM76.1226 92H77.2266L77.2906 93.168C77.504 92.88 77.76 92.6347 78.0586 92.432C78.368 92.2293 78.704 92.0907 79.0666 92.016C79.44 91.9307 79.8346 91.9253 80.2506 92V93.2C79.8026 93.1147 79.3973 93.1147 79.0346 93.2C78.6826 93.2853 78.3786 93.4453 78.1226 93.68C77.8666 93.9147 77.6693 94.2133 77.5306 94.576C77.392 94.928 77.3226 95.3387 77.3226 95.808V100H76.1226V92ZM85.092 100.112C84.3453 100.112 83.6787 99.9307 83.092 99.568C82.516 99.2053 82.0627 98.7093 81.732 98.08C81.4013 97.4507 81.236 96.7307 81.236 95.92C81.236 95.1413 81.4013 94.448 81.732 93.84C82.0627 93.232 82.516 92.7573 83.092 92.416C83.668 92.064 84.324 91.888 85.06 91.888C85.7853 91.888 86.4307 92.048 86.996 92.368C87.572 92.688 88.02 93.1307 88.34 93.696C88.66 94.2613 88.8093 94.9067 88.788 95.632C88.788 95.7493 88.7827 95.872 88.772 96C88.7613 96.128 88.7507 96.2667 88.74 96.416H82.548C82.5693 96.9173 82.692 97.36 82.916 97.744C83.14 98.128 83.4333 98.432 83.796 98.656C84.1693 98.8693 84.5907 98.976 85.06 98.976C85.6787 98.976 86.2013 98.8587 86.628 98.624C87.0653 98.3893 87.38 98.0533 87.572 97.616L88.612 98.032C88.292 98.704 87.828 99.2213 87.22 99.584C86.612 99.936 85.9027 100.112 85.092 100.112ZM87.476 95.376C87.4867 94.9173 87.3853 94.512 87.172 94.16C86.9693 93.808 86.6813 93.5307 86.308 93.328C85.9347 93.1253 85.5027 93.024 85.012 93.024C84.5853 93.024 84.196 93.1253 83.844 93.328C83.492 93.5307 83.1987 93.8133 82.964 94.176C82.74 94.528 82.6067 94.928 82.564 95.376H87.476ZM90.7633 92H91.8673L91.9473 93.152C92.1819 92.768 92.4966 92.464 92.8913 92.24C93.2966 92.0053 93.7766 91.888 94.3313 91.888C94.8966 91.888 95.4086 92.0267 95.8673 92.304C96.3366 92.5707 96.6993 92.9707 96.9553 93.504C97.2006 92.96 97.5739 92.5547 98.0753 92.288C98.5766 92.0213 99.1313 91.888 99.7393 91.888C100.337 91.888 100.865 92.0213 101.323 92.288C101.782 92.544 102.139 92.9333 102.395 93.456C102.651 93.968 102.779 94.6133 102.779 95.392V100H101.579V95.536C101.579 94.704 101.398 94.0747 101.035 93.648C100.683 93.2107 100.177 92.992 99.5153 92.992C98.8433 92.992 98.3099 93.2267 97.9153 93.696C97.5206 94.1547 97.3233 94.8373 97.3233 95.744V100H96.1233V95.536C96.1233 94.704 95.9526 94.0747 95.6113 93.648C95.2699 93.2107 94.7686 92.992 94.1073 92.992C93.4353 92.992 92.9073 93.2267 92.5233 93.696C92.1499 94.1547 91.9633 94.8373 91.9633 95.744V100H90.7633V92ZM105.347 92H106.531V100H105.347V92ZM105.955 90.4C105.71 90.4 105.507 90.32 105.347 90.16C105.187 90 105.107 89.8027 105.107 89.568C105.107 89.3227 105.187 89.12 105.347 88.96C105.507 88.8 105.71 88.72 105.955 88.72C106.179 88.72 106.371 88.8 106.531 88.96C106.702 89.12 106.787 89.3227 106.787 89.568C106.787 89.8027 106.702 90 106.531 90.16C106.371 90.32 106.179 90.4 105.955 90.4ZM115.776 100H114.688L114.608 98.848C114.363 99.2533 114.032 99.568 113.616 99.792C113.2 100.005 112.715 100.112 112.16 100.112C111.541 100.112 111.003 99.984 110.544 99.728C110.085 99.472 109.728 99.088 109.472 98.576C109.227 98.064 109.104 97.4187 109.104 96.64V92H110.288V96.512C110.288 97.3333 110.464 97.9573 110.816 98.384C111.179 98.8 111.696 99.008 112.368 99.008C113.051 99.008 113.589 98.7893 113.984 98.352C114.389 97.904 114.592 97.232 114.592 96.336V92H115.776V100ZM118.216 92H119.32L119.4 93.152C119.635 92.768 119.95 92.464 120.344 92.24C120.75 92.0053 121.23 91.888 121.784 91.888C122.35 91.888 122.862 92.0267 123.32 92.304C123.79 92.5707 124.152 92.9707 124.408 93.504C124.654 92.96 125.027 92.5547 125.528 92.288C126.03 92.0213 126.584 91.888 127.192 91.888C127.79 91.888 128.318 92.0213 128.776 92.288C129.235 92.544 129.592 92.9333 129.848 93.456C130.104 93.968 130.232 94.6133 130.232 95.392V100H129.032V95.536C129.032 94.704 128.851 94.0747 128.488 93.648C128.136 93.2107 127.63 92.992 126.968 92.992C126.296 92.992 125.763 93.2267 125.368 93.696C124.974 94.1547 124.776 94.8373 124.776 95.744V100H123.576V95.536C123.576 94.704 123.406 94.0747 123.064 93.648C122.723 93.2107 122.222 92.992 121.56 92.992C120.888 92.992 120.36 93.2267 119.976 93.696C119.603 94.1547 119.416 94.8373 119.416 95.744V100H118.216V92ZM140.453 100.112C139.674 100.112 138.991 99.9413 138.405 99.6C137.818 99.2587 137.359 98.784 137.029 98.176C136.709 97.5573 136.549 96.8427 136.549 96.032C136.549 95.2107 136.709 94.4907 137.029 93.872C137.359 93.2427 137.818 92.7573 138.405 92.416C138.991 92.064 139.674 91.888 140.453 91.888C141.274 91.888 141.994 92.08 142.613 92.464C143.231 92.8373 143.679 93.36 143.957 94.032L142.853 94.416C142.693 93.9893 142.399 93.6533 141.973 93.408C141.557 93.152 141.071 93.024 140.516 93.024C139.973 93.024 139.498 93.1467 139.093 93.392C138.698 93.6373 138.389 93.984 138.164 94.432C137.951 94.88 137.845 95.408 137.845 96.016C137.845 96.912 138.085 97.632 138.565 98.176C139.045 98.7093 139.685 98.976 140.485 98.976C141.029 98.976 141.514 98.8533 141.941 98.608C142.367 98.3627 142.682 98.032 142.885 97.616L143.973 98C143.685 98.6613 143.231 99.1787 142.613 99.552C141.994 99.9253 141.274 100.112 140.453 100.112ZM152.479 100H151.391L151.311 98.848C151.066 99.2533 150.735 99.568 150.319 99.792C149.903 100.005 149.418 100.112 148.863 100.112C148.244 100.112 147.706 99.984 147.247 99.728C146.788 99.472 146.431 99.088 146.175 98.576C145.93 98.064 145.807 97.4187 145.807 96.64V92H146.991V96.512C146.991 97.3333 147.167 97.9573 147.519 98.384C147.882 98.8 148.399 99.008 149.071 99.008C149.754 99.008 150.292 98.7893 150.687 98.352C151.092 97.904 151.295 97.232 151.295 96.336V92H152.479V100ZM155.432 92V89.76H156.632V92H158.76V93.12H156.632V97.424C156.632 97.9147 156.733 98.272 156.936 98.496C157.149 98.72 157.416 98.8533 157.736 98.896C158.066 98.9387 158.408 98.9387 158.76 98.896V99.936C158.344 100.032 157.933 100.059 157.528 100.016C157.133 99.9733 156.776 99.856 156.456 99.664C156.146 99.4613 155.896 99.1787 155.704 98.816C155.522 98.4533 155.432 97.9893 155.432 97.424V93.12H154.232V92H155.432ZM161.201 97.552C161.265 97.872 161.382 98.1387 161.553 98.352C161.723 98.5547 161.942 98.7093 162.209 98.816C162.486 98.9227 162.806 98.976 163.169 98.976C163.734 98.976 164.161 98.8693 164.449 98.656C164.747 98.432 164.897 98.1547 164.897 97.824C164.897 97.5467 164.806 97.3227 164.625 97.152C164.454 96.9813 164.225 96.8427 163.937 96.736C163.649 96.6187 163.329 96.5173 162.977 96.432C162.699 96.368 162.401 96.2933 162.081 96.208C161.761 96.112 161.457 95.984 161.169 95.824C160.881 95.664 160.646 95.456 160.465 95.2C160.283 94.944 160.193 94.608 160.193 94.192C160.193 93.7333 160.315 93.3333 160.561 92.992C160.817 92.64 161.163 92.368 161.601 92.176C162.049 91.984 162.561 91.888 163.137 91.888C163.798 91.888 164.385 92.032 164.897 92.32C165.419 92.608 165.782 93.056 165.985 93.664L164.865 94.048C164.79 93.7707 164.651 93.5573 164.449 93.408C164.257 93.2587 164.038 93.1573 163.793 93.104C163.558 93.0507 163.323 93.024 163.089 93.024C162.609 93.024 162.219 93.12 161.921 93.312C161.633 93.4933 161.489 93.7707 161.489 94.144C161.489 94.3467 161.537 94.5173 161.633 94.656C161.729 94.784 161.862 94.8907 162.033 94.976C162.203 95.0613 162.406 95.136 162.641 95.2C162.875 95.2533 163.131 95.3173 163.409 95.392C163.718 95.4667 164.033 95.5627 164.353 95.68C164.673 95.7867 164.971 95.9307 165.249 96.112C165.526 96.2827 165.75 96.5067 165.921 96.784C166.102 97.0507 166.193 97.3867 166.193 97.792C166.193 98.2613 166.065 98.672 165.809 99.024C165.553 99.3653 165.195 99.632 164.737 99.824C164.289 100.016 163.766 100.112 163.169 100.112C162.347 100.112 161.665 99.9307 161.121 99.568C160.587 99.1947 160.23 98.6507 160.049 97.936L161.201 97.552ZM173.695 98.384L173.823 98.368V103.2H172.623V92H173.727L173.807 93.488C174.052 93.04 174.415 92.6613 174.895 92.352C175.375 92.0427 175.977 91.888 176.703 91.888C177.396 91.888 178.02 92.0587 178.575 92.4C179.129 92.7307 179.567 93.2053 179.887 93.824C180.207 94.432 180.367 95.1573 180.367 96C180.367 96.832 180.212 97.5573 179.903 98.176C179.604 98.784 179.177 99.2587 178.623 99.6C178.079 99.9413 177.439 100.112 176.703 100.112C175.935 100.112 175.3 99.9467 174.799 99.616C174.297 99.2853 173.929 98.8747 173.695 98.384ZM179.071 96C179.071 95.0827 178.831 94.3573 178.351 93.824C177.881 93.28 177.247 93.008 176.447 93.008C175.945 93.008 175.492 93.1253 175.087 93.36C174.692 93.5947 174.383 93.936 174.159 94.384C173.935 94.832 173.823 95.3707 173.823 96C173.823 96.6187 173.935 97.152 174.159 97.6C174.383 98.048 174.692 98.3947 175.087 98.64C175.492 98.8747 175.945 98.992 176.447 98.992C177.247 98.992 177.881 98.7253 178.351 98.192C178.831 97.648 179.071 96.9173 179.071 96ZM187.334 100L187.238 98.56C187.014 99.0507 186.683 99.4347 186.246 99.712C185.808 99.9787 185.254 100.112 184.582 100.112C184.006 100.112 183.515 100.021 183.11 99.84C182.704 99.6587 182.39 99.4027 182.166 99.072C181.952 98.7307 181.846 98.3307 181.846 97.872C181.846 97.2 182.096 96.6507 182.598 96.224C183.099 95.7867 183.824 95.52 184.774 95.424L187.238 95.152V94.512C187.238 94.064 187.072 93.7067 186.742 93.44C186.411 93.1627 185.963 93.024 185.398 93.024C184.843 93.024 184.379 93.152 184.006 93.408C183.643 93.664 183.392 94.032 183.254 94.512L182.166 94.128C182.379 93.424 182.768 92.8747 183.334 92.48C183.91 92.0853 184.608 91.888 185.43 91.888C186.379 91.888 187.115 92.1333 187.638 92.624C188.171 93.104 188.438 93.76 188.438 94.592V100H187.334ZM187.238 96.176L184.758 96.464C184.224 96.528 183.819 96.6773 183.542 96.912C183.264 97.136 183.126 97.4347 183.126 97.808C183.126 98.1813 183.259 98.48 183.526 98.704C183.803 98.928 184.198 99.04 184.71 99.04C185.296 99.04 185.776 98.9227 186.15 98.688C186.523 98.4533 186.795 98.1387 186.966 97.744C187.147 97.3387 187.238 96.9013 187.238 96.432V96.176ZM194.187 100.112C193.408 100.112 192.726 99.9413 192.139 99.6C191.552 99.2587 191.094 98.784 190.763 98.176C190.443 97.5573 190.283 96.8427 190.283 96.032C190.283 95.2107 190.443 94.4907 190.763 93.872C191.094 93.2427 191.552 92.7573 192.139 92.416C192.726 92.064 193.408 91.888 194.187 91.888C195.008 91.888 195.728 92.08 196.347 92.464C196.966 92.8373 197.414 93.36 197.691 94.032L196.587 94.416C196.427 93.9893 196.134 93.6533 195.707 93.408C195.291 93.152 194.806 93.024 194.251 93.024C193.707 93.024 193.232 93.1467 192.827 93.392C192.432 93.6373 192.123 93.984 191.899 94.432C191.686 94.88 191.579 95.408 191.579 96.016C191.579 96.912 191.819 97.632 192.299 98.176C192.779 98.7093 193.419 98.976 194.219 98.976C194.763 98.976 195.248 98.8533 195.675 98.608C196.102 98.3627 196.416 98.032 196.619 97.616L197.707 98C197.419 98.6613 196.966 99.1787 196.347 99.552C195.728 99.9253 195.008 100.112 194.187 100.112ZM199.67 88.48H200.886V95.472H201.622L204.774 92H206.47L202.694 96L206.486 100H204.774L201.622 96.512H200.886V100H199.67V88.48ZM210.967 100.112C210.22 100.112 209.554 99.9307 208.967 99.568C208.391 99.2053 207.938 98.7093 207.607 98.08C207.276 97.4507 207.111 96.7307 207.111 95.92C207.111 95.1413 207.276 94.448 207.607 93.84C207.938 93.232 208.391 92.7573 208.967 92.416C209.543 92.064 210.199 91.888 210.935 91.888C211.66 91.888 212.306 92.048 212.871 92.368C213.447 92.688 213.895 93.1307 214.215 93.696C214.535 94.2613 214.684 94.9067 214.663 95.632C214.663 95.7493 214.658 95.872 214.647 96C214.636 96.128 214.626 96.2667 214.615 96.416H208.423C208.444 96.9173 208.567 97.36 208.791 97.744C209.015 98.128 209.308 98.432 209.671 98.656C210.044 98.8693 210.466 98.976 210.935 98.976C211.554 98.976 212.076 98.8587 212.503 98.624C212.94 98.3893 213.255 98.0533 213.447 97.616L214.487 98.032C214.167 98.704 213.703 99.2213 213.095 99.584C212.487 99.936 211.778 100.112 210.967 100.112ZM213.351 95.376C213.362 94.9173 213.26 94.512 213.047 94.16C212.844 93.808 212.556 93.5307 212.183 93.328C211.81 93.1253 211.378 93.024 210.887 93.024C210.46 93.024 210.071 93.1253 209.719 93.328C209.367 93.5307 209.074 93.8133 208.839 94.176C208.615 94.528 208.482 94.928 208.439 95.376H213.351ZM222.814 93.616L222.686 93.632V88.48H223.886V100H222.782L222.702 98.512C222.457 98.96 222.089 99.3387 221.598 99.648C221.118 99.9573 220.521 100.112 219.806 100.112C219.07 100.112 218.425 99.9467 217.87 99.616C217.326 99.2747 216.9 98.7947 216.59 98.176C216.292 97.5573 216.142 96.832 216.142 96C216.142 95.168 216.292 94.448 216.59 93.84C216.9 93.2213 217.326 92.7413 217.87 92.4C218.425 92.0587 219.07 91.888 219.806 91.888C220.564 91.888 221.193 92.0533 221.694 92.384C222.196 92.7147 222.569 93.1253 222.814 93.616ZM217.438 96C217.438 96.9173 217.673 97.648 218.142 98.192C218.612 98.7253 219.252 98.992 220.062 98.992C220.564 98.992 221.012 98.8747 221.406 98.64C221.801 98.4053 222.11 98.064 222.334 97.616C222.569 97.168 222.686 96.6293 222.686 96C222.686 95.3707 222.569 94.8373 222.334 94.4C222.11 93.952 221.801 93.6107 221.406 93.376C221.012 93.1307 220.564 93.008 220.062 93.008C219.262 93.008 218.622 93.28 218.142 93.824C217.673 94.3573 217.438 95.0827 217.438 96ZM231.066 92H232.25V100H231.066V92ZM231.674 90.4C231.428 90.4 231.226 90.32 231.066 90.16C230.906 90 230.826 89.8027 230.826 89.568C230.826 89.3227 230.906 89.12 231.066 88.96C231.226 88.8 231.428 88.72 231.674 88.72C231.898 88.72 232.09 88.8 232.25 88.96C232.42 89.12 232.506 89.3227 232.506 89.568C232.506 89.8027 232.42 90 232.25 90.16C232.09 90.32 231.898 90.4 231.674 90.4ZM234.951 92H236.055L236.119 93.136C236.375 92.7413 236.711 92.4373 237.127 92.224C237.543 92 238.028 91.888 238.583 91.888C239.191 91.888 239.724 92.0213 240.183 92.288C240.641 92.544 240.999 92.9333 241.255 93.456C241.511 93.968 241.639 94.6133 241.639 95.392V100H240.439V95.536C240.439 94.704 240.257 94.0747 239.895 93.648C239.543 93.2107 239.031 92.992 238.359 92.992C237.665 92.992 237.121 93.2213 236.727 93.68C236.343 94.1387 236.151 94.816 236.151 95.712V100H234.951V92ZM243.758 95.008H250.062V96.096H243.758V95.008ZM21.232 112.48H22.432V117.088C22.688 116.704 23.0347 116.411 23.472 116.208C23.9093 115.995 24.4 115.888 24.944 115.888C25.5307 115.888 26.0533 116.021 26.512 116.288C26.9707 116.555 27.328 116.949 27.584 117.472C27.8507 117.995 27.984 118.645 27.984 119.424V124H26.704V119.568C26.704 118.736 26.528 118.101 26.176 117.664C25.824 117.216 25.312 116.992 24.64 116.992C23.9467 116.992 23.4027 117.227 23.008 117.696C22.624 118.165 22.432 118.848 22.432 119.744V124H21.232V112.48ZM33.7661 124.112C33.0088 124.112 32.3315 123.947 31.7341 123.616C31.1368 123.285 30.6675 122.816 30.3261 122.208C29.9848 121.589 29.8141 120.859 29.8141 120.016C29.8141 119.163 29.9848 118.427 30.3261 117.808C30.6781 117.189 31.1528 116.715 31.7501 116.384C32.3581 116.053 33.0408 115.888 33.7981 115.888C34.5555 115.888 35.2328 116.053 35.8301 116.384C36.4381 116.715 36.9128 117.189 37.2541 117.808C37.6061 118.416 37.7821 119.141 37.7821 119.984C37.7821 120.837 37.6061 121.573 37.2541 122.192C36.9021 122.811 36.4221 123.285 35.8141 123.616C35.2061 123.947 34.5235 124.112 33.7661 124.112ZM33.7501 122.976C34.2195 122.976 34.6621 122.875 35.0781 122.672C35.4941 122.459 35.8301 122.133 36.0861 121.696C36.3528 121.248 36.4861 120.683 36.4861 120C36.4861 119.307 36.3581 118.741 36.1021 118.304C35.8461 117.867 35.5101 117.547 35.0941 117.344C34.6888 117.131 34.2515 117.024 33.7821 117.024C33.3128 117.024 32.8755 117.131 32.4701 117.344C32.0648 117.547 31.7341 117.872 31.4781 118.32C31.2328 118.757 31.1101 119.317 31.1101 120C31.1101 120.693 31.2328 121.259 31.4781 121.696C31.7235 122.133 32.0435 122.459 32.4381 122.672C32.8435 122.875 33.2808 122.976 33.7501 122.976ZM46.2916 124H45.2036L45.1236 122.848C44.8783 123.253 44.5476 123.568 44.1316 123.792C43.7156 124.005 43.2303 124.112 42.6756 124.112C42.057 124.112 41.5183 123.984 41.0596 123.728C40.601 123.472 40.2436 123.088 39.9876 122.576C39.7423 122.064 39.6196 121.419 39.6196 120.64V116H40.8036V120.512C40.8036 121.333 40.9796 121.957 41.3316 122.384C41.6943 122.8 42.2116 123.008 42.8836 123.008C43.5663 123.008 44.105 122.789 44.4996 122.352C44.905 121.904 45.1076 121.232 45.1076 120.336V116H46.2916V124ZM49.388 121.552C49.452 121.872 49.5693 122.139 49.74 122.352C49.9107 122.555 50.1293 122.709 50.396 122.816C50.6733 122.923 50.9933 122.976 51.356 122.976C51.9213 122.976 52.348 122.869 52.636 122.656C52.9347 122.432 53.084 122.155 53.084 121.824C53.084 121.547 52.9933 121.323 52.812 121.152C52.6413 120.981 52.412 120.843 52.124 120.736C51.836 120.619 51.516 120.517 51.164 120.432C50.8867 120.368 50.588 120.293 50.268 120.208C49.948 120.112 49.644 119.984 49.356 119.824C49.068 119.664 48.8333 119.456 48.652 119.2C48.4707 118.944 48.38 118.608 48.38 118.192C48.38 117.733 48.5027 117.333 48.748 116.992C49.004 116.64 49.3507 116.368 49.788 116.176C50.236 115.984 50.748 115.888 51.324 115.888C51.9853 115.888 52.572 116.032 53.084 116.32C53.6067 116.608 53.9693 117.056 54.172 117.664L53.052 118.048C52.9773 117.771 52.8387 117.557 52.636 117.408C52.444 117.259 52.2253 117.157 51.98 117.104C51.7453 117.051 51.5107 117.024 51.276 117.024C50.796 117.024 50.4067 117.12 50.108 117.312C49.82 117.493 49.676 117.771 49.676 118.144C49.676 118.347 49.724 118.517 49.82 118.656C49.916 118.784 50.0493 118.891 50.22 118.976C50.3907 119.061 50.5933 119.136 50.828 119.2C51.0627 119.253 51.3187 119.317 51.596 119.392C51.9053 119.467 52.22 119.563 52.54 119.68C52.86 119.787 53.1587 119.931 53.436 120.112C53.7133 120.283 53.9373 120.507 54.108 120.784C54.2893 121.051 54.38 121.387 54.38 121.792C54.38 122.261 54.252 122.672 53.996 123.024C53.74 123.365 53.3827 123.632 52.924 123.824C52.476 124.016 51.9533 124.112 51.356 124.112C50.5347 124.112 49.852 123.931 49.308 123.568C48.7747 123.195 48.4173 122.651 48.236 121.936L49.388 121.552ZM59.6858 124.112C58.9391 124.112 58.2724 123.931 57.6858 123.568C57.1098 123.205 56.6564 122.709 56.3258 122.08C55.9951 121.451 55.8298 120.731 55.8298 119.92C55.8298 119.141 55.9951 118.448 56.3258 117.84C56.6564 117.232 57.1098 116.757 57.6858 116.416C58.2618 116.064 58.9178 115.888 59.6538 115.888C60.3791 115.888 61.0244 116.048 61.5898 116.368C62.1658 116.688 62.6138 117.131 62.9338 117.696C63.2538 118.261 63.4031 118.907 63.3818 119.632C63.3818 119.749 63.3764 119.872 63.3658 120C63.3551 120.128 63.3444 120.267 63.3338 120.416H57.1418C57.1631 120.917 57.2858 121.36 57.5098 121.744C57.7338 122.128 58.0271 122.432 58.3898 122.656C58.7631 122.869 59.1844 122.976 59.6538 122.976C60.2724 122.976 60.7951 122.859 61.2218 122.624C61.6591 122.389 61.9738 122.053 62.1658 121.616L63.2058 122.032C62.8858 122.704 62.4218 123.221 61.8138 123.584C61.2058 123.936 60.4964 124.112 59.6858 124.112ZM62.0698 119.376C62.0804 118.917 61.9791 118.512 61.7658 118.16C61.5631 117.808 61.2751 117.531 60.9018 117.328C60.5284 117.125 60.0964 117.024 59.6058 117.024C59.1791 117.024 58.7898 117.125 58.4378 117.328C58.0858 117.531 57.7924 117.813 57.5578 118.176C57.3338 118.528 57.2004 118.928 57.1578 119.376H62.0698Z" fill="white"/>
</svg>
