<svg width="288" height="120" viewBox="0 0 288 120" fill="none" xmlns="http://www.w3.org/2000/svg">
<mask id="path-1-inside-1_10385_10475" fill="white">
<path d="M0 8C0 3.58172 3.58172 0 8 0H280C284.418 0 288 3.58172 288 8V112C288 116.418 284.418 120 280 120H8C3.58173 120 0 116.418 0 112V8Z"/>
</mask>
<path d="M0 8C0 3.58172 3.58172 0 8 0H280C284.418 0 288 3.58172 288 8V112C288 116.418 284.418 120 280 120H8C3.58173 120 0 116.418 0 112V8Z" fill="white" fill-opacity="0.2"/>
<path d="M0 0H288H0ZM288 120H0H288ZM8 120C1.37258 120 -4 114.627 -4 108V12C-4 5.37258 1.37258 0 8 0C5.79086 0 4 3.58172 4 8V112C4 116.418 5.79086 120 8 120ZM288 0V120V0Z" fill="#F26829" mask="url(#path-1-inside-1_10385_10475)"/>
<path d="M35.744 26.2V43H32L25.184 32.08V43H21.488V26.2H25.232L32.024 37.168V26.2H35.744ZM49.4191 43H46.2271L45.9871 41.68C45.5871 42.128 45.1151 42.488 44.5711 42.76C44.0431 43.032 43.4591 43.168 42.8191 43.168C41.9231 43.168 41.1471 42.968 40.4911 42.568C39.8351 42.168 39.3231 41.584 38.9551 40.816C38.5871 40.032 38.4031 39.096 38.4031 38.008V31H41.9071V37.576C41.9071 38.376 42.0671 38.984 42.3871 39.4C42.7231 39.816 43.2271 40.024 43.8991 40.024C44.5391 40.024 45.0351 39.808 45.3871 39.376C45.7391 38.944 45.9151 38.328 45.9151 37.528V31H49.4191V43ZM53.03 31V27.64H56.606V31H59.078V34.096H56.606V38.416C56.606 38.96 56.726 39.344 56.966 39.568C57.222 39.792 57.542 39.912 57.926 39.928C58.31 39.928 58.694 39.896 59.078 39.832V42.88C58.262 43.024 57.486 43.064 56.75 43C56.014 42.952 55.366 42.76 54.806 42.424C54.262 42.088 53.83 41.592 53.51 40.936C53.19 40.28 53.03 39.44 53.03 38.416V34.096H51.35V31H53.03ZM61.0471 31H64.2391L64.4791 32.584C64.7831 32.168 65.1431 31.824 65.5591 31.552C65.9911 31.264 66.4631 31.072 66.9751 30.976C67.5031 30.88 68.0791 30.888 68.7031 31V34.312C68.2871 34.168 67.8391 34.128 67.3591 34.192C66.8791 34.24 66.4231 34.4 65.9911 34.672C65.5591 34.928 65.2071 35.312 64.9351 35.824C64.6791 36.336 64.5511 36.984 64.5511 37.768V43H61.0471V31ZM70.925 31H74.429V43H70.925V31ZM72.677 29.776C72.021 29.776 71.485 29.584 71.069 29.2C70.669 28.8 70.469 28.32 70.469 27.76C70.469 27.184 70.669 26.704 71.069 26.32C71.485 25.92 72.021 25.72 72.677 25.72C73.317 25.72 73.837 25.92 74.237 26.32C74.653 26.704 74.861 27.184 74.861 27.76C74.861 28.32 74.653 28.8 74.237 29.2C73.837 29.584 73.317 29.776 72.677 29.776ZM78.4597 31V27.64H82.0357V31H84.5077V34.096H82.0357V38.416C82.0357 38.96 82.1557 39.344 82.3957 39.568C82.6517 39.792 82.9717 39.912 83.3557 39.928C83.7397 39.928 84.1237 39.896 84.5077 39.832V42.88C83.6917 43.024 82.9157 43.064 82.1797 43C81.4437 42.952 80.7957 42.76 80.2357 42.424C79.6917 42.088 79.2597 41.592 78.9397 40.936C78.6197 40.28 78.4597 39.44 78.4597 38.416V34.096H76.7797V31H78.4597ZM86.9328 31H90.4368V43H86.9328V31ZM88.6848 29.776C88.0288 29.776 87.4928 29.584 87.0768 29.2C86.6768 28.8 86.4768 28.32 86.4768 27.76C86.4768 27.184 86.6768 26.704 87.0768 26.32C87.4928 25.92 88.0288 25.72 88.6848 25.72C89.3248 25.72 89.8448 25.92 90.2448 26.32C90.6608 26.704 90.8688 27.184 90.8688 27.76C90.8688 28.32 90.6608 28.8 90.2448 29.2C89.8448 29.584 89.3248 29.776 88.6848 29.776ZM99.0995 43.168C97.9315 43.168 96.8835 42.92 95.9555 42.424C95.0275 41.928 94.2995 41.216 93.7715 40.288C93.2595 39.36 93.0035 38.264 93.0035 37C93.0035 35.736 93.2675 34.648 93.7955 33.736C94.3395 32.808 95.0755 32.096 96.0035 31.6C96.9475 31.088 97.9955 30.832 99.1475 30.832C100.332 30.832 101.388 31.088 102.316 31.6C103.26 32.096 104.004 32.808 104.548 33.736C105.092 34.648 105.364 35.728 105.364 36.976C105.364 38.256 105.084 39.36 104.523 40.288C103.98 41.216 103.228 41.928 102.268 42.424C101.324 42.92 100.268 43.168 99.0995 43.168ZM99.0995 40C99.5155 40 99.9155 39.888 100.3 39.664C100.684 39.44 100.996 39.112 101.236 38.68C101.476 38.232 101.596 37.672 101.596 37C101.596 36.328 101.476 35.776 101.236 35.344C100.996 34.896 100.692 34.56 100.324 34.336C99.9555 34.112 99.5635 34 99.1475 34C98.6995 34 98.2995 34.112 97.9475 34.336C97.5955 34.56 97.3075 34.896 97.0835 35.344C96.8755 35.776 96.7715 36.328 96.7715 37C96.7715 37.672 96.8755 38.232 97.0835 38.68C97.2915 39.112 97.5715 39.44 97.9235 39.664C98.2755 39.888 98.6675 40 99.0995 40ZM118.349 43H115.157L114.917 41.68C114.517 42.128 114.045 42.488 113.501 42.76C112.973 43.032 112.389 43.168 111.749 43.168C110.853 43.168 110.077 42.968 109.421 42.568C108.765 42.168 108.253 41.584 107.885 40.816C107.517 40.032 107.333 39.096 107.333 38.008V31H110.837V37.576C110.837 38.376 110.997 38.984 111.317 39.4C111.653 39.816 112.157 40.024 112.829 40.024C113.469 40.024 113.965 39.808 114.317 39.376C114.669 38.944 114.845 38.328 114.845 37.528V31H118.349V43ZM123.664 39.064C123.744 39.384 123.872 39.632 124.048 39.808C124.24 39.984 124.464 40.112 124.72 40.192C124.976 40.272 125.24 40.312 125.512 40.312C126.008 40.312 126.392 40.224 126.664 40.048C126.936 39.872 127.072 39.648 127.072 39.376C127.072 39.104 126.968 38.904 126.76 38.776C126.568 38.632 126.312 38.52 125.992 38.44C125.672 38.344 125.336 38.256 124.984 38.176C124.584 38.08 124.136 37.968 123.64 37.84C123.144 37.696 122.672 37.504 122.224 37.264C121.776 37.008 121.408 36.672 121.12 36.256C120.832 35.824 120.688 35.288 120.688 34.648C120.688 33.912 120.888 33.256 121.288 32.68C121.688 32.104 122.256 31.656 122.992 31.336C123.728 31 124.6 30.832 125.608 30.832C126.84 30.832 127.848 31.088 128.632 31.6C129.416 32.112 129.976 32.832 130.312 33.76L127.264 34.528C127.184 34.32 127.064 34.16 126.904 34.048C126.744 33.92 126.544 33.832 126.304 33.784C126.08 33.72 125.856 33.688 125.632 33.688C125.216 33.688 124.888 33.768 124.648 33.928C124.408 34.088 124.288 34.288 124.288 34.528C124.288 34.688 124.336 34.824 124.432 34.936C124.544 35.048 124.688 35.136 124.864 35.2C125.056 35.264 125.272 35.32 125.512 35.368C125.768 35.416 126.04 35.48 126.328 35.56C126.808 35.672 127.296 35.808 127.792 35.968C128.304 36.128 128.776 36.344 129.208 36.616C129.64 36.872 129.992 37.224 130.264 37.672C130.536 38.104 130.68 38.664 130.696 39.352C130.696 40.056 130.496 40.704 130.096 41.296C129.696 41.872 129.112 42.328 128.344 42.664C127.576 43 126.64 43.168 125.536 43.168C124.208 43.168 123.096 42.896 122.2 42.352C121.304 41.808 120.736 40.968 120.496 39.832L123.664 39.064ZM140.163 30.112C140.163 28.976 140.371 28.064 140.787 27.376C141.219 26.688 141.835 26.208 142.635 25.936C143.435 25.664 144.411 25.592 145.563 25.72V28.84C144.923 28.744 144.443 28.832 144.123 29.104C143.819 29.36 143.667 29.784 143.667 30.376V31H145.659V34.096H143.667V43H140.163V34.096H138.795V31H140.163V30.112ZM152.959 43.168C151.727 43.168 150.655 42.912 149.743 42.4C148.831 41.872 148.119 41.136 147.607 40.192C147.111 39.248 146.863 38.144 146.863 36.88C146.863 35.712 147.111 34.672 147.607 33.76C148.103 32.848 148.799 32.136 149.695 31.624C150.591 31.096 151.607 30.832 152.743 30.832C153.943 30.832 154.983 31.08 155.863 31.576C156.743 32.056 157.431 32.744 157.927 33.64C158.423 34.536 158.671 35.576 158.671 36.76C158.671 36.952 158.663 37.152 158.647 37.36C158.631 37.568 158.607 37.8 158.575 38.056H150.607C150.687 38.488 150.839 38.864 151.063 39.184C151.287 39.488 151.567 39.728 151.903 39.904C152.255 40.064 152.655 40.144 153.103 40.144C153.599 40.144 154.047 40.04 154.447 39.832C154.847 39.624 155.143 39.328 155.335 38.944L158.479 39.808C157.999 40.88 157.279 41.712 156.319 42.304C155.359 42.88 154.239 43.168 152.959 43.168ZM154.855 35.776C154.839 35.376 154.735 35.024 154.543 34.72C154.351 34.416 154.103 34.176 153.799 34C153.495 33.824 153.159 33.744 152.791 33.76C152.423 33.776 152.087 33.872 151.783 34.048C151.495 34.208 151.247 34.44 151.039 34.744C150.831 35.032 150.703 35.376 150.655 35.776H154.855ZM166.365 43.168C165.133 43.168 164.061 42.912 163.149 42.4C162.237 41.872 161.525 41.136 161.013 40.192C160.517 39.248 160.269 38.144 160.269 36.88C160.269 35.712 160.517 34.672 161.013 33.76C161.509 32.848 162.205 32.136 163.101 31.624C163.997 31.096 165.013 30.832 166.149 30.832C167.349 30.832 168.389 31.08 169.269 31.576C170.149 32.056 170.837 32.744 171.333 33.64C171.829 34.536 172.077 35.576 172.077 36.76C172.077 36.952 172.069 37.152 172.053 37.36C172.037 37.568 172.013 37.8 171.981 38.056H164.013C164.093 38.488 164.245 38.864 164.469 39.184C164.693 39.488 164.973 39.728 165.309 39.904C165.661 40.064 166.061 40.144 166.509 40.144C167.005 40.144 167.453 40.04 167.853 39.832C168.253 39.624 168.549 39.328 168.741 38.944L171.885 39.808C171.405 40.88 170.685 41.712 169.725 42.304C168.765 42.88 167.645 43.168 166.365 43.168ZM168.261 35.776C168.245 35.376 168.141 35.024 167.949 34.72C167.757 34.416 167.509 34.176 167.205 34C166.901 33.824 166.565 33.744 166.197 33.76C165.829 33.776 165.493 33.872 165.189 34.048C164.901 34.208 164.653 34.44 164.445 34.744C164.237 35.032 164.109 35.376 164.061 35.776H168.261ZM182.771 32.848L182.291 32.872V25.72H185.795V43H182.627L182.411 41.488C182.091 41.952 181.619 42.352 180.995 42.688C180.371 43.008 179.675 43.168 178.907 43.168C177.899 43.168 176.995 42.92 176.195 42.424C175.411 41.912 174.795 41.192 174.347 40.264C173.899 39.336 173.675 38.248 173.675 37C173.675 35.736 173.899 34.648 174.347 33.736C174.795 32.808 175.411 32.096 176.195 31.6C176.979 31.088 177.883 30.832 178.907 30.832C179.819 30.832 180.603 31.032 181.259 31.432C181.915 31.816 182.419 32.288 182.771 32.848ZM177.443 37C177.443 37.88 177.667 38.592 178.115 39.136C178.563 39.664 179.147 39.928 179.867 39.928C180.299 39.928 180.699 39.816 181.067 39.592C181.435 39.368 181.731 39.04 181.955 38.608C182.179 38.176 182.291 37.64 182.291 37C182.291 36.36 182.179 35.824 181.955 35.392C181.731 34.96 181.435 34.632 181.067 34.408C180.699 34.168 180.299 34.048 179.867 34.048C179.131 34.048 178.539 34.32 178.091 34.864C177.659 35.408 177.443 36.12 177.443 37Z" fill="white"/>
<path d="M21.36 58.8H22.64V63.744H28.64V58.8H29.92V70H28.64V64.864H22.64V70H21.36V58.8ZM35.8733 70.112C35.1266 70.112 34.4599 69.9307 33.8733 69.568C33.2973 69.2053 32.8439 68.7093 32.5133 68.08C32.1826 67.4507 32.0173 66.7307 32.0173 65.92C32.0173 65.1413 32.1826 64.448 32.5133 63.84C32.8439 63.232 33.2973 62.7573 33.8733 62.416C34.4493 62.064 35.1053 61.888 35.8413 61.888C36.5666 61.888 37.2119 62.048 37.7773 62.368C38.3533 62.688 38.8013 63.1307 39.1213 63.696C39.4413 64.2613 39.5906 64.9067 39.5693 65.632C39.5693 65.7493 39.5639 65.872 39.5533 66C39.5426 66.128 39.5319 66.2667 39.5213 66.416H33.3293C33.3506 66.9173 33.4733 67.36 33.6973 67.744C33.9213 68.128 34.2146 68.432 34.5773 68.656C34.9506 68.8693 35.3719 68.976 35.8413 68.976C36.4599 68.976 36.9826 68.8587 37.4093 68.624C37.8466 68.3893 38.1613 68.0533 38.3533 67.616L39.3933 68.032C39.0733 68.704 38.6093 69.2213 38.0013 69.584C37.3933 69.936 36.6839 70.112 35.8733 70.112ZM38.2573 65.376C38.2679 64.9173 38.1666 64.512 37.9533 64.16C37.7506 63.808 37.4626 63.5307 37.0893 63.328C36.7159 63.1253 36.2839 63.024 35.7933 63.024C35.3666 63.024 34.9773 63.1253 34.6253 63.328C34.2733 63.5307 33.9799 63.8133 33.7453 64.176C33.5213 64.528 33.3879 64.928 33.3453 65.376H38.2573ZM46.5525 70L46.4565 68.56C46.2325 69.0507 45.9018 69.4347 45.4645 69.712C45.0272 69.9787 44.4725 70.112 43.8005 70.112C43.2245 70.112 42.7338 70.0213 42.3285 69.84C41.9232 69.6587 41.6085 69.4027 41.3845 69.072C41.1712 68.7307 41.0645 68.3307 41.0645 67.872C41.0645 67.2 41.3152 66.6507 41.8165 66.224C42.3178 65.7867 43.0432 65.52 43.9925 65.424L46.4565 65.152V64.512C46.4565 64.064 46.2912 63.7067 45.9605 63.44C45.6298 63.1627 45.1818 63.024 44.6165 63.024C44.0618 63.024 43.5978 63.152 43.2245 63.408C42.8618 63.664 42.6112 64.032 42.4725 64.512L41.3845 64.128C41.5978 63.424 41.9872 62.8747 42.5525 62.48C43.1285 62.0853 43.8272 61.888 44.6485 61.888C45.5978 61.888 46.3338 62.1333 46.8565 62.624C47.3898 63.104 47.6565 63.76 47.6565 64.592V70H46.5525ZM46.4565 66.176L43.9765 66.464C43.4432 66.528 43.0378 66.6773 42.7605 66.912C42.4832 67.136 42.3445 67.4347 42.3445 67.808C42.3445 68.1813 42.4778 68.48 42.7445 68.704C43.0218 68.928 43.4165 69.04 43.9285 69.04C44.5152 69.04 44.9952 68.9227 45.3685 68.688C45.7418 68.4533 46.0138 68.1387 46.1845 67.744C46.3658 67.3387 46.4565 66.9013 46.4565 66.432V66.176ZM49.9976 58.48H51.1976V70H49.9976V58.48ZM54.1503 62V59.76H55.3503V62H57.4783V63.12H55.3503V67.424C55.3503 67.9147 55.4516 68.272 55.6543 68.496C55.8676 68.72 56.1343 68.8533 56.4543 68.896C56.7849 68.9387 57.1263 68.9387 57.4783 68.896V69.936C57.0623 70.032 56.6516 70.0587 56.2463 70.016C55.8516 69.9733 55.4943 69.856 55.1743 69.664C54.8649 69.4613 54.6143 69.1787 54.4223 68.816C54.2409 68.4533 54.1503 67.9893 54.1503 67.424V63.12H52.9503V62H54.1503ZM59.2633 58.48H60.4633V63.088C60.7193 62.704 61.0659 62.4107 61.5033 62.208C61.9406 61.9947 62.4313 61.888 62.9753 61.888C63.5619 61.888 64.0846 62.0213 64.5433 62.288C65.0019 62.5547 65.3593 62.9493 65.6153 63.472C65.8819 63.9947 66.0153 64.6453 66.0153 65.424V70H64.7353V65.568C64.7353 64.736 64.5593 64.1013 64.2073 63.664C63.8553 63.216 63.3433 62.992 62.6713 62.992C61.9779 62.992 61.4339 63.2267 61.0393 63.696C60.6553 64.1653 60.4633 64.848 60.4633 65.744V70H59.2633V58.48ZM73.7654 62H75.0134L70.4374 73.2H69.2854L70.6454 69.888L67.4134 62H68.7254L71.2854 68.464L73.7654 62ZM86.0369 70L85.9409 68.56C85.7169 69.0507 85.3862 69.4347 84.9489 69.712C84.5115 69.9787 83.9569 70.112 83.2849 70.112C82.7089 70.112 82.2182 70.0213 81.8129 69.84C81.4075 69.6587 81.0929 69.4027 80.8689 69.072C80.6555 68.7307 80.5489 68.3307 80.5489 67.872C80.5489 67.2 80.7995 66.6507 81.3009 66.224C81.8022 65.7867 82.5275 65.52 83.4769 65.424L85.9409 65.152V64.512C85.9409 64.064 85.7755 63.7067 85.4449 63.44C85.1142 63.1627 84.6662 63.024 84.1009 63.024C83.5462 63.024 83.0822 63.152 82.7089 63.408C82.3462 63.664 82.0955 64.032 81.9569 64.512L80.8689 64.128C81.0822 63.424 81.4715 62.8747 82.0369 62.48C82.6129 62.0853 83.3115 61.888 84.1329 61.888C85.0822 61.888 85.8182 62.1333 86.3409 62.624C86.8742 63.104 87.1409 63.76 87.1409 64.592V70H86.0369ZM85.9409 66.176L83.4609 66.464C82.9275 66.528 82.5222 66.6773 82.2449 66.912C81.9675 67.136 81.8289 67.4347 81.8289 67.808C81.8289 68.1813 81.9622 68.48 82.2289 68.704C82.5062 68.928 82.9009 69.04 83.4129 69.04C83.9995 69.04 84.4795 68.9227 84.8529 68.688C85.2262 68.4533 85.4982 68.1387 85.6689 67.744C85.8502 67.3387 85.9409 66.9013 85.9409 66.432V66.176ZM89.482 62H90.586L90.65 63.136C90.906 62.7413 91.242 62.4373 91.658 62.224C92.074 62 92.5593 61.888 93.114 61.888C93.722 61.888 94.2553 62.0213 94.714 62.288C95.1727 62.544 95.53 62.9333 95.786 63.456C96.042 63.968 96.17 64.6133 96.17 65.392V70H94.97V65.536C94.97 64.704 94.7887 64.0747 94.426 63.648C94.074 63.2107 93.562 62.992 92.89 62.992C92.1967 62.992 91.6527 63.2213 91.258 63.68C90.874 64.1387 90.682 64.816 90.682 65.712V70H89.482V62ZM98.7376 62H99.9216V70H98.7376V62ZM99.3456 60.4C99.1003 60.4 98.8976 60.32 98.7376 60.16C98.5776 60 98.4976 59.8027 98.4976 59.568C98.4976 59.3227 98.5776 59.12 98.7376 58.96C98.8976 58.8 99.1003 58.72 99.3456 58.72C99.5696 58.72 99.7616 58.8 99.9216 58.96C100.092 59.12 100.178 59.3227 100.178 59.568C100.178 59.8027 100.092 60 99.9216 60.16C99.7616 60.32 99.5696 60.4 99.3456 60.4ZM102.623 62H103.727L103.807 63.152C104.041 62.768 104.356 62.464 104.751 62.24C105.156 62.0053 105.636 61.888 106.191 61.888C106.756 61.888 107.268 62.0267 107.727 62.304C108.196 62.5707 108.559 62.9707 108.815 63.504C109.06 62.96 109.433 62.5547 109.935 62.288C110.436 62.0213 110.991 61.888 111.599 61.888C112.196 61.888 112.724 62.0213 113.183 62.288C113.641 62.544 113.999 62.9333 114.255 63.456C114.511 63.968 114.639 64.6133 114.639 65.392V70H113.439V65.536C113.439 64.704 113.257 64.0747 112.895 63.648C112.543 63.2107 112.036 62.992 111.375 62.992C110.703 62.992 110.169 63.2267 109.775 63.696C109.38 64.1547 109.183 64.8373 109.183 65.744V70H107.983V65.536C107.983 64.704 107.812 64.0747 107.471 63.648C107.129 63.2107 106.628 62.992 105.967 62.992C105.295 62.992 104.767 63.2267 104.383 63.696C104.009 64.1547 103.823 64.8373 103.823 65.744V70H102.623V62ZM121.974 70L121.878 68.56C121.654 69.0507 121.324 69.4347 120.886 69.712C120.449 69.9787 119.894 70.112 119.222 70.112C118.646 70.112 118.156 70.0213 117.75 69.84C117.345 69.6587 117.03 69.4027 116.806 69.072C116.593 68.7307 116.486 68.3307 116.486 67.872C116.486 67.2 116.737 66.6507 117.238 66.224C117.74 65.7867 118.465 65.52 119.414 65.424L121.878 65.152V64.512C121.878 64.064 121.713 63.7067 121.382 63.44C121.052 63.1627 120.604 63.024 120.038 63.024C119.484 63.024 119.02 63.152 118.646 63.408C118.284 63.664 118.033 64.032 117.894 64.512L116.806 64.128C117.02 63.424 117.409 62.8747 117.974 62.48C118.55 62.0853 119.249 61.888 120.07 61.888C121.02 61.888 121.756 62.1333 122.278 62.624C122.812 63.104 123.078 63.76 123.078 64.592V70H121.974ZM121.878 66.176L119.398 66.464C118.865 66.528 118.46 66.6773 118.182 66.912C117.905 67.136 117.766 67.4347 117.766 67.808C117.766 68.1813 117.9 68.48 118.166 68.704C118.444 68.928 118.838 69.04 119.35 69.04C119.937 69.04 120.417 68.9227 120.79 68.688C121.164 68.4533 121.436 68.1387 121.606 67.744C121.788 67.3387 121.878 66.9013 121.878 66.432V66.176ZM125.42 58.48H126.62V70H125.42V58.48ZM129.716 67.552C129.78 67.872 129.897 68.1387 130.068 68.352C130.239 68.5547 130.457 68.7093 130.724 68.816C131.001 68.9227 131.321 68.976 131.684 68.976C132.249 68.976 132.676 68.8693 132.964 68.656C133.263 68.432 133.412 68.1547 133.412 67.824C133.412 67.5467 133.321 67.3227 133.14 67.152C132.969 66.9813 132.74 66.8427 132.452 66.736C132.164 66.6187 131.844 66.5173 131.492 66.432C131.215 66.368 130.916 66.2933 130.596 66.208C130.276 66.112 129.972 65.984 129.684 65.824C129.396 65.664 129.161 65.456 128.98 65.2C128.799 64.944 128.708 64.608 128.708 64.192C128.708 63.7333 128.831 63.3333 129.076 62.992C129.332 62.64 129.679 62.368 130.116 62.176C130.564 61.984 131.076 61.888 131.652 61.888C132.313 61.888 132.9 62.032 133.412 62.32C133.935 62.608 134.297 63.056 134.5 63.664L133.38 64.048C133.305 63.7707 133.167 63.5573 132.964 63.408C132.772 63.2587 132.553 63.1573 132.308 63.104C132.073 63.0507 131.839 63.024 131.604 63.024C131.124 63.024 130.735 63.12 130.436 63.312C130.148 63.4933 130.004 63.7707 130.004 64.144C130.004 64.3467 130.052 64.5173 130.148 64.656C130.244 64.784 130.377 64.8907 130.548 64.976C130.719 65.0613 130.921 65.136 131.156 65.2C131.391 65.2533 131.647 65.3173 131.924 65.392C132.233 65.4667 132.548 65.5627 132.868 65.68C133.188 65.7867 133.487 65.9307 133.764 66.112C134.041 66.2827 134.265 66.5067 134.436 66.784C134.617 67.0507 134.708 67.3867 134.708 67.792C134.708 68.2613 134.58 68.672 134.324 69.024C134.068 69.3653 133.711 69.632 133.252 69.824C132.804 70.016 132.281 70.112 131.684 70.112C130.863 70.112 130.18 69.9307 129.636 69.568C129.103 69.1947 128.745 68.6507 128.564 67.936L129.716 67.552ZM141.138 62H142.242L142.322 63.152C142.557 62.768 142.872 62.464 143.266 62.24C143.672 62.0053 144.152 61.888 144.706 61.888C145.272 61.888 145.784 62.0267 146.242 62.304C146.712 62.5707 147.074 62.9707 147.33 63.504C147.576 62.96 147.949 62.5547 148.45 62.288C148.952 62.0213 149.506 61.888 150.114 61.888C150.712 61.888 151.24 62.0213 151.698 62.288C152.157 62.544 152.514 62.9333 152.77 63.456C153.026 63.968 153.154 64.6133 153.154 65.392V70H151.954V65.536C151.954 64.704 151.773 64.0747 151.41 63.648C151.058 63.2107 150.552 62.992 149.89 62.992C149.218 62.992 148.685 63.2267 148.29 63.696C147.896 64.1547 147.698 64.8373 147.698 65.744V70H146.498V65.536C146.498 64.704 146.328 64.0747 145.986 63.648C145.645 63.2107 145.144 62.992 144.482 62.992C143.81 62.992 143.282 63.2267 142.898 63.696C142.525 64.1547 142.338 64.8373 142.338 65.744V70H141.138V62ZM158.842 70.112C158.095 70.112 157.429 69.9307 156.842 69.568C156.266 69.2053 155.813 68.7093 155.482 68.08C155.151 67.4507 154.986 66.7307 154.986 65.92C154.986 65.1413 155.151 64.448 155.482 63.84C155.813 63.232 156.266 62.7573 156.842 62.416C157.418 62.064 158.074 61.888 158.81 61.888C159.535 61.888 160.181 62.048 160.746 62.368C161.322 62.688 161.77 63.1307 162.09 63.696C162.41 64.2613 162.559 64.9067 162.538 65.632C162.538 65.7493 162.533 65.872 162.522 66C162.511 66.128 162.501 66.2667 162.49 66.416H156.298C156.319 66.9173 156.442 67.36 156.666 67.744C156.89 68.128 157.183 68.432 157.546 68.656C157.919 68.8693 158.341 68.976 158.81 68.976C159.429 68.976 159.951 68.8587 160.378 68.624C160.815 68.3893 161.13 68.0533 161.322 67.616L162.362 68.032C162.042 68.704 161.578 69.2213 160.97 69.584C160.362 69.936 159.653 70.112 158.842 70.112ZM161.226 65.376C161.237 64.9173 161.135 64.512 160.922 64.16C160.719 63.808 160.431 63.5307 160.058 63.328C159.685 63.1253 159.253 63.024 158.762 63.024C158.335 63.024 157.946 63.1253 157.594 63.328C157.242 63.5307 156.949 63.8133 156.714 64.176C156.49 64.528 156.357 64.928 156.314 65.376H161.226ZM169.521 70L169.425 68.56C169.201 69.0507 168.871 69.4347 168.433 69.712C167.996 69.9787 167.441 70.112 166.769 70.112C166.193 70.112 165.703 70.0213 165.297 69.84C164.892 69.6587 164.577 69.4027 164.353 69.072C164.14 68.7307 164.033 68.3307 164.033 67.872C164.033 67.2 164.284 66.6507 164.785 66.224C165.287 65.7867 166.012 65.52 166.961 65.424L169.425 65.152V64.512C169.425 64.064 169.26 63.7067 168.929 63.44C168.599 63.1627 168.151 63.024 167.585 63.024C167.031 63.024 166.567 63.152 166.193 63.408C165.831 63.664 165.58 64.032 165.441 64.512L164.353 64.128C164.567 63.424 164.956 62.8747 165.521 62.48C166.097 62.0853 166.796 61.888 167.617 61.888C168.567 61.888 169.303 62.1333 169.825 62.624C170.359 63.104 170.625 63.76 170.625 64.592V70H169.521ZM169.425 66.176L166.945 66.464C166.412 66.528 166.007 66.6773 165.729 66.912C165.452 67.136 165.313 67.4347 165.313 67.808C165.313 68.1813 165.447 68.48 165.713 68.704C165.991 68.928 166.385 69.04 166.897 69.04C167.484 69.04 167.964 68.9227 168.337 68.688C168.711 68.4533 168.983 68.1387 169.153 67.744C169.335 67.3387 169.425 66.9013 169.425 66.432V66.176ZM172.966 62H174.07L174.134 63.136C174.39 62.7413 174.726 62.4373 175.142 62.224C175.558 62 176.044 61.888 176.598 61.888C177.206 61.888 177.74 62.0213 178.198 62.288C178.657 62.544 179.014 62.9333 179.27 63.456C179.526 63.968 179.654 64.6133 179.654 65.392V70H178.454V65.536C178.454 64.704 178.273 64.0747 177.91 63.648C177.558 63.2107 177.046 62.992 176.374 62.992C175.681 62.992 175.137 63.2213 174.742 63.68C174.358 64.1387 174.166 64.816 174.166 65.712V70H172.966V62ZM182.638 67.552C182.702 67.872 182.819 68.1387 182.99 68.352C183.161 68.5547 183.379 68.7093 183.646 68.816C183.923 68.9227 184.243 68.976 184.606 68.976C185.171 68.976 185.598 68.8693 185.886 68.656C186.185 68.432 186.334 68.1547 186.334 67.824C186.334 67.5467 186.243 67.3227 186.062 67.152C185.891 66.9813 185.662 66.8427 185.374 66.736C185.086 66.6187 184.766 66.5173 184.414 66.432C184.137 66.368 183.838 66.2933 183.518 66.208C183.198 66.112 182.894 65.984 182.606 65.824C182.318 65.664 182.083 65.456 181.902 65.2C181.721 64.944 181.63 64.608 181.63 64.192C181.63 63.7333 181.753 63.3333 181.998 62.992C182.254 62.64 182.601 62.368 183.038 62.176C183.486 61.984 183.998 61.888 184.574 61.888C185.235 61.888 185.822 62.032 186.334 62.32C186.857 62.608 187.219 63.056 187.422 63.664L186.302 64.048C186.227 63.7707 186.089 63.5573 185.886 63.408C185.694 63.2587 185.475 63.1573 185.23 63.104C184.995 63.0507 184.761 63.024 184.526 63.024C184.046 63.024 183.657 63.12 183.358 63.312C183.07 63.4933 182.926 63.7707 182.926 64.144C182.926 64.3467 182.974 64.5173 183.07 64.656C183.166 64.784 183.299 64.8907 183.47 64.976C183.641 65.0613 183.843 65.136 184.078 65.2C184.313 65.2533 184.569 65.3173 184.846 65.392C185.155 65.4667 185.47 65.5627 185.79 65.68C186.11 65.7867 186.409 65.9307 186.686 66.112C186.963 66.2827 187.187 66.5067 187.358 66.784C187.539 67.0507 187.63 67.3867 187.63 67.792C187.63 68.2613 187.502 68.672 187.246 69.024C186.99 69.3653 186.633 69.632 186.174 69.824C185.726 70.016 185.203 70.112 184.606 70.112C183.785 70.112 183.102 69.9307 182.558 69.568C182.025 69.1947 181.667 68.6507 181.486 67.936L182.638 67.552ZM194.572 62V59.76H195.772V62H197.9V63.12H195.772V67.424C195.772 67.9147 195.873 68.272 196.076 68.496C196.289 68.72 196.556 68.8533 196.876 68.896C197.207 68.9387 197.548 68.9387 197.9 68.896V69.936C197.484 70.032 197.073 70.0587 196.668 70.016C196.273 69.9733 195.916 69.856 195.596 69.664C195.287 69.4613 195.036 69.1787 194.844 68.816C194.663 68.4533 194.572 67.9893 194.572 67.424V63.12H193.372V62H194.572ZM199.685 58.48H200.885V63.088C201.141 62.704 201.488 62.4107 201.925 62.208C202.362 61.9947 202.853 61.888 203.397 61.888C203.984 61.888 204.506 62.0213 204.965 62.288C205.424 62.5547 205.781 62.9493 206.037 63.472C206.304 63.9947 206.437 64.6453 206.437 65.424V70H205.157V65.568C205.157 64.736 204.981 64.1013 204.629 63.664C204.277 63.216 203.765 62.992 203.093 62.992C202.4 62.992 201.856 63.2267 201.461 63.696C201.077 64.1653 200.885 64.848 200.885 65.744V70H199.685V58.48ZM212.123 70.112C211.377 70.112 210.71 69.9307 210.123 69.568C209.547 69.2053 209.094 68.7093 208.763 68.08C208.433 67.4507 208.267 66.7307 208.267 65.92C208.267 65.1413 208.433 64.448 208.763 63.84C209.094 63.232 209.547 62.7573 210.123 62.416C210.699 62.064 211.355 61.888 212.091 61.888C212.817 61.888 213.462 62.048 214.027 62.368C214.603 62.688 215.051 63.1307 215.371 63.696C215.691 64.2613 215.841 64.9067 215.819 65.632C215.819 65.7493 215.814 65.872 215.803 66C215.793 66.128 215.782 66.2667 215.771 66.416H209.579C209.601 66.9173 209.723 67.36 209.947 67.744C210.171 68.128 210.465 68.432 210.827 68.656C211.201 68.8693 211.622 68.976 212.091 68.976C212.71 68.976 213.233 68.8587 213.659 68.624C214.097 68.3893 214.411 68.0533 214.603 67.616L215.643 68.032C215.323 68.704 214.859 69.2213 214.251 69.584C213.643 69.936 212.934 70.112 212.123 70.112ZM214.507 65.376C214.518 64.9173 214.417 64.512 214.203 64.16C214.001 63.808 213.713 63.5307 213.339 63.328C212.966 63.1253 212.534 63.024 212.043 63.024C211.617 63.024 211.227 63.1253 210.875 63.328C210.523 63.5307 210.23 63.8133 209.995 64.176C209.771 64.528 209.638 64.928 209.595 65.376H214.507ZM223.351 63.616C223.586 63.1253 223.954 62.7147 224.455 62.384C224.956 62.0533 225.591 61.888 226.359 61.888C227.095 61.888 227.735 62.0587 228.279 62.4C228.834 62.7413 229.26 63.2213 229.559 63.84C229.868 64.448 230.023 65.168 230.023 66C230.023 66.832 229.868 67.5573 229.559 68.176C229.25 68.7947 228.818 69.2747 228.263 69.616C227.719 69.9467 227.084 70.112 226.359 70.112C225.634 70.112 225.031 69.9573 224.551 69.648C224.071 69.3387 223.708 68.96 223.463 68.512L223.383 70H222.279V58.48H223.479V63.632L223.351 63.616ZM228.727 66C228.727 65.0827 228.487 64.3573 228.007 63.824C227.538 63.28 226.903 63.008 226.103 63.008C225.602 63.008 225.148 63.1307 224.743 63.376C224.348 63.6107 224.039 63.952 223.815 64.4C223.591 64.8373 223.479 65.3707 223.479 66C223.479 66.6293 223.591 67.168 223.815 67.616C224.039 68.064 224.348 68.4053 224.743 68.64C225.148 68.8747 225.602 68.992 226.103 68.992C226.903 68.992 227.538 68.7253 228.007 68.192C228.487 67.648 228.727 66.9173 228.727 66ZM235.342 70.112C234.595 70.112 233.929 69.9307 233.342 69.568C232.766 69.2053 232.313 68.7093 231.982 68.08C231.651 67.4507 231.486 66.7307 231.486 65.92C231.486 65.1413 231.651 64.448 231.982 63.84C232.313 63.232 232.766 62.7573 233.342 62.416C233.918 62.064 234.574 61.888 235.31 61.888C236.035 61.888 236.681 62.048 237.246 62.368C237.822 62.688 238.27 63.1307 238.59 63.696C238.91 64.2613 239.059 64.9067 239.038 65.632C239.038 65.7493 239.033 65.872 239.022 66C239.011 66.128 239.001 66.2667 238.99 66.416H232.798C232.819 66.9173 232.942 67.36 233.166 67.744C233.39 68.128 233.683 68.432 234.046 68.656C234.419 68.8693 234.841 68.976 235.31 68.976C235.929 68.976 236.451 68.8587 236.878 68.624C237.315 68.3893 237.63 68.0533 237.822 67.616L238.862 68.032C238.542 68.704 238.078 69.2213 237.47 69.584C236.862 69.936 236.153 70.112 235.342 70.112ZM237.726 65.376C237.737 64.9173 237.635 64.512 237.422 64.16C237.219 63.808 236.931 63.5307 236.558 63.328C236.185 63.1253 235.753 63.024 235.262 63.024C234.835 63.024 234.446 63.1253 234.094 63.328C233.742 63.5307 233.449 63.8133 233.214 64.176C232.99 64.528 232.857 64.928 232.814 65.376H237.726ZM241.669 67.552C241.733 67.872 241.851 68.1387 242.021 68.352C242.192 68.5547 242.411 68.7093 242.677 68.816C242.955 68.9227 243.275 68.976 243.637 68.976C244.203 68.976 244.629 68.8693 244.917 68.656C245.216 68.432 245.365 68.1547 245.365 67.824C245.365 67.5467 245.275 67.3227 245.093 67.152C244.923 66.9813 244.693 66.8427 244.405 66.736C244.117 66.6187 243.797 66.5173 243.445 66.432C243.168 66.368 242.869 66.2933 242.549 66.208C242.229 66.112 241.925 65.984 241.637 65.824C241.349 65.664 241.115 65.456 240.933 65.2C240.752 64.944 240.661 64.608 240.661 64.192C240.661 63.7333 240.784 63.3333 241.029 62.992C241.285 62.64 241.632 62.368 242.069 62.176C242.517 61.984 243.029 61.888 243.605 61.888C244.267 61.888 244.853 62.032 245.365 62.32C245.888 62.608 246.251 63.056 246.453 63.664L245.333 64.048C245.259 63.7707 245.12 63.5573 244.917 63.408C244.725 63.2587 244.507 63.1573 244.261 63.104C244.027 63.0507 243.792 63.024 243.557 63.024C243.077 63.024 242.688 63.12 242.389 63.312C242.101 63.4933 241.957 63.7707 241.957 64.144C241.957 64.3467 242.005 64.5173 242.101 64.656C242.197 64.784 242.331 64.8907 242.501 64.976C242.672 65.0613 242.875 65.136 243.109 65.2C243.344 65.2533 243.6 65.3173 243.877 65.392C244.187 65.4667 244.501 65.5627 244.821 65.68C245.141 65.7867 245.44 65.9307 245.717 66.112C245.995 66.2827 246.219 66.5067 246.389 66.784C246.571 67.0507 246.661 67.3867 246.661 67.792C246.661 68.2613 246.533 68.672 246.277 69.024C246.021 69.3653 245.664 69.632 245.205 69.824C244.757 70.016 244.235 70.112 243.637 70.112C242.816 70.112 242.133 69.9307 241.589 69.568C241.056 69.1947 240.699 68.6507 240.517 67.936L241.669 67.552ZM249.119 62V59.76H250.319V62H252.447V63.12H250.319V67.424C250.319 67.9147 250.42 68.272 250.623 68.496C250.836 68.72 251.103 68.8533 251.423 68.896C251.754 68.9387 252.095 68.9387 252.447 68.896V69.936C252.031 70.032 251.62 70.0587 251.215 70.016C250.82 69.9733 250.463 69.856 250.143 69.664C249.834 69.4613 249.583 69.1787 249.391 68.816C249.21 68.4533 249.119 67.9893 249.119 67.424V63.12H247.919V62H249.119ZM21.232 86H22.336L22.416 87.152C22.6507 86.768 22.9653 86.464 23.36 86.24C23.7653 86.0053 24.2453 85.888 24.8 85.888C25.3653 85.888 25.8773 86.0267 26.336 86.304C26.8053 86.5707 27.168 86.9707 27.424 87.504C27.6693 86.96 28.0427 86.5547 28.544 86.288C29.0453 86.0213 29.6 85.888 30.208 85.888C30.8053 85.888 31.3333 86.0213 31.792 86.288C32.2507 86.544 32.608 86.9333 32.864 87.456C33.12 87.968 33.248 88.6133 33.248 89.392V94H32.048V89.536C32.048 88.704 31.8667 88.0747 31.504 87.648C31.152 87.2107 30.6453 86.992 29.984 86.992C29.312 86.992 28.7787 87.2267 28.384 87.696C27.9893 88.1547 27.792 88.8373 27.792 89.744V94H26.592V89.536C26.592 88.704 26.4213 88.0747 26.08 87.648C25.7387 87.2107 25.2373 86.992 24.576 86.992C23.904 86.992 23.376 87.2267 22.992 87.696C22.6187 88.1547 22.432 88.8373 22.432 89.744V94H21.232V86ZM38.9358 94.112C38.1891 94.112 37.5224 93.9307 36.9358 93.568C36.3598 93.2053 35.9064 92.7093 35.5758 92.08C35.2451 91.4507 35.0798 90.7307 35.0798 89.92C35.0798 89.1413 35.2451 88.448 35.5758 87.84C35.9064 87.232 36.3598 86.7573 36.9358 86.416C37.5118 86.064 38.1678 85.888 38.9038 85.888C39.6291 85.888 40.2744 86.048 40.8398 86.368C41.4158 86.688 41.8638 87.1307 42.1838 87.696C42.5038 88.2613 42.6531 88.9067 42.6318 89.632C42.6318 89.7493 42.6264 89.872 42.6158 90C42.6051 90.128 42.5944 90.2667 42.5838 90.416H36.3918C36.4131 90.9173 36.5358 91.36 36.7598 91.744C36.9838 92.128 37.2771 92.432 37.6398 92.656C38.0131 92.8693 38.4344 92.976 38.9038 92.976C39.5224 92.976 40.0451 92.8587 40.4718 92.624C40.9091 92.3893 41.2238 92.0533 41.4158 91.616L42.4558 92.032C42.1358 92.704 41.6718 93.2213 41.0638 93.584C40.4558 93.936 39.7464 94.112 38.9358 94.112ZM41.3198 89.376C41.3304 88.9173 41.2291 88.512 41.0158 88.16C40.8131 87.808 40.5251 87.5307 40.1518 87.328C39.7784 87.1253 39.3464 87.024 38.8558 87.024C38.4291 87.024 38.0398 87.1253 37.6878 87.328C37.3358 87.5307 37.0424 87.8133 36.8078 88.176C36.5838 88.528 36.4504 88.928 36.4078 89.376H41.3198ZM49.615 94L49.519 92.56C49.295 93.0507 48.9643 93.4347 48.527 93.712C48.0897 93.9787 47.535 94.112 46.863 94.112C46.287 94.112 45.7963 94.0213 45.391 93.84C44.9857 93.6587 44.671 93.4027 44.447 93.072C44.2337 92.7307 44.127 92.3307 44.127 91.872C44.127 91.2 44.3777 90.6507 44.879 90.224C45.3803 89.7867 46.1057 89.52 47.055 89.424L49.519 89.152V88.512C49.519 88.064 49.3537 87.7067 49.023 87.44C48.6923 87.1627 48.2443 87.024 47.679 87.024C47.1243 87.024 46.6603 87.152 46.287 87.408C45.9243 87.664 45.6737 88.032 45.535 88.512L44.447 88.128C44.6603 87.424 45.0497 86.8747 45.615 86.48C46.191 86.0853 46.8897 85.888 47.711 85.888C48.6603 85.888 49.3963 86.1333 49.919 86.624C50.4523 87.104 50.719 87.76 50.719 88.592V94H49.615ZM49.519 90.176L47.039 90.464C46.5057 90.528 46.1003 90.6773 45.823 90.912C45.5457 91.136 45.407 91.4347 45.407 91.808C45.407 92.1813 45.5403 92.48 45.807 92.704C46.0843 92.928 46.479 93.04 46.991 93.04C47.5777 93.04 48.0577 92.9227 48.431 92.688C48.8043 92.4533 49.0763 92.1387 49.247 91.744C49.4283 91.3387 49.519 90.9013 49.519 90.432V90.176ZM53.5721 86V83.76H54.7721V86H56.9001V87.12H54.7721V91.424C54.7721 91.9147 54.8735 92.272 55.0761 92.496C55.2895 92.72 55.5561 92.8533 55.8761 92.896C56.2068 92.9387 56.5481 92.9387 56.9001 92.896V93.936C56.4841 94.032 56.0735 94.0587 55.6681 94.016C55.2735 93.9733 54.9161 93.856 54.5961 93.664C54.2868 93.4613 54.0361 93.1787 53.8441 92.816C53.6628 92.4533 53.5721 91.9893 53.5721 91.424V87.12H52.3721V86H53.5721Z" fill="white"/>
</svg>
