<svg width="288" height="120" viewBox="0 0 288 120" fill="none" xmlns="http://www.w3.org/2000/svg">
<mask id="path-1-inside-1_10385_10499" fill="white">
<path d="M0 8C0 3.58172 3.58172 0 8 0H280C284.418 0 288 3.58172 288 8V112C288 116.418 284.418 120 280 120H8C3.58173 120 0 116.418 0 112V8Z"/>
</mask>
<path d="M0 8C0 3.58172 3.58172 0 8 0H280C284.418 0 288 3.58172 288 8V112C288 116.418 284.418 120 280 120H8C3.58173 120 0 116.418 0 112V8Z" fill="white" fill-opacity="0.2"/>
<path d="M0 0H288H0ZM288 120H0H288ZM8 120C1.37258 120 -4 114.627 -4 108V12C-4 5.37258 1.37258 0 8 0C5.79086 0 4 3.58172 4 8V112C4 116.418 5.79086 120 8 120ZM288 0V120V0Z" fill="#F26829" mask="url(#path-1-inside-1_10385_10499)"/>
<path d="M28.616 33.784C29.192 33.784 29.664 33.696 30.032 33.52C30.4 33.344 30.672 33.088 30.848 32.752C31.04 32.4 31.136 31.992 31.136 31.528C31.136 30.84 30.928 30.296 30.512 29.896C30.112 29.496 29.48 29.296 28.616 29.296H25.184V33.784H28.616ZM34.904 31.528C34.904 32.184 34.784 32.832 34.544 33.472C34.32 34.096 33.96 34.672 33.464 35.2C32.984 35.712 32.352 36.12 31.568 36.424C30.8 36.728 29.88 36.88 28.808 36.88H25.184V43H21.488V26.2H28.808C30.168 26.2 31.296 26.448 32.192 26.944C33.104 27.424 33.784 28.072 34.232 28.888C34.68 29.688 34.904 30.568 34.904 31.528ZM37.0237 31H40.2157L40.4557 32.584C40.7597 32.168 41.1197 31.824 41.5357 31.552C41.9677 31.264 42.4397 31.072 42.9517 30.976C43.4797 30.88 44.0557 30.888 44.6797 31V34.312C44.2637 34.168 43.8157 34.128 43.3357 34.192C42.8557 34.24 42.3997 34.4 41.9677 34.672C41.5357 34.928 41.1837 35.312 40.9117 35.824C40.6557 36.336 40.5277 36.984 40.5277 37.768V43H37.0237V31ZM46.9016 31H50.4056V43H46.9016V31ZM48.6536 29.776C47.9976 29.776 47.4616 29.584 47.0456 29.2C46.6456 28.8 46.4456 28.32 46.4456 27.76C46.4456 27.184 46.6456 26.704 47.0456 26.32C47.4616 25.92 47.9976 25.72 48.6536 25.72C49.2936 25.72 49.8136 25.92 50.2136 26.32C50.6296 26.704 50.8376 27.184 50.8376 27.76C50.8376 28.32 50.6296 28.8 50.2136 29.2C49.8136 29.584 49.2936 29.776 48.6536 29.776ZM58.9003 43.168C57.7323 43.184 56.7003 42.936 55.8043 42.424C54.9083 41.896 54.2123 41.176 53.7163 40.264C53.2203 39.336 52.9723 38.256 52.9723 37.024C52.9723 35.808 53.2203 34.736 53.7163 33.808C54.2123 32.864 54.9083 32.136 55.8043 31.624C56.7003 31.096 57.7323 30.832 58.9003 30.832C60.2283 30.832 61.3883 31.168 62.3803 31.84C63.3883 32.496 64.0923 33.4 64.4922 34.552L61.1803 35.368C61.0203 34.936 60.7563 34.6 60.3883 34.36C60.0203 34.12 59.5963 34 59.1163 34C58.6363 34 58.2123 34.128 57.8443 34.384C57.4763 34.64 57.1883 35 56.9803 35.464C56.7883 35.912 56.6923 36.432 56.6923 37.024C56.6923 37.92 56.9163 38.64 57.3643 39.184C57.8123 39.728 58.3963 40 59.1163 40C59.5803 40 59.9963 39.888 60.3643 39.664C60.7323 39.424 61.0203 39.088 61.2283 38.656L64.5163 39.496C64.1163 40.6 63.4043 41.488 62.3803 42.16C61.3723 42.816 60.2123 43.152 58.9003 43.168ZM72.2167 43.168C70.9847 43.168 69.9127 42.912 69.0007 42.4C68.0887 41.872 67.3767 41.136 66.8647 40.192C66.3687 39.248 66.1207 38.144 66.1207 36.88C66.1207 35.712 66.3687 34.672 66.8647 33.76C67.3607 32.848 68.0567 32.136 68.9527 31.624C69.8487 31.096 70.8647 30.832 72.0007 30.832C73.2007 30.832 74.2407 31.08 75.1207 31.576C76.0007 32.056 76.6887 32.744 77.1847 33.64C77.6807 34.536 77.9287 35.576 77.9287 36.76C77.9287 36.952 77.9207 37.152 77.9047 37.36C77.8887 37.568 77.8647 37.8 77.8327 38.056H69.8647C69.9447 38.488 70.0967 38.864 70.3207 39.184C70.5447 39.488 70.8247 39.728 71.1607 39.904C71.5127 40.064 71.9127 40.144 72.3607 40.144C72.8567 40.144 73.3047 40.04 73.7047 39.832C74.1047 39.624 74.4007 39.328 74.5927 38.944L77.7367 39.808C77.2567 40.88 76.5367 41.712 75.5767 42.304C74.6167 42.88 73.4967 43.168 72.2167 43.168ZM74.1127 35.776C74.0967 35.376 73.9927 35.024 73.8007 34.72C73.6087 34.416 73.3607 34.176 73.0567 34C72.7527 33.824 72.4167 33.744 72.0487 33.76C71.6807 33.776 71.3447 33.872 71.0407 34.048C70.7527 34.208 70.5047 34.44 70.2967 34.744C70.0887 35.032 69.9607 35.376 69.9127 35.776H74.1127ZM88.6229 32.848L88.1429 32.872V25.72H91.6469V43H88.4789L88.2629 41.488C87.9429 41.952 87.4709 42.352 86.8469 42.688C86.2229 43.008 85.5269 43.168 84.7589 43.168C83.7509 43.168 82.8469 42.92 82.0469 42.424C81.2629 41.912 80.6469 41.192 80.1989 40.264C79.7509 39.336 79.5269 38.248 79.5269 37C79.5269 35.736 79.7509 34.648 80.1989 33.736C80.6469 32.808 81.2629 32.096 82.0469 31.6C82.8309 31.088 83.7349 30.832 84.7589 30.832C85.6709 30.832 86.4549 31.032 87.1109 31.432C87.7669 31.816 88.2709 32.288 88.6229 32.848ZM83.2949 37C83.2949 37.88 83.5189 38.592 83.9669 39.136C84.4149 39.664 84.9989 39.928 85.7189 39.928C86.1509 39.928 86.5509 39.816 86.9189 39.592C87.2869 39.368 87.5829 39.04 87.8069 38.608C88.0309 38.176 88.1429 37.64 88.1429 37C88.1429 36.36 88.0309 35.824 87.8069 35.392C87.5829 34.96 87.2869 34.632 86.9189 34.408C86.5509 34.168 86.1509 34.048 85.7189 34.048C84.9829 34.048 84.3909 34.32 83.9429 34.864C83.5109 35.408 83.2949 36.12 83.2949 37ZM109.312 29.296H108.472L103.672 43H99.8555L105.928 26.2H111.928L117.976 43H114.16L109.312 29.296ZM103.912 36.28H113.704V39.376H103.912V36.28ZM120.077 30.112C120.077 28.976 120.285 28.064 120.701 27.376C121.133 26.688 121.749 26.208 122.549 25.936C123.349 25.664 124.325 25.592 125.477 25.72V28.84C124.837 28.744 124.357 28.832 124.037 29.104C123.733 29.36 123.581 29.784 123.581 30.376V31H125.573V34.096H123.581V43H120.077V34.096H118.709V31H120.077V30.112ZM128.163 30.112C128.163 28.976 128.371 28.064 128.787 27.376C129.219 26.688 129.835 26.208 130.635 25.936C131.435 25.664 132.411 25.592 133.563 25.72V28.84C132.923 28.744 132.443 28.832 132.123 29.104C131.819 29.36 131.667 29.784 131.667 30.376V31H133.659V34.096H131.667V43H128.163V34.096H126.795V31H128.163V30.112ZM140.959 43.168C139.791 43.168 138.743 42.92 137.815 42.424C136.887 41.928 136.159 41.216 135.631 40.288C135.119 39.36 134.863 38.264 134.863 37C134.863 35.736 135.127 34.648 135.655 33.736C136.199 32.808 136.935 32.096 137.863 31.6C138.807 31.088 139.855 30.832 141.007 30.832C142.191 30.832 143.247 31.088 144.175 31.6C145.119 32.096 145.863 32.808 146.407 33.736C146.951 34.648 147.223 35.728 147.223 36.976C147.223 38.256 146.943 39.36 146.383 40.288C145.839 41.216 145.087 41.928 144.127 42.424C143.183 42.92 142.127 43.168 140.959 43.168ZM140.959 40C141.375 40 141.775 39.888 142.159 39.664C142.543 39.44 142.855 39.112 143.095 38.68C143.335 38.232 143.455 37.672 143.455 37C143.455 36.328 143.335 35.776 143.095 35.344C142.855 34.896 142.551 34.56 142.183 34.336C141.815 34.112 141.423 34 141.007 34C140.559 34 140.159 34.112 139.807 34.336C139.455 34.56 139.167 34.896 138.943 35.344C138.735 35.776 138.631 36.328 138.631 37C138.631 37.672 138.735 38.232 138.943 38.68C139.151 39.112 139.431 39.44 139.783 39.664C140.135 39.888 140.527 40 140.959 40ZM149.336 31H152.528L152.768 32.584C153.072 32.168 153.432 31.824 153.848 31.552C154.28 31.264 154.752 31.072 155.264 30.976C155.792 30.88 156.368 30.888 156.992 31V34.312C156.576 34.168 156.128 34.128 155.648 34.192C155.168 34.24 154.712 34.4 154.28 34.672C153.848 34.928 153.496 35.312 153.224 35.824C152.968 36.336 152.84 36.984 152.84 37.768V43H149.336V31ZM167.092 32.848L166.612 32.872V25.72H170.116V43H166.948L166.732 41.488C166.412 41.952 165.94 42.352 165.316 42.688C164.692 43.008 163.996 43.168 163.228 43.168C162.22 43.168 161.316 42.92 160.516 42.424C159.732 41.912 159.116 41.192 158.668 40.264C158.22 39.336 157.996 38.248 157.996 37C157.996 35.736 158.22 34.648 158.668 33.736C159.116 32.808 159.732 32.096 160.516 31.6C161.3 31.088 162.204 30.832 163.228 30.832C164.14 30.832 164.924 31.032 165.58 31.432C166.236 31.816 166.74 32.288 167.092 32.848ZM161.764 37C161.764 37.88 161.988 38.592 162.436 39.136C162.884 39.664 163.468 39.928 164.188 39.928C164.62 39.928 165.02 39.816 165.388 39.592C165.756 39.368 166.052 39.04 166.276 38.608C166.5 38.176 166.612 37.64 166.612 37C166.612 36.36 166.5 35.824 166.276 35.392C166.052 34.96 165.756 34.632 165.388 34.408C165.02 34.168 164.62 34.048 164.188 34.048C163.452 34.048 162.86 34.32 162.412 34.864C161.98 35.408 161.764 36.12 161.764 37ZM179.71 43L179.47 41.512C179.054 42.024 178.606 42.424 178.126 42.712C177.646 43 177.006 43.144 176.206 43.144C175.454 43.144 174.782 43.016 174.19 42.76C173.598 42.488 173.126 42.096 172.774 41.584C172.438 41.072 172.27 40.456 172.27 39.736C172.27 38.744 172.622 37.92 173.326 37.264C174.046 36.608 175.158 36.2 176.662 36.04L179.47 35.728V34.936C179.47 34.664 179.334 34.4 179.062 34.144C178.806 33.872 178.398 33.736 177.838 33.736C177.342 33.736 176.91 33.864 176.542 34.12C176.19 34.376 175.95 34.744 175.822 35.224L172.822 34.144C173.174 33.072 173.79 32.256 174.67 31.696C175.566 31.12 176.67 30.832 177.982 30.832C179.614 30.832 180.854 31.24 181.702 32.056C182.55 32.872 182.974 33.968 182.974 35.344V43H179.71ZM179.47 37.888L177.238 38.152C176.79 38.216 176.446 38.36 176.206 38.584C175.982 38.792 175.87 39.056 175.87 39.376C175.87 39.68 175.998 39.936 176.254 40.144C176.51 40.352 176.862 40.456 177.31 40.456C177.758 40.456 178.142 40.368 178.462 40.192C178.782 40 179.03 39.736 179.206 39.4C179.382 39.048 179.47 38.616 179.47 38.104V37.888ZM188.524 32.848C188.876 32.288 189.372 31.816 190.012 31.432C190.668 31.032 191.46 30.832 192.388 30.832C193.396 30.832 194.292 31.088 195.076 31.6C195.876 32.096 196.5 32.808 196.948 33.736C197.396 34.648 197.62 35.736 197.62 37C197.62 38.248 197.388 39.336 196.924 40.264C196.476 41.192 195.86 41.912 195.076 42.424C194.292 42.92 193.396 43.168 192.388 43.168C191.604 43.168 190.9 43.008 190.276 42.688C189.652 42.352 189.188 41.952 188.884 41.488L188.668 43H185.5V25.72H189.004V32.872L188.524 32.848ZM193.852 37C193.852 36.12 193.628 35.408 193.18 34.864C192.732 34.32 192.148 34.048 191.428 34.048C190.98 34.048 190.572 34.168 190.204 34.408C189.836 34.632 189.54 34.96 189.316 35.392C189.108 35.824 189.004 36.36 189.004 37C189.004 37.64 189.108 38.176 189.316 38.608C189.54 39.04 189.836 39.368 190.204 39.592C190.572 39.816 190.98 39.928 191.428 39.928C192.148 39.928 192.732 39.664 193.18 39.136C193.628 38.592 193.852 37.88 193.852 37ZM199.703 25.72H203.207V43H199.703V25.72ZM214.123 31H217.915L210.811 47.8H207.235L209.611 42.448L204.859 31H208.771L211.435 38.176L214.123 31Z" fill="white"/>
<path d="M25.312 64.304C25.9093 64.304 26.3947 64.2133 26.768 64.032C27.1413 63.8507 27.4133 63.5947 27.584 63.264C27.7653 62.9333 27.856 62.5493 27.856 62.112C27.856 61.4187 27.6533 60.88 27.248 60.496C26.8533 60.112 26.208 59.92 25.312 59.92H22.64V64.304H25.312ZM29.12 62.112C29.12 62.5493 29.0453 62.9707 28.896 63.376C28.7573 63.7707 28.5333 64.1227 28.224 64.432C27.9147 64.7413 27.52 64.9867 27.04 65.168C26.56 65.3387 25.984 65.424 25.312 65.424H22.64V70H21.36V58.8H25.312C26.1867 58.8 26.9013 58.9493 27.456 59.248C28.0213 59.5467 28.4373 59.9467 28.704 60.448C28.9813 60.9493 29.12 61.504 29.12 62.112ZM33.9224 70.112C33.165 70.112 32.4877 69.9467 31.8904 69.616C31.293 69.2853 30.8237 68.816 30.4824 68.208C30.141 67.5893 29.9704 66.8587 29.9704 66.016C29.9704 65.1627 30.141 64.4267 30.4824 63.808C30.8344 63.1893 31.309 62.7147 31.9064 62.384C32.5144 62.0533 33.197 61.888 33.9544 61.888C34.7117 61.888 35.389 62.0533 35.9864 62.384C36.5944 62.7147 37.069 63.1893 37.4104 63.808C37.7624 64.416 37.9384 65.1413 37.9384 65.984C37.9384 66.8373 37.7624 67.5733 37.4104 68.192C37.0584 68.8107 36.5784 69.2853 35.9704 69.616C35.3624 69.9467 34.6797 70.112 33.9224 70.112ZM33.9064 68.976C34.3757 68.976 34.8184 68.8747 35.2344 68.672C35.6504 68.4587 35.9864 68.1333 36.2424 67.696C36.509 67.248 36.6424 66.6827 36.6424 66C36.6424 65.3067 36.5144 64.7413 36.2584 64.304C36.0024 63.8667 35.6664 63.5467 35.2504 63.344C34.845 63.1307 34.4077 63.024 33.9384 63.024C33.469 63.024 33.0317 63.1307 32.6264 63.344C32.221 63.5467 31.8904 63.872 31.6344 64.32C31.389 64.7573 31.2664 65.3173 31.2664 66C31.2664 66.6933 31.389 67.2587 31.6344 67.696C31.8797 68.1333 32.1997 68.4587 32.5944 68.672C32.9997 68.8747 33.437 68.976 33.9064 68.976ZM43.3119 70.112C42.5332 70.112 41.8505 69.9413 41.2639 69.6C40.6772 69.2587 40.2185 68.784 39.8879 68.176C39.5679 67.5573 39.4079 66.8427 39.4079 66.032C39.4079 65.2107 39.5679 64.4907 39.8879 63.872C40.2185 63.2427 40.6772 62.7573 41.2639 62.416C41.8505 62.064 42.5332 61.888 43.3119 61.888C44.1332 61.888 44.8532 62.08 45.4719 62.464C46.0905 62.8373 46.5385 63.36 46.8159 64.032L45.7119 64.416C45.5519 63.9893 45.2585 63.6533 44.8319 63.408C44.4159 63.152 43.9305 63.024 43.3759 63.024C42.8319 63.024 42.3572 63.1467 41.9519 63.392C41.5572 63.6373 41.2479 63.984 41.0239 64.432C40.8105 64.88 40.7039 65.408 40.7039 66.016C40.7039 66.912 40.9439 67.632 41.4239 68.176C41.9039 68.7093 42.5439 68.976 43.3439 68.976C43.8879 68.976 44.3732 68.8533 44.7999 68.608C45.2265 68.3627 45.5412 68.032 45.7439 67.616L46.8319 68C46.5439 68.6613 46.0905 69.1787 45.4719 69.552C44.8532 69.9253 44.1332 70.112 43.3119 70.112ZM48.7945 58.48H50.0105V65.472H50.7465L53.8985 62H55.5945L51.8185 66L55.6105 70H53.8985L50.7465 66.512H50.0105V70H48.7945V58.48ZM60.092 70.112C59.3453 70.112 58.6787 69.9307 58.092 69.568C57.516 69.2053 57.0627 68.7093 56.732 68.08C56.4013 67.4507 56.236 66.7307 56.236 65.92C56.236 65.1413 56.4013 64.448 56.732 63.84C57.0627 63.232 57.516 62.7573 58.092 62.416C58.668 62.064 59.324 61.888 60.06 61.888C60.7853 61.888 61.4307 62.048 61.996 62.368C62.572 62.688 63.02 63.1307 63.34 63.696C63.66 64.2613 63.8093 64.9067 63.788 65.632C63.788 65.7493 63.7827 65.872 63.772 66C63.7613 66.128 63.7507 66.2667 63.74 66.416H57.548C57.5693 66.9173 57.692 67.36 57.916 67.744C58.14 68.128 58.4333 68.432 58.796 68.656C59.1693 68.8693 59.5907 68.976 60.06 68.976C60.6787 68.976 61.2013 68.8587 61.628 68.624C62.0653 68.3893 62.38 68.0533 62.572 67.616L63.612 68.032C63.292 68.704 62.828 69.2213 62.22 69.584C61.612 69.936 60.9027 70.112 60.092 70.112ZM62.476 65.376C62.4867 64.9173 62.3853 64.512 62.172 64.16C61.9693 63.808 61.6813 63.5307 61.308 63.328C60.9347 63.1253 60.5027 63.024 60.012 63.024C59.5853 63.024 59.196 63.1253 58.844 63.328C58.492 63.5307 58.1987 63.8133 57.964 64.176C57.74 64.528 57.6067 64.928 57.564 65.376H62.476ZM65.9628 62V59.76H67.1628V62H69.2908V63.12H67.1628V67.424C67.1628 67.9147 67.2641 68.272 67.4668 68.496C67.6801 68.72 67.9468 68.8533 68.2668 68.896C68.5974 68.9387 68.9388 68.9387 69.2908 68.896V69.936C68.8748 70.032 68.4641 70.0587 68.0588 70.016C67.6641 69.9733 67.3068 69.856 66.9868 69.664C66.6774 69.4613 66.4268 69.1787 66.2348 68.816C66.0534 68.4533 65.9628 67.9893 65.9628 67.424V63.12H64.7628V62H65.9628ZM70.8678 65.008H77.1718V66.096H70.8678V65.008ZM79.8515 61.056C79.8515 60.4693 79.9475 59.9733 80.1395 59.568C80.3315 59.1627 80.6355 58.8693 81.0515 58.688C81.4782 58.496 82.0435 58.4267 82.7475 58.48V59.552C82.1075 59.4987 81.6648 59.6053 81.4195 59.872C81.1742 60.128 81.0515 60.5227 81.0515 61.056V62H82.8115V63.12H81.0515V70H79.8515V63.12H78.7315V62H79.8515V61.056ZM84.607 62H85.711L85.775 63.168C85.9883 62.88 86.2443 62.6347 86.543 62.432C86.8523 62.2293 87.1883 62.0907 87.551 62.016C87.9243 61.9307 88.319 61.9253 88.735 62V63.2C88.287 63.1147 87.8817 63.1147 87.519 63.2C87.167 63.2853 86.863 63.4453 86.607 63.68C86.351 63.9147 86.1537 64.2133 86.015 64.576C85.8763 64.928 85.807 65.3387 85.807 65.808V70H84.607V62ZM90.6126 62H91.7966V70H90.6126V62ZM91.2206 60.4C90.9753 60.4 90.7726 60.32 90.6126 60.16C90.4526 60 90.3726 59.8027 90.3726 59.568C90.3726 59.3227 90.4526 59.12 90.6126 58.96C90.7726 58.8 90.9753 58.72 91.2206 58.72C91.4446 58.72 91.6366 58.8 91.7966 58.96C91.9673 59.12 92.0526 59.3227 92.0526 59.568C92.0526 59.8027 91.9673 60 91.7966 60.16C91.6366 60.32 91.4446 60.4 91.2206 60.4ZM97.8576 70.112C97.111 70.112 96.4443 69.9307 95.8576 69.568C95.2816 69.2053 94.8283 68.7093 94.4976 68.08C94.167 67.4507 94.0016 66.7307 94.0016 65.92C94.0016 65.1413 94.167 64.448 94.4976 63.84C94.8283 63.232 95.2816 62.7573 95.8576 62.416C96.4336 62.064 97.0896 61.888 97.8256 61.888C98.551 61.888 99.1963 62.048 99.7616 62.368C100.338 62.688 100.786 63.1307 101.106 63.696C101.426 64.2613 101.575 64.9067 101.554 65.632C101.554 65.7493 101.548 65.872 101.538 66C101.527 66.128 101.516 66.2667 101.506 66.416H95.3136C95.335 66.9173 95.4576 67.36 95.6816 67.744C95.9056 68.128 96.199 68.432 96.5616 68.656C96.935 68.8693 97.3563 68.976 97.8256 68.976C98.4443 68.976 98.967 68.8587 99.3936 68.624C99.831 68.3893 100.146 68.0533 100.338 67.616L101.378 68.032C101.058 68.704 100.594 69.2213 99.9856 69.584C99.3776 69.936 98.6683 70.112 97.8576 70.112ZM100.242 65.376C100.252 64.9173 100.151 64.512 99.9376 64.16C99.735 63.808 99.447 63.5307 99.0736 63.328C98.7003 63.1253 98.2683 63.024 97.7776 63.024C97.351 63.024 96.9616 63.1253 96.6096 63.328C96.2576 63.5307 95.9643 63.8133 95.7296 64.176C95.5056 64.528 95.3723 64.928 95.3296 65.376H100.242ZM103.529 62H104.633L104.697 63.136C104.953 62.7413 105.289 62.4373 105.705 62.224C106.121 62 106.606 61.888 107.161 61.888C107.769 61.888 108.302 62.0213 108.761 62.288C109.22 62.544 109.577 62.9333 109.833 63.456C110.089 63.968 110.217 64.6133 110.217 65.392V70H109.017V65.536C109.017 64.704 108.836 64.0747 108.473 63.648C108.121 63.2107 107.609 62.992 106.937 62.992C106.244 62.992 105.7 63.2213 105.305 63.68C104.921 64.1387 104.729 64.816 104.729 65.712V70H103.529V62ZM118.721 63.616L118.593 63.632V58.48H119.793V70H118.689L118.609 68.512C118.363 68.96 117.995 69.3387 117.505 69.648C117.025 69.9573 116.427 70.112 115.713 70.112C114.977 70.112 114.331 69.9467 113.777 69.616C113.233 69.2747 112.806 68.7947 112.497 68.176C112.198 67.5573 112.049 66.832 112.049 66C112.049 65.168 112.198 64.448 112.497 63.84C112.806 63.2213 113.233 62.7413 113.777 62.4C114.331 62.0587 114.977 61.888 115.713 61.888C116.47 61.888 117.099 62.0533 117.601 62.384C118.102 62.7147 118.475 63.1253 118.721 63.616ZM113.345 66C113.345 66.9173 113.579 67.648 114.049 68.192C114.518 68.7253 115.158 68.992 115.969 68.992C116.47 68.992 116.918 68.8747 117.313 68.64C117.707 68.4053 118.017 68.064 118.241 67.616C118.475 67.168 118.593 66.6293 118.593 66C118.593 65.3707 118.475 64.8373 118.241 64.4C118.017 63.952 117.707 63.6107 117.313 63.376C116.918 63.1307 116.47 63.008 115.969 63.008C115.169 63.008 114.529 63.28 114.049 63.824C113.579 64.3573 113.345 65.0827 113.345 66ZM122.248 58.48H123.448V70H122.248V58.48ZM131.312 62H132.56L127.984 73.2H126.832L128.192 69.888L124.96 62H126.272L128.832 68.464L131.312 62ZM141.36 70H140.272L137.76 62H138.976L140.816 68.512L142.88 62H143.968L146 68.496L147.824 62H149.008L146.512 70H145.408L143.392 63.792L141.36 70ZM150.878 62H152.062V70H150.878V62ZM151.486 60.4C151.241 60.4 151.038 60.32 150.878 60.16C150.718 60 150.638 59.8027 150.638 59.568C150.638 59.3227 150.718 59.12 150.878 58.96C151.038 58.8 151.241 58.72 151.486 58.72C151.71 58.72 151.902 58.8 152.062 58.96C152.233 59.12 152.318 59.3227 152.318 59.568C152.318 59.8027 152.233 60 152.062 60.16C151.902 60.32 151.71 60.4 151.486 60.4ZM155.275 62V59.76H156.475V62H158.603V63.12H156.475V67.424C156.475 67.9147 156.577 68.272 156.779 68.496C156.993 68.72 157.259 68.8533 157.579 68.896C157.91 68.9387 158.251 68.9387 158.603 68.896V69.936C158.187 70.032 157.777 70.0587 157.371 70.016C156.977 69.9733 156.619 69.856 156.299 69.664C155.99 69.4613 155.739 69.1787 155.547 68.816C155.366 68.4533 155.275 67.9893 155.275 67.424V63.12H154.075V62H155.275ZM160.388 58.48H161.588V63.088C161.844 62.704 162.191 62.4107 162.628 62.208C163.066 61.9947 163.556 61.888 164.1 61.888C164.687 61.888 165.21 62.0213 165.668 62.288C166.127 62.5547 166.484 62.9493 166.74 63.472C167.007 63.9947 167.14 64.6453 167.14 65.424V70H165.86V65.568C165.86 64.736 165.684 64.1013 165.332 63.664C164.98 63.216 164.468 62.992 163.796 62.992C163.103 62.992 162.559 63.2267 162.164 63.696C161.78 64.1653 161.588 64.848 161.588 65.744V70H160.388V58.48ZM172.922 70.112C172.165 70.112 171.488 69.9467 170.89 69.616C170.293 69.2853 169.824 68.816 169.482 68.208C169.141 67.5893 168.97 66.8587 168.97 66.016C168.97 65.1627 169.141 64.4267 169.482 63.808C169.834 63.1893 170.309 62.7147 170.906 62.384C171.514 62.0533 172.197 61.888 172.954 61.888C173.712 61.888 174.389 62.0533 174.986 62.384C175.594 62.7147 176.069 63.1893 176.41 63.808C176.762 64.416 176.938 65.1413 176.938 65.984C176.938 66.8373 176.762 67.5733 176.41 68.192C176.058 68.8107 175.578 69.2853 174.97 69.616C174.362 69.9467 173.68 70.112 172.922 70.112ZM172.906 68.976C173.376 68.976 173.818 68.8747 174.234 68.672C174.65 68.4587 174.986 68.1333 175.242 67.696C175.509 67.248 175.642 66.6827 175.642 66C175.642 65.3067 175.514 64.7413 175.258 64.304C175.002 63.8667 174.666 63.5467 174.25 63.344C173.845 63.1307 173.408 63.024 172.938 63.024C172.469 63.024 172.032 63.1307 171.626 63.344C171.221 63.5467 170.89 63.872 170.634 64.32C170.389 64.7573 170.266 65.3173 170.266 66C170.266 66.6933 170.389 67.2587 170.634 67.696C170.88 68.1333 171.2 68.4587 171.594 68.672C172 68.8747 172.437 68.976 172.906 68.976ZM185.448 70H184.36L184.28 68.848C184.035 69.2533 183.704 69.568 183.288 69.792C182.872 70.0053 182.387 70.112 181.832 70.112C181.213 70.112 180.675 69.984 180.216 69.728C179.757 69.472 179.4 69.088 179.144 68.576C178.899 68.064 178.776 67.4187 178.776 66.64V62H179.96V66.512C179.96 67.3333 180.136 67.9573 180.488 68.384C180.851 68.8 181.368 69.008 182.04 69.008C182.723 69.008 183.261 68.7893 183.656 68.352C184.061 67.904 184.264 67.232 184.264 66.336V62H185.448V70ZM188.4 62V59.76H189.6V62H191.728V63.12H189.6V67.424C189.6 67.9147 189.702 68.272 189.904 68.496C190.118 68.72 190.384 68.8533 190.704 68.896C191.035 68.9387 191.376 68.9387 191.728 68.896V69.936C191.312 70.032 190.902 70.0587 190.496 70.016C190.102 69.9733 189.744 69.856 189.424 69.664C189.115 69.4613 188.864 69.1787 188.672 68.816C188.491 68.4533 188.4 67.9893 188.4 67.424V63.12H187.2V62H188.4ZM203.006 70L202.91 68.56C202.686 69.0507 202.355 69.4347 201.918 69.712C201.48 69.9787 200.926 70.112 200.254 70.112C199.678 70.112 199.187 70.0213 198.782 69.84C198.376 69.6587 198.062 69.4027 197.838 69.072C197.624 68.7307 197.518 68.3307 197.518 67.872C197.518 67.2 197.768 66.6507 198.27 66.224C198.771 65.7867 199.496 65.52 200.446 65.424L202.91 65.152V64.512C202.91 64.064 202.744 63.7067 202.414 63.44C202.083 63.1627 201.635 63.024 201.07 63.024C200.515 63.024 200.051 63.152 199.678 63.408C199.315 63.664 199.064 64.032 198.926 64.512L197.838 64.128C198.051 63.424 198.44 62.8747 199.006 62.48C199.582 62.0853 200.28 61.888 201.102 61.888C202.051 61.888 202.787 62.1333 203.31 62.624C203.843 63.104 204.11 63.76 204.11 64.592V70H203.006ZM202.91 66.176L200.43 66.464C199.896 66.528 199.491 66.6773 199.214 66.912C198.936 67.136 198.798 67.4347 198.798 67.808C198.798 68.1813 198.931 68.48 199.198 68.704C199.475 68.928 199.87 69.04 200.382 69.04C200.968 69.04 201.448 68.9227 201.822 68.688C202.195 68.4533 202.467 68.1387 202.638 67.744C202.819 67.3387 202.91 66.9013 202.91 66.432V66.176ZM206.451 62H207.555L207.619 63.136C207.875 62.7413 208.211 62.4373 208.627 62.224C209.043 62 209.528 61.888 210.083 61.888C210.691 61.888 211.224 62.0213 211.683 62.288C212.141 62.544 212.499 62.9333 212.755 63.456C213.011 63.968 213.139 64.6133 213.139 65.392V70H211.939V65.536C211.939 64.704 211.757 64.0747 211.395 63.648C211.043 63.2107 210.531 62.992 209.859 62.992C209.165 62.992 208.621 63.2213 208.227 63.68C207.843 64.1387 207.651 64.816 207.651 65.712V70H206.451V62ZM220.703 62H221.951L217.375 73.2H216.223L217.583 69.888L214.351 62H215.663L218.223 68.464L220.703 62ZM24.64 94.112C23.8613 94.112 23.1787 93.9413 22.592 93.6C22.0053 93.2587 21.5467 92.784 21.216 92.176C20.896 91.5573 20.736 90.8427 20.736 90.032C20.736 89.2107 20.896 88.4907 21.216 87.872C21.5467 87.2427 22.0053 86.7573 22.592 86.416C23.1787 86.064 23.8613 85.888 24.64 85.888C25.4613 85.888 26.1813 86.08 26.8 86.464C27.4187 86.8373 27.8667 87.36 28.144 88.032L27.04 88.416C26.88 87.9893 26.5867 87.6533 26.16 87.408C25.744 87.152 25.2587 87.024 24.704 87.024C24.16 87.024 23.6853 87.1467 23.28 87.392C22.8853 87.6373 22.576 87.984 22.352 88.432C22.1387 88.88 22.032 89.408 22.032 90.016C22.032 90.912 22.272 91.632 22.752 92.176C23.232 92.7093 23.872 92.976 24.672 92.976C25.216 92.976 25.7013 92.8533 26.128 92.608C26.5547 92.3627 26.8693 92.032 27.072 91.616L28.16 92C27.872 92.6613 27.4187 93.1787 26.8 93.552C26.1813 93.9253 25.4613 94.112 24.64 94.112ZM33.5786 94.112C32.8213 94.112 32.144 93.9467 31.5466 93.616C30.9493 93.2853 30.48 92.816 30.1386 92.208C29.7973 91.5893 29.6266 90.8587 29.6266 90.016C29.6266 89.1627 29.7973 88.4267 30.1386 87.808C30.4906 87.1893 30.9653 86.7147 31.5626 86.384C32.1706 86.0533 32.8533 85.888 33.6106 85.888C34.368 85.888 35.0453 86.0533 35.6426 86.384C36.2506 86.7147 36.7253 87.1893 37.0666 87.808C37.4186 88.416 37.5946 89.1413 37.5946 89.984C37.5946 90.8373 37.4186 91.5733 37.0666 92.192C36.7146 92.8107 36.2346 93.2853 35.6266 93.616C35.0186 93.9467 34.336 94.112 33.5786 94.112ZM33.5626 92.976C34.032 92.976 34.4746 92.8747 34.8906 92.672C35.3066 92.4587 35.6426 92.1333 35.8986 91.696C36.1653 91.248 36.2986 90.6827 36.2986 90C36.2986 89.3067 36.1706 88.7413 35.9146 88.304C35.6586 87.8667 35.3226 87.5467 34.9066 87.344C34.5013 87.1307 34.064 87.024 33.5946 87.024C33.1253 87.024 32.688 87.1307 32.2826 87.344C31.8773 87.5467 31.5466 87.872 31.2906 88.32C31.0453 88.7573 30.9226 89.3173 30.9226 90C30.9226 90.6933 31.0453 91.2587 31.2906 91.696C31.536 92.1333 31.856 92.4587 32.2506 92.672C32.656 92.8747 33.0933 92.976 33.5626 92.976ZM39.5601 86H40.6641L40.7441 87.152C40.9788 86.768 41.2935 86.464 41.6881 86.24C42.0935 86.0053 42.5735 85.888 43.1281 85.888C43.6935 85.888 44.2055 86.0267 44.6641 86.304C45.1335 86.5707 45.4961 86.9707 45.7521 87.504C45.9975 86.96 46.3708 86.5547 46.8721 86.288C47.3735 86.0213 47.9281 85.888 48.5361 85.888C49.1335 85.888 49.6615 86.0213 50.1201 86.288C50.5788 86.544 50.9361 86.9333 51.1921 87.456C51.4481 87.968 51.5761 88.6133 51.5761 89.392V94H50.3761V89.536C50.3761 88.704 50.1948 88.0747 49.8321 87.648C49.4801 87.2107 48.9735 86.992 48.3121 86.992C47.6401 86.992 47.1068 87.2267 46.7121 87.696C46.3175 88.1547 46.1201 88.8373 46.1201 89.744V94H44.9201V89.536C44.9201 88.704 44.7495 88.0747 44.4081 87.648C44.0668 87.2107 43.5655 86.992 42.9041 86.992C42.2321 86.992 41.7041 87.2267 41.3201 87.696C40.9468 88.1547 40.7601 88.8373 40.7601 89.744V94H39.5601V86ZM54.9759 92.384L55.1039 92.368V97.2H53.9039V86H55.0079L55.0879 87.488C55.3332 87.04 55.6959 86.6613 56.1759 86.352C56.6559 86.0427 57.2585 85.888 57.9839 85.888C58.6772 85.888 59.3012 86.0587 59.8559 86.4C60.4105 86.7307 60.8479 87.2053 61.1679 87.824C61.4879 88.432 61.6479 89.1573 61.6479 90C61.6479 90.832 61.4932 91.5573 61.1839 92.176C60.8852 92.784 60.4585 93.2587 59.9039 93.6C59.3599 93.9413 58.7199 94.112 57.9839 94.112C57.2159 94.112 56.5812 93.9467 56.0799 93.616C55.5785 93.2853 55.2105 92.8747 54.9759 92.384ZM60.3519 90C60.3519 89.0827 60.1119 88.3573 59.6319 87.824C59.1625 87.28 58.5279 87.008 57.7279 87.008C57.2265 87.008 56.7732 87.1253 56.3679 87.36C55.9732 87.5947 55.6639 87.936 55.4399 88.384C55.2159 88.832 55.1039 89.3707 55.1039 90C55.1039 90.6187 55.2159 91.152 55.4399 91.6C55.6639 92.048 55.9732 92.3947 56.3679 92.64C56.7732 92.8747 57.2265 92.992 57.7279 92.992C58.5279 92.992 59.1625 92.7253 59.6319 92.192C60.1119 91.648 60.3519 90.9173 60.3519 90ZM63.607 86H64.711L64.775 87.168C64.9883 86.88 65.2443 86.6347 65.543 86.432C65.8523 86.2293 66.1883 86.0907 66.551 86.016C66.9243 85.9307 67.319 85.9253 67.735 86V87.2C67.287 87.1147 66.8817 87.1147 66.519 87.2C66.167 87.2853 65.863 87.4453 65.607 87.68C65.351 87.9147 65.1537 88.2133 65.015 88.576C64.8763 88.928 64.807 89.3387 64.807 89.808V94H63.607V86ZM72.6724 94.112C71.915 94.112 71.2377 93.9467 70.6404 93.616C70.043 93.2853 69.5737 92.816 69.2324 92.208C68.891 91.5893 68.7204 90.8587 68.7204 90.016C68.7204 89.1627 68.891 88.4267 69.2324 87.808C69.5844 87.1893 70.059 86.7147 70.6564 86.384C71.2644 86.0533 71.947 85.888 72.7044 85.888C73.4617 85.888 74.139 86.0533 74.7364 86.384C75.3444 86.7147 75.819 87.1893 76.1604 87.808C76.5124 88.416 76.6884 89.1413 76.6884 89.984C76.6884 90.8373 76.5124 91.5733 76.1604 92.192C75.8084 92.8107 75.3284 93.2853 74.7204 93.616C74.1124 93.9467 73.4297 94.112 72.6724 94.112ZM72.6564 92.976C73.1257 92.976 73.5684 92.8747 73.9844 92.672C74.4004 92.4587 74.7364 92.1333 74.9924 91.696C75.259 91.248 75.3924 90.6827 75.3924 90C75.3924 89.3067 75.2644 88.7413 75.0084 88.304C74.7524 87.8667 74.4164 87.5467 74.0004 87.344C73.595 87.1307 73.1577 87.024 72.6884 87.024C72.219 87.024 71.7817 87.1307 71.3764 87.344C70.971 87.5467 70.6404 87.872 70.3844 88.32C70.139 88.7573 70.0164 89.3173 70.0164 90C70.0164 90.6933 70.139 91.2587 70.3844 91.696C70.6297 92.1333 70.9497 92.4587 71.3444 92.672C71.7497 92.8747 72.187 92.976 72.6564 92.976ZM78.6539 86H79.7579L79.8379 87.152C80.0725 86.768 80.3872 86.464 80.7819 86.24C81.1872 86.0053 81.6672 85.888 82.2219 85.888C82.7872 85.888 83.2992 86.0267 83.7579 86.304C84.2272 86.5707 84.5899 86.9707 84.8459 87.504C85.0912 86.96 85.4645 86.5547 85.9659 86.288C86.4672 86.0213 87.0219 85.888 87.6299 85.888C88.2272 85.888 88.7552 86.0213 89.2139 86.288C89.6725 86.544 90.0299 86.9333 90.2859 87.456C90.5419 87.968 90.6699 88.6133 90.6699 89.392V94H89.4699V89.536C89.4699 88.704 89.2885 88.0747 88.9259 87.648C88.5739 87.2107 88.0672 86.992 87.4059 86.992C86.7339 86.992 86.2005 87.2267 85.8059 87.696C85.4112 88.1547 85.2139 88.8373 85.2139 89.744V94H84.0139V89.536C84.0139 88.704 83.8432 88.0747 83.5019 87.648C83.1605 87.2107 82.6592 86.992 81.9979 86.992C81.3259 86.992 80.7979 87.2267 80.4139 87.696C80.0405 88.1547 79.8539 88.8373 79.8539 89.744V94H78.6539V86ZM93.2376 86H94.4216V94H93.2376V86ZM93.8456 84.4C93.6003 84.4 93.3976 84.32 93.2376 84.16C93.0776 84 92.9976 83.8027 92.9976 83.568C92.9976 83.3227 93.0776 83.12 93.2376 82.96C93.3976 82.8 93.6003 82.72 93.8456 82.72C94.0696 82.72 94.2616 82.8 94.4216 82.96C94.5923 83.12 94.6776 83.3227 94.6776 83.568C94.6776 83.8027 94.5923 84 94.4216 84.16C94.2616 84.32 94.0696 84.4 93.8456 84.4ZM97.7786 91.552C97.8426 91.872 97.96 92.1387 98.1306 92.352C98.3013 92.5547 98.52 92.7093 98.7866 92.816C99.064 92.9227 99.384 92.976 99.7466 92.976C100.312 92.976 100.739 92.8693 101.027 92.656C101.325 92.432 101.475 92.1547 101.475 91.824C101.475 91.5467 101.384 91.3227 101.203 91.152C101.032 90.9813 100.803 90.8427 100.515 90.736C100.227 90.6187 99.9066 90.5173 99.5546 90.432C99.2773 90.368 98.9786 90.2933 98.6586 90.208C98.3386 90.112 98.0346 89.984 97.7466 89.824C97.4586 89.664 97.224 89.456 97.0426 89.2C96.8613 88.944 96.7706 88.608 96.7706 88.192C96.7706 87.7333 96.8933 87.3333 97.1386 86.992C97.3946 86.64 97.7413 86.368 98.1786 86.176C98.6266 85.984 99.1386 85.888 99.7146 85.888C100.376 85.888 100.963 86.032 101.475 86.32C101.997 86.608 102.36 87.056 102.563 87.664L101.443 88.048C101.368 87.7707 101.229 87.5573 101.027 87.408C100.835 87.2587 100.616 87.1573 100.371 87.104C100.136 87.0507 99.9013 87.024 99.6666 87.024C99.1866 87.024 98.7973 87.12 98.4986 87.312C98.2106 87.4933 98.0666 87.7707 98.0666 88.144C98.0666 88.3467 98.1146 88.5173 98.2106 88.656C98.3066 88.784 98.44 88.8907 98.6106 88.976C98.7813 89.0613 98.984 89.136 99.2186 89.2C99.4533 89.2533 99.7093 89.3173 99.9866 89.392C100.296 89.4667 100.611 89.5627 100.931 89.68C101.251 89.7867 101.549 89.9307 101.827 90.112C102.104 90.2827 102.328 90.5067 102.499 90.784C102.68 91.0507 102.771 91.3867 102.771 91.792C102.771 92.2613 102.643 92.672 102.387 93.024C102.131 93.3653 101.773 93.632 101.315 93.824C100.867 94.016 100.344 94.112 99.7466 94.112C98.9253 94.112 98.2426 93.9307 97.6986 93.568C97.1653 93.1947 96.808 92.6507 96.6266 91.936L97.7786 91.552ZM108.076 94.112C107.33 94.112 106.663 93.9307 106.076 93.568C105.5 93.2053 105.047 92.7093 104.716 92.08C104.386 91.4507 104.22 90.7307 104.22 89.92C104.22 89.1413 104.386 88.448 104.716 87.84C105.047 87.232 105.5 86.7573 106.076 86.416C106.652 86.064 107.308 85.888 108.044 85.888C108.77 85.888 109.415 86.048 109.98 86.368C110.556 86.688 111.004 87.1307 111.324 87.696C111.644 88.2613 111.794 88.9067 111.772 89.632C111.772 89.7493 111.767 89.872 111.756 90C111.746 90.128 111.735 90.2667 111.724 90.416H105.532C105.554 90.9173 105.676 91.36 105.9 91.744C106.124 92.128 106.418 92.432 106.78 92.656C107.154 92.8693 107.575 92.976 108.044 92.976C108.663 92.976 109.186 92.8587 109.612 92.624C110.05 92.3893 110.364 92.0533 110.556 91.616L111.596 92.032C111.276 92.704 110.812 93.2213 110.204 93.584C109.596 93.936 108.887 94.112 108.076 94.112ZM110.46 89.376C110.471 88.9173 110.37 88.512 110.156 88.16C109.954 87.808 109.666 87.5307 109.292 87.328C108.919 87.1253 108.487 87.024 107.996 87.024C107.57 87.024 107.18 87.1253 106.828 87.328C106.476 87.5307 106.183 87.8133 105.948 88.176C105.724 88.528 105.591 88.928 105.548 89.376H110.46ZM114.404 91.552C114.468 91.872 114.585 92.1387 114.756 92.352C114.926 92.5547 115.145 92.7093 115.412 92.816C115.689 92.9227 116.009 92.976 116.372 92.976C116.937 92.976 117.364 92.8693 117.652 92.656C117.95 92.432 118.1 92.1547 118.1 91.824C118.1 91.5467 118.009 91.3227 117.828 91.152C117.657 90.9813 117.428 90.8427 117.14 90.736C116.852 90.6187 116.532 90.5173 116.18 90.432C115.902 90.368 115.604 90.2933 115.284 90.208C114.964 90.112 114.66 89.984 114.372 89.824C114.084 89.664 113.849 89.456 113.668 89.2C113.486 88.944 113.396 88.608 113.396 88.192C113.396 87.7333 113.518 87.3333 113.764 86.992C114.02 86.64 114.366 86.368 114.804 86.176C115.252 85.984 115.764 85.888 116.34 85.888C117.001 85.888 117.588 86.032 118.1 86.32C118.622 86.608 118.985 87.056 119.188 87.664L118.068 88.048C117.993 87.7707 117.854 87.5573 117.652 87.408C117.46 87.2587 117.241 87.1573 116.996 87.104C116.761 87.0507 116.526 87.024 116.292 87.024C115.812 87.024 115.422 87.12 115.124 87.312C114.836 87.4933 114.692 87.7707 114.692 88.144C114.692 88.3467 114.74 88.5173 114.836 88.656C114.932 88.784 115.065 88.8907 115.236 88.976C115.406 89.0613 115.609 89.136 115.844 89.2C116.078 89.2533 116.334 89.3173 116.612 89.392C116.921 89.4667 117.236 89.5627 117.556 89.68C117.876 89.7867 118.174 89.9307 118.452 90.112C118.729 90.2827 118.953 90.5067 119.124 90.784C119.305 91.0507 119.396 91.3867 119.396 91.792C119.396 92.2613 119.268 92.672 119.012 93.024C118.756 93.3653 118.398 93.632 117.94 93.824C117.492 94.016 116.969 94.112 116.372 94.112C115.55 94.112 114.868 93.9307 114.324 93.568C113.79 93.1947 113.433 92.6507 113.252 91.936L114.404 91.552Z" fill="white"/>
</svg>
