<svg width="288" height="120" viewBox="0 0 288 120" fill="none" xmlns="http://www.w3.org/2000/svg">
<mask id="path-1-inside-1_10385_10478" fill="white">
<path d="M0 8C0 3.58172 3.58172 0 8 0H280C284.418 0 288 3.58172 288 8V112C288 116.418 284.418 120 280 120H8C3.58173 120 0 116.418 0 112V8Z"/>
</mask>
<path d="M0 8C0 3.58172 3.58172 0 8 0H280C284.418 0 288 3.58172 288 8V112C288 116.418 284.418 120 280 120H8C3.58173 120 0 116.418 0 112V8Z" fill="white" fill-opacity="0.2"/>
<path d="M0 0H288H0ZM288 120H0H288ZM8 120C1.37258 120 -4 114.627 -4 108V12C-4 5.37258 1.37258 0 8 0C5.79086 0 4 3.58172 4 8V112C4 116.418 5.79086 120 8 120ZM288 0V120V0Z" fill="#F26829" mask="url(#path-1-inside-1_10385_10478)"/>
<path d="M21.488 26.2H33.68V29.296H25.184V33.016H31.544V35.944H25.184V43H21.488V26.2ZM35.6643 31H38.8563L39.0963 32.584C39.4003 32.168 39.7603 31.824 40.1763 31.552C40.6083 31.264 41.0803 31.072 41.5923 30.976C42.1203 30.88 42.6963 30.888 43.3203 31V34.312C42.9043 34.168 42.4563 34.128 41.9763 34.192C41.4963 34.24 41.0403 34.4 40.6083 34.672C40.1763 34.928 39.8243 35.312 39.5523 35.824C39.2963 36.336 39.1683 36.984 39.1683 37.768V43H35.6643V31ZM50.4198 43.168C49.1878 43.168 48.1158 42.912 47.2038 42.4C46.2918 41.872 45.5798 41.136 45.0678 40.192C44.5718 39.248 44.3238 38.144 44.3238 36.88C44.3238 35.712 44.5718 34.672 45.0678 33.76C45.5638 32.848 46.2598 32.136 47.1558 31.624C48.0518 31.096 49.0678 30.832 50.2038 30.832C51.4038 30.832 52.4438 31.08 53.3238 31.576C54.2038 32.056 54.8918 32.744 55.3878 33.64C55.8838 34.536 56.1318 35.576 56.1318 36.76C56.1318 36.952 56.1238 37.152 56.1078 37.36C56.0918 37.568 56.0678 37.8 56.0358 38.056H48.0678C48.1478 38.488 48.2998 38.864 48.5238 39.184C48.7478 39.488 49.0278 39.728 49.3638 39.904C49.7158 40.064 50.1158 40.144 50.5638 40.144C51.0598 40.144 51.5078 40.04 51.9078 39.832C52.3078 39.624 52.6038 39.328 52.7958 38.944L55.9398 39.808C55.4598 40.88 54.7398 41.712 53.7798 42.304C52.8198 42.88 51.6998 43.168 50.4198 43.168ZM52.3158 35.776C52.2998 35.376 52.1958 35.024 52.0038 34.72C51.8118 34.416 51.5638 34.176 51.2598 34C50.9558 33.824 50.6198 33.744 50.2518 33.76C49.8838 33.776 49.5478 33.872 49.2438 34.048C48.9558 34.208 48.7078 34.44 48.4998 34.744C48.2918 35.032 48.1638 35.376 48.1158 35.776H52.3158ZM60.8981 39.064C60.9781 39.384 61.1061 39.632 61.2821 39.808C61.4741 39.984 61.6981 40.112 61.9541 40.192C62.2101 40.272 62.4741 40.312 62.7461 40.312C63.2421 40.312 63.6261 40.224 63.8981 40.048C64.1701 39.872 64.3061 39.648 64.3061 39.376C64.3061 39.104 64.2021 38.904 63.9941 38.776C63.8021 38.632 63.5461 38.52 63.2261 38.44C62.9061 38.344 62.5701 38.256 62.2181 38.176C61.8181 38.08 61.3701 37.968 60.8741 37.84C60.3781 37.696 59.9061 37.504 59.4581 37.264C59.0101 37.008 58.6421 36.672 58.3541 36.256C58.0661 35.824 57.9221 35.288 57.9221 34.648C57.9221 33.912 58.1221 33.256 58.5221 32.68C58.9221 32.104 59.4901 31.656 60.2261 31.336C60.9621 31 61.8341 30.832 62.8421 30.832C64.0741 30.832 65.0821 31.088 65.8661 31.6C66.6501 32.112 67.2101 32.832 67.5461 33.76L64.4981 34.528C64.4181 34.32 64.2981 34.16 64.1381 34.048C63.9781 33.92 63.7781 33.832 63.5381 33.784C63.3141 33.72 63.0901 33.688 62.8661 33.688C62.4501 33.688 62.1221 33.768 61.8821 33.928C61.6421 34.088 61.5221 34.288 61.5221 34.528C61.5221 34.688 61.5701 34.824 61.6661 34.936C61.7781 35.048 61.9221 35.136 62.0981 35.2C62.2901 35.264 62.5061 35.32 62.7461 35.368C63.0021 35.416 63.2741 35.48 63.5621 35.56C64.0421 35.672 64.5301 35.808 65.0261 35.968C65.5381 36.128 66.0101 36.344 66.4421 36.616C66.8741 36.872 67.2261 37.224 67.4981 37.672C67.7701 38.104 67.9141 38.664 67.9301 39.352C67.9301 40.056 67.7301 40.704 67.3301 41.296C66.9301 41.872 66.3461 42.328 65.5781 42.664C64.8101 43 63.8741 43.168 62.7701 43.168C61.4421 43.168 60.3301 42.896 59.4341 42.352C58.5381 41.808 57.9701 40.968 57.7301 39.832L60.8981 39.064ZM70.0471 25.72H73.5511V32.248C73.9191 31.832 74.3671 31.496 74.8951 31.24C75.4391 30.968 76.0551 30.832 76.7431 30.832C77.6551 30.832 78.4471 31.032 79.1191 31.432C79.7911 31.832 80.3111 32.416 80.6791 33.184C81.0471 33.952 81.2311 34.888 81.2311 35.992V43H77.5351V36.424C77.5351 35.624 77.3671 35.016 77.0311 34.6C76.7111 34.184 76.2231 33.976 75.5671 33.976C74.8951 33.976 74.3911 34.216 74.0551 34.696C73.7191 35.176 73.5511 35.824 73.5511 36.64V43H70.0471V25.72ZM96.0526 43.168C94.8206 43.168 93.7486 42.912 92.8366 42.4C91.9246 41.872 91.2126 41.136 90.7006 40.192C90.2046 39.248 89.9566 38.144 89.9566 36.88C89.9566 35.712 90.2046 34.672 90.7006 33.76C91.1966 32.848 91.8926 32.136 92.7886 31.624C93.6846 31.096 94.7006 30.832 95.8366 30.832C97.0366 30.832 98.0766 31.08 98.9566 31.576C99.8366 32.056 100.525 32.744 101.021 33.64C101.517 34.536 101.765 35.576 101.765 36.76C101.765 36.952 101.757 37.152 101.741 37.36C101.725 37.568 101.701 37.8 101.669 38.056H93.7006C93.7806 38.488 93.9326 38.864 94.1566 39.184C94.3806 39.488 94.6606 39.728 94.9966 39.904C95.3486 40.064 95.7486 40.144 96.1966 40.144C96.6926 40.144 97.1406 40.04 97.5406 39.832C97.9406 39.624 98.2366 39.328 98.4286 38.944L101.573 39.808C101.093 40.88 100.373 41.712 99.4126 42.304C98.4526 42.88 97.3326 43.168 96.0526 43.168ZM97.9486 35.776C97.9326 35.376 97.8286 35.024 97.6366 34.72C97.4446 34.416 97.1966 34.176 96.8926 34C96.5886 33.824 96.2526 33.744 95.8846 33.76C95.5166 33.776 95.1806 33.872 94.8766 34.048C94.5886 34.208 94.3406 34.44 94.1326 34.744C93.9246 35.032 93.7966 35.376 93.7486 35.776H97.9486ZM106.372 31L108.916 38.872L111.46 31H115.228L110.86 43H106.948L102.604 31H106.372ZM122.185 43.168C120.953 43.168 119.881 42.912 118.969 42.4C118.057 41.872 117.345 41.136 116.833 40.192C116.337 39.248 116.089 38.144 116.089 36.88C116.089 35.712 116.337 34.672 116.833 33.76C117.329 32.848 118.025 32.136 118.921 31.624C119.817 31.096 120.833 30.832 121.969 30.832C123.169 30.832 124.209 31.08 125.089 31.576C125.969 32.056 126.657 32.744 127.153 33.64C127.649 34.536 127.897 35.576 127.897 36.76C127.897 36.952 127.889 37.152 127.873 37.36C127.857 37.568 127.833 37.8 127.801 38.056H119.833C119.913 38.488 120.065 38.864 120.289 39.184C120.513 39.488 120.793 39.728 121.129 39.904C121.481 40.064 121.881 40.144 122.329 40.144C122.825 40.144 123.273 40.04 123.673 39.832C124.073 39.624 124.369 39.328 124.561 38.944L127.705 39.808C127.225 40.88 126.505 41.712 125.545 42.304C124.585 42.88 123.465 43.168 122.185 43.168ZM124.081 35.776C124.065 35.376 123.961 35.024 123.769 34.72C123.577 34.416 123.329 34.176 123.025 34C122.721 33.824 122.385 33.744 122.017 33.76C121.649 33.776 121.313 33.872 121.009 34.048C120.721 34.208 120.473 34.44 120.265 34.744C120.057 35.032 119.929 35.376 119.881 35.776H124.081ZM130.024 31H133.216L133.456 32.584C133.76 32.168 134.12 31.824 134.536 31.552C134.968 31.264 135.44 31.072 135.952 30.976C136.48 30.88 137.056 30.888 137.68 31V34.312C137.264 34.168 136.816 34.128 136.336 34.192C135.856 34.24 135.4 34.4 134.968 34.672C134.536 34.928 134.184 35.312 133.912 35.824C133.656 36.336 133.528 36.984 133.528 37.768V43H130.024V31ZM147.702 31H151.494L144.39 47.8H140.814L143.19 42.448L138.438 31H142.35L145.014 38.176L147.702 31ZM161.373 32.848L160.893 32.872V25.72H164.397V43H161.229L161.013 41.488C160.693 41.952 160.221 42.352 159.597 42.688C158.973 43.008 158.277 43.168 157.509 43.168C156.501 43.168 155.597 42.92 154.797 42.424C154.013 41.912 153.397 41.192 152.949 40.264C152.501 39.336 152.277 38.248 152.277 37C152.277 35.736 152.501 34.648 152.949 33.736C153.397 32.808 154.013 32.096 154.797 31.6C155.581 31.088 156.485 30.832 157.509 30.832C158.421 30.832 159.205 31.032 159.861 31.432C160.517 31.816 161.021 32.288 161.373 32.848ZM156.045 37C156.045 37.88 156.269 38.592 156.717 39.136C157.165 39.664 157.749 39.928 158.469 39.928C158.901 39.928 159.301 39.816 159.669 39.592C160.037 39.368 160.333 39.04 160.557 38.608C160.781 38.176 160.893 37.64 160.893 37C160.893 36.36 160.781 35.824 160.557 35.392C160.333 34.96 160.037 34.632 159.669 34.408C159.301 34.168 158.901 34.048 158.469 34.048C157.733 34.048 157.141 34.32 156.693 34.864C156.261 35.408 156.045 36.12 156.045 37ZM173.991 43L173.751 41.512C173.335 42.024 172.887 42.424 172.407 42.712C171.927 43 171.287 43.144 170.487 43.144C169.735 43.144 169.063 43.016 168.471 42.76C167.879 42.488 167.407 42.096 167.055 41.584C166.719 41.072 166.551 40.456 166.551 39.736C166.551 38.744 166.903 37.92 167.607 37.264C168.327 36.608 169.439 36.2 170.943 36.04L173.751 35.728V34.936C173.751 34.664 173.615 34.4 173.343 34.144C173.087 33.872 172.679 33.736 172.119 33.736C171.623 33.736 171.191 33.864 170.823 34.12C170.471 34.376 170.231 34.744 170.103 35.224L167.103 34.144C167.455 33.072 168.071 32.256 168.951 31.696C169.847 31.12 170.951 30.832 172.263 30.832C173.895 30.832 175.135 31.24 175.983 32.056C176.831 32.872 177.255 33.968 177.255 35.344V43H173.991ZM173.751 37.888L171.519 38.152C171.071 38.216 170.727 38.36 170.487 38.584C170.263 38.792 170.151 39.056 170.151 39.376C170.151 39.68 170.279 39.936 170.535 40.144C170.791 40.352 171.143 40.456 171.591 40.456C172.039 40.456 172.423 40.368 172.743 40.192C173.063 40 173.311 39.736 173.487 39.4C173.663 39.048 173.751 38.616 173.751 38.104V37.888ZM187.592 31H191.384L184.28 47.8H180.704L183.08 42.448L178.328 31H182.24L184.904 38.176L187.592 31Z" fill="white"/>
<path d="M26.272 70.112C25.4827 70.112 24.7467 69.9733 24.064 69.696C23.392 69.4187 22.8 69.0293 22.288 68.528C21.7867 68.016 21.392 67.4133 21.104 66.72C20.8267 66.016 20.688 65.2427 20.688 64.4C20.688 63.5573 20.8267 62.7893 21.104 62.096C21.392 61.392 21.7867 60.7893 22.288 60.288C22.8 59.776 23.392 59.3813 24.064 59.104C24.7467 58.8267 25.4827 58.688 26.272 58.688C27.0507 58.688 27.776 58.8267 28.448 59.104C29.1307 59.3813 29.7227 59.776 30.224 60.288C30.7253 60.7893 31.1147 61.392 31.392 62.096C31.68 62.7893 31.824 63.5573 31.824 64.4C31.824 65.2427 31.68 66.016 31.392 66.72C31.1147 67.4133 30.7253 68.016 30.224 68.528C29.7227 69.0293 29.1307 69.4187 28.448 69.696C27.776 69.9733 27.0507 70.112 26.272 70.112ZM26.272 68.992C27.072 68.992 27.792 68.8053 28.432 68.432C29.072 68.0587 29.5787 67.5307 29.952 66.848C30.3253 66.1547 30.512 65.3387 30.512 64.4C30.512 63.4507 30.3253 62.6347 29.952 61.952C29.5787 61.2587 29.072 60.7307 28.432 60.368C27.792 59.9947 27.072 59.808 26.272 59.808C25.4613 59.808 24.7307 59.9947 24.08 60.368C23.44 60.7307 22.9333 61.2587 22.56 61.952C22.1867 62.6347 22 63.4507 22 64.4C22 65.3387 22.1867 66.1547 22.56 66.848C22.9333 67.5307 23.44 68.0587 24.08 68.432C24.7307 68.8053 25.4613 68.992 26.272 68.992ZM33.732 62H34.836L34.9 63.136C35.156 62.7413 35.492 62.4373 35.908 62.224C36.324 62 36.8093 61.888 37.364 61.888C37.972 61.888 38.5053 62.0213 38.964 62.288C39.4227 62.544 39.78 62.9333 40.036 63.456C40.292 63.968 40.42 64.6133 40.42 65.392V70H39.22V65.536C39.22 64.704 39.0387 64.0747 38.676 63.648C38.324 63.2107 37.812 62.992 37.14 62.992C36.4467 62.992 35.9027 63.2213 35.508 63.68C35.124 64.1387 34.932 64.816 34.932 65.712V70H33.732V62ZM42.7476 58.48H43.9476V70H42.7476V58.48ZM51.8123 62H53.0603L48.4843 73.2H47.3323L48.6923 69.888L45.4603 62H46.7723L49.3323 68.464L51.8123 62ZM59.5878 62V59.76H60.7878V62H62.9158V63.12H60.7878V67.424C60.7878 67.9147 60.8891 68.272 61.0918 68.496C61.3051 68.72 61.5718 68.8533 61.8918 68.896C62.2224 68.9387 62.5638 68.9387 62.9158 68.896V69.936C62.4998 70.032 62.0891 70.0587 61.6838 70.016C61.2891 69.9733 60.9318 69.856 60.6118 69.664C60.3024 69.4613 60.0518 69.1787 59.8598 68.816C59.6784 68.4533 59.5878 67.9893 59.5878 67.424V63.12H58.3878V62H59.5878ZM64.7008 58.48H65.9008V63.088C66.1568 62.704 66.5034 62.4107 66.9408 62.208C67.3781 61.9947 67.8688 61.888 68.4128 61.888C68.9994 61.888 69.5221 62.0213 69.9808 62.288C70.4394 62.5547 70.7968 62.9493 71.0528 63.472C71.3194 63.9947 71.4528 64.6453 71.4528 65.424V70H70.1728V65.568C70.1728 64.736 69.9968 64.1013 69.6448 63.664C69.2928 63.216 68.7808 62.992 68.1088 62.992C67.4154 62.992 66.8714 63.2267 66.4768 63.696C66.0928 64.1653 65.9008 64.848 65.9008 65.744V70H64.7008V58.48ZM77.1389 70.112C76.3922 70.112 75.7255 69.9307 75.1389 69.568C74.5629 69.2053 74.1095 68.7093 73.7789 68.08C73.4482 67.4507 73.2829 66.7307 73.2829 65.92C73.2829 65.1413 73.4482 64.448 73.7789 63.84C74.1095 63.232 74.5629 62.7573 75.1389 62.416C75.7149 62.064 76.3709 61.888 77.1069 61.888C77.8322 61.888 78.4775 62.048 79.0429 62.368C79.6189 62.688 80.0669 63.1307 80.3869 63.696C80.7069 64.2613 80.8562 64.9067 80.8349 65.632C80.8349 65.7493 80.8295 65.872 80.8189 66C80.8082 66.128 80.7975 66.2667 80.7869 66.416H74.5949C74.6162 66.9173 74.7389 67.36 74.9629 67.744C75.1869 68.128 75.4802 68.432 75.8429 68.656C76.2162 68.8693 76.6375 68.976 77.1069 68.976C77.7255 68.976 78.2482 68.8587 78.6749 68.624C79.1122 68.3893 79.4269 68.0533 79.6189 67.616L80.6589 68.032C80.3389 68.704 79.8749 69.2213 79.2669 69.584C78.6589 69.936 77.9495 70.112 77.1389 70.112ZM79.5229 65.376C79.5335 64.9173 79.4322 64.512 79.2189 64.16C79.0162 63.808 78.7282 63.5307 78.3549 63.328C77.9815 63.1253 77.5495 63.024 77.0589 63.024C76.6322 63.024 76.2429 63.1253 75.8909 63.328C75.5389 63.5307 75.2455 63.8133 75.0109 64.176C74.7869 64.528 74.6535 64.928 74.6109 65.376H79.5229ZM87.7265 61.056C87.7265 60.4693 87.8225 59.9733 88.0145 59.568C88.2065 59.1627 88.5105 58.8693 88.9265 58.688C89.3532 58.496 89.9185 58.4267 90.6225 58.48V59.552C89.9825 59.4987 89.5398 59.6053 89.2945 59.872C89.0492 60.128 88.9265 60.5227 88.9265 61.056V62H90.6865V63.12H88.9265V70H87.7265V63.12H86.6065V62H87.7265V61.056ZM92.482 62H93.586L93.65 63.168C93.8633 62.88 94.1193 62.6347 94.418 62.432C94.7273 62.2293 95.0633 62.0907 95.426 62.016C95.7993 61.9307 96.194 61.9253 96.61 62V63.2C96.162 63.1147 95.7567 63.1147 95.394 63.2C95.042 63.2853 94.738 63.4453 94.482 63.68C94.226 63.9147 94.0287 64.2133 93.89 64.576C93.7513 64.928 93.682 65.3387 93.682 65.808V70H92.482V62ZM101.451 70.112C100.705 70.112 100.038 69.9307 99.4514 69.568C98.8754 69.2053 98.422 68.7093 98.0914 68.08C97.7607 67.4507 97.5954 66.7307 97.5954 65.92C97.5954 65.1413 97.7607 64.448 98.0914 63.84C98.422 63.232 98.8754 62.7573 99.4514 62.416C100.027 62.064 100.683 61.888 101.419 61.888C102.145 61.888 102.79 62.048 103.355 62.368C103.931 62.688 104.379 63.1307 104.699 63.696C105.019 64.2613 105.169 64.9067 105.147 65.632C105.147 65.7493 105.142 65.872 105.131 66C105.121 66.128 105.11 66.2667 105.099 66.416H98.9074C98.9287 66.9173 99.0514 67.36 99.2754 67.744C99.4994 68.128 99.7927 68.432 100.155 68.656C100.529 68.8693 100.95 68.976 101.419 68.976C102.038 68.976 102.561 68.8587 102.987 68.624C103.425 68.3893 103.739 68.0533 103.931 67.616L104.971 68.032C104.651 68.704 104.187 69.2213 103.579 69.584C102.971 69.936 102.262 70.112 101.451 70.112ZM103.835 65.376C103.846 64.9173 103.745 64.512 103.531 64.16C103.329 63.808 103.041 63.5307 102.667 63.328C102.294 63.1253 101.862 63.024 101.371 63.024C100.945 63.024 100.555 63.1253 100.203 63.328C99.8514 63.5307 99.558 63.8133 99.3234 64.176C99.0994 64.528 98.966 64.928 98.9234 65.376H103.835ZM107.779 67.552C107.843 67.872 107.96 68.1387 108.131 68.352C108.301 68.5547 108.52 68.7093 108.787 68.816C109.064 68.9227 109.384 68.976 109.747 68.976C110.312 68.976 110.739 68.8693 111.027 68.656C111.325 68.432 111.475 68.1547 111.475 67.824C111.475 67.5467 111.384 67.3227 111.203 67.152C111.032 66.9813 110.803 66.8427 110.515 66.736C110.227 66.6187 109.907 66.5173 109.555 66.432C109.277 66.368 108.979 66.2933 108.659 66.208C108.339 66.112 108.035 65.984 107.747 65.824C107.459 65.664 107.224 65.456 107.043 65.2C106.861 64.944 106.771 64.608 106.771 64.192C106.771 63.7333 106.893 63.3333 107.139 62.992C107.395 62.64 107.741 62.368 108.179 62.176C108.627 61.984 109.139 61.888 109.715 61.888C110.376 61.888 110.963 62.032 111.475 62.32C111.997 62.608 112.36 63.056 112.563 63.664L111.443 64.048C111.368 63.7707 111.229 63.5573 111.027 63.408C110.835 63.2587 110.616 63.1573 110.371 63.104C110.136 63.0507 109.901 63.024 109.667 63.024C109.187 63.024 108.797 63.12 108.499 63.312C108.211 63.4933 108.067 63.7707 108.067 64.144C108.067 64.3467 108.115 64.5173 108.211 64.656C108.307 64.784 108.44 64.8907 108.611 64.976C108.781 65.0613 108.984 65.136 109.219 65.2C109.453 65.2533 109.709 65.3173 109.987 65.392C110.296 65.4667 110.611 65.5627 110.931 65.68C111.251 65.7867 111.549 65.9307 111.827 66.112C112.104 66.2827 112.328 66.5067 112.499 66.784C112.68 67.0507 112.771 67.3867 112.771 67.792C112.771 68.2613 112.643 68.672 112.387 69.024C112.131 69.3653 111.773 69.632 111.315 69.824C110.867 70.016 110.344 70.112 109.747 70.112C108.925 70.112 108.243 69.9307 107.699 69.568C107.165 69.1947 106.808 68.6507 106.627 67.936L107.779 67.552ZM114.716 58.48H115.916V63.088C116.172 62.704 116.519 62.4107 116.956 62.208C117.394 61.9947 117.884 61.888 118.428 61.888C119.015 61.888 119.538 62.0213 119.996 62.288C120.455 62.5547 120.812 62.9493 121.068 63.472C121.335 63.9947 121.468 64.6453 121.468 65.424V70H120.188V65.568C120.188 64.736 120.012 64.1013 119.66 63.664C119.308 63.216 118.796 62.992 118.124 62.992C117.431 62.992 116.887 63.2267 116.492 63.696C116.108 64.1653 115.916 64.848 115.916 65.744V70H114.716V58.48ZM127.155 70.112C126.408 70.112 125.741 69.9307 125.155 69.568C124.579 69.2053 124.125 68.7093 123.795 68.08C123.464 67.4507 123.299 66.7307 123.299 65.92C123.299 65.1413 123.464 64.448 123.795 63.84C124.125 63.232 124.579 62.7573 125.155 62.416C125.731 62.064 126.387 61.888 127.123 61.888C127.848 61.888 128.493 62.048 129.059 62.368C129.635 62.688 130.083 63.1307 130.403 63.696C130.723 64.2613 130.872 64.9067 130.851 65.632C130.851 65.7493 130.845 65.872 130.835 66C130.824 66.128 130.813 66.2667 130.803 66.416H124.611C124.632 66.9173 124.755 67.36 124.979 67.744C125.203 68.128 125.496 68.432 125.859 68.656C126.232 68.8693 126.653 68.976 127.123 68.976C127.741 68.976 128.264 68.8587 128.691 68.624C129.128 68.3893 129.443 68.0533 129.635 67.616L130.675 68.032C130.355 68.704 129.891 69.2213 129.283 69.584C128.675 69.936 127.965 70.112 127.155 70.112ZM129.539 65.376C129.549 64.9173 129.448 64.512 129.235 64.16C129.032 63.808 128.744 63.5307 128.371 63.328C127.997 63.1253 127.565 63.024 127.075 63.024C126.648 63.024 126.259 63.1253 125.907 63.328C125.555 63.5307 125.261 63.8133 125.027 64.176C124.803 64.528 124.669 64.928 124.627 65.376H129.539ZM133.482 67.552C133.546 67.872 133.663 68.1387 133.834 68.352C134.004 68.5547 134.223 68.7093 134.49 68.816C134.767 68.9227 135.087 68.976 135.45 68.976C136.015 68.976 136.442 68.8693 136.73 68.656C137.028 68.432 137.178 68.1547 137.178 67.824C137.178 67.5467 137.087 67.3227 136.906 67.152C136.735 66.9813 136.506 66.8427 136.218 66.736C135.93 66.6187 135.61 66.5173 135.258 66.432C134.98 66.368 134.682 66.2933 134.362 66.208C134.042 66.112 133.738 65.984 133.45 65.824C133.162 65.664 132.927 65.456 132.746 65.2C132.564 64.944 132.474 64.608 132.474 64.192C132.474 63.7333 132.596 63.3333 132.842 62.992C133.098 62.64 133.444 62.368 133.882 62.176C134.33 61.984 134.842 61.888 135.418 61.888C136.079 61.888 136.666 62.032 137.178 62.32C137.7 62.608 138.063 63.056 138.266 63.664L137.146 64.048C137.071 63.7707 136.932 63.5573 136.73 63.408C136.538 63.2587 136.319 63.1573 136.074 63.104C135.839 63.0507 135.604 63.024 135.37 63.024C134.89 63.024 134.5 63.12 134.202 63.312C133.914 63.4933 133.77 63.7707 133.77 64.144C133.77 64.3467 133.818 64.5173 133.914 64.656C134.01 64.784 134.143 64.8907 134.314 64.976C134.484 65.0613 134.687 65.136 134.922 65.2C135.156 65.2533 135.412 65.3173 135.69 65.392C135.999 65.4667 136.314 65.5627 136.634 65.68C136.954 65.7867 137.252 65.9307 137.53 66.112C137.807 66.2827 138.031 66.5067 138.202 66.784C138.383 67.0507 138.474 67.3867 138.474 67.792C138.474 68.2613 138.346 68.672 138.09 69.024C137.834 69.3653 137.476 69.632 137.018 69.824C136.57 70.016 136.047 70.112 135.45 70.112C134.628 70.112 133.946 69.9307 133.402 69.568C132.868 69.1947 132.511 68.6507 132.33 67.936L133.482 67.552ZM140.932 62V59.76H142.132V62H144.26V63.12H142.132V67.424C142.132 67.9147 142.233 68.272 142.436 68.496C142.649 68.72 142.916 68.8533 143.236 68.896C143.566 68.9387 143.908 68.9387 144.26 68.896V69.936C143.844 70.032 143.433 70.0587 143.028 70.016C142.633 69.9733 142.276 69.856 141.956 69.664C141.646 69.4613 141.396 69.1787 141.204 68.816C141.022 68.4533 140.932 67.9893 140.932 67.424V63.12H139.732V62H140.932ZM150.961 61.056C150.961 60.4693 151.057 59.9733 151.249 59.568C151.441 59.1627 151.745 58.8693 152.161 58.688C152.588 58.496 153.153 58.4267 153.857 58.48V59.552C153.217 59.4987 152.774 59.6053 152.529 59.872C152.284 60.128 152.161 60.5227 152.161 61.056V62H153.921V63.12H152.161V70H150.961V63.12H149.841V62H150.961V61.056ZM155.56 58.48H156.76V70H155.56V58.48ZM164.209 70L164.113 68.56C163.889 69.0507 163.558 69.4347 163.121 69.712C162.683 69.9787 162.129 70.112 161.457 70.112C160.881 70.112 160.39 70.0213 159.985 69.84C159.579 69.6587 159.265 69.4027 159.041 69.072C158.827 68.7307 158.721 68.3307 158.721 67.872C158.721 67.2 158.971 66.6507 159.473 66.224C159.974 65.7867 160.699 65.52 161.649 65.424L164.113 65.152V64.512C164.113 64.064 163.947 63.7067 163.617 63.44C163.286 63.1627 162.838 63.024 162.273 63.024C161.718 63.024 161.254 63.152 160.881 63.408C160.518 63.664 160.267 64.032 160.129 64.512L159.041 64.128C159.254 63.424 159.643 62.8747 160.209 62.48C160.785 62.0853 161.483 61.888 162.305 61.888C163.254 61.888 163.99 62.1333 164.513 62.624C165.046 63.104 165.313 63.76 165.313 64.592V70H164.209ZM164.113 66.176L161.633 66.464C161.099 66.528 160.694 66.6773 160.417 66.912C160.139 67.136 160.001 67.4347 160.001 67.808C160.001 68.1813 160.134 68.48 160.401 68.704C160.678 68.928 161.073 69.04 161.585 69.04C162.171 69.04 162.651 68.9227 163.025 68.688C163.398 68.4533 163.67 68.1387 163.841 67.744C164.022 67.3387 164.113 66.9013 164.113 66.432V66.176ZM167.93 62L170.458 68.656L173.002 62H174.266L171.066 70H169.818L166.65 62H167.93ZM179.204 70.112C178.446 70.112 177.769 69.9467 177.172 69.616C176.574 69.2853 176.105 68.816 175.764 68.208C175.422 67.5893 175.252 66.8587 175.252 66.016C175.252 65.1627 175.422 64.4267 175.764 63.808C176.116 63.1893 176.59 62.7147 177.188 62.384C177.796 62.0533 178.478 61.888 179.236 61.888C179.993 61.888 180.67 62.0533 181.268 62.384C181.876 62.7147 182.35 63.1893 182.692 63.808C183.044 64.416 183.22 65.1413 183.22 65.984C183.22 66.8373 183.044 67.5733 182.692 68.192C182.34 68.8107 181.86 69.2853 181.252 69.616C180.644 69.9467 179.961 70.112 179.204 70.112ZM179.188 68.976C179.657 68.976 180.1 68.8747 180.516 68.672C180.932 68.4587 181.268 68.1333 181.524 67.696C181.79 67.248 181.924 66.6827 181.924 66C181.924 65.3067 181.796 64.7413 181.54 64.304C181.284 63.8667 180.948 63.5467 180.532 63.344C180.126 63.1307 179.689 63.024 179.22 63.024C178.75 63.024 178.313 63.1307 177.908 63.344C177.502 63.5467 177.172 63.872 176.916 64.32C176.67 64.7573 176.548 65.3173 176.548 66C176.548 66.6933 176.67 67.2587 176.916 67.696C177.161 68.1333 177.481 68.4587 177.876 68.672C178.281 68.8747 178.718 68.976 179.188 68.976ZM191.729 70H190.641L190.561 68.848C190.316 69.2533 189.985 69.568 189.569 69.792C189.153 70.0053 188.668 70.112 188.113 70.112C187.494 70.112 186.956 69.984 186.497 69.728C186.038 69.472 185.681 69.088 185.425 68.576C185.18 68.064 185.057 67.4187 185.057 66.64V62H186.241V66.512C186.241 67.3333 186.417 67.9573 186.769 68.384C187.132 68.8 187.649 69.008 188.321 69.008C189.004 69.008 189.542 68.7893 189.937 68.352C190.342 67.904 190.545 67.232 190.545 66.336V62H191.729V70ZM194.17 62H195.274L195.338 63.168C195.551 62.88 195.807 62.6347 196.106 62.432C196.415 62.2293 196.751 62.0907 197.114 62.016C197.487 61.9307 197.882 61.9253 198.298 62V63.2C197.85 63.1147 197.444 63.1147 197.082 63.2C196.73 63.2853 196.426 63.4453 196.17 63.68C195.914 63.9147 195.716 64.2133 195.578 64.576C195.439 64.928 195.37 65.3387 195.37 65.808V70H194.17V62ZM200.591 67.552C200.655 67.872 200.772 68.1387 200.943 68.352C201.114 68.5547 201.332 68.7093 201.599 68.816C201.876 68.9227 202.196 68.976 202.559 68.976C203.124 68.976 203.551 68.8693 203.839 68.656C204.138 68.432 204.287 68.1547 204.287 67.824C204.287 67.5467 204.196 67.3227 204.015 67.152C203.844 66.9813 203.615 66.8427 203.327 66.736C203.039 66.6187 202.719 66.5173 202.367 66.432C202.09 66.368 201.791 66.2933 201.471 66.208C201.151 66.112 200.847 65.984 200.559 65.824C200.271 65.664 200.036 65.456 199.855 65.2C199.674 64.944 199.583 64.608 199.583 64.192C199.583 63.7333 199.706 63.3333 199.951 62.992C200.207 62.64 200.554 62.368 200.991 62.176C201.439 61.984 201.951 61.888 202.527 61.888C203.188 61.888 203.775 62.032 204.287 62.32C204.81 62.608 205.172 63.056 205.375 63.664L204.255 64.048C204.18 63.7707 204.042 63.5573 203.839 63.408C203.647 63.2587 203.428 63.1573 203.183 63.104C202.948 63.0507 202.714 63.024 202.479 63.024C201.999 63.024 201.61 63.12 201.311 63.312C201.023 63.4933 200.879 63.7707 200.879 64.144C200.879 64.3467 200.927 64.5173 201.023 64.656C201.119 64.784 201.252 64.8907 201.423 64.976C201.594 65.0613 201.796 65.136 202.031 65.2C202.266 65.2533 202.522 65.3173 202.799 65.392C203.108 65.4667 203.423 65.5627 203.743 65.68C204.063 65.7867 204.362 65.9307 204.639 66.112C204.916 66.2827 205.14 66.5067 205.311 66.784C205.492 67.0507 205.583 67.3867 205.583 67.792C205.583 68.2613 205.455 68.672 205.199 69.024C204.943 69.3653 204.586 69.632 204.127 69.824C203.679 70.016 203.156 70.112 202.559 70.112C201.738 70.112 201.055 69.9307 200.511 69.568C199.978 69.1947 199.62 68.6507 199.439 67.936L200.591 67.552ZM217.021 70L216.925 68.56C216.701 69.0507 216.371 69.4347 215.933 69.712C215.496 69.9787 214.941 70.112 214.269 70.112C213.693 70.112 213.203 70.0213 212.797 69.84C212.392 69.6587 212.077 69.4027 211.853 69.072C211.64 68.7307 211.533 68.3307 211.533 67.872C211.533 67.2 211.784 66.6507 212.285 66.224C212.787 65.7867 213.512 65.52 214.461 65.424L216.925 65.152V64.512C216.925 64.064 216.76 63.7067 216.429 63.44C216.099 63.1627 215.651 63.024 215.085 63.024C214.531 63.024 214.067 63.152 213.693 63.408C213.331 63.664 213.08 64.032 212.941 64.512L211.853 64.128C212.067 63.424 212.456 62.8747 213.021 62.48C213.597 62.0853 214.296 61.888 215.117 61.888C216.067 61.888 216.803 62.1333 217.325 62.624C217.859 63.104 218.125 63.76 218.125 64.592V70H217.021ZM216.925 66.176L214.445 66.464C213.912 66.528 213.507 66.6773 213.229 66.912C212.952 67.136 212.813 67.4347 212.813 67.808C212.813 68.1813 212.947 68.48 213.213 68.704C213.491 68.928 213.885 69.04 214.397 69.04C214.984 69.04 215.464 68.9227 215.837 68.688C216.211 68.4533 216.483 68.1387 216.653 67.744C216.835 67.3387 216.925 66.9013 216.925 66.432V66.176ZM220.466 62H221.57L221.634 63.136C221.89 62.7413 222.226 62.4373 222.642 62.224C223.058 62 223.544 61.888 224.098 61.888C224.706 61.888 225.24 62.0213 225.698 62.288C226.157 62.544 226.514 62.9333 226.77 63.456C227.026 63.968 227.154 64.6133 227.154 65.392V70H225.954V65.536C225.954 64.704 225.773 64.0747 225.41 63.648C225.058 63.2107 224.546 62.992 223.874 62.992C223.181 62.992 222.637 63.2213 222.242 63.68C221.858 64.1387 221.666 64.816 221.666 65.712V70H220.466V62ZM235.658 63.616L235.53 63.632V58.48H236.73V70H235.626L235.546 68.512C235.301 68.96 234.933 69.3387 234.442 69.648C233.962 69.9573 233.365 70.112 232.65 70.112C231.914 70.112 231.269 69.9467 230.714 69.616C230.17 69.2747 229.743 68.7947 229.434 68.176C229.135 67.5573 228.986 66.832 228.986 66C228.986 65.168 229.135 64.448 229.434 63.84C229.743 63.2213 230.17 62.7413 230.714 62.4C231.269 62.0587 231.914 61.888 232.65 61.888C233.407 61.888 234.037 62.0533 234.538 62.384C235.039 62.7147 235.413 63.1253 235.658 63.616ZM230.282 66C230.282 66.9173 230.517 67.648 230.986 68.192C231.455 68.7253 232.095 68.992 232.906 68.992C233.407 68.992 233.855 68.8747 234.25 68.64C234.645 68.4053 234.954 68.064 235.178 67.616C235.413 67.168 235.53 66.6293 235.53 66C235.53 65.3707 235.413 64.8373 235.178 64.4C234.954 63.952 234.645 63.6107 234.25 63.376C233.855 63.1307 233.407 63.008 232.906 63.008C232.106 63.008 231.466 63.28 230.986 63.824C230.517 64.3573 230.282 65.0827 230.282 66ZM21.744 86V83.76H22.944V86H25.072V87.12H22.944V91.424C22.944 91.9147 23.0453 92.272 23.248 92.496C23.4613 92.72 23.728 92.8533 24.048 92.896C24.3787 92.9387 24.72 92.9387 25.072 92.896V93.936C24.656 94.032 24.2453 94.0587 23.84 94.016C23.4453 93.9733 23.088 93.856 22.768 93.664C22.4587 93.4613 22.208 93.1787 22.016 92.816C21.8347 92.4533 21.744 91.9893 21.744 91.424V87.12H20.544V86H21.744ZM30.217 94.112C29.4703 94.112 28.8037 93.9307 28.217 93.568C27.641 93.2053 27.1877 92.7093 26.857 92.08C26.5263 91.4507 26.361 90.7307 26.361 89.92C26.361 89.1413 26.5263 88.448 26.857 87.84C27.1877 87.232 27.641 86.7573 28.217 86.416C28.793 86.064 29.449 85.888 30.185 85.888C30.9103 85.888 31.5557 86.048 32.121 86.368C32.697 86.688 33.145 87.1307 33.465 87.696C33.785 88.2613 33.9343 88.9067 33.913 89.632C33.913 89.7493 33.9077 89.872 33.897 90C33.8863 90.128 33.8757 90.2667 33.865 90.416H27.673C27.6943 90.9173 27.817 91.36 28.041 91.744C28.265 92.128 28.5583 92.432 28.921 92.656C29.2943 92.8693 29.7157 92.976 30.185 92.976C30.8037 92.976 31.3263 92.8587 31.753 92.624C32.1903 92.3893 32.505 92.0533 32.697 91.616L33.737 92.032C33.417 92.704 32.953 93.2213 32.345 93.584C31.737 93.936 31.0277 94.112 30.217 94.112ZM32.601 89.376C32.6117 88.9173 32.5103 88.512 32.297 88.16C32.0943 87.808 31.8063 87.5307 31.433 87.328C31.0597 87.1253 30.6277 87.024 30.137 87.024C29.7103 87.024 29.321 87.1253 28.969 87.328C28.617 87.5307 28.3237 87.8133 28.089 88.176C27.865 88.528 27.7317 88.928 27.689 89.376H32.601ZM34.8398 86H36.2158L38.2638 89.056L40.3118 86H41.7038L38.9358 89.984L41.7038 94H40.3118L38.2638 90.912L36.2158 94H34.8398L37.6078 89.984L34.8398 86ZM43.9471 86V83.76H45.1471V86H47.2751V87.12H45.1471V91.424C45.1471 91.9147 45.2485 92.272 45.4511 92.496C45.6645 92.72 45.9311 92.8533 46.2511 92.896C46.5818 92.9387 46.9231 92.9387 47.2751 92.896V93.936C46.8591 94.032 46.4485 94.0587 46.0431 94.016C45.6485 93.9733 45.2911 93.856 44.9711 93.664C44.6618 93.4613 44.4111 93.1787 44.2191 92.816C44.0378 92.4533 43.9471 91.9893 43.9471 91.424V87.12H42.7471V86H43.9471ZM55.6041 94H54.5161L54.4361 92.848C54.1908 93.2533 53.8601 93.568 53.4441 93.792C53.0281 94.0053 52.5428 94.112 51.9881 94.112C51.3695 94.112 50.8308 93.984 50.3721 93.728C49.9135 93.472 49.5561 93.088 49.3001 92.576C49.0548 92.064 48.9321 91.4187 48.9321 90.64V86H50.1161V90.512C50.1161 91.3333 50.2921 91.9573 50.6441 92.384C51.0068 92.8 51.5241 93.008 52.1961 93.008C52.8788 93.008 53.4175 92.7893 53.8121 92.352C54.2175 91.904 54.4201 91.232 54.4201 90.336V86H55.6041V94ZM58.0445 86H59.1485L59.2125 87.168C59.4258 86.88 59.6818 86.6347 59.9805 86.432C60.2898 86.2293 60.6258 86.0907 60.9885 86.016C61.3618 85.9307 61.7565 85.9253 62.1725 86V87.2C61.7245 87.1147 61.3192 87.1147 60.9565 87.2C60.6045 87.2853 60.3005 87.4453 60.0445 87.68C59.7885 87.9147 59.5912 88.2133 59.4525 88.576C59.3138 88.928 59.2445 89.3387 59.2445 89.808V94H58.0445V86ZM67.0139 94.112C66.2672 94.112 65.6005 93.9307 65.0139 93.568C64.4379 93.2053 63.9845 92.7093 63.6539 92.08C63.3232 91.4507 63.1579 90.7307 63.1579 89.92C63.1579 89.1413 63.3232 88.448 63.6539 87.84C63.9845 87.232 64.4379 86.7573 65.0139 86.416C65.5899 86.064 66.2459 85.888 66.9819 85.888C67.7072 85.888 68.3525 86.048 68.9179 86.368C69.4939 86.688 69.9419 87.1307 70.2619 87.696C70.5819 88.2613 70.7312 88.9067 70.7099 89.632C70.7099 89.7493 70.7045 89.872 70.6939 90C70.6832 90.128 70.6725 90.2667 70.6619 90.416H64.4699C64.4912 90.9173 64.6139 91.36 64.8379 91.744C65.0619 92.128 65.3552 92.432 65.7179 92.656C66.0912 92.8693 66.5125 92.976 66.9819 92.976C67.6005 92.976 68.1232 92.8587 68.5499 92.624C68.9872 92.3893 69.3019 92.0533 69.4939 91.616L70.5339 92.032C70.2139 92.704 69.7499 93.2213 69.1419 93.584C68.5339 93.936 67.8245 94.112 67.0139 94.112ZM69.3979 89.376C69.4085 88.9173 69.3072 88.512 69.0939 88.16C68.8912 87.808 68.6032 87.5307 68.2299 87.328C67.8565 87.1253 67.4245 87.024 66.9339 87.024C66.5072 87.024 66.1179 87.1253 65.7659 87.328C65.4139 87.5307 65.1205 87.8133 64.8859 88.176C64.6619 88.528 64.5285 88.928 64.4859 89.376H69.3979ZM73.3411 91.552C73.4051 91.872 73.5225 92.1387 73.6931 92.352C73.8638 92.5547 74.0825 92.7093 74.3491 92.816C74.6265 92.9227 74.9465 92.976 75.3091 92.976C75.8745 92.976 76.3011 92.8693 76.5891 92.656C76.8878 92.432 77.0371 92.1547 77.0371 91.824C77.0371 91.5467 76.9465 91.3227 76.7651 91.152C76.5945 90.9813 76.3651 90.8427 76.0771 90.736C75.7891 90.6187 75.4691 90.5173 75.1171 90.432C74.8398 90.368 74.5411 90.2933 74.2211 90.208C73.9011 90.112 73.5971 89.984 73.3091 89.824C73.0211 89.664 72.7865 89.456 72.6051 89.2C72.4238 88.944 72.3331 88.608 72.3331 88.192C72.3331 87.7333 72.4558 87.3333 72.7011 86.992C72.9571 86.64 73.3038 86.368 73.7411 86.176C74.1891 85.984 74.7011 85.888 75.2771 85.888C75.9385 85.888 76.5251 86.032 77.0371 86.32C77.5598 86.608 77.9225 87.056 78.1251 87.664L77.0051 88.048C76.9305 87.7707 76.7918 87.5573 76.5891 87.408C76.3971 87.2587 76.1785 87.1573 75.9331 87.104C75.6985 87.0507 75.4638 87.024 75.2291 87.024C74.7491 87.024 74.3598 87.12 74.0611 87.312C73.7731 87.4933 73.6291 87.7707 73.6291 88.144C73.6291 88.3467 73.6771 88.5173 73.7731 88.656C73.8691 88.784 74.0025 88.8907 74.1731 88.976C74.3438 89.0613 74.5465 89.136 74.7811 89.2C75.0158 89.2533 75.2718 89.3173 75.5491 89.392C75.8585 89.4667 76.1731 89.5627 76.4931 89.68C76.8131 89.7867 77.1118 89.9307 77.3891 90.112C77.6665 90.2827 77.8905 90.5067 78.0611 90.784C78.2425 91.0507 78.3331 91.3867 78.3331 91.792C78.3331 92.2613 78.2051 92.672 77.9491 93.024C77.6931 93.3653 77.3358 93.632 76.8771 93.824C76.4291 94.016 75.9065 94.112 75.3091 94.112C74.4878 94.112 73.8051 93.9307 73.2611 93.568C72.7278 93.1947 72.3705 92.6507 72.1891 91.936L73.3411 91.552ZM85.1953 85.056C85.1953 84.4693 85.2913 83.9733 85.4833 83.568C85.6753 83.1627 85.9793 82.8693 86.3953 82.688C86.8219 82.496 87.3873 82.4267 88.0913 82.48V83.552C87.4513 83.4987 87.0086 83.6053 86.7633 83.872C86.5179 84.128 86.3953 84.5227 86.3953 85.056V86H88.1553V87.12H86.3953V94H85.1953V87.12H84.0753V86H85.1953V85.056ZM93.2505 94.112C92.4932 94.112 91.8158 93.9467 91.2185 93.616C90.6212 93.2853 90.1518 92.816 89.8105 92.208C89.4692 91.5893 89.2985 90.8587 89.2985 90.016C89.2985 89.1627 89.4692 88.4267 89.8105 87.808C90.1625 87.1893 90.6372 86.7147 91.2345 86.384C91.8425 86.0533 92.5252 85.888 93.2825 85.888C94.0398 85.888 94.7172 86.0533 95.3145 86.384C95.9225 86.7147 96.3972 87.1893 96.7385 87.808C97.0905 88.416 97.2665 89.1413 97.2665 89.984C97.2665 90.8373 97.0905 91.5733 96.7385 92.192C96.3865 92.8107 95.9065 93.2853 95.2985 93.616C94.6905 93.9467 94.0078 94.112 93.2505 94.112ZM93.2345 92.976C93.7038 92.976 94.1465 92.8747 94.5625 92.672C94.9785 92.4587 95.3145 92.1333 95.5705 91.696C95.8372 91.248 95.9705 90.6827 95.9705 90C95.9705 89.3067 95.8425 88.7413 95.5865 88.304C95.3305 87.8667 94.9945 87.5467 94.5785 87.344C94.1732 87.1307 93.7358 87.024 93.2665 87.024C92.7972 87.024 92.3598 87.1307 91.9545 87.344C91.5492 87.5467 91.2185 87.872 90.9625 88.32C90.7172 88.7573 90.5945 89.3173 90.5945 90C90.5945 90.6933 90.7172 91.2587 90.9625 91.696C91.2078 92.1333 91.5278 92.4587 91.9225 92.672C92.3278 92.8747 92.7652 92.976 93.2345 92.976ZM99.232 86H100.336L100.4 87.168C100.613 86.88 100.869 86.6347 101.168 86.432C101.477 86.2293 101.813 86.0907 102.176 86.016C102.549 85.9307 102.944 85.9253 103.36 86V87.2C102.912 87.1147 102.507 87.1147 102.144 87.2C101.792 87.2853 101.488 87.4453 101.232 87.68C100.976 87.9147 100.779 88.2133 100.64 88.576C100.501 88.928 100.432 89.3387 100.432 89.808V94H99.232V86ZM114.906 86H116.154L111.578 97.2H110.426L111.786 93.888L108.554 86H109.866L112.426 92.464L114.906 86ZM120.985 94.112C120.228 94.112 119.55 93.9467 118.953 93.616C118.356 93.2853 117.886 92.816 117.545 92.208C117.204 91.5893 117.033 90.8587 117.033 90.016C117.033 89.1627 117.204 88.4267 117.545 87.808C117.897 87.1893 118.372 86.7147 118.969 86.384C119.577 86.0533 120.26 85.888 121.017 85.888C121.774 85.888 122.452 86.0533 123.049 86.384C123.657 86.7147 124.132 87.1893 124.473 87.808C124.825 88.416 125.001 89.1413 125.001 89.984C125.001 90.8373 124.825 91.5733 124.473 92.192C124.121 92.8107 123.641 93.2853 123.033 93.616C122.425 93.9467 121.742 94.112 120.985 94.112ZM120.969 92.976C121.438 92.976 121.881 92.8747 122.297 92.672C122.713 92.4587 123.049 92.1333 123.305 91.696C123.572 91.248 123.705 90.6827 123.705 90C123.705 89.3067 123.577 88.7413 123.321 88.304C123.065 87.8667 122.729 87.5467 122.313 87.344C121.908 87.1307 121.47 87.024 121.001 87.024C120.532 87.024 120.094 87.1307 119.689 87.344C119.284 87.5467 118.953 87.872 118.697 88.32C118.452 88.7573 118.329 89.3173 118.329 90C118.329 90.6933 118.452 91.2587 118.697 91.696C118.942 92.1333 119.262 92.4587 119.657 92.672C120.062 92.8747 120.5 92.976 120.969 92.976ZM133.51 94H132.422L132.342 92.848C132.097 93.2533 131.766 93.568 131.35 93.792C130.934 94.0053 130.449 94.112 129.894 94.112C129.276 94.112 128.737 93.984 128.278 93.728C127.82 93.472 127.462 93.088 127.206 92.576C126.961 92.064 126.838 91.4187 126.838 90.64V86H128.022V90.512C128.022 91.3333 128.198 91.9573 128.55 92.384C128.913 92.8 129.43 93.008 130.102 93.008C130.785 93.008 131.324 92.7893 131.718 92.352C132.124 91.904 132.326 91.232 132.326 90.336V86H133.51V94ZM135.951 86H137.055L137.119 87.168C137.332 86.88 137.588 86.6347 137.887 86.432C138.196 86.2293 138.532 86.0907 138.895 86.016C139.268 85.9307 139.663 85.9253 140.079 86V87.2C139.631 87.1147 139.225 87.1147 138.863 87.2C138.511 87.2853 138.207 87.4453 137.951 87.68C137.695 87.9147 137.497 88.2133 137.359 88.576C137.22 88.928 137.151 89.3387 137.151 89.808V94H135.951V86ZM146.201 86H147.305L147.369 87.168C147.582 86.88 147.838 86.6347 148.137 86.432C148.446 86.2293 148.782 86.0907 149.145 86.016C149.518 85.9307 149.913 85.9253 150.329 86V87.2C149.881 87.1147 149.475 87.1147 149.113 87.2C148.761 87.2853 148.457 87.4453 148.201 87.68C147.945 87.9147 147.747 88.2133 147.609 88.576C147.47 88.928 147.401 89.3387 147.401 89.808V94H146.201V86ZM155.17 94.112C154.423 94.112 153.757 93.9307 153.17 93.568C152.594 93.2053 152.141 92.7093 151.81 92.08C151.479 91.4507 151.314 90.7307 151.314 89.92C151.314 89.1413 151.479 88.448 151.81 87.84C152.141 87.232 152.594 86.7573 153.17 86.416C153.746 86.064 154.402 85.888 155.138 85.888C155.863 85.888 156.509 86.048 157.074 86.368C157.65 86.688 158.098 87.1307 158.418 87.696C158.738 88.2613 158.887 88.9067 158.866 89.632C158.866 89.7493 158.861 89.872 158.85 90C158.839 90.128 158.829 90.2667 158.818 90.416H152.626C152.647 90.9173 152.77 91.36 152.994 91.744C153.218 92.128 153.511 92.432 153.874 92.656C154.247 92.8693 154.669 92.976 155.138 92.976C155.757 92.976 156.279 92.8587 156.706 92.624C157.143 92.3893 157.458 92.0533 157.65 91.616L158.69 92.032C158.37 92.704 157.906 93.2213 157.298 93.584C156.69 93.936 155.981 94.112 155.17 94.112ZM157.554 89.376C157.565 88.9173 157.463 88.512 157.25 88.16C157.047 87.808 156.759 87.5307 156.386 87.328C156.013 87.1253 155.581 87.024 155.09 87.024C154.663 87.024 154.274 87.1253 153.922 87.328C153.57 87.5307 153.277 87.8133 153.042 88.176C152.818 88.528 152.685 88.928 152.642 89.376H157.554ZM164.249 94.112C163.471 94.112 162.788 93.9413 162.201 93.6C161.615 93.2587 161.156 92.784 160.825 92.176C160.505 91.5573 160.345 90.8427 160.345 90.032C160.345 89.2107 160.505 88.4907 160.825 87.872C161.156 87.2427 161.615 86.7573 162.201 86.416C162.788 86.064 163.471 85.888 164.249 85.888C165.071 85.888 165.791 86.08 166.409 86.464C167.028 86.8373 167.476 87.36 167.753 88.032L166.649 88.416C166.489 87.9893 166.196 87.6533 165.769 87.408C165.353 87.152 164.868 87.024 164.313 87.024C163.769 87.024 163.295 87.1467 162.889 87.392C162.495 87.6373 162.185 87.984 161.961 88.432C161.748 88.88 161.641 89.408 161.641 90.016C161.641 90.912 161.881 91.632 162.361 92.176C162.841 92.7093 163.481 92.976 164.281 92.976C164.825 92.976 165.311 92.8533 165.737 92.608C166.164 92.3627 166.479 92.032 166.681 91.616L167.769 92C167.481 92.6613 167.028 93.1787 166.409 93.552C165.791 93.9253 165.071 94.112 164.249 94.112ZM169.972 86H171.156V94H169.972V86ZM170.58 84.4C170.335 84.4 170.132 84.32 169.972 84.16C169.812 84 169.732 83.8027 169.732 83.568C169.732 83.3227 169.812 83.12 169.972 82.96C170.132 82.8 170.335 82.72 170.58 82.72C170.804 82.72 170.996 82.8 171.156 82.96C171.327 83.12 171.412 83.3227 171.412 83.568C171.412 83.8027 171.327 84 171.156 84.16C170.996 84.32 170.804 84.4 170.58 84.4ZM174.929 92.384L175.057 92.368V97.2H173.857V86H174.961L175.041 87.488C175.286 87.04 175.649 86.6613 176.129 86.352C176.609 86.0427 177.212 85.888 177.937 85.888C178.63 85.888 179.254 86.0587 179.809 86.4C180.364 86.7307 180.801 87.2053 181.121 87.824C181.441 88.432 181.601 89.1573 181.601 90C181.601 90.832 181.446 91.5573 181.137 92.176C180.838 92.784 180.412 93.2587 179.857 93.6C179.313 93.9413 178.673 94.112 177.937 94.112C177.169 94.112 176.534 93.9467 176.033 93.616C175.532 93.2853 175.164 92.8747 174.929 92.384ZM180.305 90C180.305 89.0827 180.065 88.3573 179.585 87.824C179.116 87.28 178.481 87.008 177.681 87.008C177.18 87.008 176.726 87.1253 176.321 87.36C175.926 87.5947 175.617 87.936 175.393 88.384C175.169 88.832 175.057 89.3707 175.057 90C175.057 90.6187 175.169 91.152 175.393 91.6C175.617 92.048 175.926 92.3947 176.321 92.64C176.726 92.8747 177.18 92.992 177.681 92.992C178.481 92.992 179.116 92.7253 179.585 92.192C180.065 91.648 180.305 90.9173 180.305 90ZM186.92 94.112C186.173 94.112 185.507 93.9307 184.92 93.568C184.344 93.2053 183.891 92.7093 183.56 92.08C183.229 91.4507 183.064 90.7307 183.064 89.92C183.064 89.1413 183.229 88.448 183.56 87.84C183.891 87.232 184.344 86.7573 184.92 86.416C185.496 86.064 186.152 85.888 186.888 85.888C187.613 85.888 188.259 86.048 188.824 86.368C189.4 86.688 189.848 87.1307 190.168 87.696C190.488 88.2613 190.637 88.9067 190.616 89.632C190.616 89.7493 190.611 89.872 190.6 90C190.589 90.128 190.579 90.2667 190.568 90.416H184.376C184.397 90.9173 184.52 91.36 184.744 91.744C184.968 92.128 185.261 92.432 185.624 92.656C185.997 92.8693 186.419 92.976 186.888 92.976C187.507 92.976 188.029 92.8587 188.456 92.624C188.893 92.3893 189.208 92.0533 189.4 91.616L190.44 92.032C190.12 92.704 189.656 93.2213 189.048 93.584C188.44 93.936 187.731 94.112 186.92 94.112ZM189.304 89.376C189.315 88.9173 189.213 88.512 189 88.16C188.797 87.808 188.509 87.5307 188.136 87.328C187.763 87.1253 187.331 87.024 186.84 87.024C186.413 87.024 186.024 87.1253 185.672 87.328C185.32 87.5307 185.027 87.8133 184.792 88.176C184.568 88.528 184.435 88.928 184.392 89.376H189.304ZM193.247 91.552C193.311 91.872 193.429 92.1387 193.599 92.352C193.77 92.5547 193.989 92.7093 194.255 92.816C194.533 92.9227 194.853 92.976 195.215 92.976C195.781 92.976 196.207 92.8693 196.495 92.656C196.794 92.432 196.943 92.1547 196.943 91.824C196.943 91.5467 196.853 91.3227 196.671 91.152C196.501 90.9813 196.271 90.8427 195.983 90.736C195.695 90.6187 195.375 90.5173 195.023 90.432C194.746 90.368 194.447 90.2933 194.127 90.208C193.807 90.112 193.503 89.984 193.215 89.824C192.927 89.664 192.693 89.456 192.511 89.2C192.33 88.944 192.239 88.608 192.239 88.192C192.239 87.7333 192.362 87.3333 192.607 86.992C192.863 86.64 193.21 86.368 193.647 86.176C194.095 85.984 194.607 85.888 195.183 85.888C195.845 85.888 196.431 86.032 196.943 86.32C197.466 86.608 197.829 87.056 198.031 87.664L196.911 88.048C196.837 87.7707 196.698 87.5573 196.495 87.408C196.303 87.2587 196.085 87.1573 195.839 87.104C195.605 87.0507 195.37 87.024 195.135 87.024C194.655 87.024 194.266 87.12 193.967 87.312C193.679 87.4933 193.535 87.7707 193.535 88.144C193.535 88.3467 193.583 88.5173 193.679 88.656C193.775 88.784 193.909 88.8907 194.079 88.976C194.25 89.0613 194.453 89.136 194.687 89.2C194.922 89.2533 195.178 89.3173 195.455 89.392C195.765 89.4667 196.079 89.5627 196.399 89.68C196.719 89.7867 197.018 89.9307 197.295 90.112C197.573 90.2827 197.797 90.5067 197.967 90.784C198.149 91.0507 198.239 91.3867 198.239 91.792C198.239 92.2613 198.111 92.672 197.855 93.024C197.599 93.3653 197.242 93.632 196.783 93.824C196.335 94.016 195.813 94.112 195.215 94.112C194.394 94.112 193.711 93.9307 193.167 93.568C192.634 93.1947 192.277 92.6507 192.095 91.936L193.247 91.552Z" fill="white"/>
</svg>
