<svg width="288" height="120" viewBox="0 0 288 120" fill="none" xmlns="http://www.w3.org/2000/svg">
<mask id="path-1-inside-1_10385_10496" fill="white">
<path d="M0 8C0 3.58172 3.58172 0 8 0H280C284.418 0 288 3.58172 288 8V112C288 116.418 284.418 120 280 120H8C3.58173 120 0 116.418 0 112V8Z"/>
</mask>
<path d="M0 8C0 3.58172 3.58172 0 8 0H280C284.418 0 288 3.58172 288 8V112C288 116.418 284.418 120 280 120H8C3.58173 120 0 116.418 0 112V8Z" fill="white" fill-opacity="0.2"/>
<path d="M0 0H288H0ZM288 120H0H288ZM8 120C1.37258 120 -4 114.627 -4 108V12C-4 5.37258 1.37258 0 8 0C5.79086 0 4 3.58172 4 8V112C4 116.418 5.79086 120 8 120ZM288 0V120V0Z" fill="#F26829" mask="url(#path-1-inside-1_10385_10496)"/>
<path d="M21.392 26.2H25.112V36.688C25.112 37.392 25.256 38 25.544 38.512C25.832 39.008 26.224 39.384 26.72 39.64C27.232 39.88 27.824 40 28.496 40C29.184 40 29.784 39.88 30.296 39.64C30.824 39.384 31.232 39.008 31.52 38.512C31.808 38 31.952 37.392 31.952 36.688V26.2H35.672V36.4C35.672 37.536 35.472 38.528 35.072 39.376C34.688 40.224 34.152 40.928 33.464 41.488C32.792 42.048 32.024 42.472 31.16 42.76C30.296 43.032 29.392 43.168 28.448 43.168C27.184 43.168 26.016 42.92 24.944 42.424C23.872 41.928 23.008 41.184 22.352 40.192C21.712 39.184 21.392 37.92 21.392 36.4V26.2ZM38.4065 31H41.5745L41.8145 32.296C42.2145 31.864 42.6865 31.512 43.2305 31.24C43.7745 30.968 44.3665 30.832 45.0065 30.832C45.9505 30.832 46.7425 31.032 47.3825 31.432C48.0385 31.832 48.5345 32.416 48.8705 33.184C49.2225 33.952 49.3985 34.888 49.3985 35.992V43H45.8945V36.424C45.8945 35.624 45.7265 35.016 45.3905 34.6C45.0705 34.184 44.5825 33.976 43.9265 33.976C43.2545 33.976 42.7505 34.192 42.4145 34.624C42.0785 35.04 41.9105 35.648 41.9105 36.448V43H38.4065V31ZM51.9299 31H55.0979L55.3379 32.224C55.7219 31.808 56.1779 31.472 56.7059 31.216C57.2339 30.96 57.8099 30.832 58.4339 30.832C59.1699 30.832 59.8499 30.992 60.4739 31.312C61.1139 31.632 61.6259 32.096 62.0099 32.704C62.4579 32.144 63.0099 31.696 63.6659 31.36C64.3379 31.008 65.0739 30.832 65.8739 30.832C66.8179 30.832 67.6339 31.032 68.3219 31.432C69.0259 31.832 69.5699 32.416 69.9539 33.184C70.3379 33.952 70.5299 34.888 70.5299 35.992V43H67.0259V36.424C67.0259 35.656 66.8499 35.072 66.4979 34.672C66.1459 34.256 65.6499 34.048 65.0099 34.048C64.3379 34.048 63.8179 34.256 63.4499 34.672C63.0819 35.088 62.8979 35.696 62.8979 36.496V43H59.3939V36.424C59.3939 35.656 59.2339 35.072 58.9139 34.672C58.5939 34.256 58.1059 34.048 57.4499 34.048C56.7779 34.048 56.2739 34.256 55.9379 34.672C55.6019 35.088 55.4339 35.68 55.4339 36.448V43H51.9299V31ZM80.0066 43L79.7666 41.512C79.3506 42.024 78.9026 42.424 78.4226 42.712C77.9426 43 77.3026 43.144 76.5026 43.144C75.7506 43.144 75.0786 43.016 74.4866 42.76C73.8946 42.488 73.4226 42.096 73.0706 41.584C72.7346 41.072 72.5666 40.456 72.5666 39.736C72.5666 38.744 72.9186 37.92 73.6226 37.264C74.3426 36.608 75.4546 36.2 76.9586 36.04L79.7666 35.728V34.936C79.7666 34.664 79.6306 34.4 79.3586 34.144C79.1026 33.872 78.6946 33.736 78.1346 33.736C77.6386 33.736 77.2066 33.864 76.8386 34.12C76.4866 34.376 76.2466 34.744 76.1186 35.224L73.1186 34.144C73.4706 33.072 74.0866 32.256 74.9666 31.696C75.8626 31.12 76.9666 30.832 78.2786 30.832C79.9106 30.832 81.1506 31.24 81.9986 32.056C82.8466 32.872 83.2706 33.968 83.2706 35.344V43H80.0066ZM79.7666 37.888L77.5346 38.152C77.0866 38.216 76.7426 38.36 76.5026 38.584C76.2786 38.792 76.1666 39.056 76.1666 39.376C76.1666 39.68 76.2946 39.936 76.5506 40.144C76.8066 40.352 77.1586 40.456 77.6066 40.456C78.0546 40.456 78.4386 40.368 78.7586 40.192C79.0786 40 79.3266 39.736 79.5026 39.4C79.6786 39.048 79.7666 38.616 79.7666 38.104V37.888ZM86.7331 31V27.64H90.3091V31H92.7811V34.096H90.3091V38.416C90.3091 38.96 90.4291 39.344 90.6691 39.568C90.9251 39.792 91.2451 39.912 91.6291 39.928C92.0131 39.928 92.3971 39.896 92.7811 39.832V42.88C91.9651 43.024 91.1891 43.064 90.4531 43C89.7171 42.952 89.0691 42.76 88.5091 42.424C87.9651 42.088 87.5331 41.592 87.2131 40.936C86.8931 40.28 86.7331 39.44 86.7331 38.416V34.096H85.0531V31H86.7331ZM100.15 43.168C98.9823 43.184 97.9503 42.936 97.0543 42.424C96.1583 41.896 95.4623 41.176 94.9663 40.264C94.4703 39.336 94.2223 38.256 94.2223 37.024C94.2223 35.808 94.4703 34.736 94.9663 33.808C95.4623 32.864 96.1583 32.136 97.0543 31.624C97.9503 31.096 98.9823 30.832 100.15 30.832C101.478 30.832 102.638 31.168 103.63 31.84C104.638 32.496 105.342 33.4 105.742 34.552L102.43 35.368C102.27 34.936 102.006 34.6 101.638 34.36C101.27 34.12 100.846 34 100.366 34C99.8863 34 99.4623 34.128 99.0943 34.384C98.7263 34.64 98.4383 35 98.2303 35.464C98.0383 35.912 97.9423 36.432 97.9423 37.024C97.9423 37.92 98.1663 38.64 98.6143 39.184C99.0623 39.728 99.6463 40 100.366 40C100.83 40 101.246 39.888 101.614 39.664C101.982 39.424 102.27 39.088 102.478 38.656L105.766 39.496C105.366 40.6 104.654 41.488 103.63 42.16C102.622 42.816 101.462 43.152 100.15 43.168ZM107.899 25.72H111.403V32.248C111.771 31.832 112.219 31.496 112.747 31.24C113.291 30.968 113.907 30.832 114.595 30.832C115.507 30.832 116.299 31.032 116.971 31.432C117.643 31.832 118.163 32.416 118.531 33.184C118.899 33.952 119.083 34.888 119.083 35.992V43H115.387V36.424C115.387 35.624 115.219 35.016 114.883 34.6C114.563 34.184 114.075 33.976 113.419 33.976C112.747 33.976 112.243 34.216 111.907 34.696C111.571 35.176 111.403 35.824 111.403 36.64V43H107.899V25.72ZM127.178 43.168C125.946 43.168 124.874 42.912 123.962 42.4C123.05 41.872 122.338 41.136 121.826 40.192C121.33 39.248 121.082 38.144 121.082 36.88C121.082 35.712 121.33 34.672 121.826 33.76C122.322 32.848 123.018 32.136 123.914 31.624C124.81 31.096 125.826 30.832 126.962 30.832C128.162 30.832 129.202 31.08 130.082 31.576C130.962 32.056 131.65 32.744 132.146 33.64C132.642 34.536 132.89 35.576 132.89 36.76C132.89 36.952 132.882 37.152 132.866 37.36C132.85 37.568 132.826 37.8 132.794 38.056H124.826C124.906 38.488 125.058 38.864 125.282 39.184C125.506 39.488 125.786 39.728 126.122 39.904C126.474 40.064 126.874 40.144 127.322 40.144C127.818 40.144 128.266 40.04 128.666 39.832C129.066 39.624 129.362 39.328 129.554 38.944L132.698 39.808C132.218 40.88 131.498 41.712 130.538 42.304C129.578 42.88 128.458 43.168 127.178 43.168ZM129.074 35.776C129.058 35.376 128.954 35.024 128.762 34.72C128.57 34.416 128.322 34.176 128.018 34C127.714 33.824 127.378 33.744 127.01 33.76C126.642 33.776 126.306 33.872 126.002 34.048C125.714 34.208 125.466 34.44 125.258 34.744C125.05 35.032 124.922 35.376 124.874 35.776H129.074ZM143.584 32.848L143.104 32.872V25.72H146.608V43H143.44L143.224 41.488C142.904 41.952 142.432 42.352 141.808 42.688C141.184 43.008 140.488 43.168 139.72 43.168C138.712 43.168 137.808 42.92 137.008 42.424C136.224 41.912 135.608 41.192 135.16 40.264C134.712 39.336 134.488 38.248 134.488 37C134.488 35.736 134.712 34.648 135.16 33.736C135.608 32.808 136.224 32.096 137.008 31.6C137.792 31.088 138.696 30.832 139.72 30.832C140.632 30.832 141.416 31.032 142.072 31.432C142.728 31.816 143.232 32.288 143.584 32.848ZM138.256 37C138.256 37.88 138.48 38.592 138.928 39.136C139.376 39.664 139.96 39.928 140.68 39.928C141.112 39.928 141.512 39.816 141.88 39.592C142.248 39.368 142.544 39.04 142.768 38.608C142.992 38.176 143.104 37.64 143.104 37C143.104 36.36 142.992 35.824 142.768 35.392C142.544 34.96 142.248 34.632 141.88 34.408C141.512 34.168 141.112 34.048 140.68 34.048C139.944 34.048 139.352 34.32 138.904 34.864C138.472 35.408 138.256 36.12 138.256 37ZM162.448 37.576H165.544V45.16H162.448V37.576ZM164.008 43.168C162.808 43.168 161.688 42.96 160.648 42.544C159.608 42.128 158.696 41.544 157.912 40.792C157.128 40.024 156.512 39.12 156.064 38.08C155.616 37.024 155.392 35.864 155.392 34.6C155.392 33.336 155.616 32.184 156.064 31.144C156.512 30.088 157.128 29.184 157.912 28.432C158.696 27.664 159.608 27.072 160.648 26.656C161.688 26.24 162.808 26.032 164.008 26.032C165.192 26.032 166.304 26.24 167.344 26.656C168.4 27.072 169.32 27.664 170.104 28.432C170.888 29.184 171.496 30.088 171.928 31.144C172.376 32.184 172.6 33.336 172.6 34.6C172.6 35.864 172.376 37.024 171.928 38.08C171.48 39.12 170.864 40.024 170.08 40.792C169.296 41.544 168.384 42.128 167.344 42.544C166.304 42.96 165.192 43.168 164.008 43.168ZM164.008 40C164.952 40 165.784 39.776 166.504 39.328C167.24 38.864 167.808 38.224 168.208 37.408C168.624 36.592 168.832 35.656 168.832 34.6C168.832 33.528 168.624 32.592 168.208 31.792C167.808 30.976 167.24 30.344 166.504 29.896C165.784 29.432 164.952 29.2 164.008 29.2C163.032 29.2 162.184 29.432 161.464 29.896C160.744 30.344 160.176 30.976 159.76 31.792C159.36 32.592 159.16 33.528 159.16 34.6C159.16 35.656 159.36 36.592 159.76 37.408C160.176 38.224 160.744 38.864 161.464 39.328C162.184 39.776 163.032 40 164.008 40ZM185.544 43H182.352L182.112 41.68C181.712 42.128 181.24 42.488 180.696 42.76C180.168 43.032 179.584 43.168 178.944 43.168C178.048 43.168 177.272 42.968 176.616 42.568C175.96 42.168 175.448 41.584 175.08 40.816C174.712 40.032 174.528 39.096 174.528 38.008V31H178.032V37.576C178.032 38.376 178.192 38.984 178.512 39.4C178.848 39.816 179.352 40.024 180.024 40.024C180.664 40.024 181.16 39.808 181.512 39.376C181.864 38.944 182.04 38.328 182.04 37.528V31H185.544V43ZM195.155 43L194.915 41.512C194.499 42.024 194.051 42.424 193.571 42.712C193.091 43 192.451 43.144 191.651 43.144C190.899 43.144 190.227 43.016 189.635 42.76C189.043 42.488 188.571 42.096 188.219 41.584C187.883 41.072 187.715 40.456 187.715 39.736C187.715 38.744 188.067 37.92 188.771 37.264C189.491 36.608 190.603 36.2 192.107 36.04L194.915 35.728V34.936C194.915 34.664 194.779 34.4 194.507 34.144C194.251 33.872 193.843 33.736 193.283 33.736C192.787 33.736 192.355 33.864 191.987 34.12C191.635 34.376 191.395 34.744 191.267 35.224L188.267 34.144C188.619 33.072 189.235 32.256 190.115 31.696C191.011 31.12 192.115 30.832 193.427 30.832C195.059 30.832 196.299 31.24 197.147 32.056C197.995 32.872 198.419 33.968 198.419 35.344V43H195.155ZM194.915 37.888L192.683 38.152C192.235 38.216 191.891 38.36 191.651 38.584C191.427 38.792 191.315 39.056 191.315 39.376C191.315 39.68 191.443 39.936 191.699 40.144C191.955 40.352 192.307 40.456 192.755 40.456C193.203 40.456 193.587 40.368 193.907 40.192C194.227 40 194.475 39.736 194.651 39.4C194.827 39.048 194.915 38.616 194.915 38.104V37.888ZM200.946 25.72H204.45V43H200.946V25.72ZM207.566 31H211.07V43H207.566V31ZM209.318 29.776C208.662 29.776 208.126 29.584 207.71 29.2C207.31 28.8 207.11 28.32 207.11 27.76C207.11 27.184 207.31 26.704 207.71 26.32C208.126 25.92 208.662 25.72 209.318 25.72C209.958 25.72 210.478 25.92 210.878 26.32C211.294 26.704 211.502 27.184 211.502 27.76C211.502 28.32 211.294 28.8 210.878 29.2C210.478 29.584 209.958 29.776 209.318 29.776ZM215.1 31V27.64H218.676V31H221.148V34.096H218.676V38.416C218.676 38.96 218.796 39.344 219.036 39.568C219.292 39.792 219.612 39.912 219.996 39.928C220.38 39.928 220.764 39.896 221.148 39.832V42.88C220.332 43.024 219.556 43.064 218.82 43C218.084 42.952 217.436 42.76 216.876 42.424C216.332 42.088 215.9 41.592 215.58 40.936C215.26 40.28 215.1 39.44 215.1 38.416V34.096H213.42V31H215.1ZM231.373 31H235.165L228.061 47.8H224.485L226.861 42.448L222.109 31H226.021L228.685 38.176L231.373 31Z" fill="white"/>
<path d="M21.984 67.152C22.048 67.44 22.1813 67.728 22.384 68.016C22.5973 68.2933 22.8853 68.528 23.248 68.72C23.6213 68.9013 24.096 68.992 24.672 68.992C25.4933 68.992 26.1013 68.8 26.496 68.416C26.8907 68.032 27.088 67.5787 27.088 67.056C27.088 66.64 26.976 66.2987 26.752 66.032C26.528 65.7653 26.224 65.5467 25.84 65.376C25.456 65.1947 25.024 65.0347 24.544 64.896C24.1173 64.7787 23.6907 64.6507 23.264 64.512C22.848 64.3627 22.4693 64.1813 22.128 63.968C21.7867 63.744 21.5147 63.456 21.312 63.104C21.1093 62.752 21.008 62.3147 21.008 61.792C21.008 61.1627 21.1573 60.6187 21.456 60.16C21.7547 59.6907 22.176 59.328 22.72 59.072C23.264 58.816 23.8987 58.688 24.624 58.688C25.2533 58.688 25.8027 58.7787 26.272 58.96C26.7413 59.1413 27.1307 59.3973 27.44 59.728C27.76 60.048 27.9947 60.4213 28.144 60.848L27.008 61.28C26.9333 61.0347 26.7893 60.8 26.576 60.576C26.3627 60.3413 26.0853 60.1493 25.744 60C25.4027 59.8507 25.0133 59.776 24.576 59.776C24.1493 59.776 23.76 59.8507 23.408 60C23.0667 60.1493 22.7947 60.3627 22.592 60.64C22.3893 60.9173 22.288 61.2533 22.288 61.648C22.288 62.0747 22.4053 62.416 22.64 62.672C22.8853 62.9173 23.2053 63.12 23.6 63.28C24.0053 63.4293 24.448 63.5733 24.928 63.712C25.3653 63.8507 25.7867 64 26.192 64.16C26.608 64.32 26.976 64.5173 27.296 64.752C27.6267 64.9867 27.888 65.28 28.08 65.632C28.272 65.984 28.368 66.416 28.368 66.928C28.368 67.4933 28.2347 68.0213 27.968 68.512C27.7013 68.992 27.296 69.3813 26.752 69.68C26.2187 69.968 25.5307 70.112 24.688 70.112C23.984 70.112 23.3653 70.0053 22.832 69.792C22.2987 69.568 21.8613 69.2693 21.52 68.896C21.1787 68.5227 20.944 68.096 20.816 67.616L21.984 67.152ZM30.9315 62V59.76H32.1315V62H34.2595V63.12H32.1315V67.424C32.1315 67.9147 32.2328 68.272 32.4355 68.496C32.6488 68.72 32.9155 68.8533 33.2355 68.896C33.5662 68.9387 33.9075 68.9387 34.2595 68.896V69.936C33.8435 70.032 33.4328 70.0587 33.0275 70.016C32.6328 69.9733 32.2755 69.856 31.9555 69.664C31.6462 69.4613 31.3955 69.1787 31.2035 68.816C31.0222 68.4533 30.9315 67.9893 30.9315 67.424V63.12H29.7315V62H30.9315ZM36.0445 62H37.1485L37.2125 63.168C37.4258 62.88 37.6818 62.6347 37.9805 62.432C38.2898 62.2293 38.6258 62.0907 38.9885 62.016C39.3618 61.9307 39.7565 61.9253 40.1725 62V63.2C39.7245 63.1147 39.3192 63.1147 38.9565 63.2C38.6045 63.2853 38.3005 63.4453 38.0445 63.68C37.7885 63.9147 37.5912 64.2133 37.4525 64.576C37.3138 64.928 37.2445 65.3387 37.2445 65.808V70H36.0445V62ZM42.0501 62H43.2341V70H42.0501V62ZM42.6581 60.4C42.4128 60.4 42.2101 60.32 42.0501 60.16C41.8901 60 41.8101 59.8027 41.8101 59.568C41.8101 59.3227 41.8901 59.12 42.0501 58.96C42.2101 58.8 42.4128 58.72 42.6581 58.72C42.8821 58.72 43.0741 58.8 43.2341 58.96C43.4048 59.12 43.4901 59.3227 43.4901 59.568C43.4901 59.8027 43.4048 60 43.2341 60.16C43.0741 60.32 42.8821 60.4 42.6581 60.4ZM45.9351 62H47.0391L47.1031 63.136C47.3591 62.7413 47.6951 62.4373 48.1111 62.224C48.5271 62 49.0125 61.888 49.5671 61.888C50.1751 61.888 50.7085 62.0213 51.1671 62.288C51.6258 62.544 51.9831 62.9333 52.2391 63.456C52.4951 63.968 52.6231 64.6133 52.6231 65.392V70H51.4231V65.536C51.4231 64.704 51.2418 64.0747 50.8791 63.648C50.5271 63.2107 50.0151 62.992 49.3431 62.992C48.6498 62.992 48.1058 63.2213 47.7111 63.68C47.3271 64.1387 47.1351 64.816 47.1351 65.712V70H45.9351V62ZM61.0948 62H62.1988V68.528C62.1988 69.5093 61.9801 70.3467 61.5428 71.04C61.1054 71.744 60.4708 72.2773 59.6388 72.64C58.8068 73.0133 57.7934 73.2 56.5988 73.2L56.4068 72.096C57.9108 72.0747 59.0521 71.76 59.8308 71.152C60.6094 70.5547 60.9988 69.68 60.9988 68.528V68.352L61.1268 68.384C60.8814 68.8533 60.5134 69.2587 60.0228 69.6C59.5321 69.9307 58.8974 70.1013 58.1188 70.112C57.3828 70.112 56.7374 69.9467 56.1828 69.616C55.6388 69.2747 55.2121 68.7947 54.9028 68.176C54.6041 67.5573 54.4548 66.832 54.4548 66C54.4548 65.168 54.6041 64.448 54.9028 63.84C55.2121 63.2213 55.6388 62.7413 56.1828 62.4C56.7374 62.0587 57.3828 61.888 58.1188 61.888C58.5988 61.888 59.0254 61.9627 59.3988 62.112C59.7721 62.2507 60.0921 62.4427 60.3588 62.688C60.6254 62.9227 60.8441 63.1893 61.0148 63.488L61.0948 62ZM55.7508 66C55.7508 66.9173 55.9854 67.648 56.4548 68.192C56.9348 68.7253 57.5801 68.992 58.3908 68.992C58.8814 68.992 59.3241 68.8747 59.7188 68.64C60.1134 68.4053 60.4228 68.064 60.6468 67.616C60.8814 67.168 60.9988 66.6293 60.9988 66C60.9988 65.3707 60.8814 64.8373 60.6468 64.4C60.4228 63.952 60.1134 63.6107 59.7188 63.376C59.3241 63.1307 58.8814 63.008 58.3908 63.008C57.5908 63.008 56.9508 63.28 56.4708 63.824C55.9908 64.368 55.7508 65.0933 55.7508 66ZM68.0139 70.112C67.2672 70.112 66.6005 69.9307 66.0139 69.568C65.4379 69.2053 64.9845 68.7093 64.6539 68.08C64.3232 67.4507 64.1579 66.7307 64.1579 65.92C64.1579 65.1413 64.3232 64.448 64.6539 63.84C64.9845 63.232 65.4379 62.7573 66.0139 62.416C66.5899 62.064 67.2459 61.888 67.9819 61.888C68.7072 61.888 69.3525 62.048 69.9179 62.368C70.4939 62.688 70.9419 63.1307 71.2619 63.696C71.5819 64.2613 71.7312 64.9067 71.7099 65.632C71.7099 65.7493 71.7045 65.872 71.6939 66C71.6832 66.128 71.6725 66.2667 71.6619 66.416H65.4699C65.4912 66.9173 65.6139 67.36 65.8379 67.744C66.0619 68.128 66.3552 68.432 66.7179 68.656C67.0912 68.8693 67.5125 68.976 67.9819 68.976C68.6005 68.976 69.1232 68.8587 69.5499 68.624C69.9872 68.3893 70.3019 68.0533 70.4939 67.616L71.5339 68.032C71.2139 68.704 70.7499 69.2213 70.1419 69.584C69.5339 69.936 68.8245 70.112 68.0139 70.112ZM70.3979 65.376C70.4085 64.9173 70.3072 64.512 70.0939 64.16C69.8912 63.808 69.6032 63.5307 69.2299 63.328C68.8565 63.1253 68.4245 63.024 67.9339 63.024C67.5072 63.024 67.1179 63.1253 66.7659 63.328C66.4139 63.5307 66.1205 63.8133 65.8859 64.176C65.6619 64.528 65.5285 64.928 65.4859 65.376H70.3979ZM73.6851 62H74.7891L74.8531 63.136C75.1091 62.7413 75.4451 62.4373 75.8611 62.224C76.2771 62 76.7625 61.888 77.3171 61.888C77.9251 61.888 78.4585 62.0213 78.9171 62.288C79.3758 62.544 79.7331 62.9333 79.9891 63.456C80.2451 63.968 80.3731 64.6133 80.3731 65.392V70H79.1731V65.536C79.1731 64.704 78.9918 64.0747 78.6291 63.648C78.2771 63.2107 77.7651 62.992 77.0931 62.992C76.3998 62.992 75.8558 63.2213 75.4611 63.68C75.0771 64.1387 74.8851 64.816 74.8851 65.712V70H73.6851V62ZM83.2128 62V59.76H84.4128V62H86.5408V63.12H84.4128V67.424C84.4128 67.9147 84.5141 68.272 84.7168 68.496C84.9301 68.72 85.1968 68.8533 85.5168 68.896C85.8474 68.9387 86.1888 68.9387 86.5408 68.896V69.936C86.1248 70.032 85.7141 70.0587 85.3088 70.016C84.9141 69.9733 84.5568 69.856 84.2368 69.664C83.9274 69.4613 83.6768 69.1787 83.4848 68.816C83.3034 68.4533 83.2128 67.9893 83.2128 67.424V63.12H82.0128V62H83.2128ZM96.2181 70.112C95.4395 70.112 94.7568 69.9413 94.1701 69.6C93.5835 69.2587 93.1248 68.784 92.7941 68.176C92.4741 67.5573 92.3141 66.8427 92.3141 66.032C92.3141 65.2107 92.4741 64.4907 92.7941 63.872C93.1248 63.2427 93.5835 62.7573 94.1701 62.416C94.7568 62.064 95.4395 61.888 96.2181 61.888C97.0395 61.888 97.7595 62.08 98.3781 62.464C98.9968 62.8373 99.4448 63.36 99.7221 64.032L98.6181 64.416C98.4581 63.9893 98.1648 63.6533 97.7381 63.408C97.3221 63.152 96.8368 63.024 96.2821 63.024C95.7381 63.024 95.2635 63.1467 94.8581 63.392C94.4635 63.6373 94.1541 63.984 93.9301 64.432C93.7168 64.88 93.6101 65.408 93.6101 66.016C93.6101 66.912 93.8501 67.632 94.3301 68.176C94.8101 68.7093 95.4501 68.976 96.2501 68.976C96.7941 68.976 97.2795 68.8533 97.7061 68.608C98.1328 68.3627 98.4475 68.032 98.6501 67.616L99.7381 68C99.4501 68.6613 98.9968 69.1787 98.3781 69.552C97.7595 69.9253 97.0395 70.112 96.2181 70.112ZM101.701 58.48H102.901V63.088C103.157 62.704 103.503 62.4107 103.941 62.208C104.378 61.9947 104.869 61.888 105.413 61.888C105.999 61.888 106.522 62.0213 106.981 62.288C107.439 62.5547 107.797 62.9493 108.053 63.472C108.319 63.9947 108.453 64.6453 108.453 65.424V70H107.173V65.568C107.173 64.736 106.997 64.1013 106.645 63.664C106.293 63.216 105.781 62.992 105.109 62.992C104.415 62.992 103.871 63.2267 103.477 63.696C103.093 64.1653 102.901 64.848 102.901 65.744V70H101.701V58.48ZM114.139 70.112C113.392 70.112 112.726 69.9307 112.139 69.568C111.563 69.2053 111.11 68.7093 110.779 68.08C110.448 67.4507 110.283 66.7307 110.283 65.92C110.283 65.1413 110.448 64.448 110.779 63.84C111.11 63.232 111.563 62.7573 112.139 62.416C112.715 62.064 113.371 61.888 114.107 61.888C114.832 61.888 115.478 62.048 116.043 62.368C116.619 62.688 117.067 63.1307 117.387 63.696C117.707 64.2613 117.856 64.9067 117.835 65.632C117.835 65.7493 117.83 65.872 117.819 66C117.808 66.128 117.798 66.2667 117.787 66.416H111.595C111.616 66.9173 111.739 67.36 111.963 67.744C112.187 68.128 112.48 68.432 112.843 68.656C113.216 68.8693 113.638 68.976 114.107 68.976C114.726 68.976 115.248 68.8587 115.675 68.624C116.112 68.3893 116.427 68.0533 116.619 67.616L117.659 68.032C117.339 68.704 116.875 69.2213 116.267 69.584C115.659 69.936 114.95 70.112 114.139 70.112ZM116.523 65.376C116.534 64.9173 116.432 64.512 116.219 64.16C116.016 63.808 115.728 63.5307 115.355 63.328C114.982 63.1253 114.55 63.024 114.059 63.024C113.632 63.024 113.243 63.1253 112.891 63.328C112.539 63.5307 112.246 63.8133 112.011 64.176C111.787 64.528 111.654 64.928 111.611 65.376H116.523ZM123.218 70.112C122.439 70.112 121.757 69.9413 121.17 69.6C120.583 69.2587 120.125 68.784 119.794 68.176C119.474 67.5573 119.314 66.8427 119.314 66.032C119.314 65.2107 119.474 64.4907 119.794 63.872C120.125 63.2427 120.583 62.7573 121.17 62.416C121.757 62.064 122.439 61.888 123.218 61.888C124.039 61.888 124.759 62.08 125.378 62.464C125.997 62.8373 126.445 63.36 126.722 64.032L125.618 64.416C125.458 63.9893 125.165 63.6533 124.738 63.408C124.322 63.152 123.837 63.024 123.282 63.024C122.738 63.024 122.263 63.1467 121.858 63.392C121.463 63.6373 121.154 63.984 120.93 64.432C120.717 64.88 120.61 65.408 120.61 66.016C120.61 66.912 120.85 67.632 121.33 68.176C121.81 68.7093 122.45 68.976 123.25 68.976C123.794 68.976 124.279 68.8533 124.706 68.608C125.133 68.3627 125.447 68.032 125.65 67.616L126.738 68C126.45 68.6613 125.997 69.1787 125.378 69.552C124.759 69.9253 124.039 70.112 123.218 70.112ZM128.701 58.48H129.917V65.472H130.653L133.805 62H135.501L131.725 66L135.517 70H133.805L130.653 66.512H129.917V70H128.701V58.48ZM137.638 67.552C137.702 67.872 137.819 68.1387 137.99 68.352C138.161 68.5547 138.379 68.7093 138.646 68.816C138.923 68.9227 139.243 68.976 139.606 68.976C140.171 68.976 140.598 68.8693 140.886 68.656C141.185 68.432 141.334 68.1547 141.334 67.824C141.334 67.5467 141.243 67.3227 141.062 67.152C140.891 66.9813 140.662 66.8427 140.374 66.736C140.086 66.6187 139.766 66.5173 139.414 66.432C139.137 66.368 138.838 66.2933 138.518 66.208C138.198 66.112 137.894 65.984 137.606 65.824C137.318 65.664 137.083 65.456 136.902 65.2C136.721 64.944 136.63 64.608 136.63 64.192C136.63 63.7333 136.753 63.3333 136.998 62.992C137.254 62.64 137.601 62.368 138.038 62.176C138.486 61.984 138.998 61.888 139.574 61.888C140.235 61.888 140.822 62.032 141.334 62.32C141.857 62.608 142.219 63.056 142.422 63.664L141.302 64.048C141.227 63.7707 141.089 63.5573 140.886 63.408C140.694 63.2587 140.475 63.1573 140.23 63.104C139.995 63.0507 139.761 63.024 139.526 63.024C139.046 63.024 138.657 63.12 138.358 63.312C138.07 63.4933 137.926 63.7707 137.926 64.144C137.926 64.3467 137.974 64.5173 138.07 64.656C138.166 64.784 138.299 64.8907 138.47 64.976C138.641 65.0613 138.843 65.136 139.078 65.2C139.313 65.2533 139.569 65.3173 139.846 65.392C140.155 65.4667 140.47 65.5627 140.79 65.68C141.11 65.7867 141.409 65.9307 141.686 66.112C141.963 66.2827 142.187 66.5067 142.358 66.784C142.539 67.0507 142.63 67.3867 142.63 67.792C142.63 68.2613 142.502 68.672 142.246 69.024C141.99 69.3653 141.633 69.632 141.174 69.824C140.726 70.016 140.203 70.112 139.606 70.112C138.785 70.112 138.102 69.9307 137.558 69.568C137.025 69.1947 136.667 68.6507 136.486 67.936L137.638 67.552ZM149.492 61.056C149.492 60.4693 149.588 59.9733 149.78 59.568C149.972 59.1627 150.276 58.8693 150.692 58.688C151.119 58.496 151.684 58.4267 152.388 58.48V59.552C151.748 59.4987 151.305 59.6053 151.06 59.872C150.815 60.128 150.692 60.5227 150.692 61.056V62H152.452V63.12H150.692V70H149.492V63.12H148.372V62H149.492V61.056ZM157.547 70.112C156.79 70.112 156.113 69.9467 155.515 69.616C154.918 69.2853 154.449 68.816 154.107 68.208C153.766 67.5893 153.595 66.8587 153.595 66.016C153.595 65.1627 153.766 64.4267 154.107 63.808C154.459 63.1893 154.934 62.7147 155.531 62.384C156.139 62.0533 156.822 61.888 157.579 61.888C158.337 61.888 159.014 62.0533 159.611 62.384C160.219 62.7147 160.694 63.1893 161.035 63.808C161.387 64.416 161.563 65.1413 161.563 65.984C161.563 66.8373 161.387 67.5733 161.035 68.192C160.683 68.8107 160.203 69.2853 159.595 69.616C158.987 69.9467 158.305 70.112 157.547 70.112ZM157.531 68.976C158.001 68.976 158.443 68.8747 158.859 68.672C159.275 68.4587 159.611 68.1333 159.867 67.696C160.134 67.248 160.267 66.6827 160.267 66C160.267 65.3067 160.139 64.7413 159.883 64.304C159.627 63.8667 159.291 63.5467 158.875 63.344C158.47 63.1307 158.033 63.024 157.563 63.024C157.094 63.024 156.657 63.1307 156.251 63.344C155.846 63.5467 155.515 63.872 155.259 64.32C155.014 64.7573 154.891 65.3173 154.891 66C154.891 66.6933 155.014 67.2587 155.259 67.696C155.505 68.1333 155.825 68.4587 156.219 68.672C156.625 68.8747 157.062 68.976 157.531 68.976ZM163.529 62H164.633L164.697 63.168C164.91 62.88 165.166 62.6347 165.465 62.432C165.774 62.2293 166.11 62.0907 166.473 62.016C166.846 61.9307 167.241 61.9253 167.657 62V63.2C167.209 63.1147 166.804 63.1147 166.441 63.2C166.089 63.2853 165.785 63.4453 165.529 63.68C165.273 63.9147 165.076 64.2133 164.937 64.576C164.798 64.928 164.729 65.3387 164.729 65.808V70H163.529V62ZM177.187 70.112C176.408 70.112 175.726 69.9413 175.139 69.6C174.552 69.2587 174.094 68.784 173.763 68.176C173.443 67.5573 173.283 66.8427 173.283 66.032C173.283 65.2107 173.443 64.4907 173.763 63.872C174.094 63.2427 174.552 62.7573 175.139 62.416C175.726 62.064 176.408 61.888 177.187 61.888C178.008 61.888 178.728 62.08 179.347 62.464C179.966 62.8373 180.414 63.36 180.691 64.032L179.587 64.416C179.427 63.9893 179.134 63.6533 178.707 63.408C178.291 63.152 177.806 63.024 177.251 63.024C176.707 63.024 176.232 63.1467 175.827 63.392C175.432 63.6373 175.123 63.984 174.899 64.432C174.686 64.88 174.579 65.408 174.579 66.016C174.579 66.912 174.819 67.632 175.299 68.176C175.779 68.7093 176.419 68.976 177.219 68.976C177.763 68.976 178.248 68.8533 178.675 68.608C179.102 68.3627 179.416 68.032 179.619 67.616L180.707 68C180.419 68.6613 179.966 69.1787 179.347 69.552C178.728 69.9253 178.008 70.112 177.187 70.112ZM186.126 70.112C185.368 70.112 184.691 69.9467 184.094 69.616C183.496 69.2853 183.027 68.816 182.686 68.208C182.344 67.5893 182.174 66.8587 182.174 66.016C182.174 65.1627 182.344 64.4267 182.686 63.808C183.038 63.1893 183.512 62.7147 184.11 62.384C184.718 62.0533 185.4 61.888 186.158 61.888C186.915 61.888 187.592 62.0533 188.19 62.384C188.798 62.7147 189.272 63.1893 189.614 63.808C189.966 64.416 190.142 65.1413 190.142 65.984C190.142 66.8373 189.966 67.5733 189.614 68.192C189.262 68.8107 188.782 69.2853 188.174 69.616C187.566 69.9467 186.883 70.112 186.126 70.112ZM186.11 68.976C186.579 68.976 187.022 68.8747 187.438 68.672C187.854 68.4587 188.19 68.1333 188.446 67.696C188.712 67.248 188.846 66.6827 188.846 66C188.846 65.3067 188.718 64.7413 188.462 64.304C188.206 63.8667 187.87 63.5467 187.454 63.344C187.048 63.1307 186.611 63.024 186.141 63.024C185.672 63.024 185.235 63.1307 184.83 63.344C184.424 63.5467 184.094 63.872 183.838 64.32C183.592 64.7573 183.47 65.3173 183.47 66C183.47 66.6933 183.592 67.2587 183.838 67.696C184.083 68.1333 184.403 68.4587 184.798 68.672C185.203 68.8747 185.64 68.976 186.11 68.976ZM192.107 62H193.211L193.275 63.136C193.531 62.7413 193.867 62.4373 194.283 62.224C194.699 62 195.184 61.888 195.739 61.888C196.347 61.888 196.88 62.0213 197.339 62.288C197.798 62.544 198.155 62.9333 198.411 63.456C198.667 63.968 198.795 64.6133 198.795 65.392V70H197.595V65.536C197.595 64.704 197.414 64.0747 197.051 63.648C196.699 63.2107 196.187 62.992 195.515 62.992C194.822 62.992 194.278 63.2213 193.883 63.68C193.499 64.1387 193.307 64.816 193.307 65.712V70H192.107V62ZM201.779 67.552C201.843 67.872 201.96 68.1387 202.131 68.352C202.301 68.5547 202.52 68.7093 202.787 68.816C203.064 68.9227 203.384 68.976 203.747 68.976C204.312 68.976 204.739 68.8693 205.027 68.656C205.325 68.432 205.475 68.1547 205.475 67.824C205.475 67.5467 205.384 67.3227 205.203 67.152C205.032 66.9813 204.803 66.8427 204.515 66.736C204.227 66.6187 203.907 66.5173 203.555 66.432C203.277 66.368 202.979 66.2933 202.659 66.208C202.339 66.112 202.035 65.984 201.747 65.824C201.459 65.664 201.224 65.456 201.043 65.2C200.861 64.944 200.771 64.608 200.771 64.192C200.771 63.7333 200.893 63.3333 201.139 62.992C201.395 62.64 201.741 62.368 202.179 62.176C202.627 61.984 203.139 61.888 203.715 61.888C204.376 61.888 204.963 62.032 205.475 62.32C205.997 62.608 206.36 63.056 206.563 63.664L205.443 64.048C205.368 63.7707 205.229 63.5573 205.027 63.408C204.835 63.2587 204.616 63.1573 204.371 63.104C204.136 63.0507 203.901 63.024 203.667 63.024C203.187 63.024 202.797 63.12 202.499 63.312C202.211 63.4933 202.067 63.7707 202.067 64.144C202.067 64.3467 202.115 64.5173 202.211 64.656C202.307 64.784 202.44 64.8907 202.611 64.976C202.781 65.0613 202.984 65.136 203.219 65.2C203.453 65.2533 203.709 65.3173 203.987 65.392C204.296 65.4667 204.611 65.5627 204.931 65.68C205.251 65.7867 205.549 65.9307 205.827 66.112C206.104 66.2827 206.328 66.5067 206.499 66.784C206.68 67.0507 206.771 67.3867 206.771 67.792C206.771 68.2613 206.643 68.672 206.387 69.024C206.131 69.3653 205.773 69.632 205.315 69.824C204.867 70.016 204.344 70.112 203.747 70.112C202.925 70.112 202.243 69.9307 201.699 69.568C201.165 69.1947 200.808 68.6507 200.627 67.936L201.779 67.552ZM208.956 62H210.14V70H208.956V62ZM209.564 60.4C209.319 60.4 209.116 60.32 208.956 60.16C208.796 60 208.716 59.8027 208.716 59.568C208.716 59.3227 208.796 59.12 208.956 58.96C209.116 58.8 209.319 58.72 209.564 58.72C209.788 58.72 209.98 58.8 210.14 58.96C210.311 59.12 210.396 59.3227 210.396 59.568C210.396 59.8027 210.311 60 210.14 60.16C209.98 60.32 209.788 60.4 209.564 60.4ZM213.497 67.552C213.561 67.872 213.679 68.1387 213.849 68.352C214.02 68.5547 214.239 68.7093 214.505 68.816C214.783 68.9227 215.103 68.976 215.465 68.976C216.031 68.976 216.457 68.8693 216.745 68.656C217.044 68.432 217.193 68.1547 217.193 67.824C217.193 67.5467 217.103 67.3227 216.921 67.152C216.751 66.9813 216.521 66.8427 216.233 66.736C215.945 66.6187 215.625 66.5173 215.273 66.432C214.996 66.368 214.697 66.2933 214.377 66.208C214.057 66.112 213.753 65.984 213.465 65.824C213.177 65.664 212.943 65.456 212.761 65.2C212.58 64.944 212.489 64.608 212.489 64.192C212.489 63.7333 212.612 63.3333 212.857 62.992C213.113 62.64 213.46 62.368 213.897 62.176C214.345 61.984 214.857 61.888 215.433 61.888C216.095 61.888 216.681 62.032 217.193 62.32C217.716 62.608 218.079 63.056 218.281 63.664L217.161 64.048C217.087 63.7707 216.948 63.5573 216.745 63.408C216.553 63.2587 216.335 63.1573 216.089 63.104C215.855 63.0507 215.62 63.024 215.385 63.024C214.905 63.024 214.516 63.12 214.217 63.312C213.929 63.4933 213.785 63.7707 213.785 64.144C213.785 64.3467 213.833 64.5173 213.929 64.656C214.025 64.784 214.159 64.8907 214.329 64.976C214.5 65.0613 214.703 65.136 214.937 65.2C215.172 65.2533 215.428 65.3173 215.705 65.392C216.015 65.4667 216.329 65.5627 216.649 65.68C216.969 65.7867 217.268 65.9307 217.545 66.112C217.823 66.2827 218.047 66.5067 218.217 66.784C218.399 67.0507 218.489 67.3867 218.489 67.792C218.489 68.2613 218.361 68.672 218.105 69.024C217.849 69.3653 217.492 69.632 217.033 69.824C216.585 70.016 216.063 70.112 215.465 70.112C214.644 70.112 213.961 69.9307 213.417 69.568C212.884 69.1947 212.527 68.6507 212.345 67.936L213.497 67.552ZM220.947 62V59.76H222.147V62H224.275V63.12H222.147V67.424C222.147 67.9147 222.248 68.272 222.451 68.496C222.664 68.72 222.931 68.8533 223.251 68.896C223.582 68.9387 223.923 68.9387 224.275 68.896V69.936C223.859 70.032 223.448 70.0587 223.043 70.016C222.648 69.9733 222.291 69.856 221.971 69.664C221.662 69.4613 221.411 69.1787 221.219 68.816C221.038 68.4533 220.947 67.9893 220.947 67.424V63.12H219.747V62H220.947ZM229.42 70.112C228.673 70.112 228.007 69.9307 227.42 69.568C226.844 69.2053 226.391 68.7093 226.06 68.08C225.729 67.4507 225.564 66.7307 225.564 65.92C225.564 65.1413 225.729 64.448 226.06 63.84C226.391 63.232 226.844 62.7573 227.42 62.416C227.996 62.064 228.652 61.888 229.388 61.888C230.113 61.888 230.759 62.048 231.324 62.368C231.9 62.688 232.348 63.1307 232.668 63.696C232.988 64.2613 233.137 64.9067 233.116 65.632C233.116 65.7493 233.111 65.872 233.1 66C233.089 66.128 233.079 66.2667 233.068 66.416H226.876C226.897 66.9173 227.02 67.36 227.244 67.744C227.468 68.128 227.761 68.432 228.124 68.656C228.497 68.8693 228.919 68.976 229.388 68.976C230.007 68.976 230.529 68.8587 230.956 68.624C231.393 68.3893 231.708 68.0533 231.9 67.616L232.94 68.032C232.62 68.704 232.156 69.2213 231.548 69.584C230.94 69.936 230.231 70.112 229.42 70.112ZM231.804 65.376C231.815 64.9173 231.713 64.512 231.5 64.16C231.297 63.808 231.009 63.5307 230.636 63.328C230.263 63.1253 229.831 63.024 229.34 63.024C228.913 63.024 228.524 63.1253 228.172 63.328C227.82 63.5307 227.527 63.8133 227.292 64.176C227.068 64.528 226.935 64.928 226.892 65.376H231.804ZM235.091 62H236.195L236.259 63.136C236.515 62.7413 236.851 62.4373 237.267 62.224C237.683 62 238.169 61.888 238.723 61.888C239.331 61.888 239.865 62.0213 240.323 62.288C240.782 62.544 241.139 62.9333 241.395 63.456C241.651 63.968 241.779 64.6133 241.779 65.392V70H240.579V65.536C240.579 64.704 240.398 64.0747 240.035 63.648C239.683 63.2107 239.171 62.992 238.499 62.992C237.806 62.992 237.262 63.2213 236.867 63.68C236.483 64.1387 236.291 64.816 236.291 65.712V70H235.091V62ZM244.619 62V59.76H245.819V62H247.947V63.12H245.819V67.424C245.819 67.9147 245.92 68.272 246.123 68.496C246.336 68.72 246.603 68.8533 246.923 68.896C247.254 68.9387 247.595 68.9387 247.947 68.896V69.936C247.531 70.032 247.12 70.0587 246.715 70.016C246.32 69.9733 245.963 69.856 245.643 69.664C245.334 69.4613 245.083 69.1787 244.891 68.816C244.71 68.4533 244.619 67.9893 244.619 67.424V63.12H243.419V62H244.619ZM27.408 92.384C27.1627 92.8747 26.7893 93.2853 26.288 93.616C25.7867 93.9467 25.1573 94.112 24.4 94.112C23.664 94.112 23.0187 93.9413 22.464 93.6C21.92 93.2587 21.4933 92.784 21.184 92.176C20.8853 91.5573 20.736 90.832 20.736 90C20.736 89.1573 20.8853 88.432 21.184 87.824C21.4933 87.2053 21.92 86.7307 22.464 86.4C23.0187 86.0587 23.664 85.888 24.4 85.888C25.1147 85.888 25.712 86.0427 26.192 86.352C26.6827 86.6613 27.0507 87.04 27.296 87.488L27.376 86H28.48V97.2H27.28V92.368L27.408 92.384ZM22.032 90C22.032 90.9173 22.2667 91.648 22.736 92.192C23.216 92.7253 23.856 92.992 24.656 92.992C25.1573 92.992 25.6053 92.8747 26 92.64C26.3947 92.3947 26.704 92.048 26.928 91.6C27.1627 91.152 27.28 90.6187 27.28 90C27.28 89.3707 27.1627 88.832 26.928 88.384C26.704 87.936 26.3947 87.5947 26 87.36C25.6053 87.1253 25.1573 87.008 24.656 87.008C23.8453 87.008 23.2053 87.28 22.736 87.824C22.2667 88.3573 22.032 89.0827 22.032 90ZM37.4791 94H36.3911L36.3111 92.848C36.0658 93.2533 35.7351 93.568 35.3191 93.792C34.9031 94.0053 34.4178 94.112 33.8631 94.112C33.2445 94.112 32.7058 93.984 32.2471 93.728C31.7885 93.472 31.4311 93.088 31.1751 92.576C30.9298 92.064 30.8071 91.4187 30.8071 90.64V86H31.9911V90.512C31.9911 91.3333 32.1671 91.9573 32.5191 92.384C32.8818 92.8 33.3991 93.008 34.0711 93.008C34.7538 93.008 35.2925 92.7893 35.6871 92.352C36.0925 91.904 36.2951 91.232 36.2951 90.336V86H37.4791V94ZM44.9275 94L44.8315 92.56C44.6075 93.0507 44.2768 93.4347 43.8395 93.712C43.4022 93.9787 42.8475 94.112 42.1755 94.112C41.5995 94.112 41.1088 94.0213 40.7035 93.84C40.2982 93.6587 39.9835 93.4027 39.7595 93.072C39.5462 92.7307 39.4395 92.3307 39.4395 91.872C39.4395 91.2 39.6902 90.6507 40.1915 90.224C40.6928 89.7867 41.4182 89.52 42.3675 89.424L44.8315 89.152V88.512C44.8315 88.064 44.6662 87.7067 44.3355 87.44C44.0048 87.1627 43.5568 87.024 42.9915 87.024C42.4368 87.024 41.9728 87.152 41.5995 87.408C41.2368 87.664 40.9862 88.032 40.8475 88.512L39.7595 88.128C39.9728 87.424 40.3622 86.8747 40.9275 86.48C41.5035 86.0853 42.2022 85.888 43.0235 85.888C43.9728 85.888 44.7088 86.1333 45.2315 86.624C45.7648 87.104 46.0315 87.76 46.0315 88.592V94H44.9275ZM44.8315 90.176L42.3515 90.464C41.8182 90.528 41.4128 90.6773 41.1355 90.912C40.8582 91.136 40.7195 91.4347 40.7195 91.808C40.7195 92.1813 40.8528 92.48 41.1195 92.704C41.3968 92.928 41.7915 93.04 42.3035 93.04C42.8902 93.04 43.3702 92.9227 43.7435 92.688C44.1168 92.4533 44.3888 92.1387 44.5595 91.744C44.7408 91.3387 44.8315 90.9013 44.8315 90.432V90.176ZM48.3726 82.48H49.5726V94H48.3726V82.48ZM52.2533 86H53.4373V94H52.2533V86ZM52.8613 84.4C52.6159 84.4 52.4133 84.32 52.2533 84.16C52.0933 84 52.0133 83.8027 52.0133 83.568C52.0133 83.3227 52.0933 83.12 52.2533 82.96C52.4133 82.8 52.6159 82.72 52.8613 82.72C53.0853 82.72 53.2773 82.8 53.4373 82.96C53.6079 83.12 53.6933 83.3227 53.6933 83.568C53.6933 83.8027 53.6079 84 53.4373 84.16C53.2773 84.32 53.0853 84.4 52.8613 84.4ZM56.6503 86V83.76H57.8503V86H59.9783V87.12H57.8503V91.424C57.8503 91.9147 57.9516 92.272 58.1543 92.496C58.3676 92.72 58.6343 92.8533 58.9543 92.896C59.2849 92.9387 59.6263 92.9387 59.9783 92.896V93.936C59.5623 94.032 59.1516 94.0587 58.7463 94.016C58.3516 93.9733 57.9943 93.856 57.6743 93.664C57.3649 93.4613 57.1143 93.1787 56.9223 92.816C56.7409 92.4533 56.6503 91.9893 56.6503 91.424V87.12H55.4503V86H56.6503ZM67.1873 86H68.4353L63.8593 97.2H62.7073L64.0673 93.888L60.8353 86H62.1473L64.7073 92.464L67.1873 86Z" fill="white"/>
</svg>
