<svg width="288" height="120" viewBox="0 0 288 120" fill="none" xmlns="http://www.w3.org/2000/svg">
<mask id="path-1-inside-1_10385_10469" fill="white">
<path d="M0 8C0 3.58172 3.58172 0 8 0H280C284.418 0 288 3.58172 288 8V112C288 116.418 284.418 120 280 120H8C3.58173 120 0 116.418 0 112V8Z"/>
</mask>
<path d="M0 8C0 3.58172 3.58172 0 8 0H280C284.418 0 288 3.58172 288 8V112C288 116.418 284.418 120 280 120H8C3.58173 120 0 116.418 0 112V8Z" fill="white" fill-opacity="0.2"/>
<path d="M0 0H288H0ZM288 120H0H288ZM8 120C1.37258 120 -4 114.627 -4 108V12C-4 5.37258 1.37258 0 8 0C5.79086 0 4 3.58172 4 8V112C4 116.418 5.79086 120 8 120ZM288 0V120V0Z" fill="#F26829" mask="url(#path-1-inside-1_10385_10469)"/>
<path d="M21.488 26.2H33.68V29.296H25.184V33.016H31.544V35.944H25.184V43H21.488V26.2ZM40.5144 43L40.2744 41.512C39.8584 42.024 39.4104 42.424 38.9304 42.712C38.4504 43 37.8104 43.144 37.0104 43.144C36.2584 43.144 35.5864 43.016 34.9944 42.76C34.4024 42.488 33.9304 42.096 33.5784 41.584C33.2424 41.072 33.0744 40.456 33.0744 39.736C33.0744 38.744 33.4264 37.92 34.1304 37.264C34.8504 36.608 35.9624 36.2 37.4664 36.04L40.2744 35.728V34.936C40.2744 34.664 40.1384 34.4 39.8664 34.144C39.6104 33.872 39.2024 33.736 38.6424 33.736C38.1464 33.736 37.7144 33.864 37.3464 34.12C36.9944 34.376 36.7544 34.744 36.6264 35.224L33.6264 34.144C33.9784 33.072 34.5944 32.256 35.4744 31.696C36.3704 31.12 37.4744 30.832 38.7864 30.832C40.4184 30.832 41.6584 31.24 42.5064 32.056C43.3544 32.872 43.7784 33.968 43.7784 35.344V43H40.5144ZM40.2744 37.888L38.0424 38.152C37.5944 38.216 37.2504 38.36 37.0104 38.584C36.7864 38.792 36.6744 39.056 36.6744 39.376C36.6744 39.68 36.8024 39.936 37.0584 40.144C37.3144 40.352 37.6664 40.456 38.1144 40.456C38.5624 40.456 38.9464 40.368 39.2664 40.192C39.5864 40 39.8344 39.736 40.0104 39.4C40.1864 39.048 40.2744 38.616 40.2744 38.104V37.888ZM46.3049 31H49.4969L49.7369 32.584C50.0409 32.168 50.4009 31.824 50.8169 31.552C51.2489 31.264 51.7209 31.072 52.2329 30.976C52.7609 30.88 53.3369 30.888 53.9609 31V34.312C53.5449 34.168 53.0969 34.128 52.6169 34.192C52.1369 34.24 51.6809 34.4 51.2489 34.672C50.8169 34.928 50.4649 35.312 50.1929 35.824C49.9369 36.336 49.8089 36.984 49.8089 37.768V43H46.3049V31ZM55.7268 31H58.8948L59.1348 32.224C59.5188 31.808 59.9748 31.472 60.5028 31.216C61.0308 30.96 61.6068 30.832 62.2308 30.832C62.9668 30.832 63.6468 30.992 64.2708 31.312C64.9108 31.632 65.4228 32.096 65.8068 32.704C66.2548 32.144 66.8068 31.696 67.4628 31.36C68.1348 31.008 68.8708 30.832 69.6708 30.832C70.6148 30.832 71.4308 31.032 72.1188 31.432C72.8228 31.832 73.3668 32.416 73.7508 33.184C74.1348 33.952 74.3268 34.888 74.3268 35.992V43H70.8228V36.424C70.8228 35.656 70.6468 35.072 70.2948 34.672C69.9428 34.256 69.4468 34.048 68.8068 34.048C68.1348 34.048 67.6148 34.256 67.2468 34.672C66.8788 35.088 66.6948 35.696 66.6948 36.496V43H63.1908V36.424C63.1908 35.656 63.0308 35.072 62.7108 34.672C62.3908 34.256 61.9028 34.048 61.2468 34.048C60.5748 34.048 60.0708 34.256 59.7348 34.672C59.3988 35.088 59.2308 35.68 59.2308 36.448V43H55.7268V31ZM84.218 30.112C84.218 28.976 84.426 28.064 84.842 27.376C85.274 26.688 85.89 26.208 86.69 25.936C87.49 25.664 88.466 25.592 89.618 25.72V28.84C88.978 28.744 88.498 28.832 88.178 29.104C87.874 29.36 87.722 29.784 87.722 30.376V31H89.714V34.096H87.722V43H84.218V34.096H82.85V31H84.218V30.112ZM91.6799 31H94.8719L95.1119 32.584C95.4159 32.168 95.7759 31.824 96.1919 31.552C96.6239 31.264 97.0959 31.072 97.6079 30.976C98.1359 30.88 98.7119 30.888 99.3359 31V34.312C98.9199 34.168 98.4719 34.128 97.9919 34.192C97.5119 34.24 97.0559 34.4 96.6239 34.672C96.1919 34.928 95.8399 35.312 95.5679 35.824C95.3119 36.336 95.1839 36.984 95.1839 37.768V43H91.6799V31ZM106.435 43.168C105.203 43.168 104.131 42.912 103.219 42.4C102.307 41.872 101.595 41.136 101.083 40.192C100.587 39.248 100.339 38.144 100.339 36.88C100.339 35.712 100.587 34.672 101.083 33.76C101.579 32.848 102.275 32.136 103.171 31.624C104.067 31.096 105.083 30.832 106.219 30.832C107.419 30.832 108.459 31.08 109.339 31.576C110.219 32.056 110.907 32.744 111.403 33.64C111.899 34.536 112.147 35.576 112.147 36.76C112.147 36.952 112.139 37.152 112.123 37.36C112.107 37.568 112.083 37.8 112.051 38.056H104.083C104.163 38.488 104.315 38.864 104.539 39.184C104.763 39.488 105.043 39.728 105.379 39.904C105.731 40.064 106.131 40.144 106.579 40.144C107.075 40.144 107.523 40.04 107.923 39.832C108.323 39.624 108.619 39.328 108.811 38.944L111.955 39.808C111.475 40.88 110.755 41.712 109.795 42.304C108.835 42.88 107.715 43.168 106.435 43.168ZM108.331 35.776C108.315 35.376 108.211 35.024 108.019 34.72C107.827 34.416 107.579 34.176 107.275 34C106.971 33.824 106.635 33.744 106.267 33.76C105.899 33.776 105.563 33.872 105.259 34.048C104.971 34.208 104.723 34.44 104.515 34.744C104.307 35.032 104.179 35.376 104.131 35.776H108.331ZM116.914 39.064C116.994 39.384 117.122 39.632 117.298 39.808C117.49 39.984 117.714 40.112 117.97 40.192C118.226 40.272 118.49 40.312 118.762 40.312C119.258 40.312 119.642 40.224 119.914 40.048C120.186 39.872 120.322 39.648 120.322 39.376C120.322 39.104 120.218 38.904 120.01 38.776C119.818 38.632 119.562 38.52 119.242 38.44C118.922 38.344 118.586 38.256 118.234 38.176C117.834 38.08 117.386 37.968 116.89 37.84C116.394 37.696 115.922 37.504 115.474 37.264C115.026 37.008 114.658 36.672 114.37 36.256C114.082 35.824 113.938 35.288 113.938 34.648C113.938 33.912 114.138 33.256 114.538 32.68C114.938 32.104 115.506 31.656 116.242 31.336C116.978 31 117.85 30.832 118.858 30.832C120.09 30.832 121.098 31.088 121.882 31.6C122.666 32.112 123.226 32.832 123.562 33.76L120.514 34.528C120.434 34.32 120.314 34.16 120.154 34.048C119.994 33.92 119.794 33.832 119.554 33.784C119.33 33.72 119.106 33.688 118.882 33.688C118.466 33.688 118.138 33.768 117.898 33.928C117.658 34.088 117.538 34.288 117.538 34.528C117.538 34.688 117.586 34.824 117.682 34.936C117.794 35.048 117.938 35.136 118.114 35.2C118.306 35.264 118.522 35.32 118.762 35.368C119.018 35.416 119.29 35.48 119.578 35.56C120.058 35.672 120.546 35.808 121.042 35.968C121.554 36.128 122.026 36.344 122.458 36.616C122.89 36.872 123.242 37.224 123.514 37.672C123.786 38.104 123.93 38.664 123.946 39.352C123.946 40.056 123.746 40.704 123.346 41.296C122.946 41.872 122.362 42.328 121.594 42.664C120.826 43 119.89 43.168 118.786 43.168C117.458 43.168 116.346 42.896 115.45 42.352C114.554 41.808 113.986 40.968 113.746 39.832L116.914 39.064ZM126.063 25.72H129.567V32.248C129.935 31.832 130.383 31.496 130.911 31.24C131.455 30.968 132.071 30.832 132.759 30.832C133.671 30.832 134.463 31.032 135.135 31.432C135.807 31.832 136.327 32.416 136.695 33.184C137.063 33.952 137.247 34.888 137.247 35.992V43H133.551V36.424C133.551 35.624 133.383 35.016 133.047 34.6C132.727 34.184 132.239 33.976 131.583 33.976C130.911 33.976 130.407 34.216 130.071 34.696C129.735 35.176 129.567 35.824 129.567 36.64V43H126.063V25.72Z" fill="white"/>
<path d="M21.984 67.152C22.048 67.44 22.1813 67.728 22.384 68.016C22.5973 68.2933 22.8853 68.528 23.248 68.72C23.6213 68.9013 24.096 68.992 24.672 68.992C25.4933 68.992 26.1013 68.8 26.496 68.416C26.8907 68.032 27.088 67.5787 27.088 67.056C27.088 66.64 26.976 66.2987 26.752 66.032C26.528 65.7653 26.224 65.5467 25.84 65.376C25.456 65.1947 25.024 65.0347 24.544 64.896C24.1173 64.7787 23.6907 64.6507 23.264 64.512C22.848 64.3627 22.4693 64.1813 22.128 63.968C21.7867 63.744 21.5147 63.456 21.312 63.104C21.1093 62.752 21.008 62.3147 21.008 61.792C21.008 61.1627 21.1573 60.6187 21.456 60.16C21.7547 59.6907 22.176 59.328 22.72 59.072C23.264 58.816 23.8987 58.688 24.624 58.688C25.2533 58.688 25.8027 58.7787 26.272 58.96C26.7413 59.1413 27.1307 59.3973 27.44 59.728C27.76 60.048 27.9947 60.4213 28.144 60.848L27.008 61.28C26.9333 61.0347 26.7893 60.8 26.576 60.576C26.3627 60.3413 26.0853 60.1493 25.744 60C25.4027 59.8507 25.0133 59.776 24.576 59.776C24.1493 59.776 23.76 59.8507 23.408 60C23.0667 60.1493 22.7947 60.3627 22.592 60.64C22.3893 60.9173 22.288 61.2533 22.288 61.648C22.288 62.0747 22.4053 62.416 22.64 62.672C22.8853 62.9173 23.2053 63.12 23.6 63.28C24.0053 63.4293 24.448 63.5733 24.928 63.712C25.3653 63.8507 25.7867 64 26.192 64.16C26.608 64.32 26.976 64.5173 27.296 64.752C27.6267 64.9867 27.888 65.28 28.08 65.632C28.272 65.984 28.368 66.416 28.368 66.928C28.368 67.4933 28.2347 68.0213 27.968 68.512C27.7013 68.992 27.296 69.3813 26.752 69.68C26.2187 69.968 25.5307 70.112 24.688 70.112C23.984 70.112 23.3653 70.0053 22.832 69.792C22.2987 69.568 21.8613 69.2693 21.52 68.896C21.1787 68.5227 20.944 68.096 20.816 67.616L21.984 67.152ZM33.8755 70.112C33.1182 70.112 32.4408 69.9467 31.8435 69.616C31.2462 69.2853 30.7768 68.816 30.4355 68.208C30.0942 67.5893 29.9235 66.8587 29.9235 66.016C29.9235 65.1627 30.0942 64.4267 30.4355 63.808C30.7875 63.1893 31.2622 62.7147 31.8595 62.384C32.4675 62.0533 33.1502 61.888 33.9075 61.888C34.6648 61.888 35.3422 62.0533 35.9395 62.384C36.5475 62.7147 37.0222 63.1893 37.3635 63.808C37.7155 64.416 37.8915 65.1413 37.8915 65.984C37.8915 66.8373 37.7155 67.5733 37.3635 68.192C37.0115 68.8107 36.5315 69.2853 35.9235 69.616C35.3155 69.9467 34.6328 70.112 33.8755 70.112ZM33.8595 68.976C34.3288 68.976 34.7715 68.8747 35.1875 68.672C35.6035 68.4587 35.9395 68.1333 36.1955 67.696C36.4622 67.248 36.5955 66.6827 36.5955 66C36.5955 65.3067 36.4675 64.7413 36.2115 64.304C35.9555 63.8667 35.6195 63.5467 35.2035 63.344C34.7982 63.1307 34.3608 63.024 33.8915 63.024C33.4222 63.024 32.9848 63.1307 32.5795 63.344C32.1742 63.5467 31.8435 63.872 31.5875 64.32C31.3422 64.7573 31.2195 65.3173 31.2195 66C31.2195 66.6933 31.3422 67.2587 31.5875 67.696C31.8328 68.1333 32.1528 68.4587 32.5475 68.672C32.9528 68.8747 33.3902 68.976 33.8595 68.976ZM46.401 70H45.313L45.233 68.848C44.9877 69.2533 44.657 69.568 44.241 69.792C43.825 70.0053 43.3397 70.112 42.785 70.112C42.1663 70.112 41.6277 69.984 41.169 69.728C40.7103 69.472 40.353 69.088 40.097 68.576C39.8517 68.064 39.729 67.4187 39.729 66.64V62H40.913V66.512C40.913 67.3333 41.089 67.9573 41.441 68.384C41.8037 68.8 42.321 69.008 42.993 69.008C43.6757 69.008 44.2143 68.7893 44.609 68.352C45.0143 67.904 45.217 67.232 45.217 66.336V62H46.401V70ZM48.8414 62H49.9454L50.0094 63.168C50.2227 62.88 50.4787 62.6347 50.7774 62.432C51.0867 62.2293 51.4227 62.0907 51.7854 62.016C52.1587 61.9307 52.5534 61.9253 52.9694 62V63.2C52.5214 63.1147 52.116 63.1147 51.7534 63.2C51.4014 63.2853 51.0974 63.4453 50.8414 63.68C50.5854 63.9147 50.388 64.2133 50.2494 64.576C50.1107 64.928 50.0414 65.3387 50.0414 65.808V70H48.8414V62ZM57.8588 70.112C57.0801 70.112 56.3974 69.9413 55.8108 69.6C55.2241 69.2587 54.7654 68.784 54.4348 68.176C54.1148 67.5573 53.9548 66.8427 53.9548 66.032C53.9548 65.2107 54.1148 64.4907 54.4348 63.872C54.7654 63.2427 55.2241 62.7573 55.8108 62.416C56.3974 62.064 57.0801 61.888 57.8588 61.888C58.6801 61.888 59.4001 62.08 60.0188 62.464C60.6374 62.8373 61.0854 63.36 61.3628 64.032L60.2588 64.416C60.0988 63.9893 59.8054 63.6533 59.3788 63.408C58.9628 63.152 58.4774 63.024 57.9227 63.024C57.3788 63.024 56.9041 63.1467 56.4988 63.392C56.1041 63.6373 55.7948 63.984 55.5707 64.432C55.3574 64.88 55.2508 65.408 55.2508 66.016C55.2508 66.912 55.4908 67.632 55.9708 68.176C56.4508 68.7093 57.0908 68.976 57.8908 68.976C58.4348 68.976 58.9201 68.8533 59.3468 68.608C59.7734 68.3627 60.0881 68.032 60.2908 67.616L61.3788 68C61.0908 68.6613 60.6374 69.1787 60.0188 69.552C59.4001 69.9253 58.6801 70.112 57.8588 70.112ZM66.7014 70.112C65.9547 70.112 65.288 69.9307 64.7014 69.568C64.1254 69.2053 63.672 68.7093 63.3414 68.08C63.0107 67.4507 62.8454 66.7307 62.8454 65.92C62.8454 65.1413 63.0107 64.448 63.3414 63.84C63.672 63.232 64.1254 62.7573 64.7014 62.416C65.2774 62.064 65.9334 61.888 66.6694 61.888C67.3947 61.888 68.04 62.048 68.6054 62.368C69.1814 62.688 69.6294 63.1307 69.9494 63.696C70.2694 64.2613 70.4187 64.9067 70.3974 65.632C70.3974 65.7493 70.392 65.872 70.3814 66C70.3707 66.128 70.36 66.2667 70.3494 66.416H64.1574C64.1787 66.9173 64.3014 67.36 64.5254 67.744C64.7494 68.128 65.0427 68.432 65.4054 68.656C65.7787 68.8693 66.2 68.976 66.6694 68.976C67.288 68.976 67.8107 68.8587 68.2374 68.624C68.6747 68.3893 68.9894 68.0533 69.1814 67.616L70.2214 68.032C69.9014 68.704 69.4374 69.2213 68.8294 69.584C68.2214 69.936 67.512 70.112 66.7014 70.112ZM69.0854 65.376C69.096 64.9173 68.9947 64.512 68.7814 64.16C68.5787 63.808 68.2907 63.5307 67.9174 63.328C67.544 63.1253 67.112 63.024 66.6214 63.024C66.1947 63.024 65.8054 63.1253 65.4534 63.328C65.1014 63.5307 64.808 63.8133 64.5734 64.176C64.3494 64.528 64.216 64.928 64.1734 65.376H69.0854ZM78.5486 63.616L78.4206 63.632V58.48H79.6206V70H78.5166L78.4366 68.512C78.1913 68.96 77.8233 69.3387 77.3326 69.648C76.8526 69.9573 76.2553 70.112 75.5406 70.112C74.8046 70.112 74.1593 69.9467 73.6046 69.616C73.0606 69.2747 72.634 68.7947 72.3246 68.176C72.026 67.5573 71.8766 66.832 71.8766 66C71.8766 65.168 72.026 64.448 72.3246 63.84C72.634 63.2213 73.0606 62.7413 73.6046 62.4C74.1593 62.0587 74.8046 61.888 75.5406 61.888C76.298 61.888 76.9273 62.0533 77.4286 62.384C77.93 62.7147 78.3033 63.1253 78.5486 63.616ZM73.1726 66C73.1726 66.9173 73.4073 67.648 73.8766 68.192C74.346 68.7253 74.986 68.992 75.7966 68.992C76.298 68.992 76.746 68.8747 77.1406 68.64C77.5353 68.4053 77.8446 68.064 78.0686 67.616C78.3033 67.168 78.4206 66.6293 78.4206 66C78.4206 65.3707 78.3033 64.8373 78.0686 64.4C77.8446 63.952 77.5353 63.6107 77.1406 63.376C76.746 63.1307 76.298 63.008 75.7966 63.008C74.9966 63.008 74.3566 63.28 73.8766 63.824C73.4073 64.3573 73.1726 65.0827 73.1726 66ZM86.9921 61.056C86.9921 60.4693 87.0881 59.9733 87.2801 59.568C87.4721 59.1627 87.7761 58.8693 88.1921 58.688C88.6188 58.496 89.1841 58.4267 89.8881 58.48V59.552C89.2481 59.4987 88.8055 59.6053 88.5601 59.872C88.3148 60.128 88.1921 60.5227 88.1921 61.056V62H89.9521V63.12H88.1921V70H86.9921V63.12H85.8721V62H86.9921V61.056ZM91.7476 62H92.8516L92.9156 63.168C93.129 62.88 93.385 62.6347 93.6836 62.432C93.993 62.2293 94.329 62.0907 94.6916 62.016C95.065 61.9307 95.4596 61.9253 95.8756 62V63.2C95.4276 63.1147 95.0223 63.1147 94.6596 63.2C94.3076 63.2853 94.0036 63.4453 93.7476 63.68C93.4916 63.9147 93.2943 64.2133 93.1556 64.576C93.017 64.928 92.9476 65.3387 92.9476 65.808V70H91.7476V62ZM100.813 70.112C100.056 70.112 99.3783 69.9467 98.781 69.616C98.1837 69.2853 97.7143 68.816 97.373 68.208C97.0317 67.5893 96.861 66.8587 96.861 66.016C96.861 65.1627 97.0317 64.4267 97.373 63.808C97.725 63.1893 98.1997 62.7147 98.797 62.384C99.405 62.0533 100.088 61.888 100.845 61.888C101.602 61.888 102.28 62.0533 102.877 62.384C103.485 62.7147 103.96 63.1893 104.301 63.808C104.653 64.416 104.829 65.1413 104.829 65.984C104.829 66.8373 104.653 67.5733 104.301 68.192C103.949 68.8107 103.469 69.2853 102.861 69.616C102.253 69.9467 101.57 70.112 100.813 70.112ZM100.797 68.976C101.266 68.976 101.709 68.8747 102.125 68.672C102.541 68.4587 102.877 68.1333 103.133 67.696C103.4 67.248 103.533 66.6827 103.533 66C103.533 65.3067 103.405 64.7413 103.149 64.304C102.893 63.8667 102.557 63.5467 102.141 63.344C101.736 63.1307 101.298 63.024 100.829 63.024C100.36 63.024 99.9223 63.1307 99.517 63.344C99.1117 63.5467 98.781 63.872 98.525 64.32C98.2797 64.7573 98.157 65.3173 98.157 66C98.157 66.6933 98.2797 67.2587 98.525 67.696C98.7703 68.1333 99.0903 68.4587 99.485 68.672C99.8903 68.8747 100.328 68.976 100.797 68.976ZM106.795 62H107.899L107.979 63.152C108.213 62.768 108.528 62.464 108.923 62.24C109.328 62.0053 109.808 61.888 110.363 61.888C110.928 61.888 111.44 62.0267 111.899 62.304C112.368 62.5707 112.731 62.9707 112.987 63.504C113.232 62.96 113.605 62.5547 114.107 62.288C114.608 62.0213 115.163 61.888 115.771 61.888C116.368 61.888 116.896 62.0213 117.355 62.288C117.813 62.544 118.171 62.9333 118.427 63.456C118.683 63.968 118.811 64.6133 118.811 65.392V70H117.611V65.536C117.611 64.704 117.429 64.0747 117.067 63.648C116.715 63.2107 116.208 62.992 115.547 62.992C114.875 62.992 114.341 63.2267 113.947 63.696C113.552 64.1547 113.355 64.8373 113.355 65.744V70H112.155V65.536C112.155 64.704 111.984 64.0747 111.643 63.648C111.301 63.2107 110.8 62.992 110.139 62.992C109.467 62.992 108.939 63.2267 108.555 63.696C108.181 64.1547 107.995 64.8373 107.995 65.744V70H106.795V62ZM129.079 70.112C128.321 70.112 127.644 69.9467 127.047 69.616C126.449 69.2853 125.98 68.816 125.639 68.208C125.297 67.5893 125.127 66.8587 125.127 66.016C125.127 65.1627 125.297 64.4267 125.639 63.808C125.991 63.1893 126.465 62.7147 127.063 62.384C127.671 62.0533 128.353 61.888 129.111 61.888C129.868 61.888 130.545 62.0533 131.143 62.384C131.751 62.7147 132.225 63.1893 132.567 63.808C132.919 64.416 133.095 65.1413 133.095 65.984C133.095 66.8373 132.919 67.5733 132.567 68.192C132.215 68.8107 131.735 69.2853 131.127 69.616C130.519 69.9467 129.836 70.112 129.079 70.112ZM129.063 68.976C129.532 68.976 129.975 68.8747 130.391 68.672C130.807 68.4587 131.143 68.1333 131.399 67.696C131.665 67.248 131.799 66.6827 131.799 66C131.799 65.3067 131.671 64.7413 131.415 64.304C131.159 63.8667 130.823 63.5467 130.407 63.344C130.001 63.1307 129.564 63.024 129.095 63.024C128.625 63.024 128.188 63.1307 127.783 63.344C127.377 63.5467 127.047 63.872 126.791 64.32C126.545 64.7573 126.423 65.3173 126.423 66C126.423 66.6933 126.545 67.2587 126.791 67.696C127.036 68.1333 127.356 68.4587 127.751 68.672C128.156 68.8747 128.593 68.976 129.063 68.976ZM141.604 70H140.516L140.436 68.848C140.191 69.2533 139.86 69.568 139.444 69.792C139.028 70.0053 138.543 70.112 137.988 70.112C137.369 70.112 136.831 69.984 136.372 69.728C135.913 69.472 135.556 69.088 135.3 68.576C135.055 68.064 134.932 67.4187 134.932 66.64V62H136.116V66.512C136.116 67.3333 136.292 67.9573 136.644 68.384C137.007 68.8 137.524 69.008 138.196 69.008C138.879 69.008 139.417 68.7893 139.812 68.352C140.217 67.904 140.42 67.232 140.42 66.336V62H141.604V70ZM144.045 62H145.149L145.213 63.168C145.426 62.88 145.682 62.6347 145.981 62.432C146.29 62.2293 146.626 62.0907 146.989 62.016C147.362 61.9307 147.757 61.9253 148.173 62V63.2C147.725 63.1147 147.319 63.1147 146.957 63.2C146.605 63.2853 146.301 63.4453 146.045 63.68C145.789 63.9147 145.591 64.2133 145.453 64.576C145.314 64.928 145.245 65.3387 145.245 65.808V70H144.045V62ZM157.751 70.112C156.993 70.112 156.316 69.9467 155.719 69.616C155.121 69.2853 154.652 68.816 154.311 68.208C153.969 67.5893 153.799 66.8587 153.799 66.016C153.799 65.1627 153.969 64.4267 154.311 63.808C154.663 63.1893 155.137 62.7147 155.735 62.384C156.343 62.0533 157.025 61.888 157.783 61.888C158.54 61.888 159.217 62.0533 159.815 62.384C160.423 62.7147 160.897 63.1893 161.239 63.808C161.591 64.416 161.767 65.1413 161.767 65.984C161.767 66.8373 161.591 67.5733 161.239 68.192C160.887 68.8107 160.407 69.2853 159.799 69.616C159.191 69.9467 158.508 70.112 157.751 70.112ZM157.735 68.976C158.204 68.976 158.647 68.8747 159.063 68.672C159.479 68.4587 159.815 68.1333 160.071 67.696C160.337 67.248 160.471 66.6827 160.471 66C160.471 65.3067 160.343 64.7413 160.087 64.304C159.831 63.8667 159.495 63.5467 159.079 63.344C158.673 63.1307 158.236 63.024 157.766 63.024C157.297 63.024 156.86 63.1307 156.455 63.344C156.049 63.5467 155.719 63.872 155.463 64.32C155.217 64.7573 155.095 65.3173 155.095 66C155.095 66.6933 155.217 67.2587 155.463 67.696C155.708 68.1333 156.028 68.4587 156.423 68.672C156.828 68.8747 157.265 68.976 157.735 68.976ZM166.36 70H165.272L162.76 62H163.976L165.816 68.512L167.88 62H168.968L171 68.496L172.824 62H174.008L171.512 70H170.408L168.392 63.792L166.36 70ZM175.638 62H176.742L176.806 63.136C177.062 62.7413 177.398 62.4373 177.814 62.224C178.23 62 178.716 61.888 179.27 61.888C179.878 61.888 180.412 62.0213 180.87 62.288C181.329 62.544 181.686 62.9333 181.942 63.456C182.198 63.968 182.326 64.6133 182.326 65.392V70H181.126V65.536C181.126 64.704 180.945 64.0747 180.582 63.648C180.23 63.2107 179.718 62.992 179.046 62.992C178.353 62.992 177.809 63.2213 177.414 63.68C177.03 64.1387 176.838 64.816 176.838 65.712V70H175.638V62ZM196.034 61.84C196.034 61.2533 195.837 60.7893 195.442 60.448C195.058 60.096 194.482 59.92 193.714 59.92H190.546V63.744H193.762C194.488 63.744 195.048 63.5733 195.442 63.232C195.837 62.8907 196.034 62.4267 196.034 61.84ZM189.266 70V58.8H193.826C194.616 58.8 195.266 58.9333 195.778 59.2C196.29 59.4667 196.669 59.8187 196.914 60.256C197.17 60.6827 197.298 61.1573 197.298 61.68C197.298 62.192 197.202 62.624 197.01 62.976C196.829 63.3173 196.578 63.5893 196.258 63.792C195.949 63.9947 195.608 64.1333 195.234 64.208V64.32C195.682 64.384 196.082 64.528 196.434 64.752C196.786 64.9653 197.064 65.2587 197.266 65.632C197.469 66.0053 197.57 66.4587 197.57 66.992C197.57 67.5467 197.432 68.0533 197.154 68.512C196.877 68.9707 196.466 69.3333 195.922 69.6C195.389 69.8667 194.733 70 193.954 70H189.266ZM190.546 68.88H193.858C194.626 68.88 195.224 68.7093 195.65 68.368C196.088 68.016 196.306 67.5147 196.306 66.864C196.306 66.2133 196.077 65.7173 195.618 65.376C195.17 65.0347 194.568 64.864 193.81 64.864H190.546V68.88ZM199.941 62H201.125V70H199.941V62ZM200.549 60.4C200.303 60.4 200.101 60.32 199.941 60.16C199.781 60 199.701 59.8027 199.701 59.568C199.701 59.3227 199.781 59.12 199.941 58.96C200.101 58.8 200.303 58.72 200.549 58.72C200.773 58.72 200.965 58.8 201.125 58.96C201.295 59.12 201.381 59.3227 201.381 59.568C201.381 59.8027 201.295 60 201.125 60.16C200.965 60.32 200.773 60.4 200.549 60.4ZM207.282 70.112C206.524 70.112 205.847 69.9467 205.25 69.616C204.652 69.2853 204.183 68.816 203.842 68.208C203.5 67.5893 203.33 66.8587 203.33 66.016C203.33 65.1627 203.5 64.4267 203.842 63.808C204.194 63.1893 204.668 62.7147 205.266 62.384C205.874 62.0533 206.556 61.888 207.314 61.888C208.071 61.888 208.748 62.0533 209.346 62.384C209.954 62.7147 210.428 63.1893 210.77 63.808C211.122 64.416 211.298 65.1413 211.298 65.984C211.298 66.8373 211.122 67.5733 210.77 68.192C210.418 68.8107 209.938 69.2853 209.33 69.616C208.722 69.9467 208.039 70.112 207.282 70.112ZM207.266 68.976C207.735 68.976 208.178 68.8747 208.594 68.672C209.01 68.4587 209.346 68.1333 209.602 67.696C209.868 67.248 210.002 66.6827 210.002 66C210.002 65.3067 209.874 64.7413 209.618 64.304C209.362 63.8667 209.026 63.5467 208.61 63.344C208.204 63.1307 207.767 63.024 207.298 63.024C206.828 63.024 206.391 63.1307 205.986 63.344C205.58 63.5467 205.25 63.872 204.994 64.32C204.748 64.7573 204.626 65.3173 204.626 66C204.626 66.6933 204.748 67.2587 204.994 67.696C205.239 68.1333 205.559 68.4587 205.954 68.672C206.359 68.8747 206.796 68.976 207.266 68.976ZM213.055 65.008H219.359V66.096H213.055V65.008ZM222.263 67.552C222.327 67.872 222.444 68.1387 222.615 68.352C222.786 68.5547 223.004 68.7093 223.271 68.816C223.548 68.9227 223.868 68.976 224.231 68.976C224.796 68.976 225.223 68.8693 225.511 68.656C225.81 68.432 225.959 68.1547 225.959 67.824C225.959 67.5467 225.868 67.3227 225.687 67.152C225.516 66.9813 225.287 66.8427 224.999 66.736C224.711 66.6187 224.391 66.5173 224.039 66.432C223.762 66.368 223.463 66.2933 223.143 66.208C222.823 66.112 222.519 65.984 222.231 65.824C221.943 65.664 221.708 65.456 221.527 65.2C221.346 64.944 221.255 64.608 221.255 64.192C221.255 63.7333 221.378 63.3333 221.623 62.992C221.879 62.64 222.226 62.368 222.663 62.176C223.111 61.984 223.623 61.888 224.199 61.888C224.86 61.888 225.447 62.032 225.959 62.32C226.482 62.608 226.844 63.056 227.047 63.664L225.927 64.048C225.852 63.7707 225.714 63.5573 225.511 63.408C225.319 63.2587 225.1 63.1573 224.855 63.104C224.62 63.0507 224.386 63.024 224.151 63.024C223.671 63.024 223.282 63.12 222.983 63.312C222.695 63.4933 222.551 63.7707 222.551 64.144C222.551 64.3467 222.599 64.5173 222.695 64.656C222.791 64.784 222.924 64.8907 223.095 64.976C223.266 65.0613 223.468 65.136 223.703 65.2C223.938 65.2533 224.194 65.3173 224.471 65.392C224.78 65.4667 225.095 65.5627 225.415 65.68C225.735 65.7867 226.034 65.9307 226.311 66.112C226.588 66.2827 226.812 66.5067 226.983 66.784C227.164 67.0507 227.255 67.3867 227.255 67.792C227.255 68.2613 227.127 68.672 226.871 69.024C226.615 69.3653 226.258 69.632 225.799 69.824C225.351 70.016 224.828 70.112 224.231 70.112C223.41 70.112 222.727 69.9307 222.183 69.568C221.65 69.1947 221.292 68.6507 221.111 67.936L222.263 67.552ZM232.561 70.112C231.814 70.112 231.147 69.9307 230.561 69.568C229.985 69.2053 229.531 68.7093 229.201 68.08C228.87 67.4507 228.705 66.7307 228.705 65.92C228.705 65.1413 228.87 64.448 229.201 63.84C229.531 63.232 229.985 62.7573 230.561 62.416C231.137 62.064 231.793 61.888 232.529 61.888C233.254 61.888 233.899 62.048 234.465 62.368C235.041 62.688 235.489 63.1307 235.809 63.696C236.129 64.2613 236.278 64.9067 236.257 65.632C236.257 65.7493 236.251 65.872 236.241 66C236.23 66.128 236.219 66.2667 236.209 66.416H230.017C230.038 66.9173 230.161 67.36 230.385 67.744C230.609 68.128 230.902 68.432 231.265 68.656C231.638 68.8693 232.059 68.976 232.529 68.976C233.147 68.976 233.67 68.8587 234.097 68.624C234.534 68.3893 234.849 68.0533 235.041 67.616L236.081 68.032C235.761 68.704 235.297 69.2213 234.689 69.584C234.081 69.936 233.371 70.112 232.561 70.112ZM234.945 65.376C234.955 64.9173 234.854 64.512 234.641 64.16C234.438 63.808 234.15 63.5307 233.777 63.328C233.403 63.1253 232.971 63.024 232.481 63.024C232.054 63.024 231.665 63.1253 231.313 63.328C230.961 63.5307 230.667 63.8133 230.433 64.176C230.209 64.528 230.075 64.928 230.033 65.376H234.945ZM241.64 70.112C240.861 70.112 240.179 69.9413 239.592 69.6C239.005 69.2587 238.547 68.784 238.216 68.176C237.896 67.5573 237.736 66.8427 237.736 66.032C237.736 65.2107 237.896 64.4907 238.216 63.872C238.547 63.2427 239.005 62.7573 239.592 62.416C240.179 62.064 240.861 61.888 241.64 61.888C242.461 61.888 243.181 62.08 243.8 62.464C244.419 62.8373 244.867 63.36 245.144 64.032L244.04 64.416C243.88 63.9893 243.587 63.6533 243.16 63.408C242.744 63.152 242.259 63.024 241.704 63.024C241.16 63.024 240.685 63.1467 240.28 63.392C239.885 63.6373 239.576 63.984 239.352 64.432C239.139 64.88 239.032 65.408 239.032 66.016C239.032 66.912 239.272 67.632 239.752 68.176C240.232 68.7093 240.872 68.976 241.672 68.976C242.216 68.976 242.701 68.8533 243.128 68.608C243.555 68.3627 243.869 68.032 244.072 67.616L245.16 68C244.872 68.6613 244.419 69.1787 243.8 69.552C243.181 69.9253 242.461 70.112 241.64 70.112ZM253.667 70H252.579L252.499 68.848C252.253 69.2533 251.923 69.568 251.507 69.792C251.091 70.0053 250.605 70.112 250.051 70.112C249.432 70.112 248.893 69.984 248.435 69.728C247.976 69.472 247.619 69.088 247.363 68.576C247.117 68.064 246.995 67.4187 246.995 66.64V62H248.179V66.512C248.179 67.3333 248.355 67.9573 248.707 68.384C249.069 68.8 249.587 69.008 250.259 69.008C250.941 69.008 251.48 68.7893 251.875 68.352C252.28 67.904 252.483 67.232 252.483 66.336V62H253.667V70ZM256.107 62H257.211L257.275 63.168C257.488 62.88 257.744 62.6347 258.043 62.432C258.352 62.2293 258.688 62.0907 259.051 62.016C259.424 61.9307 259.819 61.9253 260.235 62V63.2C259.787 63.1147 259.382 63.1147 259.019 63.2C258.667 63.2853 258.363 63.4453 258.107 63.68C257.851 63.9147 257.654 64.2133 257.515 64.576C257.376 64.928 257.307 65.3387 257.307 65.808V70H256.107V62ZM265.076 70.112C264.33 70.112 263.663 69.9307 263.076 69.568C262.5 69.2053 262.047 68.7093 261.716 68.08C261.386 67.4507 261.22 66.7307 261.22 65.92C261.22 65.1413 261.386 64.448 261.716 63.84C262.047 63.232 262.5 62.7573 263.076 62.416C263.652 62.064 264.308 61.888 265.044 61.888C265.77 61.888 266.415 62.048 266.98 62.368C267.556 62.688 268.004 63.1307 268.324 63.696C268.644 64.2613 268.794 64.9067 268.772 65.632C268.772 65.7493 268.767 65.872 268.756 66C268.746 66.128 268.735 66.2667 268.724 66.416H262.532C262.554 66.9173 262.676 67.36 262.9 67.744C263.124 68.128 263.418 68.432 263.78 68.656C264.154 68.8693 264.575 68.976 265.044 68.976C265.663 68.976 266.186 68.8587 266.612 68.624C267.05 68.3893 267.364 68.0533 267.556 67.616L268.596 68.032C268.276 68.704 267.812 69.2213 267.204 69.584C266.596 69.936 265.887 70.112 265.076 70.112ZM267.46 65.376C267.471 64.9173 267.37 64.512 267.156 64.16C266.954 63.808 266.666 63.5307 266.292 63.328C265.919 63.1253 265.487 63.024 264.996 63.024C264.57 63.024 264.18 63.1253 263.828 63.328C263.476 63.5307 263.183 63.8133 262.948 64.176C262.724 64.528 262.591 64.928 262.548 65.376H267.46ZM21.664 85.056C21.664 84.4693 21.76 83.9733 21.952 83.568C22.144 83.1627 22.448 82.8693 22.864 82.688C23.2907 82.496 23.856 82.4267 24.56 82.48V83.552C23.92 83.4987 23.4773 83.6053 23.232 83.872C22.9867 84.128 22.864 84.5227 22.864 85.056V86H24.624V87.12H22.864V94H21.664V87.12H20.544V86H21.664V85.056ZM31.4275 94L31.3315 92.56C31.1075 93.0507 30.7768 93.4347 30.3395 93.712C29.9022 93.9787 29.3475 94.112 28.6755 94.112C28.0995 94.112 27.6088 94.0213 27.2035 93.84C26.7982 93.6587 26.4835 93.4027 26.2595 93.072C26.0462 92.7307 25.9395 92.3307 25.9395 91.872C25.9395 91.2 26.1902 90.6507 26.6915 90.224C27.1928 89.7867 27.9182 89.52 28.8675 89.424L31.3315 89.152V88.512C31.3315 88.064 31.1662 87.7067 30.8355 87.44C30.5048 87.1627 30.0568 87.024 29.4915 87.024C28.9368 87.024 28.4728 87.152 28.0995 87.408C27.7368 87.664 27.4862 88.032 27.3475 88.512L26.2595 88.128C26.4728 87.424 26.8622 86.8747 27.4275 86.48C28.0035 86.0853 28.7022 85.888 29.5235 85.888C30.4728 85.888 31.2088 86.1333 31.7315 86.624C32.2648 87.104 32.5315 87.76 32.5315 88.592V94H31.4275ZM31.3315 90.176L28.8515 90.464C28.3182 90.528 27.9128 90.6773 27.6355 90.912C27.3582 91.136 27.2195 91.4347 27.2195 91.808C27.2195 92.1813 27.3528 92.48 27.6195 92.704C27.8968 92.928 28.2915 93.04 28.8035 93.04C29.3902 93.04 29.8702 92.9227 30.2435 92.688C30.6168 92.4533 30.8888 92.1387 31.0595 91.744C31.2408 91.3387 31.3315 90.9013 31.3315 90.432V90.176ZM34.8726 86H35.9766L36.0406 87.168C36.254 86.88 36.51 86.6347 36.8086 86.432C37.118 86.2293 37.454 86.0907 37.8166 86.016C38.19 85.9307 38.5846 85.9253 39.0006 86V87.2C38.5526 87.1147 38.1473 87.1147 37.7846 87.2C37.4326 87.2853 37.1286 87.4453 36.8726 87.68C36.6166 87.9147 36.4193 88.2133 36.2806 88.576C36.142 88.928 36.0726 89.3387 36.0726 89.808V94H34.8726V86ZM40.6383 86H41.7423L41.8223 87.152C42.0569 86.768 42.3716 86.464 42.7663 86.24C43.1716 86.0053 43.6516 85.888 44.2063 85.888C44.7716 85.888 45.2836 86.0267 45.7423 86.304C46.2116 86.5707 46.5743 86.9707 46.8303 87.504C47.0756 86.96 47.4489 86.5547 47.9503 86.288C48.4516 86.0213 49.0063 85.888 49.6143 85.888C50.2116 85.888 50.7396 86.0213 51.1983 86.288C51.6569 86.544 52.0143 86.9333 52.2703 87.456C52.5263 87.968 52.6543 88.6133 52.6543 89.392V94H51.4543V89.536C51.4543 88.704 51.2729 88.0747 50.9103 87.648C50.5583 87.2107 50.0516 86.992 49.3903 86.992C48.7183 86.992 48.1849 87.2267 47.7903 87.696C47.3956 88.1547 47.1983 88.8373 47.1983 89.744V94H45.9983V89.536C45.9983 88.704 45.8276 88.0747 45.4863 87.648C45.1449 87.2107 44.6436 86.992 43.9823 86.992C43.3103 86.992 42.7823 87.2267 42.3983 87.696C42.0249 88.1547 41.8383 88.8373 41.8383 89.744V94H40.6383V86ZM55.638 91.552C55.702 91.872 55.8193 92.1387 55.99 92.352C56.1607 92.5547 56.3793 92.7093 56.646 92.816C56.9233 92.9227 57.2433 92.976 57.606 92.976C58.1713 92.976 58.598 92.8693 58.886 92.656C59.1847 92.432 59.334 92.1547 59.334 91.824C59.334 91.5467 59.2433 91.3227 59.062 91.152C58.8913 90.9813 58.662 90.8427 58.374 90.736C58.086 90.6187 57.766 90.5173 57.414 90.432C57.1367 90.368 56.838 90.2933 56.518 90.208C56.198 90.112 55.894 89.984 55.606 89.824C55.318 89.664 55.0833 89.456 54.902 89.2C54.7207 88.944 54.63 88.608 54.63 88.192C54.63 87.7333 54.7527 87.3333 54.998 86.992C55.254 86.64 55.6007 86.368 56.038 86.176C56.486 85.984 56.998 85.888 57.574 85.888C58.2353 85.888 58.822 86.032 59.334 86.32C59.8567 86.608 60.2193 87.056 60.422 87.664L59.302 88.048C59.2273 87.7707 59.0887 87.5573 58.886 87.408C58.694 87.2587 58.4753 87.1573 58.23 87.104C57.9953 87.0507 57.7607 87.024 57.526 87.024C57.046 87.024 56.6567 87.12 56.358 87.312C56.07 87.4933 55.926 87.7707 55.926 88.144C55.926 88.3467 55.974 88.5173 56.07 88.656C56.166 88.784 56.2993 88.8907 56.47 88.976C56.6407 89.0613 56.8433 89.136 57.078 89.2C57.3127 89.2533 57.5687 89.3173 57.846 89.392C58.1553 89.4667 58.47 89.5627 58.79 89.68C59.11 89.7867 59.4087 89.9307 59.686 90.112C59.9633 90.2827 60.1873 90.5067 60.358 90.784C60.5393 91.0507 60.63 91.3867 60.63 91.792C60.63 92.2613 60.502 92.672 60.246 93.024C59.99 93.3653 59.6327 93.632 59.174 93.824C58.726 94.016 58.2033 94.112 57.606 94.112C56.7847 94.112 56.102 93.9307 55.558 93.568C55.0247 93.1947 54.6673 92.6507 54.486 91.936L55.638 91.552Z" fill="white"/>
</svg>
