<svg width="354" height="101" viewBox="0 0 354 101" fill="none" xmlns="http://www.w3.org/2000/svg">
<path d="M37.3429 46.784H39.9029V55.2H37.3429V46.784ZM38.5909 52.224C37.0122 52.224 35.5402 51.9467 34.1749 51.392C32.8309 50.8373 31.6469 50.0587 30.6229 49.056C29.6202 48.032 28.8309 46.8267 28.2549 45.44C27.7002 44.032 27.4229 42.4853 27.4229 40.8C27.4229 39.1147 27.7002 37.5787 28.2549 36.192C28.8309 34.784 29.6202 33.5787 30.6229 32.576C31.6469 31.552 32.8309 30.7627 34.1749 30.208C35.5402 29.6533 37.0122 29.376 38.5909 29.376C40.1482 29.376 41.5989 29.6533 42.9429 30.208C44.3082 30.7627 45.4922 31.552 46.4949 32.576C47.4975 33.5787 48.2762 34.784 48.8309 36.192C49.4069 37.5787 49.6949 39.1147 49.6949 40.8C49.6949 42.4853 49.4069 44.032 48.8309 45.44C48.2762 46.8267 47.4975 48.032 46.4949 49.056C45.4922 50.0587 44.3082 50.8373 42.9429 51.392C41.5989 51.9467 40.1482 52.224 38.5909 52.224ZM38.5909 49.984C40.1909 49.984 41.6309 49.6107 42.9109 48.864C44.1909 48.1173 45.2042 47.0613 45.9509 45.696C46.6975 44.3093 47.0709 42.6773 47.0709 40.8C47.0709 38.9013 46.6975 37.2693 45.9509 35.904C45.2042 34.5173 44.1909 33.4613 42.9109 32.736C41.6309 31.9893 40.1909 31.616 38.5909 31.616C36.9695 31.616 35.5082 31.9893 34.2069 32.736C32.9269 33.4613 31.9135 34.5173 31.1669 35.904C30.4202 37.2693 30.0469 38.9013 30.0469 40.8C30.0469 42.6773 30.4202 44.3093 31.1669 45.696C31.9135 47.0613 32.9269 48.1173 34.2069 48.864C35.5082 49.6107 36.9695 49.984 38.5909 49.984ZM66.5989 52H64.4229L64.2629 49.696C63.7722 50.5067 63.1109 51.136 62.2789 51.584C61.4469 52.0107 60.4762 52.224 59.3669 52.224C58.1295 52.224 57.0522 51.968 56.1349 51.456C55.2175 50.944 54.5029 50.176 53.9909 49.152C53.5002 48.128 53.2549 46.8373 53.2549 45.28V36H55.6229V45.024C55.6229 46.6667 55.9749 47.9147 56.6789 48.768C57.4042 49.6 58.4389 50.016 59.7829 50.016C61.1482 50.016 62.2255 49.5787 63.0149 48.704C63.8255 47.808 64.2309 46.464 64.2309 44.672V36H66.5989V52ZM81.4956 52L81.3036 49.12C80.8556 50.1013 80.1943 50.8693 79.3196 51.424C78.445 51.9573 77.3356 52.224 75.9916 52.224C74.8396 52.224 73.8583 52.0427 73.0476 51.68C72.237 51.3173 71.6076 50.8053 71.1596 50.144C70.733 49.4613 70.5196 48.6613 70.5196 47.744C70.5196 46.4 71.021 45.3013 72.0236 44.448C73.0263 43.5733 74.477 43.04 76.3756 42.848L81.3036 42.304V41.024C81.3036 40.128 80.973 39.4133 80.3116 38.88C79.6503 38.3253 78.7543 38.048 77.6236 38.048C76.5143 38.048 75.5863 38.304 74.8396 38.816C74.1143 39.328 73.613 40.064 73.3356 41.024L71.1596 40.256C71.5863 38.848 72.365 37.7493 73.4956 36.96C74.6476 36.1707 76.045 35.776 77.6876 35.776C79.5863 35.776 81.0583 36.2667 82.1036 37.248C83.1703 38.208 83.7036 39.52 83.7036 41.184V52H81.4956ZM81.3036 44.352L76.3436 44.928C75.277 45.056 74.4663 45.3547 73.9116 45.824C73.357 46.272 73.0796 46.8693 73.0796 47.616C73.0796 48.3627 73.3463 48.96 73.8796 49.408C74.4343 49.856 75.2236 50.08 76.2476 50.08C77.421 50.08 78.381 49.8453 79.1276 49.376C79.8743 48.9067 80.4183 48.2773 80.7596 47.488C81.1223 46.6773 81.3036 45.8027 81.3036 44.864V44.352ZM88.3859 28.96H90.7859V52H88.3859V28.96ZM96.1471 36H98.5151V52H96.1471V36ZM97.3631 32.8C96.8725 32.8 96.4671 32.64 96.1471 32.32C95.8271 32 95.6671 31.6053 95.6671 31.136C95.6671 30.6453 95.8271 30.24 96.1471 29.92C96.4671 29.6 96.8725 29.44 97.3631 29.44C97.8111 29.44 98.1951 29.6 98.5151 29.92C98.8565 30.24 99.0271 30.6453 99.0271 31.136C99.0271 31.6053 98.8565 32 98.5151 32.32C98.1951 32.64 97.8111 32.8 97.3631 32.8ZM104.941 36V31.52H107.341V36H111.597V38.24H107.341V46.848C107.341 47.8293 107.544 48.544 107.949 48.992C108.376 49.44 108.909 49.7067 109.549 49.792C110.21 49.8773 110.893 49.8773 111.597 49.792V51.872C110.765 52.064 109.944 52.1173 109.133 52.032C108.344 51.9467 107.629 51.712 106.989 51.328C106.37 50.9227 105.869 50.3573 105.485 49.632C105.122 48.9067 104.941 47.9787 104.941 46.848V38.24H102.541V36H104.941ZM126.015 36H128.511L119.359 58.4H117.055L119.775 51.776L113.311 36H115.935L121.055 48.928L126.015 36ZM141.022 36H143.39V52H141.022V36ZM142.238 32.8C141.747 32.8 141.342 32.64 141.022 32.32C140.702 32 140.542 31.6053 140.542 31.136C140.542 30.6453 140.702 30.24 141.022 29.92C141.342 29.6 141.747 29.44 142.238 29.44C142.686 29.44 143.07 29.6 143.39 29.92C143.731 30.24 143.902 30.6453 143.902 31.136C143.902 31.6053 143.731 32 143.39 32.32C143.07 32.64 142.686 32.8 142.238 32.8ZM150.104 47.104C150.232 47.744 150.467 48.2773 150.808 48.704C151.149 49.1093 151.587 49.4187 152.12 49.632C152.675 49.8453 153.315 49.952 154.04 49.952C155.171 49.952 156.024 49.7387 156.6 49.312C157.197 48.864 157.496 48.3093 157.496 47.648C157.496 47.0933 157.315 46.6453 156.952 46.304C156.611 45.9627 156.152 45.6853 155.576 45.472C155 45.2373 154.36 45.0347 153.656 44.864C153.101 44.736 152.504 44.5867 151.864 44.416C151.224 44.224 150.616 43.968 150.04 43.648C149.464 43.328 148.995 42.912 148.632 42.4C148.269 41.888 148.088 41.216 148.088 40.384C148.088 39.4667 148.333 38.6667 148.824 37.984C149.336 37.28 150.029 36.736 150.904 36.352C151.8 35.968 152.824 35.776 153.976 35.776C155.299 35.776 156.472 36.064 157.496 36.64C158.541 37.216 159.267 38.112 159.672 39.328L157.432 40.096C157.283 39.5413 157.005 39.1147 156.6 38.816C156.216 38.5173 155.779 38.3147 155.288 38.208C154.819 38.1013 154.349 38.048 153.88 38.048C152.92 38.048 152.141 38.24 151.544 38.624C150.968 38.9867 150.68 39.5413 150.68 40.288C150.68 40.6933 150.776 41.0347 150.968 41.312C151.16 41.568 151.427 41.7813 151.768 41.952C152.109 42.1227 152.515 42.272 152.984 42.4C153.453 42.5067 153.965 42.6347 154.52 42.784C155.139 42.9333 155.768 43.1253 156.408 43.36C157.048 43.5733 157.645 43.8613 158.2 44.224C158.755 44.5653 159.203 45.0133 159.544 45.568C159.907 46.1013 160.088 46.7733 160.088 47.584C160.088 48.5227 159.832 49.344 159.32 50.048C158.808 50.7307 158.093 51.264 157.176 51.648C156.28 52.032 155.235 52.224 154.04 52.224C152.397 52.224 151.032 51.8613 149.944 51.136C148.877 50.3893 148.163 49.3013 147.8 47.872L150.104 47.104ZM182.964 52L182.772 49.12C182.324 50.1013 181.663 50.8693 180.788 51.424C179.914 51.9573 178.804 52.224 177.46 52.224C176.308 52.224 175.327 52.0427 174.516 51.68C173.706 51.3173 173.076 50.8053 172.628 50.144C172.202 49.4613 171.988 48.6613 171.988 47.744C171.988 46.4 172.49 45.3013 173.492 44.448C174.495 43.5733 175.946 43.04 177.844 42.848L182.772 42.304V41.024C182.772 40.128 182.442 39.4133 181.78 38.88C181.119 38.3253 180.223 38.048 179.092 38.048C177.983 38.048 177.055 38.304 176.308 38.816C175.583 39.328 175.082 40.064 174.804 41.024L172.628 40.256C173.055 38.848 173.834 37.7493 174.964 36.96C176.116 36.1707 177.514 35.776 179.156 35.776C181.055 35.776 182.527 36.2667 183.572 37.248C184.639 38.208 185.172 39.52 185.172 41.184V52H182.964ZM182.772 44.352L177.812 44.928C176.746 45.056 175.935 45.3547 175.38 45.824C174.826 46.272 174.548 46.8693 174.548 47.616C174.548 48.3627 174.815 48.96 175.348 49.408C175.903 49.856 176.692 50.08 177.716 50.08C178.89 50.08 179.85 49.8453 180.596 49.376C181.343 48.9067 181.887 48.2773 182.228 47.488C182.591 46.6773 182.772 45.8027 182.772 44.864V44.352ZM190.879 36V31.52H193.279V36H197.535V38.24H193.279V46.848C193.279 47.8293 193.481 48.544 193.887 48.992C194.313 49.44 194.847 49.7067 195.487 49.792C196.148 49.8773 196.831 49.8773 197.535 49.792V51.872C196.703 52.064 195.881 52.1173 195.071 52.032C194.281 51.9467 193.567 51.712 192.927 51.328C192.308 50.9227 191.807 50.3573 191.423 49.632C191.06 48.9067 190.879 47.9787 190.879 46.848V38.24H188.479V36H190.879ZM211.097 36V31.52H213.497V36H217.753V38.24H213.497V46.848C213.497 47.8293 213.7 48.544 214.105 48.992C214.532 49.44 215.065 49.7067 215.705 49.792C216.367 49.8773 217.049 49.8773 217.753 49.792V51.872C216.921 52.064 216.1 52.1173 215.289 52.032C214.5 51.9467 213.785 51.712 213.145 51.328C212.527 50.9227 212.025 50.3573 211.641 49.632C211.279 48.9067 211.097 47.9787 211.097 46.848V38.24H208.697V36H211.097ZM221.323 28.96H223.723V38.176C224.235 37.408 224.929 36.8213 225.803 36.416C226.678 35.9893 227.659 35.776 228.747 35.776C229.921 35.776 230.966 36.0427 231.883 36.576C232.801 37.1093 233.515 37.8987 234.027 38.944C234.561 39.9893 234.827 41.2907 234.827 42.848V52H232.267V43.136C232.267 41.472 231.915 40.2027 231.211 39.328C230.507 38.432 229.483 37.984 228.139 37.984C226.753 37.984 225.665 38.4533 224.875 39.392C224.107 40.3307 223.723 41.696 223.723 43.488V52H221.323V28.96ZM246.2 52.224C244.706 52.224 243.373 51.8613 242.2 51.136C241.048 50.4107 240.141 49.4187 239.48 48.16C238.818 46.9013 238.488 45.4613 238.488 43.84C238.488 42.2827 238.818 40.896 239.48 39.68C240.141 38.464 241.048 37.5147 242.2 36.832C243.352 36.128 244.664 35.776 246.136 35.776C247.586 35.776 248.877 36.096 250.008 36.736C251.16 37.376 252.056 38.2613 252.696 39.392C253.336 40.5227 253.634 41.8133 253.592 43.264C253.592 43.4987 253.581 43.744 253.56 44C253.538 44.256 253.517 44.5333 253.496 44.832H241.112C241.154 45.8347 241.4 46.72 241.848 47.488C242.296 48.256 242.882 48.864 243.608 49.312C244.354 49.7387 245.197 49.952 246.136 49.952C247.373 49.952 248.418 49.7173 249.272 49.248C250.146 48.7787 250.776 48.1067 251.16 47.232L253.24 48.064C252.6 49.408 251.672 50.4427 250.456 51.168C249.24 51.872 247.821 52.224 246.2 52.224ZM250.968 42.752C250.989 41.8347 250.786 41.024 250.36 40.32C249.954 39.616 249.378 39.0613 248.632 38.656C247.885 38.2507 247.021 38.048 246.04 38.048C245.186 38.048 244.408 38.2507 243.704 38.656C243 39.0613 242.413 39.6267 241.944 40.352C241.496 41.056 241.229 41.856 241.144 42.752H250.968ZM266.511 28.96H268.911V38.176C269.423 37.408 270.116 36.8213 270.991 36.416C271.866 35.9893 272.847 35.776 273.935 35.776C275.108 35.776 276.154 36.0427 277.071 36.576C277.988 37.1093 278.703 37.8987 279.215 38.944C279.748 39.9893 280.015 41.2907 280.015 42.848V52H277.455V43.136C277.455 41.472 277.103 40.2027 276.399 39.328C275.695 38.432 274.671 37.984 273.327 37.984C271.94 37.984 270.852 38.4533 270.063 39.392C269.295 40.3307 268.911 41.696 268.911 43.488V52H266.511V28.96ZM291.387 52.224C289.894 52.224 288.56 51.8613 287.387 51.136C286.235 50.4107 285.328 49.4187 284.667 48.16C284.006 46.9013 283.675 45.4613 283.675 43.84C283.675 42.2827 284.006 40.896 284.667 39.68C285.328 38.464 286.235 37.5147 287.387 36.832C288.539 36.128 289.851 35.776 291.323 35.776C292.774 35.776 294.064 36.096 295.195 36.736C296.347 37.376 297.243 38.2613 297.883 39.392C298.523 40.5227 298.822 41.8133 298.779 43.264C298.779 43.4987 298.768 43.744 298.747 44C298.726 44.256 298.704 44.5333 298.683 44.832H286.299C286.342 45.8347 286.587 46.72 287.035 47.488C287.483 48.256 288.07 48.864 288.795 49.312C289.542 49.7387 290.384 49.952 291.323 49.952C292.56 49.952 293.606 49.7173 294.459 49.248C295.334 48.7787 295.963 48.1067 296.347 47.232L298.427 48.064C297.787 49.408 296.859 50.4427 295.643 51.168C294.427 51.872 293.008 52.224 291.387 52.224ZM296.155 42.752C296.176 41.8347 295.974 41.024 295.547 40.32C295.142 39.616 294.566 39.0613 293.819 38.656C293.072 38.2507 292.208 38.048 291.227 38.048C290.374 38.048 289.595 38.2507 288.891 38.656C288.187 39.0613 287.6 39.6267 287.131 40.352C286.683 41.056 286.416 41.856 286.331 42.752H296.155ZM312.746 52L312.554 49.12C312.106 50.1013 311.444 50.8693 310.57 51.424C309.695 51.9573 308.586 52.224 307.242 52.224C306.09 52.224 305.108 52.0427 304.298 51.68C303.487 51.3173 302.858 50.8053 302.41 50.144C301.983 49.4613 301.77 48.6613 301.77 47.744C301.77 46.4 302.271 45.3013 303.274 44.448C304.276 43.5733 305.727 43.04 307.626 42.848L312.554 42.304V41.024C312.554 40.128 312.223 39.4133 311.562 38.88C310.9 38.3253 310.004 38.048 308.874 38.048C307.764 38.048 306.836 38.304 306.09 38.816C305.364 39.328 304.863 40.064 304.586 41.024L302.41 40.256C302.836 38.848 303.615 37.7493 304.746 36.96C305.898 36.1707 307.295 35.776 308.938 35.776C310.836 35.776 312.308 36.2667 313.354 37.248C314.42 38.208 314.954 39.52 314.954 41.184V52H312.746ZM312.554 44.352L307.594 44.928C306.527 45.056 305.716 45.3547 305.162 45.824C304.607 46.272 304.33 46.8693 304.33 47.616C304.33 48.3627 304.596 48.96 305.13 49.408C305.684 49.856 306.474 50.08 307.498 50.08C308.671 50.08 309.631 49.8453 310.378 49.376C311.124 48.9067 311.668 48.2773 312.01 47.488C312.372 46.6773 312.554 45.8027 312.554 44.864V44.352ZM319.636 36H321.844L321.972 38.336C322.399 37.76 322.911 37.2693 323.508 36.864C324.127 36.4587 324.799 36.1813 325.524 36.032C326.271 35.8613 327.06 35.8507 327.892 36V38.4C326.996 38.2293 326.185 38.2293 325.46 38.4C324.756 38.5707 324.148 38.8907 323.636 39.36C323.124 39.8293 322.729 40.4267 322.452 41.152C322.175 41.856 322.036 42.6773 322.036 43.616V52H319.636V36ZM332.191 36V31.52H334.591V36H338.847V38.24H334.591V46.848C334.591 47.8293 334.794 48.544 335.199 48.992C335.626 49.44 336.159 49.7067 336.799 49.792C337.46 49.8773 338.143 49.8773 338.847 49.792V51.872C338.015 52.064 337.194 52.1173 336.383 52.032C335.594 51.9467 334.879 51.712 334.239 51.328C333.62 50.9227 333.119 50.3573 332.735 49.632C332.372 48.9067 332.191 47.9787 332.191 46.848V38.24H329.791V36H332.191ZM46.5166 92.224C45.002 92.224 43.6473 91.8933 42.4526 91.232C41.258 90.5707 40.3193 89.632 39.6366 88.416C38.954 87.1787 38.6126 85.7173 38.6126 84.032C38.6126 82.3253 38.954 80.8533 39.6366 79.616C40.3406 78.3787 41.29 77.4293 42.4846 76.768C43.7006 76.1067 45.066 75.776 46.5806 75.776C48.0953 75.776 49.45 76.1067 50.6446 76.768C51.8606 77.4293 52.81 78.3787 53.4926 79.616C54.1966 80.832 54.5486 82.2827 54.5486 83.968C54.5486 85.6747 54.1966 87.1467 53.4926 88.384C52.7886 89.6213 51.8286 90.5707 50.6126 91.232C49.3966 91.8933 48.0313 92.224 46.5166 92.224ZM46.4846 89.952C47.4233 89.952 48.3086 89.7493 49.1406 89.344C49.9726 88.9173 50.6446 88.2667 51.1566 87.392C51.69 86.496 51.9566 85.3653 51.9566 84C51.9566 82.6133 51.7006 81.4827 51.1886 80.608C50.6766 79.7333 50.0046 79.0933 49.1726 78.688C48.362 78.2613 47.4873 78.048 46.5486 78.048C45.61 78.048 44.7353 78.2613 43.9246 78.688C43.114 79.0933 42.4526 79.744 41.9406 80.64C41.45 81.5147 41.2046 82.6347 41.2046 84C41.2046 85.3867 41.45 86.5173 41.9406 87.392C42.4313 88.2667 43.0713 88.9173 43.8606 89.344C44.6713 89.7493 45.546 89.952 46.4846 89.952ZM59.3436 74.112C59.3436 72.9387 59.5356 71.9467 59.9196 71.136C60.3036 70.3253 60.9116 69.7387 61.7436 69.376C62.597 68.992 63.7276 68.8533 65.1356 68.96V71.104C63.8556 70.9973 62.9703 71.2107 62.4796 71.744C61.989 72.256 61.7436 73.0453 61.7436 74.112V76H65.2636V78.24H61.7436V92H59.3436V78.24H57.1036V76H59.3436V74.112ZM84.5434 92.224C83.05 92.224 81.7167 91.8613 80.5434 91.136C79.3914 90.4107 78.4847 89.4187 77.8234 88.16C77.162 86.9013 76.8314 85.4613 76.8314 83.84C76.8314 82.2827 77.162 80.896 77.8234 79.68C78.4847 78.464 79.3914 77.5147 80.5434 76.832C81.6954 76.128 83.0074 75.776 84.4794 75.776C85.93 75.776 87.2207 76.096 88.3514 76.736C89.5034 77.376 90.3994 78.2613 91.0394 79.392C91.6794 80.5227 91.978 81.8133 91.9354 83.264C91.9354 83.4987 91.9247 83.744 91.9034 84C91.882 84.256 91.8607 84.5333 91.8394 84.832H79.4554C79.498 85.8347 79.7434 86.72 80.1914 87.488C80.6394 88.256 81.226 88.864 81.9514 89.312C82.698 89.7387 83.5407 89.952 84.4794 89.952C85.7167 89.952 86.762 89.7173 87.6154 89.248C88.49 88.7787 89.1194 88.1067 89.5034 87.232L91.5834 88.064C90.9434 89.408 90.0154 90.4427 88.7994 91.168C87.5834 91.872 86.1647 92.224 84.5434 92.224ZM89.3114 82.752C89.3327 81.8347 89.13 81.024 88.7034 80.32C88.298 79.616 87.722 79.0613 86.9754 78.656C86.2287 78.2507 85.3647 78.048 84.3834 78.048C83.53 78.048 82.7514 78.2507 82.0474 78.656C81.3434 79.0613 80.7567 79.6267 80.2874 80.352C79.8394 81.056 79.5727 81.856 79.4874 82.752H89.3114ZM96.5014 76L101.557 89.312L106.645 76H109.173L102.773 92H100.277L93.9414 76H96.5014ZM118.856 92.224C117.363 92.224 116.029 91.8613 114.856 91.136C113.704 90.4107 112.797 89.4187 112.136 88.16C111.475 86.9013 111.144 85.4613 111.144 83.84C111.144 82.2827 111.475 80.896 112.136 79.68C112.797 78.464 113.704 77.5147 114.856 76.832C116.008 76.128 117.32 75.776 118.792 75.776C120.243 75.776 121.533 76.096 122.664 76.736C123.816 77.376 124.712 78.2613 125.352 79.392C125.992 80.5227 126.291 81.8133 126.248 83.264C126.248 83.4987 126.237 83.744 126.216 84C126.195 84.256 126.173 84.5333 126.152 84.832H113.768C113.811 85.8347 114.056 86.72 114.504 87.488C114.952 88.256 115.539 88.864 116.264 89.312C117.011 89.7387 117.853 89.952 118.792 89.952C120.029 89.952 121.075 89.7173 121.928 89.248C122.803 88.7787 123.432 88.1067 123.816 87.232L125.896 88.064C125.256 89.408 124.328 90.4427 123.112 91.168C121.896 91.872 120.477 92.224 118.856 92.224ZM123.624 82.752C123.645 81.8347 123.443 81.024 123.016 80.32C122.611 79.616 122.035 79.0613 121.288 78.656C120.541 78.2507 119.677 78.048 118.696 78.048C117.843 78.048 117.064 78.2507 116.36 78.656C115.656 79.0613 115.069 79.6267 114.6 80.352C114.152 81.056 113.885 81.856 113.8 82.752H123.624ZM130.198 76H132.406L132.534 78.336C132.961 77.76 133.473 77.2693 134.07 76.864C134.689 76.4587 135.361 76.1813 136.086 76.032C136.833 75.8613 137.622 75.8507 138.454 76V78.4C137.558 78.2293 136.748 78.2293 136.022 78.4C135.318 78.5707 134.71 78.8907 134.198 79.36C133.686 79.8293 133.292 80.4267 133.014 81.152C132.737 81.856 132.598 82.6773 132.598 83.616V92H130.198V76ZM152.578 76H155.074L145.922 98.4H143.618L146.338 91.776L139.874 76H142.498L147.618 88.928L152.578 76ZM159.16 76V71.52H161.56V76H165.816V78.24H161.56V86.848C161.56 87.8293 161.763 88.544 162.168 88.992C162.595 89.44 163.128 89.7067 163.768 89.792C164.429 89.8773 165.112 89.8773 165.816 89.792V91.872C164.984 92.064 164.163 92.1173 163.352 92.032C162.563 91.9467 161.848 91.712 161.208 91.328C160.589 90.9227 160.088 90.3573 159.704 89.632C159.341 88.9067 159.16 87.9787 159.16 86.848V78.24H156.76V76H159.16ZM169.386 68.96H171.786V78.176C172.298 77.408 172.991 76.8213 173.866 76.416C174.741 75.9893 175.722 75.776 176.81 75.776C177.983 75.776 179.029 76.0427 179.946 76.576C180.863 77.1093 181.578 77.8987 182.09 78.944C182.623 79.9893 182.89 81.2907 182.89 82.848V92H180.33V83.136C180.33 81.472 179.978 80.2027 179.274 79.328C178.57 78.432 177.546 77.984 176.202 77.984C174.815 77.984 173.727 78.4533 172.938 79.392C172.17 80.3307 171.786 81.696 171.786 83.488V92H169.386V68.96ZM188.022 76H190.39V92H188.022V76ZM189.238 72.8C188.747 72.8 188.342 72.64 188.022 72.32C187.702 72 187.542 71.6053 187.542 71.136C187.542 70.6453 187.702 70.24 188.022 69.92C188.342 69.6 188.747 69.44 189.238 69.44C189.686 69.44 190.07 69.6 190.39 69.92C190.731 70.24 190.902 70.6453 190.902 71.136C190.902 71.6053 190.731 72 190.39 72.32C190.07 72.64 189.686 72.8 189.238 72.8ZM195.792 76H198L198.128 78.272C198.64 77.4827 199.312 76.8747 200.144 76.448C200.976 76 201.947 75.776 203.056 75.776C204.272 75.776 205.339 76.0427 206.256 76.576C207.173 77.088 207.888 77.8667 208.4 78.912C208.912 79.936 209.168 81.2267 209.168 82.784V92H206.768V83.072C206.768 81.408 206.405 80.1493 205.68 79.296C204.976 78.4213 203.952 77.984 202.608 77.984C201.221 77.984 200.133 78.4427 199.344 79.36C198.576 80.2773 198.192 81.632 198.192 83.424V92H195.792V76ZM226.111 76H228.319V89.056C228.319 91.0187 227.882 92.6933 227.007 94.08C226.133 95.488 224.863 96.5547 223.199 97.28C221.535 98.0267 219.509 98.4 217.119 98.4L216.735 96.192C219.743 96.1493 222.026 95.52 223.583 94.304C225.141 93.1093 225.919 91.36 225.919 89.056V88.704L226.175 88.768C225.685 89.7067 224.949 90.5173 223.967 91.2C222.986 91.8613 221.717 92.2027 220.159 92.224C218.687 92.224 217.397 91.8933 216.287 91.232C215.199 90.5493 214.346 89.5893 213.727 88.352C213.13 87.1147 212.831 85.664 212.831 84C212.831 82.336 213.13 80.896 213.727 79.68C214.346 78.4427 215.199 77.4827 216.287 76.8C217.397 76.1173 218.687 75.776 220.159 75.776C221.119 75.776 221.973 75.9253 222.719 76.224C223.466 76.5013 224.106 76.8853 224.639 77.376C225.173 77.8453 225.61 78.3787 225.951 78.976L226.111 76ZM215.423 84C215.423 85.8347 215.893 87.296 216.831 88.384C217.791 89.4507 219.082 89.984 220.703 89.984C221.685 89.984 222.57 89.7493 223.359 89.28C224.149 88.8107 224.767 88.128 225.215 87.232C225.685 86.336 225.919 85.2587 225.919 84C225.919 82.7413 225.685 81.6747 225.215 80.8C224.767 79.904 224.149 79.2213 223.359 78.752C222.57 78.2613 221.685 78.016 220.703 78.016C219.103 78.016 217.823 78.56 216.863 79.648C215.903 80.736 215.423 82.1867 215.423 84ZM247.766 92H245.59L240.566 76H242.998L246.678 89.024L250.806 76H252.982L257.046 88.992L260.694 76H263.062L258.07 92H255.862L251.83 79.584L247.766 92ZM272.731 92.224C271.238 92.224 269.904 91.8613 268.731 91.136C267.579 90.4107 266.672 89.4187 266.011 88.16C265.35 86.9013 265.019 85.4613 265.019 83.84C265.019 82.2827 265.35 80.896 266.011 79.68C266.672 78.464 267.579 77.5147 268.731 76.832C269.883 76.128 271.195 75.776 272.667 75.776C274.118 75.776 275.408 76.096 276.539 76.736C277.691 77.376 278.587 78.2613 279.227 79.392C279.867 80.5227 280.166 81.8133 280.123 83.264C280.123 83.4987 280.112 83.744 280.091 84C280.07 84.256 280.048 84.5333 280.027 84.832H267.643C267.686 85.8347 267.931 86.72 268.379 87.488C268.827 88.256 269.414 88.864 270.139 89.312C270.886 89.7387 271.728 89.952 272.667 89.952C273.904 89.952 274.95 89.7173 275.803 89.248C276.678 88.7787 277.307 88.1067 277.691 87.232L279.771 88.064C279.131 89.408 278.203 90.4427 276.987 91.168C275.771 91.872 274.352 92.224 272.731 92.224ZM277.499 82.752C277.52 81.8347 277.318 81.024 276.891 80.32C276.486 79.616 275.91 79.0613 275.163 78.656C274.416 78.2507 273.552 78.048 272.571 78.048C271.718 78.048 270.939 78.2507 270.235 78.656C269.531 79.0613 268.944 79.6267 268.475 80.352C268.027 81.056 267.76 81.856 267.675 82.752H277.499ZM305.394 79.232L305.138 79.264V68.96H307.538V92H305.33L305.17 89.024C304.679 89.92 303.943 90.6773 302.962 91.296C302.002 91.9147 300.807 92.224 299.378 92.224C297.906 92.224 296.615 91.8933 295.506 91.232C294.418 90.5493 293.565 89.5893 292.946 88.352C292.349 87.1147 292.05 85.664 292.05 84C292.05 82.336 292.349 80.896 292.946 79.68C293.565 78.4427 294.418 77.4827 295.506 76.8C296.615 76.1173 297.906 75.776 299.378 75.776C300.893 75.776 302.151 76.1067 303.154 76.768C304.157 77.4293 304.903 78.2507 305.394 79.232ZM294.642 84C294.642 85.8347 295.111 87.296 296.05 88.384C296.989 89.4507 298.269 89.984 299.89 89.984C300.893 89.984 301.789 89.7493 302.578 89.28C303.367 88.8107 303.986 88.128 304.434 87.232C304.903 86.336 305.138 85.2587 305.138 84C305.138 82.7413 304.903 81.6747 304.434 80.8C303.986 79.904 303.367 79.2213 302.578 78.752C301.789 78.2613 300.893 78.016 299.89 78.016C298.29 78.016 297.01 78.56 296.05 79.648C295.111 80.7147 294.642 82.1653 294.642 84ZM319.36 92.224C317.846 92.224 316.491 91.8933 315.296 91.232C314.102 90.5707 313.163 89.632 312.48 88.416C311.798 87.1787 311.456 85.7173 311.456 84.032C311.456 82.3253 311.798 80.8533 312.48 79.616C313.184 78.3787 314.134 77.4293 315.328 76.768C316.544 76.1067 317.91 75.776 319.424 75.776C320.939 75.776 322.294 76.1067 323.488 76.768C324.704 77.4293 325.654 78.3787 326.336 79.616C327.04 80.832 327.392 82.2827 327.392 83.968C327.392 85.6747 327.04 87.1467 326.336 88.384C325.632 89.6213 324.672 90.5707 323.456 91.232C322.24 91.8933 320.875 92.224 319.36 92.224ZM319.328 89.952C320.267 89.952 321.152 89.7493 321.984 89.344C322.816 88.9173 323.488 88.2667 324 87.392C324.534 86.496 324.8 85.3653 324.8 84C324.8 82.6133 324.544 81.4827 324.032 80.608C323.52 79.7333 322.848 79.0933 322.016 78.688C321.206 78.2613 320.331 78.048 319.392 78.048C318.454 78.048 317.579 78.2613 316.768 78.688C315.958 79.0933 315.296 79.744 314.784 80.64C314.294 81.5147 314.048 82.6347 314.048 84C314.048 85.3867 314.294 86.5173 314.784 87.392C315.275 88.2667 315.915 88.9173 316.704 89.344C317.515 89.7493 318.39 89.952 319.328 89.952Z" fill="white"/>
<path d="M34 2V18.7619" stroke="#F26829" stroke-width="3" stroke-linecap="round"/>
<path d="M11.1406 11.1445L22.8579 23.1306" stroke="#F26829" stroke-width="3" stroke-linecap="round"/>
<path d="M2 34L18.7619 34" stroke="#F26829" stroke-width="3" stroke-linecap="round"/>
</svg>
