<svg width="62" height="62" viewBox="0 0 62 62" fill="none" xmlns="http://www.w3.org/2000/svg">
<g id="quote-right" clip-path="url(#clip0_8615_111028)">
<path id="Vector" d="M21.5396 30.9991L12.0792 30.9991L12.0792 23.4307C12.0792 19.2563 15.4731 15.8624 19.6476 15.8624L20.5935 15.8624C20.9665 15.8633 21.336 15.7905 21.6807 15.6482C22.0255 15.5058 22.3387 15.2968 22.6024 15.0331C22.8662 14.7694 23.0752 14.4561 23.2175 14.1114C23.3598 13.7666 23.4326 13.3972 23.4317 13.0242L23.4317 7.34794C23.4326 6.97498 23.3598 6.6055 23.2175 6.26075C23.0752 5.916 22.8662 5.60277 22.6024 5.33904C22.3387 5.07531 22.0255 4.86629 21.6807 4.72397C21.336 4.58166 20.9665 4.50886 20.5935 4.50975L19.6476 4.50975C9.19379 4.50975 0.726692 12.9768 0.726691 23.4306L0.726689 51.812C0.726689 54.9458 3.26917 57.4883 6.40295 57.4883L21.5396 57.4883C24.6734 57.4883 27.2159 54.9458 27.2159 51.812L27.2159 36.6753C27.2159 33.5416 24.6734 30.9991 21.5396 30.9991ZM55.5972 30.9991L46.1368 30.9991L46.1368 23.4307C46.1368 19.2563 49.5306 15.8624 53.7051 15.8624L54.6511 15.8624C55.024 15.8633 55.3935 15.7905 55.7383 15.6482C56.083 15.5059 56.3962 15.2968 56.66 15.0331C56.9237 14.7694 57.1327 14.4561 57.275 14.1114C57.4174 13.7666 57.4902 13.3972 57.4893 13.0242L57.4893 7.34795C57.4902 6.97498 57.4174 6.60551 57.275 6.26076C57.1327 5.91601 56.9237 5.60278 56.66 5.33905C56.3962 5.07532 56.083 4.86629 55.7383 4.72398C55.3935 4.58166 55.024 4.50886 54.6511 4.50975L53.7051 4.50975C43.2513 4.50975 34.7842 12.9769 34.7842 23.4306L34.7842 51.812C34.7842 54.9458 37.3267 57.4883 40.4605 57.4883L55.5972 57.4883C58.731 57.4883 61.2734 54.9458 61.2734 51.812L61.2734 36.6753C61.2734 33.5416 58.731 30.9991 55.5972 30.9991Z" fill="url(#paint0_linear_8615_111028)"/>
</g>
<defs>
<linearGradient id="paint0_linear_8615_111028" x1="0.719025" y1="4.50974" x2="53.2279" y2="64.5273" gradientUnits="userSpaceOnUse">
<stop stop-color="#FF2525"/>
<stop offset="1" stop-color="#FF8743"/>
</linearGradient>
<clipPath id="clip0_8615_111028">
<rect width="61.9999" height="61.9999" fill="white" transform="translate(62 62) rotate(-180)"/>
</clipPath>
</defs>
</svg>
