<svg width="166" height="125" viewBox="0 0 166 125" fill="none" xmlns="http://www.w3.org/2000/svg">
<path opacity="0.04" d="M113.55 93.3975H140.101V114.638C140.101 126.353 130.576 135.878 118.86 135.878H116.205C115.159 135.875 114.122 136.08 113.154 136.479C112.187 136.879 111.308 137.465 110.568 138.205C109.827 138.945 109.241 139.825 108.841 140.792C108.442 141.76 108.238 142.796 108.24 143.843V159.773C108.238 160.82 108.442 161.857 108.841 162.825C109.241 163.792 109.827 164.671 110.568 165.411C111.308 166.151 112.187 166.738 113.154 167.137C114.122 167.537 115.159 167.741 116.205 167.739L118.86 167.739C148.198 167.739 171.961 143.976 171.961 114.638V34.9868C171.961 26.192 164.826 19.0566 156.031 19.0566L113.55 19.0566C104.755 19.0566 97.6201 26.192 97.6201 34.9868L97.6201 77.4673C97.6201 86.2621 104.755 93.3975 113.55 93.3975ZM17.9692 93.3975H44.5195L44.5195 114.638C44.5195 126.353 34.9947 135.878 23.2793 135.878H20.6244C19.5777 135.875 18.5408 136.08 17.5733 136.479C16.6058 136.879 15.7267 137.465 14.9866 138.205C14.2464 138.945 13.6598 139.825 13.2604 140.792C12.861 141.76 12.6567 142.796 12.6592 143.843L12.6592 159.773C12.6567 160.82 12.861 161.857 13.2604 162.825C13.6598 163.792 14.2464 164.671 14.9866 165.411C15.7267 166.151 16.6058 166.738 17.5733 167.137C18.5408 167.537 19.5777 167.741 20.6244 167.739H23.2793C52.6173 167.739 76.3799 143.976 76.3799 114.638L76.3799 34.9868C76.3799 26.192 69.2445 19.0566 60.4497 19.0566L17.9692 19.0566C9.17442 19.0566 2.03906 26.192 2.03906 34.9868L2.03906 77.4673C2.03906 86.2621 9.17442 93.3975 17.9692 93.3975Z" fill="#FF8E4F"/>
</svg>
