<svg width="312" height="157" viewBox="0 0 312 157" fill="none" xmlns="http://www.w3.org/2000/svg">
<path d="M130.916 9.14565L131.263 7.68638L130.916 9.14565ZM132.069 45.1875L133.241 46.1234L133.305 46.0427L133.358 45.9539L132.069 45.1875ZM304.118 156.605C304.885 156.917 305.76 156.548 306.072 155.78L311.159 143.275C311.471 142.508 311.102 141.633 310.334 141.321C309.567 141.009 308.692 141.378 308.38 142.145L303.859 153.261L292.743 148.74C291.975 148.427 291.1 148.796 290.788 149.564C290.476 150.331 290.845 151.206 291.613 151.518L304.118 156.605ZM166.844 61.3855L165.449 60.8331L166.844 61.3855ZM145.068 75.2271L145.368 73.7575L145.068 75.2271ZM3.65551 11.8424C4.44891 11.604 4.89888 10.7676 4.66054 9.97425C4.4222 9.18085 3.58581 8.73088 2.79241 8.96922L3.65551 11.8424ZM10.5187 6.8536C9.71493 7.05411 9.22587 7.86826 9.42637 8.67205C9.62688 9.47585 10.441 9.96491 11.2448 9.76441L10.5187 6.8536ZM15.0701 8.85246C15.8778 8.66856 16.3836 7.86466 16.1997 7.0569C16.0158 6.24915 15.2119 5.74341 14.4041 5.92731L15.0701 8.85246ZM22.2458 4.3006C21.4316 4.45367 20.8957 5.23776 21.0487 6.05192C21.2018 6.86609 21.9859 7.40202 22.8 7.24895L22.2458 4.3006ZM26.6775 6.55592C27.4943 6.41739 28.0441 5.64298 27.9056 4.82621C27.7671 4.00945 26.9926 3.45963 26.1759 3.59815L26.6775 6.55592ZM34.0793 2.39756C33.2583 2.50807 32.6823 3.26322 32.7928 4.08425C32.9033 4.90527 33.6585 5.48126 34.4795 5.37075L34.0793 2.39756ZM38.3966 4.87658C39.2193 4.77967 39.8077 4.03415 39.7108 3.21141C39.6139 2.38867 38.8684 1.80027 38.0456 1.89718L38.3966 4.87658ZM45.9974 1.09102C45.172 1.16134 44.5598 1.88749 44.6302 2.71293C44.7005 3.53837 45.4266 4.15051 46.2521 4.0802L45.9974 1.09102ZM50.188 3.77628C51.0144 3.71902 51.638 3.00264 51.5807 2.17619C51.5235 1.34975 50.8071 0.726198 49.9806 0.783459L50.188 3.77628ZM57.958 0.355726C57.1301 0.387247 56.4846 1.08389 56.5161 1.91171C56.5477 2.73954 57.2443 3.38507 58.0721 3.35355L57.958 0.355726ZM62.0192 3.23365C62.8475 3.21484 63.5036 2.5282 63.4848 1.69999C63.466 0.871773 62.7794 0.215617 61.9512 0.234421L62.0192 3.23365ZM69.9446 0.174755C69.1162 0.168371 68.4395 0.83475 68.4331 1.66315C68.4267 2.49156 69.0931 3.16828 69.9215 3.17467L69.9446 0.174755ZM73.8759 3.23497C74.7041 3.25384 75.3908 2.59774 75.4097 1.76953C75.4285 0.941317 74.7724 0.254622 73.9442 0.235752L73.8759 3.23497ZM81.9182 0.536699C81.0909 0.49313 80.385 1.12845 80.3414 1.95573C80.2978 2.78301 80.9331 3.48898 81.7604 3.53255L81.9182 0.536699ZM85.7008 3.76938C86.5273 3.82521 87.2426 3.20042 87.2985 2.37387C87.3543 1.54733 86.7295 0.832026 85.903 0.776202L85.7008 3.76938ZM93.8719 1.43276C93.0474 1.35259 92.3139 1.95601 92.2338 2.78055C92.1536 3.60509 92.757 4.3385 93.5816 4.41868L93.8719 1.43276ZM97.5078 4.82948C98.3311 4.92171 99.0733 4.32907 99.1655 3.5058C99.2577 2.68252 98.6651 1.94035 97.8418 1.84813L97.5078 4.82948ZM105.76 2.85207C104.94 2.73594 104.18 3.30675 104.064 4.12699C103.948 4.94724 104.519 5.70632 105.339 5.82245L105.76 2.85207ZM109.253 6.40548C110.071 6.53347 110.839 5.97373 110.967 5.15525C111.095 4.33677 110.535 3.5695 109.716 3.4415L109.253 6.40548ZM117.581 4.78745C116.766 4.636 115.983 5.17349 115.832 5.98796C115.68 6.80242 116.218 7.58545 117.032 7.73689L117.581 4.78745ZM120.913 8.48729C121.725 8.65036 122.516 8.12411 122.679 7.3119C122.842 6.49968 122.316 5.70905 121.504 5.54598L120.913 8.48729ZM129.308 7.22856C128.501 7.04253 127.696 7.54614 127.51 8.3534C127.324 9.16067 127.828 9.9659 128.635 10.1519L129.308 7.22856ZM132.51 11.0952C133.31 11.3091 134.133 10.8337 134.346 10.0334C134.56 9.23306 134.085 8.41086 133.285 8.19697L132.51 11.0952ZM141.21 10.779C140.438 10.4802 139.569 10.8643 139.27 11.637C138.971 12.4097 139.356 13.2783 140.128 13.577L141.21 10.779ZM143.819 15.1249C144.574 15.467 145.463 15.1328 145.805 14.3783C146.147 13.6238 145.813 12.7348 145.058 12.3927L143.819 15.1249ZM152.448 16.317C151.744 15.8806 150.819 16.0977 150.383 16.8018C149.946 17.506 150.163 18.4306 150.867 18.867L152.448 16.317ZM154.166 21.085C154.835 21.5737 155.773 21.4276 156.262 20.7586C156.75 20.0897 156.604 19.1512 155.935 18.6626L154.166 21.085ZM162.285 24.2271C161.718 23.6236 160.769 23.5944 160.165 24.162C159.562 24.7295 159.533 25.6788 160.1 26.2823L162.285 24.2271ZM162.624 29.2802C163.12 29.9434 164.06 30.0787 164.724 29.5824C165.387 29.086 165.522 28.1459 165.026 27.4827L162.624 29.2802ZM169.235 34.9182C168.927 34.1492 168.053 33.7755 167.284 34.0835C166.515 34.3915 166.142 35.2647 166.45 36.0337L169.235 34.9182ZM167.633 39.7203C167.83 40.525 168.642 41.0177 169.446 40.8209C170.251 40.624 170.744 39.8121 170.547 39.0074L167.633 39.7203ZM171.422 47.5223C171.447 46.6943 170.795 46.0031 169.967 45.9786C169.139 45.9541 168.448 46.6055 168.423 47.4336L171.422 47.5223ZM168.076 51.3184C167.955 52.1379 168.521 52.9004 169.34 53.0213C170.16 53.1423 170.922 52.576 171.043 51.7564L168.076 51.3184ZM168.981 59.9495C169.255 59.1678 168.844 58.3117 168.062 58.0374C167.281 57.7631 166.425 58.1744 166.15 58.9561L168.981 59.9495ZM164.547 62.8253C164.17 63.5629 164.462 64.4666 165.2 64.8438C165.937 65.221 166.841 64.9288 167.218 64.1912L164.547 62.8253ZM161.16 71.9485C161.787 71.4074 161.857 70.4602 161.316 69.833C160.775 69.2057 159.828 69.1358 159.2 69.6769L161.16 71.9485ZM155.643 72.1297C154.912 72.5195 154.636 73.4281 155.025 74.159C155.415 74.89 156.324 75.1666 157.055 74.7768L155.643 72.1297ZM147.295 77.0243C148.122 77.0704 148.83 76.4373 148.876 75.6101C148.923 74.783 148.289 74.0751 147.462 74.029L147.295 77.0243ZM143.396 73.2599C142.603 73.0201 141.766 73.4685 141.526 74.2614C141.286 75.0544 141.735 75.8916 142.528 76.1315L143.396 73.2599ZM134.422 71.7237C135.049 72.2651 135.996 72.1955 136.538 71.5684C137.079 70.9413 137.009 69.9941 136.382 69.4528L134.422 71.7237ZM133.666 66.5238C133.173 65.8579 132.234 65.7175 131.568 66.2102C130.902 66.703 130.761 67.6423 131.254 68.3082L133.666 66.5238ZM127.496 59.8543C127.661 60.6661 128.453 61.1904 129.265 61.0253C130.077 60.8602 130.601 60.0683 130.436 59.2565L127.496 59.8543ZM130.077 55.2802C130.095 54.4519 129.439 53.7655 128.611 53.7469C127.782 53.7283 127.096 54.3846 127.077 55.2129L130.077 55.2802ZM129.549 46.2149C129.13 46.9296 129.37 47.8486 130.084 48.2675C130.799 48.6864 131.718 48.4466 132.137 47.7319L129.549 46.2149ZM134.381 44.5521C134.925 43.9273 134.86 42.9799 134.235 42.4358C133.61 41.8917 132.663 41.9571 132.119 42.5819L134.381 44.5521ZM139.15 37.585C138.399 37.9357 138.075 38.8284 138.426 39.5789C138.776 40.3295 139.669 40.6537 140.42 40.3031L139.15 37.585ZM144.024 38.8832C144.811 38.6231 145.237 37.7745 144.977 36.988C144.717 36.2015 143.869 35.7749 143.082 36.035L144.024 38.8832ZM151.177 34.1223C150.358 34.2505 149.799 35.0179 149.927 35.8363C150.055 36.6548 150.822 37.2144 151.641 37.0862L151.177 34.1223ZM155.545 36.6028C156.37 36.5263 156.977 35.7955 156.9 34.9707C156.824 34.1458 156.093 33.5391 155.268 33.6157L155.545 36.6028ZM163.483 33.3022C162.655 33.2917 161.975 33.9547 161.965 34.7831C161.954 35.6114 162.617 36.2915 163.445 36.302L163.483 33.3022ZM167.424 36.4451C168.251 36.4936 168.961 35.8625 169.01 35.0355C169.058 34.2085 168.427 33.4988 167.6 33.4502L167.424 36.4451ZM175.748 34.274C174.928 34.1574 174.169 34.7277 174.052 35.5479C173.935 36.3681 174.506 37.1275 175.326 37.2442L175.748 34.274ZM179.256 37.8801C180.071 38.0279 180.851 37.4868 180.999 36.6717C181.147 35.8566 180.606 35.076 179.791 34.9282L179.256 37.8801ZM187.784 36.6775C186.981 36.472 186.164 36.956 185.959 37.7585C185.753 38.5611 186.237 39.3783 187.04 39.5837L187.784 36.6775ZM190.887 40.6388C191.682 40.8712 192.515 40.4151 192.748 39.6199C192.98 38.8248 192.524 37.9918 191.729 37.7593L190.887 40.6388ZM199.487 40.3038C198.709 40.0207 197.848 40.4223 197.565 41.2009C197.282 41.9794 197.684 42.8401 198.462 43.1232L199.487 40.3038ZM202.213 44.5541C202.983 44.8613 203.855 44.4867 204.163 43.7173C204.47 42.948 204.095 42.0752 203.326 41.768L202.213 44.5541ZM210.802 45.0163C210.052 44.6639 209.159 44.986 208.806 45.7357C208.454 46.4855 208.776 47.3789 209.526 47.7313L210.802 45.0163ZM213.114 49.4817C213.853 49.8555 214.756 49.5592 215.129 48.8199C215.503 48.0807 215.207 47.1783 214.468 46.8045L213.114 49.4817ZM221.646 50.6911C220.929 50.2766 220.011 50.5221 219.597 51.2394C219.182 51.9567 219.428 52.8742 220.145 53.2886L221.646 50.6911ZM223.569 55.3294C224.275 55.763 225.199 55.5423 225.632 54.8365C226.066 54.1306 225.845 53.2069 225.139 52.7732L223.569 55.3294ZM231.971 57.2222C231.289 56.7522 230.355 56.9242 229.885 57.6064C229.415 58.2887 229.587 59.2227 230.269 59.6927L231.971 57.2222ZM233.542 62.0095C234.212 62.4967 235.15 62.3485 235.637 61.6785C236.124 61.0084 235.976 60.0703 235.306 59.5831L233.542 62.0095ZM241.771 64.5333C241.126 64.0138 240.181 64.1157 239.662 64.7609C239.142 65.4062 239.244 66.3504 239.889 66.87L241.771 64.5333ZM242.978 69.4187C243.611 69.9535 244.557 69.8742 245.092 69.2416C245.627 68.6089 245.548 67.6625 244.915 67.1277L242.978 69.4187ZM251.02 72.5372C250.412 71.9736 249.463 72.0091 248.9 72.6163C248.336 73.2235 248.372 74.1726 248.979 74.7361L251.02 72.5372ZM251.863 77.4729C252.457 78.0498 253.407 78.0355 253.984 77.4409C254.561 76.8464 254.546 75.8967 253.952 75.3198L251.863 77.4729ZM259.669 81.1145C259.1 80.5124 258.15 80.4856 257.548 81.0546C256.946 81.6236 256.919 82.5729 257.488 83.175L259.669 81.1145ZM260.219 86.1266C260.775 86.7405 261.724 86.7873 262.338 86.2311C262.952 85.6749 262.999 84.7263 262.442 84.1123L260.219 86.1266ZM267.769 90.2381C267.238 89.6022 266.292 89.5171 265.656 90.048C265.02 90.579 264.935 91.5249 265.466 92.1608L267.769 90.2381ZM268.035 95.3007C268.554 95.947 269.498 96.0508 270.144 95.5325C270.79 95.0143 270.894 94.0702 270.376 93.4239L268.035 95.3007ZM275.319 99.8328C274.825 99.1675 273.885 99.0283 273.22 99.5219C272.555 100.015 272.416 100.955 272.909 101.62L275.319 99.8328ZM275.275 104.871C275.756 105.546 276.693 105.702 277.367 105.221C278.042 104.739 278.198 103.803 277.717 103.128L275.275 104.871ZM282.323 109.83C281.866 109.139 280.935 108.95 280.245 109.407C279.554 109.864 279.365 110.795 279.822 111.486L282.323 109.83ZM281.998 114.834C282.443 115.533 283.371 115.738 284.069 115.292C284.767 114.846 284.972 113.919 284.527 113.221L281.998 114.834ZM288.798 120.167C288.376 119.455 287.456 119.219 286.743 119.642C286.03 120.064 285.795 120.984 286.217 121.697L288.798 120.167ZM288.217 125.134C288.629 125.853 289.545 126.103 290.264 125.691C290.983 125.28 291.233 124.364 290.822 123.645L288.217 125.134ZM294.762 130.792C294.373 130.06 293.465 129.783 292.734 130.172C292.002 130.561 291.724 131.469 292.113 132.2L294.762 130.792ZM293.953 135.722C294.331 136.459 295.235 136.75 295.972 136.372C296.709 135.994 297 135.09 296.622 134.352L293.953 135.722ZM300.239 141.658C299.882 140.911 298.987 140.594 298.239 140.951C297.492 141.308 297.175 142.204 297.532 142.951L300.239 141.658ZM299.226 146.56C299.573 147.313 300.464 147.641 301.216 147.294C301.969 146.948 302.297 146.056 301.95 145.304L299.226 146.56ZM305.255 152.73C304.929 151.969 304.047 151.617 303.285 151.944C302.524 152.271 302.172 153.153 302.499 153.914L305.255 152.73ZM1.78303 12.4189C2.38493 12.2289 3.00921 12.0365 3.65551 11.8424L2.79241 8.96922C2.13289 9.16734 1.49527 9.36384 0.87991 9.55811L1.78303 12.4189ZM11.2448 9.76441C12.4712 9.45849 13.7467 9.15374 15.0701 8.85246L14.4041 5.92731C13.0606 6.23317 11.7651 6.5427 10.5187 6.8536L11.2448 9.76441ZM22.8 7.24895C24.0605 7.01199 25.3532 6.78052 26.6775 6.55592L26.1759 3.59815C24.8339 3.82575 23.5236 4.06037 22.2458 4.3006L22.8 7.24895ZM34.4795 5.37075C35.7615 5.19819 37.0674 5.03314 38.3966 4.87658L38.0456 1.89718C36.6999 2.05569 35.3776 2.22281 34.0793 2.39756L34.4795 5.37075ZM46.2521 4.0802C47.5456 3.97 48.8577 3.86845 50.188 3.77628L49.9806 0.783459C48.6345 0.876726 47.3066 0.979497 45.9974 1.09102L46.2521 4.0802ZM58.0721 3.35355C59.373 3.30402 60.6888 3.26385 62.0192 3.23365L61.9512 0.234421C60.6052 0.264978 59.2741 0.305615 57.958 0.355726L58.0721 3.35355ZM69.9215 3.17467C71.2273 3.18473 72.5455 3.20466 73.8759 3.23497L73.9442 0.235752C72.5987 0.205096 71.2654 0.184931 69.9446 0.174755L69.9215 3.17467ZM81.7604 3.53255C83.0636 3.60118 84.3771 3.67998 85.7008 3.76938L85.903 0.776202C84.5644 0.685797 83.2361 0.606106 81.9182 0.536699L81.7604 3.53255ZM93.5816 4.41868C94.8816 4.54508 96.1904 4.68189 97.5078 4.82948L97.8418 1.84813C96.5098 1.6989 95.1864 1.56057 93.8719 1.43276L93.5816 4.41868ZM105.339 5.82245C106.636 6.00607 107.941 6.20031 109.253 6.40548L109.716 3.4415C108.39 3.23408 107.071 3.03772 105.76 2.85207L105.339 5.82245ZM117.032 7.73689C118.319 7.97625 119.613 8.22628 120.913 8.48729L121.504 5.54598C120.19 5.28215 118.882 5.0294 117.581 4.78745L117.032 7.73689ZM128.635 10.1519C129.278 10.3002 129.923 10.4512 130.569 10.6049L131.263 7.68638C130.61 7.531 129.959 7.3784 129.308 7.22856L128.635 10.1519ZM130.569 10.6049C131.208 10.7569 131.855 10.9203 132.51 11.0952L133.285 8.19697C132.603 8.01488 131.929 7.84474 131.263 7.68638L130.569 10.6049ZM140.128 13.577C141.36 14.0535 142.594 14.5692 143.819 15.1249L145.058 12.3927C143.779 11.8126 142.493 11.2751 141.21 10.779L140.128 13.577ZM150.867 18.867C151.997 19.567 153.099 20.3061 154.166 21.085L155.935 18.6626C154.804 17.8361 153.638 17.0546 152.448 16.317L150.867 18.867ZM160.1 26.2823C161.001 27.2398 161.845 28.2389 162.624 29.2802L165.026 27.4827C164.175 26.3463 163.258 25.2615 162.285 24.2271L160.1 26.2823ZM166.45 36.0337C166.924 37.2186 167.322 38.447 167.633 39.7203L170.547 39.0074C170.201 37.5944 169.761 36.2315 169.235 34.9182L166.45 36.0337ZM168.423 47.4336C168.386 48.6898 168.272 49.9844 168.076 51.3184L171.043 51.7564C171.257 50.3101 171.381 48.8988 171.422 47.5223L168.423 47.4336ZM166.15 58.9561C165.933 59.5745 165.7 60.2002 165.449 60.8331L168.238 61.938C168.503 61.269 168.751 60.6062 168.981 59.9495L166.15 58.9561ZM165.449 60.8331C165.181 61.5104 164.879 62.1757 164.547 62.8253L167.218 64.1912C167.593 63.4575 167.934 62.7052 168.238 61.938L165.449 60.8331ZM159.2 69.6769C158.09 70.6349 156.896 71.4614 155.643 72.1297L157.055 74.7768C158.516 73.9978 159.891 73.0427 161.16 71.9485L159.2 69.6769ZM147.462 74.029C146.77 73.9904 146.071 73.9012 145.368 73.7575L144.768 76.6967C145.614 76.8697 146.458 76.9777 147.295 77.0243L147.462 74.029ZM145.368 73.7575C144.687 73.6182 144.03 73.4516 143.396 73.2599L142.528 76.1315C143.251 76.3502 143.997 76.5392 144.768 76.6967L145.368 73.7575ZM136.382 69.4528C135.351 68.5625 134.445 67.5775 133.666 66.5238L131.254 68.3082C132.163 69.5367 133.219 70.6855 134.422 71.7237L136.382 69.4528ZM130.436 59.2565C130.167 57.933 130.047 56.5963 130.077 55.2802L127.077 55.2129C127.043 56.7554 127.183 58.3152 127.496 59.8543L130.436 59.2565ZM132.137 47.7319C132.466 47.1706 132.834 46.6331 133.241 46.1234L130.896 44.2516C130.398 44.876 129.949 45.5324 129.549 46.2149L132.137 47.7319ZM133.358 45.9539C133.638 45.4827 133.979 45.0144 134.381 44.5521L132.119 42.5819C131.608 43.1688 131.159 43.7823 130.779 44.4211L133.358 45.9539ZM140.42 40.3031C141.519 39.7895 142.722 39.314 144.024 38.8832L143.082 36.035C141.679 36.4992 140.365 37.0172 139.15 37.585L140.42 40.3031ZM151.641 37.0862C152.893 36.8901 154.195 36.7281 155.545 36.6028L155.268 33.6157C153.858 33.7465 152.493 33.9162 151.177 34.1223L151.641 37.0862ZM163.445 36.302C164.742 36.3184 166.069 36.3655 167.424 36.4451L167.6 33.4502C166.2 33.3681 164.827 33.3192 163.483 33.3022L163.445 36.302ZM175.326 37.2442C176.617 37.4278 177.928 37.6394 179.256 37.8801L179.791 34.9282C178.425 34.6808 177.078 34.4631 175.748 34.274L175.326 37.2442ZM187.04 39.5837C188.31 39.909 189.593 40.2604 190.887 40.6388L191.729 37.7593C190.402 37.3715 189.087 37.0112 187.784 36.6775L187.04 39.5837ZM198.462 43.1232C199.705 43.5751 200.955 44.0519 202.213 44.5541L203.326 41.768C202.039 41.2542 200.759 40.7664 199.487 40.3038L198.462 43.1232ZM209.526 47.7313C210.717 48.2914 211.914 48.8746 213.114 49.4817L214.468 46.8045C213.242 46.1845 212.02 45.5886 210.802 45.0163L209.526 47.7313ZM220.145 53.2886C221.284 53.9469 222.426 54.627 223.569 55.3294L225.139 52.7732C223.973 52.0567 222.808 51.3628 221.646 50.6911L220.145 53.2886ZM230.269 59.6927C231.359 60.4439 232.451 61.216 233.542 62.0095L235.306 59.5831C234.194 58.7747 233.082 57.9878 231.971 57.2222L230.269 59.6927ZM239.889 66.87C240.92 67.6997 241.95 68.5492 242.978 69.4187L244.915 67.1277C243.868 66.2427 242.82 65.378 241.771 64.5333L239.889 66.87ZM248.979 74.7361C249.942 75.6299 250.903 76.542 251.863 77.4729L253.952 75.3198C252.976 74.3735 251.999 73.4461 251.02 72.5372L248.979 74.7361ZM257.488 83.175C258.401 84.141 259.312 85.1248 260.219 86.1266L262.442 84.1123C261.521 83.095 260.596 82.0958 259.669 81.1145L257.488 83.175ZM265.466 92.1608C266.326 93.1903 267.182 94.2369 268.035 95.3007L270.376 93.4239C269.511 92.3447 268.642 91.2828 267.769 90.2381L265.466 92.1608ZM272.909 101.62C273.701 102.688 274.49 103.772 275.275 104.871L277.717 103.128C276.921 102.014 276.122 100.915 275.319 99.8328L272.909 101.62ZM279.822 111.486C280.551 112.587 281.276 113.703 281.998 114.834L284.527 113.221C283.796 112.076 283.062 110.945 282.323 109.83L279.822 111.486ZM286.217 121.697C286.888 122.829 287.555 123.974 288.217 125.134L290.822 123.645C290.151 122.472 289.477 121.313 288.798 120.167L286.217 121.697ZM292.113 132.2C292.731 133.361 293.344 134.535 293.953 135.722L296.622 134.352C296.006 133.153 295.386 131.966 294.762 130.792L292.113 132.2ZM297.532 142.951C298.101 144.142 298.666 145.345 299.226 146.56L301.95 145.304C301.384 144.077 300.814 142.861 300.239 141.658L297.532 142.951ZM302.499 153.914C302.767 154.539 303.035 155.167 303.301 155.798L306.065 154.632C305.796 153.995 305.526 153.361 305.255 152.73L302.499 153.914Z" fill="#6A0600"/>
</svg>
