<svg width="16" height="16" viewBox="0 0 16 16" fill="none" xmlns="http://www.w3.org/2000/svg">
<path d="M8.51107 0.264937C8.15165 -0.0883122 7.56892 -0.0883122 7.2095 0.264937C6.85008 0.618186 6.85008 1.19092 7.2095 1.54416L12.8577 7.09545L0.920349 7.09545C0.412055 7.09545 -6.28957e-07 7.50043 0 8C-2.18767e-07 8.49957 0.412054 8.90455 0.920348 8.90455L12.8577 8.90455L7.2095 14.4558C6.85008 14.8091 6.85008 15.3818 7.2095 15.7351C7.56892 16.0883 8.15165 16.0883 8.51107 15.7351L15.7304 8.63962C16.0899 8.28637 16.0899 7.71364 15.7304 7.36039L8.51107 0.264937Z" fill="#D9D9D9"/>
</svg>
