<svg width="20" height="20" viewBox="0 0 20 20" fill="none" xmlns="http://www.w3.org/2000/svg">
<path fill-rule="evenodd" clip-rule="evenodd" d="M9.99995 0C4.47714 0 0 4.43358 0 9.90263V10.0974C0 15.5664 4.47714 20 9.99995 20C15.5229 20 20 15.5664 20 10.0974V9.90263C20 4.48915 15.6133 0.0902049 10.168 0.00136585C10.1449 0.000458531 10.1216 0 10.0983 0L10.0694 0.000234115L9.99995 0ZM7.87544 1.72776C5.56857 2.31394 3.63913 3.83243 2.5209 5.85366H5.75625C6.20599 4.39699 6.91209 2.99911 7.87544 1.72776ZM1.4778 9.90263C1.4778 9.00078 1.62067 8.1319 1.88521 7.31707H5.39388C5.05974 9.0922 5.08991 10.9191 5.48288 12.6829H1.88521C1.62067 11.8681 1.4778 10.9992 1.4778 10.0974V9.90263ZM2.5209 14.1463C3.70656 16.2895 5.8042 17.8673 8.29674 18.368C7.21985 17.0854 6.41992 15.6524 5.89798 14.1463H2.5209ZM7.47202 14.1463C7.93528 15.3183 8.5921 16.4331 9.44193 17.4429L9.85798 17.9374C9.91739 18.0079 10.0055 18.0488 10.0983 18.0488C10.1911 18.0488 10.2792 18.0079 10.3386 17.9373L10.7546 17.4429C11.6044 16.4331 12.2613 15.3183 12.7245 14.1463H7.47202ZM14.2986 14.1463C13.7836 15.6322 12.9981 17.0468 11.9431 18.3163C14.3301 17.765 16.3316 16.2204 17.4791 14.1463H14.2986ZM18.1147 12.6829H14.7136C15.1066 10.9191 15.1368 9.0922 14.8027 7.31707H18.1147C18.3793 8.1319 18.5222 9.00078 18.5222 9.90263V10.0974C18.5222 10.9992 18.3793 11.8681 18.1147 12.6829ZM13.1957 12.6829H7.00085C6.55851 10.9256 6.52439 9.08849 6.90043 7.31707H13.2961C13.6722 9.08849 13.638 10.9256 13.1957 12.6829ZM14.4403 5.85366H17.4791C16.401 3.90493 14.5688 2.42352 12.3713 1.79442C13.309 3.0479 13.9984 4.42239 14.4403 5.85366ZM9.24056 2.37048C8.38659 3.4417 7.74354 4.62051 7.31073 5.85366H12.8858C12.453 4.62051 11.81 3.4417 10.956 2.37048L10.3162 1.56797C10.2679 1.50751 10.1966 1.47011 10.1197 1.46423L10.0834 1.46381C10.004 1.46803 9.9299 1.50581 9.88035 1.56797L9.24056 2.37048Z" fill="white"/>
</svg>
