<svg width="26" height="26" viewBox="0 0 26 26" fill="none" xmlns="http://www.w3.org/2000/svg">
<path d="M22.7222 0C23.4589 0 24.1655 0.304364 24.6864 0.846136C25.2073 1.38791 25.5 2.12271 25.5 2.88889V23.1111C25.5 23.8773 25.2073 24.6121 24.6864 25.1539C24.1655 25.6956 23.4589 26 22.7222 26H3.27778C2.54107 26 1.83453 25.6956 1.31359 25.1539C0.792658 24.6121 0.5 23.8773 0.5 23.1111V2.88889C0.5 2.12271 0.792658 1.38791 1.31359 0.846136C1.83453 0.304364 2.54107 0 3.27778 0H22.7222ZM22.0278 22.3889V14.7333C22.0278 13.4845 21.5507 12.2867 20.7016 11.4036C19.8525 10.5206 18.7008 10.0244 17.5 10.0244C16.3194 10.0244 14.9444 10.7756 14.2778 11.9022V10.2989H10.4028V22.3889H14.2778V15.2678C14.2778 14.1556 15.1389 13.2456 16.2083 13.2456C16.724 13.2456 17.2186 13.4586 17.5833 13.8379C17.9479 14.2171 18.1528 14.7315 18.1528 15.2678V22.3889H22.0278ZM5.88889 8.03111C6.50773 8.03111 7.10122 7.77545 7.53881 7.32036C7.97639 6.86527 8.22222 6.24804 8.22222 5.60444C8.22222 4.26111 7.18056 3.16333 5.88889 3.16333C5.26637 3.16333 4.66934 3.42052 4.22915 3.87832C3.78896 4.33612 3.54167 4.95702 3.54167 5.60444C3.54167 6.94778 4.59722 8.03111 5.88889 8.03111ZM7.81944 22.3889V10.2989H3.97222V22.3889H7.81944Z" fill="#ffffff"/>
</svg>
