<svg width="22" height="16" viewBox="0 0 22 16" fill="none" xmlns="http://www.w3.org/2000/svg">
<path d="M21.9992 1.92357C22.0255 0.700637 21.3954 0.059448 20.1091 0L1.89087 0.0127387C0.604563 0.0721866 -0.0254636 0.713376 0.000787533 1.93631V14.1274C0.0532897 14.6964 0.232672 15.1338 0.538935 15.4395C0.556436 15.4565 0.573937 15.4735 0.591437 15.4904C0.906451 15.7707 1.33522 15.9236 1.87774 15.949L20.1091 16C21.2554 15.9406 21.8811 15.3376 21.9861 14.1911V14.1783V13.7452L21.9992 1.92357ZM20.3585 2.81529L20.411 13.4268L15.0427 8.15286L20.3585 2.81529ZM7.02296 8.05095L6.95733 8.12739L1.61523 13.2866L1.64148 2.78981L7.02296 8.05095ZM2.80966 14.4841L8.21738 9.13376L9.73995 10.6115C10.6675 11.2824 11.5338 11.2781 12.3388 10.5987L13.7826 9.19745L19.2428 14.5732L2.80966 14.4841ZM12.1682 8.57325C11.3894 9.29512 10.6762 9.28238 10.0287 8.53503L2.80966 1.55414H19.4135L12.1682 8.57325Z" fill="white"/>
</svg>
