<svg width="60" height="60" viewBox="0 0 60 60" fill="none" xmlns="http://www.w3.org/2000/svg">
<path d="M30 0C22.0434 0 14.413 3.16069 8.78694 8.78694C3.16069 14.4128 0 22.0436 0 30C0 37.9564 3.16069 45.587 8.78694 51.2131C14.4128 56.8393 22.0436 60 30 60C37.9564 60 45.587 56.8393 51.2131 51.2131C56.8393 45.5872 60 37.9564 60 30C60 24.7342 58.6138 19.5607 55.9809 15.0001C53.3475 10.4395 49.5607 6.65267 44.9999 4.01911C40.4393 1.3862 35.2658 0 30 0ZM39.6047 30.8119L25.0827 39.1962C24.7927 39.3636 24.4353 39.3636 24.1452 39.1962C23.8552 39.0288 23.6765 38.7191 23.6765 38.3843V21.6155C23.6765 21.2807 23.8552 20.971 24.1452 20.8035C24.4353 20.6357 24.7927 20.6357 25.0827 20.8035L39.6047 29.1883V29.1879C39.8948 29.3553 40.0735 29.665 40.0735 29.9998C40.0735 30.3346 39.8948 30.6443 39.6047 30.8117V30.8119Z" fill="url(#paint0_linear_5071_11172)"/>
<defs>
<linearGradient id="paint0_linear_5071_11172" x1="0" y1="0" x2="60" y2="60" gradientUnits="userSpaceOnUse">
<stop stop-color="#FFD7D5"/>
<stop offset="1" stop-color="white"/>
</linearGradient>
</defs>
</svg>
