<svg width="19" height="20" viewBox="0 0 19 20" fill="none" xmlns="http://www.w3.org/2000/svg">
<path d="M18.0656 4.36681L10.4344 0.232896C10.1541 0.087336 9.81147 0 9.5 0C9.18852 0 8.8459 0.087336 8.56557 0.232896L0.934426 4.36681C0.342623 4.68705 0 5.26929 0 5.88064V14.1194C0 14.7307 0.342623 15.313 0.934426 15.6332L8.56557 19.7671C8.8459 19.9127 9.18852 20 9.5 20C9.81147 20 10.1541 19.9127 10.4344 19.7671L18.0656 15.6332C18.6574 15.313 19 14.7307 19 14.1194V5.88064C19 5.24018 18.6574 4.65793 18.0656 4.36681ZM9.5 1.74672L16.2279 5.35662L9.5 8.99563L2.80328 5.35662L9.5 1.74672ZM1.86885 6.87045L8.56557 10.5095V17.7584L1.86885 14.1194V6.87045ZM10.4344 17.7584V10.5095L17.1311 6.89956V14.1485L10.4344 17.7584Z" fill="white"/>
</svg>
