<svg width="31" height="24" viewBox="0 0 31 24" fill="none" xmlns="http://www.w3.org/2000/svg">
<path d="M30.5 2.82353C29.3958 3.31765 28.2055 3.64235 26.9723 3.79765C28.2342 3.04941 29.2094 1.86353 29.6683 0.437647C28.478 1.14353 27.1587 1.63765 25.7677 1.92C24.6348 0.705883 23.043 0 21.2361 0C17.8662 0 15.1128 2.71059 15.1128 6.05647C15.1128 6.53647 15.1702 7.00235 15.2706 7.44C10.1654 7.18588 5.6195 4.77176 2.59369 1.11529C2.0631 2.00471 1.76195 3.04941 1.76195 4.15059C1.76195 6.25412 2.83748 8.11765 4.50096 9.17647C3.48279 9.17647 2.53633 8.89412 1.70459 8.47059V8.51294C1.70459 11.4494 3.82696 13.9059 6.63767 14.4565C5.73527 14.6996 4.7879 14.7334 3.86998 14.5553C4.25947 15.7588 5.02228 16.8119 6.05117 17.5665C7.08006 18.3211 8.3233 18.7393 9.60612 18.7624C7.43159 20.4571 4.73613 21.3732 1.96272 21.36C1.47514 21.36 0.987572 21.3318 0.5 21.2753C3.22467 22.9976 6.46558 24 9.93595 24C21.2361 24 27.4455 14.7671 27.4455 6.76235C27.4455 6.49412 27.4455 6.24 27.4312 5.97176C28.6358 5.12471 29.6683 4.05176 30.5 2.82353Z" fill="#ffffff"/>
</svg>
