<svg width="32" height="32" viewBox="0 0 32 32" fill="none" xmlns="http://www.w3.org/2000/svg">
<path d="M16 16C16.7911 16 17.5645 15.7654 18.2223 15.3259C18.8801 14.8864 19.3928 14.2616 19.6955 13.5307C19.9983 12.7998 20.0775 11.9956 19.9231 11.2196C19.7688 10.4437 19.3878 9.73098 18.8284 9.17157C18.269 8.61216 17.5563 8.2312 16.7804 8.07686C16.0044 7.92252 15.2002 8.00173 14.4693 8.30448C13.7384 8.60723 13.1136 9.11992 12.6741 9.77772C12.2346 10.4355 12 11.2089 12 12C12 13.0609 12.4214 14.0783 13.1716 14.8284C13.9217 15.5786 14.9391 16 16 16ZM16 9.6C16.4747 9.6 16.9387 9.74076 17.3334 10.0045C17.728 10.2682 18.0357 10.643 18.2173 11.0816C18.399 11.5201 18.4465 12.0027 18.3539 12.4682C18.2613 12.9338 18.0327 13.3614 17.6971 13.6971C17.3614 14.0327 16.9338 14.2613 16.4682 14.3539C16.0027 14.4465 15.5201 14.399 15.0816 14.2173C14.643 14.0357 14.2682 13.728 14.0045 13.3334C13.7408 12.9387 13.6 12.4747 13.6 12C13.6 11.3635 13.8529 10.753 14.3029 10.3029C14.753 9.85286 15.3635 9.6 16 9.6ZM20.8 16.8H11.2C10.3513 16.8 9.53737 17.1371 8.93726 17.7373C8.33714 18.3374 8 19.1513 8 20V20.8C8 21.6487 8.33714 22.4626 8.93726 23.0627C9.53737 23.6629 10.3513 24 11.2 24H20.8C21.6487 24 22.4626 23.6629 23.0627 23.0627C23.6629 22.4626 24 21.6487 24 20.8V20C24 19.1513 23.6629 18.3374 23.0627 17.7373C22.4626 17.1371 21.6487 16.8 20.8 16.8ZM22.4 20.8C22.4 21.2243 22.2314 21.6313 21.9314 21.9314C21.6313 22.2314 21.2243 22.4 20.8 22.4H11.2C10.7757 22.4 10.3687 22.2314 10.0686 21.9314C9.76857 21.6313 9.6 21.2243 9.6 20.8V20C9.6 19.5757 9.76857 19.1687 10.0686 18.8686C10.3687 18.5686 10.7757 18.4 11.2 18.4H20.8C21.2243 18.4 21.6313 18.5686 21.9314 18.8686C22.2314 19.1687 22.4 19.5757 22.4 20V20.8Z" fill="#FF8E4F"/>
</svg>
