<svg width="29" height="20" viewBox="0 0 29 20" fill="none" xmlns="http://www.w3.org/2000/svg">
<path d="M11.7 14.2857L18.966 10L11.7 5.71429V14.2857ZM27.884 3.1C28.066 3.77143 28.192 4.67143 28.276 5.81429C28.374 6.95714 28.416 7.94286 28.416 8.8L28.5 10C28.5 13.1286 28.276 15.4286 27.884 16.9C27.534 18.1857 26.722 19.0143 25.462 19.3714C24.804 19.5571 23.6 19.6857 21.752 19.7714C19.932 19.8714 18.266 19.9143 16.726 19.9143L14.5 20C8.634 20 4.98 19.7714 3.538 19.3714C2.278 19.0143 1.466 18.1857 1.116 16.9C0.934 16.2286 0.808 15.3286 0.724 14.1857C0.626 13.0429 0.584 12.0571 0.584 11.2L0.5 10C0.5 6.87143 0.724 4.57143 1.116 3.1C1.466 1.81429 2.278 0.985714 3.538 0.628572C4.196 0.442857 5.4 0.314286 7.248 0.228571C9.068 0.128571 10.734 0.0857142 12.274 0.0857142L14.5 0C20.366 0 24.02 0.228572 25.462 0.628572C26.722 0.985714 27.534 1.81429 27.884 3.1Z" fill="#ffffff"/>
</svg>
