<svg width="60" height="51" viewBox="0 0 60 51" fill="none" xmlns="http://www.w3.org/2000/svg">
<path d="M31.9662 3.35385C33.8394 6.10895 33.6397 9.26005 31.5144 10.3874C29.3911 11.5162 26.1531 10.1955 24.2761 7.43863C22.4022 4.68152 22.6025 1.53283 24.7252 0.403462C26.8505 -0.725704 30.0873 0.596728 31.9662 3.35385Z" fill="#EC691F"/>
<path d="M51.9626 21.15C54.9672 10.805 56.6517 0.622105 35.9989 3.87639C47.2576 0.0729395 61.6535 1.63801 59.8451 15.3934C57.8185 33.8494 27.4129 55.3275 9.57999 50.2413C-2.17922 48.4677 -6.99546 28.9297 18.2481 12.154C6.15263 23.26 1.03879 43.9196 17.8893 47.7805C28.6023 45.8831 38.719 21.8306 14.6614 6.57628C24.4806 11.7878 40.4075 14.845 47.1125 12.3329C45.8447 15.7434 38.9453 18.107 35.2801 17.1916C41.3096 30.2251 33.9495 44.6592 22.3698 47.6015C31.8631 47.3669 45.2406 38.1131 51.9626 21.15Z" fill="#EC691F"/>
</svg>
